<?xml version="1.0" encoding="UTF-8" standalone="no"?>
<!DOCTYPE svg PUBLIC "-//W3C//DTD SVG 1.1//EN" "http://www.w3.org/Graphics/SVG/1.1/DTD/svg11.dtd">
<svg width="100%" height="100%" viewBox="0 0 1024 1024" version="1.1" xmlns="http://www.w3.org/2000/svg" xmlns:xlink="http://www.w3.org/1999/xlink" xml:space="preserve" xmlns:serif="http://www.serif.com/" style="fill-rule:evenodd;clip-rule:evenodd;stroke-miterlimit:10;">
    <g id="Normal" transform="matrix(1,0,0,1,-0.0592795,0.467396)">
        <g id="Grid">
            <g transform="matrix(-0.707107,0.707107,0.707107,0.707107,512,1236.08)">
                <path d="M-1236.08,-512L212.077,-512" style="fill:none;fill-rule:nonzero;stroke:rgb(51,142,82);stroke-width:6.25px;"/>
            </g>
            <g transform="matrix(-0.707107,-0.707107,-0.707107,0.707107,512,-212.077)">
                <path d="M-1236.08,512L212.077,512" style="fill:none;fill-rule:nonzero;stroke:rgb(51,142,82);stroke-width:6.25px;"/>
            </g>
            <g>
                <g transform="matrix(-1,0,0,1,0,128)">
                    <path d="M-1024,0L0,0" style="fill:none;fill-rule:nonzero;stroke:rgb(51,142,82);stroke-width:6.25px;"/>
                </g>
                <g transform="matrix(0,-1,-1,0,1024,512)">
                    <path d="M-512,512L512,512" style="fill:none;fill-rule:nonzero;stroke:rgb(51,142,82);stroke-width:6.25px;"/>
                </g>
                <g transform="matrix(0,-1,-1,0,1024,512)">
                    <path d="M-512,512L512,512" style="fill:none;fill-rule:nonzero;stroke:rgb(51,142,82);stroke-width:6.25px;"/>
                </g>
                <g transform="matrix(0,-1,-1,0,896,512)">
                    <path d="M-512,512L512,512" style="fill:none;fill-rule:nonzero;stroke:rgb(51,142,82);stroke-width:6.25px;"/>
                </g>
                <g transform="matrix(0,-1,-1,0,768,512)">
                    <path d="M-512,512L512,512" style="fill:none;fill-rule:nonzero;stroke:rgb(51,142,82);stroke-width:6.25px;"/>
                </g>
                <g transform="matrix(0,-1,-1,0,640,512)">
                    <path d="M-512,512L512,512" style="fill:none;fill-rule:nonzero;stroke:rgb(51,142,82);stroke-width:6.25px;"/>
                </g>
                <g transform="matrix(0,-1,-1,0,1152,512)">
                    <path d="M-512,512L512,512" style="fill:none;fill-rule:nonzero;stroke:rgb(51,142,82);stroke-width:6.25px;"/>
                </g>
                <g transform="matrix(0,-1,-1,0,1280,512)">
                    <path d="M-512,512L512,512" style="fill:none;fill-rule:nonzero;stroke:rgb(51,142,82);stroke-width:6.25px;"/>
                </g>
                <g transform="matrix(0,-1,-1,0,1408,512)">
                    <path d="M-512,512L512,512" style="fill:none;fill-rule:nonzero;stroke:rgb(51,142,82);stroke-width:6.25px;"/>
                </g>
                <g transform="matrix(0,1,1,0,1024,512)">
                    <path d="M-512,-512L512,-512" style="fill:none;fill-rule:nonzero;stroke:rgb(51,142,82);stroke-width:6.25px;"/>
                </g>
                <g transform="matrix(-1,0,0,1,0,512)">
                    <path d="M-1024,0L0,0" style="fill:none;fill-rule:nonzero;stroke:rgb(51,142,82);stroke-width:6.25px;"/>
                </g>
                <g transform="matrix(0,1,1,0,1024,512)">
                    <path d="M-512,-512L512,-512" style="fill:none;fill-rule:nonzero;stroke:rgb(51,142,82);stroke-width:6.25px;"/>
                </g>
                <g transform="matrix(-1,0,0,1,0,512)">
                    <path d="M-1024,0L0,0" style="fill:none;fill-rule:nonzero;stroke:rgb(51,142,82);stroke-width:6.25px;"/>
                </g>
                <g transform="matrix(-1,0,0,1,0,640)">
                    <path d="M-1024,0L0,0" style="fill:none;fill-rule:nonzero;stroke:rgb(51,142,82);stroke-width:6.25px;"/>
                </g>
                <g transform="matrix(-1,0,0,1,0,768)">
                    <path d="M-1024,0L0,0" style="fill:none;fill-rule:nonzero;stroke:rgb(51,142,82);stroke-width:6.25px;"/>
                </g>
                <g transform="matrix(-1,0,0,1,0,896)">
                    <path d="M-1024,0L0,0" style="fill:none;fill-rule:nonzero;stroke:rgb(51,142,82);stroke-width:6.25px;"/>
                </g>
                <g transform="matrix(-1,0,0,1,0,384)">
                    <path d="M-1024,0L0,0" style="fill:none;fill-rule:nonzero;stroke:rgb(51,142,82);stroke-width:6.25px;"/>
                </g>
                <g transform="matrix(-1,0,0,1,0,256)">
                    <path d="M-1024,0L0,0" style="fill:none;fill-rule:nonzero;stroke:rgb(51,142,82);stroke-width:6.25px;"/>
                </g>
            </g>
            <g>
                <g transform="matrix(-1,0,0,1,512,922)">
                    <path d="M0,-820C-226.437,-820 -410,-636.437 -410,-410C-410,-183.563 -226.437,0 0,0C226.437,0 410,-183.563 410,-410C410,-636.437 226.437,-820 0,-820Z" style="fill:none;fill-rule:nonzero;stroke:rgb(39,107,62);stroke-width:6.25px;"/>
                </g>
                <g transform="matrix(-1,0,0,1,512,768)">
                    <path d="M0,-512C-141.385,-512 -256,-397.385 -256,-256C-256,-114.615 -141.385,0 0,0C141.385,0 256,-114.615 256,-256C256,-397.385 141.385,-512 0,-512Z" style="fill:none;fill-rule:nonzero;stroke:rgb(39,107,62);stroke-width:6.25px;"/>
                </g>
                <g transform="matrix(-1,0,0,1,512,614)">
                    <circle cx="0" cy="-102" r="102" style="fill:none;stroke:rgb(39,107,62);stroke-width:6.25px;"/>
                </g>
            </g>
        </g>
    </g>
</svg>
