<svg xmlns="http://www.w3.org/2000/svg" viewBox="242.49 172.85 660.37 660.37"><defs><style>.cls-1{fill:#e8e8e6;}.cls-2{fill:#525757;}.cls-3{fill:#ccccca;}.cls-4,.cls-5{fill:none;stroke:#1d1d1b;stroke-miterlimit:10;}.cls-4{stroke-width:2.04px;}.cls-5{stroke-width:1.36px;}</style></defs><g id="Layer_3" data-name="Layer 3"><path class="cls-1" d="M883.55,458.88,616.82,192.16a62.41,62.41,0,0,0-88.28,0L261.8,458.88a62.43,62.43,0,0,0,0,88.3L528.54,813.91a62.41,62.41,0,0,0,88.28,0L883.55,547.18a62.43,62.43,0,0,0,0-88.3ZM594.84,220.22H550.53c-4.35,0-6.62-4.72-3.66-7.61,5-4.94,14.69-8.67,25.81-8.67a46.37,46.37,0,0,1,15.19,2.48,28.85,28.85,0,0,1,10.62,6.19C601.45,215.5,599.16,220.22,594.84,220.22Z"/><path class="cls-2" d="M494.89,524.69a3.05,3.05,0,0,1-2.5-1.29,100.81,100.81,0,0,1-1-114.75,3.06,3.06,0,0,1,5.06,3.44,94.7,94.7,0,0,0,1,107.77,3.06,3.06,0,0,1-.73,4.27A3,3,0,0,1,494.89,524.69Z"/><path class="cls-2" d="M450.79,524.69a3.08,3.08,0,0,1-2.51-1.29,100.86,100.86,0,0,1-1-114.75,3.06,3.06,0,1,1,5.06,3.44,94.72,94.72,0,0,0,1,107.77,3.06,3.06,0,0,1-2.49,4.83Z"/><path class="cls-2" d="M406.68,524.69a3.06,3.06,0,0,1-2.5-1.29,100.81,100.81,0,0,1-1-114.75,3.06,3.06,0,0,1,5.06,3.44,94.68,94.68,0,0,0,1,107.77,3.06,3.06,0,0,1-2.5,4.83Z"/><path class="cls-2" d="M654.56,524.69a3.06,3.06,0,0,1-2.5-4.83,94.68,94.68,0,0,0,1-107.77,3.06,3.06,0,1,1,5.06-3.44,100.81,100.81,0,0,1-1,114.75A3.06,3.06,0,0,1,654.56,524.69Z"/><path class="cls-2" d="M698.66,524.69a3,3,0,0,1-1.76-.56,3.06,3.06,0,0,1-.73-4.27,94.7,94.7,0,0,0,1-107.77,3.06,3.06,0,1,1,5.06-3.44,100.81,100.81,0,0,1-1,114.75A3.05,3.05,0,0,1,698.66,524.69Z"/><path class="cls-3" d="M574.72,583.43a22,22,0,0,1-19-10.71l-44.09-59.58A76.84,76.84,0,1,1,638,512.87a4.54,4.54,0,0,1-.36.5l-2.53,3.42-41.38,55.93A22,22,0,0,1,574.72,583.43Zm-53-72.67.16.21,41.79,56.48.13.21a12.66,12.66,0,0,0,21.83,0l.28-.41,44.19-59.73a67.32,67.32,0,1,0-110.69.12Z"/><path class="cls-2" d="M742.76,524.69a3.06,3.06,0,0,1-2.49-4.83,94.72,94.72,0,0,0,1-107.77,3.06,3.06,0,1,1,5.06-3.44,100.83,100.83,0,0,1-1,114.75A3.05,3.05,0,0,1,742.76,524.69Z"/><circle class="cls-2" cx="574.72" cy="465.28" r="18.1"/><path class="cls-2" d="M472.21,615.66h15.46a.59.59,0,0,1,.53.63v4a.58.58,0,0,1-.53.62h-4.48a.58.58,0,0,0-.53.63v14.67a.58.58,0,0,1-.54.62h-4.37a.58.58,0,0,1-.53-.62V621.51a.59.59,0,0,0-.53-.63h-4.48a.58.58,0,0,1-.53-.62v-4A.59.59,0,0,1,472.21,615.66Z"/><path class="cls-2" d="M491.52,615.66h3.82a.58.58,0,0,1,.53.63V622c0,.52.52.82.86.49a5.66,5.66,0,0,1,1.12-.83,4.8,4.8,0,0,1,2.33-.54,3.79,3.79,0,0,1,3.14,1.46,7.21,7.21,0,0,1,1.14,4.47v9.11a.58.58,0,0,1-.53.62h-3.84a.58.58,0,0,1-.53-.62v-7.8a3.49,3.49,0,0,0-.45-2,1.45,1.45,0,0,0-1.24-.6,1.66,1.66,0,0,0-1.44.81,5.42,5.42,0,0,0-.56,2.9v6.73a.58.58,0,0,1-.53.62h-3.82a.58.58,0,0,1-.53-.62V616.29A.59.59,0,0,1,491.52,615.66Z"/><path class="cls-2" d="M508.09,621.49h3.82a.58.58,0,0,1,.53.62v14.07a.58.58,0,0,1-.53.62h-3.82a.58.58,0,0,1-.53-.62V622.11A.58.58,0,0,1,508.09,621.49Z"/><path class="cls-2" d="M516.09,621.49h3.48a.58.58,0,0,1,.54.62v.25c0,.55.56.83.9.45a5.27,5.27,0,0,1,1.16-1,4.66,4.66,0,0,1,2.54-.66,3.83,3.83,0,0,1,3.18,1.45,7.22,7.22,0,0,1,1.14,4.48v9.11a.58.58,0,0,1-.53.62h-3.84a.58.58,0,0,1-.53-.62v-7.8a3.49,3.49,0,0,0-.45-2,1.45,1.45,0,0,0-1.25-.6,1.68,1.68,0,0,0-1.44.81,5.53,5.53,0,0,0-.55,2.9v6.73a.58.58,0,0,1-.53.62h-3.82a.58.58,0,0,1-.53-.62V622.11A.58.58,0,0,1,516.09,621.49Z"/><path class="cls-2" d="M532.48,615.66h3.93a.59.59,0,0,1,.53.63v8.57c0,.59.62.85.94.41l2.54-3.56a.52.52,0,0,1,.41-.22h4.48c.47,0,.71.67.37,1.07l-3.37,4a.72.72,0,0,0-.08.76l4.17,8.6a.62.62,0,0,1-.46.93h-4.25a.52.52,0,0,1-.48-.34l-2.11-5a.49.49,0,0,0-.85-.17l-1.16,1.36a.69.69,0,0,0-.15.44v3.1a.58.58,0,0,1-.53.62h-3.93a.58.58,0,0,1-.53-.62V616.29A.58.58,0,0,1,532.48,615.66Z"/><path class="cls-2" d="M549.22,615.66h4.26a.51.51,0,0,1,.44.28l5.49,9.7c.3.51,1,.27,1-.35v-9a.59.59,0,0,1,.53-.63H565a.59.59,0,0,1,.53.63v19.89a.58.58,0,0,1-.53.62h-4.31a.52.52,0,0,1-.44-.27l-5.45-9.62c-.29-.51-1-.27-1,.35v8.92a.58.58,0,0,1-.53.62h-4a.58.58,0,0,1-.53-.62V616.29A.59.59,0,0,1,549.22,615.66Z"/><path class="cls-2" d="M568.2,629.19a8.48,8.48,0,0,1,2-5.78,7.47,7.47,0,0,1,11.09.4,8.71,8.71,0,0,1,1.57,5.29,8.52,8.52,0,0,1-2,5.79,7.54,7.54,0,0,1-10.35.39A8.2,8.2,0,0,1,568.2,629.19Zm4.89,0a5.3,5.3,0,0,0,.69,3,2,2,0,0,0,3.47,0,5.54,5.54,0,0,0,.68-3.1,5.17,5.17,0,0,0-.69-3,2,2,0,0,0-1.69-1,2.08,2.08,0,0,0-1.76,1A5.19,5.19,0,0,0,573.09,629.17Z"/><path class="cls-2" d="M598.6,616.29v19.89a.58.58,0,0,1-.54.62h-3.5a.58.58,0,0,1-.53-.62h0c0-.56-.57-.83-.91-.44a4.27,4.27,0,0,1-.85.75,4.51,4.51,0,0,1-6.32-1.72,11.34,11.34,0,0,1-1.38-5.78,9.6,9.6,0,0,1,1.52-5.83,4.63,4.63,0,0,1,3.86-2,4.69,4.69,0,0,1,2.07.46,5.12,5.12,0,0,1,.81.53c.35.28.84,0,.84-.51v-5.33a.58.58,0,0,1,.53-.63h3.86A.59.59,0,0,1,598.6,616.29Zm-4.9,12.81a4.66,4.66,0,0,0-.63-2.69,1.92,1.92,0,0,0-1.61-.88,1.68,1.68,0,0,0-1.43.85,5.3,5.3,0,0,0-.58,2.85,4.94,4.94,0,0,0,.6,2.75,1.73,1.73,0,0,0,1.47.87,1.86,1.86,0,0,0,1.56-.88A5.11,5.11,0,0,0,593.7,629.1Z"/><path class="cls-2" d="M615.71,630.6h-9.15a.62.62,0,0,0-.53.76,3.52,3.52,0,0,0,.53,1.35,2.18,2.18,0,0,0,1.85,1,2.43,2.43,0,0,0,1.37-.43,3.1,3.1,0,0,0,.67-.71.51.51,0,0,1,.46-.22l3.67.4a.66.66,0,0,1,.39,1,7.13,7.13,0,0,1-2.19,2.42,8.31,8.31,0,0,1-4.48,1,7.84,7.84,0,0,1-4-.86,6.48,6.48,0,0,1-2.41-2.72,9.64,9.64,0,0,1-.95-4.4,8.62,8.62,0,0,1,1.91-5.81,6.62,6.62,0,0,1,5.29-2.22,8,8,0,0,1,4.31,1,6.28,6.28,0,0,1,2.42,2.88,12.43,12.43,0,0,1,.82,4.92Zm-5.58-2.81a.61.61,0,0,0,.52-.76,3.6,3.6,0,0,0-.66-1.68,2,2,0,0,0-1.63-.73,2.1,2.1,0,0,0-1.86,1.11A3.53,3.53,0,0,0,606,627a.62.62,0,0,0,.52.77Z"/><path class="cls-2" d="M617.55,626.82h6a.59.59,0,0,1,.53.63v3.29a.59.59,0,0,1-.53.63h-6a.59.59,0,0,1-.53-.63v-3.29A.59.59,0,0,1,617.55,626.82Z"/><path class="cls-2" d="M626.93,615.66h6.2a.56.56,0,0,1,.52.47l2.14,10a.52.52,0,0,0,1,0l2.12-10a.56.56,0,0,1,.52-.48h6.19a.58.58,0,0,1,.53.63v19.89a.58.58,0,0,1-.53.62h-3.39a.58.58,0,0,1-.53-.62V625.76c0-.74-.89-.87-1-.15l-2.29,10.72a.54.54,0,0,1-.51.47h-3.2a.56.56,0,0,1-.52-.47l-2.27-10.71c-.15-.72-1-.59-1,.15v10.41a.58.58,0,0,1-.53.62h-3.39a.58.58,0,0,1-.53-.62V616.29A.59.59,0,0,1,626.93,615.66Z"/><path class="cls-2" d="M653.08,621.66l-3.52-.75a.65.65,0,0,1-.4-.84,6.81,6.81,0,0,1,2-3.36,6.9,6.9,0,0,1,4.64-1.41c2.29,0,3.95.52,5,1.54a5.3,5.3,0,0,1,1.53,3.88,4.93,4.93,0,0,1-1.61,3.73.69.69,0,0,0,.12,1.09,2.75,2.75,0,0,1,.54.32,4.3,4.3,0,0,1,1.37,1.71,6.08,6.08,0,0,1,.48,2.53,8.25,8.25,0,0,1-.8,3.54,6,6,0,0,1-2.32,2.61,7.6,7.6,0,0,1-4,.91,8.74,8.74,0,0,1-3.78-.67,5.75,5.75,0,0,1-2.28-2,9.11,9.11,0,0,1-1.17-2.53.65.65,0,0,1,.42-.85l3.77-.6a.54.54,0,0,1,.59.46,4.23,4.23,0,0,0,.79,1.92,2,2,0,0,0,2.88.16,3.48,3.48,0,0,0,1-2.64,3.62,3.62,0,0,0-.63-2.28,2.05,2.05,0,0,0-1.71-.81,3.52,3.52,0,0,0-.87.13.57.57,0,0,1-.66-.65l.2-3.33a3.7,3.7,0,0,0,.64.07,2,2,0,0,0,1.6-.74,2.55,2.55,0,0,0,.64-1.74,2.33,2.33,0,0,0-.48-1.54,1.61,1.61,0,0,0-1.32-.58,1.76,1.76,0,0,0-1.4.63,3.43,3.43,0,0,0-.64,1.61A.53.53,0,0,1,653.08,621.66Z"/><path class="cls-2" d="M502.93,614.85l-.63-.7a1.58,1.58,0,0,1,.28-2.38,12.74,12.74,0,0,1,13.52-.31,1.57,1.57,0,0,1,.4,2.35l-.61.73a1.56,1.56,0,0,1-2,.37,8.65,8.65,0,0,0-9,.21A1.55,1.55,0,0,1,502.93,614.85Z"/><path class="cls-2" d="M499.07,610.7l-1-.85a1.4,1.4,0,0,1,0-2.1,17,17,0,0,1,11.3-4,17.23,17.23,0,0,1,10.6,3.43,1.37,1.37,0,0,1,.1,2l-.93.94a1.4,1.4,0,0,1-1.85.1,13.46,13.46,0,0,0-7.92-2.43,12.86,12.86,0,0,0-8.49,2.9A1.39,1.39,0,0,1,499.07,610.7Z"/><circle class="cls-2" cx="510" cy="618.26" r="2.21"/><path class="cls-3" d="M883.56,458.88,616.82,192.16a62.42,62.42,0,0,0-88.29,0L261.8,458.88a62.46,62.46,0,0,0,0,88.3L528.53,813.91a62.42,62.42,0,0,0,88.29,0L883.56,547.18a62.43,62.43,0,0,0,0-88.3Zm-4.33,84L612.5,809.58a56.37,56.37,0,0,1-79.64,0L266.13,542.85a56.3,56.3,0,0,1,0-79.64L532.86,196.48a56.37,56.37,0,0,1,79.64,0L879.23,463.21a56.32,56.32,0,0,1,0,79.64Z"/><circle class="cls-2" cx="574.72" cy="352.53" r="4.15"/><circle class="cls-2" cx="574.72" cy="689.08" r="4.15"/><circle class="cls-2" cx="574.72" cy="303.18" r="9"/></g><g id="Layer_2" data-name="Layer 2"><path class="cls-4" d="M901.84,503a62.06,62.06,0,0,1-18.28,44.15L616.82,813.91a62.42,62.42,0,0,1-88.29,0L261.8,547.18a62.42,62.42,0,0,1,0-88.29L528.53,192.15a62.44,62.44,0,0,1,88.29,0L883.56,458.89A62,62,0,0,1,901.84,503Z"/><path class="cls-5" d="M895.72,503a55.92,55.92,0,0,1-16.49,39.82L612.5,809.58a56.37,56.37,0,0,1-79.64,0L266.13,542.85a56.3,56.3,0,0,1,0-79.64L532.86,196.48a56.37,56.37,0,0,1,79.64,0L879.23,463.21A55.94,55.94,0,0,1,895.72,503Z"/><path class="cls-4" d="M574.72,583.43a22,22,0,0,1-19-10.71l-44.09-59.58A76.84,76.84,0,1,1,638,512.87a4.54,4.54,0,0,1-.36.5l-2.53,3.42-41.38,55.93A22,22,0,0,1,574.72,583.43Zm-53-72.67.16.21,41.79,56.48.13.21a12.66,12.66,0,0,0,21.83,0l.28-.41,44.19-59.73a67.32,67.32,0,1,0-110.69.12Z"/><circle class="cls-4" cx="574.72" cy="352.53" r="4.15"/><circle class="cls-4" cx="574.72" cy="689.08" r="4.15"/><circle class="cls-4" cx="574.72" cy="303.18" r="9"/><path class="cls-4" d="M550.53,220.22c-4.34,0-6.62-4.72-3.66-7.61,5-4.94,14.68-8.67,25.81-8.67h0c11.13,0,20.76,3.73,25.82,8.67,3,2.89.67,7.61-3.66,7.61Z"/></g></svg>