<?xml version="1.0" encoding="UTF-8" standalone="no"?>
<svg
   class="svg-icon"
   style="overflow:hidden;fill:currentColor"
   viewBox="0 0 909.87988 1044.37"
   version="1.1"
   id="svg3"
   sodipodi:docname="unknown.svg"
   xml:space="preserve"
   width="909.87988"
   height="1044.37"
   inkscape:version="1.3.2 (091e20e, 2023-11-25, custom)"
   xmlns:inkscape="http://www.inkscape.org/namespaces/inkscape"
   xmlns:sodipodi="http://sodipodi.sourceforge.net/DTD/sodipodi-0.dtd"
   xmlns="http://www.w3.org/2000/svg"
   xmlns:svg="http://www.w3.org/2000/svg"><defs
     id="defs3"><style
       id="style1">.cls-1{fill:#383838;}.cls-2{fill:#9f9f9e;}.cls-3{fill:#cbcccb;}.cls-4{fill:#b7b7b7;}.cls-5{fill:#353535;}.cls-6{fill:#b1a368;}.cls-7{fill:#2c2d2d;}.cls-10,.cls-11,.cls-8,.cls-9{fill:none;stroke:#050606;}.cls-10,.cls-11,.cls-8{stroke-miterlimit:10;}.cls-8,.cls-9{stroke-width:2px;}.cls-9{stroke-linecap:round;stroke-linejoin:round;}.cls-10{stroke-width:2.04px;}.cls-11{stroke-width:1.99px;}.cls-12{fill:#c08c2d;}.cls-13{fill:#af7a2b;}</style></defs><sodipodi:namedview
     id="namedview3"
     pagecolor="#ffffff"
     bordercolor="#000000"
     borderopacity="0.25"
     inkscape:showpageshadow="2"
     inkscape:pageopacity="0.0"
     inkscape:pagecheckerboard="0"
     inkscape:deskcolor="#d1d1d1"
     inkscape:zoom="0.59040654"
     inkscape:cx="271.84658"
     inkscape:cy="722.3836"
     inkscape:window-width="1920"
     inkscape:window-height="1111"
     inkscape:window-x="-9"
     inkscape:window-y="-9"
     inkscape:window-maximized="1"
     inkscape:current-layer="svg3" /><g
     id="Layer_7"
     data-name="Layer 7"
     transform="translate(-646.6554,-260.54468)"><path
       class="cls-2"
       d="m 1545.1753,893.49468 h 4.69 a 5.67,5.67 0 0 1 5.67,5.67 v 84.64998 a 5.67,5.67 0 0 1 -5.67,5.67 h -4.69"
       id="path1-4" /><rect
       class="cls-3"
       x="647.6554"
       y="862.80469"
       width="897.52002"
       height="441.10999"
       rx="11.7"
       id="rect2" /><path
       class="cls-2"
       d="m 681.12532,862.80468 v 113.47998 a 3.67,3.67 0 0 0 3.67,3.67 h 41 a 2.35,2.35 0 0 1 2.35,2.35 V 1303.9147 H 1517.6053 V 862.80468 Z M 1492.6453,1278.9147 H 753.18532 V 972.01466 a 17.06,17.06 0 0 0 -17.06,-17.06 h -27.5 a 2.5,2.5 0 0 1 -2.5,-2.5 v -62.14998 a 2.5,2.5 0 0 1 2.5,-2.5 h 783.99998 z"
       id="path2-7" /><path
       class="cls-3"
       d="M 1492.6453,887.80468 V 1278.9147 H 753.18532 V 972.01466 a 17,17 0 0 0 -7.2,-13.92 v -70.28998 z"
       id="path3-7" /><path
       class="cls-4"
       d="m 745.98532,887.80468 v 70.28998 a 17,17 0 0 0 -9.86,-3.14 h -27.5 a 2.5,2.5 0 0 1 -2.5,-2.5 v -62.14998 a 2.5,2.5 0 0 1 2.5,-2.5 z"
       id="path4" /><rect
       class="cls-2"
       x="672.10535"
       y="1011.4448"
       width="13.53"
       height="148.39999"
       id="rect4" /><rect
       class="cls-6"
       x="1060.5924"
       y="748.40466"
       width="103.92"
       height="64.660004"
       rx="3.9300001"
       id="rect6" /><path
       class="cls-6"
       d="m 1077.2923,853.76468 h 71.71 a 2.55,2.55 0 0 1 2.55,2.55 v 6.48 h -76.8 v -6.48 a 2.55,2.55 0 0 1 2.54,-2.55 z"
       id="path7" /><path
       class="cls-6"
       d="m 1065.8623,813.06468 h 92.43 v 28.12 a 2.55,2.55 0 0 1 -2.55,2.55 h -87.32 a 2.55,2.55 0 0 1 -2.55,-2.55 v -28.12 z"
       id="path8" /><rect
       class="cls-6"
       x="1079.9424"
       y="843.73468"
       width="65.989998"
       height="10.03"
       id="rect8" /><polyline
       class="cls-6"
       points="1359.86 750.8 1359.86 746.51 1277.14 746.51 1277.14 750.8"
       id="polyline8"
       transform="translate(-205.99766,-2.3953218)" /><path
       class="cls-1"
       d="m 1112.5523,261.54468 v 0 a 44,44 0 0 1 44,44 v 438.57 h -88 v -438.51 a 44,44 0 0 1 44,-44 z"
       id="path9" /><rect
       class="cls-7"
       x="1068.5325"
       y="326.22467"
       width="88.040001"
       height="5.9899998"
       id="rect9" /><rect
       class="cls-7"
       x="1068.5325"
       y="353.41467"
       width="88.040001"
       height="5.9899998"
       id="rect10" /><path
       class="cls-8"
       d="M 1492.6453,887.80468 V 1278.9147 H 753.18532 V 972.01466 a 17.06,17.06 0 0 0 -17.06,-17.06 h -27.5 a 2.5,2.5 0 0 1 -2.5,-2.5 v -62.14998 a 2.5,2.5 0 0 1 2.5,-2.5 h 783.99998 m 25,-25 H 681.12532 v 113.47998 a 3.68,3.68 0 0 0 3.67,3.67 h 41 a 2.35,2.35 0 0 1 2.35,2.35 V 1303.9147 H 1517.6053 V 862.80468 Z"
       id="path10" /><line
       class="cls-8"
       x1="745.99536"
       y1="958.09467"
       x2="745.99536"
       y2="887.80469"
       id="line10" /><rect
       class="cls-8"
       x="672.10535"
       y="1011.4448"
       width="13.53"
       height="148.39999"
       id="rect11" /><path
       class="cls-8"
       d="m 1545.1753,893.49468 h 4.69 a 5.67,5.67 0 0 1 5.67,5.67 v 84.64998 a 5.67,5.67 0 0 1 -5.67,5.67 h -4.69"
       id="path14" /><path
       class="cls-8"
       d="m 1112.5523,261.54468 v 0 a 44,44 0 0 1 44,44 v 438.57 h -88 v -438.51 a 44,44 0 0 1 44,-44 z"
       id="path15" /><rect
       class="cls-10"
       x="1060.5924"
       y="748.40466"
       width="103.92"
       height="64.660004"
       rx="3.9300001"
       id="rect15" /><path
       class="cls-10"
       d="m 1077.2923,853.76468 h 71.71 a 2.55,2.55 0 0 1 2.55,2.55 v 6.48 h -76.8 v -6.48 a 2.55,2.55 0 0 1 2.54,-2.55 z"
       id="path16" /><path
       class="cls-10"
       d="m 1065.8623,813.06468 h 92.43 v 28.12 a 2.55,2.55 0 0 1 -2.55,2.55 h -87.32 a 2.55,2.55 0 0 1 -2.55,-2.55 v -28.12 z"
       id="path17" /><rect
       class="cls-11"
       x="1079.9424"
       y="843.73468"
       width="65.989998"
       height="10.03"
       id="rect17" /><polyline
       class="cls-10"
       points="1359.86 750.8 1359.86 746.51 1277.14 746.51 1277.14 750.8"
       id="polyline17"
       transform="translate(-205.99766,-2.3953218)" /><rect
       class="cls-10"
       x="1068.5325"
       y="326.22467"
       width="88.040001"
       height="5.9899998"
       id="rect18" /><rect
       class="cls-10"
       x="1068.5325"
       y="353.41467"
       width="88.040001"
       height="5.9899998"
       id="rect19" /><path
       class="cls-2"
       d="m 725.27532,910.38466 a 14,14 0 1 0 14,14 13.95,13.95 0 0 0 -14,-14 z m 0,21.5 a 7.55,7.55 0 1 1 7.54,-7.55 7.55,7.55 0 0 1 -7.54,7.55 z"
       id="path19" /><circle
       class="cls-8"
       cx="725.27539"
       cy="924.33466"
       r="7.5500002"
       id="circle19" /><circle
       class="cls-8"
       cx="725.27539"
       cy="924.33466"
       r="13.95"
       id="circle20" /><rect
       class="cls-8"
       x="647.6554"
       y="862.80469"
       width="897.52002"
       height="441.10999"
       rx="11.7"
       id="rect28" /></g><path
     d="m 445.36309,937.56838 c 0,11.52004 10.38375,20.85861 23.19309,20.85861 12.80937,0 23.19311,-9.33857 23.19311,-20.85861 0,-11.52005 -10.38374,-20.85861 -23.19311,-20.85861 -12.80934,0 -23.19309,9.33856 -23.19309,20.85861 z"
     fill="#ccc"
     id="path1"
     style="fill:#4d4d4d;stroke-width:0.458227" /><path
     d="m 469.40305,1035.9158 c -119.83415,0 -217.31582,-93.40624 -217.31582,-208.23067 0,-114.82425 97.48167,-208.23058 217.31582,-208.23058 119.83417,0 217.31585,93.40633 217.31585,208.23058 0,114.82443 -97.48168,208.23067 -217.31585,208.23067 z m 0,-386.58065 c -102.63515,0 -186.13149,80.00572 -186.13149,178.34998 0,98.32948 83.49634,178.34997 186.13149,178.34997 102.61966,0 186.13151,-80.01997 186.13151,-178.34997 0,-98.34426 -83.51185,-178.34998 -186.13151,-178.34998 z"
     fill="#ccc"
     id="path2"
     style="fill:#4d4d4d;stroke-width:0.474832" /><path
     d="m 468.55618,889.48186 c -8.53552,0 -15.46205,-6.22977 -15.46205,-13.90533 v -23.51468 c 0,-22.75028 19.32709,-40.13201 36.39722,-55.47009 12.50833,-11.26363 25.45056,-22.88885 25.45056,-32.16398 0,-23.18095 -20.81195,-42.03718 -46.38573,-42.03718 -26.0067,0 -46.38619,18.0497 -46.38619,41.09158 0,7.67594 -6.92654,13.90533 -15.46208,13.90533 -8.53554,0 -15.46207,-6.22977 -15.46207,-13.9058 0,-37.99002 34.68046,-68.90262 77.31034,-68.90262 42.62989,0 77.31034,31.32967 77.31034,69.84869 0,20.81694 -17.54944,36.5856 -34.51132,51.84064 -13.452,12.07016 -27.33645,24.55758 -27.33645,35.77907 v 23.51468 c 0,7.6764 -6.92702,13.91969 -15.46257,13.91969 z"
     fill="#ccc"
     id="path3"
     style="fill:#4d4d4d;stroke-width:0.458227" /></svg>
