<svg class="svg-icon" style="overflow:hidden;fill:currentColor" version="1.1" id="svg3" xml:space="preserve" width="909.88" height="546.855" xmlns="http://www.w3.org/2000/svg"><defs id="defs3"><style id="style1">.cls-2{fill:#9f9f9e}.cls-3{fill:#cbcccb}.cls-6{fill:#b1a368}.cls-8{fill:none;stroke:#050606;stroke-miterlimit:10;stroke-width:2px}</style></defs><g id="Layer_7" data-name="Layer 7" transform="translate(-646.655 -758.06)"><path class="cls-2" d="M1545.175 893.495h4.69a5.67 5.67 0 0 1 5.67 5.67v84.65a5.67 5.67 0 0 1-5.67 5.67h-4.69" id="path1-4"/><rect class="cls-3" x="647.655" y="862.805" width="897.52" height="441.11" rx="11.7" id="rect2"/><path class="cls-2" d="M681.125 862.805v113.48a3.67 3.67 0 0 0 3.67 3.67h41a2.35 2.35 0 0 1 2.35 2.35v321.61h789.46v-441.11zm811.52 416.11h-739.46v-306.9a17.06 17.06 0 0 0-17.06-17.06h-27.5a2.5 2.5 0 0 1-2.5-2.5v-62.15a2.5 2.5 0 0 1 2.5-2.5h784z" id="path2-7"/><path class="cls-3" d="M1492.645 887.805v391.11h-739.46v-306.9a17 17 0 0 0-7.2-13.92v-70.29z" id="path3-7"/><path d="M745.985 887.805v70.29a17 17 0 0 0-9.86-3.14h-27.5a2.5 2.5 0 0 1-2.5-2.5v-62.15a2.5 2.5 0 0 1 2.5-2.5z" id="path4" style="fill:#b7b7b7"/><path class="cls-2" id="rect4" d="M672.105 1011.445h13.53v148.4h-13.53z"/><path class="cls-6" d="M1077.292 853.765h71.71a2.55 2.55 0 0 1 2.55 2.55v6.48h-76.8v-6.48a2.55 2.55 0 0 1 2.54-2.55z" id="path7"/><path class="cls-8" d="M1082.92 761.226h60.884a6.196 4.845 0 0 1 6.196 4.846v77.326h-73.275v-77.326a6.196 4.845 0 0 1 6.196-4.846z" id="path39" style="fill:#b1a368"/><rect class="cls-8" x="1066.983" y="778.199" width="91.505" height="55.957" rx="5.551" id="rect39" style="fill:#b1a368"/><path class="cls-2" d="M1158.452 782.54v47.247a5.515 4.313 0 0 1-5.551 4.34h-80.367a5.551 4.341 0 0 1-5.587-4.34V782.54a5.551 4.341 0 0 1 5.587-4.341h80.51a5.515 4.313 0 0 1 5.408 4.34z" id="path41-4" style="fill:none;stroke:#050606;stroke-width:3.16706;stroke-miterlimit:10"/><path class="cls-6" id="rect8" d="M1079.942 843.735h65.99v10.03h-65.99z"/><path class="cls-8" d="M1492.645 887.805v391.11h-739.46v-306.9a17.06 17.06 0 0 0-17.06-17.06h-27.5a2.5 2.5 0 0 1-2.5-2.5v-62.15a2.5 2.5 0 0 1 2.5-2.5h784m25-25h-836.5v113.48a3.68 3.68 0 0 0 3.67 3.67h41a2.35 2.35 0 0 1 2.35 2.35v321.61h789.46v-441.11z" id="path10"/><path class="cls-8" id="line10" d="M745.995 958.095v-70.29"/><path class="cls-8" id="rect11" d="M672.105 1011.445h13.53v148.4h-13.53z"/><path class="cls-8" d="M1545.175 893.495h4.69a5.67 5.67 0 0 1 5.67 5.67v84.65a5.67 5.67 0 0 1-5.67 5.67h-4.69" id="path14"/><path d="M1077.292 853.765h71.71a2.55 2.55 0 0 1 2.55 2.55v6.48h-76.8v-6.48a2.55 2.55 0 0 1 2.54-2.55z" id="path16" style="stroke-width:2.04px;stroke-miterlimit:10;fill:none;stroke:#050606"/><path id="rect17" style="stroke-width:1.99px;stroke-miterlimit:10;fill:none;stroke:#050606" d="M1079.942 843.735h65.99v10.03h-65.99z"/><path class="cls-2" d="M725.275 910.385a14 14 0 1 0 14 14 13.95 13.95 0 0 0-14-14zm0 21.5a7.55 7.55 0 1 1 7.54-7.55 7.55 7.55 0 0 1-7.54 7.55z" id="path19"/><circle class="cls-8" cx="725.275" cy="924.335" r="7.55" id="circle19"/><circle class="cls-8" cx="725.275" cy="924.335" r="13.95" id="circle20"/><path d="M445.363 440.054c0 11.52 10.384 20.858 23.193 20.858 12.81 0 23.193-9.338 23.193-20.858 0-11.52-10.383-20.859-23.193-20.859-12.81 0-23.193 9.339-23.193 20.859z" fill="#ccc" id="path1" style="overflow:hidden;fill:#4d4d4d;stroke-width:.458227" transform="translate(646.655 758.06)"/><path d="M469.403 538.401c-119.834 0-217.316-93.406-217.316-208.23 0-114.825 97.482-208.231 217.316-208.231S686.72 215.346 686.72 330.17c0 114.825-97.482 208.231-217.316 208.231zm0-386.58c-102.635 0-186.131 80.005-186.131 178.35 0 98.329 83.496 178.35 186.131 178.35 102.62 0 186.132-80.02 186.132-178.35 0-98.345-83.512-178.35-186.132-178.35z" fill="#ccc" id="path2" style="overflow:hidden;fill:#4d4d4d;stroke-width:.474832" transform="translate(646.655 758.06)"/><path d="M468.556 391.967c-8.535 0-15.462-6.23-15.462-13.905v-23.515c0-22.75 19.327-40.132 36.397-55.47 12.509-11.264 25.45-22.889 25.45-32.164 0-23.18-20.811-42.037-46.385-42.037-26.007 0-46.386 18.05-46.386 41.091 0 7.676-6.927 13.906-15.462 13.906-8.536 0-15.462-6.23-15.462-13.906 0-37.99 34.68-68.903 77.31-68.903s77.31 31.33 77.31 69.85c0 20.816-17.549 36.585-34.51 51.84-13.453 12.07-27.337 24.557-27.337 35.779v23.514c0 7.677-6.927 13.92-15.463 13.92z" fill="#ccc" id="path3" style="overflow:hidden;fill:#4d4d4d;stroke-width:.458227;stroke:#000;stroke-opacity:1" transform="translate(646.655 758.06)"/><rect class="cls-8" x="647.655" y="862.805" width="897.52" height="441.11" rx="11.7" id="rect28"/></g></svg>