<svg xmlns="http://www.w3.org/2000/svg" viewBox="180.33 355.89 666.33 309.99"><defs><style>.cls-1{fill:#212121;}.cls-2{fill:#d8b258;}.cls-3{fill:#121312;}.cls-4{fill:#cdcecc;}.cls-5{fill:#616160;}.cls-6{fill:#696969;}.cls-7{fill:#cac6c3;}.cls-8{fill:#a08559;}.cls-9{fill:#b2b2b1;}.cls-10,.cls-11,.cls-12,.cls-13,.cls-14,.cls-15{fill:none;}.cls-10,.cls-11,.cls-12{stroke:#f4f4f4;}.cls-10,.cls-13,.cls-14{stroke-miterlimit:10;}.cls-10{stroke-width:1.21px;}.cls-11,.cls-12{stroke-linecap:round;stroke-linejoin:round;}.cls-11{stroke-width:1.21px;}.cls-12{stroke-width:1.19px;}.cls-13,.cls-14{stroke:#000;}.cls-13{stroke-width:0.9px;}.cls-14{stroke-width:1.17px;}.cls-16{fill:#e0de9b;}.cls-17{fill:#e3e4e2;}.cls-18{fill:#b39974;}.cls-19{fill:#f4f4f4;}</style></defs><g id="Layer_2" data-name="Layer 2"><path class="cls-1" d="M846.22,449.13V574l-35.87,35.88V591.62a7.17,7.17,0,0,0,4.58,1.61,7.31,7.31,0,1,0,0-14.62,7.18,7.18,0,0,0-4.58,1.62V558.61a7.18,7.18,0,0,0,4.58,1.62,7.31,7.31,0,1,0,0-14.62,7.17,7.17,0,0,0-4.58,1.61V478a7.17,7.17,0,0,0,4.58,1.61,7.31,7.31,0,1,0,0-14.62,7.18,7.18,0,0,0-4.58,1.62V445a7.18,7.18,0,0,0,4.58,1.62,7.31,7.31,0,1,0,0-14.62,7.17,7.17,0,0,0-4.58,1.61V413.25Z"/><path class="cls-2" d="M814.93,575.09a10.46,10.46,0,0,0-4.58,1,10.82,10.82,0,0,0,0,19.63,10.6,10.6,0,0,0,4.58,1,10.84,10.84,0,1,0,0-21.67Zm0,18.14a7.17,7.17,0,0,1-4.58-1.61,7.31,7.31,0,0,1,0-11.39,7.18,7.18,0,0,1,4.58-1.62,7.31,7.31,0,1,1,0,14.62Z"/><path class="cls-2" d="M814.93,542.08a10.46,10.46,0,0,0-4.58,1,10.82,10.82,0,0,0,0,19.63,10.46,10.46,0,0,0,4.58,1,10.84,10.84,0,1,0,0-21.67Zm0,18.15a7.18,7.18,0,0,1-4.58-1.62,7.31,7.31,0,0,1,0-11.39,7.17,7.17,0,0,1,4.58-1.61,7.31,7.31,0,1,1,0,14.62Z"/><path class="cls-2" d="M814.93,461.47a10.46,10.46,0,0,0-4.58,1,10.82,10.82,0,0,0,0,19.63,10.46,10.46,0,0,0,4.58,1,10.84,10.84,0,1,0,0-21.67Zm0,18.14a7.17,7.17,0,0,1-4.58-1.61,7.31,7.31,0,0,1,0-11.39,7.18,7.18,0,0,1,4.58-1.62,7.31,7.31,0,1,1,0,14.62Z"/><path class="cls-2" d="M814.93,428.46a10.6,10.6,0,0,0-4.58,1,10.82,10.82,0,0,0,0,19.63,10.46,10.46,0,0,0,4.58,1,10.84,10.84,0,1,0,0-21.67Zm0,18.15a7.18,7.18,0,0,1-4.58-1.62,7.31,7.31,0,0,1,0-11.39,7.17,7.17,0,0,1,4.58-1.61,7.31,7.31,0,1,1,0,14.62Z"/><path class="cls-1" d="M231.62,356.47,204.4,383.68V638.09l27.22,27.2H799V356.47ZM776.94,658.92a7.31,7.31,0,1,1,7.33-7.31A7.31,7.31,0,0,1,776.94,658.92Zm0-296.25a7.32,7.32,0,1,1-7.31,7.32A7.32,7.32,0,0,1,776.94,362.67Zm-33.4,296.25a7.31,7.31,0,1,1,7.32-7.31A7.31,7.31,0,0,1,743.54,658.92Zm0-296.25a7.32,7.32,0,1,1-7.31,7.32A7.32,7.32,0,0,1,743.54,362.67Zm-33.4,296.25a7.31,7.31,0,1,1,7.32-7.31A7.31,7.31,0,0,1,710.14,658.92Zm0-296.25a7.32,7.32,0,1,1-7.31,7.32A7.32,7.32,0,0,1,710.14,362.67ZM676.73,658.92a7.31,7.31,0,1,1,7.33-7.31A7.31,7.31,0,0,1,676.73,658.92Zm0-296.25a7.32,7.32,0,1,1-7.31,7.32A7.33,7.33,0,0,1,676.73,362.67Zm-33.4,296.25a7.31,7.31,0,1,1,7.31-7.31A7.31,7.31,0,0,1,643.33,658.92Zm0-296.25A7.32,7.32,0,1,1,636,370,7.31,7.31,0,0,1,643.33,362.67Zm-33.4,296.25a7.31,7.31,0,1,1,7.31-7.31A7.31,7.31,0,0,1,609.93,658.92Zm0-296.25a7.32,7.32,0,1,1-7.31,7.32A7.31,7.31,0,0,1,609.93,362.67ZM576.52,658.92a7.31,7.31,0,1,1,7.31-7.31A7.31,7.31,0,0,1,576.52,658.92Zm0-296.25a7.32,7.32,0,1,1-7.31,7.32A7.31,7.31,0,0,1,576.52,362.67Zm-33.4,296.25a7.31,7.31,0,1,1,7.31-7.31A7.31,7.31,0,0,1,543.12,658.92Zm0-296.25a7.32,7.32,0,1,1-7.31,7.32A7.31,7.31,0,0,1,543.12,362.67Zm-33.4,296.25a7.31,7.31,0,1,1,7.31-7.31A7.31,7.31,0,0,1,509.72,658.92Zm0-296.25a7.32,7.32,0,1,1-7.31,7.32A7.31,7.31,0,0,1,509.72,362.67ZM476.31,658.92a7.31,7.31,0,1,1,7.31-7.31A7.31,7.31,0,0,1,476.31,658.92Zm0-296.25A7.32,7.32,0,1,1,469,370,7.31,7.31,0,0,1,476.31,362.67Zm-33.4,296.25a7.31,7.31,0,1,1,7.31-7.31A7.31,7.31,0,0,1,442.91,658.92Zm0-296.25a7.32,7.32,0,1,1-7.32,7.32A7.31,7.31,0,0,1,442.91,362.67Zm-33.4,296.25a7.31,7.31,0,1,1,7.31-7.31A7.31,7.31,0,0,1,409.51,658.92Zm0-296.25a7.32,7.32,0,1,1-7.32,7.32A7.31,7.31,0,0,1,409.51,362.67ZM376.1,658.92a7.31,7.31,0,1,1,7.31-7.31A7.31,7.31,0,0,1,376.1,658.92Zm0-296.25a7.32,7.32,0,1,1-7.32,7.32A7.31,7.31,0,0,1,376.1,362.67ZM342.7,658.92a7.31,7.31,0,1,1,7.31-7.31A7.31,7.31,0,0,1,342.7,658.92Zm0-296.25a7.32,7.32,0,1,1-7.32,7.32A7.31,7.31,0,0,1,342.7,362.67ZM309.3,658.92a7.31,7.31,0,1,1,7.31-7.31A7.31,7.31,0,0,1,309.3,658.92Zm0-296.25A7.32,7.32,0,1,1,302,370,7.31,7.31,0,0,1,309.3,362.67ZM275.88,658.92a7.31,7.31,0,1,1,7.32-7.31A7.31,7.31,0,0,1,275.88,658.92Zm0-296.25a7.32,7.32,0,1,1-7.31,7.32A7.31,7.31,0,0,1,275.88,362.67Zm-27,14.63a7.32,7.32,0,1,1,7.31-7.31A7.31,7.31,0,0,1,248.83,377.3Zm0,281.62a7.31,7.31,0,1,1,7.31-7.31A7.31,7.31,0,0,1,248.83,658.92Z"/><rect class="cls-3" x="383.78" y="392.19" width="426.56" height="237.38" rx="15.82"/><path class="cls-4" d="M272.81,546.08h16.83a2.1,2.1,0,0,1,2.1,2.1v2.38a2.1,2.1,0,0,1-2.1,2.1H272.81a0,0,0,0,1,0,0v-6.58A0,0,0,0,1,272.81,546.08Z"/><path class="cls-4" d="M272.81,536.35h16.83a2.1,2.1,0,0,1,2.1,2.1v2.38a2.1,2.1,0,0,1-2.1,2.1H272.81a0,0,0,0,1,0,0v-6.58A0,0,0,0,1,272.81,536.35Z"/><path class="cls-4" d="M272.81,474.35h16.83a2.1,2.1,0,0,1,2.1,2.1v2.38a2.1,2.1,0,0,1-2.1,2.1H272.81a0,0,0,0,1,0,0v-6.58A0,0,0,0,1,272.81,474.35Z"/><path class="cls-4" d="M272.81,464.62h16.83a2.1,2.1,0,0,1,2.1,2.1v2.38a2.1,2.1,0,0,1-2.1,2.1H272.81a0,0,0,0,1,0,0v-6.58A0,0,0,0,1,272.81,464.62Z"/><path class="cls-4" d="M272.81,528.94h17.25a1.68,1.68,0,0,1,1.68,1.68v.87a1.68,1.68,0,0,1-1.68,1.68H272.81a0,0,0,0,1,0,0v-4.24A0,0,0,0,1,272.81,528.94Z"/><path class="cls-4" d="M272.81,522.34h17.25a1.68,1.68,0,0,1,1.68,1.68v.87a1.68,1.68,0,0,1-1.68,1.68H272.81a0,0,0,0,1,0,0v-4.24A0,0,0,0,1,272.81,522.34Z"/><path class="cls-4" d="M272.81,515.74h17.25a1.68,1.68,0,0,1,1.68,1.68v.87a1.68,1.68,0,0,1-1.68,1.68H272.81a0,0,0,0,1,0,0v-4.24A0,0,0,0,1,272.81,515.74Z"/><path class="cls-4" d="M272.81,509.13h17.25a1.68,1.68,0,0,1,1.68,1.68v.87a1.68,1.68,0,0,1-1.68,1.68H272.81a0,0,0,0,1,0,0v-4.24A0,0,0,0,1,272.81,509.13Z"/><path class="cls-4" d="M272.81,502.53h17.25a1.68,1.68,0,0,1,1.68,1.68v.87a1.68,1.68,0,0,1-1.68,1.68H272.81a0,0,0,0,1,0,0v-4.24A0,0,0,0,1,272.81,502.53Z"/><path class="cls-4" d="M272.81,495.92h17.25a1.68,1.68,0,0,1,1.68,1.68v.87a1.68,1.68,0,0,1-1.68,1.68H272.81a0,0,0,0,1,0,0v-4.24A0,0,0,0,1,272.81,495.92Z"/><path class="cls-4" d="M272.81,489.32h17.25a1.68,1.68,0,0,1,1.68,1.68v.87a1.68,1.68,0,0,1-1.68,1.68H272.81a0,0,0,0,1,0,0v-4.24A0,0,0,0,1,272.81,489.32Z"/><path class="cls-4" d="M272.81,483.13h17.25a1.68,1.68,0,0,1,1.68,1.68v.87a1.68,1.68,0,0,1-1.68,1.68H272.81a0,0,0,0,1,0,0v-4.24A0,0,0,0,1,272.81,483.13Z"/><path class="cls-5" d="M267.77,554.94h5.84a2.53,2.53,0,0,0,2.28-2.72V465a2.52,2.52,0,0,0-2.28-2.71H262.76a2,2,0,0,0-.92.23l-21,11.12a2.79,2.79,0,0,0-1.35,2.48v72.13a2.68,2.68,0,0,0,1.75,2.64l17.14,4.9"/><path class="cls-4" d="M272.81,458.77l-4.7.62a.53.53,0,0,0-.17,1l4.87,2.51v11.32a2.3,2.3,0,0,1-2.3,2.3h-9.34a1.92,1.92,0,0,0-1.93,1.92v16.65a1.92,1.92,0,0,0,1.93,1.93h6.66a5,5,0,0,1,5,5v16.63a5,5,0,0,1-5,5h-6.66a1.92,1.92,0,0,0-1.93,1.93v16.65a1.92,1.92,0,0,0,1.93,1.92h9.34a2.3,2.3,0,0,1,2.3,2.3v12.88l-4.53,1.25a.53.53,0,0,0,0,1l4.53,1.25V566H180.92V455.8h91.89Z"/><rect class="cls-6" x="244.05" y="477.96" width="4.62" height="16.99" rx="1.94"/><rect class="cls-6" x="244.05" y="524.69" width="4.62" height="16.99" rx="1.94"/><path class="cls-4" d="M428.93,438.87a24.29,24.29,0,1,1,0-34.36A24.26,24.26,0,0,1,428.93,438.87Z"/><path class="cls-5" d="M427,433.68l-2.89,2.9a3,3,0,0,1-4.27,0L414,430.81a3,3,0,0,0-4.27,0l-5.8,5.79a3,3,0,0,1-4.25,0l-2.9-2.9a3,3,0,0,1,0-4.26l5.8-5.8a3,3,0,0,0,0-4.27l-5.8-5.8a3,3,0,0,1,0-4.26l2.9-2.9a3,3,0,0,1,4.25,0l5.8,5.8a3,3,0,0,0,4.27,0l5.78-5.78a3,3,0,0,1,4.27,0l2.89,2.89a3,3,0,0,1,0,4.26l-5.77,5.78a3,3,0,0,0,0,4.27l5.77,5.78A3,3,0,0,1,427,433.68Z"/><path class="cls-4" d="M428.93,618a24.29,24.29,0,1,1,0-34.35A24.26,24.26,0,0,1,428.93,618Z"/><path class="cls-5" d="M427,612.81l-2.89,2.9a3,3,0,0,1-4.27,0L414,609.94a3,3,0,0,0-4.27,0l-5.8,5.79a3,3,0,0,1-4.25,0l-2.9-2.9a3,3,0,0,1,0-4.26l5.8-5.8a3,3,0,0,0,0-4.27l-5.8-5.79a3,3,0,0,1,0-4.27l2.9-2.9a3,3,0,0,1,4.25,0l5.8,5.8a3,3,0,0,0,4.27,0l5.78-5.78a3,3,0,0,1,4.27,0l2.89,2.9a3,3,0,0,1,0,4.25l-5.77,5.78a3,3,0,0,0,0,4.27l5.77,5.78A3,3,0,0,1,427,612.81Z"/><path class="cls-4" d="M800.31,438.87a24.29,24.29,0,1,1,0-34.36A24.26,24.26,0,0,1,800.31,438.87Z"/><path class="cls-5" d="M798.33,433.68l-2.89,2.9a3,3,0,0,1-4.27,0l-5.78-5.77a3,3,0,0,0-4.27,0l-5.8,5.79a3,3,0,0,1-4.25,0l-2.9-2.9a3,3,0,0,1,0-4.26l5.8-5.8a3,3,0,0,0,0-4.27l-5.8-5.8a3,3,0,0,1,0-4.26l2.9-2.9a3,3,0,0,1,4.25,0l5.8,5.8a3,3,0,0,0,4.27,0l5.78-5.78a3,3,0,0,1,4.27,0l2.89,2.89a3,3,0,0,1,0,4.26l-5.77,5.78a3,3,0,0,0,0,4.27l5.77,5.78A3,3,0,0,1,798.33,433.68Z"/><path class="cls-4" d="M800.31,618a24.29,24.29,0,1,1,0-34.35A24.26,24.26,0,0,1,800.31,618Z"/><path class="cls-5" d="M798.33,612.81l-2.89,2.9a3,3,0,0,1-4.27,0l-5.78-5.77a3,3,0,0,0-4.27,0l-5.8,5.79a3,3,0,0,1-4.25,0l-2.9-2.9a3,3,0,0,1,0-4.26l5.8-5.8a3,3,0,0,0,0-4.27l-5.8-5.79a3,3,0,0,1,0-4.27l2.9-2.9a3,3,0,0,1,4.25,0l5.8,5.8a3,3,0,0,0,4.27,0l5.78-5.78a3,3,0,0,1,4.27,0l2.89,2.9a3,3,0,0,1,0,4.25l-5.77,5.78a3,3,0,0,0,0,4.27l5.77,5.78A3,3,0,0,1,798.33,612.81Z"/><path class="cls-7" d="M209.33,592.62H219.7a0,0,0,0,1,0,0v7.69a0,0,0,0,1,0,0H209.33a1.26,1.26,0,0,1-1.26-1.26v-5.18A1.26,1.26,0,0,1,209.33,592.62Z"/><path class="cls-7" d="M209.33,616.65H219.7a0,0,0,0,1,0,0v7.69a0,0,0,0,1,0,0H209.33a1.26,1.26,0,0,1-1.26-1.26v-5.18A1.26,1.26,0,0,1,209.33,616.65Z"/><path class="cls-7" d="M263.28,616.65h10.37a0,0,0,0,1,0,0v7.69a0,0,0,0,1,0,0H263.28a1.26,1.26,0,0,1-1.26-1.26v-5.18A1.26,1.26,0,0,1,263.28,616.65Z" transform="translate(535.67 1240.99) rotate(180)"/><path class="cls-7" d="M263.28,592.62h10.37a0,0,0,0,1,0,0v7.69a0,0,0,0,1,0,0H263.28a1.26,1.26,0,0,1-1.26-1.26v-5.18A1.26,1.26,0,0,1,263.28,592.62Z" transform="translate(535.67 1192.92) rotate(180)"/><path class="cls-8" d="M266.62,590.85v36.82a3.16,3.16,0,0,1-3.14,3.16H218.41a3.17,3.17,0,0,1-3.16-3.16V590.85a3.17,3.17,0,0,1,3.16-3.16h45.07A3.16,3.16,0,0,1,266.62,590.85Z"/><path class="cls-4" d="M226.33,589.74l-9,9a2.33,2.33,0,0,1-4-1.65v-5.36a6,6,0,0,1,6-6h5.36A2.32,2.32,0,0,1,226.33,589.74Z"/><path class="cls-4" d="M264.89,598.78l-9-9a2.33,2.33,0,0,1,1.65-4h5.36a6,6,0,0,1,6,6v5.36A2.34,2.34,0,0,1,264.89,598.78Z"/><path class="cls-4" d="M255.86,628.51l9-9a2.33,2.33,0,0,1,4,1.65v5.36a6,6,0,0,1-6,6h-5.36A2.33,2.33,0,0,1,255.86,628.51Z"/><path class="cls-4" d="M217.3,619.48l9,9a2.33,2.33,0,0,1-1.64,4h-5.36a6,6,0,0,1-6-6v-5.36A2.33,2.33,0,0,1,217.3,619.48Z"/><rect class="cls-9" x="217.88" y="595.5" width="44.94" height="26.62" rx="13.31"/><rect class="cls-4" x="220.47" y="598.16" width="39.94" height="21.93" rx="10.86"/><path class="cls-7" d="M209.33,393.95H219.7a0,0,0,0,1,0,0v7.69a0,0,0,0,1,0,0H209.33a1.26,1.26,0,0,1-1.26-1.26v-5.18A1.26,1.26,0,0,1,209.33,393.95Z"/><path class="cls-7" d="M209.33,418H219.7a0,0,0,0,1,0,0v7.69a0,0,0,0,1,0,0H209.33a1.26,1.26,0,0,1-1.26-1.26v-5.18A1.26,1.26,0,0,1,209.33,418Z"/><path class="cls-7" d="M263.28,418h10.37a0,0,0,0,1,0,0v7.69a0,0,0,0,1,0,0H263.28a1.26,1.26,0,0,1-1.26-1.26v-5.18A1.26,1.26,0,0,1,263.28,418Z" transform="translate(535.67 843.66) rotate(180)"/><path class="cls-7" d="M263.28,393.95h10.37a0,0,0,0,1,0,0v7.69a0,0,0,0,1,0,0H263.28a1.26,1.26,0,0,1-1.26-1.26v-5.18A1.26,1.26,0,0,1,263.28,393.95Z" transform="translate(535.67 795.59) rotate(180)"/><path class="cls-8" d="M266.62,392.18V429a3.15,3.15,0,0,1-3.14,3.16H218.41a3.16,3.16,0,0,1-3.16-3.16V392.18a3.16,3.16,0,0,1,3.16-3.15h45.07A3.15,3.15,0,0,1,266.62,392.18Z"/><path class="cls-4" d="M226.33,391.08l-9,9a2.33,2.33,0,0,1-4-1.65v-5.35a6,6,0,0,1,6-6h5.36A2.33,2.33,0,0,1,226.33,391.08Z"/><path class="cls-4" d="M264.89,400.11l-9-9a2.33,2.33,0,0,1,1.65-4h5.36a6,6,0,0,1,6,6v5.35A2.33,2.33,0,0,1,264.89,400.11Z"/><path class="cls-4" d="M255.86,429.85l9-9a2.33,2.33,0,0,1,4,1.64v5.36a6,6,0,0,1-6,6h-5.36A2.33,2.33,0,0,1,255.86,429.85Z"/><path class="cls-4" d="M217.3,420.82l9,9a2.32,2.32,0,0,1-1.64,4h-5.36a6,6,0,0,1-6-6v-5.36A2.32,2.32,0,0,1,217.3,420.82Z"/><rect class="cls-9" x="217.88" y="396.83" width="44.94" height="26.62" rx="13.31"/><rect class="cls-4" x="220.47" y="399.49" width="39.94" height="21.93" rx="10.86"/><path class="cls-4" d="M217.88,566H231a0,0,0,0,1,0,0v11.42a3.93,3.93,0,0,1-3.93,3.93h-5.21a3.93,3.93,0,0,1-3.93-3.93V566A0,0,0,0,1,217.88,566Z"/><path class="cls-4" d="M260.09,566h13.08a0,0,0,0,1,0,0v11.42a3.93,3.93,0,0,1-3.93,3.93H264a3.93,3.93,0,0,1-3.93-3.93V566A0,0,0,0,1,260.09,566Z"/><path class="cls-4" d="M260.09,440.55h13.08a0,0,0,0,1,0,0V452a3.93,3.93,0,0,1-3.93,3.93H264a3.93,3.93,0,0,1-3.93-3.93V440.55A0,0,0,0,1,260.09,440.55Z" transform="translate(533.25 896.45) rotate(180)"/><path class="cls-4" d="M217.88,440.55H231a0,0,0,0,1,0,0V452A3.93,3.93,0,0,1,227,455.9h-5.21a3.93,3.93,0,0,1-3.93-3.93V440.55A0,0,0,0,1,217.88,440.55Z" transform="translate(448.84 896.45) rotate(180)"/><rect class="cls-10" x="829.01" y="462.34" width="11.22" height="23.27" rx="2.01"/><rect class="cls-10" x="829.01" y="539.29" width="11.22" height="23.27" rx="2.01"/><polyline class="cls-11" points="301.71 625.11 288.12 625.11 288.12 590.79 301.71 590.79"/><polyline class="cls-11" points="312.33 590.79 327.18 590.79 327.18 625.11 312.33 625.11"/><polyline class="cls-11" points="303.37 588.75 301.71 588.75 301.71 579.32 306.17 579.32"/><polyline class="cls-11" points="322.06 588.75 323.73 588.75 323.73 579.32 319.27 579.32"/><polyline class="cls-11" points="299.3 554.11 294.4 554.11 294.4 531.63 299.3 531.63"/><polyline class="cls-11" points="318.8 554.11 342.86 554.11 342.86 531.63 333.05 531.63"/><line class="cls-11" x1="297.86" y1="527.99" x2="297.86" y2="488.66"/><line class="cls-11" x1="320.1" y1="527.99" x2="320.1" y2="488.66"/><path class="cls-12" d="M302.61,471.2h-6.12a1.7,1.7,0,0,0-1.7,1.7v12.39a1.7,1.7,0,0,0,1.7,1.7h6.12"/><path class="cls-12" d="M320.58,487h6.11a1.7,1.7,0,0,0,1.7-1.7V472.9a1.7,1.7,0,0,0-1.7-1.7h-6.11"/><path class="cls-12" d="M342.45,607.72h-6.12a1.7,1.7,0,0,0-1.7,1.7v12.4a1.7,1.7,0,0,0,1.7,1.7h6.12"/><path class="cls-12" d="M362.22,623.52h6.11a1.7,1.7,0,0,0,1.7-1.7v-12.4a1.7,1.7,0,0,0-1.7-1.7h-6.11"/><path class="cls-12" d="M300.37,404.56v-6.12a1.7,1.7,0,0,0-1.7-1.7h-12.4a1.7,1.7,0,0,0-1.7,1.7v6.12"/><path class="cls-12" d="M284.57,422.52v6.12a1.7,1.7,0,0,0,1.7,1.7h12.4a1.7,1.7,0,0,0,1.7-1.7v-6.12"/><path class="cls-12" d="M349.14,394.75H343a1.71,1.71,0,0,0-1.71,1.7v12.4a1.71,1.71,0,0,0,1.71,1.7h6.11"/><path class="cls-12" d="M367.11,410.55h6.12a1.7,1.7,0,0,0,1.7-1.7v-12.4a1.7,1.7,0,0,0-1.7-1.7h-6.12"/><path class="cls-12" d="M295.14,445h-4.07a1.15,1.15,0,0,0-1.13,1.16v8.47a1.15,1.15,0,0,0,1.13,1.16h4.07"/><path class="cls-12" d="M307.08,455.8h4.07a1.14,1.14,0,0,0,1.13-1.16v-8.47a1.14,1.14,0,0,0-1.13-1.16h-4.07"/><path class="cls-12" d="M348.26,438.46V434.4a1.14,1.14,0,0,0-1.17-1.13h-8.46a1.14,1.14,0,0,0-1.16,1.13v4.06"/><path class="cls-12" d="M337.47,450.41v4.06a1.14,1.14,0,0,0,1.16,1.13h8.46a1.14,1.14,0,0,0,1.17-1.13v-4.06"/><path class="cls-12" d="M368.32,472h4.07a1.15,1.15,0,0,0,1.13-1.17v-8.46a1.15,1.15,0,0,0-1.13-1.16h-4.07"/><path class="cls-12" d="M356.38,461.17h-4.07a1.15,1.15,0,0,0-1.13,1.16v8.46a1.15,1.15,0,0,0,1.13,1.17h4.07"/><path class="cls-12" d="M362.48,548.9V553a1.15,1.15,0,0,0,1.16,1.13h8.47a1.15,1.15,0,0,0,1.16-1.13V548.9"/><path class="cls-12" d="M373.27,537v-4.07a1.15,1.15,0,0,0-1.16-1.13h-8.47a1.15,1.15,0,0,0-1.16,1.13V537"/><path class="cls-12" d="M349.73,623.72h-4.07a1.15,1.15,0,0,0-1.13,1.16v8.47a1.15,1.15,0,0,0,1.13,1.16h4.07"/><path class="cls-12" d="M361.67,634.51h4.07a1.14,1.14,0,0,0,1.13-1.16v-8.47a1.14,1.14,0,0,0-1.13-1.16h-4.07"/><path class="cls-12" d="M317.75,625.71h-4.06a1.14,1.14,0,0,0-1.13,1.16v8.46a1.14,1.14,0,0,0,1.13,1.16h4.06"/><path class="cls-12" d="M329.7,636.49h4.06a1.14,1.14,0,0,0,1.13-1.16v-8.46a1.14,1.14,0,0,0-1.13-1.16H329.7"/><path class="cls-12" d="M368.57,394.29h4.06a1.15,1.15,0,0,0,1.14-1.16v-8.46a1.15,1.15,0,0,0-1.14-1.16h-4.06"/><path class="cls-12" d="M356.63,383.51h-4.07a1.14,1.14,0,0,0-1.13,1.16v8.46a1.14,1.14,0,0,0,1.13,1.16h4.07"/><path class="cls-12" d="M305.69,394h4.07a1.15,1.15,0,0,0,1.13-1.16v-8.47a1.15,1.15,0,0,0-1.13-1.16h-4.07"/><path class="cls-12" d="M293.75,383.16h-4.07a1.15,1.15,0,0,0-1.13,1.16v8.47a1.15,1.15,0,0,0,1.13,1.16h4.07"/><path class="cls-4" d="M303.69,424.5h5.18a0,0,0,0,1,0,0v15.14a1.57,1.57,0,0,1-1.57,1.57h-2a1.57,1.57,0,0,1-1.57-1.57V424.5A0,0,0,0,1,303.69,424.5Z"/><path class="cls-4" d="M315.8,424.5H321a0,0,0,0,1,0,0v15.14a1.57,1.57,0,0,1-1.57,1.57h-2a1.57,1.57,0,0,1-1.57-1.57V424.5A0,0,0,0,1,315.8,424.5Z"/><path class="cls-4" d="M327.91,424.5h5.18a0,0,0,0,1,0,0v15.14a1.57,1.57,0,0,1-1.57,1.57h-2a1.57,1.57,0,0,1-1.57-1.57V424.5A0,0,0,0,1,327.91,424.5Z"/><path class="cls-4" d="M327.91,396.83h5.18a0,0,0,0,1,0,0V412a1.57,1.57,0,0,1-1.57,1.57h-2a1.57,1.57,0,0,1-1.57-1.57V396.83A0,0,0,0,1,327.91,396.83Z" transform="translate(661 810.37) rotate(180)"/><path class="cls-4" d="M303.69,396.83h5.18a0,0,0,0,1,0,0V412a1.57,1.57,0,0,1-1.57,1.57h-2a1.57,1.57,0,0,1-1.57-1.57V396.83A0,0,0,0,1,303.69,396.83Z" transform="translate(612.55 810.37) rotate(180)"/><rect class="cls-13" x="383.78" y="392.19" width="426.56" height="237.38" rx="15.82"/><polyline class="cls-14" points="204.4 455.8 204.4 383.68 231.62 356.47 798.95 356.47 798.95 392.83"/><polyline class="cls-14" points="798.95 628.93 798.95 665.29 231.62 665.29 204.4 638.09 204.4 565.96"/><path class="cls-14" d="M272.81,458.77l-4.7.62a.53.53,0,0,0-.17,1l4.87,2.51v11.32a2.3,2.3,0,0,1-2.3,2.3h-9.34a1.92,1.92,0,0,0-1.93,1.92v16.65a1.92,1.92,0,0,0,1.93,1.93h6.66a5,5,0,0,1,5,5v16.63a5,5,0,0,1-5,5h-6.66a1.92,1.92,0,0,0-1.93,1.93v16.65a1.92,1.92,0,0,0,1.93,1.92h9.34a2.3,2.3,0,0,1,2.3,2.3v12.88l-4.53,1.25a.53.53,0,0,0,0,1l4.53,1.25V566H180.92V455.8h91.89Z"/><line class="cls-13" x1="846.22" y1="449.13" x2="810.35" y2="413.25"/><line class="cls-13" x1="846.22" y1="573.99" x2="810.35" y2="609.87"/><line class="cls-13" x1="846.22" y1="573.99" x2="846.22" y2="449.13"/><rect class="cls-14" x="244.05" y="477.96" width="4.62" height="16.99" rx="1.94"/><rect class="cls-14" x="244.05" y="524.69" width="4.62" height="16.99" rx="1.94"/><rect class="cls-3" x="306.74" y="534.33" width="24.1" height="17.74"/><path class="cls-4" d="M298.9,534.33h6.41a0,0,0,0,1,0,0v17.74a0,0,0,0,1,0,0H298.9a1.6,1.6,0,0,1-1.6-1.6V535.94A1.6,1.6,0,0,1,298.9,534.33Z"/><path class="cls-4" d="M334,534.33h6.41a0,0,0,0,1,0,0v17.74a0,0,0,0,1,0,0H334a1.6,1.6,0,0,1-1.6-1.6V535.94A1.6,1.6,0,0,1,334,534.33Z" transform="translate(672.76 1086.4) rotate(180)"/><rect class="cls-3" x="303.57" y="473.48" width="16" height="11.77"/><path class="cls-4" d="M298.36,473.48h4.25a0,0,0,0,1,0,0v11.77a0,0,0,0,1,0,0h-4.25a1.06,1.06,0,0,1-1.06-1.06v-9.65A1.06,1.06,0,0,1,298.36,473.48Z"/><path class="cls-4" d="M321.64,473.48h4.25a0,0,0,0,1,0,0v11.77a0,0,0,0,1,0,0h-4.25a1.06,1.06,0,0,1-1.06-1.06v-9.65A1.06,1.06,0,0,1,321.64,473.48Z" transform="translate(646.46 958.73) rotate(180)"/><rect class="cls-8" x="345.05" y="609.74" width="16" height="11.77"/><path class="cls-4" d="M339.84,609.74h4.25a0,0,0,0,1,0,0v11.77a0,0,0,0,1,0,0h-4.25a1.06,1.06,0,0,1-1.06-1.06V610.8A1.06,1.06,0,0,1,339.84,609.74Z"/><path class="cls-4" d="M363.12,609.74h4.25a0,0,0,0,1,0,0v11.77a0,0,0,0,1,0,0h-4.25a1.06,1.06,0,0,1-1.06-1.06V610.8A1.06,1.06,0,0,1,363.12,609.74Z" transform="translate(729.44 1231.24) rotate(180)"/><rect class="cls-8" x="358.13" y="462.38" width="8.94" height="6.58"/><path class="cls-4" d="M355.21,462.38h2.38a0,0,0,0,1,0,0V469a0,0,0,0,1,0,0h-2.38a.59.59,0,0,1-.59-.59V463A.59.59,0,0,1,355.21,462.38Z"/><path class="cls-4" d="M368.23,462.38h2.38a0,0,0,0,1,0,0V469a0,0,0,0,1,0,0h-2.38a.59.59,0,0,1-.59-.59V463A.59.59,0,0,1,368.23,462.38Z" transform="translate(738.24 931.33) rotate(180)"/><rect class="cls-8" x="350.62" y="625.82" width="8.94" height="6.58"/><path class="cls-4" d="M347.7,625.82h2.38a0,0,0,0,1,0,0v6.58a0,0,0,0,1,0,0H347.7a.59.59,0,0,1-.59-.59v-5.39A.59.59,0,0,1,347.7,625.82Z"/><path class="cls-4" d="M360.72,625.82h2.38a0,0,0,0,1,0,0v6.58a0,0,0,0,1,0,0h-2.38a.59.59,0,0,1-.59-.59v-5.39A.59.59,0,0,1,360.72,625.82Z" transform="translate(723.22 1258.23) rotate(180)"/><rect class="cls-8" x="363.4" y="539.62" width="8.94" height="6.58" transform="translate(910.79 175.04) rotate(90)"/><path class="cls-4" d="M367,533.13h2.38a0,0,0,0,1,0,0v6.58a0,0,0,0,1,0,0H367a.59.59,0,0,1-.59-.59v-5.39A.59.59,0,0,1,367,533.13Z" transform="translate(904.29 168.55) rotate(90)"/><path class="cls-4" d="M367,546.14h2.38a0,0,0,0,1,0,0v6.58a0,0,0,0,1,0,0H367a.59.59,0,0,1-.59-.59v-5.39A.59.59,0,0,1,367,546.14Z" transform="translate(-181.56 917.31) rotate(-90)"/><rect class="cls-8" x="296.81" y="446.75" width="8.94" height="6.58"/><path class="cls-4" d="M293.9,446.75h2.38a0,0,0,0,1,0,0v6.58a0,0,0,0,1,0,0H293.9a.59.59,0,0,1-.59-.59v-5.39A.59.59,0,0,1,293.9,446.75Z"/><path class="cls-4" d="M306.92,446.75h2.38a0,0,0,0,1,0,0v6.58a0,0,0,0,1,0,0h-2.38a.59.59,0,0,1-.59-.59v-5.39A.59.59,0,0,1,306.92,446.75Z" transform="translate(615.61 900.08) rotate(180)"/><rect class="cls-8" x="295.25" y="385.61" width="8.94" height="6.58"/><path class="cls-4" d="M292.34,385.61h2.38a0,0,0,0,1,0,0v6.58a0,0,0,0,1,0,0h-2.38a.59.59,0,0,1-.59-.59V386.2A.59.59,0,0,1,292.34,385.61Z"/><path class="cls-4" d="M305.35,385.61h2.38a0,0,0,0,1,0,0v6.58a0,0,0,0,1,0,0h-2.38a.59.59,0,0,1-.59-.59V386.2A.59.59,0,0,1,305.35,385.61Z" transform="translate(612.49 777.8) rotate(180)"/><rect class="cls-8" x="358.11" y="385.61" width="8.94" height="6.58"/><path class="cls-4" d="M355.2,385.61h2.38a0,0,0,0,1,0,0v6.58a0,0,0,0,1,0,0H355.2a.59.59,0,0,1-.59-.59V386.2A.59.59,0,0,1,355.2,385.61Z"/><path class="cls-4" d="M368.21,385.61h2.38a0,0,0,0,1,0,0v6.58a0,0,0,0,1,0,0h-2.38a.59.59,0,0,1-.59-.59V386.2A.59.59,0,0,1,368.21,385.61Z" transform="translate(738.21 777.8) rotate(180)"/><rect class="cls-8" x="287.84" y="405.28" width="9.27" height="11.49" transform="translate(703.5 118.55) rotate(90)"/><path class="cls-4" d="M291.44,397h3a0,0,0,0,1,0,0v11.49a0,0,0,0,1,0,0h-3a.89.89,0,0,1-.89-.89v-9.7A.89.89,0,0,1,291.44,397Z" transform="translate(695.19 110.25) rotate(90)"/><path class="cls-4" d="M291.44,413.86h3a0,0,0,0,1,0,0v11.49a0,0,0,0,1,0,0h-3a.89.89,0,0,1-.89-.89v-9.7A.89.89,0,0,1,291.44,413.86Z" transform="translate(-127.13 712.08) rotate(-90)"/><rect class="cls-8" x="353.08" y="396.9" width="9.27" height="11.49" transform="translate(715.43 805.3) rotate(180)"/><path class="cls-4" d="M365,396.9h3a0,0,0,0,1,0,0v11.49a0,0,0,0,1,0,0h-3a.89.89,0,0,1-.89-.89v-9.7A.89.89,0,0,1,365,396.9Z" transform="translate(732.03 805.3) rotate(180)"/><path class="cls-4" d="M348.1,396.9h3a0,0,0,0,1,0,0v11.49a0,0,0,0,1,0,0h-3a.89.89,0,0,1-.89-.89v-9.7A.89.89,0,0,1,348.1,396.9Z"/><rect class="cls-3" x="306.02" y="520.79" width="7.25" height="6.27"/><path class="cls-4" d="M302.28,520.79h2.27a0,0,0,0,1,0,0v6.27a0,0,0,0,1,0,0h-2.27a.57.57,0,0,1-.57-.57v-5.14A.57.57,0,0,1,302.28,520.79Z"/><path class="cls-4" d="M315.16,520.79h2.27a0,0,0,0,1,0,0v6.27a0,0,0,0,1,0,0h-2.27a.57.57,0,0,1-.57-.57v-5.14A.57.57,0,0,1,315.16,520.79Z" transform="translate(632.02 1047.85) rotate(180)"/><rect class="cls-3" x="309.71" y="581.52" width="7.25" height="6.27"/><path class="cls-4" d="M306,581.52h2.27a0,0,0,0,1,0,0v6.27a0,0,0,0,1,0,0H306a.57.57,0,0,1-.57-.57v-5.14A.57.57,0,0,1,306,581.52Z"/><path class="cls-4" d="M318.86,581.52h2.27a0,0,0,0,1,0,0v6.27a0,0,0,0,1,0,0h-2.27a.57.57,0,0,1-.57-.57v-5.14A.57.57,0,0,1,318.86,581.52Z" transform="translate(639.41 1169.32) rotate(180)"/><rect class="cls-3" x="319.68" y="627.96" width="7.25" height="6.27"/><path class="cls-4" d="M315.94,628h2.27a0,0,0,0,1,0,0v6.27a0,0,0,0,1,0,0h-2.27a.57.57,0,0,1-.57-.57v-5.14A.57.57,0,0,1,315.94,628Z"/><path class="cls-4" d="M328.82,628h2.27a0,0,0,0,1,0,0v6.27a0,0,0,0,1,0,0h-2.27a.57.57,0,0,1-.57-.57v-5.14A.57.57,0,0,1,328.82,628Z" transform="translate(659.35 1262.2) rotate(180)"/><rect class="cls-3" x="306.02" y="510.67" width="7.25" height="6.27"/><path class="cls-4" d="M302.28,510.67h2.27a0,0,0,0,1,0,0v6.27a0,0,0,0,1,0,0h-2.27a.57.57,0,0,1-.57-.57v-5.14A.57.57,0,0,1,302.28,510.67Z"/><path class="cls-4" d="M315.16,510.67h2.27a0,0,0,0,1,0,0v6.27a0,0,0,0,1,0,0h-2.27a.57.57,0,0,1-.57-.57v-5.14A.57.57,0,0,1,315.16,510.67Z" transform="translate(632.02 1027.62) rotate(180)"/><rect class="cls-3" x="306.02" y="500.55" width="7.25" height="6.27"/><path class="cls-4" d="M302.28,500.55h2.27a0,0,0,0,1,0,0v6.27a0,0,0,0,1,0,0h-2.27a.57.57,0,0,1-.57-.57v-5.14A.57.57,0,0,1,302.28,500.55Z"/><path class="cls-4" d="M315.16,500.55h2.27a0,0,0,0,1,0,0v6.27a0,0,0,0,1,0,0h-2.27a.57.57,0,0,1-.57-.57v-5.14A.57.57,0,0,1,315.16,500.55Z" transform="translate(632.02 1007.38) rotate(180)"/><rect class="cls-3" x="306.02" y="490.43" width="7.25" height="6.27"/><path class="cls-4" d="M302.28,490.43h2.27a0,0,0,0,1,0,0v6.27a0,0,0,0,1,0,0h-2.27a.57.57,0,0,1-.57-.57V491A.57.57,0,0,1,302.28,490.43Z"/><path class="cls-4" d="M315.16,490.43h2.27a0,0,0,0,1,0,0v6.27a0,0,0,0,1,0,0h-2.27a.57.57,0,0,1-.57-.57V491A.57.57,0,0,1,315.16,490.43Z" transform="translate(632.02 987.14) rotate(180)"/><rect class="cls-3" x="338.9" y="442.28" width="7.25" height="6.27" transform="translate(787.94 102.89) rotate(90)"/><path class="cls-4" d="M341.67,435.76h2.27a0,0,0,0,1,0,0V442a0,0,0,0,1,0,0h-2.27a.57.57,0,0,1-.57-.57v-5.14A.57.57,0,0,1,341.67,435.76Z" transform="translate(781.42 96.38) rotate(90)"/><path class="cls-4" d="M341.67,448.65h2.27a0,0,0,0,1,0,0v6.27a0,0,0,0,1,0,0h-2.27a.57.57,0,0,1-.57-.57v-5.14A.57.57,0,0,1,341.67,448.65Z" transform="translate(-109.26 794.31) rotate(-90)"/><rect class="cls-3" x="299.95" y="409.32" width="35.7" height="16.35"/><path class="cls-4" d="M352.29,441.44h5a0,0,0,0,1,0,0v15.17a1.53,1.53,0,0,1-1.53,1.53h-1.89a1.53,1.53,0,0,1-1.53-1.53V441.44A0,0,0,0,1,352.29,441.44Z"/><path class="cls-4" d="M363.87,441.44h5a0,0,0,0,1,0,0v15.17a1.53,1.53,0,0,1-1.53,1.53H365.4a1.53,1.53,0,0,1-1.53-1.53V441.44A0,0,0,0,1,363.87,441.44Z"/><path class="cls-4" d="M375.45,441.44h5a0,0,0,0,1,0,0v15.17a1.53,1.53,0,0,1-1.53,1.53H377a1.53,1.53,0,0,1-1.53-1.53V441.44A0,0,0,0,1,375.45,441.44Z"/><path class="cls-4" d="M375.45,413.77h5a0,0,0,0,1,0,0v15.17a1.53,1.53,0,0,1-1.53,1.53H377a1.53,1.53,0,0,1-1.53-1.53V413.77A0,0,0,0,1,375.45,413.77Z" transform="translate(755.85 844.25) rotate(180)"/><path class="cls-4" d="M352.29,413.77h5a0,0,0,0,1,0,0v15.17a1.53,1.53,0,0,1-1.53,1.53h-1.89a1.53,1.53,0,0,1-1.53-1.53V413.77A0,0,0,0,1,352.29,413.77Z" transform="translate(709.53 844.25) rotate(180)"/><rect class="cls-3" x="348.72" y="426.27" width="34.13" height="16.35"/><path class="cls-4" d="M363.65,561.51h5a0,0,0,0,1,0,0v15.17a1.53,1.53,0,0,1-1.53,1.53h-1.89a1.53,1.53,0,0,1-1.53-1.53V561.51A0,0,0,0,1,363.65,561.51Z" transform="translate(732.25 1139.73) rotate(180)"/><path class="cls-4" d="M352.07,561.51h5a0,0,0,0,1,0,0v15.17a1.53,1.53,0,0,1-1.53,1.53H353.6a1.53,1.53,0,0,1-1.53-1.53V561.51A0,0,0,0,1,352.07,561.51Z" transform="translate(709.09 1139.73) rotate(180)"/><path class="cls-4" d="M340.49,561.51h5a0,0,0,0,1,0,0v15.17a1.53,1.53,0,0,1-1.53,1.53H342a1.53,1.53,0,0,1-1.53-1.53V561.51A0,0,0,0,1,340.49,561.51Z" transform="translate(685.93 1139.73) rotate(180)"/><path class="cls-4" d="M340.49,589.18h5a0,0,0,0,1,0,0v15.17a1.53,1.53,0,0,1-1.53,1.53H342a1.53,1.53,0,0,1-1.53-1.53V589.18A0,0,0,0,1,340.49,589.18Z"/><path class="cls-4" d="M363.65,589.18h5a0,0,0,0,1,0,0v15.17a1.53,1.53,0,0,1-1.53,1.53h-1.89a1.53,1.53,0,0,1-1.53-1.53V589.18A0,0,0,0,1,363.65,589.18Z"/><rect class="cls-3" x="338.04" y="577.05" width="34.13" height="16.35" transform="translate(710.21 1170.44) rotate(180)"/><path class="cls-2" d="M275.88,359.14A10.85,10.85,0,1,0,286.73,370,10.86,10.86,0,0,0,275.88,359.14Zm0,18.16A7.32,7.32,0,1,1,283.2,370,7.31,7.31,0,0,1,275.88,377.3Z"/><path class="cls-2" d="M309.3,359.14A10.85,10.85,0,1,0,320.14,370,10.85,10.85,0,0,0,309.3,359.14Zm0,18.16a7.32,7.32,0,1,1,7.31-7.31A7.31,7.31,0,0,1,309.3,377.3Z"/><path class="cls-2" d="M342.7,359.14A10.85,10.85,0,1,0,353.54,370,10.86,10.86,0,0,0,342.7,359.14Zm0,18.16A7.32,7.32,0,1,1,350,370,7.31,7.31,0,0,1,342.7,377.3Z"/><path class="cls-2" d="M376.1,359.14A10.85,10.85,0,1,0,386.94,370,10.85,10.85,0,0,0,376.1,359.14Zm0,18.16a7.32,7.32,0,1,1,7.31-7.31A7.31,7.31,0,0,1,376.1,377.3Z"/><path class="cls-2" d="M409.51,359.14A10.85,10.85,0,1,0,420.35,370,10.85,10.85,0,0,0,409.51,359.14Zm0,18.16a7.32,7.32,0,1,1,7.31-7.31A7.31,7.31,0,0,1,409.51,377.3Z"/><path class="cls-2" d="M442.91,359.14A10.85,10.85,0,1,0,453.75,370,10.86,10.86,0,0,0,442.91,359.14Zm0,18.16a7.32,7.32,0,1,1,7.31-7.31A7.31,7.31,0,0,1,442.91,377.3Z"/><path class="cls-2" d="M476.31,359.14A10.85,10.85,0,1,0,487.15,370,10.85,10.85,0,0,0,476.31,359.14Zm0,18.16a7.32,7.32,0,1,1,7.31-7.31A7.31,7.31,0,0,1,476.31,377.3Z"/><path class="cls-2" d="M509.72,359.14A10.85,10.85,0,1,0,520.55,370,10.85,10.85,0,0,0,509.72,359.14Zm0,18.16A7.32,7.32,0,1,1,517,370,7.31,7.31,0,0,1,509.72,377.3Z"/><path class="cls-2" d="M543.12,359.14A10.85,10.85,0,1,0,554,370,10.86,10.86,0,0,0,543.12,359.14Zm0,18.16a7.32,7.32,0,1,1,7.31-7.31A7.31,7.31,0,0,1,543.12,377.3Z"/><path class="cls-2" d="M576.52,359.14A10.85,10.85,0,1,0,587.36,370,10.85,10.85,0,0,0,576.52,359.14Zm0,18.16a7.32,7.32,0,1,1,7.31-7.31A7.31,7.31,0,0,1,576.52,377.3Z"/><path class="cls-2" d="M609.93,359.14A10.85,10.85,0,1,0,620.76,370,10.85,10.85,0,0,0,609.93,359.14Zm0,18.16a7.32,7.32,0,1,1,7.31-7.31A7.31,7.31,0,0,1,609.93,377.3Z"/><path class="cls-2" d="M643.33,359.14A10.85,10.85,0,1,0,654.17,370,10.86,10.86,0,0,0,643.33,359.14Zm0,18.16a7.32,7.32,0,1,1,7.31-7.31A7.31,7.31,0,0,1,643.33,377.3Z"/><path class="cls-2" d="M676.73,359.14A10.85,10.85,0,1,0,687.57,370,10.85,10.85,0,0,0,676.73,359.14Zm0,18.16a7.32,7.32,0,1,1,7.33-7.31A7.31,7.31,0,0,1,676.73,377.3Z"/><path class="cls-2" d="M710.14,359.14A10.85,10.85,0,1,0,721,370,10.85,10.85,0,0,0,710.14,359.14Zm0,18.16a7.32,7.32,0,1,1,7.32-7.31A7.31,7.31,0,0,1,710.14,377.3Z"/><path class="cls-2" d="M743.54,359.14A10.85,10.85,0,1,0,754.38,370,10.85,10.85,0,0,0,743.54,359.14Zm0,18.16a7.32,7.32,0,1,1,7.32-7.31A7.31,7.31,0,0,1,743.54,377.3Z"/><path class="cls-2" d="M776.94,359.14A10.85,10.85,0,1,0,787.78,370,10.85,10.85,0,0,0,776.94,359.14Zm0,18.16a7.32,7.32,0,1,1,7.33-7.31A7.31,7.31,0,0,1,776.94,377.3Z"/><path class="cls-2" d="M238,359.14v21.69h21.67V359.14Zm10.83,18.16a7.32,7.32,0,1,1,7.31-7.31A7.31,7.31,0,0,1,248.83,377.3Z"/><path class="cls-2" d="M275.88,640.77a10.84,10.84,0,1,0,10.85,10.84A10.84,10.84,0,0,0,275.88,640.77Zm0,18.15a7.31,7.31,0,1,1,7.32-7.31A7.31,7.31,0,0,1,275.88,658.92Z"/><path class="cls-2" d="M309.3,640.77a10.84,10.84,0,1,0,10.84,10.84A10.84,10.84,0,0,0,309.3,640.77Zm0,18.15a7.31,7.31,0,1,1,7.31-7.31A7.31,7.31,0,0,1,309.3,658.92Z"/><path class="cls-2" d="M342.7,640.77a10.84,10.84,0,1,0,10.84,10.84A10.84,10.84,0,0,0,342.7,640.77Zm0,18.15a7.31,7.31,0,1,1,7.31-7.31A7.31,7.31,0,0,1,342.7,658.92Z"/><path class="cls-2" d="M376.1,640.77a10.84,10.84,0,1,0,10.84,10.84A10.83,10.83,0,0,0,376.1,640.77Zm0,18.15a7.31,7.31,0,1,1,7.31-7.31A7.31,7.31,0,0,1,376.1,658.92Z"/><path class="cls-2" d="M409.51,640.77a10.84,10.84,0,1,0,10.84,10.84A10.84,10.84,0,0,0,409.51,640.77Zm0,18.15a7.31,7.31,0,1,1,7.31-7.31A7.31,7.31,0,0,1,409.51,658.92Z"/><path class="cls-2" d="M442.91,640.77a10.84,10.84,0,1,0,10.84,10.84A10.84,10.84,0,0,0,442.91,640.77Zm0,18.15a7.31,7.31,0,1,1,7.31-7.31A7.31,7.31,0,0,1,442.91,658.92Z"/><path class="cls-2" d="M476.31,640.77a10.84,10.84,0,1,0,10.84,10.84A10.83,10.83,0,0,0,476.31,640.77Zm0,18.15a7.31,7.31,0,1,1,7.31-7.31A7.31,7.31,0,0,1,476.31,658.92Z"/><path class="cls-2" d="M509.72,640.77a10.84,10.84,0,1,0,10.83,10.84A10.84,10.84,0,0,0,509.72,640.77Zm0,18.15a7.31,7.31,0,1,1,7.31-7.31A7.31,7.31,0,0,1,509.72,658.92Z"/><path class="cls-2" d="M543.12,640.77A10.84,10.84,0,1,0,554,651.61,10.84,10.84,0,0,0,543.12,640.77Zm0,18.15a7.31,7.31,0,1,1,7.31-7.31A7.31,7.31,0,0,1,543.12,658.92Z"/><path class="cls-2" d="M576.52,640.77a10.84,10.84,0,1,0,10.84,10.84A10.83,10.83,0,0,0,576.52,640.77Zm0,18.15a7.31,7.31,0,1,1,7.31-7.31A7.31,7.31,0,0,1,576.52,658.92Z"/><path class="cls-2" d="M609.93,640.77a10.84,10.84,0,1,0,10.83,10.84A10.84,10.84,0,0,0,609.93,640.77Zm0,18.15a7.31,7.31,0,1,1,7.31-7.31A7.31,7.31,0,0,1,609.93,658.92Z"/><path class="cls-2" d="M643.33,640.77a10.84,10.84,0,1,0,10.84,10.84A10.84,10.84,0,0,0,643.33,640.77Zm0,18.15a7.31,7.31,0,1,1,7.31-7.31A7.31,7.31,0,0,1,643.33,658.92Z"/><path class="cls-2" d="M676.73,640.77a10.84,10.84,0,1,0,10.84,10.84A10.83,10.83,0,0,0,676.73,640.77Zm0,18.15a7.31,7.31,0,1,1,7.33-7.31A7.31,7.31,0,0,1,676.73,658.92Z"/><path class="cls-2" d="M710.14,640.77A10.84,10.84,0,1,0,721,651.61,10.84,10.84,0,0,0,710.14,640.77Zm0,18.15a7.31,7.31,0,1,1,7.32-7.31A7.31,7.31,0,0,1,710.14,658.92Z"/><path class="cls-2" d="M743.54,640.77a10.84,10.84,0,1,0,10.84,10.84A10.84,10.84,0,0,0,743.54,640.77Zm0,18.15a7.31,7.31,0,1,1,7.32-7.31A7.31,7.31,0,0,1,743.54,658.92Z"/><path class="cls-2" d="M776.94,640.77a10.84,10.84,0,1,0,10.84,10.84A10.83,10.83,0,0,0,776.94,640.77Zm0,18.15a7.31,7.31,0,1,1,7.33-7.31A7.31,7.31,0,0,1,776.94,658.92Z"/><path class="cls-2" d="M238,640.77v21.68h21.67V640.77Zm10.83,18.15a7.31,7.31,0,1,1,7.31-7.31A7.31,7.31,0,0,1,248.83,658.92Z"/><path class="cls-2" d="M356.11,481.4A5.59,5.59,0,1,0,361.7,487,5.59,5.59,0,0,0,356.11,481.4Zm0,9.55a4,4,0,1,1,3.95-4A4,4,0,0,1,356.11,491Z"/><path class="cls-2" d="M323.23,562.45a5.59,5.59,0,1,0,5.59,5.59A5.59,5.59,0,0,0,323.23,562.45Zm0,9.55a4,4,0,1,1,3.95-4A4,4,0,0,1,323.23,572Z"/><path class="cls-15" d="M327.18,568a4,4,0,1,1-3.95-3.94A4,4,0,0,1,327.18,568Z"/><path class="cls-2" d="M354.54,542.93a5.59,5.59,0,1,0,5.6,5.59A5.59,5.59,0,0,0,354.54,542.93Zm0,9.55a4,4,0,1,1,3.95-4A4,4,0,0,1,354.54,552.48Z"/><path class="cls-15" d="M358.49,548.52a4,4,0,1,1-3.95-3.95A4,4,0,0,1,358.49,548.52Z"/><rect class="cls-5" x="300.69" y="594.8" width="15.91" height="9.56"/><rect class="cls-7" x="294.67" y="594.8" width="4.42" height="9.56" rx="1.07"/><rect class="cls-7" x="318.45" y="594.8" width="4.42" height="9.56" rx="1.07"/><rect class="cls-16" x="300.69" y="611.87" width="15.91" height="9.56"/><rect class="cls-7" x="294.67" y="611.87" width="4.42" height="9.56" rx="1.07"/><rect class="cls-7" x="318.45" y="611.87" width="4.42" height="9.56" rx="1.07"/><path class="cls-17" d="M819.83,491H835.9a1.87,1.87,0,0,1,1.87,1.87V496a0,0,0,0,1,0,0H818a0,0,0,0,1,0,0v-3.13A1.87,1.87,0,0,1,819.83,491Z"/><path class="cls-17" d="M819.83,528.92H835.9a1.87,1.87,0,0,1,1.87,1.87v3.13a0,0,0,0,1,0,0H818a0,0,0,0,1,0,0v-3.13A1.87,1.87,0,0,1,819.83,528.92Z" transform="translate(1655.74 1062.84) rotate(180)"/><rect class="cls-4" x="812.93" y="495" width="29.88" height="34.51" rx="2.33"/><ellipse class="cls-8" cx="827.87" cy="512.25" rx="12" ry="12.94"/><ellipse class="cls-18" cx="827.87" cy="512.25" rx="9.91" ry="10.68"/><ellipse class="cls-8" cx="827.87" cy="512.25" rx="2.23" ry="2.4"/><rect class="cls-4" x="831.55" y="542.08" width="6.23" height="6.23" rx="1.5"/><rect class="cls-4" x="831.55" y="552.91" width="6.23" height="6.23" rx="1.5"/><rect class="cls-4" x="831.55" y="465.76" width="6.23" height="6.23" rx="1.5"/><rect class="cls-4" x="831.55" y="476.6" width="6.23" height="6.23" rx="1.5"/><rect class="cls-7" x="335.65" y="495.92" width="37.79" height="28.54"/><path class="cls-3" d="M343,517.37l-.16-16.82h2.32v8.29c0,2.27,0,4.31-.2,6.29h0c1.08-2,2.44-4.07,3.86-6.27l5.42-8.31h2.29l-11.21,16.82Z"/><path class="cls-3" d="M359.09,517.37l1.38-4.42H353l.45-1.44,10.4-10.37h2.35l-3.16,10.09h2.24l-.54,1.72h-2.24l-1.38,4.42Zm1.92-6.14,1.7-5.42c.26-.85.55-1.69.87-2.54h-.08c-.79,1-1.4,1.64-2.08,2.39l-5.65,5.52v.05Z"/><path class="cls-19" d="M215.94,631.56l2.54,2.53c1.49,1.5,2.2,3.24.52,4.91s-3.54,1.09-5-.4l-.94-1-2.53,2.54-1.6-1.59Zm-1.84,6.33,2.12.08-1.73,6.22-1.78-1.78Zm1-.69c.83.84,1.64.93,2.33.24s.48-1.38-.36-2.21l-.81-.82-2,2Z"/><path class="cls-19" d="M215.81,643.72l2-.17a3.93,3.93,0,0,0,1,2.46c.66.67,1.25.73,1.67.31s.18-1-.18-1.85l-.52-1.31a2.9,2.9,0,0,1,.49-3.34c1.17-1.16,3.14-1.05,4.61.42a4.55,4.55,0,0,1,1.34,3.18l-1.81.2a3.22,3.22,0,0,0-.9-2c-.55-.55-1.13-.67-1.53-.27s-.13,1,.24,1.91l.53,1.26a2.74,2.74,0,0,1-.52,3.31c-1.17,1.17-3.15,1.21-4.83-.47A5.45,5.45,0,0,1,215.81,643.72Z"/><path class="cls-19" d="M228.25,646.53l-1.94-1.93,1.34-1.34,5.46,5.47-1.33,1.33-1.94-1.94-5.7,5.71-1.59-1.59Z"/><path class="cls-19" d="M210.34,379.94l2.42-2.42c1.55-1.55,3.35-2.25,5.06-.53s1.12,3.64-.37,5.14l-.87.87,2.39,2.38-1.59,1.6Zm5.75,1c.88-.88.9-1.68.17-2.42s-1.47-.52-2.33.34l-.74.73,2.13,2.12Z"/><path class="cls-19" d="M216.78,373.5l2.53-2.54c1.5-1.49,3.24-2.2,4.91-.52s1.09,3.53-.4,5l-.94.94,2.53,2.53-1.59,1.6Zm5.65.83c.83-.83.92-1.64.23-2.33s-1.38-.48-2.21.35l-.82.82,2,2Zm.68,1,.08-2.12,6.22,1.72-1.78,1.78Z"/><path class="cls-19" d="M226.63,370.77c-2.34-2.34-2.14-5.25-.26-7.12a4.26,4.26,0,0,1,3.14-1.31l.18,1.86a2.56,2.56,0,0,0-1.89.77c-1.09,1.08-1,2.7.41,4.11s2.94,1.63,4.26.31a1.78,1.78,0,0,0,.54-1l-1.21-1.21-1.17,1.16-1.3-1.29,2.58-2.58,3.25,3.24a4.82,4.82,0,0,1-1.47,3.18C231.75,372.87,229,373.14,226.63,370.77Z"/></g></svg>