<svg xmlns="http://www.w3.org/2000/svg" viewBox="0 0 470.13 470.13"><defs><style>.cls-1{fill:#3d3d3d;}.cls-2{fill:#1d1d1b;}.cls-3{fill:#d2d2cd;}.cls-4{fill:#fdfefb;}.cls-5{fill:none;stroke:#1d1d1b;stroke-miterlimit:10;stroke-width:0.5px;}.cls-6{fill:#1e1f1e;}.cls-7{fill:#2c2c2c;}.cls-8{fill:#a3a2a2;}.cls-9{fill:#656458;}.cls-10{fill:#97621d;}.cls-11{fill:#feffff;}</style></defs><g id="Layer_2" data-name="Layer 2"><rect class="cls-1" x="54.78" y="125.56" width="360.57" height="219.01" rx="7.11"/><path class="cls-2" d="M408.24,125.56a7.11,7.11,0,0,1,7.11,7.11V337.46a7.11,7.11,0,0,1-7.11,7.11H61.89a7.11,7.11,0,0,1-7.11-7.11V132.67a7.11,7.11,0,0,1,7.11-7.11H408.24m0-.75H61.89A7.87,7.87,0,0,0,54,132.67V337.46a7.87,7.87,0,0,0,7.86,7.86H408.24a7.86,7.86,0,0,0,7.86-7.86V132.67a7.87,7.87,0,0,0-7.86-7.86Z"/><circle class="cls-3" cx="62.25" cy="133.03" r="4.34"/><circle class="cls-3" cx="62.25" cy="133.03" r="7.47"/><circle class="cls-4" cx="62.25" cy="133.03" r="4.34"/><circle class="cls-5" cx="62.25" cy="133.03" r="7.47"/><circle class="cls-3" cx="62.25" cy="337.11" r="4.34"/><circle class="cls-3" cx="62.25" cy="337.11" r="7.47"/><circle class="cls-4" cx="62.25" cy="337.11" r="4.34"/><circle class="cls-5" cx="62.25" cy="337.11" r="7.47"/><circle class="cls-3" cx="407.89" cy="133.03" r="4.34"/><circle class="cls-3" cx="407.89" cy="133.03" r="7.47"/><circle class="cls-4" cx="407.89" cy="133.03" r="4.34"/><circle class="cls-5" cx="407.89" cy="133.03" r="7.47"/><circle class="cls-3" cx="407.89" cy="337.11" r="4.34"/><circle class="cls-3" cx="407.89" cy="337.11" r="7.47"/><circle class="cls-4" cx="407.89" cy="337.11" r="4.34"/><circle class="cls-5" cx="407.89" cy="337.11" r="7.47"/><circle class="cls-3" cx="68.31" cy="238.85" r="2.24"/><circle class="cls-3" cx="68.31" cy="231.84" r="2.24"/><rect class="cls-6" x="68.31" y="128.68" width="333.02" height="208.42"/><rect class="cls-7" x="84.88" y="137.37" width="301.07" height="180.26"/><rect class="cls-5" x="68.31" y="128.68" width="333.02" height="208.42"/><rect class="cls-5" x="84.88" y="137.37" width="301.07" height="180.26"/><circle class="cls-3" cx="61.5" cy="238.85" r="2.24"/><circle class="cls-3" cx="61.5" cy="231.84" r="2.24"/><circle class="cls-3" cx="61.5" cy="197.44" r="2.24"/><circle class="cls-3" cx="61.5" cy="191.39" r="1.78"/><rect class="cls-3" x="58.49" y="221.53" width="6.22" height="3.35" rx="1.54"/><rect class="cls-8" x="59.73" y="222.11" width="3.69" height="2.19" rx="0.63"/><rect class="cls-3" x="58.49" y="245.57" width="6.22" height="3.35" rx="1.54"/><rect class="cls-8" x="59.73" y="246.16" width="3.69" height="2.19" rx="0.63"/><circle class="cls-6" cx="407.89" cy="311.24" r="1.18"/><rect class="cls-9" x="68.31" y="337.1" width="127.43" height="3.53"/><rect class="cls-9" x="336.48" y="337.1" width="64.84" height="3.53"/><rect class="cls-10" x="195.74" y="337.1" width="140.74" height="3.53"/><polyline class="cls-5" points="68.31 337.11 68.31 340.63 401.33 340.63 401.33 337.11"/><path class="cls-11" d="M118.93,164.21H107.61l-.63,4.5a12.67,12.67,0,0,1,1.89-.09,13.27,13.27,0,0,1,7.68,2.11,8.3,8.3,0,0,1,3.55,7.32c0,5.43-4.67,10.24-12.53,10.24a18.58,18.58,0,0,1-8.13-1.66l1.21-5.12a16.72,16.72,0,0,0,6.6,1.44c2.83,0,5.84-1.35,5.84-4.45s-2.38-4.85-8.22-4.85a25.07,25.07,0,0,0-4,.27l1.93-15.32h16.08Z"/><path class="cls-11" d="M124.73,184.16a4,4,0,0,1,4-4.18,4.16,4.16,0,1,1-4,4.18Z"/><path class="cls-11" d="M157.61,173.06c0,9-3.63,15.23-11.09,15.23s-10.87-6.78-10.92-15c0-8.44,3.6-15.14,11.14-15.14C154.56,158.1,157.61,165.07,157.61,173.06Zm-15.13.18c0,6.7,1.57,9.89,4.22,9.89s4.09-3.33,4.09-10c0-6.47-1.4-9.88-4.14-9.88C144.14,163.27,142.43,166.46,142.48,173.24Z"/><path class="cls-11" d="M169.75,157a59.57,59.57,0,0,1-5.4,12.17l-4.13.36a71.9,71.9,0,0,0,3.15-12.13Zm8.75,0a57,57,0,0,1-5.39,12.17l-4.13.36a71.9,71.9,0,0,0,3.15-12.13Z"/></g></svg>