<svg xmlns="http://www.w3.org/2000/svg" viewBox="0 0 470.13 470.13"><defs><style>.cls-1{fill:#3d3d3d;}.cls-2{fill:#2c2c2c;}.cls-3{fill:#1e1f1e;}.cls-4{fill:#d2d2cd;}.cls-5{fill:#a3a2a2;}.cls-6{fill:#97621d;}.cls-7{fill:#5b1f0f;}.cls-8{fill:#fdfefb;}.cls-9{fill:none;stroke:#1d1d1b;stroke-miterlimit:10;stroke-width:0.59px;}.cls-10{fill:#1d1d1b;}.cls-11{fill:#feffff;}</style></defs><g id="Layer_2" data-name="Layer 2"><path class="cls-1" d="M350,141.34H113a11.15,11.15,0,0,0-11.15,11.15V297.83A11.15,11.15,0,0,0,113,309H350a11.15,11.15,0,0,0,11.15-11.15V152.49A11.15,11.15,0,0,0,350,141.34Zm-9.16,160.44H125.25v-153H340.79Z"/><path class="cls-2" d="M313.64,147.88a1.93,1.93,0,0,1-.23.92H310a1.92,1.92,0,1,1,3.61-.92Z"/><circle class="cls-3" cx="311.72" cy="147.88" r="0.9"/><path class="cls-3" d="M125.25,148.8v153H340.79v-153Zm209,142.12H152.12V155.74H334.23Z"/><rect class="cls-2" x="152.12" y="155.74" width="182.11" height="135.18"/><rect class="cls-4" x="107.87" y="200.37" width="8.03" height="4.33" rx="1.99"/><rect class="cls-5" x="109.47" y="201.12" width="4.76" height="2.82" rx="0.82"/><rect class="cls-4" x="107.87" y="170.52" width="8.03" height="4.33" rx="1.99"/><rect class="cls-5" x="109.47" y="171.27" width="4.76" height="2.82" rx="0.82"/><circle class="cls-4" cx="111.68" cy="191.27" r="2.35"/><circle class="cls-4" cx="111.68" cy="183.64" r="2.35"/><circle class="cls-4" cx="118.25" cy="191.27" r="2.35"/><circle class="cls-4" cx="118.25" cy="183.64" r="2.35"/><rect class="cls-4" x="107.87" y="273.84" width="8.03" height="4.33" rx="1.99"/><rect class="cls-5" x="109.47" y="274.59" width="4.76" height="2.82" rx="0.82"/><rect class="cls-4" x="107.87" y="243.99" width="8.03" height="4.33" rx="1.99"/><rect class="cls-5" x="109.47" y="244.74" width="4.76" height="2.82" rx="0.82"/><circle class="cls-4" cx="111.68" cy="264.74" r="2.35"/><circle class="cls-4" cx="111.68" cy="257.11" r="2.35"/><circle class="cls-4" cx="118.25" cy="264.74" r="2.35"/><circle class="cls-4" cx="118.25" cy="257.11" r="2.35"/><path class="cls-6" d="M125.25,168.35l-2.9,3.46a3.14,3.14,0,0,0-.73,2V176a3.14,3.14,0,0,1-.92,2.22l0,0a3.12,3.12,0,0,0-.92,2.21v31.16a5.19,5.19,0,0,0,.29,1.7l1.57,4.46a5.13,5.13,0,0,1,.29,1.69V300a1.73,1.73,0,0,0,1.74,1.74h1.63"/><rect class="cls-7" x="119.72" y="195.21" width="5.77" height="2.23"/><rect class="cls-7" x="119.72" y="201.12" width="5.77" height="1.12"/><rect class="cls-7" x="119.72" y="204.7" width="5.77" height="1.12"/><circle class="cls-4" cx="351.41" cy="150.61" r="5.13"/><circle class="cls-4" cx="351.41" cy="150.61" r="8.82"/><circle class="cls-8" cx="351.41" cy="150.61" r="5.13"/><circle class="cls-9" cx="351.41" cy="150.61" r="8.82"/><circle class="cls-4" cx="351.41" cy="299.74" r="5.13"/><circle class="cls-4" cx="351.41" cy="299.74" r="8.82"/><circle class="cls-8" cx="351.41" cy="299.74" r="5.13"/><circle class="cls-9" cx="351.41" cy="299.74" r="8.82"/><circle class="cls-4" cx="110.71" cy="150.61" r="5.13"/><circle class="cls-4" cx="110.71" cy="150.61" r="8.82"/><circle class="cls-8" cx="110.71" cy="150.61" r="5.13"/><circle class="cls-9" cx="110.71" cy="150.61" r="8.82"/><circle class="cls-4" cx="110.71" cy="299.74" r="5.13"/><circle class="cls-4" cx="110.71" cy="299.74" r="8.82"/><circle class="cls-8" cx="110.71" cy="299.74" r="5.13"/><circle class="cls-9" cx="110.71" cy="299.74" r="8.82"/><path class="cls-10" d="M350,141.34a11.15,11.15,0,0,1,11.15,11.15V297.83A11.15,11.15,0,0,1,350,309H113a11.15,11.15,0,0,1-11.15-11.15V152.49A11.15,11.15,0,0,1,113,141.34H350m0-.76H113a11.92,11.92,0,0,0-11.9,11.91V297.83A11.92,11.92,0,0,0,113,309.74H350a11.92,11.92,0,0,0,11.9-11.91V152.49A11.92,11.92,0,0,0,350,140.58Z"/><rect class="cls-9" x="125.25" y="148.8" width="215.54" height="152.98"/><rect class="cls-9" x="152.13" y="155.74" width="182.11" height="135.18"/><path class="cls-9" d="M125.25,168.35l-2.9,3.46a3.14,3.14,0,0,0-.73,2V176a3.14,3.14,0,0,1-.92,2.22l0,0a3.12,3.12,0,0,0-.92,2.21v31.16a5.19,5.19,0,0,0,.29,1.7l1.57,4.46a5.13,5.13,0,0,1,.29,1.69V300a1.73,1.73,0,0,0,1.74,1.74h1.63"/><path class="cls-11" d="M164.77,195.92V192.6l3-2.74c5.12-4.58,7.61-7.22,7.68-10,0-1.91-1.15-3.43-3.86-3.43a8.46,8.46,0,0,0-5,1.95l-1.55-3.93a13,13,0,0,1,7.68-2.42c5.3,0,8.22,3.11,8.22,7.36,0,3.93-2.85,7.07-6.24,10.1l-2.16,1.81v.07h8.84v4.51Z"/><path class="cls-11" d="M185.08,193a3.18,3.18,0,0,1,3.25-3.35,3.34,3.34,0,1,1-3.25,3.35Z"/><path class="cls-11" d="M203.88,195.92v-5.6H193.49v-3.57l8.87-14.28h6.71v13.74h2.81v4.11h-2.81v5.6Zm0-9.71V181c0-1.41.07-2.85.18-4.37h-.15c-.76,1.52-1.37,2.89-2.16,4.37l-3.14,5.12v.07Z"/><path class="cls-11" d="M221.23,171.21A48.05,48.05,0,0,1,216.9,181l-3.32.29a58.37,58.37,0,0,0,2.53-9.74Zm7,0a46,46,0,0,1-4.33,9.77l-3.32.29a56.49,56.49,0,0,0,2.53-9.74Z"/></g></svg>