<svg xmlns="http://www.w3.org/2000/svg" viewBox="0 0 470.13 470.13"><defs><style>.cls-1{fill:#3d3d3d;}.cls-2{fill:#1e1f1e;}.cls-3{fill:#2c2c2c;}.cls-4{fill:#d2d2cd;}.cls-5{fill:#a3a2a2;}.cls-6{fill:#97621d;}.cls-7,.cls-9{fill:none;stroke:#1d1d1b;stroke-miterlimit:10;}.cls-7{stroke-width:0.59px;}.cls-8{fill:#fdfefb;}.cls-9{stroke-width:0.59px;}.cls-10{fill:#1d1d1b;}.cls-11{fill:#feffff;}</style></defs><g id="Layer_2" data-name="Layer 2"><rect class="cls-1" x="68.96" y="128.35" width="332.07" height="199.87" rx="8.7"/><path class="cls-2" d="M91.43,132.15V322.71h289V132.15ZM373.77,313.6h-259V139.82h259Z"/><rect class="cls-3" x="114.72" y="139.82" width="259.05" height="173.78"/><rect class="cls-4" x="72.34" y="236.77" width="8.03" height="4.33" rx="1.99"/><rect class="cls-5" x="73.94" y="237.52" width="4.76" height="2.82" rx="0.82"/><rect class="cls-4" x="72.34" y="247.19" width="8.03" height="4.33" rx="1.99"/><rect class="cls-5" x="73.94" y="247.94" width="4.76" height="2.82" rx="0.82"/><path class="cls-4" d="M91.43,236.77v4.33h-2a2,2,0,0,1-2-2v-.35a2,2,0,0,1,2-2Z"/><path class="cls-5" d="M91.43,237.52v2.83h-1.6a.82.82,0,0,1-.82-.82v-1.19a.82.82,0,0,1,.82-.82Z"/><path class="cls-4" d="M91.43,247.19v4.33h-2a2,2,0,0,1-2-2v-.35a2,2,0,0,1,2-2Z"/><path class="cls-5" d="M91.43,247.94v2.83h-1.6A.82.82,0,0,1,89,250v-1.19a.82.82,0,0,1,.82-.82Z"/><rect class="cls-4" x="72.34" y="277.47" width="8.03" height="4.33" rx="1.99"/><rect class="cls-5" x="73.94" y="278.22" width="4.76" height="2.82" rx="0.82"/><path class="cls-4" d="M91.43,277.47v4.33h-2a2,2,0,0,1-2-2v-.35a2,2,0,0,1,2-2Z"/><path class="cls-5" d="M91.43,278.22v2.83h-1.6a.82.82,0,0,1-.82-.82V279a.82.82,0,0,1,.82-.82Z"/><path class="cls-6" d="M91.42,149.56A9,9,0,0,1,82.86,154v59.41s6.17,1.45,8.56,6.79"/><path class="cls-7" d="M91.42,149.56A9,9,0,0,1,82.86,154v59.41s6.17,1.45,8.56,6.79"/><circle class="cls-4" cx="77.75" cy="137.14" r="5.11"/><circle class="cls-4" cx="77.75" cy="137.14" r="8.79"/><circle class="cls-8" cx="77.75" cy="137.14" r="5.11"/><circle class="cls-9" cx="77.75" cy="137.14" r="8.79"/><circle class="cls-4" cx="77.75" cy="319.43" r="5.11"/><circle class="cls-4" cx="77.75" cy="319.43" r="8.79"/><circle class="cls-8" cx="77.75" cy="319.43" r="5.11"/><circle class="cls-9" cx="77.75" cy="319.43" r="8.79"/><circle class="cls-4" cx="392.39" cy="137.14" r="5.11"/><circle class="cls-4" cx="392.39" cy="137.14" r="8.79"/><circle class="cls-8" cx="392.39" cy="137.14" r="5.11"/><circle class="cls-9" cx="392.39" cy="137.14" r="8.79"/><circle class="cls-4" cx="392.39" cy="319.43" r="5.11"/><circle class="cls-4" cx="392.39" cy="319.43" r="8.79"/><circle class="cls-8" cx="392.39" cy="319.43" r="5.11"/><circle class="cls-9" cx="392.39" cy="319.43" r="8.79"/><path class="cls-10" d="M392.33,128.35a8.7,8.7,0,0,1,8.69,8.7V319.52a8.7,8.7,0,0,1-8.69,8.7H77.66a8.7,8.7,0,0,1-8.7-8.7V137.05a8.7,8.7,0,0,1,8.7-8.7H392.33m0-.75H77.66a9.46,9.46,0,0,0-9.45,9.45V319.52A9.46,9.46,0,0,0,77.66,329H392.33a9.45,9.45,0,0,0,9.44-9.45V137.05a9.45,9.45,0,0,0-9.44-9.45Z"/><circle class="cls-3" cx="362.26" cy="137.42" r="1.14"/><circle class="cls-2" cx="362.26" cy="137.42" r="0.53"/><path class="cls-9" d="M91.43,132.15V322.71h289V132.15ZM373.77,313.6h-259V139.82h259Z"/><rect class="cls-7" x="114.72" y="139.82" width="259.05" height="173.78"/><rect class="cls-4" x="72.34" y="207.38" width="8.03" height="4.33" rx="1.99"/><rect class="cls-5" x="73.94" y="208.13" width="4.76" height="2.82" rx="0.82"/><circle class="cls-4" cx="76.35" cy="261.36" r="2.35"/><circle class="cls-4" cx="76.35" cy="268.62" r="2.35"/><circle class="cls-4" cx="83.48" cy="261.36" r="2.35"/><circle class="cls-4" cx="83.48" cy="268.62" r="2.35"/><circle class="cls-4" cx="76.35" cy="220.61" r="2.35"/><circle class="cls-4" cx="76.35" cy="227.87" r="2.35"/><circle class="cls-4" cx="83.48" cy="220.61" r="2.35"/><circle class="cls-4" cx="83.48" cy="227.87" r="2.35"/><path class="cls-11" d="M135.78,178.25a16,16,0,0,0,6.78,1.8c3.55,0,5.34-1.71,5.34-3.91,0-2.88-2.87-4.18-5.88-4.18h-2.79v-4.9h2.65c2.3,0,5.22-.89,5.22-3.37,0-1.75-1.44-3.05-4.32-3.05a13.35,13.35,0,0,0-6.11,1.75l-1.39-4.94a18.34,18.34,0,0,1,9-2.2c6.24,0,9.7,3.28,9.7,7.28,0,3.1-1.75,5.52-5.34,6.78v.09c3.5.63,6.33,3.28,6.33,7.1,0,5.16-4.54,8.94-11.95,8.94a17.25,17.25,0,0,1-8.67-2.07Z"/><path class="cls-11" d="M159.86,181.3a4,4,0,0,1,4-4.17,4.16,4.16,0,0,1-.05,8.31A3.93,3.93,0,0,1,159.86,181.3Z"/><path class="cls-11" d="M190.67,161.36H179.35l-.63,4.49a12.67,12.67,0,0,1,1.89-.09,13.34,13.34,0,0,1,7.68,2.11,8.31,8.31,0,0,1,3.55,7.32c0,5.44-4.67,10.25-12.53,10.25a18.42,18.42,0,0,1-8.13-1.67l1.21-5.12a16.72,16.72,0,0,0,6.6,1.44c2.83,0,5.84-1.35,5.84-4.45s-2.38-4.85-8.22-4.85a25.16,25.16,0,0,0-4,.27l1.93-15.32h16.08Z"/><path class="cls-11" d="M204.87,154.17a59.32,59.32,0,0,1-5.39,12.17l-4.13.36a71.51,71.51,0,0,0,3.14-12.12Zm8.76,0a56.74,56.74,0,0,1-5.39,12.17l-4.13.36a71.51,71.51,0,0,0,3.14-12.12Z"/></g></svg>