<svg xmlns="http://www.w3.org/2000/svg" viewBox="0 0 470.13 470.13"><defs><style>.cls-1{fill:#3d3d3d;}.cls-2{fill:#1e1f1e;}.cls-3{fill:#2c2c2c;}.cls-4{fill:#d2d2cd;}.cls-5{fill:#a3a2a2;}.cls-6{fill:#97621d;}.cls-7{fill:#c69355;}.cls-8{fill:#323031;}.cls-9{fill:none;stroke:#1d1d1b;stroke-miterlimit:10;stroke-width:0.57px;}.cls-10{fill:#feffff;}.cls-11{fill:#fdfefb;}.cls-12{fill:#1d1d1b;}</style></defs><g id="Layer_2" data-name="Layer 2"><path class="cls-1" d="M378.36,143.68H118.27a8.5,8.5,0,0,0-8.5,8.5V317.94a8.51,8.51,0,0,0,8.5,8.51H378.36a8.51,8.51,0,0,0,8.5-8.51V152.18A8.5,8.5,0,0,0,378.36,143.68Zm-11,177.14H128.67V147.26H367.34Z"/><path class="cls-2" d="M128.67,147.26V320.82H367.34V147.26Zm230,163.57H155.13V157.23H358.7Z"/><rect class="cls-3" x="155.13" y="157.23" width="203.57" height="153.6"/><path class="cls-3" d="M350.35,146.34a1.93,1.93,0,0,1-.23.92h-3.38a1.92,1.92,0,1,1,3.61-.92Z"/><circle class="cls-2" cx="348.43" cy="146.35" r="0.9"/><rect class="cls-4" x="126.91" y="147.26" width="1.76" height="22.62"/><rect class="cls-4" x="126.91" y="308.63" width="1.76" height="12.2"/><rect class="cls-4" x="113.35" y="212.05" width="8.03" height="4.33" rx="1.99"/><rect class="cls-5" x="114.96" y="212.8" width="4.76" height="2.82" rx="0.82"/><path class="cls-6" d="M128.67,200.27H124a2.63,2.63,0,0,0-2.63,2.63v98.59a2.63,2.63,0,0,0,2.63,2.63h4.66V268.46h-7.29V251.07h7.29"/><rect class="cls-7" x="121.38" y="287.43" width="7.29" height="4.72"/><rect class="cls-8" x="121.38" y="251.07" width="7.29" height="17.39"/><path class="cls-9" d="M128.67,304.12H124a2.63,2.63,0,0,1-2.63-2.63V202.9a2.63,2.63,0,0,1,2.63-2.63h4.66"/><path class="cls-10" d="M174,200.27v-3.49l3.18-2.89c5.4-4.82,8-7.59,8.09-10.47,0-2-1.21-3.61-4.06-3.61a8.92,8.92,0,0,0-5.28,2.05l-1.63-4.14a13.68,13.68,0,0,1,8.09-2.54c5.58,0,8.65,3.26,8.65,7.74,0,4.14-3,7.44-6.57,10.63l-2.27,1.9v.08h9.3v4.74Z"/><path class="cls-10" d="M195.34,197.2a3.34,3.34,0,0,1,3.41-3.53,3.51,3.51,0,1,1-3.41,3.53Z"/><path class="cls-10" d="M204.52,193.82c0-3,1.71-5,4.41-6.19v-.11a6,6,0,0,1-3.57-5.39c0-4.18,3.76-6.95,8.69-6.95,5.77,0,8.16,3.34,8.16,6.34a6,6,0,0,1-3.57,5.43v.11a6.52,6.52,0,0,1,4.52,6.15c0,4.48-3.76,7.48-9.49,7.48C207.41,200.69,204.52,197.16,204.52,193.82Zm12.76-.19c0-2.17-1.6-3.46-3.87-4.06a3.73,3.73,0,0,0-3,3.68,3.38,3.38,0,0,0,3.49,3.45A3.1,3.1,0,0,0,217.28,193.63Zm-6.49-11.69c0,1.67,1.51,2.73,3.49,3.34a3.38,3.38,0,0,0,2.5-3.15,2.83,2.83,0,0,0-3-3A2.75,2.75,0,0,0,210.79,181.94Z"/><path class="cls-10" d="M233.37,174.27a50.18,50.18,0,0,1-4.55,10.28l-3.5.31A60.59,60.59,0,0,0,228,174.61Zm7.41,0a48.12,48.12,0,0,1-4.56,10.28l-3.49.31a60.56,60.56,0,0,0,2.65-10.25Z"/><circle class="cls-4" cx="118.34" cy="152.25" r="4.99"/><circle class="cls-4" cx="118.34" cy="152.25" r="8.57"/><circle class="cls-11" cx="118.34" cy="152.25" r="4.99"/><circle class="cls-9" cx="118.34" cy="152.25" r="8.57"/><circle class="cls-4" cx="118.34" cy="317.88" r="4.99"/><circle class="cls-4" cx="118.34" cy="317.88" r="8.57"/><circle class="cls-11" cx="118.34" cy="317.88" r="4.99"/><circle class="cls-9" cx="118.34" cy="317.88" r="8.57"/><circle class="cls-4" cx="378.29" cy="152.25" r="4.99"/><circle class="cls-4" cx="378.29" cy="152.25" r="8.57"/><circle class="cls-11" cx="378.29" cy="152.25" r="4.99"/><circle class="cls-9" cx="378.29" cy="152.25" r="8.57"/><circle class="cls-4" cx="378.29" cy="317.88" r="4.99"/><circle class="cls-4" cx="378.29" cy="317.88" r="8.57"/><circle class="cls-11" cx="378.29" cy="317.88" r="4.99"/><circle class="cls-9" cx="378.29" cy="317.88" r="8.57"/><path class="cls-12" d="M378.36,143.68a8.51,8.51,0,0,1,8.5,8.5V318a8.51,8.51,0,0,1-8.5,8.5H118.27a8.51,8.51,0,0,1-8.5-8.5V152.18a8.51,8.51,0,0,1,8.5-8.5H378.36m0-.75H118.27a9.27,9.27,0,0,0-9.26,9.25V318a9.27,9.27,0,0,0,9.26,9.25H378.36a9.27,9.27,0,0,0,9.26-9.25V152.18a9.27,9.27,0,0,0-9.26-9.25Z"/><rect class="cls-9" x="128.67" y="147.26" width="238.67" height="173.56"/><rect class="cls-9" x="155.13" y="157.24" width="203.57" height="153.6"/><rect class="cls-4" x="113.35" y="182.2" width="8.03" height="4.33" rx="1.99"/><rect class="cls-5" x="114.96" y="182.95" width="4.76" height="2.82" rx="0.82"/><circle class="cls-4" cx="115.7" cy="205.3" r="2.35"/><circle class="cls-4" cx="115.7" cy="196.61" r="2.35"/><circle class="cls-4" cx="124.46" cy="196.61" r="2.35"/><rect class="cls-4" x="113.35" y="253.25" width="8.03" height="4.33" rx="1.99"/><rect class="cls-5" x="114.96" y="254" width="4.76" height="2.82" rx="0.82"/><rect class="cls-4" x="113.35" y="283.1" width="8.03" height="4.33" rx="1.99"/><rect class="cls-5" x="114.96" y="283.85" width="4.76" height="2.82" rx="0.82"/><circle class="cls-4" cx="115.7" cy="276.34" r="2.35"/><circle class="cls-4" cx="115.7" cy="267.66" r="2.35"/><line class="cls-9" x1="121.38" y1="251.07" x2="128.67" y2="251.07"/><line class="cls-9" x1="121.38" y1="268.46" x2="128.67" y2="268.46"/></g></svg>