<?xml version="1.0" encoding="UTF-8" standalone="no"?>
<svg
   viewBox="379.51 218.53 478.45 660.45"
   version="1.1"
   id="svg72"
   sodipodi:docname="heltec_mesh_pocket.svg"
   inkscape:version="1.4 (e7c3feb1, 2024-10-09)"
   xmlns:inkscape="http://www.inkscape.org/namespaces/inkscape"
   xmlns:sodipodi="http://sodipodi.sourceforge.net/DTD/sodipodi-0.dtd"
   xmlns="http://www.w3.org/2000/svg"
   xmlns:svg="http://www.w3.org/2000/svg">
  <sodipodi:namedview
     id="namedview72"
     pagecolor="#ffffff"
     bordercolor="#000000"
     borderopacity="0.25"
     inkscape:showpageshadow="2"
     inkscape:pageopacity="0.0"
     inkscape:pagecheckerboard="0"
     inkscape:deskcolor="#d1d1d1"
     inkscape:zoom="0.78391112"
     inkscape:cx="4.4647919"
     inkscape:cy="146.06248"
     inkscape:window-width="1472"
     inkscape:window-height="890"
     inkscape:window-x="0"
     inkscape:window-y="38"
     inkscape:window-maximized="1"
     inkscape:current-layer="Layer_2" />
  <defs
     id="defs1">
    <style
       id="style1">.cls-1{fill:#d5bd0a;}.cls-2{fill:#eceded;}.cls-3{fill:#e3e1e0;}.cls-4{fill:#1d1d1b;}.cls-12,.cls-5,.cls-7{fill:none;}.cls-5,.cls-7{stroke:#1d1d1b;stroke-miterlimit:10;}.cls-5{stroke-width:0.87px;}.cls-6{fill:#fff;}.cls-7{stroke-width:3.49px;}.cls-8{fill:#2b293d;}.cls-9{fill:#2ea358;}.cls-10{fill:#efefef;}.cls-11{fill:#acd087;}.cls-12{stroke:#000;stroke-linecap:round;stroke-linejoin:round;stroke-width:1.31px;}.cls-13{fill:#2590d0;}.cls-14{fill:#4e4d4e;}</style>
  </defs>
  <g
     id="Layer_2"
     data-name="Layer 2">
    <path
       class="cls-1"
       d="M784.42,219.19H419.9a39.73,39.73,0,0,0-39.74,39.73V838.6a39.74,39.74,0,0,0,39.74,39.73H784.42a39.73,39.73,0,0,0,39.73-39.73V258.92A39.73,39.73,0,0,0,784.42,219.19Zm31,619.41a31,31,0,0,1-31,31H419.9a31,31,0,0,1-31-31V258.92a31,31,0,0,1,31-31H784.42a31,31,0,0,1,31,31Z"
       id="path1" />
    <rect
       class="cls-2"
       x="388.9"
       y="227.92"
       width="426.51"
       height="641.67"
       rx="31"
       id="rect1"
       style="fill:#fcfcfc;fill-opacity:1" />
    <path
       class="cls-1"
       d="M857.3,302.32V633.56a7.53,7.53,0,0,1-1.75,4.84l-31.4,37.77V260a67.74,67.74,0,0,1,32.06,36.41A16.78,16.78,0,0,1,857.3,302.32Z"
       id="path2" />
    <rect
       class="cls-3"
       x="439.49"
       y="398.62"
       width="324.87"
       height="163.57"
       id="rect2"
       style="fill:#bfbfbf;fill-opacity:1" />
    <rect
       class="cls-8"
       x="513.04"
       y="724.36"
       width="166.81"
       height="33.44"
       rx="3.87"
       id="rect48" />
    <path
       class="cls-9"
       d="M558.92,724.36V757.8h-42a3.87,3.87,0,0,1-3.87-3.87V728.24a3.88,3.88,0,0,1,3.87-3.88Z"
       id="path48" />
    <rect
       class="cls-10"
       x="514.95"
       y="740.28"
       width="20.46"
       height="2.8"
       transform="translate(-383.39 761.4) rotate(-55.94)"
       id="rect49" />
    <path
       class="cls-10"
       d="M551.65,750.93,541.54,736l-10.12,14.93-2.31-1.56L540,733.29a1.8,1.8,0,0,1,1.54-.82h0a1.85,1.85,0,0,1,1.57.87l10.85,16Zm-10.88-16.07s0,0,0,0Zm1.57,0,0,0Z"
       id="path49" />
    <path
       class="cls-10"
       d="M566.72,731.61a31.88,31.88,0,0,1,5.15-.39c2.66,0,4.6.6,5.84,1.68a5.43,5.43,0,0,1,1.82,4.25,5.93,5.93,0,0,1-1.61,4.35,8.72,8.72,0,0,1-6.36,2.23,9.52,9.52,0,0,1-2.16-.18v8.14h-2.68Zm2.68,9.8a9.32,9.32,0,0,0,2.23.21c3.24,0,5.21-1.54,5.21-4.34s-1.94-4-4.9-4a11.68,11.68,0,0,0-2.54.21Z"
       id="path50" />
    <path
       class="cls-10"
       d="M595.8,744.27c0,5.4-3.83,7.75-7.44,7.75-4,0-7.16-2.89-7.16-7.51,0-4.88,3.27-7.75,7.41-7.75S595.8,739.81,595.8,744.27Zm-11.85.15c0,3.2,1.88,5.61,4.54,5.61s4.53-2.38,4.53-5.67c0-2.47-1.26-5.61-4.47-5.61S584,741.65,584,744.42Z"
       id="path51" />
    <path
       class="cls-10"
       d="M600.1,737.1l2,7.41c.43,1.63.84,3.14,1.11,4.65h.1c.34-1.48.83-3,1.32-4.62L607,737.1h2.29l2.31,7.29c.56,1.75,1,3.29,1.33,4.77h.09a44.65,44.65,0,0,1,1.14-4.74l2.13-7.32H619l-4.82,14.59h-2.47l-2.28-7a48.12,48.12,0,0,1-1.33-4.79h-.06a40.69,40.69,0,0,1-1.36,4.82l-2.41,6.94h-2.47l-4.5-14.59Z"
       id="path52" />
    <path
       class="cls-10"
       d="M623,744.87c.06,3.59,2.41,5.07,5.12,5.07a10.08,10.08,0,0,0,4.14-.75l.46,1.9a12.41,12.41,0,0,1-5,.9c-4.6,0-7.35-3-7.35-7.36s2.66-7.87,7-7.87c4.88,0,6.18,4.19,6.18,6.88a9.56,9.56,0,0,1-.1,1.23Zm8-1.89c0-1.69-.71-4.32-3.76-4.32-2.75,0-4,2.48-4.17,4.32Z"
       id="path53" />
    <path
       class="cls-10"
       d="M636.9,741.65c0-1.72,0-3.2-.12-4.55h2.38l.09,2.86h.12a4.48,4.48,0,0,1,4.14-3.2,3,3,0,0,1,.77.09v2.51a4.19,4.19,0,0,0-.93-.09,3.77,3.77,0,0,0-3.64,3.4,7.56,7.56,0,0,0-.12,1.24v7.78H636.9Z"
       id="path54" />
    <path
       class="cls-10"
       d="M648.2,744.87c.07,3.59,2.41,5.07,5.13,5.07a10.11,10.11,0,0,0,4.14-.75l.46,1.9a12.44,12.44,0,0,1-5,.9c-4.6,0-7.35-3-7.35-7.36s2.66-7.87,7-7.87c4.88,0,6.17,4.19,6.17,6.88a10,10,0,0,1-.09,1.23Zm8-1.89c0-1.69-.71-4.32-3.77-4.32-2.75,0-3.95,2.48-4.17,4.32Z"
       id="path55" />
    <path
       class="cls-10"
       d="M675.07,730.28v17.64c0,1.3,0,2.77.12,3.77h-2.44l-.12-2.53h-.07a5.55,5.55,0,0,1-5.09,2.86c-3.61,0-6.39-3-6.39-7.42,0-4.85,3.06-7.84,6.7-7.84a5.05,5.05,0,0,1,4.51,2.23h.06v-8.71ZM672.35,743a4.21,4.21,0,0,0-.13-1.11,4,4,0,0,0-3.91-3.08c-2.81,0-4.48,2.42-4.48,5.64,0,3,1.48,5.4,4.41,5.4a4.06,4.06,0,0,0,4-3.17,4.15,4.15,0,0,0,.13-1.14Z"
       id="path56" />
    <rect
       class="cls-11"
       x="561.8"
       y="768.06"
       width="65.15"
       height="6.66"
       rx="3.33"
       id="rect56" />
    <path
       class="cls-12"
       d="M784.42,219.19H419.9a39.73,39.73,0,0,0-39.74,39.73V838.6a39.74,39.74,0,0,0,39.74,39.73H784.42a39.73,39.73,0,0,0,39.73-39.73V258.92A39.73,39.73,0,0,0,784.42,219.19Zm31,619.41a31,31,0,0,1-31,31H419.9a31,31,0,0,1-31-31V258.92a31,31,0,0,1,31-31H784.42a31,31,0,0,1,31,31Z"
       id="path57" />
    <path
       class="cls-12"
       d="M824.15,260a67.74,67.74,0,0,1,32.06,36.41,16.78,16.78,0,0,1,1.09,5.87V633.56a7.53,7.53,0,0,1-1.75,4.84l-31.4,37.77"
       id="path58" />
    <path
       class="cls-13"
       d="M714.73,253.2s0,0,0,0l-.24,1-7.2,29a4.47,4.47,0,0,0,.7,3.69l.06.07a15.25,15.25,0,0,1-1.59-.42,9.75,9.75,0,0,1-3.94-2.24,6.35,6.35,0,0,1-1.63-6.06l.67-2.7L705,261.64h-4.77l-1.67,6.73c-.52,2.1-.6,3,.25,5a1.18,1.18,0,0,1,0,.25l-2.48-1.32a5.56,5.56,0,0,1-2.95-6.41l4.11-16.56a.09.09,0,0,0,0,0,4.73,4.73,0,0,0-.86-4.11l1.69.75.76.34a5.79,5.79,0,0,1,3.27,6.67l-1,4h4.76l2.07-8.35a4.52,4.52,0,0,0,0-2,6.32,6.32,0,0,0-1.17-2.68,13,13,0,0,1,2.1.71C711.81,245.69,715.73,248.21,714.73,253.2Z"
       id="path59" />
    <path
       class="cls-14"
       d="M724.83,258.46l-.59,2.36h5l-1.12,4.54h-5l-.76,3.06h5L726.25,273h-9.88l1.13-4.54.76-3.06,1.12-4.54.59-2.36.71-2.86a2.23,2.23,0,0,1,1.27-1.5h0a2.22,2.22,0,0,1,.87-.18H731l-1.13,4.54Z"
       id="path60" />
    <path
       class="cls-14"
       d="M765.52,258.46l-.59,2.36h5l-1.13,4.54h-5l-.76,3.06h5L766.94,273h-9.88l1.13-4.54.76-3.06,1.13-4.54.58-2.36.71-2.86a2.22,2.22,0,0,1,1.28-1.5h0a2.15,2.15,0,0,1,.87-.18h8.14l-1.13,4.54Z"
       id="path61" />
    <polygon
       class="cls-14"
       points="758.02 253.92 757.07 257.81 753.56 257.81 753.39 258.46 752.81 260.82 749.8 272.96 744.93 272.96 746.07 268.42 746.82 265.36 747.95 260.82 748.53 258.46 748.7 257.81 745.1 257.81 745.91 254.53 746.06 253.92 758.02 253.92"
       id="polygon61" />
    <polygon
       class="cls-14"
       points="741.13 268.42 740 272.96 730.13 272.96 731.26 268.42 732.01 265.36 733.14 260.82 733.73 258.46 734.7 254.53 734.85 253.92 739.71 253.92 738.59 258.46 738 260.82 736.12 268.42 741.13 268.42"
       id="polygon62" />
    <path
       class="cls-14"
       d="M788.73,255l-1.5,6.26a3.48,3.48,0,0,0-1.3-2.36c-1.86-1.4-4.88-.52-6.78,2s-1.92,5.66-.07,7.05,4.88.52,6.77-2c.15-.2.28-.4.41-.61l-1.73,7.24a7.65,7.65,0,0,1-6.77.91c-4.31-1.62-6.17-7.27-4.16-12.64C775.55,255.69,781.94,250.72,788.73,255Z"
       id="path62" />
    <path
       class="cls-14"
       d="M718.84,282.11h-2.13l-.55,1h-1.92l3.81-6.16h2.05l.76,6.16h-2Zm-.06-1.33-.12-2.22-1.21,2.22Z"
       id="path63" />
    <path
       class="cls-14"
       d="M726.65,277h1.88l-.91,3.67a3.57,3.57,0,0,1-.43,1,3.2,3.2,0,0,1-1.61,1.36,4.44,4.44,0,0,1-1.37.2,8.21,8.21,0,0,1-1-.06,2,2,0,0,1-.82-.25,1.53,1.53,0,0,1-.51-.53,1.47,1.47,0,0,1-.22-.71,3.41,3.41,0,0,1,.08-1l.91-3.67h1.87l-.93,3.75a1,1,0,0,0,.08.79.81.81,0,0,0,.7.29,1.32,1.32,0,0,0,.83-.28,1.4,1.4,0,0,0,.47-.8Z"
       id="path64" />
    <path
       class="cls-14"
       d="M729.34,277h5.72l-.38,1.52h-1.92l-1.15,4.64h-1.88l1.15-4.64H729Z"
       id="path65" />
    <path
       class="cls-14"
       d="M734.62,280.05A4.25,4.25,0,0,1,736,277.7a3.87,3.87,0,0,1,2.52-.84,2.49,2.49,0,0,1,2.13.83,2.69,2.69,0,0,1,.25,2.31,4.83,4.83,0,0,1-.8,1.77,3.77,3.77,0,0,1-1.3,1.08,3.93,3.93,0,0,1-1.79.38,3.32,3.32,0,0,1-1.62-.33,1.81,1.81,0,0,1-.83-1A3.25,3.25,0,0,1,734.62,280.05Zm1.87,0a1.91,1.91,0,0,0,0,1.34.89.89,0,0,0,.83.41,1.46,1.46,0,0,0,1-.4,3,3,0,0,0,.69-1.43,1.78,1.78,0,0,0,0-1.28.94.94,0,0,0-.85-.4,1.48,1.48,0,0,0-1,.41A2.67,2.67,0,0,0,736.49,280.06Z"
       id="path66" />
    <path
       class="cls-14"
       d="M742.67,277h2.47l0,3.75L747,277h2.47L748,283.13h-1.54l1.17-4.7-2.35,4.7h-1.39l0-4.7-1.17,4.7h-1.54Z"
       id="path67" />
    <path
       class="cls-14"
       d="M753.17,282.11H751l-.55,1h-1.92l3.82-6.16h2.05l.75,6.16h-2Zm-.06-1.33-.12-2.22-1.21,2.22Z"
       id="path68" />
    <path
       class="cls-14"
       d="M756.31,277H762l-.38,1.52h-1.92l-1.15,4.64h-1.88l1.16-4.64h-1.92Z"
       id="path69" />
    <path
       class="cls-14"
       d="M762.94,277h1.89l-1.53,6.16h-1.89Z"
       id="path70" />
    <path
       class="cls-14"
       d="M765.17,280.05a4.21,4.21,0,0,1,1.42-2.35,3.86,3.86,0,0,1,2.51-.84,2.5,2.5,0,0,1,2.14.83,2.69,2.69,0,0,1,.25,2.31,4.83,4.83,0,0,1-.8,1.77,3.8,3.8,0,0,1-1.31,1.08,3.89,3.89,0,0,1-1.78.38,3.32,3.32,0,0,1-1.62-.33,1.77,1.77,0,0,1-.83-1A3.23,3.23,0,0,1,765.17,280.05Zm1.88,0a1.91,1.91,0,0,0,0,1.34.89.89,0,0,0,.83.41,1.47,1.47,0,0,0,1-.4,3,3,0,0,0,.68-1.43,1.68,1.68,0,0,0,0-1.28.91.91,0,0,0-.84-.4,1.47,1.47,0,0,0-1,.41A2.67,2.67,0,0,0,767.05,280.06Z"
       id="path71" />
    <path
       class="cls-14"
       d="M773.26,277H775l1.44,3.41.85-3.41h1.77l-1.53,6.16h-1.77l-1.44-3.39-.84,3.39h-1.77Z"
       id="path72" />
  </g>
</svg>
