<?xml version="1.0" encoding="UTF-8" standalone="no"?>
<svg
   viewBox="344.61 149.01 361.15 651.96"
   version="1.1"
   id="svg246"
   sodipodi:docname="tdeck_pro.svg"
   inkscape:version="1.4 (e7c3feb1, 2024-10-09)"
   xmlns:inkscape="http://www.inkscape.org/namespaces/inkscape"
   xmlns:sodipodi="http://sodipodi.sourceforge.net/DTD/sodipodi-0.dtd"
   xmlns="http://www.w3.org/2000/svg"
   xmlns:svg="http://www.w3.org/2000/svg">
  <sodipodi:namedview
     id="namedview246"
     pagecolor="#ffffff"
     bordercolor="#000000"
     borderopacity="0.25"
     inkscape:showpageshadow="2"
     inkscape:pageopacity="0.0"
     inkscape:pagecheckerboard="0"
     inkscape:deskcolor="#d1d1d1"
     inkscape:zoom="2.0734782"
     inkscape:cx="215.82093"
     inkscape:cy="16.156427"
     inkscape:window-width="1472"
     inkscape:window-height="890"
     inkscape:window-x="0"
     inkscape:window-y="38"
     inkscape:window-maximized="1"
     inkscape:current-layer="Layer_2" />
  <defs
     id="defs1">
    <style
       id="style1">.cls-1{fill:#adacac;}.cls-2{fill:#c4c7c9;}.cls-3{fill:#c0bebd;}.cls-4{fill:#22262a;}.cls-12,.cls-14,.cls-5,.cls-8{fill:none;}.cls-10,.cls-12,.cls-5,.cls-8{stroke:#070809;}.cls-10,.cls-12,.cls-14,.cls-5{stroke-miterlimit:10;}.cls-10,.cls-5{stroke-width:0.99px;}.cls-6{font-size:12px;}.cls-11,.cls-6,.cls-7{fill:#1d1d1b;}.cls-6,.cls-7{font-family:MyriadPro-Regular, Myriad Pro;}.cls-7{font-size:16.12px;}.cls-8{stroke-linecap:round;stroke-linejoin:round;stroke-width:2px;}.cls-10,.cls-9{fill:#070809;}.cls-12,.cls-14{stroke-width:0.99px;}.cls-13{fill:#fff;}.cls-14{stroke:#fff;}</style>
  </defs>
  <g
     id="Layer_4"
     data-name="Layer 4">
    <path
       class="cls-1"
       d="M705.27,205.88V744.1a56.38,56.38,0,0,1-56.38,56.37H401.49a56.38,56.38,0,0,1-56.38-56.37V205.88a56.38,56.38,0,0,1,56.38-56.37h247.4A56.38,56.38,0,0,1,705.27,205.88Z"
       id="path1" />
    <path
       class="cls-2"
       d="M402.59,156.36H648a50.85,50.85,0,0,1,50.85,50.85v355.3a25.28,25.28,0,0,1-25.28,25.28H377a25.28,25.28,0,0,1-25.28-25.28V207.21A50.85,50.85,0,0,1,402.59,156.36Z"
       id="path2" />
    <path
       class="cls-3"
       d="M705.27,721.48V744.1a56.38,56.38,0,0,1-56.38,56.37H401.49a56.38,56.38,0,0,1-56.38-56.37V725.42h39.41v32.86H665.8V728.05l6.57-6.57Z"
       id="path3" />
  </g>
  <g
     id="Layer_2"
     data-name="Layer 2">
    <rect
       class="cls-4"
       x="357.2"
       y="598.16"
       width="26.13"
       height="34.91"
       rx="7.88"
       id="rect3" />
    <rect
       class="cls-4"
       x="391.57"
       y="598.16"
       width="26.13"
       height="34.91"
       rx="7.88"
       id="rect4" />
    <rect
       class="cls-4"
       x="425.94"
       y="598.16"
       width="26.13"
       height="34.91"
       rx="7.88"
       id="rect5" />
    <rect
       class="cls-4"
       x="460.31"
       y="598.16"
       width="26.13"
       height="34.91"
       rx="7.88"
       id="rect6" />
    <rect
       class="cls-4"
       x="494.68"
       y="598.16"
       width="26.13"
       height="34.91"
       rx="7.88"
       id="rect7" />
    <rect
       class="cls-4"
       x="529.05"
       y="598.16"
       width="26.13"
       height="34.91"
       rx="7.88"
       id="rect8" />
    <rect
       class="cls-4"
       x="563.42"
       y="598.16"
       width="26.13"
       height="34.91"
       rx="7.88"
       id="rect9" />
    <rect
       class="cls-4"
       x="597.79"
       y="598.16"
       width="26.13"
       height="34.91"
       rx="7.88"
       id="rect10" />
    <rect
       class="cls-4"
       x="632.16"
       y="598.16"
       width="26.13"
       height="34.91"
       rx="7.88"
       id="rect11" />
    <rect
       class="cls-4"
       x="666.53"
       y="598.16"
       width="26.13"
       height="34.91"
       rx="7.88"
       id="rect12" />
    <rect
       class="cls-4"
       x="357.2"
       y="639.55"
       width="26.13"
       height="34.91"
       rx="7.88"
       id="rect13" />
    <rect
       class="cls-4"
       x="391.57"
       y="639.55"
       width="26.13"
       height="34.91"
       rx="7.88"
       id="rect14" />
    <rect
       class="cls-4"
       x="425.94"
       y="639.55"
       width="26.13"
       height="34.91"
       rx="7.88"
       id="rect15" />
    <rect
       class="cls-4"
       x="460.31"
       y="639.55"
       width="26.13"
       height="34.91"
       rx="7.88"
       id="rect16" />
    <rect
       class="cls-4"
       x="494.68"
       y="639.55"
       width="26.13"
       height="34.91"
       rx="7.88"
       id="rect17" />
    <rect
       class="cls-4"
       x="529.05"
       y="639.55"
       width="26.13"
       height="34.91"
       rx="7.88"
       id="rect18" />
    <rect
       class="cls-4"
       x="563.42"
       y="639.55"
       width="26.13"
       height="34.91"
       rx="7.88"
       id="rect19" />
    <rect
       class="cls-4"
       x="597.79"
       y="639.55"
       width="26.13"
       height="34.91"
       rx="7.88"
       id="rect20" />
    <rect
       class="cls-4"
       x="632.16"
       y="639.55"
       width="26.13"
       height="34.91"
       rx="7.88"
       id="rect21" />
    <rect
       class="cls-4"
       x="666.53"
       y="639.55"
       width="26.13"
       height="34.91"
       rx="7.88"
       id="rect22" />
    <rect
       class="cls-4"
       x="357.2"
       y="680.93"
       width="26.13"
       height="34.91"
       rx="7.88"
       id="rect23" />
    <rect
       class="cls-4"
       x="391.57"
       y="680.93"
       width="26.13"
       height="34.91"
       rx="7.88"
       id="rect24" />
    <rect
       class="cls-4"
       x="425.94"
       y="680.93"
       width="26.13"
       height="34.91"
       rx="7.88"
       id="rect25" />
    <rect
       class="cls-4"
       x="460.31"
       y="680.93"
       width="26.13"
       height="34.91"
       rx="7.88"
       id="rect26" />
    <rect
       class="cls-4"
       x="395.94"
       y="720.04"
       width="26.13"
       height="34.91"
       rx="7.88"
       transform="translate(1146.5 328.49) rotate(90)"
       id="rect27" />
    <rect
       class="cls-4"
       x="439.01"
       y="720.04"
       width="26.13"
       height="34.91"
       rx="7.88"
       transform="translate(1189.57 285.42) rotate(90)"
       id="rect28" />
    <rect
       class="cls-4"
       x="585.13"
       y="720.04"
       width="26.13"
       height="34.91"
       rx="7.88"
       transform="translate(1335.69 139.3) rotate(90)"
       id="rect29" />
    <rect
       class="cls-4"
       x="628.19"
       y="720.04"
       width="26.13"
       height="34.91"
       rx="7.88"
       transform="translate(1378.75 96.24) rotate(90)"
       id="rect30" />
    <rect
       class="cls-4"
       x="477.68"
       y="724.43"
       width="94.96"
       height="26.13"
       rx="7.88"
       id="rect31" />
    <rect
       class="cls-4"
       x="494.68"
       y="680.93"
       width="26.13"
       height="34.91"
       rx="7.88"
       id="rect32" />
    <rect
       class="cls-4"
       x="529.05"
       y="680.93"
       width="26.13"
       height="34.91"
       rx="7.88"
       id="rect33" />
    <rect
       class="cls-4"
       x="563.42"
       y="680.93"
       width="26.13"
       height="34.91"
       rx="7.88"
       id="rect34" />
    <rect
       class="cls-4"
       x="597.79"
       y="680.93"
       width="26.13"
       height="34.91"
       rx="7.88"
       id="rect35" />
    <rect
       class="cls-4"
       x="632.16"
       y="680.93"
       width="26.13"
       height="34.91"
       rx="7.88"
       id="rect36" />
    <rect
       class="cls-4"
       x="666.53"
       y="680.93"
       width="26.13"
       height="34.91"
       rx="7.88"
       id="rect37" />
    <rect
       class="cls-5"
       x="345.11"
       y="149.51"
       width="360.16"
       height="650.97"
       rx="56.38"
       id="rect38" />
    <rect
       class="cls-5"
       x="392.28"
       y="183"
       width="262.46"
       height="347.11"
       rx="1.78"
       id="rect39"
       style="fill:#ececec" />
    <path
       class="cls-12"
       d="M402.59,156.36H648a50.85,50.85,0,0,1,50.85,50.85v355.3a25.28,25.28,0,0,1-25.28,25.28H377a25.28,25.28,0,0,1-25.28-25.28V207.21A50.85,50.85,0,0,1,402.59,156.36Z"
       id="path118" />
    <polyline
       class="cls-12"
       points="345.11 725.42 384.52 725.42 384.52 758.28 665.8 758.28 665.8 728.05 672.37 721.48 705.27 721.48"
       id="polyline118" />
    <rect
       class="cls-12"
       x="357.2"
       y="598.16"
       width="26.13"
       height="34.91"
       rx="7.88"
       id="rect118" />
    <rect
       class="cls-12"
       x="391.57"
       y="598.16"
       width="26.13"
       height="34.91"
       rx="7.88"
       id="rect119" />
    <rect
       class="cls-12"
       x="425.94"
       y="598.16"
       width="26.13"
       height="34.91"
       rx="7.88"
       id="rect120" />
    <rect
       class="cls-12"
       x="460.31"
       y="598.16"
       width="26.13"
       height="34.91"
       rx="7.88"
       id="rect121" />
    <rect
       class="cls-12"
       x="494.68"
       y="598.16"
       width="26.13"
       height="34.91"
       rx="7.88"
       id="rect122" />
    <rect
       class="cls-12"
       x="529.05"
       y="598.16"
       width="26.13"
       height="34.91"
       rx="7.88"
       id="rect123" />
    <rect
       class="cls-12"
       x="563.42"
       y="598.16"
       width="26.13"
       height="34.91"
       rx="7.88"
       id="rect124" />
    <rect
       class="cls-12"
       x="597.79"
       y="598.16"
       width="26.13"
       height="34.91"
       rx="7.88"
       id="rect125" />
    <rect
       class="cls-12"
       x="632.16"
       y="598.16"
       width="26.13"
       height="34.91"
       rx="7.88"
       id="rect126" />
    <rect
       class="cls-12"
       x="666.53"
       y="598.16"
       width="26.13"
       height="34.91"
       rx="7.88"
       id="rect127" />
    <rect
       class="cls-12"
       x="357.2"
       y="639.55"
       width="26.13"
       height="34.91"
       rx="7.88"
       id="rect128" />
    <rect
       class="cls-12"
       x="391.57"
       y="639.55"
       width="26.13"
       height="34.91"
       rx="7.88"
       id="rect129" />
    <rect
       class="cls-12"
       x="425.94"
       y="639.55"
       width="26.13"
       height="34.91"
       rx="7.88"
       id="rect130" />
    <rect
       class="cls-12"
       x="460.31"
       y="639.55"
       width="26.13"
       height="34.91"
       rx="7.88"
       id="rect131" />
    <rect
       class="cls-12"
       x="494.68"
       y="639.55"
       width="26.13"
       height="34.91"
       rx="7.88"
       id="rect132" />
    <rect
       class="cls-12"
       x="529.05"
       y="639.55"
       width="26.13"
       height="34.91"
       rx="7.88"
       id="rect133" />
    <rect
       class="cls-12"
       x="563.42"
       y="639.55"
       width="26.13"
       height="34.91"
       rx="7.88"
       id="rect134" />
    <rect
       class="cls-12"
       x="597.79"
       y="639.55"
       width="26.13"
       height="34.91"
       rx="7.88"
       id="rect135" />
    <rect
       class="cls-12"
       x="632.16"
       y="639.55"
       width="26.13"
       height="34.91"
       rx="7.88"
       id="rect136" />
    <rect
       class="cls-12"
       x="666.53"
       y="639.55"
       width="26.13"
       height="34.91"
       rx="7.88"
       id="rect137" />
    <rect
       class="cls-12"
       x="357.2"
       y="680.93"
       width="26.13"
       height="34.91"
       rx="7.88"
       id="rect138" />
    <rect
       class="cls-12"
       x="391.57"
       y="680.93"
       width="26.13"
       height="34.91"
       rx="7.88"
       id="rect139" />
    <rect
       class="cls-12"
       x="425.94"
       y="680.93"
       width="26.13"
       height="34.91"
       rx="7.88"
       id="rect140" />
    <rect
       class="cls-12"
       x="460.31"
       y="680.93"
       width="26.13"
       height="34.91"
       rx="7.88"
       id="rect141" />
    <rect
       class="cls-12"
       x="395.94"
       y="720.04"
       width="26.13"
       height="34.91"
       rx="7.88"
       transform="translate(1146.5 328.49) rotate(90)"
       id="rect142" />
    <rect
       class="cls-12"
       x="439.01"
       y="720.04"
       width="26.13"
       height="34.91"
       rx="7.88"
       transform="translate(1189.57 285.42) rotate(90)"
       id="rect143" />
    <rect
       class="cls-12"
       x="585.13"
       y="720.04"
       width="26.13"
       height="34.91"
       rx="7.88"
       transform="translate(1335.69 139.3) rotate(90)"
       id="rect144" />
    <rect
       class="cls-12"
       x="628.19"
       y="720.04"
       width="26.13"
       height="34.91"
       rx="7.88"
       transform="translate(1378.75 96.24) rotate(90)"
       id="rect145" />
    <rect
       class="cls-12"
       x="477.68"
       y="724.43"
       width="94.96"
       height="26.13"
       rx="7.88"
       id="rect146" />
    <rect
       class="cls-12"
       x="494.68"
       y="680.93"
       width="26.13"
       height="34.91"
       rx="7.88"
       id="rect147" />
    <rect
       class="cls-12"
       x="529.05"
       y="680.93"
       width="26.13"
       height="34.91"
       rx="7.88"
       id="rect148" />
    <rect
       class="cls-12"
       x="563.42"
       y="680.93"
       width="26.13"
       height="34.91"
       rx="7.88"
       id="rect149" />
    <rect
       class="cls-12"
       x="597.79"
       y="680.93"
       width="26.13"
       height="34.91"
       rx="7.88"
       id="rect150" />
    <rect
       class="cls-12"
       x="632.16"
       y="680.93"
       width="26.13"
       height="34.91"
       rx="7.88"
       id="rect151" />
    <rect
       class="cls-12"
       x="666.53"
       y="680.93"
       width="26.13"
       height="34.91"
       rx="7.88"
       id="rect152" />
    <path
       class="cls-13"
       d="M376.85,627.2c-1.83-.48-3.61-1-5.18-1.57a2.58,2.58,0,0,0-.83-.2c-3.21-.12-6-2.49-6-6.85s2.65-7.14,6.31-7.14,6.06,2.86,6.06,6.86c0,3.47-1.6,5.7-3.85,6.49v.08c1.34.34,2.81.66,4,.86Zm-1.44-8.82c0-2.72-1.41-5.51-4.28-5.51s-4.41,2.73-4.39,5.67S368.31,624,371,624,375.41,621.47,375.41,618.38Z"
       id="path152" />
    <path
       class="cls-13"
       d="M364.53,608.57l.29-2.06h-.93v-1.06H365l.18-1.28h-1V603.1h1.14l.29-2h1l-.28,2h1l.3-2h1l-.3,2h.92v1.07h-1.08l-.19,1.28h1v1.06h-1.13l-.29,2.06h-1l.29-2.06h-1l-.29,2.06Zm2.55-3.12.18-1.28h-1l-.19,1.28Z"
       id="path153" />
    <path
       class="cls-13"
       d="M402.26,625.21l-3.44-13.55h1.85l1.61,6.86c.4,1.69.76,3.37,1,4.68h0c.23-1.35.65-3,1.11-4.7l1.81-6.84h1.83l1.64,6.88c.39,1.61.75,3.21,1,4.64h0c.28-1.49.66-3,1.08-4.68l1.79-6.84h1.79l-3.84,13.55h-1.83l-1.7-7.05a39.23,39.23,0,0,1-.89-4.42h0a43,43,0,0,1-1,4.42l-1.93,7.05Z"
       id="path154" />
    <path
       class="cls-13"
       d="M400.55,602.65h0l-1.43.68-.29-1.32,2-.92h1.45v7.48h-1.69Z"
       id="path155" />
    <path
       class="cls-13"
       d="M441.43,618.86h-5.26v4.88H442v1.47h-7.61V611.66h7.31v1.47h-5.56v4.28h5.26Z"
       id="path156" />
    <path
       class="cls-13"
       d="M432.69,608.57v-1.06l1-.87c1.63-1.46,2.42-2.3,2.45-3.18,0-.61-.37-1.09-1.24-1.09a2.68,2.68,0,0,0-1.59.62l-.5-1.25a4.11,4.11,0,0,1,2.45-.77,2.33,2.33,0,0,1,2.63,2.34c0,1.26-.91,2.26-2,3.23l-.69.57v0H438v1.44Z"
       id="path157" />
    <path
       class="cls-13"
       d="M468.79,611.85a17.34,17.34,0,0,1,3.35-.29,5.55,5.55,0,0,1,3.92,1.11,3.35,3.35,0,0,1,1.07,2.57,3.56,3.56,0,0,1-2.55,3.46v.06a3.4,3.4,0,0,1,2,2.73,21.58,21.58,0,0,0,1,3.72H475.8a17.6,17.6,0,0,1-.9-3.24c-.41-1.86-1.13-2.57-2.72-2.63h-1.64v5.87h-1.75Zm1.75,6.17h1.79c1.86,0,3.05-1,3.05-2.58,0-1.74-1.27-2.51-3.12-2.53a7.16,7.16,0,0,0-1.72.16Z"
       id="path158" />
    <path
       class="cls-13"
       d="M467.37,606.86a4.12,4.12,0,0,0,1.74.46c.91,0,1.37-.44,1.37-1,0-.74-.74-1.07-1.51-1.07h-.72V604h.68c.59,0,1.34-.23,1.34-.86,0-.45-.37-.78-1.11-.78a3.32,3.32,0,0,0-1.56.45l-.36-1.27a4.68,4.68,0,0,1,2.31-.56c1.6,0,2.49.84,2.49,1.86a1.8,1.8,0,0,1-1.37,1.74v0a1.85,1.85,0,0,1,1.62,1.82c0,1.32-1.16,2.29-3.06,2.29a4.4,4.4,0,0,1-2.22-.53Z"
       id="path159" />
    <path
       class="cls-13"
       d="M505.73,613.15h-4.12v-1.49h10v1.49H507.5v12.06h-1.77Z"
       id="path160" />
    <path
       class="cls-13"
       d="M504.17,600.62a9.81,9.81,0,0,0,0,9.29H503a8,8,0,0,1-1.31-4.64,8.15,8.15,0,0,1,1.31-4.65Z"
       id="path161" />
    <path
       class="cls-13"
       d="M540.54,625.21v-5.75l-4.28-7.8h2l1.91,3.74c.52,1,.92,1.85,1.35,2.8h0c.38-.89.84-1.77,1.36-2.8l2-3.74h2l-4.54,7.78v5.77Z"
       id="path162" />
    <path
       class="cls-13"
       d="M535.72,609.91a9.07,9.07,0,0,0,1.16-4.65,8.94,8.94,0,0,0-1.16-4.64h1.22a8.06,8.06,0,0,1,1.31,4.64,8.2,8.2,0,0,1-1.31,4.65Z"
       id="path163" />
    <path
       class="cls-13"
       d="M573.65,611.66v8c0,3,1.34,4.32,3.15,4.32,2,0,3.3-1.32,3.3-4.32v-8h1.77v7.9c0,4.16-2.2,5.87-5.13,5.87-2.77,0-4.86-1.59-4.86-5.79v-8Z"
       id="path164" />
    <path
       class="cls-13"
       d="M575.44,609.44V610h-5.76v-.57Z"
       id="path165" />
    <path
       class="cls-13"
       d="M608,611.66v13.55h-1.74V611.66Z"
       id="path166" />
    <path
       class="cls-13"
       d="M607.41,605v1.16h-3V605Z"
       id="path167" />
    <path
       class="cls-13"
       d="M652.21,618.3c0,4.66-2.83,7.13-6.29,7.13s-6.09-2.77-6.09-6.87c0-4.3,2.67-7.12,6.29-7.12S652.21,614.28,652.21,618.3Zm-10.51.22c0,2.89,1.57,5.48,4.32,5.48s4.34-2.55,4.34-5.62c0-2.7-1.41-5.51-4.32-5.51S641.7,615.54,641.7,618.52Z"
       id="path168" />
    <path
       class="cls-13"
       d="M642.41,602.45V605h2.41V606h-2.41v2.53h-1.12V606h-2.41V605h2.41v-2.51Z"
       id="path169" />
    <path
       class="cls-13"
       d="M675,611.83a20,20,0,0,1,3.35-.27,5.58,5.58,0,0,1,3.8,1.13,3.65,3.65,0,0,1,1.19,2.83,4,4,0,0,1-1.05,2.9,5.62,5.62,0,0,1-4.14,1.48,6.13,6.13,0,0,1-1.41-.12v5.43H675Zm1.74,6.53a6,6,0,0,0,1.45.14c2.11,0,3.4-1,3.4-2.9s-1.27-2.65-3.2-2.65a7.48,7.48,0,0,0-1.65.14Z"
       id="path170" />
    <path
       class="cls-13"
       d="M679.08,609.35a4.77,4.77,0,0,1-2.11.42,3.5,3.5,0,0,1-3.59-3.63,4.25,4.25,0,0,1,4.3-4.38,3.28,3.28,0,0,1,3.48,3.33c0,1.68-.95,2.73-2.19,2.73a.9.9,0,0,1-1-.88h0a1.69,1.69,0,0,1-1.49.88,1.31,1.31,0,0,1-1.28-1.49,2.62,2.62,0,0,1,2.69-2.68,3.13,3.13,0,0,1,1.37.29l-.35,2.12c-.11.68,0,1,.29,1,.49,0,1.12-.63,1.12-2a2.54,2.54,0,0,0-2.75-2.66,3.36,3.36,0,0,0-3.31,3.58,2.8,2.8,0,0,0,3,3,3.76,3.76,0,0,0,1.67-.37Zm-1-4.75a1.63,1.63,0,0,0-.36,0,1.51,1.51,0,0,0-1.35,1.63c0,.44.19.71.57.71s.88-.54,1-1.2Z"
       id="path171" />
    <path
       class="cls-13"
       d="M367.87,662.33l-1.41,4.26h-1.81l4.61-13.54h2.11L376,666.59h-1.87l-1.45-4.26Zm4.44-1.37L371,657.07c-.31-.89-.51-1.69-.71-2.48h0c-.2.81-.42,1.63-.68,2.46L368.23,661Z"
       id="path172" />
    <path
       class="cls-13"
       d="M367.75,642.65l-1.25,1.46,0,0,1.82-.36v1.16l-1.84-.32v0l1.26,1.42-1,.59-.65-1.78h0l-.66,1.77-1-.59,1.23-1.44v0l-1.81.34v-1.16l1.79.35v0l-1.22-1.45,1-.59.65,1.76h0l.65-1.76Z"
       id="path173" />
    <path
       class="cls-13"
       d="M399.81,664.46a6.21,6.21,0,0,0,3.13.89c1.79,0,2.84-1,2.84-2.32s-.73-2-2.56-2.69c-2.21-.78-3.57-1.93-3.57-3.84,0-2.11,1.75-3.67,4.38-3.67a6.17,6.17,0,0,1,3,.66l-.48,1.43a5.28,5.28,0,0,0-2.57-.65c-1.85,0-2.56,1.11-2.56,2,0,1.27.83,1.89,2.7,2.61,2.29.89,3.45,2,3.45,4s-1.54,3.9-4.74,3.9a7,7,0,0,1-3.45-.86Z"
       id="path174" />
    <path
       class="cls-13"
       d="M401.41,650v-1.78H398.1V647l2.83-4.55h2.14v4.38h.9v1.31h-.9V650Zm0-3.09V645.2c0-.45,0-.91.06-1.39h0c-.25.48-.44.92-.69,1.39l-1,1.64v0Z"
       id="path175" />
    <path
       class="cls-13"
       d="M434.42,653.23a25.1,25.1,0,0,1,3.72-.28c2.51,0,4.3.58,5.48,1.68a6.25,6.25,0,0,1,1.91,4.87,7.13,7.13,0,0,1-1.95,5.26c-1.26,1.27-3.35,2-6,2a28.28,28.28,0,0,1-3.17-.16Zm1.75,12a10.89,10.89,0,0,0,1.77.11c3.73,0,5.76-2.09,5.76-5.75,0-3.2-1.79-5.23-5.48-5.23a9.92,9.92,0,0,0-2.05.18Z"
       id="path176" />
    <path
       class="cls-13"
       d="M437.68,643.91h-2.9l-.16,1.15a3.78,3.78,0,0,1,.49,0,3.4,3.4,0,0,1,2,.54,2.12,2.12,0,0,1,.91,1.88c0,1.39-1.2,2.62-3.21,2.62a4.86,4.86,0,0,1-2.08-.42l.31-1.32a4.28,4.28,0,0,0,1.69.37c.73,0,1.5-.34,1.5-1.14s-.61-1.24-2.11-1.24a6,6,0,0,0-1,.07l.49-3.92h4.12Z"
       id="path177" />
    <path
       class="cls-13"
       d="M468.79,653.05h7.29v1.46h-5.54V659h5.12v1.44h-5.12v6.13h-1.75Z"
       id="path178" />
    <path
       class="cls-13"
       d="M471.83,643.72a5.59,5.59,0,0,0-.68,0,2.4,2.4,0,0,0-2.44,1.8h0a2.12,2.12,0,0,1,1.59-.6,2.27,2.27,0,0,1,2.31,2.44,2.68,2.68,0,0,1-2.76,2.7c-2,0-3-1.48-3-3.27a4.16,4.16,0,0,1,4.21-4.43,5.72,5.72,0,0,1,.7,0Zm-.95,3.75a1.15,1.15,0,0,0-1.12-1.29,1.13,1.13,0,0,0-1,.67.93.93,0,0,0-.07.43c0,.8.41,1.51,1.21,1.51C470.49,648.79,470.88,648.23,470.88,647.47Z"
       id="path179" />
    <path
       class="cls-13"
       d="M513.47,666a12.7,12.7,0,0,1-4.16.74,6.36,6.36,0,0,1-7-6.83c0-4,2.8-7,7.34-7a8.45,8.45,0,0,1,3.38.62l-.43,1.43a6.84,6.84,0,0,0-3-.59,5.07,5.07,0,0,0-5.45,5.45c0,3.44,2.07,5.46,5.23,5.46a5.73,5.73,0,0,0,2.33-.36v-4H509v-1.4h4.46Z"
       id="path180" />
    <path
       class="cls-13"
       d="M501.13,650.41l2.46-8.34h1.16l-2.46,8.34Z"
       id="path181" />
    <path
       class="cls-13"
       d="M539.28,653.05v5.66h6.55v-5.66h1.77v13.54h-1.77v-6.35h-6.55v6.35h-1.75V653.05Z"
       id="path182" />
    <path
       class="cls-13"
       d="M535.89,645.32a1,1,0,0,1,1-1.06,1.05,1.05,0,1,1-1,1.06Zm0,3.71a1,1,0,1,1,1,1.05A1,1,0,0,1,535.89,649Z"
       id="path183" />
    <path
       class="cls-13"
       d="M574.67,653.05h1.75v9.06c0,3.6-1.77,4.7-4.1,4.7a5.7,5.7,0,0,1-1.87-.32l.26-1.43a4.19,4.19,0,0,0,1.47.27c1.57,0,2.49-.71,2.49-3.36Z"
       id="path184" />
    <path
       class="cls-13"
       d="M569.71,651.32a22.3,22.3,0,0,0,.84-3.26l1.76-.12a16.23,16.23,0,0,1-1.45,3.28Zm.62-6a1,1,0,1,1,1,1A1,1,0,0,1,570.33,645.32Z"
       id="path185" />
    <path
       class="cls-13"
       d="M606.27,653.05H608v6.53h.07c.36-.52.72-1,1.06-1.45l4.14-5.08h2.17l-4.9,5.74,5.28,7.8h-2.07l-4.46-6.65L608,661.43v5.16h-1.74Z"
       id="path186" />
    <path
       class="cls-13"
       d="M604.36,645.28a15.7,15.7,0,0,1,1.38-3.12l1.06-.09a18,18,0,0,0-.8,3.11Z"
       id="path187" />
    <path
       class="cls-13"
       d="M640.64,653.05h1.74v12.07h5.79v1.47h-7.53Z"
       id="path188" />
    <path
       class="cls-13"
       d="M638.72,645.28a15.15,15.15,0,0,1,1.38-3.12l1.06-.09a17.12,17.12,0,0,0-.8,3.11Zm2.25,0a14.63,14.63,0,0,1,1.38-3.12l1-.09a18.94,18.94,0,0,0-.8,3.11Z"
       id="path189" />
    <path
       class="cls-13"
       d="M366.36,704.78l-.13-.73h0a2.6,2.6,0,0,1-2.07.89,2.21,2.21,0,0,1-2.33-2.21c0-1.88,1.68-2.78,4.23-2.76v-.11c0-.38-.2-.93-1.31-.93a4.09,4.09,0,0,0-2,.55l-.41-1.45a6,6,0,0,1,2.8-.63c2.4,0,3.17,1.42,3.17,3.11V703a11.84,11.84,0,0,0,.1,1.76Zm-.26-3.41c-1.18,0-2.1.26-2.1,1.13a.81.81,0,0,0,.89.86,1.21,1.21,0,0,0,1.16-.83,1.52,1.52,0,0,0,.05-.38Z"
       id="path190" />
    <path
       class="cls-13"
       d="M370.05,694.3h2.24v10.48h-2.24Z"
       id="path191" />
    <path
       class="cls-13"
       d="M376.61,695.5v2.06h1.61v1.65h-1.61v2.62c0,.87.21,1.27.89,1.27a3.54,3.54,0,0,0,.66-.06l0,1.69a4.39,4.39,0,0,1-1.46.19,2.34,2.34,0,0,1-1.68-.61,3,3,0,0,1-.62-2.14v-3h-1v-1.65h1V696Z"
       id="path192" />
    <path
       class="cls-13"
       d="M586.93,738.6a3.83,3.83,0,0,0,1.7.48c.59,0,.84-.21.84-.54s-.19-.48-.93-.72c-1.31-.44-1.82-1.16-1.81-1.91,0-1.18,1-2.07,2.59-2.07a4.13,4.13,0,0,1,1.78.36l-.35,1.36a3.17,3.17,0,0,0-1.37-.36c-.48,0-.75.19-.75.52s.24.45,1,.72c1.21.42,1.71,1,1.73,2,0,1.18-.94,2.05-2.75,2.05a4.49,4.49,0,0,1-2-.44Z"
       id="path193" />
    <path
       class="cls-13"
       d="M594.05,734l1,3.11c.1.38.23.84.31,1.18h0c.09-.34.19-.82.28-1.18l.78-3.11h2.12l-1.48,4.18c-.91,2.51-1.52,3.52-2.23,4.16a3.76,3.76,0,0,1-1.91.87l-.42-1.68a2.32,2.32,0,0,0,.86-.33,2.37,2.37,0,0,0,.82-.79.59.59,0,0,0,.1-.29.67.67,0,0,0-.09-.32l-2.32-5.8Z"
       id="path194" />
    <path
       class="cls-13"
       d="M599.36,736c0-.79,0-1.46-.05-2H601l.09.85h0a2.2,2.2,0,0,1,1.92-1,1.81,1.81,0,0,1,1.74,1.07h0a2.93,2.93,0,0,1,.82-.76,2.27,2.27,0,0,1,1.21-.31c1.21,0,2.14.85,2.14,2.75v3.73H607v-3.45c0-.92-.3-1.45-.94-1.45a1,1,0,0,0-.91.69,1.68,1.68,0,0,0-.07.5v3.71h-1.92v-3.55c0-.81-.29-1.35-.91-1.35a1,1,0,0,0-.92.71,1.23,1.23,0,0,0-.08.49v3.7h-1.92Z"
       id="path195" />
    <path
       class="cls-13"
       d="M364.53,691.34l.29-2.06h-.93v-1.06H365l.18-1.29h-1v-1.07h1.14l.29-2h1l-.28,2h1l.3-2h1l-.3,2h.92v1.07h-1.08l-.19,1.29h1v1.06h-1.13l-.29,2.06h-1l.29-2.06h-1l-.29,2.06Zm2.55-3.12.18-1.29h-1l-.19,1.29Z"
       id="path196" />
    <path
       class="cls-13"
       d="M399.12,707l7.52-11v-.06h-6.87v-1.47h9.14v1.06l-7.47,11v.06H409V708h-9.89Z"
       id="path197" />
    <path
       class="cls-13"
       d="M403.68,683.86V685l-3.08,6.38h-1.86l3.09-6v0H398.4v-1.44Z"
       id="path198" />
    <path
       class="cls-13"
       d="M441.83,708l-1.72-3c-.71-1.15-1.15-1.89-1.57-2.67h0c-.38.78-.77,1.5-1.47,2.69l-1.63,3h-2l4.14-6.85-4-6.69h2l1.79,3.17c.5.89.89,1.57,1.25,2.3h.06c.38-.81.72-1.43,1.23-2.3l1.84-3.17h2L439.64,701l4.22,7Z"
       id="path199" />
    <path
       class="cls-13"
       d="M432.57,689.38a2,2,0,0,1,1.34-1.88v0a1.81,1.81,0,0,1-1.08-1.63c0-1.27,1.14-2.11,2.63-2.11,1.75,0,2.48,1,2.48,1.92a1.83,1.83,0,0,1-1.09,1.65v0a2,2,0,0,1,1.37,1.87c0,1.35-1.14,2.26-2.87,2.26C433.45,691.46,432.57,690.39,432.57,689.38Zm3.87-.06c0-.65-.48-1-1.17-1.23a1.13,1.13,0,0,0-.91,1.12,1,1,0,0,0,1.06,1A.93.93,0,0,0,436.44,689.32Zm-2-3.54c0,.5.46.83,1.06,1a1,1,0,0,0,.76-.95.86.86,0,0,0-.91-.92A.83.83,0,0,0,434.47,685.78Z"
       id="path200" />
    <path
       class="cls-13"
       d="M478.25,707.53a8.69,8.69,0,0,1-3.57.64c-3.82,0-6.7-2.41-6.7-6.85a6.74,6.74,0,0,1,7.08-7.11,7.24,7.24,0,0,1,3.21.6l-.42,1.43a6.38,6.38,0,0,0-2.73-.57c-3.18,0-5.29,2-5.29,5.59,0,3.32,1.91,5.45,5.21,5.45a6.85,6.85,0,0,0,2.85-.57Z"
       id="path201" />
    <path
       class="cls-13"
       d="M467.61,690.07a4.74,4.74,0,0,0,.76,0,2.9,2.9,0,0,0,1.47-.46,2.31,2.31,0,0,0,1-1.38h0a2,2,0,0,1-1.49.54,2.26,2.26,0,0,1-2.34-2.34,2.72,2.72,0,0,1,2.82-2.69c1.92,0,2.83,1.47,2.83,3.22a4.48,4.48,0,0,1-1.31,3.44,4.43,4.43,0,0,1-2.86,1.05,6.89,6.89,0,0,1-.79,0Zm1.06-3.75a1.07,1.07,0,0,0,1.06,1.2,1.08,1.08,0,0,0,1-.5.79.79,0,0,0,.1-.44c0-.79-.3-1.57-1.1-1.57C469.09,685,468.66,685.54,468.67,686.32Z"
       id="path202" />
    <path
       class="cls-13"
       d="M446.81,732c0,2.32-.93,3.91-2.84,3.91s-2.78-1.74-2.79-3.86.92-3.88,2.85-3.88S446.81,730,446.81,732Zm-3.87.05c0,1.71.4,2.53,1.08,2.53s1-.85,1-2.55-.35-2.53-1.05-2.53S442.92,730.35,442.94,732.09Z"
       id="path203" />
    <path
       class="cls-13"
       d="M506.13,708l-4.42-13.54h1.89l2.11,6.67c.58,1.83,1.09,3.48,1.45,5.06h0c.38-1.56.94-3.27,1.54-5l2.3-6.69h1.86L508.06,708Z"
       id="path204" />
    <path
       class="cls-13"
       d="M502.53,688.83v-.3a2.55,2.55,0,0,1,.68-1.81,2.11,2.11,0,0,0,.67-1.19c0-.41-.27-.67-.84-.69a2.15,2.15,0,0,0-1.14.34l-.39-1.25a3.82,3.82,0,0,1,1.92-.48c1.52,0,2.21.84,2.21,1.8a2.85,2.85,0,0,1-1,1.93,2,2,0,0,0-.59,1.44v.21Zm-.3,1.58a1,1,0,1,1,1,1.05A1,1,0,0,1,502.23,690.41Z"
       id="path205" />
    <path
       class="cls-13"
       d="M537.53,694.61a17,17,0,0,1,3.19-.28,5.61,5.61,0,0,1,3.72,1,2.87,2.87,0,0,1,1.13,2.39,3.22,3.22,0,0,1-2.3,3v0a3.5,3.5,0,0,1,2.8,3.4,3.64,3.64,0,0,1-1.15,2.71c-.94.86-2.47,1.26-4.68,1.26a20.4,20.4,0,0,1-2.71-.16Zm1.75,5.55h1.58c1.85,0,2.94-1,2.94-2.27,0-1.59-1.21-2.22-3-2.22a7.24,7.24,0,0,0-1.54.13Zm0,6.49a9.3,9.3,0,0,0,1.46.08c1.81,0,3.48-.67,3.48-2.64s-1.59-2.61-3.5-2.61h-1.44Z"
       id="path206" />
    <path
       class="cls-13"
       d="M535.82,690.41a1,1,0,0,1,1-1,1,1,0,1,1-1,1Zm.38-1.62-.26-5.21h1.82l-.25,5.21Z"
       id="path207" />
    <path
       class="cls-13"
       d="M571.9,708V694.43h1.91l4.34,6.85a39.35,39.35,0,0,1,2.43,4.4l0,0c-.16-1.81-.2-3.45-.2-5.56v-5.67h1.65V708H580.3L576,701.1a43.29,43.29,0,0,1-2.54-4.52l-.06,0c.1,1.71.14,3.34.14,5.59V708Z"
       id="path208" />
    <path
       class="cls-13"
       d="M569.71,692.7a21.06,21.06,0,0,0,.83-3.26l1.78-.12a16,16,0,0,1-1.45,3.28Z"
       id="path209" />
    <path
       class="cls-13"
       d="M617.68,702c-.1-1.89-.22-4.16-.2-5.85h-.06c-.46,1.58-1,3.27-1.71,5.14l-2.39,6.57H612l-2.19-6.45c-.64-1.91-1.18-3.66-1.56-5.26h0c0,1.69-.15,4-.27,6l-.36,5.8h-1.66l.94-13.54h2.23l2.31,6.55c.56,1.67,1,3.16,1.37,4.56h.06c.34-1.36.82-2.85,1.42-4.56l2.42-6.55h2.23l.84,13.54H618Z"
       id="path210" />
    <path
       class="cls-13"
       d="M604.63,690.4a1,1,0,1,1,1,1.06A1,1,0,0,1,604.63,690.4Z"
       id="path211" />
    <path
       class="cls-13"
       d="M643.49,709.7v-2a5.9,5.9,0,0,1-3.08-.88l.49-1.35a5.34,5.34,0,0,0,2.89.87c1.43,0,2.39-.83,2.39-2s-.78-1.79-2.27-2.39c-2-.81-3.31-1.73-3.31-3.48a3.29,3.29,0,0,1,3-3.24v-2h1.25v1.95a5.26,5.26,0,0,1,2.61.71l-.5,1.32a4.92,4.92,0,0,0-2.54-.68c-1.54,0-2.13.92-2.13,1.73,0,1,.75,1.56,2.5,2.29,2.07.84,3.11,1.89,3.11,3.68a3.49,3.49,0,0,1-3.18,3.41v2.09Z"
       id="path212" />
    <polygon
       class="cls-13"
       points="543.9 741.32 504.63 741.32 504.63 733.83 506.63 733.83 506.63 739.32 541.9 739.32 541.9 733.98 543.9 733.98 543.9 741.32"
       id="polygon212" />
    <path
       class="cls-13"
       d="M680.38,706.62h-5.22v-2h5.22a2,2,0,0,0,2-2v-5.58h2v5.58A4,4,0,0,1,680.38,706.62Z"
       id="path213" />
    <path
       class="cls-13"
       d="M685.08,666h-9.92a.49.49,0,0,1-.41-.23l-3.41-5.29a.48.48,0,0,1,0-.55l3.4-4.64a.52.52,0,0,1,.4-.2h9.92a.49.49,0,0,1,.49.5v9.91A.49.49,0,0,1,685.08,666Zm-9.65-1h9.16v-8.93h-9.18l-3.06,4.16Z"
       id="path214" />
    <path
       class="cls-13"
       d="M683.16,664.44a.52.52,0,0,1-.35-.14L676.49,658a.49.49,0,0,1,.7-.7l6.32,6.32a.5.5,0,0,1,0,.7A.54.54,0,0,1,683.16,664.44Z"
       id="path215" />
    <path
       class="cls-13"
       d="M676.54,664.15a.46.46,0,0,1-.34-.15.47.47,0,0,1,0-.69l6-6a.49.49,0,0,1,.7.7l-6,6A.47.47,0,0,1,676.54,664.15Z"
       id="path216" />
    <path
       class="cls-13"
       d="M411.56,743.11h-6a.49.49,0,0,1-.49-.5v-4h-1.37a.51.51,0,0,1-.44-.27.51.51,0,0,1,.05-.52l4.86-6.37a.52.52,0,0,1,.79,0l4.86,6.37a.51.51,0,0,1,.05.52.49.49,0,0,1-.44.27h-1.37v4A.49.49,0,0,1,411.56,743.11Zm-5.52-1h5v-4a.48.48,0,0,1,.49-.49h.86l-3.86-5.07-3.87,5.07h.86a.48.48,0,0,1,.49.49Z"
       id="path217" />
    <path
       class="cls-13"
       d="M644.26,743.11h-6a.49.49,0,0,1-.49-.5v-4h-1.37a.52.52,0,0,1-.44-.27.51.51,0,0,1,0-.52l4.87-6.37a.51.51,0,0,1,.78,0l4.86,6.37a.47.47,0,0,1,0,.52.49.49,0,0,1-.44.27h-1.37v4A.49.49,0,0,1,644.26,743.11Zm-5.51-1h5v-4a.48.48,0,0,1,.49-.49h.86l-3.86-5.07-3.87,5.07h.86a.49.49,0,0,1,.5.49Z"
       id="path218" />
    <path
       class="cls-13"
       d="M453.12,742.74a3.93,3.93,0,0,1-3.93-3.93.5.5,0,0,1,1,0,2.94,2.94,0,0,0,5.88,0,.5.5,0,0,1,1,0A3.93,3.93,0,0,1,453.12,742.74Z"
       id="path219" />
    <path
       class="cls-13"
       d="M455.34,745a.48.48,0,0,1-.49-.49,1.73,1.73,0,0,0-3.45,0,.5.5,0,0,1-1,0,2.71,2.71,0,1,1,5.42,0A.48.48,0,0,1,455.34,745Z"
       id="path220" />
    <rect
       class="cls-13"
       x="451.11"
       y="732.06"
       width="4.03"
       height="8.26"
       rx="2.01"
       id="rect220" />
    <polygon
       class="cls-13"
       points="676.19 702.23 676.19 709.02 672.79 705.62 676.19 702.23 676.19 702.23"
       id="polygon220" />
    <polygon
       class="cls-13"
       points="644.65 686.42 644.65 693.21 641.26 689.81 644.65 686.42 644.65 686.42"
       id="polygon221" />
    <polygon
       class="cls-13"
       points="649.29 693.21 649.29 686.42 652.69 689.81 649.29 693.21 649.29 693.21"
       id="polygon222" />
    <rect
       class="cls-13"
       x="643.64"
       y="688.81"
       width="6.83"
       height="2"
       id="rect222" />
    <circle
       class="cls-14"
       cx="679.22"
       cy="750.18"
       r="4.73"
       id="circle222" />
    <polyline
       class="cls-14"
       points="683.94 750.18 693.3 750.18 693.3 761.43 682.82 771.91"
       id="polyline222" />
    <circle
       class="cls-14"
       cx="369.33"
       cy="750.18"
       r="4.73"
       id="circle223" />
    <polyline
       class="cls-14"
       points="364.61 750.18 355.25 750.18 355.25 761.43 365.73 771.91"
       id="polyline223" />
    <polygon
       class="cls-13"
       points="393.31 791 386.85 791 371.76 777.46 378.22 777.46 393.31 791"
       id="polygon223" />
    <polygon
       class="cls-13"
       points="402.32 791 395.87 791 380.78 777.46 387.24 777.46 402.32 791"
       id="polygon224" />
    <polygon
       class="cls-13"
       points="411.34 791 404.88 791 389.8 777.46 396.26 777.46 411.34 791"
       id="polygon225" />
    <polygon
       class="cls-13"
       points="420.36 791 413.9 791 398.82 777.46 405.27 777.46 420.36 791"
       id="polygon226" />
    <polygon
       class="cls-13"
       points="429.38 791 422.92 791 407.83 777.46 414.29 777.46 429.38 791"
       id="polygon227" />
    <polygon
       class="cls-13"
       points="438.39 791 431.94 791 416.85 777.46 423.31 777.46 438.39 791"
       id="polygon228" />
    <polygon
       class="cls-13"
       points="447.41 791 440.95 791 425.87 777.46 432.33 777.46 447.41 791"
       id="polygon229" />
    <polygon
       class="cls-13"
       points="456.43 791 449.97 791 434.89 777.46 441.35 777.46 456.43 791"
       id="polygon230" />
    <polygon
       class="cls-13"
       points="465.45 791 458.99 791 443.91 777.46 450.37 777.46 465.45 791"
       id="polygon231" />
    <polygon
       class="cls-13"
       points="657.46 791 663.91 791 679 777.46 672.54 777.46 657.46 791"
       id="polygon232" />
    <polygon
       class="cls-13"
       points="648.44 791 654.9 791 669.98 777.46 663.52 777.46 648.44 791"
       id="polygon233" />
    <polygon
       class="cls-13"
       points="639.42 791 645.88 791 660.96 777.46 654.5 777.46 639.42 791"
       id="polygon234" />
    <polygon
       class="cls-13"
       points="630.4 791 636.86 791 651.95 777.46 645.49 777.46 630.4 791"
       id="polygon235" />
    <polygon
       class="cls-13"
       points="621.38 791 627.84 791 642.93 777.46 636.47 777.46 621.38 791"
       id="polygon236" />
    <polygon
       class="cls-13"
       points="612.37 791 618.83 791 633.91 777.46 627.45 777.46 612.37 791"
       id="polygon237" />
    <polygon
       class="cls-13"
       points="603.35 791 609.81 791 624.89 777.46 618.43 777.46 603.35 791"
       id="polygon238" />
    <polygon
       class="cls-13"
       points="594.33 791 600.79 791 615.87 777.46 609.41 777.46 594.33 791"
       id="polygon239" />
    <polygon
       class="cls-13"
       points="585.31 791 591.77 791 606.86 777.46 600.4 777.46 585.31 791"
       id="polygon240" />
    <path
       class="cls-13"
       d="M480.15,769.67h4.36v15.57h7.65v3.65h-12Z"
       id="path240" />
    <path
       class="cls-13"
       d="M499.09,769.67v19.22h-4.36V769.67Z"
       id="path241" />
    <path
       class="cls-13"
       d="M502.85,769.67h4.37v15.57h7.64v3.65h-12Z"
       id="path242" />
    <path
       class="cls-13"
       d="M519.31,788.89V781l-6.07-11.35h5l2,4.62c.59,1.4,1,2.42,1.48,3.68h.06c.42-1.2.88-2.31,1.45-3.68l1.94-4.62H530l-6.33,11.21v8Z"
       id="path243" />
    <path
       class="cls-13"
       d="M546.78,788a21.74,21.74,0,0,1-6.42,1.08c-3.51,0-6.05-.88-7.82-2.59a9.34,9.34,0,0,1-2.7-7c0-6.39,4.67-10,11-10a13.16,13.16,0,0,1,5.33.94l-.91,3.48a10.62,10.62,0,0,0-4.48-.83c-3.62,0-6.36,2.06-6.36,6.22,0,4,2.48,6.3,6.05,6.3a5.84,5.84,0,0,0,2.13-.28v-4h-3v-3.4h7.16Z"
       id="path244" />
    <path
       class="cls-13"
       d="M567.77,779.08c0,6.3-3.82,10.12-9.44,10.12s-9-4.3-9-9.78c0-5.76,3.68-10.06,9.35-10.06C564.54,769.36,567.77,773.78,567.77,779.08Zm-13.89.26c0,3.76,1.77,6.41,4.68,6.41s4.62-2.79,4.62-6.53c0-3.45-1.66-6.41-4.65-6.41S553.88,775.6,553.88,779.34Z"
       id="path245" />
    <path
       class="cls-13"
       d="M571.74,767.49a11.4,11.4,0,0,1,1.64-.11,2.76,2.76,0,0,1,1.76.43,1.4,1.4,0,0,1,.5,1.14,1.45,1.45,0,0,1-1,1.34v0a1.4,1.4,0,0,1,.73,1c.17.62.34,1.33.44,1.54h-1.26a6.55,6.55,0,0,1-.38-1.27c-.14-.68-.38-.86-.88-.87H573v2.14h-1.22Zm1.22,2.35h.48c.62,0,1-.31,1-.79s-.34-.75-.91-.76a3.84,3.84,0,0,0-.55,0Z"
       id="path246" />
    <circle
       class="cls-14"
       cx="573.69"
       cy="770.32"
       r="4.58"
       id="circle246" />
  </g>
</svg>
