<?xml version="1.0" encoding="UTF-8"?>
<!--Generator: Apple Native CoreSVG 341-->
<!DOCTYPE svg
PUBLIC "-//W3C//DTD SVG 1.1//EN"
       "http://www.w3.org/Graphics/SVG/1.1/DTD/svg11.dtd">
<svg version="1.1" xmlns="http://www.w3.org/2000/svg" xmlns:xlink="http://www.w3.org/1999/xlink" viewBox="0 0 3300 2200">
 <!--glyph: "", point size: 100.0, font version: "20.0d10e1", template writer version: "138.0.0"-->
 <style>.defaults {-sfsymbols-wiggle-style:clockwise;-sfsymbols-rotates-clockwise:true}

.monochrome-0 {-sfsymbols-variable-threshold:0.93;-sfsymbols-motion-group:12;-sfsymbols-layer-tags:-4ed3e2b5f369b4bf}
.monochrome-1 {-sfsymbols-variable-threshold:0.86;-sfsymbols-motion-group:11;-sfsymbols-layer-tags:-4ed3e2b5f369b4bf}
.monochrome-2 {-sfsymbols-variable-threshold:0.78;-sfsymbols-motion-group:10;-sfsymbols-layer-tags:-4ed3e2b5f369b4bf}
.monochrome-3 {-sfsymbols-variable-threshold:0.7;-sfsymbols-motion-group:9;-sfsymbols-layer-tags:-4ed3e2b5f369b4bf}
.monochrome-4 {-sfsymbols-variable-threshold:0.63;-sfsymbols-motion-group:8;-sfsymbols-layer-tags:-4ed3e2b5f369b4bf}
.monochrome-5 {-sfsymbols-variable-threshold:0.55;-sfsymbols-motion-group:7;-sfsymbols-layer-tags:-4ed3e2b5f369b4bf}
.monochrome-6 {-sfsymbols-variable-threshold:0.47;-sfsymbols-motion-group:6;-sfsymbols-layer-tags:-4ed3e2b5f369b4bf}
.monochrome-7 {-sfsymbols-variable-threshold:0.39;-sfsymbols-motion-group:5;-sfsymbols-layer-tags:-4ed3e2b5f369b4bf}
.monochrome-8 {-sfsymbols-variable-threshold:0.32;-sfsymbols-motion-group:4;-sfsymbols-layer-tags:-4ed3e2b5f369b4bf}
.monochrome-9 {-sfsymbols-variable-threshold:0.24;-sfsymbols-motion-group:3;-sfsymbols-layer-tags:-4ed3e2b5f369b4bf}
.monochrome-10 {-sfsymbols-variable-threshold:0.16;-sfsymbols-motion-group:2;-sfsymbols-layer-tags:-4ed3e2b5f369b4bf}
.monochrome-11 {-sfsymbols-variable-threshold:0.09;-sfsymbols-motion-group:1;-sfsymbols-layer-tags:-4ed3e2b5f369b4bf}

.multicolor-0:tintColor {-sfsymbols-variable-threshold:0.93;-sfsymbols-motion-group:12;-sfsymbols-layer-tags:-4ed3e2b5f369b4bf}
.multicolor-1:tintColor {-sfsymbols-variable-threshold:0.86;-sfsymbols-motion-group:11;-sfsymbols-layer-tags:-4ed3e2b5f369b4bf}
.multicolor-2:tintColor {-sfsymbols-variable-threshold:0.78;-sfsymbols-motion-group:10;-sfsymbols-layer-tags:-4ed3e2b5f369b4bf}
.multicolor-3:tintColor {-sfsymbols-clear-behind:true;-sfsymbols-variable-threshold:0.7;-sfsymbols-motion-group:9;-sfsymbols-layer-tags:-4ed3e2b5f369b4bf}
.multicolor-4:tintColor {-sfsymbols-variable-threshold:0.63;-sfsymbols-motion-group:8;-sfsymbols-layer-tags:-4ed3e2b5f369b4bf}
.multicolor-5:tintColor {-sfsymbols-variable-threshold:0.55;-sfsymbols-motion-group:7;-sfsymbols-layer-tags:-4ed3e2b5f369b4bf}
.multicolor-6:tintColor {-sfsymbols-variable-threshold:0.47;-sfsymbols-motion-group:6;-sfsymbols-layer-tags:-4ed3e2b5f369b4bf}
.multicolor-7:tintColor {-sfsymbols-variable-threshold:0.39;-sfsymbols-motion-group:5;-sfsymbols-layer-tags:-4ed3e2b5f369b4bf}
.multicolor-8:tintColor {-sfsymbols-variable-threshold:0.32;-sfsymbols-motion-group:4;-sfsymbols-layer-tags:-4ed3e2b5f369b4bf}
.multicolor-9:tintColor {-sfsymbols-variable-threshold:0.24;-sfsymbols-motion-group:3;-sfsymbols-layer-tags:-4ed3e2b5f369b4bf}
.multicolor-10:tintColor {-sfsymbols-variable-threshold:0.16;-sfsymbols-motion-group:2;-sfsymbols-layer-tags:-4ed3e2b5f369b4bf}
.multicolor-11:tintColor {-sfsymbols-variable-threshold:0.09;-sfsymbols-motion-group:1;-sfsymbols-layer-tags:-4ed3e2b5f369b4bf}

.hierarchical-0:primary {-sfsymbols-variable-threshold:0.93;-sfsymbols-motion-group:12;-sfsymbols-layer-tags:-4ed3e2b5f369b4bf}
.hierarchical-1:primary {-sfsymbols-variable-threshold:0.86;-sfsymbols-motion-group:11;-sfsymbols-layer-tags:-4ed3e2b5f369b4bf}
.hierarchical-2:primary {-sfsymbols-variable-threshold:0.78;-sfsymbols-motion-group:10;-sfsymbols-layer-tags:-4ed3e2b5f369b4bf}
.hierarchical-3:primary {-sfsymbols-clear-behind:true;-sfsymbols-variable-threshold:0.7;-sfsymbols-motion-group:9;-sfsymbols-layer-tags:-4ed3e2b5f369b4bf}
.hierarchical-4:secondary {-sfsymbols-variable-threshold:0.63;-sfsymbols-motion-group:8;-sfsymbols-layer-tags:-4ed3e2b5f369b4bf}
.hierarchical-5:tertiary {-sfsymbols-variable-threshold:0.55;-sfsymbols-motion-group:7;-sfsymbols-layer-tags:-4ed3e2b5f369b4bf}
.hierarchical-6:primary {-sfsymbols-variable-threshold:0.47;-sfsymbols-motion-group:6;-sfsymbols-layer-tags:-4ed3e2b5f369b4bf}
.hierarchical-7:primary {-sfsymbols-variable-threshold:0.39;-sfsymbols-motion-group:5;-sfsymbols-layer-tags:-4ed3e2b5f369b4bf}
.hierarchical-8:primary {-sfsymbols-variable-threshold:0.32;-sfsymbols-motion-group:4;-sfsymbols-layer-tags:-4ed3e2b5f369b4bf}
.hierarchical-9:primary {-sfsymbols-variable-threshold:0.24;-sfsymbols-motion-group:3;-sfsymbols-layer-tags:-4ed3e2b5f369b4bf}
.hierarchical-10:primary {-sfsymbols-variable-threshold:0.16;-sfsymbols-motion-group:2;-sfsymbols-layer-tags:-4ed3e2b5f369b4bf}
.hierarchical-11:primary {-sfsymbols-variable-threshold:0.09;-sfsymbols-motion-group:1;-sfsymbols-layer-tags:-4ed3e2b5f369b4bf}

.SFSymbolsPreviewWireframe {fill:none;opacity:1.0;stroke:black;stroke-width:0.5}
</style>
 <g id="Notes">
  <rect height="2200" id="artboard" style="fill:white;opacity:1" width="3300" x="0" y="0"/>
  <line style="fill:none;stroke:black;opacity:1;stroke-width:0.5;" x1="263" x2="3036" y1="292" y2="292"/>
  <text style="stroke:none;fill:black;font-family:sans-serif;font-size:13;font-weight:bold;" transform="matrix(1 0 0 1 263 322)">Weight/Scale Variations</text>
  <text style="stroke:none;fill:black;font-family:sans-serif;font-size:13;text-anchor:middle;" transform="matrix(1 0 0 1 559.711 322)">Ultralight</text>
  <text style="stroke:none;fill:black;font-family:sans-serif;font-size:13;text-anchor:middle;" transform="matrix(1 0 0 1 856.422 322)">Thin</text>
  <text style="stroke:none;fill:black;font-family:sans-serif;font-size:13;text-anchor:middle;" transform="matrix(1 0 0 1 1153.13 322)">Light</text>
  <text style="stroke:none;fill:black;font-family:sans-serif;font-size:13;text-anchor:middle;" transform="matrix(1 0 0 1 1449.84 322)">Regular</text>
  <text style="stroke:none;fill:black;font-family:sans-serif;font-size:13;text-anchor:middle;" transform="matrix(1 0 0 1 1746.56 322)">Medium</text>
  <text style="stroke:none;fill:black;font-family:sans-serif;font-size:13;text-anchor:middle;" transform="matrix(1 0 0 1 2043.27 322)">Semibold</text>
  <text style="stroke:none;fill:black;font-family:sans-serif;font-size:13;text-anchor:middle;" transform="matrix(1 0 0 1 2339.98 322)">Bold</text>
  <text style="stroke:none;fill:black;font-family:sans-serif;font-size:13;text-anchor:middle;" transform="matrix(1 0 0 1 2636.69 322)">Heavy</text>
  <text style="stroke:none;fill:black;font-family:sans-serif;font-size:13;text-anchor:middle;" transform="matrix(1 0 0 1 2933.4 322)">Black</text>
  <line style="fill:none;stroke:black;opacity:1;stroke-width:0.5;" x1="263" x2="3036" y1="1903" y2="1903"/>
  <g transform="matrix(0.2 0 0 0.2 263 1933)">
   <path d="m46.2402 4.15039c21.7773 0 39.4531-17.627 39.4531-39.4043s-17.6758-39.4043-39.4531-39.4043c-21.7285 0-39.4043 17.627-39.4043 39.4043s17.6758 39.4043 39.4043 39.4043Zm0-7.42188c-17.6758 0-31.9336-14.3066-31.9336-31.9824s14.2578-31.9824 31.9336-31.9824 31.9824 14.3066 31.9824 31.9824-14.3066 31.9824-31.9824 31.9824Zm-17.9688-31.9824c0 2.14844 1.51367 3.61328 3.75977 3.61328h10.498v10.5957c0 2.19727 1.46484 3.71094 3.61328 3.71094 2.24609 0 3.71094-1.51367 3.71094-3.71094v-10.5957h10.5957c2.19727 0 3.71094-1.46484 3.71094-3.61328 0-2.19727-1.51367-3.71094-3.71094-3.71094h-10.5957v-10.5469c0-2.24609-1.46484-3.75977-3.71094-3.75977-2.14844 0-3.61328 1.51367-3.61328 3.75977v10.5469h-10.498c-2.24609 0-3.75977 1.51367-3.75977 3.71094Z"/>
  </g>
  <g transform="matrix(0.2 0 0 0.2 281.506 1933)">
   <path d="m58.5449 14.5508c27.4902 0 49.8047-22.3145 49.8047-49.8047s-22.3145-49.8047-49.8047-49.8047-49.8047 22.3145-49.8047 49.8047 22.3145 49.8047 49.8047 49.8047Zm0-8.30078c-22.9492 0-41.5039-18.5547-41.5039-41.5039s18.5547-41.5039 41.5039-41.5039 41.5039 18.5547 41.5039 41.5039-18.5547 41.5039-41.5039 41.5039Zm-22.6562-41.5039c0 2.39258 1.66016 4.00391 4.15039 4.00391h14.3555v14.4043c0 2.44141 1.66016 4.15039 4.05273 4.15039 2.44141 0 4.15039-1.66016 4.15039-4.15039v-14.4043h14.4043c2.44141 0 4.15039-1.61133 4.15039-4.00391 0-2.44141-1.70898-4.15039-4.15039-4.15039h-14.4043v-14.3555c0-2.49023-1.70898-4.19922-4.15039-4.19922-2.39258 0-4.05273 1.70898-4.05273 4.19922v14.3555h-14.3555c-2.49023 0-4.15039 1.70898-4.15039 4.15039Z"/>
  </g>
  <g transform="matrix(0.2 0 0 0.2 304.924 1933)">
   <path d="m74.8535 28.3203c35.1074 0 63.623-28.4668 63.623-63.5742s-28.5156-63.623-63.623-63.623-63.5742 28.5156-63.5742 63.623 28.4668 63.5742 63.5742 63.5742Zm0-9.08203c-30.127 0-54.4922-24.3652-54.4922-54.4922s24.3652-54.4922 54.4922-54.4922 54.4922 24.3652 54.4922 54.4922-24.3652 54.4922-54.4922 54.4922Zm-28.8574-54.4922c0 2.58789 1.85547 4.39453 4.58984 4.39453h19.7266v19.7754c0 2.68555 1.85547 4.58984 4.44336 4.58984 2.68555 0 4.54102-1.85547 4.54102-4.58984v-19.7754h19.7754c2.68555 0 4.58984-1.80664 4.58984-4.39453 0-2.73438-1.85547-4.58984-4.58984-4.58984h-19.7754v-19.7266c0-2.73438-1.85547-4.63867-4.54102-4.63867-2.58789 0-4.44336 1.9043-4.44336 4.63867v19.7266h-19.7266c-2.73438 0-4.58984 1.85547-4.58984 4.58984Z"/>
  </g>
  <text style="stroke:none;fill:black;font-family:sans-serif;font-size:13;font-weight:bold;" transform="matrix(1 0 0 1 263 1953)">Design Variations</text>
  <text style="stroke:none;fill:black;font-family:sans-serif;font-size:13;" transform="matrix(1 0 0 1 263 1971)">Symbols are supported in up to nine weights and three scales.</text>
  <text style="stroke:none;fill:black;font-family:sans-serif;font-size:13;" transform="matrix(1 0 0 1 263 1989)">For optimal layout with text and other symbols, vertically align</text>
  <text style="stroke:none;fill:black;font-family:sans-serif;font-size:13;" transform="matrix(1 0 0 1 263 2007)">symbols with the adjacent text.</text>
  <line style="fill:none;stroke:#00AEEF;stroke-width:0.5;opacity:1.0;" x1="776" x2="776" y1="1919" y2="1933"/>
  <g transform="matrix(0.2 0 0 0.2 776 1933)">
   <path d="m16.5527 0.78125c2.58789 0 3.85742-0.976562 4.78516-3.71094l6.29883-17.2363h28.8086l6.29883 17.2363c0.927734 2.73438 2.19727 3.71094 4.73633 3.71094 2.58789 0 4.24805-1.5625 4.24805-4.00391 0-0.830078-0.146484-1.61133-0.537109-2.63672l-22.9004-60.9863c-1.12305-2.97852-3.125-4.49219-6.25-4.49219-3.02734 0-5.07812 1.46484-6.15234 4.44336l-22.9004 61.084c-0.390625 1.02539-0.537109 1.80664-0.537109 2.63672 0 2.44141 1.5625 3.95508 4.10156 3.95508Zm13.4766-28.3691 11.8652-32.8613h0.244141l11.8652 32.8613Z"/>
  </g>
  <line style="fill:none;stroke:#00AEEF;stroke-width:0.5;opacity:1.0;" x1="792.836" x2="792.836" y1="1919" y2="1933"/>
  <text style="stroke:none;fill:black;font-family:sans-serif;font-size:13;font-weight:bold;" transform="matrix(1 0 0 1 776 1953)">Margins</text>
  <text style="stroke:none;fill:black;font-family:sans-serif;font-size:13;" transform="matrix(1 0 0 1 776 1971)">Leading and trailing margins on the left and right side of each symbol</text>
  <text style="stroke:none;fill:black;font-family:sans-serif;font-size:13;" transform="matrix(1 0 0 1 776 1989)">can be adjusted by modifying the x-location of the margin guidelines.</text>
  <text style="stroke:none;fill:black;font-family:sans-serif;font-size:13;" transform="matrix(1 0 0 1 776 2007)">Modifications are automatically applied proportionally to all</text>
  <text style="stroke:none;fill:black;font-family:sans-serif;font-size:13;" transform="matrix(1 0 0 1 776 2025)">scales and weights.</text>
  <g transform="matrix(0.2 0 0 0.2 1289 1933)">
   <path d="m14.209 9.32617 8.49609 8.54492c4.29688 4.3457 9.22852 4.05273 13.8672-1.07422l53.4668-58.9355-4.83398-4.88281-53.0762 58.3984c-1.75781 2.00195-3.41797 2.49023-5.76172 0.146484l-5.85938-5.81055c-2.34375-2.29492-1.80664-4.00391 0.195312-5.81055l57.373-54.0039-4.88281-4.83398-57.959 54.4434c-4.93164 4.58984-5.32227 9.47266-1.02539 13.8184Zm32.0801-90.9668c-2.09961 2.05078-2.24609 4.93164-1.07422 6.88477 1.17188 1.80664 3.4668 2.97852 6.68945 2.14844 7.32422-1.70898 14.9414-2.00195 22.0703 2.68555l-2.92969 7.27539c-1.70898 4.15039-0.830078 7.08008 1.85547 9.81445l11.4746 11.5723c2.44141 2.44141 4.49219 2.53906 7.32422 2.05078l5.32227-0.976562 3.32031 3.36914-0.195312 2.7832c-0.195312 2.49023 0.439453 4.39453 2.88086 6.78711l3.80859 3.71094c2.39258 2.39258 5.46875 2.53906 7.8125 0.195312l14.5508-14.5996c2.34375-2.34375 2.24609-5.32227-0.146484-7.71484l-3.85742-3.80859c-2.39258-2.39258-4.24805-3.17383-6.64062-2.97852l-2.88086 0.244141-3.22266-3.17383 1.2207-5.61523c0.634766-2.83203-0.146484-5.0293-3.07617-7.95898l-10.9863-10.9375c-16.6992-16.6016-38.8672-16.2109-53.3203-1.75781Zm7.4707 1.85547c12.1582-8.88672 28.6133-7.37305 39.7461 3.75977l12.1582 12.0605c1.17188 1.17188 1.36719 2.09961 1.02539 3.80859l-1.61133 7.42188 7.51953 7.42188 4.93164-0.292969c1.26953-0.0488281 1.66016 0.0488281 2.63672 1.02539l2.88086 2.88086-12.207 12.207-2.88086-2.88086c-0.976562-0.976562-1.12305-1.36719-1.07422-2.68555l0.341797-4.88281-7.4707-7.42188-7.61719 1.26953c-1.61133 0.341797-2.34375 0.195312-3.56445-0.976562l-10.0098-10.0098c-1.26953-1.17188-1.41602-2.00195-0.634766-3.85742l4.39453-10.4492c-7.8125-7.27539-17.9688-10.4004-28.125-7.42188-0.78125 0.195312-1.07422-0.439453-0.439453-0.976562Z"/>
  </g>
  <text style="stroke:none;fill:black;font-family:sans-serif;font-size:13;font-weight:bold;" transform="matrix(1 0 0 1 1289 1953)">Exporting</text>
  <text style="stroke:none;fill:black;font-family:sans-serif;font-size:13;" transform="matrix(1 0 0 1 1289 1971)">Symbols should be outlined when exporting to ensure the</text>
  <text style="stroke:none;fill:black;font-family:sans-serif;font-size:13;" transform="matrix(1 0 0 1 1289 1989)">design is preserved when submitting to Xcode.</text>
  <text id="template-version" style="stroke:none;fill:black;font-family:sans-serif;font-size:13;text-anchor:end;" transform="matrix(1 0 0 1 3036 1933)">Template v.6.0</text>
  <text style="stroke:none;fill:black;font-family:sans-serif;font-size:13;text-anchor:end;" transform="matrix(1 0 0 1 3036 1951)">Requires Xcode 16 or greater</text>
  <text id="descriptive-name" style="stroke:none;fill:black;font-family:sans-serif;font-size:13;text-anchor:end;" transform="matrix(1 0 0 1 3036 1969)">Generated from progress.ring.dashed</text>
  <text style="stroke:none;fill:black;font-family:sans-serif;font-size:13;text-anchor:end;" transform="matrix(1 0 0 1 3036 1987)">Typeset at 100.0 points</text>
  <text style="stroke:none;fill:black;font-family:sans-serif;font-size:13;" transform="matrix(1 0 0 1 263 726)">Small</text>
  <text style="stroke:none;fill:black;font-family:sans-serif;font-size:13;" transform="matrix(1 0 0 1 263 1156)">Medium</text>
  <text style="stroke:none;fill:black;font-family:sans-serif;font-size:13;" transform="matrix(1 0 0 1 263 1586)">Large</text>
 </g>
 <g id="Guides">
  <g id="H-reference" style="fill:#27AAE1;stroke:none;" transform="matrix(1 0 0 1 339 696)">
   <path d="M0.993654 0L3.63775 0L29.3281-67.1323L30.0303-67.1323L30.0303-70.459L28.1226-70.459ZM11.6885-24.4799L46.9815-24.4799L46.2315-26.7285L12.4385-26.7285ZM55.1196 0L57.7637 0L30.6382-70.459L29.4326-70.459L29.4326-67.1323Z"/>
  </g>
  <line id="Baseline-S" style="fill:none;stroke:#27AAE1;opacity:1;stroke-width:0.5;" x1="263" x2="3036" y1="696" y2="696"/>
  <line id="Capline-S" style="fill:none;stroke:#27AAE1;opacity:1;stroke-width:0.5;" x1="263" x2="3036" y1="625.541" y2="625.541"/>
  <g id="H-reference" style="fill:#27AAE1;stroke:none;" transform="matrix(1 0 0 1 339 1126)">
   <path d="M0.993654 0L3.63775 0L29.3281-67.1323L30.0303-67.1323L30.0303-70.459L28.1226-70.459ZM11.6885-24.4799L46.9815-24.4799L46.2315-26.7285L12.4385-26.7285ZM55.1196 0L57.7637 0L30.6382-70.459L29.4326-70.459L29.4326-67.1323Z"/>
  </g>
  <line id="Baseline-M" style="fill:none;stroke:#27AAE1;opacity:1;stroke-width:0.5;" x1="263" x2="3036" y1="1126" y2="1126"/>
  <line id="Capline-M" style="fill:none;stroke:#27AAE1;opacity:1;stroke-width:0.5;" x1="263" x2="3036" y1="1055.54" y2="1055.54"/>
  <g id="H-reference" style="fill:#27AAE1;stroke:none;" transform="matrix(1 0 0 1 339 1556)">
   <path d="M0.993654 0L3.63775 0L29.3281-67.1323L30.0303-67.1323L30.0303-70.459L28.1226-70.459ZM11.6885-24.4799L46.9815-24.4799L46.2315-26.7285L12.4385-26.7285ZM55.1196 0L57.7637 0L30.6382-70.459L29.4326-70.459L29.4326-67.1323Z"/>
  </g>
  <line id="Baseline-L" style="fill:none;stroke:#27AAE1;opacity:1;stroke-width:0.5;" x1="263" x2="3036" y1="1556" y2="1556"/>
  <line id="Capline-L" style="fill:none;stroke:#27AAE1;opacity:1;stroke-width:0.5;" x1="263" x2="3036" y1="1485.54" y2="1485.54"/>
  <line id="right-margin-Black-S" style="fill:none;stroke:#00AEEF;stroke-width:0.5;opacity:1.0;" x1="2984.21" x2="2984.21" y1="600.785" y2="720.121"/>
  <line id="left-margin-Black-S" style="fill:none;stroke:#00AEEF;stroke-width:0.5;opacity:1.0;" x1="2882.59" x2="2882.59" y1="600.785" y2="720.121"/>
  <line id="right-margin-Regular-S" style="fill:none;stroke:#00AEEF;stroke-width:0.5;opacity:1.0;" x1="1499.82" x2="1499.82" y1="600.785" y2="720.121"/>
  <line id="left-margin-Regular-S" style="fill:none;stroke:#00AEEF;stroke-width:0.5;opacity:1.0;" x1="1399.87" x2="1399.87" y1="600.785" y2="720.121"/>
  <line id="right-margin-Ultralight-S" style="fill:none;stroke:#00AEEF;stroke-width:0.5;opacity:1.0;" x1="607.643" x2="607.643" y1="600.785" y2="720.121"/>
  <line id="left-margin-Ultralight-S" style="fill:none;stroke:#00AEEF;stroke-width:0.5;opacity:1.0;" x1="511.779" x2="511.779" y1="600.785" y2="720.121"/>
 </g>
 <g id="Symbols">
  <g id="Black-S" transform="matrix(1 0 0 1 2882.59 696)">
   <path class="monochrome-0 multicolor-0:tintColor hierarchical-0:primary SFSymbolsPreviewWireframe" d="M40.5762-61.1816C42.5293-61.9141 44.5801-62.4512 46.7285-62.793C47.9492-62.9883 48.8281-63.916 48.8281-65.1855L48.8281-76.9043C48.8281-78.4668 47.6562-79.5898 46.0938-79.4434C41.4062-78.9551 36.9141-77.7344 32.7637-75.8301C31.3477-75.1953 30.9082-73.6328 31.6895-72.3145L37.5488-62.1582C38.1836-61.084 39.4043-60.6934 40.5762-61.1816Z"/>
   <path class="monochrome-1 multicolor-1:tintColor hierarchical-1:primary SFSymbolsPreviewWireframe" d="M29.0039-52.5879C30.3223-54.248 31.7871-55.7129 33.4473-57.0312C34.4727-57.8125 34.7656-59.082 34.1309-60.1562L28.2715-70.3125C27.4902-71.6797 25.8789-72.0703 24.6094-71.1426C20.8984-68.4082 17.627-65.1367 14.8926-61.4258C13.9648-60.1074 14.3555-58.5449 15.7227-57.7637L25.8789-51.9043C26.9531-51.2695 28.2227-51.5625 29.0039-52.5879Z"/>
   <path class="monochrome-2 multicolor-2:tintColor hierarchical-2:primary SFSymbolsPreviewWireframe" d="M23.291-39.3555C23.584-41.4551 24.1211-43.5059 24.9023-45.4102C25.3906-46.6309 25-47.8516 23.877-48.4863L13.7207-54.3457C12.4023-55.127 10.8398-54.6875 10.2051-53.2715C8.30078-49.1211 7.08008-44.6289 6.5918-39.9414C6.44531-38.3789 7.56836-37.207 9.13086-37.207L20.8984-37.207C22.168-37.207 23.0957-38.0859 23.291-39.3555Z"/>
   <path class="monochrome-3 multicolor-3:tintColor hierarchical-3:primary SFSymbolsPreviewWireframe" d="M24.8535-25.0977C24.1211-27.002 23.584-29.0039 23.291-31.1523C23.0957-32.4219 22.168-33.3008 20.8984-33.3008L9.13086-33.3008C7.56836-33.3008 6.44531-32.1289 6.5918-30.5664C7.08008-25.8789 8.30078-21.3867 10.2051-17.2363C10.8398-15.8203 12.4023-15.3809 13.7207-16.1621L23.877-22.0215C25-22.6562 25.3418-23.877 24.8535-25.0977Z"/>
   <path class="monochrome-4 multicolor-4:tintColor hierarchical-4:secondary SFSymbolsPreviewWireframe" d="M33.4473-13.4766C31.8359-14.7949 30.3223-16.2598 29.0039-17.9199C28.2227-18.9453 26.9531-19.2383 25.8789-18.6035L15.7227-12.7441C14.3555-11.9629 13.9648-10.4004 14.8926-9.08203C17.627-5.37109 20.8984-2.05078 24.6094 0.634766C25.8789 1.5625 27.4902 1.12305 28.2715-0.195312L34.1309-10.3516C34.7656-11.4258 34.4727-12.6953 33.4473-13.4766Z"/>
   <path class="monochrome-5 multicolor-5:tintColor hierarchical-5:tertiary SFSymbolsPreviewWireframe" d="M46.7285-7.71484C44.5801-8.05664 42.5293-8.59375 40.5762-9.32617C39.4043-9.81445 38.1836-9.42383 37.5488-8.34961L31.6895 1.80664C30.9082 3.125 31.3477 4.6875 32.7637 5.32227C36.9141 7.22656 41.4062 8.44727 46.0938 8.93555C47.6562 9.08203 48.8281 7.95898 48.8281 6.39648L48.8281-5.32227C48.8281-6.5918 47.9492-7.51953 46.7285-7.71484Z"/>
   <path class="monochrome-6 multicolor-6:tintColor hierarchical-6:primary SFSymbolsPreviewWireframe" d="M61.0352-9.32617C59.082-8.59375 57.0312-8.05664 54.8828-7.71484C53.6133-7.51953 52.7344-6.5918 52.7344-5.32227L52.7344 6.39648C52.7344 7.95898 53.9062 9.08203 55.4688 8.93555C60.1562 8.44727 64.6484 7.22656 68.8477 5.32227C70.2637 4.6875 70.7031 3.07617 69.9219 1.75781L64.0625-8.34961C63.4277-9.42383 62.207-9.81445 61.0352-9.32617Z"/>
   <path class="monochrome-7 multicolor-7:tintColor hierarchical-7:primary SFSymbolsPreviewWireframe" d="M72.6074-17.9199C71.2891-16.2598 69.8242-14.7949 68.1641-13.4766C67.1387-12.6953 66.8457-11.4258 67.4805-10.3516L73.3398-0.195312C74.1211 1.17188 75.7324 1.5625 77.002 0.634766C80.7129-2.09961 83.9844-5.37109 86.7188-9.13086C87.5977-10.4004 87.207-11.9629 85.8887-12.7441L75.7324-18.6035C74.6582-19.2383 73.3887-18.9453 72.6074-17.9199Z"/>
   <path class="monochrome-8 multicolor-8:tintColor hierarchical-8:primary SFSymbolsPreviewWireframe" d="M78.3203-31.1523C78.0273-29.0039 77.4902-27.002 76.709-25.0488C76.2207-23.877 76.6113-22.6562 77.6855-22.0215L87.8418-16.1621C89.1602-15.3809 90.7715-15.8203 91.4062-17.2852C93.2617-21.3867 94.4824-25.8789 94.9707-30.5664C95.1172-32.1289 93.9453-33.3008 92.4316-33.3008L80.7129-33.3008C79.4434-33.3008 78.5156-32.4219 78.3203-31.1523Z"/>
   <path class="monochrome-9 multicolor-9:tintColor hierarchical-9:primary SFSymbolsPreviewWireframe" d="M76.709-45.459C77.4902-43.5059 78.0273-41.5039 78.3203-39.3555C78.5156-38.0859 79.4434-37.207 80.7129-37.207L92.4316-37.207C93.9453-37.207 95.1172-38.3789 94.9707-39.9414C94.5312-44.5801 93.2617-49.0723 91.4062-53.2227C90.7715-54.6875 89.1602-55.127 87.8418-54.3457L77.6855-48.4863C76.6113-47.8516 76.2207-46.6309 76.709-45.459Z"/>
   <path class="monochrome-10 multicolor-10:tintColor hierarchical-10:primary SFSymbolsPreviewWireframe" d="M68.1641-57.0312C69.7754-55.7129 71.2891-54.248 72.6074-52.5879C73.3887-51.5625 74.6582-51.2695 75.7324-51.9043L85.8887-57.7637C87.207-58.5449 87.5977-60.1074 86.7188-61.377C83.9844-65.1367 80.7129-68.457 77.002-71.1426C75.7324-72.0703 74.1211-71.6309 73.3398-70.3125L67.4805-60.1562C66.8457-59.082 67.1387-57.8125 68.1641-57.0312Z"/>
   <path class="monochrome-11 multicolor-11:tintColor hierarchical-11:primary SFSymbolsPreviewWireframe" d="M54.834-62.793C57.0312-62.4512 59.082-61.9141 61.0352-61.1816C62.207-60.6934 63.4277-61.084 64.0625-62.1582L69.9219-72.3145C70.7031-73.6328 70.2637-75.1953 68.8477-75.8301C64.6973-77.7344 60.2051-78.9551 55.4688-79.4434C53.9062-79.5898 52.7344-78.4668 52.7344-76.9043L52.7344-65.1855C52.7344-63.916 53.6133-62.9883 54.834-62.793Z"/>
  </g>
  <g id="Regular-S" transform="matrix(1 0 0 1 1399.87 696)">
   <path class="monochrome-0 multicolor-0:tintColor hierarchical-0:primary SFSymbolsPreviewWireframe" d="M38.623-61.4746C41.1621-62.5977 43.8477-63.3301 46.7285-63.6719C47.5098-63.7207 48.0469-64.3066 48.0469-65.0879L48.0469-76.709C48.0469-77.6367 47.3633-78.3691 46.4355-78.2715C41.1621-77.832 36.1816-76.3672 31.5918-74.2188C30.7617-73.8281 30.5176-72.8516 30.957-72.0703L36.6699-62.1094C37.1094-61.4258 37.8906-61.1816 38.623-61.4746Z"/>
   <path class="monochrome-1 multicolor-1:tintColor hierarchical-1:primary SFSymbolsPreviewWireframe" d="M27.0508-52.2949C28.7109-54.541 30.6641-56.543 32.959-58.2031C33.5938-58.6914 33.7402-59.4727 33.3496-60.1562L27.5879-70.1172C27.1484-70.8984 26.1719-71.1426 25.3906-70.6055C21.1914-67.627 17.5781-64.0137 14.6484-59.8145C14.1113-59.0332 14.3066-58.0566 15.1367-57.5684L25.1465-51.8555C25.8301-51.4648 26.5625-51.6113 27.0508-52.2949Z"/>
   <path class="monochrome-2 multicolor-2:tintColor hierarchical-2:primary SFSymbolsPreviewWireframe" d="M21.582-38.5254C21.9238-41.3574 22.6562-44.0918 23.7305-46.582C24.0723-47.3145 23.8281-48.0957 23.1445-48.4863L13.1348-54.248C12.3047-54.7363 11.377-54.4434 10.9863-53.6133C8.83789-49.0234 7.42188-44.0918 6.98242-38.8184C6.93359-37.8906 7.56836-37.207 8.54492-37.207L20.166-37.207C20.9473-37.207 21.5332-37.7441 21.582-38.5254Z"/>
   <path class="monochrome-3 multicolor-3:tintColor hierarchical-3:primary SFSymbolsPreviewWireframe" d="M23.7305-23.877C22.6562-26.3672 21.9238-29.1016 21.582-31.9824C21.5332-32.7637 20.9473-33.3008 20.166-33.3008L8.49609-33.3008C7.56836-33.3008 6.88477-32.6172 6.98242-31.6895C7.42188-26.3672 8.83789-21.3867 11.0352-16.7969C11.4258-15.9668 12.3047-15.6738 13.1348-16.1621L23.1445-21.9727C23.8281-22.3633 24.0723-23.1445 23.7305-23.877Z"/>
   <path class="monochrome-4 multicolor-4:tintColor hierarchical-4:secondary SFSymbolsPreviewWireframe" d="M32.959-12.2559C30.7129-13.916 28.7109-15.8691 27.0508-18.1641C26.5625-18.7988 25.7812-18.9941 25.0977-18.5547L15.1367-12.8906C14.3066-12.4023 14.1113-11.4258 14.5996-10.6445C17.5781-6.44531 21.1914-2.83203 25.4395 0.146484C26.2207 0.683594 27.1973 0.439453 27.6367-0.341797L33.3496-10.3516C33.7402-11.0352 33.5938-11.7676 32.959-12.2559Z"/>
   <path class="monochrome-5 multicolor-5:tintColor hierarchical-5:tertiary SFSymbolsPreviewWireframe" d="M46.7285-6.78711C43.8965-7.12891 41.1621-7.86133 38.6719-8.93555C37.9395-9.27734 37.1582-9.0332 36.7188-8.34961L31.0059 1.61133C30.5664 2.39258 30.8105 3.36914 31.6406 3.75977C36.1816 5.9082 41.1621 7.37305 46.4355 7.8125C47.3633 7.86133 48.0469 7.17773 48.0469 6.25L48.0469-5.37109C48.0469-6.15234 47.5098-6.73828 46.7285-6.78711Z"/>
   <path class="monochrome-6 multicolor-6:tintColor hierarchical-6:primary SFSymbolsPreviewWireframe" d="M61.377-8.93555C58.8867-7.86133 56.1523-7.12891 53.2715-6.78711C52.4414-6.73828 51.9043-6.15234 51.9043-5.37109L51.9043 6.25C51.9043 7.22656 52.5879 7.91016 53.5645 7.8125C58.7891 7.37305 63.8672 5.9082 68.4082 3.75977C69.2383 3.36914 69.4824 2.39258 69.043 1.61133L63.2812-8.34961C62.8906-9.0332 62.1094-9.27734 61.377-8.93555Z"/>
   <path class="monochrome-7 multicolor-7:tintColor hierarchical-7:primary SFSymbolsPreviewWireframe" d="M72.998-18.1641C71.3379-15.918 69.2871-13.9648 67.041-12.2559C66.4062-11.7676 66.2109-10.9863 66.6016-10.3516L72.3633-0.390625C72.8027 0.390625 73.7793 0.683594 74.5605 0.146484C78.8086-2.83203 82.4219-6.49414 85.3516-10.6445C85.8887-11.4258 85.6445-12.4023 84.8633-12.8906L74.9023-18.6035C74.2676-19.043 73.4863-18.7988 72.998-18.1641Z"/>
   <path class="monochrome-8 multicolor-8:tintColor hierarchical-8:primary SFSymbolsPreviewWireframe" d="M78.418-31.9824C78.0762-29.1016 77.3438-26.3672 76.2207-23.877C75.9277-23.1445 76.1719-22.4121 76.8555-22.0215L86.8164-16.2598C87.6465-15.7715 88.623-16.0156 89.0137-16.8945C91.1621-21.4844 92.5293-26.416 92.9688-31.6895C93.0176-32.6172 92.3828-33.3008 91.4551-33.3008L79.8828-33.3008C79.1016-33.3008 78.4668-32.7637 78.418-31.9824Z"/>
   <path class="monochrome-9 multicolor-9:tintColor hierarchical-9:primary SFSymbolsPreviewWireframe" d="M76.2207-46.6309C77.2949-44.0918 78.0762-41.3574 78.418-38.5254C78.4668-37.7441 79.1016-37.207 79.8828-37.207L91.4551-37.207C92.3828-37.207 93.0176-37.8906 92.9688-38.8184C92.5293-44.043 91.1621-49.0723 89.0137-53.6133C88.623-54.4434 87.5977-54.7363 86.8164-54.248L76.8066-48.4375C76.1719-48.0469 75.9277-47.3145 76.2207-46.6309Z"/>
   <path class="monochrome-10 multicolor-10:tintColor hierarchical-10:primary SFSymbolsPreviewWireframe" d="M67.041-58.2031C69.2871-56.543 71.2891-54.5898 72.998-52.2949C73.4863-51.6602 74.2676-51.416 74.9023-51.8555L84.8633-57.5684C85.6934-58.0566 85.8887-59.0332 85.4004-59.8145C82.4219-64.0137 78.7598-67.6758 74.5605-70.6055C73.7793-71.1426 72.8027-70.8984 72.3633-70.1172L66.6016-60.1562C66.2109-59.4727 66.3574-58.6914 67.041-58.2031Z"/>
   <path class="monochrome-11 multicolor-11:tintColor hierarchical-11:primary SFSymbolsPreviewWireframe" d="M53.2715-63.6719C56.1523-63.3789 58.8379-62.5977 61.377-61.4746C62.1094-61.1816 62.8906-61.4258 63.2812-62.1094L69.043-72.0703C69.4824-72.8516 69.1895-73.8281 68.3594-74.2188C63.7695-76.3672 58.8379-77.832 53.5645-78.2715C52.6367-78.3203 51.9043-77.6367 51.9043-76.709L51.9043-65.0879C51.9043-64.3066 52.4414-63.7207 53.2715-63.6719Z"/>
  </g>
  <g id="Ultralight-S" transform="matrix(1 0 0 1 511.779 696)">
   <path class="monochrome-0 multicolor-0:tintColor hierarchical-0:primary SFSymbolsPreviewWireframe" d="M36.5342-61.1113C39.1187-62.2344 41.895-63.0122 44.7759-63.354C45.6934-63.4482 46.3213-64.1704 46.3213-65.0425L46.3213-74.4839C46.3213-75.5479 45.5469-76.3257 44.4829-76.228C39.4365-75.834 34.6831-74.5054 30.3657-72.4024C29.3994-71.9663 29.1099-70.8989 29.6401-69.9815L34.354-61.7915C34.7935-61.0171 35.6655-60.773 36.5342-61.1113Z"/>
   <path class="monochrome-1 multicolor-1:tintColor hierarchical-1:primary SFSymbolsPreviewWireframe" d="M25.0982-51.9771C26.8037-54.2686 28.8477-56.3159 31.1426-58.0669C31.9136-58.6006 32.1055-59.5181 31.6694-60.2925L26.9522-68.437C26.4219-69.3545 25.3545-69.5986 24.4824-69.0161C20.4194-66.2192 16.9424-62.6514 14.1489-58.6338C13.5664-57.7617 13.8071-56.6943 14.728-56.1607L22.876-51.4468C23.6504-50.9653 24.5645-51.2026 25.0982-51.9771Z"/>
   <path class="monochrome-2 multicolor-2:tintColor hierarchical-2:primary SFSymbolsPreviewWireframe" d="M19.7656-38.3438C20.062-41.2666 20.8399-44.001 22.0049-46.582C22.3467-47.4053 22.1026-48.2773 21.2827-48.7588L13.1348-53.4761C12.2139-54.0098 11.1499-53.6714 10.7139-52.7051C8.70166-48.3877 7.37647-43.6831 6.93701-38.6821C6.88818-37.6182 7.65918-36.7983 8.72656-36.7983L18.1226-36.7983C19.0401-36.7983 19.6714-37.4263 19.7656-38.3438Z"/>
   <path class="monochrome-3 multicolor-3:tintColor hierarchical-3:primary SFSymbolsPreviewWireframe" d="M22.0049-23.8315C20.8853-26.4126 20.1528-29.1924 19.811-32.1187C19.7168-33.0361 18.9946-33.6641 18.1226-33.6641L8.67773-33.6641C7.61377-33.6641 6.83936-32.8896 6.93701-31.8257C7.33106-26.7759 8.65625-22.0225 10.7173-17.6597C11.1533-16.6934 12.2593-16.355 13.1802-16.8887L21.3281-21.6548C22.148-22.1362 22.3921-23.0083 22.0049-23.8315Z"/>
   <path class="monochrome-4 multicolor-4:tintColor hierarchical-4:secondary SFSymbolsPreviewWireframe" d="M31.188-12.3921C28.8965-14.0977 26.8491-16.1416 25.1436-18.4365C24.6099-19.1621 23.7378-19.4028 22.918-18.918L14.7734-14.2529C13.8525-13.7192 13.5664-12.6518 14.1455-11.7798C16.9424-7.7622 20.4648-4.28514 24.4858-1.44286C25.3579-0.81493 26.4253-1.05907 26.9556-2.02196L31.6694-10.1699C32.1055-10.9443 31.9136-11.8584 31.188-12.3921Z"/>
   <path class="monochrome-5 multicolor-5:tintColor hierarchical-5:tertiary SFSymbolsPreviewWireframe" d="M44.7759-7.10498C41.8985-7.40137 39.1641-8.1792 36.583-9.29883C35.7598-9.68603 34.8423-9.39648 34.4029-8.62207L29.689-0.432113C29.1587 0.485367 29.4483 1.55275 30.4146 1.98878C34.6831 4.0464 39.4365 5.37502 44.4375 5.81447C45.5015 5.8633 46.3213 5.08888 46.3213 4.02492L46.3213-5.4165C46.3213-6.28857 45.6934-7.01074 44.7759-7.10498Z"/>
   <path class="monochrome-6 multicolor-6:tintColor hierarchical-6:primary SFSymbolsPreviewWireframe" d="M59.2881-9.34424C56.7525-8.22461 53.9727-7.44677 51.0464-7.10498C50.1255-7.01074 49.4976-6.28857 49.4976-5.4165L49.4976 4.07033C49.4976 5.13771 50.272 5.91213 51.3394 5.81447C56.3823 5.42043 61.1426 4.09181 65.502 1.98878C66.4683 1.55275 66.7578 0.485367 66.2276-0.432113L61.4649-8.62207C61.0288-9.39648 60.1113-9.68603 59.2881-9.34424Z"/>
   <path class="monochrome-7 multicolor-7:tintColor hierarchical-7:primary SFSymbolsPreviewWireframe" d="M70.7276-18.4819C69.022-16.1904 66.9712-14.1465 64.6343-12.3921C63.9087-11.8584 63.7134-10.9409 64.1494-10.1699L68.9121-2.02538C69.4424-1.06249 70.5098-0.81493 71.3819-1.44286C75.4483-4.23974 78.9253-7.76561 81.7188-11.7798C82.3013-12.6518 82.0572-13.7192 81.1397-14.2529L72.9497-18.9668C72.1333-19.4517 71.2612-19.2075 70.7276-18.4819Z"/>
   <path class="monochrome-8 multicolor-8:tintColor hierarchical-8:primary SFSymbolsPreviewWireframe" d="M76.0567-32.1187C75.7603-29.1924 74.9824-26.4126 73.814-23.8315C73.4756-23.0083 73.7197-22.1397 74.5396-21.6582L82.6841-16.9409C83.605-16.4072 84.6724-16.6968 85.1084-17.6665C87.166-21.9839 88.4878-26.7339 88.9273-31.7803C88.9761-32.8442 88.2051-33.6641 87.1411-33.6641L77.7031-33.6641C76.7857-33.6641 76.1509-33.0361 76.0567-32.1187Z"/>
   <path class="monochrome-9 multicolor-9:tintColor hierarchical-9:primary SFSymbolsPreviewWireframe" d="M73.814-46.5854C74.9336-44.001 75.7149-41.2212 76.0112-38.3438C76.1509-37.4263 76.7857-36.7983 77.7031-36.7983L87.1866-36.7983C88.2505-36.7983 89.0215-37.5728 88.9273-38.6367C88.5332-43.6797 87.2115-48.4365 85.1084-52.7959C84.6724-53.7622 83.6016-54.0552 82.6841-53.5215L74.4907-48.7554C73.6743-48.2739 73.4756-47.4507 73.814-46.5854Z"/>
   <path class="monochrome-10 multicolor-10:tintColor hierarchical-10:primary SFSymbolsPreviewWireframe" d="M64.6797-58.0215C66.9712-56.3159 69.0186-54.272 70.7276-51.9771C71.2612-51.2515 72.1333-51.0073 72.9497-51.4922L81.0943-56.1607C82.0152-56.6943 82.3013-57.7617 81.7222-58.6338C78.9707-62.6514 75.4449-66.1318 71.4273-68.9707C70.5552-69.5986 69.4424-69.3545 68.9121-68.3916L64.1948-60.2471C63.7588-59.4727 63.9507-58.5552 64.6797-58.0215Z"/>
   <path class="monochrome-11 multicolor-11:tintColor hierarchical-11:primary SFSymbolsPreviewWireframe" d="M51.0464-63.354C53.9727-63.061 56.7036-62.2798 59.2881-61.1113C60.1113-60.773 61.0288-61.0625 61.4649-61.8369L66.2276-69.9815C66.7578-70.8989 66.4195-71.9663 65.4531-72.4024C61.1358-74.46 56.3858-75.7886 51.3848-76.228C50.3208-76.2769 49.4976-75.5025 49.4976-74.4385L49.4976-65.0425C49.4976-64.1704 50.1255-63.4482 51.0464-63.354Z"/>
  </g>
 </g>
</svg>
