<svg xmlns="http://www.w3.org/2000/svg" viewBox="208.97 124.05 641.46 743.24"><defs><style>.cls-1{fill:#e3d8ca;}.cls-2{fill:#e7dfd9;}.cls-3{fill:#262626;}.cls-4{fill:#535152;}.cls-5{fill:#a2a1a0;}.cls-6{fill:#c4bbb3;}.cls-7{fill:#d6d0bd;}.cls-10,.cls-11,.cls-17,.cls-18,.cls-19,.cls-8,.cls-9{fill:none;stroke-miterlimit:10;}.cls-10,.cls-11,.cls-8,.cls-9{stroke:#d6d0bd;}.cls-8{stroke-width:0.7px;}.cls-9{stroke-width:1.4px;}.cls-10{stroke-width:0.99px;}.cls-11{stroke-width:1.37px;}.cls-12{fill:#e5e5e3;}.cls-13{fill:#363636;}.cls-14{fill:#363634;}.cls-15{fill:#f4f4f4;opacity:0.4;}.cls-16{fill:#191918;}.cls-17,.cls-18,.cls-19{stroke:#1d1d1b;}.cls-17{stroke-width:2.04px;}.cls-18{stroke-width:1.05px;}.cls-19{stroke-width:0.87px;}.cls-20{font-size:7.62px;}.cls-20,.cls-21{fill:#1d1d1b;font-family:ArialMT, Arial;}.cls-21{font-size:9.53px;}</style></defs><g id="Layer_3" data-name="Layer 3"><path class="cls-1" d="M279.92,288.65s-6.65-8.2-15.31,14.38-17.46,86-17.46,86l-9.32,64.44s-3.7,8.12,8.82,11.1,45.94-37.18,45.94-37.18,20.74-58.43,20.74-59.5-29.81-35.19-30.67-37S280.73,318,280.73,318"/><path class="cls-2" d="M326.13,434.92l-.08,51s-2.11,2.59-31.72-5.49-47.68-15.85-47.68-15.85l5.71-39.06s2.64-25.82,8.38-42.23c-1.17,9.4-2.23,17.73-3,23.88-1.9,15.78,53.16,12.31,59.4,16.36S326.13,434.92,326.13,434.92Z"/><path class="cls-3" d="M734.91,202.8V866.27H394.38A68.25,68.25,0,0,1,326.13,798V271a68.25,68.25,0,0,1,68.25-68.24Z"/><rect class="cls-4" x="754.88" y="434.42" width="55.82" height="329.27"/><rect class="cls-5" x="774.51" y="434.42" width="60.39" height="329.27" rx="14.3"/><path class="cls-6" d="M754.88,402.4h25.19a10.23,10.23,0,0,0,10.22-10.23V323.54a10.23,10.23,0,0,0-10.22-10.22H754.88"/><path class="cls-6" d="M754.88,281.84H768.3a9.25,9.25,0,0,0,9.25-9.25v-63.3H766.21v17a4.31,4.31,0,0,1-3.58,1.72h-7.75Z"/><polygon class="cls-7" points="695.11 311.75 695.11 757.32 687.83 764.59 661.25 791.19 396.95 791.19 363.1 757.34 363.1 311.75 396.95 277.88 661.25 277.88 695.11 311.75"/><path class="cls-3" d="M695.1,742.62v14.7l-7.27,7.28-26.58,26.59H397L365.4,759.64,403,593.23l254.79-4.14s26.82,100.72,30,119.19C690.25,722.33,692.17,732.29,695.1,742.62Z"/><polygon class="cls-3" points="378.36 320.02 686.52 320.02 686.52 610.03 672.1 610.03 664.17 618.39 405.67 618.38 397.74 610.46 376.2 610.46 376.2 320.02 378.36 320.02"/><path class="cls-3" d="M409.3,290.44h19.47a.68.68,0,0,1,.67.7v4.48a.69.69,0,0,1-.67.71h-5.64a.68.68,0,0,0-.67.7v16.55a.68.68,0,0,1-.67.7h-5.5a.68.68,0,0,1-.67-.7V297a.68.68,0,0,0-.67-.7H409.3a.69.69,0,0,1-.67-.71v-4.48A.68.68,0,0,1,409.3,290.44Z"/><path class="cls-3" d="M432.24,290.44h5.14a.71.71,0,0,1,.72.7v6.47a.71.71,0,0,0,1.15.55,7.38,7.38,0,0,1,1.52-.94,7.53,7.53,0,0,1,3.13-.6,5.54,5.54,0,0,1,4.23,1.64,7.16,7.16,0,0,1,1.55,5v10.28a.71.71,0,0,1-.72.7h-5.18a.71.71,0,0,1-.72-.7v-8.8a3.53,3.53,0,0,0-.59-2.3,2.14,2.14,0,0,0-1.69-.67,2.39,2.39,0,0,0-1.94.91,5.38,5.38,0,0,0-.74,3.27v7.59a.71.71,0,0,1-.72.7h-5.14a.71.71,0,0,1-.72-.7V291.14A.71.71,0,0,1,432.24,290.44Z"/><path class="cls-3" d="M454.15,297H459a.68.68,0,0,1,.67.7v15.87a.68.68,0,0,1-.67.7h-4.81a.68.68,0,0,1-.67-.7V297.71A.68.68,0,0,1,454.15,297Z"/><path class="cls-3" d="M464.59,297H469a.68.68,0,0,1,.67.7V298a.66.66,0,0,0,1.13.5,6.92,6.92,0,0,1,1.46-1.14,6.51,6.51,0,0,1,3.21-.74,5.07,5.07,0,0,1,4,1.63,7.5,7.5,0,0,1,1.44,5.05v10.28a.68.68,0,0,1-.67.7h-4.84a.68.68,0,0,1-.67-.7v-8.8a3.67,3.67,0,0,0-.56-2.3,1.92,1.92,0,0,0-1.57-.67,2.18,2.18,0,0,0-1.82.91,5.67,5.67,0,0,0-.69,3.27v7.59a.68.68,0,0,1-.67.7h-4.81a.68.68,0,0,1-.67-.7V297.71A.68.68,0,0,1,464.59,297Z"/><path class="cls-3" d="M487.49,290.44h4.95a.68.68,0,0,1,.67.7v9.67a.67.67,0,0,0,1.18.46l3.21-4A.67.67,0,0,1,498,297h5.64a.71.71,0,0,1,.47,1.2l-4.25,4.47a.74.74,0,0,0-.11.85l5.27,9.7a.71.71,0,0,1-.59,1h-5.36a.68.68,0,0,1-.6-.39l-2.65-5.65a.65.65,0,0,0-1.07-.19l-1.46,1.54a.7.7,0,0,0-.2.5v3.49a.68.68,0,0,1-.67.7h-4.95a.68.68,0,0,1-.67-.7V291.14A.68.68,0,0,1,487.49,290.44Z"/><path class="cls-3" d="M508,290.44h5.36a.66.66,0,0,1,.56.31l6.92,10.94a.66.66,0,0,0,1.22-.39V291.14a.68.68,0,0,1,.67-.7h5.12a.68.68,0,0,1,.67.7v22.44a.68.68,0,0,1-.67.7h-5.43a.69.69,0,0,1-.56-.31L515,303.13a.66.66,0,0,0-1.22.39v10.06a.68.68,0,0,1-.67.7H508a.68.68,0,0,1-.67-.7V291.14A.68.68,0,0,1,508,290.44Z"/><path class="cls-3" d="M531.5,305.69a9,9,0,0,1,2.48-6.51,8.86,8.86,0,0,1,6.69-2.56q4.83,0,7.29,3a9.94,9.94,0,0,1-.48,12.5,10.34,10.34,0,0,1-13.05.43A8.8,8.8,0,0,1,531.5,305.69Zm6.17,0a5.46,5.46,0,0,0,.87,3.41,2.71,2.71,0,0,0,4.36,0,5.69,5.69,0,0,0,.86-3.5,5.4,5.4,0,0,0-.86-3.34,2.64,2.64,0,0,0-2.14-1.1,2.71,2.71,0,0,0-2.22,1.12A5.46,5.46,0,0,0,537.67,305.68Z"/><path class="cls-3" d="M570.16,291.14v22.44a.68.68,0,0,1-.67.7h-4.42a.68.68,0,0,1-.67-.7h0a.67.67,0,0,0-1.14-.5,5.74,5.74,0,0,1-1.07.85,6,6,0,0,1-3,.74,5.61,5.61,0,0,1-5-2.68,11.8,11.8,0,0,1-1.73-6.52q0-4.31,1.91-6.57a6.08,6.08,0,0,1,4.86-2.28,6.3,6.3,0,0,1,2.61.52,5.2,5.2,0,0,1,1,.59.67.67,0,0,0,1.06-.57v-6a.68.68,0,0,1,.67-.7h4.87A.68.68,0,0,1,570.16,291.14ZM564,305.6a4.78,4.78,0,0,0-.8-3,2.5,2.5,0,0,0-2-1,2.17,2.17,0,0,0-1.8,1,5.42,5.42,0,0,0-.73,3.22,5.12,5.12,0,0,0,.75,3.1,2.25,2.25,0,0,0,1.85,1,2.41,2.41,0,0,0,2-1A5.27,5.27,0,0,0,564,305.6Z"/><path class="cls-3" d="M592.36,307.29H580.82a.7.7,0,0,0-.66.86,3.71,3.71,0,0,0,.67,1.51,2.82,2.82,0,0,0,2.32,1.13,3.38,3.38,0,0,0,1.73-.49,3.6,3.6,0,0,0,.84-.8.68.68,0,0,1,.58-.26l4.63.46a.72.72,0,0,1,.49,1.12,8.39,8.39,0,0,1-2.76,2.72,11.39,11.39,0,0,1-5.64,1.13,10.9,10.9,0,0,1-5-1,7.62,7.62,0,0,1-3-3.08,9.81,9.81,0,0,1-1.2-4.95,9.06,9.06,0,0,1,2.41-6.56,8.81,8.81,0,0,1,6.66-2.5,11.13,11.13,0,0,1,5.44,1.12,7.36,7.36,0,0,1,3,3.25,12.75,12.75,0,0,1,1,5.55Zm-7-3.17a.7.7,0,0,0,.66-.86,3.69,3.69,0,0,0-.84-1.89,2.69,2.69,0,0,0-2-.83,2.75,2.75,0,0,0-2.34,1.25,3.87,3.87,0,0,0-.58,1.46.71.71,0,0,0,.66.87Z"/><path class="cls-3" d="M596.4,303h11.82c.57,0,1,.31,1,.7v3.71c0,.39-.47.71-1,.71H596.4c-.57,0-1-.32-1-.71v-3.71C595.36,303.34,595.83,303,596.4,303Z"/><path class="cls-3" d="M616.59,293h7.46a1.09,1.09,0,0,1,1.05.81l3.36,12.87a.05.05,0,0,0,.1,0l3.33-12.86a1.1,1.1,0,0,1,1.05-.82h7.46a1.08,1.08,0,0,1,1.08,1.09v21.06a.67.67,0,0,1-.68.68h-4.48a.67.67,0,0,1-.68-.68V298.82a.06.06,0,0,0-.11,0l-4.26,16.47a.68.68,0,0,1-.66.51h-4.24a.68.68,0,0,1-.66-.51l-4.25-16.47a.06.06,0,0,0-.11,0v16.29a.68.68,0,0,1-.68.68h-4.49a.68.68,0,0,1-.68-.68V294.05A1.09,1.09,0,0,1,616.59,293Z"/><path class="cls-3" d="M655,311.52h-9.58a1,1,0,0,1-1-1V306.7a1.08,1.08,0,0,1,.25-.69L655.7,293a1.07,1.07,0,0,1,.83-.38h4a1.08,1.08,0,0,1,1.08,1.08v11.89a1.05,1.05,0,0,0,1.06,1.05h.78a1.06,1.06,0,0,1,1.06,1.06v2.81a1.05,1.05,0,0,1-1.06,1h-.78a1.06,1.06,0,0,0-1.06,1.06v2.16a1.05,1.05,0,0,1-1.06,1.05h-3.48a1,1,0,0,1-1.05-1.05v-2.16A1.07,1.07,0,0,0,655,311.52Zm1.06-5v-7a.06.06,0,0,0-.1,0l-6,7a.06.06,0,0,0,0,.09h6A.06.06,0,0,0,656,306.55Z"/><circle class="cls-3" cx="456.55" cy="291.72" r="3.08"/><path class="cls-7" d="M391.11,352.08V334.49H397a22.44,22.44,0,0,1,4.35.26,4.75,4.75,0,0,1,2.61,1.72A5.32,5.32,0,0,1,405,339.9a5.61,5.61,0,0,1-.61,2.72,4.84,4.84,0,0,1-1.54,1.74,5.28,5.28,0,0,1-1.9.83,21.36,21.36,0,0,1-3.8.25h-2.39v6.64Zm3.66-14.62v5h2a9.79,9.79,0,0,0,2.89-.28,2.29,2.29,0,0,0,1.56-2.23,2.24,2.24,0,0,0-.58-1.59,2.64,2.64,0,0,0-1.47-.78,18.25,18.25,0,0,0-2.64-.12Z"/><path class="cls-7" d="M408,334.49h6.69a13.7,13.7,0,0,1,3.46.33,6.22,6.22,0,0,1,2.73,1.62,7.61,7.61,0,0,1,1.73,2.85,12.53,12.53,0,0,1,.6,4.16,11.3,11.3,0,0,1-.56,3.75,7.75,7.75,0,0,1-1.94,3.11,6.56,6.56,0,0,1-2.57,1.4,11.38,11.38,0,0,1-3.25.37H408Zm3.66,3v11.66h2.74a10.32,10.32,0,0,0,2.21-.17,3.49,3.49,0,0,0,1.48-.73,3.77,3.77,0,0,0,1-1.7,11.06,11.06,0,0,0,.37-3.22,10.2,10.2,0,0,0-.37-3.14,4,4,0,0,0-1-1.7,3.54,3.54,0,0,0-1.69-.83,17.39,17.39,0,0,0-3-.17Z"/><path class="cls-7" d="M437.29,349v3.13H425.1a8,8,0,0,1,1.19-3.37,22.47,22.47,0,0,1,3.91-4.21,24.09,24.09,0,0,0,2.88-2.88,3.65,3.65,0,0,0,.72-2.07,2.28,2.28,0,0,0-.63-1.73,2.69,2.69,0,0,0-3.45,0A3.22,3.22,0,0,0,429,340l-3.46-.34a5.46,5.46,0,0,1,1.94-4,6.65,6.65,0,0,1,4.08-1.21,6,6,0,0,1,4.22,1.4,4.53,4.53,0,0,1,1.54,3.49,6,6,0,0,1-.44,2.26,9.06,9.06,0,0,1-1.39,2.25,22,22,0,0,1-2.28,2.25c-1.1,1-1.79,1.62-2.08,1.94a6.21,6.21,0,0,0-.72.94Z"/><path class="cls-7" d="M445.52,334.42a5,5,0,0,1,4.12,1.82q1.77,2.16,1.77,7.16c0,3.33-.6,5.73-1.78,7.18a5,5,0,0,1-4.11,1.8,5.26,5.26,0,0,1-4.27-2q-1.62-2-1.62-7c0-3.31.59-5.7,1.78-7.15A5,5,0,0,1,445.52,334.42Zm0,2.79a1.78,1.78,0,0,0-1.13.39,2.67,2.67,0,0,0-.77,1.4,19.34,19.34,0,0,0-.35,4.4,18.3,18.3,0,0,0,.32,4.26,2.88,2.88,0,0,0,.81,1.54,1.74,1.74,0,0,0,1.12.39,1.76,1.76,0,0,0,1.12-.39,2.6,2.6,0,0,0,.77-1.4,18.57,18.57,0,0,0,.36-4.4,18.85,18.85,0,0,0-.32-4.25,3.11,3.11,0,0,0-.81-1.55A1.76,1.76,0,0,0,445.52,337.21Z"/><path class="cls-7" d="M457.07,352.08l-4.33-17.59h3.75l2.74,12.08,3.31-12.08h4.36l3.18,12.29,2.78-12.29h3.69l-4.4,17.59h-3.89l-3.61-13.15-3.6,13.15Z"/><path class="cls-7" d="M485.48,352.08V334.49h12.44v3h-8.77v4.17h7.57v3h-7.57v7.48Z"/><path class="cls-7" d="M515.9,352.08h-4l-1.58-4h-7.25l-1.5,4H497.7l7.06-17.59h3.87Zm-6.75-7-2.5-6.53-2.45,6.53Z"/><path class="cls-7" d="M516.91,346.36l3.57-.34a4.2,4.2,0,0,0,1.3,2.56,4.06,4.06,0,0,0,2.66.81,4.18,4.18,0,0,0,2.66-.72,2.15,2.15,0,0,0,.9-1.7,1.57,1.57,0,0,0-.38-1.06,3,3,0,0,0-1.32-.77c-.42-.14-1.4-.4-2.93-.76a10.32,10.32,0,0,1-4.13-1.74,4.54,4.54,0,0,1-1.67-3.54,4.46,4.46,0,0,1,.78-2.52,4.93,4.93,0,0,1,2.27-1.78,9.32,9.32,0,0,1,3.57-.61,7.8,7.8,0,0,1,5.14,1.45,5,5,0,0,1,1.81,3.88l-3.66.15a3,3,0,0,0-1-1.95,3.81,3.81,0,0,0-2.32-.59,4.32,4.32,0,0,0-2.5.63,1.28,1.28,0,0,0-.58,1.1,1.31,1.31,0,0,0,.55,1.06A9.7,9.7,0,0,0,525,341.1a17.92,17.92,0,0,1,3.95,1.27,5,5,0,0,1,2,1.78,5.43,5.43,0,0,1-.14,5.64,5.21,5.21,0,0,1-2.45,2,10.57,10.57,0,0,1-4,.64,8,8,0,0,1-5.28-1.54A6.63,6.63,0,0,1,516.91,346.36Z"/><path class="cls-7" d="M538.83,352.08V337.46h-5.39v-3h14.42v3h-5.37v14.62Z"/><path class="cls-7" d="M561.83,345.61l3.55,1.09a7.71,7.71,0,0,1-2.72,4.28,7.85,7.85,0,0,1-4.82,1.4A7.94,7.94,0,0,1,551.9,350a9,9,0,0,1-2.32-6.55,9.42,9.42,0,0,1,2.34-6.82,8.15,8.15,0,0,1,6.15-2.43,7.62,7.62,0,0,1,5.4,1.91,6.81,6.81,0,0,1,1.86,3.24l-3.63.84a3.64,3.64,0,0,0-1.34-2.16,3.92,3.92,0,0,0-2.48-.8,4.18,4.18,0,0,0-3.27,1.41c-.84.93-1.26,2.45-1.26,4.55s.41,3.8,1.24,4.75a4.09,4.09,0,0,0,3.22,1.42,3.74,3.74,0,0,0,2.51-.91A5.17,5.17,0,0,0,561.83,345.61Z"/><path class="cls-7" d="M568.53,352.08V334.49h3.67v6.92h7.17v-6.92H583v17.59h-3.67v-7.69H572.2v7.69Z"/><path class="cls-7" d="M603.18,352.08h-4l-1.59-4h-7.25l-1.5,4H585L592,334.49h3.88Zm-6.74-7-2.5-6.53-2.45,6.53Z"/><path class="cls-7" d="M605.14,352.08V334.49h7.71a13.49,13.49,0,0,1,4.22.47,4.16,4.16,0,0,1,2.11,1.69,4.93,4.93,0,0,1,.79,2.77,4.61,4.61,0,0,1-1.2,3.27,5.86,5.86,0,0,1-3.59,1.63,8.43,8.43,0,0,1,2,1.47,20.45,20.45,0,0,1,2.08,2.86l2.22,3.43h-4.39l-2.64-3.83a24.55,24.55,0,0,0-1.93-2.58,3,3,0,0,0-1.1-.74,6.41,6.41,0,0,0-1.85-.19h-.74v7.34Zm3.66-10.15h2.71a14,14,0,0,0,3.29-.22,2,2,0,0,0,1-.74,2.28,2.28,0,0,0,.37-1.32,2.08,2.08,0,0,0-.49-1.44,2.33,2.33,0,0,0-1.38-.69q-.45-.06-2.67-.06H608.8Z"/><path class="cls-7" d="M631.86,345.61v-3h7.9v7a10.06,10.06,0,0,1-3.34,1.9,12.39,12.39,0,0,1-4.42.82,10.07,10.07,0,0,1-5-1.16,7.43,7.43,0,0,1-3.18-3.31,10.45,10.45,0,0,1-1.07-4.69,9.88,9.88,0,0,1,1.19-4.88,7.9,7.9,0,0,1,3.48-3.28,9.67,9.67,0,0,1,4.34-.87,8.86,8.86,0,0,1,5.28,1.37,6.2,6.2,0,0,1,2.44,3.8l-3.64.66a3.7,3.7,0,0,0-1.44-2,4.43,4.43,0,0,0-2.64-.75A5.08,5.08,0,0,0,628,338.7a6.1,6.1,0,0,0-1.41,4.38,6.74,6.74,0,0,0,1.43,4.7,4.88,4.88,0,0,0,3.76,1.57,6.52,6.52,0,0,0,2.31-.44,8.3,8.3,0,0,0,2-1.06v-2.24Z"/><path class="cls-7" d="M643,352.08V334.49h3.67v17.59Z"/><path class="cls-7" d="M650.21,352.08V334.49h3.56l7.43,11.75V334.49h3.4v17.59h-3.67l-7.32-11.47v11.47Z"/><path class="cls-7" d="M676.91,345.61v-3h7.9v7a10.06,10.06,0,0,1-3.34,1.9,12.39,12.39,0,0,1-4.42.82,10.07,10.07,0,0,1-5-1.16,7.43,7.43,0,0,1-3.18-3.31,10.45,10.45,0,0,1-1.07-4.69,9.88,9.88,0,0,1,1.19-4.88,8,8,0,0,1,3.48-3.28,9.67,9.67,0,0,1,4.34-.87,8.84,8.84,0,0,1,5.28,1.37,6.16,6.16,0,0,1,2.44,3.8l-3.63.66a3.8,3.8,0,0,0-1.44-2,4.48,4.48,0,0,0-2.65-.75A5,5,0,0,0,673,338.7a6.06,6.06,0,0,0-1.42,4.38,6.79,6.79,0,0,0,1.43,4.7,4.89,4.89,0,0,0,3.77,1.57,6.51,6.51,0,0,0,2.3-.44,8.12,8.12,0,0,0,2-1.06v-2.24Z"/><polygon class="cls-7" points="393.54 359.99 488.81 359.99 493.66 364.84 493.66 376.19 488.81 381.04 393.54 381.04 388.69 376.19 388.69 364.84 393.54 359.99"/><polygon class="cls-7" points="603.1 359.99 680.2 359.99 685.05 364.84 685.05 376.19 680.2 381.04 603.1 381.04 598.25 376.19 598.25 364.84 603.1 359.99"/><path class="cls-3" d="M402.33,375.8V364.88h3.32l2,7.45,2-7.45h3.32V375.8h-2.06v-8.59l-2.18,8.59h-2.13l-2.17-8.59v8.59Z"/><path class="cls-3" d="M419.71,373.28l2.1.36a3.44,3.44,0,0,1-1.28,1.74,3.74,3.74,0,0,1-2.18.6,3.57,3.57,0,0,1-3.07-1.35,4.53,4.53,0,0,1-.78-2.72,4.33,4.33,0,0,1,1-3.08,3.39,3.39,0,0,1,2.61-1.12,3.52,3.52,0,0,1,2.8,1.17,5.16,5.16,0,0,1,1,3.57h-5.27a2.17,2.17,0,0,0,.51,1.45,1.63,1.63,0,0,0,1.22.52,1.31,1.31,0,0,0,.83-.27A1.66,1.66,0,0,0,419.71,373.28Zm.12-2.11a2,2,0,0,0-.47-1.38,1.43,1.43,0,0,0-1.09-.48,1.48,1.48,0,0,0-1.14.5,2,2,0,0,0-.44,1.36Z"/><path class="cls-3" d="M422.89,373.55l2.11-.33a1.56,1.56,0,0,0,.55.93,1.85,1.85,0,0,0,1.15.32,2.09,2.09,0,0,0,1.23-.3.67.67,0,0,0,.28-.56.53.53,0,0,0-.15-.39,1.77,1.77,0,0,0-.71-.28,11.2,11.2,0,0,1-3.22-1,2,2,0,0,1-.94-1.78,2.21,2.21,0,0,1,.81-1.73,3.86,3.86,0,0,1,2.53-.7,4.41,4.41,0,0,1,2.42.53,2.69,2.69,0,0,1,1.1,1.57l-2,.36a1.2,1.2,0,0,0-.48-.71,1.8,1.8,0,0,0-1-.24,2.22,2.22,0,0,0-1.19.23.49.49,0,0,0-.24.42.46.46,0,0,0,.21.38,7.64,7.64,0,0,0,2,.59,5.84,5.84,0,0,1,2.35.93,1.93,1.93,0,0,1,.66,1.56,2.39,2.39,0,0,1-.92,1.87,4.06,4.06,0,0,1-2.7.78,4.5,4.5,0,0,1-2.57-.65A3.06,3.06,0,0,1,422.89,373.55Z"/><path class="cls-3" d="M434.25,364.88v4a3.11,3.11,0,0,1,2.43-1.19A3.07,3.07,0,0,1,438,368a2.16,2.16,0,0,1,.88.69,2.31,2.31,0,0,1,.4.92,7.6,7.6,0,0,1,.11,1.57v4.64h-2.1v-4.18a6.19,6.19,0,0,0-.12-1.58,1,1,0,0,0-.42-.53,1.39,1.39,0,0,0-.76-.2,1.77,1.77,0,0,0-.94.26,1.49,1.49,0,0,0-.6.76,4.46,4.46,0,0,0-.19,1.51v4h-2.1V364.88Z"/><path class="cls-3" d="M445.16,367.89v1.67h-1.44v3.19a7.68,7.68,0,0,0,0,1.13.48.48,0,0,0,.19.26.58.58,0,0,0,.35.11,2.63,2.63,0,0,0,.85-.21l.18,1.63a4.16,4.16,0,0,1-1.66.31,2.63,2.63,0,0,1-1-.19,1.52,1.52,0,0,1-.67-.49,1.88,1.88,0,0,1-.29-.82,9.18,9.18,0,0,1-.07-1.47v-3.45h-1v-1.67h1v-1.57l2.11-1.22v2.79Z"/><path class="cls-3" d="M453.9,375.8H452v-1.16a3.14,3.14,0,0,1-1.15,1,2.94,2.94,0,0,1-1.33.33,3,3,0,0,1-2.35-1.1,5.33,5.33,0,0,1,0-6.12,3.12,3.12,0,0,1,2.41-1.05,3,3,0,0,1,2.3,1.1v-1.1h2.1Zm-5.61-4.12a3.67,3.67,0,0,0,.35,1.83,1.62,1.62,0,0,0,1.43.82,1.55,1.55,0,0,0,1.23-.62,2.81,2.81,0,0,0,.51-1.83,3.11,3.11,0,0,0-.5-2,1.61,1.61,0,0,0-2.51,0A2.63,2.63,0,0,0,448.29,371.68Z"/><path class="cls-3" d="M455.24,373.55l2.11-.33a1.55,1.55,0,0,0,.54.93,1.87,1.87,0,0,0,1.15.32,2.06,2.06,0,0,0,1.23-.3.67.67,0,0,0,.28-.56.53.53,0,0,0-.15-.39,1.77,1.77,0,0,0-.71-.28,11.2,11.2,0,0,1-3.22-1,2,2,0,0,1-.94-1.78,2.21,2.21,0,0,1,.81-1.73,3.88,3.88,0,0,1,2.53-.7,4.47,4.47,0,0,1,2.43.53,2.72,2.72,0,0,1,1.09,1.57l-2,.36a1.26,1.26,0,0,0-.49-.71,1.77,1.77,0,0,0-1-.24,2.22,2.22,0,0,0-1.19.23.49.49,0,0,0-.24.42.46.46,0,0,0,.21.38,7.64,7.64,0,0,0,2,.59,5.84,5.84,0,0,1,2.35.93,1.93,1.93,0,0,1,.66,1.56,2.39,2.39,0,0,1-.92,1.87,4,4,0,0,1-2.7.78,4.5,4.5,0,0,1-2.57-.65A3,3,0,0,1,455.24,373.55Z"/><path class="cls-3" d="M468.14,367.89v1.67H466.7v3.19a7,7,0,0,0,.05,1.13.46.46,0,0,0,.18.26.61.61,0,0,0,.36.11,2.64,2.64,0,0,0,.84-.21l.18,1.63a4.16,4.16,0,0,1-1.66.31,2.54,2.54,0,0,1-1-.19,1.41,1.41,0,0,1-.67-.49,2,2,0,0,1-.3-.82,11.2,11.2,0,0,1-.06-1.47v-3.45h-1v-1.67h1v-1.57l2.1-1.22v2.79Z"/><path class="cls-3" d="M469.6,366.82v-1.94h2.1v1.94Zm0,9v-7.91h2.1v7.91Z"/><path class="cls-3" d="M480.78,370.23l-2.07.37a1.53,1.53,0,0,0-.47-.93,1.44,1.44,0,0,0-1-.31,1.59,1.59,0,0,0-1.26.54,2.77,2.77,0,0,0-.47,1.81,3.14,3.14,0,0,0,.48,2,1.57,1.57,0,0,0,1.28.59,1.48,1.48,0,0,0,1-.34,2.06,2.06,0,0,0,.53-1.17l2.07.35a3.68,3.68,0,0,1-1.24,2.14,3.81,3.81,0,0,1-2.44.72,3.65,3.65,0,0,1-2.78-1.09,5,5,0,0,1,0-6.09,3.74,3.74,0,0,1,2.82-1.09,3.87,3.87,0,0,1,2.3.62A3.38,3.38,0,0,1,480.78,370.23Z"/><path class="cls-3" d="M621.26,377.22v-9.08H618V366.3h8.83v1.84h-3.29v9.08Z"/><path class="cls-3" d="M629.41,377.22h-2.13v-7.91h2v1.12a3.45,3.45,0,0,1,.91-1.05,1.69,1.69,0,0,1,.92-.25,2.78,2.78,0,0,1,1.41.39l-.66,1.83a1.92,1.92,0,0,0-1-.35,1.22,1.22,0,0,0-.76.25,1.62,1.62,0,0,0-.49.87,12.1,12.1,0,0,0-.18,2.65Z"/><path class="cls-3" d="M640.8,377.22h-2v-1.16a3.35,3.35,0,0,1-1.16,1,3.06,3.06,0,0,1-1.36.33,3.09,3.09,0,0,1-2.37-1.1,5.31,5.31,0,0,1,0-6.13,3.18,3.18,0,0,1,2.43-1,3,3,0,0,1,2.34,1.1v-1.1h2.13Zm-5.69-4.13a3.5,3.5,0,0,0,.36,1.83,1.6,1.6,0,0,0,1.44.82,1.57,1.57,0,0,0,1.25-.61,2.82,2.82,0,0,0,.52-1.84,3.08,3.08,0,0,0-.5-2,1.62,1.62,0,0,0-1.29-.6,1.65,1.65,0,0,0-1.27.59A2.67,2.67,0,0,0,635.11,373.09Z"/><path class="cls-3" d="M649.92,371.65l-2.1.37a1.37,1.37,0,0,0-1.46-1.25,1.61,1.61,0,0,0-1.27.54,2.79,2.79,0,0,0-.47,1.81,3.17,3.17,0,0,0,.48,2,1.58,1.58,0,0,0,1.29.58,1.44,1.44,0,0,0,1-.34,2.06,2.06,0,0,0,.54-1.16l2.09.35a3.57,3.57,0,0,1-1.25,2.13,3.85,3.85,0,0,1-2.48.73,3.72,3.72,0,0,1-2.81-1.1,4.93,4.93,0,0,1,0-6.08,3.77,3.77,0,0,1,2.85-1.09,3.91,3.91,0,0,1,2.34.62A3.42,3.42,0,0,1,649.92,371.65Z"/><path class="cls-3" d="M651.46,377.22V366.3h2.13v5.79l2.49-2.78h2.62L656,372.2l2.95,5h-2.3l-2-3.56-1,1v2.53Z"/><path class="cls-3" d="M664.83,374.7l2.12.35a3.39,3.39,0,0,1-1.29,1.75,3.86,3.86,0,0,1-2.21.6,3.63,3.63,0,0,1-3.11-1.35,4.48,4.48,0,0,1-.8-2.73,4.31,4.31,0,0,1,1.05-3.08,3.49,3.49,0,0,1,2.65-1.11,3.62,3.62,0,0,1,2.83,1.16,5.13,5.13,0,0,1,1,3.58h-5.33a2.08,2.08,0,0,0,.51,1.45,1.64,1.64,0,0,0,1.23.51,1.3,1.3,0,0,0,.84-.27A1.6,1.6,0,0,0,664.83,374.7Zm.12-2.12a2,2,0,0,0-.48-1.38,1.48,1.48,0,0,0-1.1-.47,1.52,1.52,0,0,0-1.16.5,1.88,1.88,0,0,0-.44,1.35Z"/><path class="cls-3" d="M670.84,377.22h-2.13v-7.91h2v1.12a3.45,3.45,0,0,1,.91-1.05,1.69,1.69,0,0,1,.92-.25,2.74,2.74,0,0,1,1.4.39l-.66,1.83a1.86,1.86,0,0,0-1-.35,1.19,1.19,0,0,0-.75.25,1.62,1.62,0,0,0-.49.87,12.1,12.1,0,0,0-.18,2.65Z"/><path class="cls-3" d="M693.82,756.59H677.05V751a20.47,20.47,0,0,1,.25-4.12,4.51,4.51,0,0,1,1.64-2.47,5.16,5.16,0,0,1,3.27-1,5.43,5.43,0,0,1,2.6.57,4.61,4.61,0,0,1,1.65,1.46,5,5,0,0,1,.79,1.79,20.34,20.34,0,0,1,.24,3.6v2.26h6.33Zm-13.93-3.46h4.75v-1.9a9,9,0,0,0-.26-2.74,2.19,2.19,0,0,0-2.13-1.47,2.13,2.13,0,0,0-1.51.55A2.43,2.43,0,0,0,680,749a18.15,18.15,0,0,0-.11,2.49Z"/><path class="cls-3" d="M687.57,741.38a6.45,6.45,0,0,1-3.1-.8,5.42,5.42,0,0,1-2.28-2.29,6.89,6.89,0,0,1-.79-3.31,6.25,6.25,0,0,1,1.79-4.62,6.07,6.07,0,0,1,4.52-1.81,6.21,6.21,0,0,1,6.38,6.41,7.41,7.41,0,0,1-.75,3.26,5.29,5.29,0,0,1-2.22,2.36A7.19,7.19,0,0,1,687.57,741.38Zm.17-3.37a3.94,3.94,0,0,0,2.77-.88,2.91,2.91,0,0,0,0-4.32,4,4,0,0,0-2.79-.87,3.94,3.94,0,0,0-2.74.87,2.91,2.91,0,0,0,0,4.32A3.93,3.93,0,0,0,687.74,738Z"/><path class="cls-3" d="M693.82,723.66l-12.15,3.93V724.4l8-2.33-8-2.15v-3.17l8-2.07-8-2.38v-3.24l12.15,4v3.16L686,718.35l7.81,2.11Z"/><path class="cls-3" d="M690,700.13l.54-3.28a5.24,5.24,0,0,1,2.68,2,5.94,5.94,0,0,1,.92,3.42,5.62,5.62,0,0,1-2.07,4.8,6.82,6.82,0,0,1-4.18,1.23,6.59,6.59,0,0,1-4.73-1.62,5.39,5.39,0,0,1-1.71-4.09,5.53,5.53,0,0,1,1.79-4.37q1.78-1.61,5.48-1.54v8.24a3.2,3.2,0,0,0,2.23-.79,2.52,2.52,0,0,0,.79-1.9,2.08,2.08,0,0,0-.41-1.3A2.57,2.57,0,0,0,690,700.13Zm-3.25-.19a3,3,0,0,0-2.12.74,2.42,2.42,0,0,0,0,3.48,3,3,0,0,0,2.08.7Z"/><path class="cls-3" d="M693.82,690.84v3.29H681.67v-3h1.73a5.11,5.11,0,0,1-1.61-1.42,2.61,2.61,0,0,1-.39-1.42,4.25,4.25,0,0,1,.6-2.16l2.81,1a2.88,2.88,0,0,0-.53,1.55,1.84,1.84,0,0,0,.37,1.17,2.6,2.6,0,0,0,1.34.76,19.09,19.09,0,0,0,4.08.27Z"/><path class="cls-3" d="M677.05,678V671.1a20.27,20.27,0,0,1,.17-3,4.58,4.58,0,0,1,.69-1.79,4.41,4.41,0,0,1,1.4-1.31,3.65,3.65,0,0,1,2-.53,3.76,3.76,0,0,1,2.16.65,4,4,0,0,1,1.48,1.76,4.49,4.49,0,0,1,1.52-2.41,4,4,0,0,1,2.53-.84,4.91,4.91,0,0,1,2.22.54,4.49,4.49,0,0,1,1.73,1.49,5,5,0,0,1,.79,2.32c.06.58.1,2,.12,4.18V678Zm2.79-3.46h3.88v-2.27q0-2-.06-2.52a2.35,2.35,0,0,0-.6-1.4,1.75,1.75,0,0,0-1.31-.51,1.81,1.81,0,0,0-1.26.44,2,2,0,0,0-.59,1.3q-.06.53-.06,3Zm6.67,0H691v-3.21a16.09,16.09,0,0,0-.1-2.38,2.16,2.16,0,0,0-.67-1.26,2,2,0,0,0-1.42-.48,2.13,2.13,0,0,0-1.28.37,2.06,2.06,0,0,0-.77,1.09,12,12,0,0,0-.24,3.07Z"/><path class="cls-3" d="M693.82,649.28v3.05H692a4.89,4.89,0,0,1,1.55,1.8,4.7,4.7,0,0,1,.51,2.09,4.79,4.79,0,0,1-1.68,3.67,6.78,6.78,0,0,1-4.71,1.53,6.69,6.69,0,0,1-4.7-1.49,4.89,4.89,0,0,1-1.6-3.76,4.67,4.67,0,0,1,1.69-3.6H681.4v-3.29Zm-6.34,8.78a5.37,5.37,0,0,0,2.81-.55,2.5,2.5,0,0,0,1.26-2.23,2.44,2.44,0,0,0-.94-1.93,4.29,4.29,0,0,0-2.82-.79,4.63,4.63,0,0,0-3,.77,2.44,2.44,0,0,0-.92,2,2.51,2.51,0,0,0,.9,2A4.05,4.05,0,0,0,687.48,658.06Z"/><path class="cls-3" d="M693.82,634.73V638h-6.2a9.48,9.48,0,0,0-2.55.21,1.74,1.74,0,0,0-.89.68,2,2,0,0,0-.32,1.14,2.75,2.75,0,0,0,.45,1.54,2.35,2.35,0,0,0,1.22.93,10.56,10.56,0,0,0,2.79.25h5.5v3.29H681.67V643h1.79a5.19,5.19,0,0,1-1.68-6.09,3.18,3.18,0,0,1,2.33-2,9.84,9.84,0,0,1,2.16-.18Z"/><path class="cls-3" d="M693.82,631.51H677.05v-3.29H686l-4.28-3.86v-4.05l4.44,4.25,7.71-4.55v3.55l-5.46,3.12,1.57,1.54h3.89Z"/><path class="cls-7" d="M507.59,522V507.8h4.61a16.89,16.89,0,0,1,3.41.21,3.72,3.72,0,0,1,2,1.39,4.43,4.43,0,0,1,.83,2.77,4.59,4.59,0,0,1-.48,2.2,3.91,3.91,0,0,1-1.21,1.41,4.29,4.29,0,0,1-1.49.67,15.94,15.94,0,0,1-3,.2h-1.88V522Zm2.87-11.82v4H512a7.28,7.28,0,0,0,2.27-.23,1.8,1.8,0,0,0,.9-.69,1.91,1.91,0,0,0,.33-1.11,1.86,1.86,0,0,0-.46-1.28,1.94,1.94,0,0,0-1.15-.63,13.12,13.12,0,0,0-2.07-.1Z"/><path class="cls-7" d="M522.86,522l-3.39-14.22h2.93l2.15,9.76,2.6-9.76h3.41l2.5,9.93,2.18-9.93h2.89L534.68,522h-3l-2.83-10.63L526,522Z"/><path class="cls-7" d="M539.6,522V507.8h6a10.22,10.22,0,0,1,3.31.38,3.28,3.28,0,0,1,1.66,1.36,4.14,4.14,0,0,1,.62,2.24,3.81,3.81,0,0,1-1,2.65,4.5,4.5,0,0,1-2.81,1.31,6.67,6.67,0,0,1,1.54,1.19,17,17,0,0,1,1.63,2.31l1.74,2.78H549l-2.08-3.1a22,22,0,0,0-1.51-2.09,2.18,2.18,0,0,0-.87-.59,4.57,4.57,0,0,0-1.44-.16h-.58V522Zm2.88-8.21h2.12a11.43,11.43,0,0,0,2.58-.17A1.6,1.6,0,0,0,548,513a1.86,1.86,0,0,0,.29-1.06,1.68,1.68,0,0,0-.39-1.16,1.71,1.71,0,0,0-1.08-.56c-.23,0-.93-.05-2.09-.05h-2.24Z"/><path class="cls-7" d="M553.93,507.8h5.25a10.35,10.35,0,0,1,2.71.27,4.67,4.67,0,0,1,2.14,1.31,6.06,6.06,0,0,1,1.36,2.3,10.5,10.5,0,0,1,.47,3.36,9.4,9.4,0,0,1-.44,3,6.33,6.33,0,0,1-1.52,2.51,5,5,0,0,1-2,1.14,8.73,8.73,0,0,1-2.54.3h-5.41Zm2.87,2.4v9.42H559a7.85,7.85,0,0,0,1.73-.13,2.62,2.62,0,0,0,1.16-.6,3,3,0,0,0,.76-1.37,9.41,9.41,0,0,0,.29-2.6,8.7,8.7,0,0,0-.29-2.54,3.34,3.34,0,0,0-.82-1.37,2.67,2.67,0,0,0-1.33-.67,12.9,12.9,0,0,0-2.36-.14Z"/><path class="cls-7" d="M537.24,400.41a2.47,2.47,0,0,1-2-1l-8.09-10.94c-.11-.15-.17-.22-.22-.3a12.31,12.31,0,0,1-2.28-7.2,12.56,12.56,0,0,1,24.84-2.6h0a12.49,12.49,0,0,1-2,9.71l-.63.85-7.74,10.47a2.45,2.45,0,0,1-2,1Zm0-29.17a9.76,9.76,0,0,0-9.79,9.75,9.62,9.62,0,0,0,1.82,5.66l.2.29,7.74,10.44,8.11-11a9.71,9.71,0,0,0,1.44-7.46h0a9.7,9.7,0,0,0-7.59-7.52A10.5,10.5,0,0,0,537.27,371.24Z"/><circle class="cls-7" cx="537.24" cy="380.99" r="4.15"/><path class="cls-8" d="M646,498.66a107,107,0,0,1-10.18,42.74"/><path class="cls-8" d="M505.19,598.38a108.08,108.08,0,0,0,86.71-9.3"/><path class="cls-8" d="M492.08,593.23A108.21,108.21,0,0,1,455.42,565"/><path class="cls-8" d="M431.23,511.44a108.71,108.71,0,0,1-1.18-15.93,107.54,107.54,0,0,1,24.2-68.12"/><path class="cls-8" d="M601.28,408a107.81,107.81,0,0,1,44.28,77.73"/><path class="cls-8" d="M464.15,416.77a108,108,0,0,1,36.79-22.7"/><path class="cls-8" d="M559.87,393.93a103.35,103.35,0,0,1,39,17.41"/><path class="cls-8" d="M624.26,553.43a104.15,104.15,0,0,1-34.79,32.33"/><path class="cls-8" d="M455.67,558.82a104.26,104.26,0,0,0,42.23,32.53l1.22-3.34"/><path class="cls-8" d="M434.24,490.76a104.23,104.23,0,0,1,5.36-28.58"/><path class="cls-8" d="M435.26,510.85a103.77,103.77,0,0,0,9.94,31.33"/><path class="cls-8" d="M543.16,599.25a103,103,0,0,0,31-6.31"/><path class="cls-8" d="M638.33,493.78h3.56c0,.57,0,1.15,0,1.73a103.18,103.18,0,0,1-11,46.6"/><path class="cls-8" d="M631.68,450.53a103.58,103.58,0,0,0-15.51-23.44"/><path class="cls-8" d="M463.14,423.51A103.91,103.91,0,0,1,506,396.65"/><path class="cls-8" d="M453.33,549.31a100.74,100.74,0,0,0,20.32,23.15"/><path class="cls-8" d="M619.23,554.43a99.48,99.48,0,0,0,14.87-29.91"/><path class="cls-8" d="M499.12,588a100.47,100.47,0,0,0,91-6.76"/><path class="cls-8" d="M463.14,423.51l2.51,2.5A100.39,100.39,0,0,0,439,511.44"/><path class="cls-8" d="M555.77,396.74a100.33,100.33,0,0,1,82.56,97"/><path class="cls-8" d="M490.43,407.15a99.64,99.64,0,0,1,27.95-10"/><path class="cls-8" d="M441.79,505.88A96.94,96.94,0,0,1,457,442.63"/><path class="cls-8" d="M519.4,590.51A97.49,97.49,0,0,0,538,592.29a96.22,96.22,0,0,0,44.34-10.73"/><path class="cls-8" d="M477.76,571.24A96.61,96.61,0,0,0,509.52,588"/><path class="cls-8" d="M634.36,486c.31,3.12.47,6.31.47,9.52a96.32,96.32,0,0,1-9,40.85"/><path class="cls-8" d="M593.71,416.34A96.73,96.73,0,0,1,632.84,476"/><path class="cls-8" d="M463.87,433.33a96.44,96.44,0,0,1,26.74-22.21"/><path class="cls-8" d="M446.79,476.19a93.29,93.29,0,0,1,43.34-60.7"/><path class="cls-8" d="M557,586.81a92.29,92.29,0,0,0,26.78-10"/><path class="cls-8" d="M445.91,481a92.2,92.2,0,0,0-1.13,14.49A93.23,93.23,0,0,0,538,588.75a92.17,92.17,0,0,0,14.48-1.13"/><path class="cls-8" d="M630.76,485.78a89.39,89.39,0,0,1,.52,9.73,93.42,93.42,0,0,1-2.86,23"/><path class="cls-8" d="M594.74,421.49a93.21,93.21,0,0,1,34.64,55.27"/><path class="cls-8" d="M501.07,577.26A89.8,89.8,0,0,0,607,552.91"/><path class="cls-8" d="M510.9,410a89.72,89.72,0,0,0-28.65,155.77"/><path class="cls-8" d="M562.87,409.29a89.76,89.76,0,0,1,54.74,127.64"/><path class="cls-8" d="M493.31,421.85A85.68,85.68,0,0,1,538,409.34c.51,0,1,0,1.51,0"/><path class="cls-8" d="M519.22,579.59a86.19,86.19,0,0,0,69.23-14.24"/><path class="cls-8" d="M467.08,446.63a86.15,86.15,0,0,0,42.23,130.11"/><path class="cls-8" d="M581.93,421.36a86.14,86.14,0,0,1,15.45,136.58"/><path class="cls-8" d="M491.12,427.51a82.55,82.55,0,0,0-16.32,14.84"/><path class="cls-8" d="M469.52,449.34A82.61,82.61,0,0,0,593.39,556.81"/><path class="cls-8" d="M571.84,420.11a82.74,82.74,0,0,1,47.27,59.47"/><path class="cls-8" d="M620.47,490.22c.12,1.74.17,3.51.17,5.29a83.53,83.53,0,0,1-1.56,16.09"/><path class="cls-8" d="M502.72,424.74A79.08,79.08,0,1,0,608.86,530.67"/><path class="cls-8" d="M540.31,416.48a79.08,79.08,0,0,1,72.11,105.85"/><path class="cls-8" d="M493.27,434.68a75.3,75.3,0,0,1,25.61-12.26"/><path class="cls-8" d="M539.29,420a75,75,0,0,1,41.55,13.29"/><path class="cls-8" d="M488.23,438.73A75.52,75.52,0,0,0,496,558.22"/><path class="cls-8" d="M503.58,562.71a75.52,75.52,0,0,0,81.52-8.16"/><path class="cls-8" d="M587.6,438.53a75.52,75.52,0,0,1,13.33,98.77"/><path class="cls-8" d="M466.25,490.22c-.12,1.74-.19,3.51-.19,5.29a71.62,71.62,0,0,0,5.22,26.94"/><path class="cls-8" d="M472.45,465.79a72.17,72.17,0,0,1,49.45-40.45"/><path class="cls-8" d="M535,567.4a71.6,71.6,0,0,1-20.7-3.93l-1.63,3.17"/><path class="cls-8" d="M475.13,530.51A72.22,72.22,0,0,0,502.27,558"/><path class="cls-8" d="M556.7,565a72,72,0,0,0,52.2-56.95"/><path class="cls-8" d="M570.3,431.15A72,72,0,0,1,610,495.51c0,1.55,0,3.08-.15,4.62"/><path class="cls-8" d="M605.87,504.53a68.23,68.23,0,0,1-14.68,34.07"/><path class="cls-8" d="M530.33,427.51a68.43,68.43,0,1,0,56,116.44"/><path class="cls-8" d="M560.82,431a68.54,68.54,0,0,1,29.82,20.79"/><path class="cls-8" d="M601.56,470a67.68,67.68,0,0,1,4.77,21.5h3.56"/><path class="cls-8" d="M474.91,510.56a65,65,0,0,1,30.77-71.31"/><path class="cls-8" d="M478.76,522a65,65,0,0,0,81.11,34.65"/><path class="cls-8" d="M584.25,450a65.09,65.09,0,0,1,16.43,62.51"/><path class="cls-8" d="M601.56,508.75l-3.42-1a61.08,61.08,0,0,1-15.61,29.93"/><path class="cls-8" d="M494.91,451.88A61.34,61.34,0,0,0,574,545.22"/><path class="cls-8" d="M568.53,442.28a61.31,61.31,0,0,1,30.84,53.23c0,.67,0,1.32,0,2"/><path class="cls-8" d="M480.84,503.77a56.26,56.26,0,0,1-.6-8.26,57.83,57.83,0,0,1,39.37-54.81"/><path class="cls-8" d="M483.3,514.13A57.83,57.83,0,0,0,538,553.29a58.7,58.7,0,0,0,7.67-.5"/><path class="cls-8" d="M595.4,488.46a58.42,58.42,0,0,1,.42,7.05A57.79,57.79,0,0,1,554.3,551"/><path class="cls-8" d="M528.22,438.55a56.69,56.69,0,0,1,9.8-.84,57.8,57.8,0,0,1,55.22,40.67"/><path class="cls-8" d="M487.15,476.67a54.31,54.31,0,0,1,62.13-34.24"/><path class="cls-8" d="M484.85,484.83a53.66,53.66,0,0,0-1.06,10.68,54.29,54.29,0,0,0,33.18,50"/><path class="cls-8" d="M557,444.65a54.27,54.27,0,0,1,35.32,50.86,54.85,54.85,0,0,1-1,10.41"/><path class="cls-8" d="M525.18,548.22a54.28,54.28,0,0,0,63.12-32.29"/><line class="cls-8" x1="480.78" y1="446.25" x2="483.49" y2="448.53"/><path class="cls-8" d="M501.74,441.71l2.33,2.71h0A60.93,60.93,0,0,1,536,434.21"/><line class="cls-8" x1="475.65" y1="431.04" x2="473.13" y2="428.55"/><line class="cls-8" x1="598.92" y1="411.34" x2="601.28" y2="407.98"/><line class="cls-8" x1="591.9" y1="589.08" x2="589.47" y2="585.76"/><line class="cls-8" x1="435.26" y1="510.85" x2="431.23" y2="511.44"/><line class="cls-8" x1="501.07" y1="577.26" x2="499.93" y2="580.64"/><path class="cls-7" d="M508.3,498.51a2.75,2.75,0,0,1-1.59-.5,2.79,2.79,0,0,1-.7-3.89l19-27.46a2.79,2.79,0,1,1,4.59,3.19l-19,27.46A2.81,2.81,0,0,1,508.3,498.51Z"/><path class="cls-7" d="M525.46,498.51a2.75,2.75,0,0,1-1.59-.5,2.8,2.8,0,0,1-.71-3.89l19.06-27.46a2.79,2.79,0,1,1,4.59,3.19l-19.06,27.46A2.78,2.78,0,0,1,525.46,498.51Z"/><path class="cls-7" d="M563.56,498.51a2.81,2.81,0,0,1-2.3-1.2l-19-27.46a2.79,2.79,0,1,1,4.59-3.18l19,27.46a2.79,2.79,0,0,1-2.29,4.38Z"/><path class="cls-7" d="M429,634.38v-8.67h2.81a10.85,10.85,0,0,1,2.09.13,2.29,2.29,0,0,1,1.24.85,2.68,2.68,0,0,1,.51,1.69,2.86,2.86,0,0,1-.29,1.34,2.41,2.41,0,0,1-.74.86,2.73,2.73,0,0,1-.91.41,10.3,10.3,0,0,1-1.81.12h-1.15v3.27Zm1.75-7.2v2.46h1a4.59,4.59,0,0,0,1.39-.14,1.13,1.13,0,0,0,.74-1.1,1.12,1.12,0,0,0-.28-.78,1.21,1.21,0,0,0-.7-.38,8.32,8.32,0,0,0-1.26-.06Z"/><path class="cls-7" d="M438.62,634.38H437V628.1h1.54v.9a2.79,2.79,0,0,1,.72-.84,1.34,1.34,0,0,1,.72-.2,2.2,2.2,0,0,1,1.09.31l-.51,1.45a1.5,1.5,0,0,0-.79-.27,1,1,0,0,0-.59.19,1.31,1.31,0,0,0-.38.7,10,10,0,0,0-.14,2.1Z"/><path class="cls-7" d="M441.36,631.15a3.43,3.43,0,0,1,.41-1.6,2.75,2.75,0,0,1,1.16-1.18,3.44,3.44,0,0,1,1.67-.41,3.14,3.14,0,0,1,2.34.93,3.2,3.2,0,0,1,.91,2.34,3.25,3.25,0,0,1-.92,2.36,3.15,3.15,0,0,1-2.32.94,3.67,3.67,0,0,1-1.65-.39,2.7,2.7,0,0,1-1.19-1.15A3.82,3.82,0,0,1,441.36,631.15Zm1.71.09a2,2,0,0,0,.44,1.43,1.39,1.39,0,0,0,1.09.5,1.36,1.36,0,0,0,1.09-.5,2.5,2.5,0,0,0,0-2.86,1.38,1.38,0,0,0-1.09-.49,1.41,1.41,0,0,0-1.09.49A2.06,2.06,0,0,0,443.07,631.24Z"/><path class="cls-7" d="M454.91,634.38h-1.55v-.92a2.43,2.43,0,0,1-.9.8,2.32,2.32,0,0,1-1.06.27,2.36,2.36,0,0,1-1.85-.88,3.51,3.51,0,0,1-.78-2.43,3.45,3.45,0,0,1,.76-2.43,2.43,2.43,0,0,1,1.89-.83,2.37,2.37,0,0,1,1.83.87v-3.12h1.66Zm-4.44-3.27a2.8,2.8,0,0,0,.28,1.45,1.27,1.27,0,0,0,2.1.17,2.27,2.27,0,0,0,.4-1.46,2.48,2.48,0,0,0-.39-1.56,1.23,1.23,0,0,0-1-.48,1.27,1.27,0,0,0-1,.47A2.12,2.12,0,0,0,450.47,631.11Z"/><path class="cls-7" d="M460.68,634.38v-.94a2.48,2.48,0,0,1-.9.8,2.57,2.57,0,0,1-1.18.29,2.4,2.4,0,0,1-1.14-.28,1.7,1.7,0,0,1-.72-.78,3.49,3.49,0,0,1-.23-1.39v-4h1.66V631a7.12,7.12,0,0,0,.1,1.62.91.91,0,0,0,.33.48,1.08,1.08,0,0,0,.62.17A1.36,1.36,0,0,0,460,633a1.22,1.22,0,0,0,.46-.58,7,7,0,0,0,.12-1.7V628.1h1.67v6.28Z"/><path class="cls-7" d="M469.42,630l-1.63.3a1.22,1.22,0,0,0-.38-.74,1.12,1.12,0,0,0-.76-.25,1.23,1.23,0,0,0-1,.43,2.15,2.15,0,0,0-.37,1.43,2.47,2.47,0,0,0,.38,1.58,1.21,1.21,0,0,0,1,.46,1.12,1.12,0,0,0,.78-.27,1.61,1.61,0,0,0,.42-.92l1.64.28a2.91,2.91,0,0,1-1,1.69,3,3,0,0,1-1.93.58,2.88,2.88,0,0,1-2.2-.87,4,4,0,0,1,0-4.83,2.92,2.92,0,0,1,2.23-.87,3.09,3.09,0,0,1,1.82.49A2.7,2.7,0,0,1,469.42,630Z"/><path class="cls-7" d="M473.56,628.1v1.33h-1.13V632a6.67,6.67,0,0,0,0,.89.32.32,0,0,0,.15.21.45.45,0,0,0,.28.09,2.38,2.38,0,0,0,.67-.16l.14,1.29a3.4,3.4,0,0,1-1.31.25,2.09,2.09,0,0,1-.81-.15,1.26,1.26,0,0,1-.53-.4,1.65,1.65,0,0,1-.24-.64,9.32,9.32,0,0,1-.05-1.17v-2.74H470V628.1h.76v-1.25l1.67-1v2.22Z"/><path class="cls-7" d="M478.11,634.38v-8.67h1.71l3.55,5.79v-5.79H485v8.67h-1.75l-3.5-5.65v5.65Z"/><path class="cls-7" d="M488.08,630l-1.51-.27a2.35,2.35,0,0,1,.87-1.35,3.24,3.24,0,0,1,1.85-.44,4,4,0,0,1,1.65.26,1.67,1.67,0,0,1,.77.67,3.42,3.42,0,0,1,.22,1.49l0,1.94a7,7,0,0,0,.08,1.22,4.28,4.28,0,0,0,.3.84h-1.64c0-.11-.1-.27-.16-.49l-.06-.19a3.13,3.13,0,0,1-.91.62,2.61,2.61,0,0,1-1,.21A2.17,2.17,0,0,1,487,634a1.9,1.9,0,0,1-.3-2.28,1.69,1.69,0,0,1,.71-.64,5.56,5.56,0,0,1,1.32-.39,9.29,9.29,0,0,0,1.62-.4v-.17a.84.84,0,0,0-.24-.68,1.38,1.38,0,0,0-.89-.21,1,1,0,0,0-1.09.79Zm2.22,1.35c-.21.07-.55.15-1,.25a3.29,3.29,0,0,0-.91.29.72.72,0,0,0-.32.59.79.79,0,0,0,.26.6.89.89,0,0,0,.66.25,1.42,1.42,0,0,0,.86-.29,1,1,0,0,0,.39-.55,2.9,2.9,0,0,0,.07-.81Z"/><path class="cls-7" d="M493.45,628.1H495V629a2.46,2.46,0,0,1,2-1,2,2,0,0,1,1,.25,1.88,1.88,0,0,1,.73.75,3,3,0,0,1,.89-.75,2.15,2.15,0,0,1,1-.25,2.25,2.25,0,0,1,1.17.28,1.73,1.73,0,0,1,.72.83,3.64,3.64,0,0,1,.17,1.3v4H501v-3.59a2.57,2.57,0,0,0-.17-1.2.78.78,0,0,0-.71-.36,1.12,1.12,0,0,0-.65.21,1.18,1.18,0,0,0-.45.63,4.56,4.56,0,0,0-.13,1.3v3h-1.67v-3.44a5.49,5.49,0,0,0-.08-1.18.75.75,0,0,0-.28-.4.9.9,0,0,0-.5-.13,1.23,1.23,0,0,0-.7.21,1.18,1.18,0,0,0-.44.6,4.39,4.39,0,0,0-.13,1.29v3h-1.66Z"/><path class="cls-7" d="M508,632.38l1.66.28a2.76,2.76,0,0,1-1,1.39,3,3,0,0,1-1.73.48,2.81,2.81,0,0,1-2.42-1.07,3.59,3.59,0,0,1-.62-2.17,3.46,3.46,0,0,1,.81-2.44,2.68,2.68,0,0,1,2.07-.89,2.78,2.78,0,0,1,2.21.93,4,4,0,0,1,.77,2.83h-4.16a1.68,1.68,0,0,0,.4,1.15,1.25,1.25,0,0,0,1,.41,1,1,0,0,0,.66-.21A1.28,1.28,0,0,0,508,632.38Zm.09-1.67a1.57,1.57,0,0,0-.37-1.1,1.13,1.13,0,0,0-.86-.38,1.15,1.15,0,0,0-.9.4,1.53,1.53,0,0,0-.35,1.08Z"/><path class="cls-7" d="M514.76,629.76V628.1h1.67v1.66Zm0,4.62v-1.66h1.67v1.66Z"/><path class="cls-7" d="M523.81,634.38v-7.2h-2.57v-1.47h6.89v1.47h-2.57v7.2Z"/><path class="cls-7" d="M530.9,625.71v3.19a2.5,2.5,0,0,1,3-.73,1.62,1.62,0,0,1,.69.55,1.78,1.78,0,0,1,.32.73,6.32,6.32,0,0,1,.09,1.25v3.68H533.3v-3.31a4.58,4.58,0,0,0-.1-1.26.77.77,0,0,0-.33-.42,1,1,0,0,0-.6-.16,1.41,1.41,0,0,0-.74.2,1.18,1.18,0,0,0-.48.61,3.65,3.65,0,0,0-.15,1.2v3.14h-1.66v-8.67Z"/><path class="cls-7" d="M536.65,627.25v-1.54h1.66v1.54Zm0,7.13V628.1h1.66v6.28Z"/><path class="cls-7" d="M545.73,634.38h-1.67v-3.2a5.13,5.13,0,0,0-.1-1.32.91.91,0,0,0-.35-.46,1,1,0,0,0-.57-.17,1.33,1.33,0,0,0-.78.24,1.18,1.18,0,0,0-.47.63,5.58,5.58,0,0,0-.13,1.44v2.84H540V628.1h1.54V629a2.58,2.58,0,0,1,3.08-.86,1.76,1.76,0,0,1,.69.5,1.79,1.79,0,0,1,.32.7,4.64,4.64,0,0,1,.1,1.12Z"/><path class="cls-7" d="M547.35,634.38v-8.67H549v4.6L551,628.1h2l-2.15,2.3,2.3,4h-1.79l-1.58-2.82-.77.81v2Z"/><path class="cls-7" d="M554.18,634.38v-8.67h1.7l3.55,5.79v-5.79h1.63v8.67H559.3l-3.49-5.65v5.65Z"/><path class="cls-7" d="M562.51,631.15a3.43,3.43,0,0,1,.41-1.6,2.81,2.81,0,0,1,1.16-1.18,3.44,3.44,0,0,1,1.67-.41,3.14,3.14,0,0,1,2.34.93,3.2,3.2,0,0,1,.91,2.34,3.25,3.25,0,0,1-.92,2.36,3.15,3.15,0,0,1-2.32.94,3.7,3.7,0,0,1-1.65-.39,2.75,2.75,0,0,1-1.19-1.15A3.82,3.82,0,0,1,562.51,631.15Zm1.71.09a2.09,2.09,0,0,0,.44,1.43,1.45,1.45,0,0,0,2.19,0,2.54,2.54,0,0,0,0-2.86,1.47,1.47,0,0,0-2.19,0A2.11,2.11,0,0,0,564.22,631.24Z"/><path class="cls-7" d="M576.06,634.38h-1.54v-.92a2.46,2.46,0,0,1-.91.8,2.29,2.29,0,0,1-1.06.27,2.36,2.36,0,0,1-1.85-.88,4.22,4.22,0,0,1,0-4.86,2.46,2.46,0,0,1,1.9-.83,2.37,2.37,0,0,1,1.82.87v-3.12h1.66Zm-4.44-3.27a2.91,2.91,0,0,0,.28,1.45,1.27,1.27,0,0,0,2.1.17,2.27,2.27,0,0,0,.4-1.46,2.48,2.48,0,0,0-.39-1.56,1.23,1.23,0,0,0-1-.48,1.27,1.27,0,0,0-1,.47A2.17,2.17,0,0,0,571.62,631.11Z"/><path class="cls-7" d="M581.34,632.38l1.65.28a2.71,2.71,0,0,1-1,1.39,2.93,2.93,0,0,1-1.72.48,2.81,2.81,0,0,1-2.42-1.07,3.6,3.6,0,0,1-.63-2.17,3.46,3.46,0,0,1,.82-2.44,2.65,2.65,0,0,1,2.06-.89,2.79,2.79,0,0,1,2.22.93,4,4,0,0,1,.77,2.83h-4.16a1.63,1.63,0,0,0,.4,1.15,1.25,1.25,0,0,0,1,.41,1,1,0,0,0,.66-.21A1.34,1.34,0,0,0,581.34,632.38Zm.09-1.67a1.57,1.57,0,0,0-.37-1.1,1.17,1.17,0,0,0-.87-.38,1.12,1.12,0,0,0-.89.4,1.48,1.48,0,0,0-.35,1.08Z"/><path class="cls-7" d="M584.25,632.07v-1.66h3.26v1.66Z"/><path class="cls-7" d="M588.46,634.38v-8.67h2.62l1.57,5.92,1.56-5.92h2.62v8.67h-1.62v-6.82l-1.72,6.82H591.8l-1.72-6.82v6.82Z"/><path class="cls-7" d="M601.47,634.38v-1.74h-3.55v-1.46l3.76-5.5h1.39v5.5h1.08v1.46h-1.08v1.74Zm0-3.2v-3l-2,3Z"/><path class="cls-7" d="M470.7,651.81v-8.67h5.94v1.47h-4.19v2h3.62v1.47h-3.62v3.68Z"/><path class="cls-7" d="M483.63,648.63l1.7.53a3.78,3.78,0,0,1-1.3,2.11,3.68,3.68,0,0,1-2.3.69,3.72,3.72,0,0,1-2.84-1.18,4.5,4.5,0,0,1-1.11-3.22,4.73,4.73,0,0,1,1.12-3.37,3.81,3.81,0,0,1,2.94-1.2,3.62,3.62,0,0,1,2.58.94,3.48,3.48,0,0,1,.89,1.6l-1.73.42a1.87,1.87,0,0,0-.65-1.07,1.82,1.82,0,0,0-1.18-.39,2,2,0,0,0-1.57.69,3.42,3.42,0,0,0-.6,2.25,3.68,3.68,0,0,0,.59,2.34,2,2,0,0,0,1.54.7,1.72,1.72,0,0,0,1.2-.45A2.48,2.48,0,0,0,483.63,648.63Z"/><path class="cls-7" d="M492.38,648.63l1.7.53a3.78,3.78,0,0,1-1.3,2.11,3.68,3.68,0,0,1-2.3.69,3.72,3.72,0,0,1-2.84-1.18,4.5,4.5,0,0,1-1.11-3.22,4.77,4.77,0,0,1,1.11-3.37,3.84,3.84,0,0,1,2.94-1.2,3.63,3.63,0,0,1,2.59.94,3.57,3.57,0,0,1,.89,1.6l-1.74.42a1.78,1.78,0,0,0-1.82-1.46,2,2,0,0,0-1.57.69,3.42,3.42,0,0,0-.6,2.25,3.68,3.68,0,0,0,.59,2.34,2,2,0,0,0,1.54.7,1.72,1.72,0,0,0,1.2-.45A2.48,2.48,0,0,0,492.38,648.63Z"/><path class="cls-7" d="M498.9,651.81v-8.67h1.75v8.67Z"/><path class="cls-7" d="M502.31,643.14h3.2a6.25,6.25,0,0,1,1.65.17,2.88,2.88,0,0,1,1.31.8,3.81,3.81,0,0,1,.82,1.4,6.4,6.4,0,0,1,.29,2,5.64,5.64,0,0,1-.27,1.85,3.66,3.66,0,0,1-.93,1.53,3.15,3.15,0,0,1-1.23.69,5.35,5.35,0,0,1-1.55.18h-3.29Zm1.75,1.47v5.74h1.31a4.55,4.55,0,0,0,1.06-.08,1.56,1.56,0,0,0,.7-.36,1.83,1.83,0,0,0,.46-.84,5.6,5.6,0,0,0,.18-1.59,5.09,5.09,0,0,0-.18-1.54,1.92,1.92,0,0,0-.5-.84,1.64,1.64,0,0,0-.81-.41,8.46,8.46,0,0,0-1.43-.08Z"/><path class="cls-7" d="M514.74,647.2v-1.67h1.66v1.67Zm0,4.61v-1.66h1.66v1.66Z"/><path class="cls-7" d="M523.71,650.27v1.54h-5.83a4.17,4.17,0,0,1,.57-1.65,10.9,10.9,0,0,1,1.87-2.08,12.67,12.67,0,0,0,1.38-1.42,1.85,1.85,0,0,0,.34-1,1.17,1.17,0,0,0-.3-.86,1.14,1.14,0,0,0-.82-.29,1.09,1.09,0,0,0-.83.31,1.64,1.64,0,0,0-.35,1l-1.66-.17a2.74,2.74,0,0,1,.93-2,3.16,3.16,0,0,1,2-.59,2.83,2.83,0,0,1,2,.69,2.25,2.25,0,0,1,.73,1.72,3.05,3.05,0,0,1-.21,1.12,4.51,4.51,0,0,1-.66,1.1,11.65,11.65,0,0,1-1.09,1.11c-.53.48-.86.8-1,1a3.18,3.18,0,0,0-.34.46Z"/><path class="cls-7" d="M525.21,643.14h3.46a9.61,9.61,0,0,1,1.54.09,2.11,2.11,0,0,1,.9.36,2.21,2.21,0,0,1,.67.72,1.93,1.93,0,0,1,.26,1,2,2,0,0,1-.32,1.12,2.08,2.08,0,0,1-.89.77A2.21,2.21,0,0,1,532,648a2.06,2.06,0,0,1,.43,1.31,2.62,2.62,0,0,1-.27,1.15,2.43,2.43,0,0,1-.75.89,2.52,2.52,0,0,1-1.18.42c-.29,0-1,0-2.11,0h-2.95Zm1.75,1.45v2h1.15c.68,0,1.1,0,1.27,0a1.11,1.11,0,0,0,.7-.31.89.89,0,0,0,.26-.68,1,1,0,0,0-.22-.65,1,1,0,0,0-.66-.3q-.26,0-1.5,0Zm0,3.44v2.32h1.62a9,9,0,0,0,1.2-.05,1.1,1.1,0,0,0,.64-.35,1.05,1.05,0,0,0,.24-.73,1.09,1.09,0,0,0-.19-.66,1,1,0,0,0-.55-.4,5.9,5.9,0,0,0-1.55-.13Z"/><path class="cls-7" d="M533.94,643.14h3.2a6.19,6.19,0,0,1,1.65.17,2.83,2.83,0,0,1,1.31.8,3.83,3.83,0,0,1,.83,1.4,6.43,6.43,0,0,1,.28,2,5.66,5.66,0,0,1-.26,1.85,3.88,3.88,0,0,1-.93,1.53,3.3,3.3,0,0,1-1.23.69,5.39,5.39,0,0,1-1.55.18h-3.3Zm1.75,1.47v5.74H537a4.55,4.55,0,0,0,1.06-.08,1.59,1.59,0,0,0,.71-.36,1.93,1.93,0,0,0,.46-.84,6.06,6.06,0,0,0,.17-1.59,5.5,5.5,0,0,0-.17-1.54,2,2,0,0,0-.5-.84,1.64,1.64,0,0,0-.81-.41,8.69,8.69,0,0,0-1.44-.08Z"/><path class="cls-7" d="M542.72,651.81v-8.67h1.7l3.55,5.79v-5.79h1.63v8.67h-1.76l-3.5-5.65v5.65Z"/><path class="cls-7" d="M559.27,651.81h-1.91l-.75-2h-3.47l-.72,2h-1.85l3.37-8.67h1.86ZM556,648.38l-1.19-3.21-1.17,3.21Z"/><path class="cls-7" d="M560,649.5v-1.66h3.26v1.66Z"/><path class="cls-7" d="M566.18,651.81v-7.2h-2.57v-1.47h6.89v1.47h-2.57v7.2Z"/><path class="cls-7" d="M571.65,651.81v-8.67h1.7l3.55,5.79v-5.79h1.63v8.67h-1.76l-3.49-5.65v5.65Z"/><path class="cls-7" d="M580.35,651.81v-8.67H583l1.58,5.92,1.55-5.92h2.63v8.67H587.1V645l-1.72,6.82H583.7L582,645v6.82Z"/><path class="cls-7" d="M593.36,651.81v-1.74h-3.54v-1.46l3.76-5.5H595v5.5h1.08v1.46H595v1.74Zm0-3.2v-3l-2,3Z"/><path class="cls-7" d="M597,649.5v-1.66h3.26v1.66Z"/><path class="cls-7" d="M601.24,651.81v-8.67h6.43v1.47H603v1.92h4.36V648H603v2.36h4.85v1.46Z"/><path class="cls-7" d="M609.37,651.81v-8.6h1.75v7.14h4.36v1.46Z"/><path class="cls-7" d="M616.72,651.81v-8.67h6.43v1.47h-4.68v1.92h4.36V648h-4.36v2.36h4.85v1.46Z"/><path class="cls-7" d="M441.23,657.68h3.47a9.61,9.61,0,0,1,1.54.09,2.15,2.15,0,0,1,.9.35,2.25,2.25,0,0,1,.67.73,2,2,0,0,1,.26,1,2.09,2.09,0,0,1-.32,1.12,2,2,0,0,1-.9.76,2.31,2.31,0,0,1,1.22.79,2.06,2.06,0,0,1,.43,1.31,2.53,2.53,0,0,1-.28,1.15,2.25,2.25,0,0,1-.75.89,2.51,2.51,0,0,1-1.17.41c-.29,0-1,.05-2.11.06h-3Zm1.76,1.44v2h1.14c.69,0,1.11,0,1.27,0a1.2,1.2,0,0,0,.71-.31.93.93,0,0,0,.26-.68.92.92,0,0,0-.22-.65,1,1,0,0,0-.66-.31q-.25,0-1.5,0Zm0,3.45v2.32h1.62a9,9,0,0,0,1.2,0,1.1,1.1,0,0,0,.63-.35,1,1,0,0,0,.25-.74,1.09,1.09,0,0,0-.19-.66,1.07,1.07,0,0,0-.55-.39,5.52,5.52,0,0,0-1.55-.13Z"/><path class="cls-7" d="M451.21,662l-1.51-.27a2.38,2.38,0,0,1,.88-1.35,3.21,3.21,0,0,1,1.84-.43,3.93,3.93,0,0,1,1.66.26,1.64,1.64,0,0,1,.76.67,3.35,3.35,0,0,1,.23,1.49l0,1.94a7,7,0,0,0,.08,1.22,3.29,3.29,0,0,0,.3.84h-1.65c0-.11-.09-.27-.16-.49a1.07,1.07,0,0,0-.06-.19,3,3,0,0,1-.91.62,2.74,2.74,0,0,1-1,.2,2.13,2.13,0,0,1-1.53-.52,1.89,1.89,0,0,1-.31-2.28,1.66,1.66,0,0,1,.72-.64,5.28,5.28,0,0,1,1.32-.39,8.89,8.89,0,0,0,1.61-.41v-.16a.87.87,0,0,0-.23-.69,1.49,1.49,0,0,0-.9-.2,1.26,1.26,0,0,0-.69.17A1.18,1.18,0,0,0,451.21,662Zm2.22,1.35a8.18,8.18,0,0,1-1,.26,2.88,2.88,0,0,0-.9.29.69.69,0,0,0-.33.58.83.83,0,0,0,.26.61.92.92,0,0,0,.66.25A1.48,1.48,0,0,0,453,665a1.06,1.06,0,0,0,.4-.55,3.65,3.65,0,0,0,.06-.81Z"/><path class="cls-7" d="M459.58,660.07v1.32h-1.13v2.54a6.67,6.67,0,0,0,0,.89.32.32,0,0,0,.15.21.42.42,0,0,0,.28.08,2.07,2.07,0,0,0,.67-.16l.14,1.29a3.22,3.22,0,0,1-1.31.25,2.09,2.09,0,0,1-.81-.15,1.17,1.17,0,0,1-.53-.39,1.5,1.5,0,0,1-.24-.65,9.09,9.09,0,0,1-.05-1.17v-2.74H456v-1.32h.76v-1.25l1.67-1v2.22Z"/><path class="cls-7" d="M463.62,660.07v1.32h-1.14v2.54a4.68,4.68,0,0,0,0,.89.34.34,0,0,0,.14.21.45.45,0,0,0,.29.08,2,2,0,0,0,.66-.16l.14,1.29a3.19,3.19,0,0,1-1.31.25,2.09,2.09,0,0,1-.81-.15,1.17,1.17,0,0,1-.53-.39,1.5,1.5,0,0,1-.23-.65,7.51,7.51,0,0,1-.05-1.17v-2.74h-.77v-1.32h.77v-1.25l1.66-1v2.22Z"/><path class="cls-7" d="M468.41,664.35l1.66.28a2.76,2.76,0,0,1-1,1.39,3,3,0,0,1-1.73.47,2.78,2.78,0,0,1-2.42-1.07,3.54,3.54,0,0,1-.62-2.16,3.5,3.5,0,0,1,.81-2.45,2.71,2.71,0,0,1,2.07-.88,2.81,2.81,0,0,1,2.21.92,4.09,4.09,0,0,1,.77,2.84H466a1.7,1.7,0,0,0,.4,1.15,1.28,1.28,0,0,0,1,.41A1,1,0,0,0,468,665,1.28,1.28,0,0,0,468.41,664.35Zm.09-1.68a1.54,1.54,0,0,0-.37-1.09,1.1,1.1,0,0,0-.86-.38,1.15,1.15,0,0,0-.9.4,1.52,1.52,0,0,0-.35,1.07Z"/><path class="cls-7" d="M473.1,666.35h-1.66v-6.28H473V661a2.6,2.6,0,0,1,.72-.83,1.25,1.25,0,0,1,.71-.2,2.11,2.11,0,0,1,1.1.31l-.52,1.45a1.47,1.47,0,0,0-.78-.27.91.91,0,0,0-.59.19,1.31,1.31,0,0,0-.38.7,9.93,9.93,0,0,0-.14,2.1Z"/><path class="cls-7" d="M475.44,660.07h1.77l1.5,4.46,1.47-4.46h1.72l-2.22,6-.4,1.09a3.82,3.82,0,0,1-.42.84,1.84,1.84,0,0,1-.45.47,2,2,0,0,1-.63.28,3.2,3.2,0,0,1-.85.1,4.23,4.23,0,0,1-.94-.1l-.15-1.3a3.76,3.76,0,0,0,.7.08,1,1,0,0,0,.86-.35,2.24,2.24,0,0,0,.43-.86Z"/><path class="cls-7" d="M488.29,666.35v-7.2h-2.57v-1.47h6.89v1.47H490v7.2Z"/><path class="cls-7" d="M492,660.07h1.77l1.5,4.46,1.47-4.46h1.72l-2.22,6-.39,1.09a5,5,0,0,1-.42.84,1.84,1.84,0,0,1-.45.47,2.21,2.21,0,0,1-.64.28,3.15,3.15,0,0,1-.85.1,4.23,4.23,0,0,1-.94-.1l-.14-1.3a3.76,3.76,0,0,0,.7.08,1,1,0,0,0,.86-.35,2.38,2.38,0,0,0,.42-.86Z"/><path class="cls-7" d="M499.52,660.07h1.55V661a2.4,2.4,0,0,1,.81-.77,2.26,2.26,0,0,1,1.15-.29,2.38,2.38,0,0,1,1.85.85,3.49,3.49,0,0,1,.77,2.4,3.59,3.59,0,0,1-.77,2.44,2.42,2.42,0,0,1-1.87.87,2.23,2.23,0,0,1-.94-.2,3.32,3.32,0,0,1-.89-.71v3.16h-1.66Zm1.64,3a2.43,2.43,0,0,0,.42,1.57,1.27,1.27,0,0,0,1,.5,1.2,1.2,0,0,0,1-.46,2.37,2.37,0,0,0,.38-1.52,2.31,2.31,0,0,0-.39-1.47,1.23,1.23,0,0,0-1-.48,1.27,1.27,0,0,0-1,.47A2.08,2.08,0,0,0,501.16,663.1Z"/><path class="cls-7" d="M510.6,664.35l1.66.28a2.71,2.71,0,0,1-1,1.39,3,3,0,0,1-1.72.47,2.81,2.81,0,0,1-2.43-1.07,3.61,3.61,0,0,1-.62-2.16,3.46,3.46,0,0,1,.82-2.45,2.67,2.67,0,0,1,2.06-.88,2.79,2.79,0,0,1,2.21.92,4.14,4.14,0,0,1,.78,2.84h-4.17a1.7,1.7,0,0,0,.41,1.15,1.25,1.25,0,0,0,1,.41,1,1,0,0,0,.66-.21A1.28,1.28,0,0,0,510.6,664.35Zm.1-1.68a1.59,1.59,0,0,0-.37-1.09,1.13,1.13,0,0,0-.87-.38,1.15,1.15,0,0,0-.9.4,1.51,1.51,0,0,0-.34,1.07Z"/><path class="cls-7" d="M514,661.73v-1.66h1.67v1.66Zm0,4.62v-1.66h1.67v1.66Z"/><path class="cls-7" d="M521.16,666.35v-8.6h1.75v7.14h4.36v1.46Z"/><path class="cls-7" d="M528.5,659.22v-1.54h1.67v1.54Zm0,7.13v-6.28h1.67v6.28Z"/><path class="cls-7" d="M534.75,660.07v1.32h-1.14v2.54a5.87,5.87,0,0,0,0,.89.32.32,0,0,0,.15.21.42.42,0,0,0,.28.08,2,2,0,0,0,.66-.16l.15,1.29a3.27,3.27,0,0,1-1.32.25,2.09,2.09,0,0,1-.81-.15,1.23,1.23,0,0,1-.53-.39,1.5,1.5,0,0,1-.23-.65,7.51,7.51,0,0,1,0-1.17v-2.74h-.77v-1.32H532v-1.25l1.66-1v2.22Z"/><path class="cls-7" d="M537.56,657.68v3.19a2.45,2.45,0,0,1,1.92-.94,2.48,2.48,0,0,1,1,.21,1.67,1.67,0,0,1,.69.54,1.88,1.88,0,0,1,.32.74,6.25,6.25,0,0,1,.09,1.25v3.68H540V663a5.12,5.12,0,0,0-.09-1.25.77.77,0,0,0-.33-.42,1,1,0,0,0-.6-.16,1.39,1.39,0,0,0-.74.2,1.14,1.14,0,0,0-.48.61,3.62,3.62,0,0,0-.15,1.19v3.15H535.9v-8.67Z"/><path class="cls-7" d="M543.3,659.22v-1.54H545v1.54Zm0,7.13v-6.28H545v6.28Z"/><path class="cls-7" d="M550.81,666.35v-.94a2.33,2.33,0,0,1-.91.79,2.43,2.43,0,0,1-1.18.29,2.33,2.33,0,0,1-1.13-.27,1.64,1.64,0,0,1-.73-.79,3.43,3.43,0,0,1-.23-1.39v-4h1.67V663a8.13,8.13,0,0,0,.09,1.62.85.85,0,0,0,.33.47,1,1,0,0,0,.62.18,1.27,1.27,0,0,0,.76-.24,1.18,1.18,0,0,0,.46-.58,6.24,6.24,0,0,0,.13-1.69v-2.65h1.66v6.28Z"/><path class="cls-7" d="M554,660.07h1.53v.86a2.44,2.44,0,0,1,1.95-1,2.14,2.14,0,0,1,1.05.24,1.91,1.91,0,0,1,.73.76,3,3,0,0,1,.89-.76,2.46,2.46,0,0,1,2.2,0,1.68,1.68,0,0,1,.71.82,3.5,3.5,0,0,1,.17,1.3v4h-1.66v-3.59a2.65,2.65,0,0,0-.17-1.21.79.79,0,0,0-.71-.35,1.17,1.17,0,0,0-.66.21,1.18,1.18,0,0,0-.44.63,4.48,4.48,0,0,0-.13,1.29v3h-1.67v-3.44a4.8,4.8,0,0,0-.09-1.19.75.75,0,0,0-.27-.39.86.86,0,0,0-.51-.13,1.22,1.22,0,0,0-.69.21,1.12,1.12,0,0,0-.44.59,4.47,4.47,0,0,0-.13,1.3v3.05H554Z"/><path class="cls-7" d="M564.65,664v-1.66h3.27V664Z"/><path class="cls-7" d="M568.88,659.22v-1.54h1.66v1.54Zm0,7.13v-6.28h1.66v6.28Z"/><path class="cls-7" d="M571.86,663.12a3.29,3.29,0,0,1,.41-1.6,2.81,2.81,0,0,1,1.15-1.19,3.46,3.46,0,0,1,1.67-.4,3.13,3.13,0,0,1,3.25,3.26,3.27,3.27,0,0,1-.92,2.37,3.13,3.13,0,0,1-2.32.93,3.63,3.63,0,0,1-1.64-.39,2.63,2.63,0,0,1-1.19-1.14A3.76,3.76,0,0,1,571.86,663.12Zm1.7.09a2.11,2.11,0,0,0,.44,1.43,1.44,1.44,0,0,0,1.1.5,1.4,1.4,0,0,0,1.09-.5,2.12,2.12,0,0,0,.44-1.44,2.08,2.08,0,0,0-.44-1.42,1.4,1.4,0,0,0-1.09-.5,1.44,1.44,0,0,0-1.1.5A2.11,2.11,0,0,0,573.56,663.21Z"/><path class="cls-7" d="M585.36,666.35h-1.67v-3.2a5.13,5.13,0,0,0-.1-1.32.91.91,0,0,0-.92-.63,1.33,1.33,0,0,0-.78.24,1.12,1.12,0,0,0-.47.62,5.61,5.61,0,0,0-.13,1.45v2.84h-1.66v-6.28h1.54V661a2.61,2.61,0,0,1,3.08-.87,1.88,1.88,0,0,1,.69.51,1.79,1.79,0,0,1,.32.7,4.59,4.59,0,0,1,.1,1.12Z"/><path class="cls-7" d="M590.42,657.68h3.47a9.61,9.61,0,0,1,1.54.09,2.15,2.15,0,0,1,.9.35,2.25,2.25,0,0,1,.67.73,2,2,0,0,1,.26,1,2.09,2.09,0,0,1-.32,1.12,2,2,0,0,1-.9.76,2.31,2.31,0,0,1,1.22.79,2.06,2.06,0,0,1,.43,1.31,2.53,2.53,0,0,1-.28,1.15,2.25,2.25,0,0,1-.75.89,2.51,2.51,0,0,1-1.17.41c-.29,0-1,.05-2.11.06h-3Zm1.76,1.44v2h1.14c.69,0,1.11,0,1.27,0a1.2,1.2,0,0,0,.71-.31.93.93,0,0,0,.26-.68,1,1,0,0,0-.22-.65,1,1,0,0,0-.66-.31c-.18,0-.67,0-1.5,0Zm0,3.45v2.32h1.62a9,9,0,0,0,1.2,0,1.1,1.1,0,0,0,.63-.35,1,1,0,0,0,.25-.74,1.09,1.09,0,0,0-.19-.66,1.07,1.07,0,0,0-.55-.39,5.52,5.52,0,0,0-1.55-.13Z"/><path class="cls-7" d="M600.4,662l-1.51-.27a2.38,2.38,0,0,1,.88-1.35,3.19,3.19,0,0,1,1.84-.43,4,4,0,0,1,1.66.26,1.64,1.64,0,0,1,.76.67,3.35,3.35,0,0,1,.23,1.49l0,1.94a7,7,0,0,0,.08,1.22,3.29,3.29,0,0,0,.3.84H603c0-.11-.09-.27-.16-.49a1.07,1.07,0,0,0-.06-.19,3,3,0,0,1-.91.62,2.74,2.74,0,0,1-1,.2,2.13,2.13,0,0,1-1.53-.52,1.89,1.89,0,0,1-.31-2.28,1.66,1.66,0,0,1,.72-.64,5.28,5.28,0,0,1,1.32-.39,8.89,8.89,0,0,0,1.61-.41v-.16a.91.91,0,0,0-.23-.69,1.49,1.49,0,0,0-.9-.2,1.26,1.26,0,0,0-.69.17A1.18,1.18,0,0,0,600.4,662Zm2.22,1.35a8.18,8.18,0,0,1-1,.26,2.88,2.88,0,0,0-.9.29.69.69,0,0,0-.33.58.83.83,0,0,0,.26.61.92.92,0,0,0,.66.25,1.48,1.48,0,0,0,.86-.29,1.12,1.12,0,0,0,.4-.55,3.65,3.65,0,0,0,.06-.81Z"/><path class="cls-7" d="M608.77,660.07v1.32h-1.13v2.54a6.67,6.67,0,0,0,0,.89.32.32,0,0,0,.15.21.44.44,0,0,0,.28.08,2.07,2.07,0,0,0,.67-.16l.14,1.29a3.22,3.22,0,0,1-1.31.25,2.09,2.09,0,0,1-.81-.15,1.17,1.17,0,0,1-.53-.39,1.64,1.64,0,0,1-.24-.65,9.09,9.09,0,0,1,0-1.17v-2.74h-.76v-1.32H606v-1.25l1.67-1v2.22Z"/><path class="cls-7" d="M612.81,660.07v1.32h-1.14v2.54a4.68,4.68,0,0,0,0,.89.34.34,0,0,0,.14.21.44.44,0,0,0,.28.08,2,2,0,0,0,.67-.16l.14,1.29a3.19,3.19,0,0,1-1.31.25,2.09,2.09,0,0,1-.81-.15,1.17,1.17,0,0,1-.53-.39,1.5,1.5,0,0,1-.23-.65,7.51,7.51,0,0,1,0-1.17v-2.74h-.77v-1.32H610v-1.25l1.66-1v2.22Z"/><path class="cls-7" d="M617.6,664.35l1.66.28a2.76,2.76,0,0,1-1,1.39,3,3,0,0,1-1.73.47,2.78,2.78,0,0,1-2.42-1.07,3.54,3.54,0,0,1-.62-2.16,3.5,3.5,0,0,1,.81-2.45,2.71,2.71,0,0,1,2.07-.88,2.81,2.81,0,0,1,2.21.92,4.09,4.09,0,0,1,.77,2.84h-4.16a1.7,1.7,0,0,0,.4,1.15,1.28,1.28,0,0,0,1,.41,1,1,0,0,0,.66-.21A1.28,1.28,0,0,0,617.6,664.35Zm.09-1.68a1.54,1.54,0,0,0-.37-1.09,1.11,1.11,0,0,0-.86-.38,1.15,1.15,0,0,0-.9.4,1.52,1.52,0,0,0-.35,1.07Z"/><path class="cls-7" d="M622.29,666.35h-1.66v-6.28h1.54V661a2.6,2.6,0,0,1,.72-.83,1.25,1.25,0,0,1,.71-.2,2.11,2.11,0,0,1,1.1.31l-.52,1.45a1.47,1.47,0,0,0-.78-.27.91.91,0,0,0-.59.19,1.31,1.31,0,0,0-.38.7,9.93,9.93,0,0,0-.14,2.1Z"/><path class="cls-7" d="M624.63,660.07h1.77l1.5,4.46,1.47-4.46h1.72l-2.22,6-.4,1.09a3.82,3.82,0,0,1-.42.84,1.84,1.84,0,0,1-.45.47,2,2,0,0,1-.63.28,3.2,3.2,0,0,1-.85.1,4.17,4.17,0,0,1-.94-.1l-.15-1.3a3.76,3.76,0,0,0,.7.08,1,1,0,0,0,.86-.35,2.24,2.24,0,0,0,.43-.86Z"/><path class="cls-7" d="M418,672.22h3.46a11.32,11.32,0,0,1,1.54.08,2.24,2.24,0,0,1,.9.36,2.15,2.15,0,0,1,.67.73,1.93,1.93,0,0,1,.26,1,2,2,0,0,1-.32,1.12,2.06,2.06,0,0,1-.89.76,2.28,2.28,0,0,1,1.21.79,2.06,2.06,0,0,1,.43,1.3,2.66,2.66,0,0,1-.27,1.16,2.36,2.36,0,0,1-.76.89,2.43,2.43,0,0,1-1.17.41c-.29,0-1,0-2.11.06h-3Zm1.75,1.44v2h1.15c.68,0,1.1,0,1.27,0a1.17,1.17,0,0,0,.7-.31.94.94,0,0,0,.26-.68,1,1,0,0,0-.22-.66,1.07,1.07,0,0,0-.66-.3q-.25,0-1.5,0Zm0,3.45v2.32h1.62a9,9,0,0,0,1.2,0,1.1,1.1,0,0,0,.63-.35,1.05,1.05,0,0,0,.25-.74,1.05,1.05,0,0,0-.74-1.06,6.06,6.06,0,0,0-1.55-.12Z"/><path class="cls-7" d="M427.93,676.52l-1.51-.27a2.35,2.35,0,0,1,.88-1.35,3.21,3.21,0,0,1,1.84-.43,3.9,3.9,0,0,1,1.66.26,1.66,1.66,0,0,1,.77.67,3.52,3.52,0,0,1,.22,1.48l0,1.94a7.16,7.16,0,0,0,.08,1.23,3.29,3.29,0,0,0,.3.84H430.5c0-.11-.09-.27-.16-.49a1.82,1.82,0,0,0,0-.2,2.82,2.82,0,0,1-.92.62,2.53,2.53,0,0,1-1,.21,2.13,2.13,0,0,1-1.53-.52,1.79,1.79,0,0,1-.56-1.34,1.9,1.9,0,0,1,.25-.95,1.7,1.7,0,0,1,.72-.63,5.42,5.42,0,0,1,1.32-.39,8.89,8.89,0,0,0,1.61-.41v-.17a.85.85,0,0,0-.23-.68,1.49,1.49,0,0,0-.9-.2,1.18,1.18,0,0,0-.69.17A1.25,1.25,0,0,0,427.93,676.52Zm2.22,1.35c-.21.07-.55.16-1,.26a2.63,2.63,0,0,0-.9.29.69.69,0,0,0-.33.58.83.83,0,0,0,.26.61.93.93,0,0,0,.67.25,1.4,1.4,0,0,0,.85-.3,1,1,0,0,0,.4-.55,3.52,3.52,0,0,0,.06-.81Z"/><path class="cls-7" d="M436.3,674.61v1.32h-1.13v2.53a6.77,6.77,0,0,0,0,.9.38.38,0,0,0,.15.21.44.44,0,0,0,.28.08,2.07,2.07,0,0,0,.67-.16l.14,1.29a3.22,3.22,0,0,1-1.31.25,2.09,2.09,0,0,1-.81-.15,1.17,1.17,0,0,1-.53-.39,1.7,1.7,0,0,1-.24-.65,9.09,9.09,0,0,1-.05-1.17v-2.74h-.76v-1.32h.76v-1.25l1.67-1v2.22Z"/><path class="cls-7" d="M440.34,674.61v1.32h-1.13v2.53a6.77,6.77,0,0,0,0,.9.38.38,0,0,0,.15.21.42.42,0,0,0,.28.08,2,2,0,0,0,.66-.16l.15,1.29a3.27,3.27,0,0,1-1.32.25,2.09,2.09,0,0,1-.81-.15,1.23,1.23,0,0,1-.53-.39,1.55,1.55,0,0,1-.23-.65,9.09,9.09,0,0,1,0-1.17v-2.74h-.77v-1.32h.77v-1.25l1.67-1v2.22Z"/><path class="cls-7" d="M445.13,678.89l1.66.28a2.71,2.71,0,0,1-1,1.39,3,3,0,0,1-1.72.47,2.81,2.81,0,0,1-2.43-1.07,3.61,3.61,0,0,1-.62-2.16,3.48,3.48,0,0,1,.81-2.45,2.71,2.71,0,0,1,2.07-.88,2.78,2.78,0,0,1,2.21.92,4.12,4.12,0,0,1,.78,2.84h-4.17a1.72,1.72,0,0,0,.4,1.15,1.28,1.28,0,0,0,1,.41,1,1,0,0,0,.66-.21A1.36,1.36,0,0,0,445.13,678.89Zm.1-1.68a1.64,1.64,0,0,0-.38-1.1,1.12,1.12,0,0,0-.86-.37,1.17,1.17,0,0,0-.9.39,1.56,1.56,0,0,0-.35,1.08Z"/><path class="cls-7" d="M449.82,680.89h-1.66v-6.28h1.54v.89a2.72,2.72,0,0,1,.72-.83,1.26,1.26,0,0,1,.72-.2,2.1,2.1,0,0,1,1.09.31l-.51,1.45a1.47,1.47,0,0,0-.79-.27.93.93,0,0,0-.59.19,1.32,1.32,0,0,0-.38.69,10.11,10.11,0,0,0-.14,2.11Z"/><path class="cls-7" d="M452.16,674.61h1.77l1.5,4.46,1.47-4.46h1.72l-2.22,6-.4,1.1a4.7,4.7,0,0,1-.41.84,1.87,1.87,0,0,1-.46.47,2,2,0,0,1-.63.28,3.15,3.15,0,0,1-.85.1,4.23,4.23,0,0,1-.94-.1l-.15-1.3a3.76,3.76,0,0,0,.7.07,1,1,0,0,0,.86-.34,2.24,2.24,0,0,0,.43-.86Z"/><path class="cls-7" d="M468.61,677.7l1.7.54a3.83,3.83,0,0,1-1.3,2.11,4.08,4.08,0,0,1-5.14-.49,4.5,4.5,0,0,1-1.12-3.23,4.77,4.77,0,0,1,1.12-3.36,3.84,3.84,0,0,1,2.94-1.2,3.62,3.62,0,0,1,2.59.94,3.37,3.37,0,0,1,.88,1.6l-1.73.41a1.79,1.79,0,0,0-1.83-1.45,2,2,0,0,0-1.56.69,3.39,3.39,0,0,0-.6,2.24,3.58,3.58,0,0,0,.59,2.34,1.91,1.91,0,0,0,1.54.7,1.8,1.8,0,0,0,1.2-.44A2.65,2.65,0,0,0,468.61,677.7Z"/><path class="cls-7" d="M473,676.52l-1.51-.27a2.35,2.35,0,0,1,.88-1.35,3.21,3.21,0,0,1,1.84-.43,3.9,3.9,0,0,1,1.66.26,1.66,1.66,0,0,1,.77.67,3.52,3.52,0,0,1,.22,1.48l0,1.94a7.16,7.16,0,0,0,.08,1.23,3.29,3.29,0,0,0,.3.84h-1.65c0-.11-.09-.27-.16-.49a1.82,1.82,0,0,0-.05-.2,2.82,2.82,0,0,1-.92.62,2.53,2.53,0,0,1-1,.21,2.13,2.13,0,0,1-1.53-.52,1.79,1.79,0,0,1-.56-1.34,1.9,1.9,0,0,1,.25-.95,1.7,1.7,0,0,1,.72-.63,5.42,5.42,0,0,1,1.32-.39,8.89,8.89,0,0,0,1.61-.41v-.17a.85.85,0,0,0-.23-.68,1.49,1.49,0,0,0-.9-.2,1.18,1.18,0,0,0-.69.17A1.25,1.25,0,0,0,473,676.52Zm2.22,1.35c-.21.07-.55.16-1,.26a2.63,2.63,0,0,0-.9.29.69.69,0,0,0-.33.58.83.83,0,0,0,.26.61.93.93,0,0,0,.67.25,1.4,1.4,0,0,0,.85-.3,1,1,0,0,0,.4-.55,3.52,3.52,0,0,0,.06-.81Z"/><path class="cls-7" d="M478.49,674.61H480v.92a2.3,2.3,0,0,1,.81-.77,2.26,2.26,0,0,1,1.15-.29,2.37,2.37,0,0,1,1.85.85,3.47,3.47,0,0,1,.77,2.39,3.6,3.6,0,0,1-.77,2.45A2.39,2.39,0,0,1,482,681a2.09,2.09,0,0,1-.94-.21,3,3,0,0,1-.89-.71v3.17h-1.66Zm1.64,3a2.43,2.43,0,0,0,.42,1.57,1.32,1.32,0,0,0,1,.5,1.2,1.2,0,0,0,1-.46,2.37,2.37,0,0,0,.39-1.52,2.3,2.3,0,0,0-.4-1.47,1.22,1.22,0,0,0-1-.48,1.27,1.27,0,0,0-1,.47A2.08,2.08,0,0,0,480.13,677.64Z"/><path class="cls-7" d="M487.18,676.52l-1.51-.27a2.35,2.35,0,0,1,.88-1.35,3.19,3.19,0,0,1,1.84-.43,4,4,0,0,1,1.66.26,1.59,1.59,0,0,1,.76.67,3.37,3.37,0,0,1,.22,1.48v1.94a6.26,6.26,0,0,0,.08,1.23,3.29,3.29,0,0,0,.3.84h-1.65c0-.11-.1-.27-.16-.49l-.06-.2a2.78,2.78,0,0,1-.91.62,2.56,2.56,0,0,1-1,.21,2.13,2.13,0,0,1-1.53-.52,1.75,1.75,0,0,1-.56-1.34,1.8,1.8,0,0,1,.25-.95,1.67,1.67,0,0,1,.71-.63,5.52,5.52,0,0,1,1.33-.39,9.13,9.13,0,0,0,1.61-.41v-.17a.88.88,0,0,0-.23-.68,1.49,1.49,0,0,0-.9-.2,1,1,0,0,0-1.09.78Zm2.22,1.35c-.21.07-.55.16-1,.26a2.63,2.63,0,0,0-.9.29.69.69,0,0,0-.33.58.83.83,0,0,0,.26.61.89.89,0,0,0,.66.25,1.43,1.43,0,0,0,.86-.3,1,1,0,0,0,.4-.55,3.52,3.52,0,0,0,.06-.81Z"/><path class="cls-7" d="M498.15,676.46l-1.64.3a1.19,1.19,0,0,0-.37-.74,1.18,1.18,0,0,0-.76-.25,1.24,1.24,0,0,0-1,.43,2.2,2.2,0,0,0-.37,1.44,2.57,2.57,0,0,0,.37,1.58,1.26,1.26,0,0,0,1,.46,1.14,1.14,0,0,0,.78-.27,1.62,1.62,0,0,0,.42-.93l1.63.28a2.93,2.93,0,0,1-1,1.7,3,3,0,0,1-1.94.57,2.85,2.85,0,0,1-2.19-.87,4,4,0,0,1,0-4.83,2.91,2.91,0,0,1,2.22-.86,3,3,0,0,1,1.83.49A2.76,2.76,0,0,1,498.15,676.46Z"/><path class="cls-7" d="M499.41,673.76v-1.54h1.66v1.54Zm0,7.13v-6.28h1.66v6.28Z"/><path class="cls-7" d="M505.66,674.61v1.32h-1.14v2.53a6.77,6.77,0,0,0,0,.9.51.51,0,0,0,.15.21.44.44,0,0,0,.28.08,2,2,0,0,0,.67-.16l.14,1.29a3.19,3.19,0,0,1-1.31.25,2.09,2.09,0,0,1-.81-.15,1.17,1.17,0,0,1-.53-.39,1.55,1.55,0,0,1-.23-.65,7.09,7.09,0,0,1-.06-1.17v-2.74h-.76v-1.32h.76v-1.25l1.67-1v2.22Z"/><path class="cls-7" d="M506,674.61h1.77l1.5,4.46,1.47-4.46h1.72l-2.21,6-.4,1.1a5.41,5.41,0,0,1-.42.84,1.84,1.84,0,0,1-.45.47,2.21,2.21,0,0,1-.64.28,3.12,3.12,0,0,1-.84.1,4.25,4.25,0,0,1-.95-.1l-.14-1.3a3.68,3.68,0,0,0,.7.07,1,1,0,0,0,.86-.34,2.38,2.38,0,0,0,.42-.86Z"/><path class="cls-7" d="M513.87,676.27v-1.66h1.66v1.66Zm0,4.62v-1.66h1.66v1.66Z"/><path class="cls-7" d="M520.59,673.88v-1.54h5.69v1.2a8.84,8.84,0,0,0-1.43,2,11.17,11.17,0,0,0-1.11,2.75,10.21,10.21,0,0,0-.38,2.61h-1.6a11.16,11.16,0,0,1,.74-3.67,12.36,12.36,0,0,1,1.87-3.34Z"/><path class="cls-7" d="M530.14,672.18a2.36,2.36,0,0,1,2,.9,7.74,7.74,0,0,1,0,7.07,2.37,2.37,0,0,1-2,.89,2.49,2.49,0,0,1-2-1,7.86,7.86,0,0,1,.08-7A2.35,2.35,0,0,1,530.14,672.18Zm0,1.38a.83.83,0,0,0-.54.19,1.24,1.24,0,0,0-.36.69,9,9,0,0,0-.18,2.17,9.5,9.5,0,0,0,.16,2.1,1.52,1.52,0,0,0,.38.76.83.83,0,0,0,.54.19.89.89,0,0,0,.54-.19,1.31,1.31,0,0,0,.37-.69,9.77,9.77,0,0,0,.17-2.17,9.39,9.39,0,0,0-.16-2.09,1.52,1.52,0,0,0-.38-.77A.83.83,0,0,0,530.14,673.56Z"/><path class="cls-7" d="M536.88,672.18a2.38,2.38,0,0,1,2,.9,7.82,7.82,0,0,1,0,7.07,2.37,2.37,0,0,1-2,.89,2.47,2.47,0,0,1-2-1,5.68,5.68,0,0,1-.78-3.46,5.79,5.79,0,0,1,.85-3.53A2.38,2.38,0,0,1,536.88,672.18Zm0,1.38a.83.83,0,0,0-.54.19,1.31,1.31,0,0,0-.37.69,14.34,14.34,0,0,0,0,4.27,1.6,1.6,0,0,0,.39.76.83.83,0,0,0,.54.19.89.89,0,0,0,.54-.19,1.31,1.31,0,0,0,.36-.69,9.18,9.18,0,0,0,.17-2.17,9.57,9.57,0,0,0-.15-2.09,1.44,1.44,0,0,0-.39-.77A.78.78,0,0,0,536.88,673.56Z"/><path class="cls-7" d="M541,674.61h1.53v.86a2.46,2.46,0,0,1,2-1,2.13,2.13,0,0,1,1,.24,1.91,1.91,0,0,1,.73.76,3.09,3.09,0,0,1,.89-.76,2.46,2.46,0,0,1,2.2,0,1.71,1.71,0,0,1,.72.82,3.68,3.68,0,0,1,.17,1.3v4h-1.67V677.3a2.62,2.62,0,0,0-.17-1.21.79.79,0,0,0-.71-.35,1.12,1.12,0,0,0-.65.21,1.16,1.16,0,0,0-.45.62,4.61,4.61,0,0,0-.13,1.3v3h-1.67v-3.44a5.61,5.61,0,0,0-.08-1.19.72.72,0,0,0-.28-.39.82.82,0,0,0-.5-.13,1.3,1.3,0,0,0-.7.2,1.18,1.18,0,0,0-.44.6,4.43,4.43,0,0,0-.13,1.3v3H541Z"/><path class="cls-7" d="M553.17,676.52l-1.5-.27a2.39,2.39,0,0,1,.87-1.35,3.24,3.24,0,0,1,1.85-.43,3.88,3.88,0,0,1,1.65.26,1.61,1.61,0,0,1,.77.67,3.37,3.37,0,0,1,.22,1.48l0,1.94a7.16,7.16,0,0,0,.08,1.23,4.28,4.28,0,0,0,.3.84h-1.64a3.51,3.51,0,0,1-.16-.49l-.06-.2a2.89,2.89,0,0,1-.91.62,2.61,2.61,0,0,1-1,.21,2.17,2.17,0,0,1-1.53-.52,1.78,1.78,0,0,1-.55-1.34,1.8,1.8,0,0,1,.25-.95,1.67,1.67,0,0,1,.71-.63,5.56,5.56,0,0,1,1.32-.39,9.06,9.06,0,0,0,1.62-.41v-.17a.85.85,0,0,0-.24-.68,1.45,1.45,0,0,0-.89-.2,1.14,1.14,0,0,0-.69.17A1.26,1.26,0,0,0,553.17,676.52Zm2.23,1.35c-.21.07-.55.16-1,.26a2.71,2.71,0,0,0-.91.29.7.7,0,0,0-.32.58.8.8,0,0,0,.26.61.89.89,0,0,0,.66.25,1.43,1.43,0,0,0,.86-.3,1,1,0,0,0,.39-.55,2.9,2.9,0,0,0,.07-.81Z"/><path class="cls-7" d="M560.33,672.22v3.19a2.49,2.49,0,0,1,2.95-.73,1.7,1.7,0,0,1,.7.54,2,2,0,0,1,.32.74,6.13,6.13,0,0,1,.09,1.24v3.69h-1.67v-3.32a5.07,5.07,0,0,0-.09-1.25.9.9,0,0,0-.34-.43,1.11,1.11,0,0,0-.6-.15,1.44,1.44,0,0,0-.74.2,1.19,1.19,0,0,0-.47.6,3.65,3.65,0,0,0-.15,1.2v3.15h-1.67v-8.67Z"/><path class="cls-7" d="M429,686.75h3.47a9.56,9.56,0,0,1,1.53.09,2.35,2.35,0,0,1,.91.36,2.3,2.3,0,0,1,.66.72,1.94,1.94,0,0,1,.27,1,2,2,0,0,1-.33,1.12,2.12,2.12,0,0,1-.89.76,2.28,2.28,0,0,1,1.22.78,2.14,2.14,0,0,1,.42,1.31,2.59,2.59,0,0,1-.27,1.15,2.37,2.37,0,0,1-.75.9,2.51,2.51,0,0,1-1.18.41c-.29,0-1,0-2.11.06H429Zm1.75,1.45v2h1.15c.68,0,1.1,0,1.27,0a1.16,1.16,0,0,0,.71-.31.91.91,0,0,0,.25-.67,1,1,0,0,0-.22-.66,1,1,0,0,0-.66-.3c-.17,0-.67,0-1.49,0Zm0,3.45V694h1.62a7,7,0,0,0,1.2-.06,1.14,1.14,0,0,0,.64-.34,1.25,1.25,0,0,0,.05-1.4,1,1,0,0,0-.54-.4,6.21,6.21,0,0,0-1.56-.12Z"/><path class="cls-7" d="M438.94,691.06l-1.51-.27a2.42,2.42,0,0,1,.88-1.35,3.22,3.22,0,0,1,1.85-.44,3.85,3.85,0,0,1,1.65.27,1.65,1.65,0,0,1,.77.66,3.42,3.42,0,0,1,.22,1.49l0,1.94a7,7,0,0,0,.08,1.22,3.62,3.62,0,0,0,.3.85h-1.64a4,4,0,0,1-.16-.49l-.06-.2a3.07,3.07,0,0,1-.91.62,2.61,2.61,0,0,1-1,.21,2.17,2.17,0,0,1-1.53-.53,1.75,1.75,0,0,1-.56-1.33,1.81,1.81,0,0,1,.26-1,1.69,1.69,0,0,1,.71-.64,5.62,5.62,0,0,1,1.32-.38,10,10,0,0,0,1.62-.41v-.17a.84.84,0,0,0-.24-.68,1.38,1.38,0,0,0-.89-.21,1.13,1.13,0,0,0-.69.18A1.21,1.21,0,0,0,438.94,691.06Zm2.23,1.35a8.6,8.6,0,0,1-1,.25,3.16,3.16,0,0,0-.91.29.69.69,0,0,0-.32.59.79.79,0,0,0,.26.6.9.9,0,0,0,.66.26,1.45,1.45,0,0,0,.86-.3,1,1,0,0,0,.39-.55,2.9,2.9,0,0,0,.07-.81Z"/><path class="cls-7" d="M447.32,689.14v1.33h-1.14V693a4.9,4.9,0,0,0,0,.9.41.41,0,0,0,.14.21.51.51,0,0,0,.28.08,2,2,0,0,0,.67-.16l.14,1.29a3.36,3.36,0,0,1-1.31.25,2.09,2.09,0,0,1-.81-.15,1.17,1.17,0,0,1-.53-.39,1.55,1.55,0,0,1-.23-.65,7.59,7.59,0,0,1-.05-1.17v-2.74h-.77v-1.33h.77V687.9l1.66-1v2.21Z"/><path class="cls-7" d="M451.35,689.14v1.33h-1.13V693a7,7,0,0,0,0,.9.38.38,0,0,0,.15.21.49.49,0,0,0,.28.08,2.07,2.07,0,0,0,.67-.16l.14,1.29a3.4,3.4,0,0,1-1.31.25,2.09,2.09,0,0,1-.81-.15,1.17,1.17,0,0,1-.53-.39,1.55,1.55,0,0,1-.24-.65,9.21,9.21,0,0,1-.05-1.17v-2.74h-.76v-1.33h.76V687.9l1.67-1v2.21Z"/><path class="cls-7" d="M456.14,693.43l1.66.28a2.72,2.72,0,0,1-1,1.38,2.93,2.93,0,0,1-1.72.48,2.84,2.84,0,0,1-2.43-1.07,3.64,3.64,0,0,1-.62-2.17,3.43,3.43,0,0,1,.82-2.44,2.68,2.68,0,0,1,2.06-.89,2.77,2.77,0,0,1,2.21.93,4.09,4.09,0,0,1,.78,2.83h-4.17a1.68,1.68,0,0,0,.41,1.15,1.23,1.23,0,0,0,1,.42,1,1,0,0,0,.65-.22A1.29,1.29,0,0,0,456.14,693.43Zm.1-1.68a1.61,1.61,0,0,0-.37-1.1,1.17,1.17,0,0,0-.87-.38,1.18,1.18,0,0,0-.9.4,1.52,1.52,0,0,0-.34,1.08Z"/><path class="cls-7" d="M460.84,695.43h-1.67v-6.29h1.55v.9a2.65,2.65,0,0,1,.71-.84,1.34,1.34,0,0,1,.72-.2,2.09,2.09,0,0,1,1.09.32l-.51,1.45a1.4,1.4,0,0,0-.78-.28,1,1,0,0,0-.59.19,1.32,1.32,0,0,0-.39.7,10.24,10.24,0,0,0-.13,2.1Z"/><path class="cls-7" d="M463.17,689.14h1.77l1.5,4.46,1.47-4.46h1.72l-2.22,6.05-.39,1.09a4.62,4.62,0,0,1-.42.84,1.72,1.72,0,0,1-.46.47,1.83,1.83,0,0,1-.63.29,3.6,3.6,0,0,1-.85.1,4.92,4.92,0,0,1-.94-.1l-.15-1.31a3.86,3.86,0,0,0,.71.08,1.05,1.05,0,0,0,.86-.34,2.52,2.52,0,0,0,.42-.87Z"/><path class="cls-7" d="M474.07,695.43v-8.68h2.81a10.85,10.85,0,0,1,2.09.13,2.29,2.29,0,0,1,1.24.85,2.68,2.68,0,0,1,.51,1.69,2.93,2.93,0,0,1-.29,1.35,2.46,2.46,0,0,1-.74.85,2.54,2.54,0,0,1-.91.41,10.11,10.11,0,0,1-1.81.13h-1.15v3.27Zm1.75-7.21v2.46h1a4.69,4.69,0,0,0,1.39-.13,1.16,1.16,0,0,0,.54-.43,1.11,1.11,0,0,0,.2-.67,1.12,1.12,0,0,0-.28-.79,1.21,1.21,0,0,0-.7-.38,8.32,8.32,0,0,0-1.26-.06Z"/><path class="cls-7" d="M481.76,692.2a3.44,3.44,0,0,1,.41-1.61,2.79,2.79,0,0,1,1.15-1.18A3.47,3.47,0,0,1,485,689a3.14,3.14,0,0,1,2.34.93,3.48,3.48,0,0,1,0,4.7,3.08,3.08,0,0,1-2.31.94,3.64,3.64,0,0,1-1.65-.39,2.65,2.65,0,0,1-1.19-1.15A3.81,3.81,0,0,1,481.76,692.2Zm1.7.08a2.07,2.07,0,0,0,.45,1.44,1.46,1.46,0,0,0,2.18,0,2.1,2.1,0,0,0,.44-1.45,2,2,0,0,0-.44-1.42,1.46,1.46,0,0,0-2.18,0A2.06,2.06,0,0,0,483.46,692.28Z"/><path class="cls-7" d="M490.71,695.43l-2-6.29h1.61l1.18,4.12,1.08-4.12h1.6l1.05,4.12,1.2-4.12h1.64l-2,6.29h-1.59l-1.09-4-1.06,4Z"/><path class="cls-7" d="M502.6,693.43l1.66.28a2.72,2.72,0,0,1-1,1.38,2.93,2.93,0,0,1-1.72.48,2.83,2.83,0,0,1-2.43-1.07,3.64,3.64,0,0,1-.62-2.17,3.43,3.43,0,0,1,.82-2.44,2.68,2.68,0,0,1,2.06-.89,2.78,2.78,0,0,1,2.21.93,4.09,4.09,0,0,1,.78,2.83h-4.17a1.68,1.68,0,0,0,.41,1.15,1.22,1.22,0,0,0,1,.42,1,1,0,0,0,.66-.22A1.29,1.29,0,0,0,502.6,693.43Zm.1-1.68a1.61,1.61,0,0,0-.37-1.1,1.17,1.17,0,0,0-.87-.38,1.18,1.18,0,0,0-.9.4,1.58,1.58,0,0,0-.35,1.08Z"/><path class="cls-7" d="M507.29,695.43h-1.66v-6.29h1.55v.9a2.65,2.65,0,0,1,.71-.84,1.34,1.34,0,0,1,.72-.2,2.09,2.09,0,0,1,1.09.32l-.51,1.45a1.4,1.4,0,0,0-.78-.28,1,1,0,0,0-.6.19,1.38,1.38,0,0,0-.38.7,10,10,0,0,0-.14,2.1Z"/><path class="cls-7" d="M514.1,690.81v-1.67h1.66v1.67Zm0,4.62v-1.67h1.66v1.67Z"/><path class="cls-7" d="M524.13,693.12l1.61-.19a1.5,1.5,0,0,0,.42.94,1.16,1.16,0,0,0,1.68-.06,1.56,1.56,0,0,0,.35-1.06,1.41,1.41,0,0,0-.33-1,1.07,1.07,0,0,0-.83-.37,2.68,2.68,0,0,0-.76.13l.18-1.36a1.44,1.44,0,0,0,1-.29,1,1,0,0,0,.36-.83.9.9,0,0,0-1-.95,1,1,0,0,0-.72.29,1.4,1.4,0,0,0-.37.86l-1.53-.26a3.37,3.37,0,0,1,.48-1.25,2.2,2.2,0,0,1,.9-.74,3,3,0,0,1,1.29-.27,2.6,2.6,0,0,1,2,.78,2,2,0,0,1-.64,3.27,2,2,0,0,1,1.19.71,2.07,2.07,0,0,1,.45,1.34,2.61,2.61,0,0,1-.84,1.95,2.84,2.84,0,0,1-2.07.8,2.88,2.88,0,0,1-2-.67A2.74,2.74,0,0,1,524.13,693.12Z"/><path class="cls-7" d="M531.29,695.43v-1.67H533v1.67Z"/><path class="cls-7" d="M539.93,688.88l-1.61.18a1.16,1.16,0,0,0-.31-.74.87.87,0,0,0-.64-.23,1.07,1.07,0,0,0-.89.47,4,4,0,0,0-.46,2,1.94,1.94,0,0,1,1.54-.74,2.37,2.37,0,0,1,1.79.8,2.89,2.89,0,0,1,.74,2,3,3,0,0,1-.78,2.14,2.66,2.66,0,0,1-2,.8,2.7,2.7,0,0,1-2.16-1,5.26,5.26,0,0,1-.84-3.34,5.34,5.34,0,0,1,.88-3.44,2.85,2.85,0,0,1,2.29-1,2.4,2.4,0,0,1,1.63.55A2.58,2.58,0,0,1,539.93,688.88Zm-3.77,3.62a2,2,0,0,0,.37,1.26,1.12,1.12,0,0,0,.86.44.94.94,0,0,0,.76-.37,1.78,1.78,0,0,0,.31-1.18,1.92,1.92,0,0,0-.33-1.24,1,1,0,0,0-.83-.39,1,1,0,0,0-.81.37A1.65,1.65,0,0,0,536.16,692.5Z"/><path class="cls-7" d="M543.61,695.43l-3.09-8.68h1.89l2.2,6.42,2.12-6.42h1.86l-3.11,8.68Z"/><path class="cls-7" d="M548.58,695.57l2.15-9H552l-2.17,9Z"/><path class="cls-7" d="M558.1,693.88v1.55h-5.83a3.87,3.87,0,0,1,.57-1.66,10.55,10.55,0,0,1,1.87-2.08,12.3,12.3,0,0,0,1.37-1.42,1.84,1.84,0,0,0,.35-1,1.14,1.14,0,0,0-.3-.85,1.28,1.28,0,0,0-1.66,0,1.64,1.64,0,0,0-.35,1l-1.66-.16a2.72,2.72,0,0,1,.93-2,3.1,3.1,0,0,1,2-.6,2.83,2.83,0,0,1,2,.69,2.28,2.28,0,0,1,.74,1.72,3.27,3.27,0,0,1-.21,1.12,4.82,4.82,0,0,1-.67,1.11,10.63,10.63,0,0,1-1.09,1.1c-.52.48-.86.8-1,1a3.07,3.07,0,0,0-.33.46Z"/><path class="cls-7" d="M559.24,693.2l1.66-.17a1.41,1.41,0,0,0,.42.88,1.13,1.13,0,0,0,.8.33,1.15,1.15,0,0,0,.89-.42,1.94,1.94,0,0,0,.36-1.28,1.71,1.71,0,0,0-.36-1.19,1.18,1.18,0,0,0-.93-.4,1.71,1.71,0,0,0-1.29.63l-1.35-.19.86-4.52h4.39v1.56h-3.13l-.26,1.47a2.55,2.55,0,0,1,1.13-.28,2.51,2.51,0,0,1,1.88.81,2.9,2.9,0,0,1,.77,2.09,3.11,3.11,0,0,1-.63,1.91,2.74,2.74,0,0,1-2.34,1.14,2.91,2.91,0,0,1-2-.64A2.65,2.65,0,0,1,559.24,693.2Z"/><path class="cls-7" d="M566.31,695.43v-1.67H568v1.67Z"/><path class="cls-7" d="M574.94,693.88v1.55h-5.83a3.87,3.87,0,0,1,.57-1.66,10.55,10.55,0,0,1,1.87-2.08,10.7,10.7,0,0,0,1.37-1.42,1.84,1.84,0,0,0,.35-1,1.14,1.14,0,0,0-.3-.85,1.11,1.11,0,0,0-.83-.3,1.09,1.09,0,0,0-.82.31,1.58,1.58,0,0,0-.36,1l-1.66-.16a2.72,2.72,0,0,1,.93-2,3.13,3.13,0,0,1,2-.6,2.82,2.82,0,0,1,2,.69,2.28,2.28,0,0,1,.74,1.72,3.05,3.05,0,0,1-.21,1.12,4.82,4.82,0,0,1-.67,1.11,10.63,10.63,0,0,1-1.09,1.1q-.78.72-1,1a2.58,2.58,0,0,0-.34.46Z"/><path class="cls-7" d="M577.66,695.43l-2.07-8.68h1.79l1.31,6,1.58-6h2.08l1.52,6.06,1.33-6.06H587l-2.11,8.68H583l-1.72-6.49-1.72,6.49Z"/><path class="cls-7" d="M589.51,686.75v3.19a2.45,2.45,0,0,1,1.92-.94,2.32,2.32,0,0,1,1,.22,1.7,1.7,0,0,1,.7.54,2.09,2.09,0,0,1,.32.73,7.43,7.43,0,0,1,.08,1.25v3.69H591.9v-3.32a5.23,5.23,0,0,0-.09-1.26.88.88,0,0,0-.34-.42,1.11,1.11,0,0,0-.6-.16,1.44,1.44,0,0,0-.74.2,1.22,1.22,0,0,0-.47.61,3.65,3.65,0,0,0-.15,1.2v3.15h-1.67v-8.68Z"/><path class="cls-7" d="M483.41,710v-8.6h1.76v7.14h4.35V710Z"/><path class="cls-7" d="M490.37,706.73a3.43,3.43,0,0,1,.41-1.6,2.75,2.75,0,0,1,1.16-1.18,3.44,3.44,0,0,1,1.67-.41,3.1,3.1,0,0,1,2.33.93,3.17,3.17,0,0,1,.92,2.34,3.25,3.25,0,0,1-.92,2.36,3.15,3.15,0,0,1-2.32.94,3.64,3.64,0,0,1-1.65-.39,2.7,2.7,0,0,1-1.19-1.15A3.82,3.82,0,0,1,490.37,706.73Zm1.71.09a2,2,0,0,0,.44,1.43,1.37,1.37,0,0,0,1.09.5,1.36,1.36,0,0,0,1.09-.5,2.5,2.5,0,0,0,0-2.86,1.38,1.38,0,0,0-1.09-.49,1.4,1.4,0,0,0-1.09.49A2.06,2.06,0,0,0,492.08,706.82Z"/><path class="cls-7" d="M498.17,710v-8.67h3.69a6.14,6.14,0,0,1,2,.24,2,2,0,0,1,1,.83,2.51,2.51,0,0,1,.38,1.36,2.36,2.36,0,0,1-.58,1.62,2.75,2.75,0,0,1-1.71.8,3.94,3.94,0,0,1,.93.72,10.39,10.39,0,0,1,1,1.41L506,710h-2.09l-1.27-1.88a13.61,13.61,0,0,0-.92-1.28,1.47,1.47,0,0,0-.53-.36,3,3,0,0,0-.88-.1h-.36V710Zm1.75-5h1.3a6.64,6.64,0,0,0,1.57-.11,1,1,0,0,0,.5-.36,1.21,1.21,0,0,0,.17-.65,1.06,1.06,0,0,0-.23-.71,1.11,1.11,0,0,0-.66-.34c-.14,0-.57,0-1.28,0h-1.37Z"/><path class="cls-7" d="M508.15,705.6l-1.51-.27a2.32,2.32,0,0,1,.88-1.35,3.18,3.18,0,0,1,1.84-.44,4.13,4.13,0,0,1,1.66.26,1.64,1.64,0,0,1,.76.67A3.42,3.42,0,0,1,512,706v1.94a6.14,6.14,0,0,0,.08,1.22,3.29,3.29,0,0,0,.3.84h-1.65c0-.11-.1-.27-.16-.49l-.06-.19a3.13,3.13,0,0,1-.91.62,2.56,2.56,0,0,1-1,.21,2.14,2.14,0,0,1-1.53-.53,1.73,1.73,0,0,1-.56-1.33,1.77,1.77,0,0,1,.25-1,1.69,1.69,0,0,1,.71-.64,5.52,5.52,0,0,1,1.33-.39,9.36,9.36,0,0,0,1.61-.4v-.17a.84.84,0,0,0-.24-.68,1.36,1.36,0,0,0-.89-.21,1.18,1.18,0,0,0-.69.18A1.14,1.14,0,0,0,508.15,705.6Zm2.22,1.35c-.21.07-.55.15-1,.25a3.18,3.18,0,0,0-.9.29.7.7,0,0,0-.33.59.83.83,0,0,0,.26.6.89.89,0,0,0,.66.25,1.42,1.42,0,0,0,.86-.29,1.08,1.08,0,0,0,.4-.55,3.52,3.52,0,0,0,.06-.81Z"/><path class="cls-7" d="M514,705.35v-1.67h1.66v1.67Zm0,4.61V708.3h1.66V710Z"/><path class="cls-7" d="M521,701.29h1.75V706a8.71,8.71,0,0,0,.07,1.45,1.37,1.37,0,0,0,.53.85,1.86,1.86,0,0,0,1.16.33,1.76,1.76,0,0,0,1.12-.31,1.16,1.16,0,0,0,.46-.75,9.68,9.68,0,0,0,.08-1.47v-4.8H528v4.56a11,11,0,0,1-.15,2.2,2.31,2.31,0,0,1-.52,1.09,2.59,2.59,0,0,1-1,.71,4.53,4.53,0,0,1-1.67.26,4.65,4.65,0,0,1-1.88-.29,2.53,2.53,0,0,1-1-.74,2.47,2.47,0,0,1-.5-1,10.88,10.88,0,0,1-.17-2.2Z"/><path class="cls-7" d="M529.36,707.14l1.7-.16a2,2,0,0,0,.63,1.26,1.85,1.85,0,0,0,1.26.4,2,2,0,0,0,1.28-.36,1.09,1.09,0,0,0,.43-.84.8.8,0,0,0-.18-.52,1.41,1.41,0,0,0-.63-.37c-.21-.08-.67-.2-1.4-.38a4.86,4.86,0,0,1-2-.86,2.27,2.27,0,0,1-.42-3,2.35,2.35,0,0,1,1.08-.87,4.35,4.35,0,0,1,1.71-.31,3.62,3.62,0,0,1,2.45.72,2.55,2.55,0,0,1,.87,1.91l-1.75.08a1.47,1.47,0,0,0-.48-1,1.75,1.75,0,0,0-1.11-.3,2,2,0,0,0-1.2.32.66.66,0,0,0,0,1.06,4.42,4.42,0,0,0,1.6.58,8.14,8.14,0,0,1,1.9.63,2.37,2.37,0,0,1,.95.88,2.72,2.72,0,0,1-.06,2.77,2.46,2.46,0,0,1-1.18,1,4.88,4.88,0,0,1-1.88.32,3.8,3.8,0,0,1-2.53-.76A3.29,3.29,0,0,1,529.36,707.14Z"/><path class="cls-7" d="M540.92,708l1.61-.18a1.15,1.15,0,0,0,.3.73.92.92,0,0,0,.66.24,1.08,1.08,0,0,0,.88-.48,4.05,4.05,0,0,0,.46-2,2,2,0,0,1-1.57.73,2.39,2.39,0,0,1-1.77-.79,2.91,2.91,0,0,1-.74-2.06,2.94,2.94,0,0,1,.78-2.13,2.86,2.86,0,0,1,4.17.22,5.29,5.29,0,0,1,.84,3.35,5.36,5.36,0,0,1-.88,3.44,2.85,2.85,0,0,1-2.29,1,2.45,2.45,0,0,1-1.65-.54A2.61,2.61,0,0,1,540.92,708Zm3.76-3.63a1.87,1.87,0,0,0-.37-1.25,1.08,1.08,0,0,0-.85-.44,1,1,0,0,0-.77.36,2.45,2.45,0,0,0,0,2.42,1.06,1.06,0,0,0,1.64,0A1.64,1.64,0,0,0,544.68,704.33Z"/><path class="cls-7" d="M551.87,710h-1.66V703.7a5.66,5.66,0,0,1-2.15,1.26v-1.51a4.66,4.66,0,0,0,1.42-.81,3,3,0,0,0,1-1.38h1.35Z"/><path class="cls-7" d="M554.38,707.73l1.66-.17a1.39,1.39,0,0,0,.42.89,1.13,1.13,0,0,0,.8.33,1.11,1.11,0,0,0,.88-.42,1.94,1.94,0,0,0,.36-1.28,1.76,1.76,0,0,0-.35-1.19,1.18,1.18,0,0,0-.93-.4,1.71,1.71,0,0,0-1.29.63l-1.35-.2.85-4.51h4.4V703h-3.14l-.26,1.47a2.53,2.53,0,0,1,3,.53,2.85,2.85,0,0,1,.77,2.08,3.13,3.13,0,0,1-.62,1.92,2.75,2.75,0,0,1-2.35,1.14,2.88,2.88,0,0,1-2-.64A2.65,2.65,0,0,1,554.38,707.73Z"/><path class="cls-7" d="M561.44,710v-8.67h2.62l1.57,5.92,1.56-5.92h2.62V710h-1.62v-6.82L566.47,710h-1.69l-1.72-6.82V710Z"/><path class="cls-7" d="M571.56,710v-8.67h1.75v3.42h3.43v-3.42h1.75V710h-1.75v-3.79h-3.43V710Z"/><path class="cls-7" d="M579.62,710v-1.29L582,706c.38-.45.67-.76.85-1a7.56,7.56,0,0,1-.76,0h-2.22v-1.38H585v1.18l-2.4,2.77-.84.92.86,0h2.57V710Z"/><path class="cls-7" d="M588.83,710.11l2.14-9h1.25l-2.17,9Z"/><path class="cls-7" d="M596.46,710v-8.67h6.43v1.47h-4.68v1.92h4.35v1.46h-4.35v2.36h4.84V710Z"/><path class="cls-7" d="M604.52,701.29h1.75V706a10,10,0,0,0,.07,1.45,1.39,1.39,0,0,0,.54.85,2.19,2.19,0,0,0,2.28,0,1.19,1.19,0,0,0,.45-.75,9.68,9.68,0,0,0,.08-1.47v-4.8h1.75v4.56a12.1,12.1,0,0,1-.14,2.2,2.42,2.42,0,0,1-.53,1.09,2.59,2.59,0,0,1-1,.71,4.53,4.53,0,0,1-1.67.26,4.65,4.65,0,0,1-1.88-.29,2.61,2.61,0,0,1-1-.74,2.31,2.31,0,0,1-.49-1,10.07,10.07,0,0,1-.18-2.2Z"/><path class="cls-7" d="M617.71,705.28a2,2,0,0,1-.94-.74,2,2,0,0,1-.29-1,2.11,2.11,0,0,1,.68-1.6,3.24,3.24,0,0,1,3.84,0,2.07,2.07,0,0,1,.68,1.6,1.92,1.92,0,0,1-.31,1.08,2,2,0,0,1-.88.71,2.39,2.39,0,0,1,1.1.85,2.25,2.25,0,0,1,.37,1.29,2.61,2.61,0,0,1-.76,2,2.79,2.79,0,0,1-2,.75,3.09,3.09,0,0,1-2-.62,2.42,2.42,0,0,1-.93-2,2.56,2.56,0,0,1,.35-1.3A2.29,2.29,0,0,1,617.71,705.28Zm.19,2.05a1.57,1.57,0,0,0,.35,1.07,1.17,1.17,0,0,0,.88.38,1.09,1.09,0,0,0,.85-.37,1.51,1.51,0,0,0,.34-1.07,1.44,1.44,0,0,0-.34-1,1.16,1.16,0,0,0-.87-.37,1.06,1.06,0,0,0-.91.42A1.58,1.58,0,0,0,617.9,707.33Zm.15-3.72a1.09,1.09,0,0,0,.28.78,1,1,0,0,0,.75.27,1,1,0,0,0,1-1,1,1,0,0,0-1-1,1,1,0,0,0-1.05,1Z"/><path class="cls-7" d="M628.65,703.42l-1.61.17a1.2,1.2,0,0,0-.3-.73.9.9,0,0,0-.65-.24,1.08,1.08,0,0,0-.89.48,4.06,4.06,0,0,0-.46,2,2,2,0,0,1,1.55-.74,2.35,2.35,0,0,1,1.78.8,2.83,2.83,0,0,1,.74,2,3,3,0,0,1-.78,2.14,2.84,2.84,0,0,1-4.16-.22,5.19,5.19,0,0,1-.85-3.34,5.4,5.4,0,0,1,.88-3.44,2.85,2.85,0,0,1,2.29-1,2.43,2.43,0,0,1,1.64.55A2.57,2.57,0,0,1,628.65,703.42ZM624.89,707a1.87,1.87,0,0,0,.37,1.25,1.08,1.08,0,0,0,.85.44,1,1,0,0,0,.77-.36,1.83,1.83,0,0,0,.31-1.18,1.86,1.86,0,0,0-.34-1.24,1.06,1.06,0,0,0-1.63,0A1.64,1.64,0,0,0,624.89,707Z"/><path class="cls-7" d="M631.19,705.28a1.83,1.83,0,0,1-1.23-1.79,2.1,2.1,0,0,1,.67-1.6,3.26,3.26,0,0,1,3.85,0,2.11,2.11,0,0,1,.68,1.6,1.92,1.92,0,0,1-.31,1.08,2,2,0,0,1-.88.71,2.36,2.36,0,0,1,1.09.85,2.25,2.25,0,0,1,.38,1.29,2.61,2.61,0,0,1-.77,2,2.78,2.78,0,0,1-2,.75,3.14,3.14,0,0,1-2-.62,2.63,2.63,0,0,1-.57-3.31A2.29,2.29,0,0,1,631.19,705.28Zm.18,2.05a1.52,1.52,0,0,0,.36,1.07,1.14,1.14,0,0,0,.88.38,1.1,1.1,0,0,0,.85-.37,1.56,1.56,0,0,0,.33-1.07,1.39,1.39,0,0,0-.34-1,1.16,1.16,0,0,0-.87-.37,1.08,1.08,0,0,0-.91.42A1.58,1.58,0,0,0,631.37,707.33Zm.16-3.72a1,1,0,0,0,1,1,1,1,0,0,0,.76-.28,1.05,1.05,0,0,0,.28-.77,1,1,0,0,0-.28-.75,1,1,0,0,0-.74-.28,1,1,0,0,0-.77.28A1,1,0,0,0,631.53,703.61Z"/><path class="cls-7" d="M636.84,710v-8.67h2.62l1.58,5.92,1.55-5.92h2.63V710h-1.63v-6.82L641.87,710h-1.69l-1.71-6.82V710Z"/><path class="cls-7" d="M647,710v-8.67h1.75v3.42h3.43v-3.42h1.75V710h-1.75v-3.79h-3.43V710Z"/><path class="cls-7" d="M655,710v-1.29l2.36-2.7c.38-.45.67-.76.86-1-.2,0-.45,0-.77,0h-2.22v-1.38h5.2v1.18l-2.4,2.77-.85.92.86,0h2.57V710Z"/><path class="cls-7" d="M437.69,724.5v-8.67h2.62l1.57,5.92,1.56-5.92h2.63v8.67h-1.63v-6.82l-1.72,6.82H441l-1.71-6.82v6.82Z"/><path class="cls-7" d="M449,720.13l-1.51-.27a2.42,2.42,0,0,1,.87-1.35,3.24,3.24,0,0,1,1.85-.43,3.88,3.88,0,0,1,1.65.26,1.67,1.67,0,0,1,.77.67,3.39,3.39,0,0,1,.22,1.49l0,1.94a7,7,0,0,0,.08,1.22,4.28,4.28,0,0,0,.3.84h-1.64c0-.11-.1-.27-.16-.49l-.06-.19a3.13,3.13,0,0,1-.91.62,2.79,2.79,0,0,1-1,.2,2.17,2.17,0,0,1-1.53-.52,1.9,1.9,0,0,1-.3-2.28,1.69,1.69,0,0,1,.71-.64,5.52,5.52,0,0,1,1.33-.39,9.13,9.13,0,0,0,1.61-.41v-.16a.87.87,0,0,0-.24-.69,1.45,1.45,0,0,0-.89-.2,1.21,1.21,0,0,0-.69.17A1.18,1.18,0,0,0,449,720.13Zm2.22,1.35a8.18,8.18,0,0,1-1,.26,3,3,0,0,0-.91.29.7.7,0,0,0-.32.58.8.8,0,0,0,.26.61.89.89,0,0,0,.66.25,1.48,1.48,0,0,0,.86-.29,1.12,1.12,0,0,0,.4-.55,3.65,3.65,0,0,0,.06-.81Z"/><path class="cls-7" d="M460.25,724.5h-1.67v-3.2a5.13,5.13,0,0,0-.1-1.32,1,1,0,0,0-.35-.47,1,1,0,0,0-.58-.16,1.32,1.32,0,0,0-.77.24,1.12,1.12,0,0,0-.47.62,5.19,5.19,0,0,0-.13,1.45v2.84h-1.66v-6.28h1.54v.92a2.61,2.61,0,0,1,3.08-.87,1.88,1.88,0,0,1,.69.51,1.94,1.94,0,0,1,.32.7,4.59,4.59,0,0,1,.1,1.12Z"/><path class="cls-7" d="M466.07,724.5v-.94a2.37,2.37,0,0,1-.9.79,2.48,2.48,0,0,1-1.18.29,2.24,2.24,0,0,1-1.14-.28,1.58,1.58,0,0,1-.73-.78,3.45,3.45,0,0,1-.22-1.39v-4h1.66v2.89a8.13,8.13,0,0,0,.09,1.62.82.82,0,0,0,.34.47,1,1,0,0,0,.61.18,1.27,1.27,0,0,0,.76-.24,1.12,1.12,0,0,0,.46-.58,6.24,6.24,0,0,0,.13-1.69v-2.65h1.66v6.28Z"/><path class="cls-7" d="M468.6,718.22h.93v-.47a3.26,3.26,0,0,1,.16-1.19,1.37,1.37,0,0,1,.63-.63,2.29,2.29,0,0,1,1.14-.25,4.68,4.68,0,0,1,1.39.21l-.22,1.16a3.51,3.51,0,0,0-.77-.09.71.71,0,0,0-.52.17,1,1,0,0,0-.15.65v.44h1.24v1.31h-1.24v5h-1.66v-5h-.93Z"/><path class="cls-7" d="M474.61,720.13l-1.51-.27a2.38,2.38,0,0,1,.88-1.35,3.19,3.19,0,0,1,1.84-.43,4,4,0,0,1,1.66.26,1.69,1.69,0,0,1,.76.67,3.39,3.39,0,0,1,.22,1.49v1.94a6.14,6.14,0,0,0,.08,1.22,3.29,3.29,0,0,0,.3.84h-1.65c0-.11-.1-.27-.16-.49l-.06-.19a3.13,3.13,0,0,1-.91.62,2.74,2.74,0,0,1-1,.2,2.13,2.13,0,0,1-1.53-.52,1.73,1.73,0,0,1-.56-1.33,1.75,1.75,0,0,1,.25-.95,1.69,1.69,0,0,1,.71-.64,5.52,5.52,0,0,1,1.33-.39,9.13,9.13,0,0,0,1.61-.41v-.16a.87.87,0,0,0-.24-.69,1.43,1.43,0,0,0-.89-.2,1.26,1.26,0,0,0-.69.17A1.18,1.18,0,0,0,474.61,720.13Zm2.22,1.35a8.18,8.18,0,0,1-1,.26,2.88,2.88,0,0,0-.9.29.69.69,0,0,0-.33.58.83.83,0,0,0,.26.61.89.89,0,0,0,.66.25,1.48,1.48,0,0,0,.86-.29,1.12,1.12,0,0,0,.4-.55,3.65,3.65,0,0,0,.06-.81Z"/><path class="cls-7" d="M485.58,720.08l-1.64.29a1.22,1.22,0,0,0-.37-.74,1.18,1.18,0,0,0-.76-.25,1.24,1.24,0,0,0-1,.43,2.2,2.2,0,0,0-.38,1.44,2.56,2.56,0,0,0,.38,1.58,1.23,1.23,0,0,0,1,.46,1.11,1.11,0,0,0,.77-.27,1.56,1.56,0,0,0,.43-.93l1.63.28a2.9,2.9,0,0,1-1,1.7,3,3,0,0,1-1.94.57,2.85,2.85,0,0,1-2.19-.87,3.34,3.34,0,0,1-.82-2.4,3.39,3.39,0,0,1,.82-2.43,2.94,2.94,0,0,1,2.22-.86,3,3,0,0,1,1.83.49A2.75,2.75,0,0,1,485.58,720.08Z"/><path class="cls-7" d="M489.72,718.22v1.32h-1.13v2.54a6.67,6.67,0,0,0,0,.89.32.32,0,0,0,.15.21.42.42,0,0,0,.28.08,2.13,2.13,0,0,0,.67-.16l.14,1.29a3.27,3.27,0,0,1-1.32.25,2.09,2.09,0,0,1-.81-.15,1.23,1.23,0,0,1-.53-.39,1.5,1.5,0,0,1-.23-.65,9.09,9.09,0,0,1-.05-1.17v-2.74h-.77v-1.32h.77V717l1.67-1v2.22Z"/><path class="cls-7" d="M495,724.5v-.94a2.37,2.37,0,0,1-.9.79,2.48,2.48,0,0,1-1.18.29,2.29,2.29,0,0,1-1.14-.28,1.63,1.63,0,0,1-.73-.78,3.45,3.45,0,0,1-.22-1.39v-4h1.66v2.89a8.13,8.13,0,0,0,.09,1.62.86.86,0,0,0,.34.47,1,1,0,0,0,.61.18,1.3,1.3,0,0,0,.77-.24,1.23,1.23,0,0,0,.46-.58,6.9,6.9,0,0,0,.12-1.69v-2.65h1.66v6.28Z"/><path class="cls-7" d="M499.87,724.5h-1.66v-6.28h1.54v.89a2.59,2.59,0,0,1,.71-.83,1.26,1.26,0,0,1,.72-.2,2.08,2.08,0,0,1,1.09.31l-.51,1.45a1.47,1.47,0,0,0-.78-.27.91.91,0,0,0-.59.19,1.39,1.39,0,0,0-.39.7,10.17,10.17,0,0,0-.13,2.1Z"/><path class="cls-7" d="M506.63,722.5l1.65.28a2.71,2.71,0,0,1-1,1.39,3,3,0,0,1-1.72.47,2.78,2.78,0,0,1-2.42-1.07,3.54,3.54,0,0,1-.63-2.16,3.5,3.5,0,0,1,.82-2.45,2.68,2.68,0,0,1,2.07-.88,2.78,2.78,0,0,1,2.21.92,4.09,4.09,0,0,1,.77,2.84h-4.16a1.67,1.67,0,0,0,.4,1.15,1.28,1.28,0,0,0,1,.41,1,1,0,0,0,.66-.21A1.34,1.34,0,0,0,506.63,722.5Zm.09-1.68a1.58,1.58,0,0,0-.37-1.1,1.15,1.15,0,0,0-.86-.37,1.12,1.12,0,0,0-.9.4,1.47,1.47,0,0,0-.35,1.07Z"/><path class="cls-7" d="M511.32,724.5h-1.66v-6.28h1.54v.89a2.59,2.59,0,0,1,.71-.83,1.26,1.26,0,0,1,.72-.2,2.11,2.11,0,0,1,1.1.31l-.52,1.45a1.47,1.47,0,0,0-.78-.27.91.91,0,0,0-.59.19,1.31,1.31,0,0,0-.38.7,9.93,9.93,0,0,0-.14,2.1Z"/><path class="cls-7" d="M514.76,719.88v-1.66h1.66v1.66Zm0,4.62v-1.66h1.66v1.66Z"/><path class="cls-7" d="M521.85,724.5v-8.67h6.43v1.47H523.6v1.92H528v1.46H523.6V723h4.85v1.46Z"/><path class="cls-7" d="M529.92,724.5v-8.67h1.66v8.67Z"/><path class="cls-7" d="M536.93,722.5l1.65.28a2.71,2.71,0,0,1-1,1.39,3,3,0,0,1-1.72.47,2.81,2.81,0,0,1-2.43-1.07,3.61,3.61,0,0,1-.62-2.16,3.46,3.46,0,0,1,.82-2.45,2.67,2.67,0,0,1,2.06-.88,2.75,2.75,0,0,1,2.21.92,4.09,4.09,0,0,1,.78,2.84h-4.16a1.67,1.67,0,0,0,.4,1.15,1.25,1.25,0,0,0,1,.41,1,1,0,0,0,.65-.21A1.35,1.35,0,0,0,536.93,722.5Zm.09-1.68a1.63,1.63,0,0,0-.37-1.1,1.21,1.21,0,0,0-1.77,0,1.51,1.51,0,0,0-.34,1.07Z"/><path class="cls-7" d="M545.5,720.08l-1.64.29a1.22,1.22,0,0,0-.37-.74,1.18,1.18,0,0,0-.76-.25,1.24,1.24,0,0,0-1,.43,2.2,2.2,0,0,0-.37,1.44,2.57,2.57,0,0,0,.37,1.58,1.23,1.23,0,0,0,1,.46,1.12,1.12,0,0,0,.78-.27,1.62,1.62,0,0,0,.42-.93l1.64.28a2.91,2.91,0,0,1-1,1.7,3,3,0,0,1-1.93.57,2.87,2.87,0,0,1-2.2-.87,3.34,3.34,0,0,1-.82-2.4,3.39,3.39,0,0,1,.82-2.43,3,3,0,0,1,2.23-.86,3,3,0,0,1,1.82.49A2.7,2.7,0,0,1,545.5,720.08Z"/><path class="cls-7" d="M548.35,724.5h-1.66v-6.28h1.55v.89a2.59,2.59,0,0,1,.71-.83,1.26,1.26,0,0,1,.72-.2,2.08,2.08,0,0,1,1.09.31l-.51,1.45a1.47,1.47,0,0,0-.78-.27.94.94,0,0,0-.6.19,1.38,1.38,0,0,0-.38.7,9.93,9.93,0,0,0-.14,2.1Z"/><path class="cls-7" d="M551.09,721.27a3.4,3.4,0,0,1,.41-1.6,2.83,2.83,0,0,1,1.16-1.19,3.44,3.44,0,0,1,1.67-.4,3.1,3.1,0,0,1,2.33.92,3.2,3.2,0,0,1,.92,2.34,3.27,3.27,0,0,1-.92,2.37,3.14,3.14,0,0,1-2.32.93,3.67,3.67,0,0,1-1.65-.39,2.68,2.68,0,0,1-1.19-1.14A3.88,3.88,0,0,1,551.09,721.27Zm1.71.09a2.06,2.06,0,0,0,.44,1.43,1.42,1.42,0,0,0,1.09.5,1.39,1.39,0,0,0,1.09-.5,2.07,2.07,0,0,0,.45-1.44,2,2,0,0,0-.45-1.42,1.39,1.39,0,0,0-1.09-.5,1.42,1.42,0,0,0-1.09.5A2.06,2.06,0,0,0,552.8,721.36Z"/><path class="cls-7" d="M560.05,724.5l-2-6.28h1.62l1.17,4.12,1.09-4.12h1.6l1.05,4.12,1.2-4.12h1.64l-2,6.28h-1.6l-1.08-4-1.07,4Z"/><path class="cls-7" d="M493,782.48v-8.85h2.67l1.61,6,1.58-6h2.68v8.85h-1.66v-7l-1.75,7h-1.72l-1.75-7v7Z"/><path class="cls-7" d="M504.52,778l-1.54-.28a2.42,2.42,0,0,1,.9-1.38,3.32,3.32,0,0,1,1.88-.44,4.26,4.26,0,0,1,1.69.26,1.67,1.67,0,0,1,.78.69,3.49,3.49,0,0,1,.22,1.51v2a6.43,6.43,0,0,0,.08,1.25,3.41,3.41,0,0,0,.3.86h-1.67c0-.11-.1-.28-.17-.5l-.06-.2a3.06,3.06,0,0,1-.93.63,2.66,2.66,0,0,1-1.05.21,2.22,2.22,0,0,1-1.56-.53,1.79,1.79,0,0,1-.57-1.36,1.76,1.76,0,0,1,.26-1,1.68,1.68,0,0,1,.72-.65,6.35,6.35,0,0,1,1.35-.4,9.34,9.34,0,0,0,1.65-.41v-.17a.88.88,0,0,0-.24-.7,1.44,1.44,0,0,0-.91-.21,1.22,1.22,0,0,0-.71.18A1.28,1.28,0,0,0,504.52,778Zm2.27,1.37c-.22.07-.56.16-1,.26a2.89,2.89,0,0,0-.92.3.68.68,0,0,0-.34.59.83.83,0,0,0,.27.62.94.94,0,0,0,.67.26,1.48,1.48,0,0,0,.88-.3,1.09,1.09,0,0,0,.4-.56,3.07,3.07,0,0,0,.07-.83Z"/><path class="cls-7" d="M516,782.48h-1.57v-.94a2.46,2.46,0,0,1-.93.81,2.33,2.33,0,0,1-1.08.27,2.43,2.43,0,0,1-1.89-.89,3.63,3.63,0,0,1-.78-2.48,3.59,3.59,0,0,1,.76-2.48,2.51,2.51,0,0,1,1.94-.84,2.4,2.4,0,0,1,1.86.89v-3.19H516Zm-4.52-3.34a2.93,2.93,0,0,0,.28,1.48,1.29,1.29,0,0,0,1.15.66,1.23,1.23,0,0,0,1-.49,2.28,2.28,0,0,0,.41-1.49,2.47,2.47,0,0,0-.4-1.59,1.26,1.26,0,0,0-1-.49,1.29,1.29,0,0,0-1,.48A2.19,2.19,0,0,0,511.48,779.14Z"/><path class="cls-7" d="M521.38,780.44l1.69.28a2.82,2.82,0,0,1-1,1.42,3,3,0,0,1-1.76.48,2.86,2.86,0,0,1-2.47-1.09,3.68,3.68,0,0,1-.63-2.21,3.55,3.55,0,0,1,.83-2.49,2.76,2.76,0,0,1,2.11-.9,2.83,2.83,0,0,1,2.25.94,4.14,4.14,0,0,1,.79,2.89h-4.24a1.67,1.67,0,0,0,.41,1.18,1.26,1.26,0,0,0,1,.42,1.06,1.06,0,0,0,.67-.22A1.36,1.36,0,0,0,521.38,780.44Zm.1-1.71a1.6,1.6,0,0,0-.38-1.12,1.16,1.16,0,0,0-.88-.39,1.19,1.19,0,0,0-.92.41,1.53,1.53,0,0,0-.35,1.1Z"/><path class="cls-7" d="M528,775.2v-1.57h1.69v1.57Zm0,7.28v-6.41h1.69v6.41Z"/><path class="cls-7" d="M537.24,782.48h-1.7v-3.27a4.69,4.69,0,0,0-.11-1.34.92.92,0,0,0-.35-.48,1,1,0,0,0-.59-.17,1.36,1.36,0,0,0-.79.24,1.32,1.32,0,0,0-.48.64,5.9,5.9,0,0,0-.13,1.48v2.9H531.4v-6.41H533V777a2.57,2.57,0,0,1,2.11-1.08,2.46,2.46,0,0,1,1,.2,1.74,1.74,0,0,1,.7.51,1.83,1.83,0,0,1,.33.72,4.72,4.72,0,0,1,.1,1.14Z"/><path class="cls-7" d="M548.06,779.23l1.73.55a4,4,0,0,1-1.32,2.15,4.18,4.18,0,0,1-5.25-.5,4.61,4.61,0,0,1-1.13-3.3,4.85,4.85,0,0,1,1.14-3.43,3.93,3.93,0,0,1,3-1.22,3.66,3.66,0,0,1,2.63,1,3.51,3.51,0,0,1,.91,1.63l-1.77.42a1.84,1.84,0,0,0-1.87-1.48,2,2,0,0,0-1.59.71,3.44,3.44,0,0,0-.61,2.28,3.72,3.72,0,0,0,.6,2.39,1.93,1.93,0,0,0,1.57.71,1.79,1.79,0,0,0,1.22-.45A2.66,2.66,0,0,0,548.06,779.23Z"/><path class="cls-7" d="M553,773.63v3.26a2.5,2.5,0,0,1,2-1,2.61,2.61,0,0,1,1.06.21,1.67,1.67,0,0,1,.7.56,2,2,0,0,1,.33.75,6.41,6.41,0,0,1,.09,1.27v3.76h-1.7v-3.39a5.44,5.44,0,0,0-.09-1.28.9.9,0,0,0-.34-.43,1.19,1.19,0,0,0-.62-.16,1.37,1.37,0,0,0-.75.21,1.23,1.23,0,0,0-.49.62,3.74,3.74,0,0,0-.15,1.22v3.21h-1.7v-8.85Z"/><path class="cls-7" d="M558.86,775.2v-1.57h1.69v1.57Zm0,7.28v-6.41h1.69v6.41Z"/><path class="cls-7" d="M568.12,782.48h-1.7v-3.27a4.69,4.69,0,0,0-.11-1.34.92.92,0,0,0-.35-.48,1,1,0,0,0-.59-.17,1.39,1.39,0,0,0-.79.24,1.32,1.32,0,0,0-.48.64,5.9,5.9,0,0,0-.13,1.48v2.9h-1.69v-6.41h1.57V777a2.58,2.58,0,0,1,2.11-1.08,2.46,2.46,0,0,1,1,.2,1.74,1.74,0,0,1,.7.51,1.83,1.83,0,0,1,.33.72,4.72,4.72,0,0,1,.1,1.14Z"/><path class="cls-7" d="M571.1,778l-1.53-.28a2.41,2.41,0,0,1,.89-1.38,3.32,3.32,0,0,1,1.88-.44,4.23,4.23,0,0,1,1.69.26,1.67,1.67,0,0,1,.78.69,3.46,3.46,0,0,1,.23,1.51l0,2a7.35,7.35,0,0,0,.08,1.25,3.85,3.85,0,0,0,.3.86h-1.67c-.05-.11-.1-.28-.17-.5a.68.68,0,0,0-.06-.2,3,3,0,0,1-.92.63,2.71,2.71,0,0,1-1.06.21,2.22,2.22,0,0,1-1.56-.53,1.79,1.79,0,0,1-.57-1.36,1.85,1.85,0,0,1,.26-1,1.65,1.65,0,0,1,.73-.65,6.06,6.06,0,0,1,1.34-.4,9.1,9.1,0,0,0,1.65-.41v-.17a.88.88,0,0,0-.24-.7,1.42,1.42,0,0,0-.91-.21,1.22,1.22,0,0,0-.71.18A1.28,1.28,0,0,0,571.1,778Zm2.27,1.37c-.22.07-.56.16-1,.26a2.89,2.89,0,0,0-.92.3.69.69,0,0,0-.33.59.82.82,0,0,0,.26.62.94.94,0,0,0,.68.26,1.48,1.48,0,0,0,.87-.3,1.11,1.11,0,0,0,.41-.56,3.74,3.74,0,0,0,.06-.83Z"/><path class="cls-7" d="M452,762.66c-4.55,0-8.25-4-8.25-8.89s3.7-8.88,8.25-8.88v2.41c-3.22,0-5.84,2.9-5.84,6.47s2.62,6.48,5.84,6.48Z"/><path class="cls-7" d="M463.77,762.66c-4.55,0-8.25-4-8.25-8.89s3.7-8.88,8.25-8.88v2.41c-3.22,0-5.84,2.9-5.84,6.47s2.62,6.48,5.84,6.48Z"/><rect class="cls-7" x="456.72" y="752.57" width="5.17" height="2.41"/><polyline class="cls-9" points="479.74 745.72 474.59 745.72 474.59 761.96"/><line class="cls-9" x1="474.59" y1="753.84" x2="479.74" y2="753.84"/><path class="cls-9" d="M494,758.49a8.11,8.11,0,1,1-.12-9.48"/><path class="cls-9" d="M490.68,756.4a4.1,4.1,0,0,1-3.29,1.62,4.18,4.18,0,1,1,3.49-6.51"/><path class="cls-10" d="M511.44,756.85a3,3,0,0,0,3.91,0,2.09,2.09,0,0,0-.06-3.09,3,3,0,0,0-2.82-.54.43.43,0,0,1-.55-.42V751H516"/><path class="cls-11" d="M521.76,752.5a9.42,9.42,0,0,1,.18,1.78,8.05,8.05,0,0,1-7.86,8.22,7.91,7.91,0,0,1-7.44-5.58"/><path class="cls-11" d="M506.22,754.28a8,8,0,0,1,7.86-8.21,7.79,7.79,0,0,1,7,4.48"/><polygon class="cls-7" points="521.55 751.75 520.39 753.62 523.44 752.9 521.55 751.75"/><polygon class="cls-7" points="506.24 755.17 507.99 753.62 504.46 753.62 506.24 755.17"/><circle class="cls-8" cx="542.09" cy="753.84" r="8.68"/><path class="cls-8" d="M627.79,753.83a8.45,8.45,0,0,1-.63,3.23,8.67,8.67,0,0,1-16,.15v0a8.34,8.34,0,0,1-.68-3.36,8.68,8.68,0,0,1,17.35,0Z"/><line class="cls-8" x1="534.76" y1="749.19" x2="549.49" y2="758.34"/><path class="cls-8" d="M542.09,762.51s.72-.8-2.08-3.1-2.8-4.94,0-8.43c2.47-3.07,1.6-5.22,1.36-5.69,0,0,0,0,0,0,.67.43,4.77,3.17,5.58,7.25.89,4.45-4.64,5.29-4.54,10"/><path class="cls-7" d="M542,761.63c-1.74-2.82-1.85-4.73-.4-7.29s.51-3.92.51-3.92,1.77,1.05,1.35,3.86-1.86,4.14-.88,6.81"/><polygon class="cls-7" points="562.28 749.19 565.07 751.98 568.12 746.58 571.09 750.01 570.33 750.67 573.66 750.42 575.09 747.24 573.91 747.65 571.76 745.16 565.2 745.16 562.28 749.19"/><polygon class="cls-7" points="575.79 750.46 571.93 752.32 575.36 757.33 570.6 757.63 570.41 756.63 568.94 759.63 570.94 762.48 571.19 761.26 574.69 761.26 577.77 755.03 575.79 750.46"/><polygon class="cls-7" points="567.02 761.64 567.54 757.38 561.47 757.58 563.78 753.41 564.72 753.79 562.99 750.93 559.51 751.08 560.41 751.95 558.51 754.9 562.11 760.85 567.02 761.64"/><line class="cls-8" x1="586.56" y1="742.98" x2="601.83" y2="760.07"/><line class="cls-8" x1="601.83" y1="743.52" x2="586.96" y2="760.07"/><polyline class="cls-7" points="589.33 746.76 600 746.76 600 745.16 597.84 745.16 597.84 744.26 591.35 744.26 590.53 745.08 589.33 745.08 589.33 746.76"/><polyline class="cls-8" points="590.68 746.29 591.62 757.37 597.23 757.37 598.38 745.88"/><line class="cls-8" x1="592.17" y1="757.37" x2="592.17" y2="758.99"/><line class="cls-8" x1="596.42" y1="757.37" x2="596.42" y2="758.99"/><path class="cls-7" d="M627.16,757.06a8.67,8.67,0,0,1-16,.15v0a4.85,4.85,0,0,1,4.36,0c2.15,1.21,2.77-1.11,4.59-.53s2.32,1.33,3.8.4A3.56,3.56,0,0,1,627.16,757.06Z"/><path class="cls-8" d="M616.78,748.61a2.3,2.3,0,0,0-.55,2.92c1,1.6,1.39,2.61-.17,4.17"/><path class="cls-8" d="M619.61,748.61a2.29,2.29,0,0,0-.55,2.92c1,1.6,1.39,2.61-.17,4.17"/><path class="cls-8" d="M622.43,748.61a2.3,2.3,0,0,0-.55,2.92c1,1.6,1.4,2.61-.17,4.17"/><line class="cls-8" x1="614.16" y1="746.71" x2="624.08" y2="758.32"/><polygon class="cls-3" points="385.8 610.98 385.8 620.32 369.45 603.51 369.45 594.17 377.61 602.56 377.61 610.03 384.87 610.03 385.8 610.98"/><polygon class="cls-3" points="387.27 327.15 377.61 326.56 369.45 318.18 369.45 308.83 387.27 327.15"/><polygon class="cls-3" points="369.45 326.66 377.61 335.05 377.61 344.39 369.45 336 369.45 326.66"/><polygon class="cls-3" points="369.45 362.33 377.61 370.72 377.61 380.06 369.45 371.67 369.45 362.33"/><polygon class="cls-3" points="369.45 344.5 377.61 352.89 377.61 362.23 369.45 353.84 369.45 344.5"/><polygon class="cls-3" points="369.45 576.34 377.61 584.74 377.61 594.06 369.45 585.67 369.45 576.34"/><polygon class="cls-3" points="369.45 487.17 377.61 495.56 377.61 504.89 369.45 496.5 369.45 487.17"/><polygon class="cls-3" points="369.45 469.34 377.61 477.73 377.61 487.07 369.45 478.68 369.45 469.34"/><polygon class="cls-3" points="369.45 398 377.61 406.39 377.61 415.73 369.45 407.34 369.45 398"/><polygon class="cls-3" points="369.45 451.5 377.61 459.89 377.61 469.23 369.45 460.84 369.45 451.5"/><polygon class="cls-3" points="369.45 505.01 377.61 513.4 377.61 522.74 369.45 514.35 369.45 505.01"/><polygon class="cls-3" points="369.45 380.17 377.61 388.56 377.61 397.89 369.45 389.5 369.45 380.17"/><polygon class="cls-3" points="369.45 558.5 377.61 566.89 377.61 576.23 369.45 567.84 369.45 558.5"/><polygon class="cls-3" points="369.45 415.83 377.61 424.22 377.61 433.56 369.45 425.17 369.45 415.83"/><polygon class="cls-3" points="369.45 540.67 377.61 549.07 377.61 558.4 369.45 550.01 369.45 540.67"/><polygon class="cls-3" points="369.45 433.67 377.61 442.06 377.61 451.4 369.45 443.01 369.45 433.67"/><polygon class="cls-3" points="369.45 522.83 377.61 531.22 377.61 540.56 369.45 532.17 369.45 522.83"/><polygon class="cls-3" points="678.34 610.98 678.34 620.32 694.68 603.51 694.68 594.17 686.52 602.56 686.52 610.03 679.26 610.03 678.34 610.98"/><polygon class="cls-3" points="672.92 331.2 686.52 326.56 694.68 318.18 694.68 308.83 672.92 331.2"/><polygon class="cls-3" points="694.68 326.66 686.52 335.05 686.52 344.39 694.68 336 694.68 326.66"/><polygon class="cls-3" points="694.68 362.33 686.52 370.72 686.52 380.06 694.68 371.67 694.68 362.33"/><polygon class="cls-3" points="694.68 344.5 686.52 352.89 686.52 362.23 694.68 353.84 694.68 344.5"/><polygon class="cls-3" points="694.68 576.34 686.52 584.74 686.52 594.06 694.68 585.67 694.68 576.34"/><polygon class="cls-3" points="694.68 487.17 686.52 495.56 686.52 504.89 694.68 496.5 694.68 487.17"/><polygon class="cls-3" points="694.68 469.34 686.52 477.73 686.52 487.07 694.68 478.68 694.68 469.34"/><polygon class="cls-3" points="694.68 398 686.52 406.39 686.52 415.73 694.68 407.34 694.68 398"/><polygon class="cls-3" points="694.68 451.5 686.52 459.89 686.52 469.23 694.68 460.84 694.68 451.5"/><polygon class="cls-3" points="694.68 505.01 686.52 513.4 686.52 522.74 694.68 514.35 694.68 505.01"/><polygon class="cls-3" points="694.68 380.17 686.52 388.56 686.52 397.89 694.68 389.5 694.68 380.17"/><polygon class="cls-3" points="694.68 558.5 686.52 566.89 686.52 576.23 694.68 567.84 694.68 558.5"/><polygon class="cls-3" points="694.68 415.83 686.52 424.22 686.52 433.56 694.68 425.17 694.68 415.83"/><polygon class="cls-3" points="694.68 540.67 686.52 549.07 686.52 558.4 694.68 550.01 694.68 540.67"/><polygon class="cls-3" points="694.68 433.67 686.52 442.06 686.52 451.4 694.68 443.01 694.68 433.67"/><polygon class="cls-3" points="694.68 522.83 686.52 531.22 686.52 540.56 694.68 532.17 694.68 522.83"/><polygon class="cls-7" points="370.36 764.59 395.63 764.59 405.67 754.55 405.67 618.38 397.74 610.46 358.8 610.46 358.8 757.5 368.64 766.06 370.36 764.59"/><polygon class="cls-7" points="703.48 610.46 703.48 760.8 699.6 764.68 699.49 764.59 674.22 764.59 664.17 754.54 664.17 618.39 672.1 610.46 703.48 610.46"/><polygon class="cls-7" points="480.52 783.34 489.86 783.34 481.44 775.16 472.1 775.16 480.52 783.34"/><polygon class="cls-7" points="462.68 783.34 472.01 783.34 463.61 775.16 454.27 775.16 462.68 783.34"/><polygon class="cls-7" points="444.85 783.34 454.19 783.34 445.77 775.16 436.43 775.16 444.85 783.34"/><polygon class="cls-7" points="427.02 783.34 436.35 783.34 427.94 775.16 418.6 775.16 427.02 783.34"/><polygon class="cls-7" points="409.18 783.34 418.52 783.34 410.1 775.16 400.76 775.16 409.18 783.34"/><polygon class="cls-7" points="391.35 783.34 400.69 783.34 392.27 775.16 382.93 775.16 391.35 783.34"/><polygon class="cls-7" points="595.68 783.34 586.34 783.34 594.76 775.16 604.09 775.16 595.68 783.34"/><polygon class="cls-7" points="613.51 783.34 604.17 783.34 612.59 775.16 621.93 775.16 613.51 783.34"/><polygon class="cls-7" points="631.35 783.34 622.01 783.34 630.42 775.16 639.76 775.16 631.35 783.34"/><polygon class="cls-7" points="649.18 783.34 639.84 783.34 648.26 775.16 657.6 775.16 649.18 783.34"/><polygon class="cls-7" points="667.01 783.34 657.68 783.34 666.09 775.16 675.42 775.16 667.01 783.34"/><path class="cls-7" d="M664.71,269.51H393.49l-38.77,38.76V760.8l38.77,38.77H664.71l34.89-34.89,3.88-3.88V308.27ZM363.1,311.75,397,277.88h264.3l33.85,33.87V757.32l-7.27,7.28-26.58,26.59H397L365.4,759.64l-2.3-2.3Z"/><circle class="cls-3" cx="385.83" cy="723.29" r="17.2"/><circle class="cls-3" cx="385.83" cy="631.37" r="6.48"/><circle class="cls-12" cx="385.83" cy="664.69" r="3.82"/><rect class="cls-13" x="754.88" y="291.8" width="6.71" height="13.73"/><path class="cls-5" d="M754.88,799.57H769.8a4.72,4.72,0,0,1,4.72,4.72V840.9a4.72,4.72,0,0,1-4.72,4.72H754.88a0,0,0,0,1,0,0v-46A0,0,0,0,1,754.88,799.57Z"/><path class="cls-14" d="M785.14,860.1v6.06h0l-50.21.08-16.63,0V202.91h66.27s.21,1-1.1,3.19-5.91,3.19-5.91,3.19H766.22V225c0,1.73-2.46,3-2.46,3h-8.88V854s20.73,0,24.25.21S785.14,860.1,785.14,860.1Z"/><path class="cls-15" d="M849.41,271V798a68.23,68.23,0,0,1-64.27,68.14V860.1s-2.49-5.63-6-5.85-24.25-.21-24.25-.21V228h8.88s2.45-1.31,2.46-3V209.29h11.32s4.59-1,5.91-3.19,1.1-3.19,1.1-3.19H734.91v-.11h46.26A68.24,68.24,0,0,1,849.41,271Z"/><path class="cls-16" d="M252.36,428.12l73.08,13.1.61-105.83s-17-4.39-29.15-4.55-14.24.06-14.24.06l-4.74,25.67s.5,3.68-7.15,6.78-8.9,6.11-9.33,7.85S252.36,428.12,252.36,428.12Z"/><path class="cls-2" d="M313.39,245.57S338.44,161,469.6,133.82c1.63-.34,102.27-17.92,178.16,0,0,0,35.1,7,59.23,24.09S737.26,189,737.26,189l4,9.26,9.45.29a3.79,3.79,0,0,1,1.7,2.67v1.56c0-.49-54.55-.15-54.55-.15s-31.76-35-102.66-38.45S495.94,166.43,461.6,176s-56.3,26.61-56.3,26.61-24.9-4.29-46.7,10-29.3,37.83-29.3,37.83S316.53,247.77,313.39,245.57Z"/><path class="cls-2" d="M290.71,324l-.71,6.53,31.34,4s-2-6.52-11.21-10.45S290.71,324,290.71,324Z"/><path class="cls-2" d="M329.3,250.44a34.27,34.27,0,0,1-14.65-4.18c-7.34-4.09-8.42-8.91-17.47-5.6s-20.93,30-24.72,50.79-3.2,40.87,2.65,41.47,6.22-1.53,10.86-5.77,12.95-6.71,20.94-4.17,11.73,8.25,13.24,9.12,5.9,3.29,5.9,3.29V265.91S327.14,252,329.3,250.44Z"/><path class="cls-1" d="M236.75,459s-2.33,2.4,25.27,11.2,47.58,15.34,54.58,15.73,9.45,0,9.45,0v22.85l-22.69,73.39s1.11,7.71-11.92,16.85c0,0-6.31,6.25-23,0s-49.62-15.3-49.62-15.3-10.12-3.11-8.87-16.33,4.05-19,4.05-19Z"/></g><g id="Layer_2" data-name="Layer 2"><rect class="cls-17" x="326.13" y="202.8" width="523.28" height="663.47" rx="68.25"/><line class="cls-17" x1="718.28" y1="866.27" x2="718.28" y2="202.8"/><line class="cls-17" x1="754.88" y1="854.04" x2="754.88" y2="209.29"/><polyline class="cls-17" points="718.28 780.97 727.35 780.97 727.35 818.17 718.28 818.17"/><polyline class="cls-17" points="718.28 515.94 727.35 515.94 727.35 553.14 718.28 553.14"/><polyline class="cls-17" points="718.28 250.91 727.35 250.91 727.35 288.1 718.28 288.1"/><polygon class="cls-17" points="703.49 308.27 703.49 760.8 664.72 799.57 393.49 799.57 354.72 760.8 354.72 308.27 393.49 269.5 664.72 269.5 703.49 308.27"/><path class="cls-17" d="M718.28,209.29h58.38a8.82,8.82,0,0,0,8.48-6.38"/><rect class="cls-17" x="774.51" y="434.42" width="60.39" height="329.27" rx="14.3"/><line class="cls-17" x1="788.82" y1="434.42" x2="754.88" y2="434.42"/><line class="cls-17" x1="788.82" y1="763.69" x2="754.88" y2="763.69"/><path class="cls-17" d="M754.88,402.4h25.19a10.23,10.23,0,0,0,10.22-10.23V323.54a10.23,10.23,0,0,0-10.22-10.22H754.88"/><path class="cls-17" d="M754.88,281.84H768.3a9.25,9.25,0,0,0,9.25-9.25v-63.3"/><path class="cls-17" d="M754.88,228.05h7.75a3.58,3.58,0,0,0,3.58-3.58V209.29"/><path class="cls-17" d="M703.75,202.8v-1.56a3,3,0,0,1,3-3h42.69a3,3,0,0,1,3,3v1.56"/><path class="cls-17" d="M711.83,198.28s-17.42-49-151.42-48.06-187,55.88-187,55.88"/><path class="cls-17" d="M313.39,245.91C321,222.78,367.94,131.14,542.6,125.39c180.22-5.94,198.62,72.89,198.62,72.89"/><path class="cls-17" d="M404.39,202.8c25.77-16.9,71.06-37.3,141.56-39.74C665,158.94,696.89,200.33,698.68,202.8l.08.11"/><path class="cls-17" d="M329.3,250.44c-11.48-1.37-16.71-4.4-19.06-7.08-3.49-4-9.25-5.2-13.69-2.34-4.89,3.15-10.56,9.5-15.46,22-9.51,24.36-15.09,54.11-9.35,66.6a6.39,6.39,0,0,0,10.92,1.23,1.71,1.71,0,0,0,.11-.14c4.43-6.09,11.68-11.36,27.36-6.72,8.52,2.53,9.92,11.74,16,11.39"/><path class="cls-17" d="M273.39,287.45S262.64,296.2,255,340.2c-6.53,37.47-15.11,98.64-17.52,116a6,6,0,0,0,3.83,6.4c16.85,6.29,76,27.74,84.85,22.5"/><path class="cls-17" d="M246.66,464.58,261,372.93a10.12,10.12,0,0,1,5.54-7.52l6.49-3.17a10.12,10.12,0,0,0,5.53-7.37l3.94-23a1.32,1.32,0,0,1,1.14-1.09c3.4-.36,15.82-1.06,40,4.2"/><line class="cls-17" x1="290" y1="330.52" x2="290.71" y2="323.99"/><line class="cls-17" x1="252.36" y1="428.12" x2="326.13" y2="441.22"/><path class="cls-17" d="M237.45,456.19l-26.9,107.05a18.7,18.7,0,0,0,12.86,22.5l51.07,15a22.44,22.44,0,0,0,27.83-15.09l23.82-79.62"/><path class="cls-17" d="M718.28,854h59a7.81,7.81,0,0,1,7.82,7.81v4.3"/><path class="cls-17" d="M766.5,845.61h4.32a3.69,3.69,0,0,0,3.69-3.7V803.27a3.7,3.7,0,0,0-3.69-3.7H766.5Z"/><line class="cls-17" x1="766.5" y1="845.61" x2="754.88" y2="845.61"/><line class="cls-17" x1="766.5" y1="799.57" x2="754.88" y2="799.57"/><polyline class="cls-17" points="754.88 291.8 761.6 291.8 761.6 305.53 754.88 305.53"/><circle class="cls-18" cx="385.83" cy="631.64" r="6.44"/><circle class="cls-17" cx="385.83" cy="723.54" r="17.2"/><circle class="cls-19" cx="385.83" cy="664.71" r="5.36"/><text class="cls-20" transform="translate(377.61 647.68)">T&amp;H</text><text class="cls-21" transform="translate(371.8 683.81)">Status</text><text class="cls-21" transform="translate(366.68 751.05)">Function</text></g></svg>