<svg xmlns="http://www.w3.org/2000/svg" viewBox="0 0 470.13 470.13"><defs><style>.cls-1{fill:#3d3d3d;}.cls-2{fill:#97621d;}.cls-3{fill:#1e1f1e;}.cls-4{fill:#2c2c2c;}.cls-5{fill:#d2d2cd;}.cls-6{fill:#feffff;}.cls-7{fill:#1d1d1b;}.cls-8{fill:#fdfefb;}.cls-9{fill:none;stroke:#1d1d1b;stroke-miterlimit:10;stroke-width:0.38px;}.cls-10{fill:#a3a2a2;}</style></defs><g id="Layer_2" data-name="Layer 2"><rect class="cls-1" x="38.79" y="113.99" width="385.42" height="226.21" rx="5.64"/><path class="cls-2" d="M265.61,337.11v3.09H194.52v-3.09h-9.1a20.34,20.34,0,0,1-8,3.3l-51.52.11a29.53,29.53,0,0,1-10.26-3.41Z"/><path class="cls-3" d="M50.19,116.37V337.11H412.8V116.37ZM401.51,318.79H55.1V123H401.51Z"/><rect class="cls-4" x="55.1" y="123" width="346.41" height="195.79"/><path class="cls-5" d="M50.19,228.24v3.47a1.43,1.43,0,0,1-.58.11,1.85,1.85,0,0,1,0-3.69A1.43,1.43,0,0,1,50.19,228.24Z"/><path class="cls-5" d="M50.19,222.47v3.47a1.43,1.43,0,0,1-.58.11,1.85,1.85,0,0,1,0-3.69A1.43,1.43,0,0,1,50.19,222.47Z"/><path class="cls-6" d="M104.64,142.48v4.31l-12,24.88H85.36l12-23.49v-.09H84v-5.61Z"/><path class="cls-6" d="M109,168a4,4,0,0,1,4-4.18,4.16,4.16,0,1,1-4,4.18Z"/><path class="cls-6" d="M141.88,156.94c0,9-3.64,15.23-11.1,15.23s-10.87-6.78-10.91-15c0-8.45,3.59-15.14,11.14-15.14C138.83,142,141.88,148.94,141.88,156.94Zm-15.14.18c0,6.69,1.57,9.88,4.22,9.88s4.09-3.32,4.09-10c0-6.47-1.39-9.88-4.13-9.88C128.4,147.15,126.7,150.34,126.74,157.12Z"/><path class="cls-6" d="M154,140.9a59.41,59.41,0,0,1-5.39,12.18l-4.13.36a71.86,71.86,0,0,0,3.14-12.13Zm8.76,0a56.83,56.83,0,0,1-5.39,12.18l-4.13.36a71.86,71.86,0,0,0,3.14-12.13Z"/><path class="cls-7" d="M418.57,114a5.64,5.64,0,0,1,5.64,5.64V334.56a5.65,5.65,0,0,1-5.64,5.64H44.43a5.65,5.65,0,0,1-5.64-5.64V119.63A5.64,5.64,0,0,1,44.43,114H418.57m0-.75H44.43A6.4,6.4,0,0,0,38,119.63V334.56A6.4,6.4,0,0,0,44.43,341H418.57a6.4,6.4,0,0,0,6.39-6.39V119.63a6.4,6.4,0,0,0-6.39-6.39Z"/><circle class="cls-5" cx="44.49" cy="119.69" r="3.32"/><circle class="cls-5" cx="44.49" cy="119.69" r="5.7"/><circle class="cls-8" cx="44.49" cy="119.69" r="3.32"/><circle class="cls-9" cx="44.49" cy="119.69" r="5.7"/><circle class="cls-5" cx="418.51" cy="119.69" r="3.32"/><circle class="cls-5" cx="418.51" cy="119.69" r="5.7"/><circle class="cls-8" cx="418.51" cy="119.69" r="3.32"/><circle class="cls-9" cx="418.51" cy="119.69" r="5.7"/><circle class="cls-5" cx="44.49" cy="334.5" r="3.32"/><circle class="cls-5" cx="44.49" cy="334.5" r="5.7"/><circle class="cls-8" cx="44.49" cy="334.5" r="3.32"/><circle class="cls-9" cx="44.49" cy="334.5" r="5.7"/><circle class="cls-5" cx="418.51" cy="334.5" r="3.32"/><circle class="cls-5" cx="418.51" cy="334.5" r="5.7"/><circle class="cls-8" cx="418.51" cy="334.5" r="3.32"/><circle class="cls-9" cx="418.51" cy="334.5" r="5.7"/><rect class="cls-9" x="50.19" y="116.37" width="362.62" height="220.74"/><rect class="cls-9" x="55.11" y="123" width="346.4" height="195.79"/><circle class="cls-3" cx="418.51" cy="280.87" r="1.17"/><path class="cls-9" d="M115.6,337.11a29.53,29.53,0,0,0,10.26,3.41"/><path class="cls-9" d="M177.38,340.41a20.34,20.34,0,0,0,8-3.3"/><line class="cls-9" x1="194.52" y1="337.11" x2="194.52" y2="340.2"/><line class="cls-9" x1="265.61" y1="337.11" x2="265.61" y2="340.2"/><circle class="cls-5" cx="44.25" cy="229.98" r="1.84"/><circle class="cls-5" cx="44.25" cy="224.21" r="1.84"/><rect class="cls-5" x="40.98" y="215.47" width="5.12" height="2.76" rx="1.27"/><rect class="cls-10" x="42" y="215.95" width="3.03" height="1.8" rx="0.52"/><rect class="cls-5" x="40.98" y="235.26" width="5.12" height="2.76" rx="1.27"/><rect class="cls-10" x="42" y="235.74" width="3.03" height="1.8" rx="0.52"/></g></svg>