<?xml version="1.0" encoding="UTF-8" standalone="no"?>
<svg
   viewBox="0 0 735.60996 347.20999"
   version="1.1"
   id="svg85"
   sodipodi:docname="buyer benmeshtastic-01 (12).svg"
   inkscape:version="1.4 (e7c3feb1, 2024-10-09)"
   width="735.60999"
   height="347.20999"
   xmlns:inkscape="http://www.inkscape.org/namespaces/inkscape"
   xmlns:sodipodi="http://sodipodi.sourceforge.net/DTD/sodipodi-0.dtd"
   xmlns:xlink="http://www.w3.org/1999/xlink"
   xmlns="http://www.w3.org/2000/svg"
   xmlns:svg="http://www.w3.org/2000/svg">
  <sodipodi:namedview
     id="namedview85"
     pagecolor="#ffffff"
     bordercolor="#000000"
     borderopacity="0.25"
     inkscape:showpageshadow="2"
     inkscape:pageopacity="0.0"
     inkscape:pagecheckerboard="0"
     inkscape:deskcolor="#d1d1d1"
     inkscape:zoom="0.98099198"
     inkscape:cx="413.86679"
     inkscape:cy="231.90811"
     inkscape:window-width="1728"
     inkscape:window-height="1056"
     inkscape:window-x="0"
     inkscape:window-y="33"
     inkscape:window-maximized="1"
     inkscape:current-layer="Layer_3" />
  <defs
     id="defs2">
    <style
       id="style1">.cls-1{fill:#eab20d;}.cls-2{fill:#e0e0dd;}.cls-11,.cls-25,.cls-26,.cls-27,.cls-3{fill:none;stroke-miterlimit:10;}.cls-3{stroke:#3a3d3e;}.cls-4{fill:#d0d2d3;}.cls-5{fill:#2b2b2b;}.cls-6{fill:#bcbcbb;}.cls-7{fill:#777775;}.cls-8{fill:#222323;}.cls-9{fill:#ecc210;}.cls-10{fill:#d7880a;}.cls-11,.cls-25,.cls-26{stroke:#1d1d1b;}.cls-11{stroke-width:1.98px;}.cls-12{fill:#1d1d1b;}.cls-13{fill:#dfe0de;}.cls-14{fill:url(#linear-gradient);}.cls-15{fill:url(#linear-gradient-2);}.cls-16{fill:url(#linear-gradient-3);}.cls-17{fill:url(#linear-gradient-4);}.cls-18{fill:url(#linear-gradient-5);}.cls-19{fill:url(#linear-gradient-6);}.cls-20{fill:url(#linear-gradient-7);}.cls-21{fill:url(#linear-gradient-8);}.cls-22{fill:#16b8e2;}.cls-23{fill:#e8b710;}.cls-24{fill:#67c5dd;}.cls-25{stroke-width:1.86px;}.cls-26{stroke-width:2px;}.cls-27{stroke:#e0e0de;}</style>
    <linearGradient
       id="linear-gradient"
       x1="571.42999"
       y1="543.16998"
       x2="775.21002"
       y2="537.67999"
       gradientUnits="userSpaceOnUse">
      <stop
         offset="0"
         stop-color="#ecc210"
         id="stop1" />
      <stop
         offset="1"
         stop-color="#ecc210"
         stop-opacity="0"
         id="stop2" />
    </linearGradient>
    <linearGradient
       id="linear-gradient-2"
       x1="571.45001"
       y1="543.87"
       x2="775.22998"
       y2="538.38"
       xlink:href="#linear-gradient" />
    <linearGradient
       id="linear-gradient-3"
       x1="571.46997"
       y1="544.56"
       x2="775.25"
       y2="539.08002"
       xlink:href="#linear-gradient" />
    <linearGradient
       id="linear-gradient-4"
       x1="571.47998"
       y1="545.26001"
       x2="775.27002"
       y2="539.78003"
       xlink:href="#linear-gradient" />
    <linearGradient
       id="linear-gradient-5"
       x1="571.5"
       y1="545.96002"
       x2="775.28003"
       y2="540.46997"
       xlink:href="#linear-gradient" />
    <linearGradient
       id="linear-gradient-6"
       x1="571.52002"
       y1="546.65997"
       x2="775.29999"
       y2="541.16998"
       xlink:href="#linear-gradient" />
    <linearGradient
       id="linear-gradient-7"
       x1="571.53998"
       y1="547.34998"
       x2="775.32001"
       y2="541.87"
       xlink:href="#linear-gradient" />
    <linearGradient
       id="linear-gradient-8"
       x1="571.56"
       y1="548.04999"
       x2="775.34003"
       y2="542.57001"
       xlink:href="#linear-gradient" />
    <linearGradient
       inkscape:collect="always"
       xlink:href="#linear-gradient"
       id="linearGradient85"
       gradientUnits="userSpaceOnUse"
       x1="571.42999"
       y1="543.16998"
       x2="775.21002"
       y2="537.67999" />
  </defs>
  <g
     id="Layer_3"
     data-name="Layer 3"
     transform="translate(-74.01,-247.35)">
    <rect
       class="cls-1"
       x="250.35001"
       y="260.53"
       width="543.56"
       height="319.73001"
       id="rect2" />
    <polygon
       class="cls-2"
       points="668.24,316.21 259.47,316.21 259.47,298.24 287.9,269.81 692.94,269.81 692.94,291.74 "
       id="polygon2" />
    <rect
       class="cls-3"
       x="250.35001"
       y="260.51999"
       width="543.56"
       height="319.73001"
       id="rect3" />
    <path
       class="cls-4"
       d="m 790.44,248.32 h -673 a 18.2,18.2 0 0 0 -18.2,18.2 v 79.1 a 4.15,4.15 0 0 0 4.15,4.15 h 64.86 a 22,22 0 0 1 22,22 v 95.79 a 22,22 0 0 1 -22,22 h -64.5 a 4.51,4.51 0 0 0 -4.51,4.51 v 81.25 a 18.2,18.2 0 0 0 18.2,18.2 h 672.99 a 18.2,18.2 0 0 0 18.2,-18.2 V 266.51 a 18.18,18.18 0 0 0 -18.19,-18.19 z m 3.47,331.94 H 250.35 V 260.53 h 543.56 z"
       id="path3" />
    <path
       class="cls-5"
       d="m 190.32,371.79 v 95.79 a 22,22 0 0 1 -22,22 h -48.1 V 349.76 h 48.1 a 22,22 0 0 1 22,22.03 z"
       id="path4" />
    <path
       class="cls-6"
       d="m 160.26,388.91 v 14.42 a 2.77,2.77 0 0 0 2.78,2.78 h 2.88 a 2.78,2.78 0 0 0 2.67,-2 l 2,-7 a 2.29,2.29 0 0 1 2.21,-1.67 h 5.16 v 50.67 h -5.16 a 2.3,2.3 0 0 1 -2.21,-1.68 l -2,-7 a 2.77,2.77 0 0 0 -2.67,-2 H 163 a 2.77,2.77 0 0 0 -2.77,2.77 v 14.42 a 4.63,4.63 0 0 0 4.63,4.63 h 13 v 20.16 H 81.14 A 6.18,6.18 0 0 1 75,471.14 V 368.25 a 6.19,6.19 0 0 1 6.18,-6.19 h 96.79 v 22.23 h -13.09 a 4.62,4.62 0 0 0 -4.62,4.62 z"
       id="path5" />
    <rect
       class="cls-7"
       x="144.5"
       y="383.94"
       width="8.6599998"
       height="22.51"
       rx="3.1800001"
       id="rect5" />
    <rect
       class="cls-7"
       x="144.5"
       y="434.98999"
       width="8.6599998"
       height="22.51"
       rx="3.1800001"
       id="rect6" />
    <path
       class="cls-8"
       d="m 277.33,282.68 h 6.33 l -1.66,14.25 7.23,-14.25 h 6.31 l -0.54,14.23 6.18,-14.23 h 6.29 l -11.71,25.45 h -6.54 l 0.61,-16 -8.16,16 h -6.53 z"
       id="path6" />
    <path
       class="cls-8"
       d="m 308.57,289.69 h 6 l -5.05,18.44 h -6 z m 1.92,-7 h 6 l -1.32,4.81 h -6 z"
       id="path7" />
    <path
       class="cls-8"
       d="M 318.44,289.69 H 324 l -0.82,3 a 11,11 0 0 1 2.4,-2.7 4,4 0 0 1 2.33,-0.73 4.37,4.37 0 0 1 2.63,1 l -3.23,5 a 3.36,3.36 0 0 0 -1.53,-0.52 2.75,2.75 0 0 0 -2.14,1.15 c -0.91,1.07 -1.77,3.09 -2.58,6 l -1.69,6.18 h -6 z"
       id="path8" />
    <path
       class="cls-8"
       d="m 346.57,300.66 h -12 a 4.45,4.45 0 0 0 0.09,2.54 1.94,1.94 0 0 0 1.93,1.2 3.8,3.8 0 0 0 1.82,-0.52 6.37,6.37 0 0 0 1.37,-1.17 l 5.72,0.65 a 14,14 0 0 1 -4.36,4 12.26,12.26 0 0 1 -5.81,1.21 8.15,8.15 0 0 1 -4.6,-1 5.29,5.29 0 0 1 -2.05,-3.28 10.54,10.54 0 0 1 0.32,-5.29 13.84,13.84 0 0 1 4.26,-7 10.66,10.66 0 0 1 7.21,-2.67 8.42,8.42 0 0 1 5,1.19 5.21,5.21 0 0 1 2,3.48 14,14 0 0 1 -0.6,5.92 z m -5.16,-3.38 a 4.48,4.48 0 0 0 -0.13,-2.93 1.87,1.87 0 0 0 -1.75,-0.89 3.59,3.59 0 0 0 -2.65,1.34 7.36,7.36 0 0 0 -1.37,2.48 z"
       id="path9" />
    <path
       class="cls-8"
       d="m 354.45,282.68 h 6 l -7,25.45 h -6 z"
       id="path10" />
    <path
       class="cls-8"
       d="m 376.69,300.66 h -12 a 4.56,4.56 0 0 0 0.08,2.54 2,2 0 0 0 1.94,1.2 3.8,3.8 0 0 0 1.82,-0.52 6.36,6.36 0 0 0 1.36,-1.17 l 5.72,0.65 a 13.94,13.94 0 0 1 -4.35,4 12.27,12.27 0 0 1 -5.82,1.21 8.19,8.19 0 0 1 -4.6,-1 5.38,5.38 0 0 1 -2,-3.28 10.56,10.56 0 0 1 0.28,-5.28 13.84,13.84 0 0 1 4.26,-7 10.66,10.66 0 0 1 7.21,-2.67 8.42,8.42 0 0 1 5,1.19 5.25,5.25 0 0 1 2,3.48 14.28,14.28 0 0 1 -0.6,5.92 z m -5.16,-3.38 a 4.55,4.55 0 0 0 -0.13,-2.93 1.87,1.87 0 0 0 -1.75,-0.89 3.57,3.57 0 0 0 -2.65,1.34 7.36,7.36 0 0 0 -1.37,2.48 z"
       id="path11" />
    <path
       class="cls-8"
       d="m 377.74,303 6.12,-0.66 a 2.67,2.67 0 0 0 0.54,1.79 2.14,2.14 0 0 0 1.62,0.53 3.37,3.37 0 0 0 2,-0.6 2,2 0 0 0 0.83,-1.13 1,1 0 0 0 -0.36,-1.18 8.85,8.85 0 0 0 -2.37,-0.73 18.65,18.65 0 0 1 -4,-1.18 3.23,3.23 0 0 1 -1.52,-1.84 4.91,4.91 0 0 1 0,-3 7.25,7.25 0 0 1 1.76,-3.13 7.85,7.85 0 0 1 3,-2 12.61,12.61 0 0 1 4.4,-0.65 11.31,11.31 0 0 1 4,0.5 3.64,3.64 0 0 1 1.8,1.56 6.51,6.51 0 0 1 0.69,2.87 l -5.86,0.66 a 1.79,1.79 0 0 0 -0.37,-1.31 2.11,2.11 0 0 0 -1.56,-0.55 2.64,2.64 0 0 0 -1.59,0.42 1.91,1.91 0 0 0 -0.75,1 0.87,0.87 0 0 0 0.31,1 6.68,6.68 0 0 0 2.39,0.62 12.66,12.66 0 0 1 4.14,1.11 3.48,3.48 0 0 1 1.67,2 5.11,5.11 0 0 1 0,2.9 8.69,8.69 0 0 1 -4.9,5.5 12.27,12.27 0 0 1 -5,0.9 q -4.27,0 -5.7,-1.45 A 5,5 0 0 1 377.74,303 Z"
       id="path12" />
    <path
       class="cls-8"
       d="m 396.14,303 6.12,-0.66 a 2.62,2.62 0 0 0 0.54,1.79 2.14,2.14 0 0 0 1.62,0.53 3.37,3.37 0 0 0 2,-0.6 2,2 0 0 0 0.82,-1.13 1,1 0 0 0 -0.35,-1.18 8.84,8.84 0 0 0 -2.38,-0.73 18.7,18.7 0 0 1 -4,-1.18 3.23,3.23 0 0 1 -1.51,-1.84 4.83,4.83 0 0 1 0,-3 7.15,7.15 0 0 1 1.76,-3.13 7.77,7.77 0 0 1 3,-2 12.57,12.57 0 0 1 4.4,-0.65 11.31,11.31 0 0 1 4,0.5 3.62,3.62 0 0 1 1.79,1.56 6.5,6.5 0 0 1 0.7,2.87 l -5.86,0.66 a 1.75,1.75 0 0 0 -0.38,-1.31 2.08,2.08 0 0 0 -1.55,-0.55 2.69,2.69 0 0 0 -1.6,0.42 1.94,1.94 0 0 0 -0.74,1 0.87,0.87 0 0 0 0.31,1 6.68,6.68 0 0 0 2.39,0.62 12.66,12.66 0 0 1 4.13,1.11 3.5,3.5 0 0 1 1.68,2 5.2,5.2 0 0 1 0,2.9 8.69,8.69 0 0 1 -4.9,5.5 12.3,12.3 0 0 1 -5,0.9 q -4.29,0 -5.7,-1.45 A 4.93,4.93 0 0 1 396.14,303 Z"
       id="path13" />
    <path
       class="cls-8"
       d="m 421.62,282.68 h 21.63 l -1.84,6.32 h -7.25 l -5.61,19.17 v 0 c -3.5,0 -6.18,-3.18 -5.28,-6.26 L 427,289 h -7.25 z"
       id="path14" />
    <path
       class="cls-8"
       d="m 442.67,289.69 h 6 l -0.88,3 a 11,11 0 0 1 2.57,-2.7 4.44,4.44 0 0 1 2.48,-0.73 4.87,4.87 0 0 1 2.81,1 l -3.45,5 a 3.77,3.77 0 0 0 -1.64,-0.52 3,3 0 0 0 -2.28,1.15 c -1,1.07 -1.89,3.09 -2.75,6 l -1.81,6.18 h -6.42 z"
       id="path15" />
    <path
       class="cls-8"
       d="m 461.52,295.66 -5.9,-0.71 a 11.14,11.14 0 0 1 1.81,-2.78 8.48,8.48 0 0 1 2.39,-1.76 9.58,9.58 0 0 1 2.66,-0.84 19.89,19.89 0 0 1 3.42,-0.29 23,23 0 0 1 4.51,0.35 4,4 0 0 1 2.47,1.49 3.77,3.77 0 0 1 0.64,2.21 8.49,8.49 0 0 1 -0.32,2.73 l -2.38,8.15 a 10.41,10.41 0 0 0 -0.45,2 8.64,8.64 0 0 0 0.1,1.88 h -6 a 5.81,5.81 0 0 1 -0.15,-1.09 8.9,8.9 0 0 1 0.12,-1.17 12.59,12.59 0 0 1 -3.05,1.91 11.17,11.17 0 0 1 -4.17,0.77 q -3,0 -4.08,-1.53 a 4.13,4.13 0 0 1 -0.45,-3.77 7.29,7.29 0 0 1 2.12,-3.45 10,10 0 0 1 4.71,-2 c 2.55,-0.53 4.22,-0.9 5,-1.12 a 25.48,25.48 0 0 0 2.51,-0.84 2.34,2.34 0 0 0 0,-1.82 c -0.22,-0.35 -0.74,-0.52 -1.56,-0.52 A 4.94,4.94 0 0 0 463,294 a 4.59,4.59 0 0 0 -1.48,1.66 z m 4.46,3.72 c -1,0.35 -2,0.65 -3,0.92 a 8.42,8.42 0 0 0 -2.8,1.13 2.64,2.64 0 0 0 -0.91,1.3 1.52,1.52 0 0 0 0.13,1.36 1.56,1.56 0 0 0 1.39,0.53 4.58,4.58 0 0 0 2.15,-0.57 5.06,5.06 0 0 0 1.72,-1.4 6.77,6.77 0 0 0 1,-2.14 z"
       id="path16" />
    <path
       class="cls-8"
       d="m 488.05,300.91 5.86,0.76 a 14.49,14.49 0 0 1 -2.72,3.64 11.82,11.82 0 0 1 -3.62,2.39 12.48,12.48 0 0 1 -4.78,0.85 13.68,13.68 0 0 1 -4.26,-0.55 5.08,5.08 0 0 1 -2.53,-1.77 6.26,6.26 0 0 1 -1.15,-2.87 10.77,10.77 0 0 1 0.55,-4.37 14.62,14.62 0 0 1 2.27,-4.74 13.24,13.24 0 0 1 2.48,-2.48 11.92,11.92 0 0 1 2.78,-1.64 13.41,13.41 0 0 1 5,-0.85 c 2.73,0 4.64,0.54 5.76,1.61 a 6.16,6.16 0 0 1 1.63,4.72 l -6.28,0.89 a 2.31,2.31 0 0 0 -0.51,-1.78 2.42,2.42 0 0 0 -1.82,-0.6 4.23,4.23 0 0 0 -2.94,1.26 8.12,8.12 0 0 0 -2.09,3.8 4.76,4.76 0 0 0 0,3.45 2.24,2.24 0 0 0 2.14,1.18 4.12,4.12 0 0 0 2.32,-0.71 6.55,6.55 0 0 0 1.91,-2.19 z"
       id="path17" />
    <path
       class="cls-8"
       d="m 501.84,282.68 h 6.54 l -3.84,13.14 6.56,-6.13 h 7.9 l -7.87,6.46 2.83,12 h -7.2 l -1.22,-7.39 -3.17,2.6 -1.4,4.79 h -6.53 z"
       id="path18" />
    <path
       class="cls-8"
       d="m 535.46,300.66 h -12.82 a 4.28,4.28 0 0 0 0.09,2.54 2.11,2.11 0 0 0 2.07,1.2 4.32,4.32 0 0 0 2,-0.52 7,7 0 0 0 1.45,-1.17 l 6.11,0.65 a 14.56,14.56 0 0 1 -4.65,4 13.9,13.9 0 0 1 -6.21,1.21 9.17,9.17 0 0 1 -4.91,-1 5.28,5.28 0 0 1 -2.19,-3.28 9.83,9.83 0 0 1 0.29,-5.28 13.76,13.76 0 0 1 4.55,-7 11.85,11.85 0 0 1 7.7,-2.67 9.48,9.48 0 0 1 5.31,1.19 5.22,5.22 0 0 1 2.14,3.48 13.33,13.33 0 0 1 -0.65,5.92 z M 530,297.28 a 4.28,4.28 0 0 0 -0.14,-2.93 2,2 0 0 0 -1.87,-0.89 3.91,3.91 0 0 0 -2.83,1.34 7.05,7.05 0 0 0 -1.46,2.48 z"
       id="path19" />
    <path
       class="cls-8"
       d="m 541.66,289.69 h 6 l -0.88,3 a 11,11 0 0 1 2.57,-2.7 4.44,4.44 0 0 1 2.48,-0.73 4.87,4.87 0 0 1 2.81,1 l -3.45,5 a 3.77,3.77 0 0 0 -1.64,-0.52 3,3 0 0 0 -2.28,1.15 c -1,1.07 -1.89,3.09 -2.75,6 l -1.81,6.18 h -6.42 z"
       id="path20" />
    <polygon
       class="cls-9"
       points="768.91,269.33 788.56,269.33 788.56,283.81 "
       id="polygon20" />
    <polygon
       class="cls-9"
       points="584.97,510.81 584.97,466.43 653.93,517.25 593.71,517.25 "
       id="polygon21" />
    <polygon
       class="cls-9"
       points="584.97,436.85 584.97,385.1 764.28,517.25 694.06,517.25 "
       id="polygon22" />
    <polygon
       class="cls-9"
       points="584.97,360.16 584.97,324.44 606.72,324.44 788.56,458.45 788.56,510.2 "
       id="polygon23" />
    <polygon
       class="cls-9"
       points="640.56,324.44 702.72,324.44 788.56,387.71 788.56,433.52 "
       id="polygon24" />
    <polygon
       class="cls-9"
       points="702.72,295.58 702.72,269.33 729.26,269.33 788.56,313.04 788.56,358.85 "
       id="polygon25" />
    <path
       class="cls-10"
       d="m 710,365.47 10.69,-14.47 2.95,2.17 -8.84,12 7.33,5.39 -1.81,2.44 z"
       id="path25" />
    <path
       class="cls-10"
       d="m 725.75,368.65 a 7.19,7.19 0 0 1 2.67,-2.2 5.9,5.9 0 0 1 3.42,-0.56 7.24,7.24 0 0 1 3.32,1.38 6.52,6.52 0 0 1 2.78,4.46 6.64,6.64 0 0 1 -1.36,5.06 6.73,6.73 0 0 1 -4.47,2.84 6.5,6.5 0 0 1 -5.07,-1.28 7.76,7.76 0 0 1 -2.29,-2.7 5.7,5.7 0 0 1 -0.59,-3.41 8,8 0 0 1 1.59,-3.59 z m 2.76,2.25 a 4.41,4.41 0 0 0 -1,3 3,3 0 0 0 1.23,2.2 2.93,2.93 0 0 0 2.45,0.51 4.38,4.38 0 0 0 2.53,-1.88 4.28,4.28 0 0 0 1,-2.94 3,3 0 0 0 -3.72,-2.79 4.37,4.37 0 0 0 -2.49,1.9 z"
       id="path26" />
    <path
       class="cls-10"
       d="m 734.89,383.75 10.74,-14.61 6.21,4.57 a 13.4,13.4 0 0 1 3.16,2.89 4.2,4.2 0 0 1 0.67,2.65 5.17,5.17 0 0 1 -1.06,2.77 4.81,4.81 0 0 1 -3,2 5.74,5.74 0 0 1 -3.88,-0.78 8.78,8.78 0 0 1 0.68,2.39 21.7,21.7 0 0 1 -0.07,3.6 l -0.34,4.17 -3.53,-2.59 0.21,-4.75 a 25.23,25.23 0 0 0 0,-3.29 2.73,2.73 0 0 0 -0.44,-1.25 5.93,5.93 0 0 0 -1.36,-1.26 l -0.6,-0.44 -4.48,6.1 z m 9.15,-6.26 2.18,1.6 a 13.92,13.92 0 0 0 2.78,1.77 1.94,1.94 0 0 0 1.28,0 2.37,2.37 0 0 0 1.11,-0.87 2.19,2.19 0 0 0 0.48,-1.48 2.23,2.23 0 0 0 -0.69,-1.39 c -0.22,-0.21 -0.92,-0.76 -2.12,-1.64 l -2.3,-1.69 z"
       id="path27" />
    <path
       class="cls-10"
       d="m 757.09,388.75 -2.2,-2.33 a 4.93,4.93 0 0 1 3.14,-1.19 6.76,6.76 0 0 1 3.65,1.55 8.38,8.38 0 0 1 2.47,2.5 3.49,3.49 0 0 1 0.46,2.07 7.24,7.24 0 0 1 -1.47,2.78 l -2.43,3.25 a 13.63,13.63 0 0 0 -1.38,2.15 7.12,7.12 0 0 0 -0.54,1.79 l -2.77,-2 a 9.89,9.89 0 0 1 0.34,-1 c 0.07,-0.2 0.12,-0.33 0.14,-0.4 a 6.27,6.27 0 0 1 -2.3,-0.08 5.32,5.32 0 0 1 -2,-0.94 4.49,4.49 0 0 1 -1.93,-2.78 3.68,3.68 0 0 1 0.71,-2.93 3.64,3.64 0 0 1 1.6,-1.28 3.49,3.49 0 0 1 2,-0.2 11.59,11.59 0 0 1 2.7,1 19.62,19.62 0 0 0 3.23,1.31 l 0.2,-0.28 a 1.77,1.77 0 0 0 0.45,-1.44 2.93,2.93 0 0 0 -1.25,-1.45 2.47,2.47 0 0 0 -1.38,-0.56 2.49,2.49 0 0 0 -1.44,0.46 z m 2.08,5 a 19,19 0 0 1 -2,-0.82 6.07,6.07 0 0 0 -1.88,-0.63 1.46,1.46 0 0 0 -1.28,0.58 1.71,1.71 0 0 0 -0.31,1.34 1.93,1.93 0 0 0 0.8,1.25 3,3 0 0 0 1.81,0.56 2.18,2.18 0 0 0 1.35,-0.43 7.34,7.34 0 0 0 1.12,-1.29 z"
       id="path28" />
    <path
       class="cls-10"
       d="m 660.38,394.5 1.82,-2.56 6.42,4.86 -4.32,6.05 a 9.8,9.8 0 0 1 -3.88,-0.42 12,12 0 0 1 -4.11,-2 10.3,10.3 0 0 1 -3.32,-4.05 8.11,8.11 0 0 1 -0.54,-4.82 11.71,11.71 0 0 1 2,-4.7 10.63,10.63 0 0 1 4,-3.48 7.91,7.91 0 0 1 4.85,-0.69 9.43,9.43 0 0 1 4.07,1.92 9.07,9.07 0 0 1 3.45,4.43 6.88,6.88 0 0 1 -0.36,4.79 l -3.36,-1.67 a 4.19,4.19 0 0 0 0.09,-2.66 4.56,4.56 0 0 0 -1.69,-2.27 4.92,4.92 0 0 0 -4,-1.07 6.43,6.43 0 0 0 -3.85,2.9 7.53,7.53 0 0 0 -1.75,4.94 5,5 0 0 0 2.09,3.67 6.32,6.32 0 0 0 2.15,1 7.8,7.8 0 0 0 2.27,0.3 l 1.38,-1.92 z"
       id="path29" />
    <path
       class="cls-10"
       d="m 665.58,407 10.85,-15.18 2.9,2.19 -1.2,14.71 7.24,-10.14 2.77,2.1 -10.85,15.22 -3,-2.27 1.13,-14.4 -7.08,9.9 z"
       id="path30" />
    <path
       class="cls-10"
       d="m 683.21,412.77 3.11,1.9 a 4.7,4.7 0 0 0 -0.52,3 4.09,4.09 0 0 0 1.66,2.34 4,4 0 0 0 2.62,1 2.19,2.19 0 0 0 1.77,-0.91 1.76,1.76 0 0 0 0.35,-1.15 3.27,3.27 0 0 0 -0.6,-1.47 c -0.26,-0.38 -0.9,-1.21 -1.91,-2.46 a 10.42,10.42 0 0 1 -2.29,-4.02 5,5 0 0 1 0.82,-4.08 4.76,4.76 0 0 1 5.13,-1.83 8.88,8.88 0 0 1 3.28,1.67 7.91,7.91 0 0 1 3.29,4.41 5.63,5.63 0 0 1 -0.92,4.47 l -3.07,-2.12 a 3.3,3.3 0 0 0 0.38,-2.31 3.8,3.8 0 0 0 -1.52,-1.94 4.2,4.2 0 0 0 -2.42,-1 1.32,1.32 0 0 0 -1.15,0.59 1.46,1.46 0 0 0 -0.22,1.25 10.2,10.2 0 0 0 2,3.09 18.76,18.76 0 0 1 2.43,3.53 5.39,5.39 0 0 1 0.53,2.77 5.83,5.83 0 0 1 -1.14,2.87 5.52,5.52 0 0 1 -2.45,1.91 5.16,5.16 0 0 1 -3.21,0.18 10.38,10.38 0 0 1 -3.6,-1.87 8.18,8.18 0 0 1 -3.35,-4.59 7.38,7.38 0 0 1 1,-5.23 z"
       id="path31" />
    <path
       class="cls-10"
       d="m 697,423.17 3.1,1.91 a 4.61,4.61 0 0 0 -0.51,3 4.1,4.1 0 0 0 1.65,2.33 4.05,4.05 0 0 0 2.62,1 2.23,2.23 0 0 0 1.78,-0.92 1.79,1.79 0 0 0 0.35,-1.14 3.22,3.22 0 0 0 -0.61,-1.47 c -0.26,-0.39 -0.89,-1.21 -1.91,-2.47 a 10.48,10.48 0 0 1 -2.29,-4.05 5,5 0 0 1 0.83,-4.08 4.7,4.7 0 0 1 2.19,-1.68 4.87,4.87 0 0 1 2.94,-0.15 9.11,9.11 0 0 1 3.28,1.67 8,8 0 0 1 3.29,4.42 5.65,5.65 0 0 1 -0.92,4.46 l -3.08,-2.12 a 3.35,3.35 0 0 0 0.39,-2.3 3.82,3.82 0 0 0 -1.52,-1.94 4.12,4.12 0 0 0 -2.43,-1 1.3,1.3 0 0 0 -1.14,0.58 1.49,1.49 0 0 0 -0.22,1.26 9.89,9.89 0 0 0 2,3.08 18.74,18.74 0 0 1 2.44,3.53 5.4,5.4 0 0 1 0.52,2.77 5.64,5.64 0 0 1 -1.14,2.87 5.45,5.45 0 0 1 -2.45,1.91 5.06,5.06 0 0 1 -3.2,0.18 10.25,10.25 0 0 1 -3.61,-1.87 8.14,8.14 0 0 1 -3.34,-4.58 7.35,7.35 0 0 1 0.99,-5.2 z"
       id="path32" />
    <line
       class="cls-11"
       x1="120.19"
       y1="489.60999"
       x2="120.19"
       y2="477.32001"
       id="line32" />
    <line
       class="cls-11"
       x1="120.19"
       y1="362.06"
       x2="120.19"
       y2="349.76001"
       id="line33" />
    <path
       class="cls-12"
       d="m 234.76,324.92 v 0 a 3,3 0 0 1 -3,3 h -20.84 a 27.54,27.54 0 0 1 -27.55,-27.55 v -52.06 h 6 v 52.05 a 21.62,21.62 0 0 0 21.56,21.56 h 20.83 a 3,3 0 0 1 3,3 z"
       id="path33" />
    <path
       class="cls-12"
       d="m 234.76,517 v 0 a 3,3 0 0 0 -3,-3 h -20.83 a 27.56,27.56 0 0 0 -27.56,27.56 v 52.05 h 6 V 541.52 A 21.63,21.63 0 0 1 210.93,520 h 20.83 a 3,3 0 0 0 3,-3 z"
       id="path34" />
    <path
       class="cls-6"
       d="M 122.75,489.61 V 483 a 2.2,2.2 0 0 1 2.2,-2.2 h 12.64 a 2.19,2.19 0 0 1 2.19,2.2 v 6.62"
       id="path35" />
    <path
       class="cls-6"
       d="m 160.9,489.61 v -6.46 a 2.36,2.36 0 0 1 2.36,-2.36 h 12.31 a 2.36,2.36 0 0 1 2.36,2.36 v 4.25"
       id="path36" />
    <path
       class="cls-6"
       d="m 122.75,349.76 v 6.78 a 2.05,2.05 0 0 0 2,2 h 12.93 a 2.05,2.05 0 0 0 2.05,-2 v -6.78"
       id="path37" />
    <path
       class="cls-6"
       d="m 160.9,349.76 v 5.95 a 2.88,2.88 0 0 0 2.88,2.88 h 11.27 a 2.88,2.88 0 0 0 2.88,-2.88 V 352"
       id="path38" />
    <path
       class="cls-5"
       d="m 259.47,324.44 v 187 h 317.21 v -187 z M 566.94,504.19 H 269.18 V 331.7 h 297.76 z"
       id="path39" />
    <rect
       x="269.17999"
       y="331.70001"
       width="297.76001"
       height="172.49001"
       id="rect39" />
    <polygon
       class="cls-13"
       points="267.2,558.95 254.77,542.85 267.2,526.76 564.66,526.76 577.82,542.85 564.66,558.95 "
       id="polygon39" />
    <polygon
       class="cls-14"
       points="577.96,558.95 590.69,542.85 577.96,526.76 588.47,526.76 601.2,542.85 588.47,558.95 "
       id="polygon40"
       style="fill:url(#linearGradient85)" />
    <polygon
       class="cls-15"
       points="603.9,558.95 616.63,542.85 603.9,526.76 614.41,526.76 627.14,542.85 614.41,558.95 "
       id="polygon41"
       style="fill:url(#linear-gradient-2)" />
    <polygon
       class="cls-16"
       points="629.85,558.95 642.58,542.85 629.85,526.76 640.35,526.76 653.08,542.85 640.35,558.95 "
       id="polygon42"
       style="fill:url(#linear-gradient-3)" />
    <polygon
       class="cls-17"
       points="655.79,558.95 668.52,542.85 655.79,526.76 666.29,526.76 679.02,542.85 666.29,558.95 "
       id="polygon43"
       style="fill:url(#linear-gradient-4)" />
    <polygon
       class="cls-18"
       points="681.73,558.95 694.46,542.85 681.73,526.76 692.24,526.76 704.97,542.85 692.24,558.95 "
       id="polygon44"
       style="fill:url(#linear-gradient-5)" />
    <polygon
       class="cls-19"
       points="707.67,558.95 720.4,542.85 707.67,526.76 718.18,526.76 730.91,542.85 718.18,558.95 "
       id="polygon45"
       style="fill:url(#linear-gradient-6)" />
    <polygon
       class="cls-20"
       points="733.62,558.95 746.35,542.85 733.62,526.76 744.12,526.76 756.85,542.85 744.12,558.95 "
       id="polygon46"
       style="fill:url(#linear-gradient-7)" />
    <polygon
       class="cls-21"
       points="759.56,558.95 772.29,542.85 759.56,526.76 770.06,526.76 782.79,542.85 770.06,558.95 "
       id="polygon47"
       style="fill:url(#linear-gradient-8)" />
    <path
       class="cls-12"
       d="m 275.18,550.9 v -15.31 h 11.43 v 2.59 h -8.31 v 3.4 h 7.7 v 2.57 h -7.7 v 4.17 h 8.61 v 2.58 z"
       id="path47" />
    <path
       class="cls-12"
       d="m 288.76,545.92 3,-0.29 a 3.75,3.75 0 0 0 1.11,2.22 3.4,3.4 0 0 0 2.26,0.71 3.51,3.51 0 0 0 2.27,-0.63 1.91,1.91 0 0 0 0.76,-1.48 1.39,1.39 0 0 0 -0.32,-0.92 2.59,2.59 0 0 0 -1.12,-0.67 q -0.56,-0.18 -2.49,-0.66 a 8.53,8.53 0 0 1 -3.52,-1.52 4,4 0 0 1 -1.42,-3.08 3.91,3.91 0 0 1 0.67,-2.18 4.16,4.16 0 0 1 1.93,-1.55 7.6,7.6 0 0 1 3,-0.54 6.51,6.51 0 0 1 4.37,1.27 4.43,4.43 0 0 1 1.54,3.37 l -3.11,0.13 a 2.63,2.63 0 0 0 -0.86,-1.69 3.13,3.13 0 0 0 -2,-0.52 3.67,3.67 0 0 0 -2.13,0.55 1.12,1.12 0 0 0 -0.49,0.95 1.15,1.15 0 0 0 0.46,0.93 8.24,8.24 0 0 0 2.86,1 14.69,14.69 0 0 1 3.36,1.1 4.25,4.25 0 0 1 1.7,1.55 4.53,4.53 0 0 1 0.62,2.44 4.46,4.46 0 0 1 -0.74,2.46 4.35,4.35 0 0 1 -2.08,1.71 8.81,8.81 0 0 1 -3.35,0.56 6.72,6.72 0 0 1 -4.49,-1.34 5.8,5.8 0 0 1 -1.79,-3.88 z"
       id="path48" />
    <path
       class="cls-12"
       d="m 303.91,550.9 v -15.31 h 5 a 18.37,18.37 0 0 1 3.7,0.23 4,4 0 0 1 2.22,1.5 4.7,4.7 0 0 1 0.9,3 5,5 0 0 1 -0.52,2.37 4.21,4.21 0 0 1 -1.31,1.51 4.71,4.71 0 0 1 -1.61,0.73 18.74,18.74 0 0 1 -3.23,0.21 h -2 v 5.78 z M 307,538.18 v 4.35 h 1.7 a 8.07,8.07 0 0 0 2.46,-0.24 2,2 0 0 0 1.33,-1.95 2,2 0 0 0 -0.49,-1.34 2.07,2.07 0 0 0 -1.25,-0.68 14.66,14.66 0 0 0 -2.24,-0.11 z"
       id="path49" />
    <path
       class="cls-12"
       d="m 317.51,546.84 2.86,-0.35 a 2.71,2.71 0 0 0 0.74,1.66 2.08,2.08 0 0 0 3,-0.11 2.65,2.65 0 0 0 0.63,-1.86 2.46,2.46 0 0 0 -0.6,-1.75 1.9,1.9 0 0 0 -1.46,-0.65 5.08,5.08 0 0 0 -1.36,0.22 l 0.33,-2.39 a 2.62,2.62 0 0 0 1.83,-0.52 1.84,1.84 0 0 0 0.63,-1.46 1.67,1.67 0 0 0 -0.47,-1.23 1.7,1.7 0 0 0 -1.23,-0.46 1.82,1.82 0 0 0 -1.29,0.52 2.41,2.41 0 0 0 -0.65,1.53 l -2.73,-0.46 a 6,6 0 0 1 0.86,-2.22 3.84,3.84 0 0 1 1.6,-1.3 5.35,5.35 0 0 1 2.3,-0.48 4.6,4.6 0 0 1 3.49,1.38 3.48,3.48 0 0 1 -1.14,5.76 3.61,3.61 0 0 1 2.12,1.26 3.67,3.67 0 0 1 0.8,2.37 4.59,4.59 0 0 1 -1.49,3.44 5.56,5.56 0 0 1 -7.16,0.22 4.68,4.68 0 0 1 -1.61,-3.12 z"
       id="path50" />
    <path
       class="cls-12"
       d="m 339.57,548.17 v 2.73 h -10.35 a 6.89,6.89 0 0 1 1,-2.93 19.2,19.2 0 0 1 3.32,-3.67 20.51,20.51 0 0 0 2.45,-2.51 3.24,3.24 0 0 0 0.61,-1.79 1.84,1.84 0 0 0 -2,-2 2,2 0 0 0 -1.47,0.56 2.76,2.76 0 0 0 -0.63,1.83 l -2.95,-0.29 a 4.8,4.8 0 0 1 1.65,-3.47 5.56,5.56 0 0 1 3.47,-1.06 5.07,5.07 0 0 1 3.59,1.22 4,4 0 0 1 1.3,3 5.23,5.23 0 0 1 -0.37,2 8.22,8.22 0 0 1 -1.18,2 20,20 0 0 1 -1.94,1.95 c -0.93,0.85 -1.52,1.41 -1.77,1.69 a 5,5 0 0 0 -0.6,0.81 z"
       id="path51" />
    <path
       class="cls-12"
       d="m 341.86,546.82 v -2.94 h 5.81 v 2.94 z"
       id="path52" />
    <path
       class="cls-12"
       d="m 348.6,545.92 3,-0.29 a 3.64,3.64 0 0 0 1.11,2.22 3.4,3.4 0 0 0 2.26,0.71 3.48,3.48 0 0 0 2.26,-0.63 1.89,1.89 0 0 0 0.77,-1.48 1.35,1.35 0 0 0 -0.33,-0.92 2.47,2.47 0 0 0 -1.12,-0.67 q -0.54,-0.18 -2.49,-0.66 a 8.41,8.41 0 0 1 -3.51,-1.52 4,4 0 0 1 -1.42,-3.08 3.84,3.84 0 0 1 0.67,-2.18 4.14,4.14 0 0 1 1.92,-1.55 7.69,7.69 0 0 1 3,-0.54 6.51,6.51 0 0 1 4.37,1.27 4.46,4.46 0 0 1 1.61,3.4 l -3.12,0.13 a 2.62,2.62 0 0 0 -0.85,-1.69 3.13,3.13 0 0 0 -2,-0.52 3.65,3.65 0 0 0 -2.13,0.55 1.12,1.12 0 0 0 -0.49,0.95 1.15,1.15 0 0 0 0.46,0.93 8.24,8.24 0 0 0 2.86,1 15,15 0 0 1 3.36,1.1 4.32,4.32 0 0 1 1.7,1.55 4.53,4.53 0 0 1 0.62,2.44 4.46,4.46 0 0 1 -0.74,2.46 4.35,4.35 0 0 1 -2.08,1.71 8.85,8.85 0 0 1 -3.35,0.56 6.72,6.72 0 0 1 -4.49,-1.34 5.85,5.85 0 0 1 -1.85,-3.91 z"
       id="path53" />
    <path
       class="cls-12"
       d="m 363,546.84 2.86,-0.35 a 2.7,2.7 0 0 0 0.73,1.66 2.09,2.09 0 0 0 3,-0.11 2.7,2.7 0 0 0 0.62,-1.86 2.46,2.46 0 0 0 -0.6,-1.75 1.88,1.88 0 0 0 -1.46,-0.65 5.08,5.08 0 0 0 -1.36,0.22 l 0.33,-2.39 a 2.58,2.58 0 0 0 1.83,-0.52 1.84,1.84 0 0 0 0.63,-1.46 1.66,1.66 0 0 0 -0.46,-1.23 1.7,1.7 0 0 0 -1.23,-0.46 1.83,1.83 0 0 0 -1.3,0.52 2.52,2.52 0 0 0 -0.65,1.53 l -2.72,-0.46 a 5.85,5.85 0 0 1 0.86,-2.22 3.81,3.81 0 0 1 1.59,-1.3 5.38,5.38 0 0 1 2.3,-0.48 4.59,4.59 0 0 1 3.49,1.38 3.47,3.47 0 0 1 -1.13,5.76 3.64,3.64 0 0 1 2.12,1.26 3.72,3.72 0 0 1 0.79,2.37 4.58,4.58 0 0 1 -1.48,3.44 5.56,5.56 0 0 1 -7.16,0.22 4.68,4.68 0 0 1 -1.6,-3.12 z"
       id="path54" />
    <polygon
       class="cls-22"
       points="259.47,269.81 278.18,269.81 259.47,288.52 "
       id="polygon54" />
    <path
       class="cls-23"
       d="m 571.22,286.21 h 66.1 v 6.67 a 11.74,11.74 0 0 1 -11.74,11.74 h -54.36 a 9.21,9.21 0 0 1 -9.21,-9.21 v 0 a 9.21,9.21 0 0 1 9.21,-9.2 z"
       id="path55" />
    <path
       class="cls-8"
       d="M 572.26,301.39 V 291 h 5.07 a 9.81,9.81 0 0 1 2.78,0.28 2.69,2.69 0 0 1 1.38,1 2.72,2.72 0 0 1 0.52,1.64 2.61,2.61 0 0 1 -0.78,1.94 4,4 0 0 1 -2.36,1 6,6 0 0 1 1.29,0.87 13.63,13.63 0 0 1 1.37,1.7 l 1.45,2 h -2.88 l -1.74,-2.27 a 14.73,14.73 0 0 0 -1.27,-1.53 1.82,1.82 0 0 0 -0.72,-0.43 4.44,4.44 0 0 0 -1.21,-0.12 h -0.49 v 4.35 z m 2.41,-6 h 1.78 a 10.71,10.71 0 0 0 2.16,-0.13 1.31,1.31 0 0 0 0.68,-0.44 1.25,1.25 0 0 0 0.24,-0.78 1.12,1.12 0 0 0 -0.32,-0.85 1.54,1.54 0 0 0 -0.9,-0.41 c -0.2,0 -0.79,0 -1.76,0 h -1.88 z"
       id="path56" />
    <path
       class="cls-8"
       d="m 589.27,299 2.28,0.33 a 3.38,3.38 0 0 1 -1.39,1.67 4.52,4.52 0 0 1 -2.37,0.57 4.13,4.13 0 0 1 -3.34,-1.29 4,4 0 0 1 -0.85,-2.6 3.85,3.85 0 0 1 1.12,-2.94 4,4 0 0 1 2.84,-1.06 4.1,4.1 0 0 1 3,1.11 4.48,4.48 0 0 1 1.07,3.41 h -5.73 a 1.81,1.81 0 0 0 1.87,1.88 1.57,1.57 0 0 0 0.91,-0.26 1.53,1.53 0 0 0 0.59,-0.82 z m 0.13,-2 a 1.81,1.81 0 0 0 -0.51,-1.32 1.7,1.7 0 0 0 -1.19,-0.45 1.64,1.64 0 0 0 -1.7,1.77 z"
       id="path57" />
    <path
       class="cls-8"
       d="m 595.91,301.39 -3.48,-7.55 h 2.4 l 1.62,3.85 0.48,1.29 c 0.12,-0.33 0.2,-0.54 0.23,-0.65 0.03,-0.11 0.16,-0.42 0.25,-0.64 l 1.64,-3.85 h 2.35 l -3.4,7.55 z"
       id="path58" />
    <path
       class="cls-8"
       d="m 601.56,301.39 v -2 h 2.29 v 2 z"
       id="path59" />
    <path
       class="cls-8"
       d="m 613.42,299.53 v 1.86 h -8 a 4.55,4.55 0 0 1 0.78,-2 13.92,13.92 0 0 1 2.57,-2.49 15.84,15.84 0 0 0 1.9,-1.71 2,2 0 0 0 0.47,-1.22 1.3,1.3 0 0 0 -0.41,-1 1.94,1.94 0 0 0 -2.28,0 1.78,1.78 0 0 0 -0.48,1.25 l -2.28,-0.2 a 3.07,3.07 0 0 1 1.28,-2.36 4.7,4.7 0 0 1 2.68,-0.72 4.24,4.24 0 0 1 2.77,0.83 2.55,2.55 0 0 1 1,2.07 3.11,3.11 0 0 1 -0.29,1.34 5.35,5.35 0 0 1 -0.91,1.33 14.38,14.38 0 0 1 -1.5,1.33 c -0.72,0.58 -1.18,1 -1.37,1.15 a 3.73,3.73 0 0 0 -0.47,0.55 z"
       id="path60" />
    <path
       class="cls-8"
       d="m 615.46,301.39 v -2 h 2.28 v 2 z"
       id="path61" />
    <path
       class="cls-8"
       d="m 623.46,290.93 a 3.46,3.46 0 0 1 2.71,1.08 c 0.78,0.85 1.16,2.26 1.16,4.24 a 6.26,6.26 0 0 1 -1.17,4.25 3.45,3.45 0 0 1 -2.7,1.07 3.64,3.64 0 0 1 -2.81,-1.17 c -0.71,-0.78 -1.06,-2.17 -1.06,-4.17 a 6.27,6.27 0 0 1 1.17,-4.24 3.47,3.47 0 0 1 2.7,-1.06 z m 0,1.65 a 1.27,1.27 0 0 0 -0.74,0.23 1.51,1.51 0 0 0 -0.5,0.83 9.9,9.9 0 0 0 -0.24,2.61 10,10 0 0 0 0.21,2.52 1.65,1.65 0 0 0 0.54,0.91 1.22,1.22 0 0 0 0.73,0.23 1.27,1.27 0 0 0 0.74,-0.23 1.52,1.52 0 0 0 0.51,-0.83 10.33,10.33 0 0 0 0.23,-2.6 10,10 0 0 0 -0.21,-2.52 1.78,1.78 0 0 0 -0.53,-0.92 1.27,1.27 0 0 0 -0.74,-0.23 z"
       id="path62" />
    <rect
       class="cls-25"
       x="269.17999"
       y="331.70001"
       width="297.76001"
       height="172.49001"
       id="rect78" />
    <rect
       class="cls-26"
       x="259.48001"
       y="324.44"
       width="317.20001"
       height="187.02"
       id="rect79" />
    <path
       class="cls-11"
       d="m 808.63,261.12 v 319.64 a 12.81,12.81 0 0 1 -12.82,12.81 H 117.48 a 18.2,18.2 0 0 1 -18.2,-18.2 v -81.25 a 4.51,4.51 0 0 1 4.51,-4.51 h 64.5 a 22,22 0 0 0 22,-22 v -95.82 a 22,22 0 0 0 -22,-22 h -64.86 a 4.15,4.15 0 0 1 -4.15,-4.15 v -79.1 a 18.2,18.2 0 0 1 18.2,-18.2 h 678.34 a 12.81,12.81 0 0 1 12.81,12.78 z"
       id="path79" />
    <rect
       class="cls-11"
       x="250.35001"
       y="261.63"
       width="543.56"
       height="318.62"
       id="rect80" />
    <path
       class="cls-11"
       d="m 160.26,388.91 v 14.42 a 2.77,2.77 0 0 0 2.78,2.78 h 2.88 a 2.78,2.78 0 0 0 2.67,-2 l 2,-7 a 2.29,2.29 0 0 1 2.21,-1.67 h 5.16 v 50.67 h -5.16 a 2.3,2.3 0 0 1 -2.21,-1.68 l -2,-7 a 2.77,2.77 0 0 0 -2.67,-2 H 163 a 2.77,2.77 0 0 0 -2.77,2.77 v 14.42 a 4.63,4.63 0 0 0 4.63,4.63 h 13 v 20.16 H 75 V 362.06 h 103 v 22.23 h -13.12 a 4.62,4.62 0 0 0 -4.62,4.62 z"
       id="path80" />
    <rect
       class="cls-11"
       x="144.5"
       y="383.94"
       width="8.6599998"
       height="22.51"
       rx="3.1800001"
       id="rect81" />
    <rect
       class="cls-11"
       x="144.5"
       y="434.98999"
       width="8.6599998"
       height="22.51"
       rx="3.1800001"
       id="rect82" />
    <path
       class="cls-11"
       d="M 122.75,489.61 V 483 a 2.2,2.2 0 0 1 2.2,-2.2 h 12.64 a 2.19,2.19 0 0 1 2.19,2.2 v 6.62"
       id="path82" />
    <path
       class="cls-11"
       d="m 160.9,489.61 v -6.46 a 2.36,2.36 0 0 1 2.36,-2.36 h 12.31 a 2.36,2.36 0 0 1 2.36,2.36 v 4.25"
       id="path83" />
    <path
       class="cls-11"
       d="m 122.75,349.76 v 6.78 a 2.05,2.05 0 0 0 2,2 h 12.93 a 2.05,2.05 0 0 0 2.05,-2 v -6.78"
       id="path84" />
    <path
       class="cls-11"
       d="m 160.9,349.76 v 5.95 a 2.88,2.88 0 0 0 2.88,2.88 h 11.27 a 2.88,2.88 0 0 0 2.88,-2.88 V 352"
       id="path85" />
    <rect
       class="cls-27"
       x="255.75"
       y="320.89999"
       width="324.76001"
       height="194.92999"
       id="rect85" />
  </g>
</svg>
