<?xml version="1.0" encoding="UTF-8" standalone="no"?>
<svg
   viewBox="0 0 735.60996 347.20999"
   version="1.1"
   id="svg133"
   sodipodi:docname="heltec-t096.svg"
   inkscape:version="1.4 (e7c3feb1, 2024-10-09)"
   width="735.60999"
   height="347.20999"
   xmlns:inkscape="http://www.inkscape.org/namespaces/inkscape"
   xmlns:sodipodi="http://sodipodi.sourceforge.net/DTD/sodipodi-0.dtd"
   xmlns:xlink="http://www.w3.org/1999/xlink"
   xmlns="http://www.w3.org/2000/svg"
   xmlns:svg="http://www.w3.org/2000/svg">
  <sodipodi:namedview
     id="namedview133"
     pagecolor="#ffffff"
     bordercolor="#000000"
     borderopacity="0.25"
     inkscape:showpageshadow="2"
     inkscape:pageopacity="0.0"
     inkscape:pagecheckerboard="0"
     inkscape:deskcolor="#d1d1d1"
     inkscape:zoom="0.70336239"
     inkscape:cx="406.61827"
     inkscape:cy="-74.641466"
     inkscape:window-width="1728"
     inkscape:window-height="1056"
     inkscape:window-x="0"
     inkscape:window-y="33"
     inkscape:window-maximized="1"
     inkscape:current-layer="Layer_3" />
  <defs
     id="defs13">
    <style
       id="style1">.cls-1{fill:url(#linear-gradient);}.cls-2{opacity:0.56;}.cls-3{opacity:0.33;}.cls-19,.cls-31,.cls-32,.cls-33,.cls-4,.cls-7{fill:none;stroke-miterlimit:10;}.cls-4{stroke:#fff;stroke-width:0.53px;}.cls-5{opacity:0.58;fill:url(#linear-gradient-2);}.cls-6{fill:#fff;}.cls-7{stroke:#3a3d3e;}.cls-8{fill:#d0d2d3;}.cls-9{fill:#2b2b2b;}.cls-10{fill:#bcbcbb;}.cls-11{fill:#777775;}.cls-12{fill:url(#linear-gradient-3);}.cls-13{fill:url(#linear-gradient-4);}.cls-14{fill:url(#linear-gradient-5);}.cls-15{fill:url(#linear-gradient-6);}.cls-16{fill:url(#linear-gradient-7);}.cls-17{fill:url(#linear-gradient-8);}.cls-18{fill:#268ac1;}.cls-19,.cls-31,.cls-32{stroke:#1d1d1b;}.cls-19{stroke-width:1.98px;}.cls-20{fill:#1d1d1b;}.cls-21{fill:url(#linear-gradient-9);}.cls-22{fill:url(#linear-gradient-10);}.cls-23{fill:url(#linear-gradient-11);}.cls-24{fill:url(#linear-gradient-12);}.cls-25{fill:url(#linear-gradient-13);}.cls-26{fill:url(#linear-gradient-14);}.cls-27{fill:url(#linear-gradient-15);}.cls-28{fill:url(#linear-gradient-16);}.cls-29{fill:#eed374;}.cls-30{fill:#67c5dd;}.cls-31{stroke-width:1.86px;}.cls-32{stroke-width:2px;}.cls-33{stroke:#e0e0de;}</style>
    <linearGradient
       id="linear-gradient"
       x1="250.35001"
       y1="420.39001"
       x2="793.90997"
       y2="420.39001"
       gradientUnits="userSpaceOnUse">
      <stop
         offset="0"
         stop-color="#7bc6df"
         id="stop1" />
      <stop
         offset="1"
         stop-color="#258ac0"
         id="stop2" />
    </linearGradient>
    <linearGradient
       id="linear-gradient-2"
       x1="266.67001"
       y1="420.39001"
       x2="810.22998"
       y2="420.39001"
       gradientUnits="userSpaceOnUse">
      <stop
         offset="0.1"
         stop-color="#7bc6df"
         id="stop3" />
      <stop
         offset="0.18"
         stop-color="#78c4de"
         stop-opacity="0.96"
         id="stop4" />
      <stop
         offset="0.32"
         stop-color="#6ebdda"
         stop-opacity="0.85"
         id="stop5" />
      <stop
         offset="0.5"
         stop-color="#5fb2d5"
         stop-opacity="0.67"
         id="stop6" />
      <stop
         offset="0.7"
         stop-color="#49a3cd"
         stop-opacity="0.42"
         id="stop7" />
      <stop
         offset="0.93"
         stop-color="#2e90c3"
         stop-opacity="0.11"
         id="stop8" />
      <stop
         offset="1"
         stop-color="#258ac0"
         stop-opacity="0"
         id="stop9" />
    </linearGradient>
    <linearGradient
       id="linear-gradient-3"
       x1="581.5"
       y1="112.6"
       x2="989.09998"
       y2="441.28"
       gradientUnits="userSpaceOnUse">
      <stop
         offset="0"
         stop-color="#65c6e8"
         id="stop10" />
      <stop
         offset="1"
         stop-color="#bde2eb"
         stop-opacity="0"
         id="stop11" />
    </linearGradient>
    <linearGradient
       id="linear-gradient-4"
       x1="321.26999"
       y1="273.57999"
       x2="898.27002"
       y2="738.84998"
       xlink:href="#linear-gradient-3" />
    <linearGradient
       id="linear-gradient-5"
       x1="361.07999"
       y1="224.21001"
       x2="938.08002"
       y2="689.47998"
       xlink:href="#linear-gradient-3" />
    <linearGradient
       id="linear-gradient-6"
       x1="403.67999"
       y1="181.23"
       x2="965.65997"
       y2="634.39001"
       xlink:href="#linear-gradient-3" />
    <linearGradient
       id="linear-gradient-7"
       x1="391.20001"
       y1="95.480003"
       x2="1030.61"
       y2="611.07001"
       xlink:href="#linear-gradient-3" />
    <linearGradient
       id="linear-gradient-8"
       x1="412.88"
       y1="37.41"
       x2="1086.36"
       y2="580.48999"
       xlink:href="#linear-gradient-3" />
    <linearGradient
       id="linear-gradient-9"
       x1="571.42999"
       y1="543.16998"
       x2="775.21002"
       y2="537.67999"
       gradientUnits="userSpaceOnUse">
      <stop
         offset="0"
         stop-color="#fff"
         id="stop12" />
      <stop
         offset="1"
         stop-color="#fff"
         stop-opacity="0"
         id="stop13" />
    </linearGradient>
    <linearGradient
       id="linear-gradient-10"
       x1="571.45001"
       y1="543.87"
       x2="775.22998"
       y2="538.38"
       xlink:href="#linear-gradient-9" />
    <linearGradient
       id="linear-gradient-11"
       x1="571.46997"
       y1="544.56"
       x2="775.25"
       y2="539.08002"
       xlink:href="#linear-gradient-9" />
    <linearGradient
       id="linear-gradient-12"
       x1="571.47998"
       y1="545.26001"
       x2="775.27002"
       y2="539.78003"
       xlink:href="#linear-gradient-9" />
    <linearGradient
       id="linear-gradient-13"
       x1="571.5"
       y1="545.96002"
       x2="775.28003"
       y2="540.46997"
       xlink:href="#linear-gradient-9" />
    <linearGradient
       id="linear-gradient-14"
       x1="571.52002"
       y1="546.65997"
       x2="775.29999"
       y2="541.16998"
       xlink:href="#linear-gradient-9" />
    <linearGradient
       id="linear-gradient-15"
       x1="571.53998"
       y1="547.34998"
       x2="775.32001"
       y2="541.87"
       xlink:href="#linear-gradient-9" />
    <linearGradient
       id="linear-gradient-16"
       x1="571.56"
       y1="548.04999"
       x2="775.34003"
       y2="542.57001"
       xlink:href="#linear-gradient-9" />
    <linearGradient
       inkscape:collect="always"
       xlink:href="#linear-gradient-3"
       id="linearGradient133"
       gradientUnits="userSpaceOnUse"
       x1="581.5"
       y1="112.6"
       x2="989.09998"
       y2="441.28" />
    <linearGradient
       inkscape:collect="always"
       xlink:href="#linear-gradient-9"
       id="linearGradient134"
       gradientUnits="userSpaceOnUse"
       x1="571.42999"
       y1="543.16998"
       x2="775.21002"
       y2="537.67999" />
  </defs>
  <g
     id="Layer_3"
     data-name="Layer 3"
     transform="translate(-74.01,-247.35)">
    <rect
       class="cls-1"
       x="250.35001"
       y="260.53"
       width="543.56"
       height="319.73001"
       id="rect13"
       style="fill:url(#linear-gradient)" />
    <g
       class="cls-2"
       id="g59">
      <g
         class="cls-3"
         id="g30">
        <polyline
           class="cls-4"
           points="793.28 580.26 793.28 561.54 793.28 542.84 793.28 524.13 793.28 505.43 793.28 486.72 793.28 468 793.28 449.3 793.28 430.59 793.28 411.88 793.28 393.18 793.28 374.46 793.28 355.76 793.28 337.05 793.28 318.34 793.28 299.64 793.28 280.93 793.28 262.21"
           id="polyline13" />
        <polyline
           class="cls-4"
           points="774.58 580.26 774.58 561.54 774.58 542.84 774.58 524.13 774.58 505.43 774.58 486.72 774.58 468 774.58 449.3 774.58 430.59 774.58 411.88 774.58 393.18 774.58 374.46 774.58 355.76 774.58 337.05 774.58 318.34 774.58 299.64 774.58 280.93 774.58 262.21"
           id="polyline14" />
        <polyline
           class="cls-4"
           points="755.87 580.26 755.87 561.54 755.87 542.84 755.87 524.13 755.87 505.43 755.87 486.72 755.87 468 755.87 449.3 755.87 430.59 755.87 411.88 755.87 393.18 755.87 374.46 755.87 355.76 755.87 337.05 755.87 318.34 755.87 299.64 755.87 280.93 755.87 262.21"
           id="polyline15" />
        <polyline
           class="cls-4"
           points="737.17 580.26 737.17 561.54 737.17 542.84 737.17 524.13 737.17 505.43 737.17 486.72 737.17 468 737.17 449.3 737.17 430.59 737.17 411.88 737.17 393.18 737.17 374.46 737.17 355.76 737.17 337.05 737.17 318.34 737.17 299.64 737.17 280.93 737.17 262.21"
           id="polyline16" />
        <polyline
           class="cls-4"
           points="718.46 580.26 718.46 561.54 718.46 542.84 718.46 524.13 718.46 505.43 718.46 486.72 718.46 468 718.46 449.3 718.46 430.59 718.46 411.88 718.46 393.18 718.46 374.46 718.46 355.76 718.46 337.05 718.46 318.34 718.46 299.64 718.46 280.93 718.46 262.21"
           id="polyline17" />
        <polyline
           class="cls-4"
           points="699.74 580.26 699.74 561.54 699.74 542.84 699.74 524.13 699.74 505.43 699.74 486.72 699.74 468 699.74 449.3 699.74 430.59 699.74 411.88 699.74 393.18 699.74 374.46 699.74 355.76 699.74 337.05 699.74 318.34 699.74 299.64 699.74 280.93 699.74 262.21"
           id="polyline18" />
        <polyline
           class="cls-4"
           points="681.04 580.26 681.04 561.54 681.04 542.84 681.04 524.13 681.04 505.43 681.04 486.72 681.04 468 681.04 449.3 681.04 430.59 681.04 411.88 681.04 393.18 681.04 374.46 681.04 355.76 681.04 337.05 681.04 318.34 681.04 299.64 681.04 280.93 681.04 262.21"
           id="polyline19" />
        <polyline
           class="cls-4"
           points="662.33 580.26 662.33 561.54 662.33 542.84 662.33 524.13 662.33 505.43 662.33 486.72 662.33 468 662.33 449.3 662.33 430.59 662.33 411.88 662.33 393.18 662.33 374.46 662.33 355.76 662.33 337.05 662.33 318.34 662.33 299.64 662.33 280.93 662.33 262.21"
           id="polyline20" />
        <polyline
           class="cls-4"
           points="643.63 580.26 643.63 561.54 643.63 542.84 643.63 524.13 643.63 505.43 643.63 486.72 643.63 468 643.63 449.3 643.63 430.59 643.63 411.88 643.63 393.18 643.63 374.46 643.63 355.76 643.63 337.05 643.63 318.34 643.63 299.64 643.63 280.93 643.63 262.21"
           id="polyline21" />
        <polyline
           class="cls-4"
           points="624.92 580.26 624.92 561.54 624.92 542.84 624.92 524.13 624.92 505.43 624.92 486.72 624.92 468 624.92 449.3 624.92 430.59 624.92 411.88 624.92 393.18 624.92 374.46 624.92 355.76 624.92 337.05 624.92 318.34 624.92 299.64 624.92 280.93 624.92 262.21"
           id="polyline22" />
        <polyline
           class="cls-4"
           points="606.2 580.26 606.2 561.54 606.2 542.84 606.2 524.13 606.2 505.43 606.2 486.72 606.2 468 606.2 449.3 606.2 430.59 606.2 411.88 606.2 393.18 606.2 374.46 606.2 355.76 606.2 337.05 606.2 318.34 606.2 299.64 606.2 280.93 606.2 262.21"
           id="polyline23" />
        <polyline
           class="cls-4"
           points="587.5 580.26 587.5 561.54 587.5 542.84 587.5 524.13 587.5 505.43 587.5 486.72 587.5 468 587.5 449.3 587.5 430.59 587.5 411.88 587.5 393.18 587.5 374.46 587.5 355.76 587.5 337.05 587.5 318.34 587.5 299.64 587.5 280.93 587.5 262.21"
           id="polyline24" />
        <polyline
           class="cls-4"
           points="568.79 580.26 568.79 561.54 568.79 542.84 568.79 524.13 568.79 505.43 568.79 486.72 568.79 468 568.79 449.3 568.79 430.59 568.79 411.88 568.79 393.18 568.79 374.46 568.79 355.76 568.79 337.05 568.79 318.34 568.79 299.64 568.79 280.93 568.79 262.21"
           id="polyline25" />
        <polyline
           class="cls-4"
           points="550.08 580.26 550.08 561.54 550.08 542.84 550.08 524.13 550.08 505.43 550.08 486.72 550.08 468 550.08 449.3 550.08 430.59 550.08 411.88 550.08 393.18 550.08 374.46 550.08 355.76 550.08 337.05 550.08 318.34 550.08 299.64 550.08 280.93 550.08 262.21"
           id="polyline26" />
        <polyline
           class="cls-4"
           points="531.38 580.26 531.38 561.54 531.38 542.84 531.38 524.13 531.38 505.43 531.38 486.72 531.38 468 531.38 449.3 531.38 430.59 531.38 411.88 531.38 393.18 531.38 374.46 531.38 355.76 531.38 337.05 531.38 318.34 531.38 299.64 531.38 280.93 531.38 262.21"
           id="polyline27" />
        <polyline
           class="cls-4"
           points="512.66 580.26 512.66 561.54 512.66 542.84 512.66 524.13 512.66 505.43 512.66 486.72 512.66 468 512.66 449.3 512.66 430.59 512.66 411.88 512.66 393.18 512.66 374.46 512.66 355.76 512.66 337.05 512.66 318.34 512.66 299.64 512.66 280.93 512.66 262.21"
           id="polyline28" />
        <polyline
           class="cls-4"
           points="493.96 580.26 493.96 561.54 493.96 542.84 493.96 524.13 493.96 505.43 493.96 486.72 493.96 468 493.96 449.3 493.96 430.59 493.96 411.88 493.96 393.18 493.96 374.46 493.96 355.76 493.96 337.05 493.96 318.34 493.96 299.64 493.96 280.93 493.96 262.21"
           id="polyline29" />
        <polyline
           class="cls-4"
           points="475.25 580.26 475.25 561.54 475.25 542.84 475.25 524.13 475.25 505.43 475.25 486.72 475.25 468 475.25 449.3 475.25 430.59 475.25 411.88 475.25 393.18 475.25 374.46 475.25 355.76 475.25 337.05 475.25 318.34 475.25 299.64 475.25 280.93 475.25 262.21"
           id="polyline30" />
      </g>
      <g
         class="cls-3"
         id="g40">
        <polyline
           class="cls-4"
           points="456.54 580.26 456.54 561.54 456.54 542.84 456.54 524.13 456.54 505.43 456.54 486.72 456.54 468 456.54 449.3 456.54 430.59 456.54 411.88 456.54 393.18 456.54 374.46 456.54 355.76 456.54 337.05 456.54 318.34 456.54 299.64 456.54 280.93 456.54 262.21"
           id="polyline31" />
        <polyline
           class="cls-4"
           points="437.84 580.26 437.84 561.54 437.84 542.84 437.84 524.13 437.84 505.43 437.84 486.72 437.84 468 437.84 449.3 437.84 430.59 437.84 411.88 437.84 393.18 437.84 374.46 437.84 355.76 437.84 337.05 437.84 318.34 437.84 299.64 437.84 280.93 437.84 262.21"
           id="polyline32" />
        <polyline
           class="cls-4"
           points="419.12 580.26 419.12 561.54 419.12 542.84 419.12 524.13 419.12 505.43 419.12 486.72 419.12 468 419.12 449.3 419.12 430.59 419.12 411.88 419.12 393.18 419.12 374.46 419.12 355.76 419.12 337.05 419.12 318.34 419.12 299.64 419.12 280.93 419.12 262.21"
           id="polyline33" />
        <polyline
           class="cls-4"
           points="400.41 580.26 400.41 561.54 400.41 542.84 400.41 524.13 400.41 505.43 400.41 486.72 400.41 468 400.41 449.3 400.41 430.59 400.41 411.88 400.41 393.18 400.41 374.46 400.41 355.76 400.41 337.05 400.41 318.34 400.41 299.64 400.41 280.93 400.41 262.21"
           id="polyline34" />
        <polyline
           class="cls-4"
           points="381.71 580.26 381.71 561.54 381.71 542.84 381.71 524.13 381.71 505.43 381.71 486.72 381.71 468 381.71 449.3 381.71 430.59 381.71 411.88 381.71 393.18 381.71 374.46 381.71 355.76 381.71 337.05 381.71 318.34 381.71 299.64 381.71 280.93 381.71 262.21"
           id="polyline35" />
        <polyline
           class="cls-4"
           points="363 580.26 363 561.54 363 542.84 363 524.13 363 505.43 363 486.72 363 468 363 449.3 363 430.59 363 411.88 363 393.18 363 374.46 363 355.76 363 337.05 363 318.34 363 299.64 363 280.93 363 262.21"
           id="polyline36" />
        <polyline
           class="cls-4"
           points="344.3 580.26 344.3 561.54 344.3 542.84 344.3 524.13 344.3 505.43 344.3 486.72 344.3 468 344.3 449.3 344.3 430.59 344.3 411.88 344.3 393.18 344.3 374.46 344.3 355.76 344.3 337.05 344.3 318.34 344.3 299.64 344.3 280.93 344.3 262.21"
           id="polyline37" />
        <polyline
           class="cls-4"
           points="325.58 580.26 325.58 561.54 325.58 542.84 325.58 524.13 325.58 505.43 325.58 486.72 325.58 468 325.58 449.3 325.58 430.59 325.58 411.88 325.58 393.18 325.58 374.46 325.58 355.76 325.58 337.05 325.58 318.34 325.58 299.64 325.58 280.93 325.58 262.21"
           id="polyline38" />
        <polyline
           class="cls-4"
           points="306.87 580.26 306.87 561.54 306.87 542.84 306.87 524.13 306.87 505.43 306.87 486.72 306.87 468 306.87 449.3 306.87 430.59 306.87 411.88 306.87 393.18 306.87 374.46 306.87 355.76 306.87 337.05 306.87 318.34 306.87 299.64 306.87 280.93 306.87 262.21"
           id="polyline39" />
        <polyline
           class="cls-4"
           points="288.17 580.26 288.17 561.54 288.17 542.84 288.17 524.13 288.17 505.43 288.17 486.72 288.17 468 288.17 449.3 288.17 430.59 288.17 411.88 288.17 393.18 288.17 374.46 288.17 355.76 288.17 337.05 288.17 318.34 288.17 299.64 288.17 280.93 288.17 262.21"
           id="polyline40" />
      </g>
      <g
         class="cls-3"
         id="g58">
        <polyline
           class="cls-4"
           points="288.17 262.21 306.87 262.21 325.58 262.21 344.3 262.21 363 262.21 381.71 262.21 400.41 262.21 419.12 262.21 437.84 262.21 456.54 262.21 475.25 262.21 493.96 262.21 512.66 262.21 531.38 262.21 550.08 262.21 568.79 262.21 587.5 262.21 606.2 262.21 624.92 262.21 643.63 262.21 662.33 262.21 681.04 262.21 699.74 262.21 718.46 262.21 737.17 262.21 755.87 262.21 774.58 262.21 793.28 262.21"
           id="polyline41" />
        <polyline
           class="cls-4"
           points="288.17 280.93 306.87 280.93 325.58 280.93 344.3 280.93 363 280.93 381.71 280.93 400.41 280.93 419.12 280.93 437.84 280.93 456.54 280.93 475.25 280.93 493.96 280.93 512.66 280.93 531.38 280.93 550.08 280.93 568.79 280.93 587.5 280.93 606.2 280.93 624.92 280.93 643.63 280.93 662.33 280.93 681.04 280.93 699.74 280.93 718.46 280.93 737.17 280.93 755.87 280.93 774.58 280.93 793.28 280.93"
           id="polyline42" />
        <polyline
           class="cls-4"
           points="288.17 299.64 306.87 299.64 325.58 299.64 344.3 299.64 363 299.64 381.71 299.64 400.41 299.64 419.12 299.64 437.84 299.64 456.54 299.64 475.25 299.64 493.96 299.64 512.66 299.64 531.38 299.64 550.08 299.64 568.79 299.64 587.5 299.64 606.2 299.64 624.92 299.64 643.63 299.64 662.33 299.64 681.04 299.64 699.74 299.64 718.46 299.64 737.17 299.64 755.87 299.64 774.58 299.64 793.28 299.64"
           id="polyline43" />
        <polyline
           class="cls-4"
           points="288.17 318.34 306.87 318.34 325.58 318.34 344.3 318.34 363 318.34 381.71 318.34 400.41 318.34 419.12 318.34 437.84 318.34 456.54 318.34 475.25 318.34 493.96 318.34 512.66 318.34 531.38 318.34 550.08 318.34 568.79 318.34 587.5 318.34 606.2 318.34 624.92 318.34 643.63 318.34 662.33 318.34 681.04 318.34 699.74 318.34 718.46 318.34 737.17 318.34 755.87 318.34 774.58 318.34 793.28 318.34"
           id="polyline44" />
        <polyline
           class="cls-4"
           points="288.17 337.05 306.87 337.05 325.58 337.05 344.3 337.05 363 337.05 381.71 337.05 400.41 337.05 419.12 337.05 437.84 337.05 456.54 337.05 475.25 337.05 493.96 337.05 512.66 337.05 531.38 337.05 550.08 337.05 568.79 337.05 587.5 337.05 606.2 337.05 624.92 337.05 643.63 337.05 662.33 337.05 681.04 337.05 699.74 337.05 718.46 337.05 737.17 337.05 755.87 337.05 774.58 337.05 793.28 337.05"
           id="polyline45" />
        <polyline
           class="cls-4"
           points="288.17 355.76 306.87 355.76 325.58 355.76 344.3 355.76 363 355.76 381.71 355.76 400.41 355.76 419.12 355.76 437.84 355.76 456.54 355.76 475.25 355.76 493.96 355.76 512.66 355.76 531.38 355.76 550.08 355.76 568.79 355.76 587.5 355.76 606.2 355.76 624.92 355.76 643.63 355.76 662.33 355.76 681.04 355.76 699.74 355.76 718.46 355.76 737.17 355.76 755.87 355.76 774.58 355.76 793.28 355.76"
           id="polyline46" />
        <polyline
           class="cls-4"
           points="288.17 374.46 306.87 374.46 325.58 374.46 344.3 374.46 363 374.46 381.71 374.46 400.41 374.46 419.12 374.46 437.84 374.46 456.54 374.46 475.25 374.46 493.96 374.46 512.66 374.46 531.38 374.46 550.08 374.46 568.79 374.46 587.5 374.46 606.2 374.46 624.92 374.46 643.63 374.46 662.33 374.46 681.04 374.46 699.74 374.46 718.46 374.46 737.17 374.46 755.87 374.46 774.58 374.46 793.28 374.46"
           id="polyline47" />
        <polyline
           class="cls-4"
           points="288.17 393.18 306.87 393.18 325.58 393.18 344.3 393.18 363 393.18 381.71 393.18 400.41 393.18 419.12 393.18 437.84 393.18 456.54 393.18 475.25 393.18 493.96 393.18 512.66 393.18 531.38 393.18 550.08 393.18 568.79 393.18 587.5 393.18 606.2 393.18 624.92 393.18 643.63 393.18 662.33 393.18 681.04 393.18 699.74 393.18 718.46 393.18 737.17 393.18 755.87 393.18 774.58 393.18 793.28 393.18"
           id="polyline48" />
        <polyline
           class="cls-4"
           points="288.17 411.88 306.87 411.88 325.58 411.88 344.3 411.88 363 411.88 381.71 411.88 400.41 411.88 419.12 411.88 437.84 411.88 456.54 411.88 475.25 411.88 493.96 411.88 512.66 411.88 531.38 411.88 550.08 411.88 568.79 411.88 587.5 411.88 606.2 411.88 624.92 411.88 643.63 411.88 662.33 411.88 681.04 411.88 699.74 411.88 718.46 411.88 737.17 411.88 755.87 411.88 774.58 411.88 793.28 411.88"
           id="polyline49" />
        <polyline
           class="cls-4"
           points="288.17 430.59 306.87 430.59 325.58 430.59 344.3 430.59 363 430.59 381.71 430.59 400.41 430.59 419.12 430.59 437.84 430.59 456.54 430.59 475.25 430.59 493.96 430.59 512.66 430.59 531.38 430.59 550.08 430.59 568.79 430.59 587.5 430.59 606.2 430.59 624.92 430.59 643.63 430.59 662.33 430.59 681.04 430.59 699.74 430.59 718.46 430.59 737.17 430.59 755.87 430.59 774.58 430.59 793.28 430.59"
           id="polyline50" />
        <polyline
           class="cls-4"
           points="288.17 449.3 306.87 449.3 325.58 449.3 344.3 449.3 363 449.3 381.71 449.3 400.41 449.3 419.12 449.3 437.84 449.3 456.54 449.3 475.25 449.3 493.96 449.3 512.66 449.3 531.38 449.3 550.08 449.3 568.79 449.3 587.5 449.3 606.2 449.3 624.92 449.3 643.63 449.3 662.33 449.3 681.04 449.3 699.74 449.3 718.46 449.3 737.17 449.3 755.87 449.3 774.58 449.3 793.28 449.3"
           id="polyline51" />
        <polyline
           class="cls-4"
           points="288.17 468 306.87 468 325.58 468 344.3 468 363 468 381.71 468 400.41 468 419.12 468 437.84 468 456.54 468 475.25 468 493.96 468 512.66 468 531.38 468 550.08 468 568.79 468 587.5 468 606.2 468 624.92 468 643.63 468 662.33 468 681.04 468 699.74 468 718.46 468 737.17 468 755.87 468 774.58 468 793.28 468"
           id="polyline52" />
        <polyline
           class="cls-4"
           points="288.17 486.72 306.87 486.72 325.58 486.72 344.3 486.72 363 486.72 381.71 486.72 400.41 486.72 419.12 486.72 437.84 486.72 456.54 486.72 475.25 486.72 493.96 486.72 512.66 486.72 531.38 486.72 550.08 486.72 568.79 486.72 587.5 486.72 606.2 486.72 624.92 486.72 643.63 486.72 662.33 486.72 681.04 486.72 699.74 486.72 718.46 486.72 737.17 486.72 755.87 486.72 774.58 486.72 793.28 486.72"
           id="polyline53" />
        <polyline
           class="cls-4"
           points="288.17 505.43 306.87 505.43 325.58 505.43 344.3 505.43 363 505.43 381.71 505.43 400.41 505.43 419.12 505.43 437.84 505.43 456.54 505.43 475.25 505.43 493.96 505.43 512.66 505.43 531.38 505.43 550.08 505.43 568.79 505.43 587.5 505.43 606.2 505.43 624.92 505.43 643.63 505.43 662.33 505.43 681.04 505.43 699.74 505.43 718.46 505.43 737.17 505.43 755.87 505.43 774.58 505.43 793.28 505.43"
           id="polyline54" />
        <polyline
           class="cls-4"
           points="288.17 524.13 306.87 524.13 325.58 524.13 344.3 524.13 363 524.13 381.71 524.13 400.41 524.13 419.12 524.13 437.84 524.13 456.54 524.13 475.25 524.13 493.96 524.13 512.66 524.13 531.38 524.13 550.08 524.13 568.79 524.13 587.5 524.13 606.2 524.13 624.92 524.13 643.63 524.13 662.33 524.13 681.04 524.13 699.74 524.13 718.46 524.13 737.17 524.13 755.87 524.13 774.58 524.13 793.28 524.13"
           id="polyline55" />
        <polyline
           class="cls-4"
           points="288.17 542.84 306.87 542.84 325.58 542.84 344.3 542.84 363 542.84 381.71 542.84 400.41 542.84 419.12 542.84 437.84 542.84 456.54 542.84 475.25 542.84 493.96 542.84 512.66 542.84 531.38 542.84 550.08 542.84 568.79 542.84 587.5 542.84 606.2 542.84 624.92 542.84 643.63 542.84 662.33 542.84 681.04 542.84 699.74 542.84 718.46 542.84 737.17 542.84 755.87 542.84 774.58 542.84 793.28 542.84"
           id="polyline56" />
        <polyline
           class="cls-4"
           points="288.17 561.54 306.87 561.54 325.58 561.54 344.3 561.54 363 561.54 381.71 561.54 400.41 561.54 419.12 561.54 437.84 561.54 456.54 561.54 475.25 561.54 493.96 561.54 512.66 561.54 531.38 561.54 550.08 561.54 568.79 561.54 587.5 561.54 606.2 561.54 624.92 561.54 643.63 561.54 662.33 561.54 681.04 561.54 699.74 561.54 718.46 561.54 737.17 561.54 755.87 561.54 774.58 561.54 793.28 561.54"
           id="polyline57" />
        <polyline
           class="cls-4"
           points="288.17 580.26 306.87 580.26 325.58 580.26 344.3 580.26 363 580.26 381.71 580.26 400.41 580.26 419.12 580.26 437.84 580.26 456.54 580.26 475.25 580.26 493.96 580.26 512.66 580.26 531.38 580.26 550.08 580.26 568.79 580.26 587.5 580.26 606.2 580.26 624.92 580.26 643.63 580.26 662.33 580.26 681.04 580.26 699.74 580.26 718.46 580.26 737.17 580.26 755.87 580.26 774.58 580.26 793.28 580.26"
           id="polyline58" />
      </g>
    </g>
    <rect
       class="cls-5"
       x="250.35001"
       y="260.53"
       width="543.56"
       height="319.73001"
       id="rect59"
       style="fill:url(#linear-gradient-2)" />
    <polygon
       class="cls-6"
       points="603.17,316.21 259.47,316.21 259.47,298.24 287.9,269.81 627.87,269.81 627.87,291.74 "
       id="polygon59" />
    <rect
       class="cls-7"
       x="250.35001"
       y="260.51999"
       width="543.56"
       height="319.73001"
       id="rect60" />
    <path
       class="cls-8"
       d="m 790.44,248.32 h -673 a 18.2,18.2 0 0 0 -18.2,18.2 v 79.1 a 4.15,4.15 0 0 0 4.15,4.15 h 64.86 a 22,22 0 0 1 22,22 v 95.79 a 22,22 0 0 1 -22,22 h -64.5 a 4.51,4.51 0 0 0 -4.51,4.51 v 81.25 a 18.2,18.2 0 0 0 18.2,18.2 h 672.99 a 18.2,18.2 0 0 0 18.2,-18.2 V 266.51 a 18.18,18.18 0 0 0 -18.19,-18.19 z m 3.47,331.94 H 250.35 V 260.53 h 543.56 z"
       id="path60" />
    <path
       class="cls-9"
       d="m 190.32,371.79 v 95.79 a 22,22 0 0 1 -22,22 h -48.1 V 349.76 h 48.1 a 22,22 0 0 1 22,22.03 z"
       id="path61" />
    <path
       class="cls-10"
       d="m 160.26,388.91 v 14.42 a 2.77,2.77 0 0 0 2.78,2.78 h 2.88 a 2.78,2.78 0 0 0 2.67,-2 l 2,-7 a 2.29,2.29 0 0 1 2.21,-1.67 h 5.16 v 50.67 h -5.16 a 2.3,2.3 0 0 1 -2.21,-1.68 l -2,-7 a 2.77,2.77 0 0 0 -2.67,-2 H 163 a 2.77,2.77 0 0 0 -2.77,2.77 v 14.42 a 4.63,4.63 0 0 0 4.63,4.63 h 13 v 20.16 H 81.14 A 6.18,6.18 0 0 1 75,471.14 V 368.25 a 6.19,6.19 0 0 1 6.18,-6.19 h 96.79 v 22.23 h -13.09 a 4.62,4.62 0 0 0 -4.62,4.62 z"
       id="path62" />
    <rect
       class="cls-11"
       x="144.5"
       y="383.94"
       width="8.6599998"
       height="22.51"
       rx="3.1800001"
       id="rect62" />
    <rect
       class="cls-11"
       x="144.5"
       y="434.98999"
       width="8.6599998"
       height="22.51"
       rx="3.1800001"
       id="rect63" />
    <polygon
       class="cls-12"
       points="768.92,269.33 782.8,269.33 782.8,279.56 "
       id="polygon63"
       style="fill:url(#linearGradient133)" />
    <polygon
       class="cls-13"
       points="584.97,510.81 584.97,466.43 653.93,517.25 593.71,517.25 "
       id="polygon64"
       style="fill:url(#linear-gradient-4)" />
    <polygon
       class="cls-14"
       points="584.97,436.85 584.97,385.1 764.28,517.25 694.06,517.25 "
       id="polygon65"
       style="fill:url(#linear-gradient-5)" />
    <polygon
       class="cls-15"
       points="584.98,360.16 584.98,324.44 606.73,324.44 782.8,454.2 782.8,505.95 "
       id="polygon66"
       style="fill:url(#linear-gradient-6)" />
    <polygon
       class="cls-16"
       points="641.97,325.47 641.97,279.65 782.8,383.46 782.8,429.27 "
       id="polygon67"
       style="fill:url(#linear-gradient-7)" />
    <polygon
       class="cls-17"
       points="667.11,269.33 729.27,269.33 782.8,308.79 782.8,354.6 "
       id="polygon68"
       style="fill:url(#linear-gradient-8)" />
    <path
       class="cls-18"
       d="m 710,365.47 10.69,-14.47 2.95,2.17 -8.84,12 7.33,5.39 -1.81,2.44 z"
       id="path68" />
    <path
       class="cls-18"
       d="m 725.75,368.65 a 7.19,7.19 0 0 1 2.67,-2.2 5.9,5.9 0 0 1 3.42,-0.56 7.24,7.24 0 0 1 3.32,1.38 6.52,6.52 0 0 1 2.78,4.46 6.64,6.64 0 0 1 -1.36,5.06 6.73,6.73 0 0 1 -4.47,2.84 6.5,6.5 0 0 1 -5.07,-1.28 7.76,7.76 0 0 1 -2.29,-2.7 5.7,5.7 0 0 1 -0.59,-3.41 8,8 0 0 1 1.59,-3.59 z m 2.76,2.25 a 4.41,4.41 0 0 0 -1,3 3,3 0 0 0 1.23,2.2 2.93,2.93 0 0 0 2.45,0.51 4.38,4.38 0 0 0 2.53,-1.88 4.28,4.28 0 0 0 1,-2.94 3,3 0 0 0 -3.72,-2.79 4.37,4.37 0 0 0 -2.49,1.9 z"
       id="path69" />
    <path
       class="cls-18"
       d="m 734.89,383.75 10.74,-14.61 6.21,4.57 a 13.4,13.4 0 0 1 3.16,2.89 4.2,4.2 0 0 1 0.67,2.65 5.17,5.17 0 0 1 -1.06,2.77 4.81,4.81 0 0 1 -3,2 5.74,5.74 0 0 1 -3.88,-0.78 8.78,8.78 0 0 1 0.68,2.39 21.7,21.7 0 0 1 -0.07,3.6 l -0.34,4.17 -3.53,-2.59 0.21,-4.75 a 25.23,25.23 0 0 0 0,-3.29 2.73,2.73 0 0 0 -0.44,-1.25 5.93,5.93 0 0 0 -1.36,-1.26 l -0.6,-0.44 -4.48,6.1 z m 9.15,-6.26 2.18,1.6 a 13.92,13.92 0 0 0 2.78,1.77 1.94,1.94 0 0 0 1.28,0 2.37,2.37 0 0 0 1.11,-0.87 2.19,2.19 0 0 0 0.48,-1.48 2.23,2.23 0 0 0 -0.69,-1.39 c -0.22,-0.21 -0.92,-0.76 -2.12,-1.64 l -2.3,-1.69 z"
       id="path70" />
    <path
       class="cls-18"
       d="m 757.09,388.75 -2.2,-2.33 a 4.93,4.93 0 0 1 3.14,-1.19 6.76,6.76 0 0 1 3.65,1.55 8.38,8.38 0 0 1 2.47,2.5 3.49,3.49 0 0 1 0.46,2.07 7.24,7.24 0 0 1 -1.47,2.78 l -2.43,3.25 a 13.63,13.63 0 0 0 -1.38,2.15 7.12,7.12 0 0 0 -0.54,1.79 l -2.77,-2 a 9.89,9.89 0 0 1 0.34,-1 c 0.07,-0.2 0.12,-0.33 0.14,-0.4 a 6.27,6.27 0 0 1 -2.3,-0.08 5.32,5.32 0 0 1 -2,-0.94 4.49,4.49 0 0 1 -1.93,-2.78 3.68,3.68 0 0 1 0.71,-2.93 3.64,3.64 0 0 1 1.6,-1.28 3.49,3.49 0 0 1 2,-0.2 11.59,11.59 0 0 1 2.7,1 19.62,19.62 0 0 0 3.23,1.31 l 0.2,-0.28 a 1.77,1.77 0 0 0 0.45,-1.44 2.93,2.93 0 0 0 -1.25,-1.45 2.47,2.47 0 0 0 -1.38,-0.56 2.49,2.49 0 0 0 -1.44,0.46 z m 2.08,5 a 19,19 0 0 1 -2,-0.82 6.07,6.07 0 0 0 -1.88,-0.63 1.46,1.46 0 0 0 -1.28,0.58 1.71,1.71 0 0 0 -0.31,1.34 1.93,1.93 0 0 0 0.8,1.25 3,3 0 0 0 1.81,0.56 2.18,2.18 0 0 0 1.35,-0.43 7.34,7.34 0 0 0 1.12,-1.29 z"
       id="path71" />
    <path
       class="cls-18"
       d="m 660.38,394.5 1.82,-2.56 6.42,4.86 -4.32,6.05 a 9.8,9.8 0 0 1 -3.88,-0.42 12,12 0 0 1 -4.11,-2 10.3,10.3 0 0 1 -3.32,-4.05 8.11,8.11 0 0 1 -0.54,-4.82 11.71,11.71 0 0 1 2,-4.7 10.63,10.63 0 0 1 4,-3.48 7.91,7.91 0 0 1 4.85,-0.69 9.43,9.43 0 0 1 4.07,1.92 9.07,9.07 0 0 1 3.45,4.43 6.88,6.88 0 0 1 -0.36,4.79 l -3.36,-1.67 a 4.19,4.19 0 0 0 0.09,-2.66 4.56,4.56 0 0 0 -1.69,-2.27 4.92,4.92 0 0 0 -4,-1.07 6.43,6.43 0 0 0 -3.85,2.9 7.53,7.53 0 0 0 -1.75,4.94 5,5 0 0 0 2.09,3.67 6.32,6.32 0 0 0 2.15,1 7.8,7.8 0 0 0 2.27,0.3 l 1.38,-1.92 z"
       id="path72" />
    <path
       class="cls-18"
       d="m 665.58,407 10.85,-15.18 2.9,2.19 -1.2,14.71 7.24,-10.14 2.77,2.1 -10.85,15.22 -3,-2.27 1.13,-14.4 -7.08,9.9 z"
       id="path73" />
    <path
       class="cls-18"
       d="m 683.21,412.77 3.11,1.9 a 4.7,4.7 0 0 0 -0.52,3 4.09,4.09 0 0 0 1.66,2.34 4,4 0 0 0 2.62,1 2.19,2.19 0 0 0 1.77,-0.91 1.76,1.76 0 0 0 0.35,-1.15 3.27,3.27 0 0 0 -0.6,-1.47 c -0.26,-0.38 -0.9,-1.21 -1.91,-2.46 a 10.42,10.42 0 0 1 -2.29,-4.02 5,5 0 0 1 0.82,-4.08 4.76,4.76 0 0 1 5.13,-1.83 8.88,8.88 0 0 1 3.28,1.67 7.91,7.91 0 0 1 3.29,4.41 5.63,5.63 0 0 1 -0.92,4.47 l -3.07,-2.12 a 3.3,3.3 0 0 0 0.38,-2.31 3.8,3.8 0 0 0 -1.52,-1.94 4.2,4.2 0 0 0 -2.42,-1 1.32,1.32 0 0 0 -1.15,0.59 1.46,1.46 0 0 0 -0.22,1.25 10.2,10.2 0 0 0 2,3.09 18.76,18.76 0 0 1 2.43,3.53 5.39,5.39 0 0 1 0.53,2.77 5.83,5.83 0 0 1 -1.14,2.87 5.52,5.52 0 0 1 -2.45,1.91 5.16,5.16 0 0 1 -3.21,0.18 10.38,10.38 0 0 1 -3.6,-1.87 8.18,8.18 0 0 1 -3.35,-4.59 7.38,7.38 0 0 1 1,-5.23 z"
       id="path74" />
    <path
       class="cls-18"
       d="m 697,423.17 3.1,1.91 a 4.61,4.61 0 0 0 -0.51,3 4.1,4.1 0 0 0 1.65,2.33 4.05,4.05 0 0 0 2.62,1 2.23,2.23 0 0 0 1.78,-0.92 1.79,1.79 0 0 0 0.35,-1.14 3.22,3.22 0 0 0 -0.61,-1.47 c -0.26,-0.39 -0.89,-1.21 -1.91,-2.47 a 10.48,10.48 0 0 1 -2.29,-4.05 5,5 0 0 1 0.83,-4.08 4.7,4.7 0 0 1 2.19,-1.68 4.87,4.87 0 0 1 2.94,-0.15 9.11,9.11 0 0 1 3.28,1.67 8,8 0 0 1 3.29,4.42 5.65,5.65 0 0 1 -0.92,4.46 l -3.08,-2.12 a 3.35,3.35 0 0 0 0.39,-2.3 3.82,3.82 0 0 0 -1.52,-1.94 4.12,4.12 0 0 0 -2.43,-1 1.3,1.3 0 0 0 -1.14,0.58 1.49,1.49 0 0 0 -0.22,1.26 9.89,9.89 0 0 0 2,3.08 18.74,18.74 0 0 1 2.44,3.53 5.4,5.4 0 0 1 0.52,2.77 5.64,5.64 0 0 1 -1.14,2.87 5.45,5.45 0 0 1 -2.45,1.91 5.06,5.06 0 0 1 -3.2,0.18 10.25,10.25 0 0 1 -3.61,-1.87 8.14,8.14 0 0 1 -3.34,-4.58 7.35,7.35 0 0 1 0.99,-5.2 z"
       id="path75" />
    <line
       class="cls-19"
       x1="120.19"
       y1="489.60999"
       x2="120.19"
       y2="477.32001"
       id="line75" />
    <line
       class="cls-19"
       x1="120.19"
       y1="362.06"
       x2="120.19"
       y2="349.76001"
       id="line76" />
    <path
       class="cls-20"
       d="m 234.76,324.92 v 0 a 3,3 0 0 1 -3,3 h -20.84 a 27.54,27.54 0 0 1 -27.55,-27.55 v -52.06 h 6 v 52.05 a 21.62,21.62 0 0 0 21.56,21.56 h 20.83 a 3,3 0 0 1 3,3 z"
       id="path76" />
    <path
       class="cls-20"
       d="m 234.76,517 v 0 a 3,3 0 0 0 -3,-3 h -20.83 a 27.56,27.56 0 0 0 -27.56,27.56 v 52.05 h 6 V 541.52 A 21.63,21.63 0 0 1 210.93,520 h 20.83 a 3,3 0 0 0 3,-3 z"
       id="path77" />
    <path
       class="cls-10"
       d="M 122.75,489.61 V 483 a 2.2,2.2 0 0 1 2.2,-2.2 h 12.64 a 2.19,2.19 0 0 1 2.19,2.2 v 6.62"
       id="path78" />
    <path
       class="cls-10"
       d="m 160.9,489.61 v -6.46 a 2.36,2.36 0 0 1 2.36,-2.36 h 12.31 a 2.36,2.36 0 0 1 2.36,2.36 v 4.25"
       id="path79" />
    <path
       class="cls-10"
       d="m 122.75,349.76 v 6.78 a 2.05,2.05 0 0 0 2,2 h 12.93 a 2.05,2.05 0 0 0 2.05,-2 v -6.78"
       id="path80" />
    <path
       class="cls-10"
       d="m 160.9,349.76 v 5.95 a 2.88,2.88 0 0 0 2.88,2.88 h 11.27 a 2.88,2.88 0 0 0 2.88,-2.88 V 352"
       id="path81" />
    <path
       class="cls-9"
       d="m 259.47,324.44 v 187 h 317.21 v -187 z M 566.94,504.19 H 269.18 V 331.7 h 297.76 z"
       id="path82" />
    <rect
       x="269.17999"
       y="331.70001"
       width="297.76001"
       height="172.49001"
       id="rect82" />
    <polygon
       class="cls-6"
       points="267.2,558.95 254.77,542.85 267.2,526.76 564.66,526.76 577.82,542.85 564.66,558.95 "
       id="polygon82" />
    <polygon
       class="cls-21"
       points="577.96,558.95 590.69,542.85 577.96,526.76 588.47,526.76 601.2,542.85 588.47,558.95 "
       id="polygon83"
       style="fill:url(#linearGradient134)" />
    <polygon
       class="cls-22"
       points="603.9,558.95 616.63,542.85 603.9,526.76 614.41,526.76 627.14,542.85 614.41,558.95 "
       id="polygon84"
       style="fill:url(#linear-gradient-10)" />
    <polygon
       class="cls-23"
       points="629.85,558.95 642.58,542.85 629.85,526.76 640.35,526.76 653.08,542.85 640.35,558.95 "
       id="polygon85"
       style="fill:url(#linear-gradient-11)" />
    <polygon
       class="cls-24"
       points="655.79,558.95 668.52,542.85 655.79,526.76 666.29,526.76 679.02,542.85 666.29,558.95 "
       id="polygon86"
       style="fill:url(#linear-gradient-12)" />
    <polygon
       class="cls-25"
       points="681.73,558.95 694.46,542.85 681.73,526.76 692.24,526.76 704.97,542.85 692.24,558.95 "
       id="polygon87"
       style="fill:url(#linear-gradient-13)" />
    <polygon
       class="cls-26"
       points="707.67,558.95 720.4,542.85 707.67,526.76 718.18,526.76 730.91,542.85 718.18,558.95 "
       id="polygon88"
       style="fill:url(#linear-gradient-14)" />
    <polygon
       class="cls-27"
       points="733.62,558.95 746.35,542.85 733.62,526.76 744.12,526.76 756.85,542.85 744.12,558.95 "
       id="polygon89"
       style="fill:url(#linear-gradient-15)" />
    <polygon
       class="cls-28"
       points="759.56,558.95 772.29,542.85 759.56,526.76 770.06,526.76 782.79,542.85 770.06,558.95 "
       id="polygon90"
       style="fill:url(#linear-gradient-16)" />
    <polygon
       class="cls-29"
       points="259.47,269.81 278.18,269.81 259.47,288.52 "
       id="polygon91" />
    <rect
       class="cls-31"
       x="269.17999"
       y="331.70001"
       width="297.76001"
       height="172.49001"
       id="rect106" />
    <rect
       class="cls-32"
       x="259.48001"
       y="324.44"
       width="317.20001"
       height="187.02"
       id="rect107" />
    <path
       class="cls-19"
       d="m 808.63,261.12 v 319.64 a 12.81,12.81 0 0 1 -12.82,12.81 H 117.48 a 18.2,18.2 0 0 1 -18.2,-18.2 v -81.25 a 4.51,4.51 0 0 1 4.51,-4.51 h 64.5 a 22,22 0 0 0 22,-22 v -95.82 a 22,22 0 0 0 -22,-22 h -64.86 a 4.15,4.15 0 0 1 -4.15,-4.15 v -79.1 a 18.2,18.2 0 0 1 18.2,-18.2 h 678.34 a 12.81,12.81 0 0 1 12.81,12.78 z"
       id="path107" />
    <rect
       class="cls-19"
       x="250.35001"
       y="261.63"
       width="543.56"
       height="318.62"
       id="rect108" />
    <path
       class="cls-19"
       d="m 160.26,388.91 v 14.42 a 2.77,2.77 0 0 0 2.78,2.78 h 2.88 a 2.78,2.78 0 0 0 2.67,-2 l 2,-7 a 2.29,2.29 0 0 1 2.21,-1.67 h 5.16 v 50.67 h -5.16 a 2.3,2.3 0 0 1 -2.21,-1.68 l -2,-7 a 2.77,2.77 0 0 0 -2.67,-2 H 163 a 2.77,2.77 0 0 0 -2.77,2.77 v 14.42 a 4.63,4.63 0 0 0 4.63,4.63 h 13 v 20.16 H 75 V 362.06 h 103 v 22.23 h -13.12 a 4.62,4.62 0 0 0 -4.62,4.62 z"
       id="path108" />
    <rect
       class="cls-19"
       x="144.5"
       y="383.94"
       width="8.6599998"
       height="22.51"
       rx="3.1800001"
       id="rect109" />
    <rect
       class="cls-19"
       x="144.5"
       y="434.98999"
       width="8.6599998"
       height="22.51"
       rx="3.1800001"
       id="rect110" />
    <path
       class="cls-19"
       d="M 122.75,489.61 V 483 a 2.2,2.2 0 0 1 2.2,-2.2 h 12.64 a 2.19,2.19 0 0 1 2.19,2.2 v 6.62"
       id="path110" />
    <path
       class="cls-19"
       d="m 160.9,489.61 v -6.46 a 2.36,2.36 0 0 1 2.36,-2.36 h 12.31 a 2.36,2.36 0 0 1 2.36,2.36 v 4.25"
       id="path111" />
    <path
       class="cls-19"
       d="m 122.75,349.76 v 6.78 a 2.05,2.05 0 0 0 2,2 h 12.93 a 2.05,2.05 0 0 0 2.05,-2 v -6.78"
       id="path112" />
    <path
       class="cls-19"
       d="m 160.9,349.76 v 5.95 a 2.88,2.88 0 0 0 2.88,2.88 h 11.27 a 2.88,2.88 0 0 0 2.88,-2.88 V 352"
       id="path113" />
    <rect
       class="cls-33"
       x="255.75"
       y="320.89999"
       width="324.76001"
       height="194.92999"
       id="rect113" />
    <path
       class="cls-20"
       d="m 289.72,282.18 h 6.35 l 0.82,10.2 c 0.07,1.35 0,2.82 0.09,4.23 h 0.15 c 1,-1.41 1.91,-2.88 2.87,-4.23 l 7.4,-10.2 h 6.36 l -7.57,22.95 h -5.3 l 2.78,-8.42 c 0.74,-2.24 2.31,-5.58 3.31,-7.8 h -0.16 l -3.9,5.43 -6.54,8.79 h -3.23 l -0.75,-8.79 -0.26,-5.43 H 292 a 79.87,79.87 0 0 1 -1.83,7.8 l -2.77,8.42 h -5.22 z"
       id="path114" />
    <path
       class="cls-20"
       d="m 313.52,296.4 a 13.64,13.64 0 0 1 12.26,-9.16 c 5.58,0 7.16,3.61 5.59,8.38 a 13.32,13.32 0 0 1 -1,2.29 h -11.73 c -0.31,2.54 1.26,3.7 3.87,3.7 a 11.17,11.17 0 0 0 4.62,-1.15 l 0.89,3.13 a 17.68,17.68 0 0 1 -7.6,2 c -5.59,-0.03 -8.81,-3.4 -6.9,-9.19 z m 13.26,-1.91 c 0.63,-1.92 0.15,-3.31 -2.17,-3.31 a 5.62,5.62 0 0 0 -4.9,3.31 z"
       id="path115" />
    <path
       class="cls-20"
       d="m 331.18,303.11 3.67,-3.22 a 6.6,6.6 0 0 0 4.45,1.83 c 1.73,0 2.67,-0.58 3,-1.5 0.38,-1.15 -1.39,-1.67 -3.17,-2.38 -2.13,-0.82 -4.45,-2.25 -3.5,-5.13 1.08,-3.26 4.77,-5.47 9.29,-5.47 a 8.88,8.88 0 0 1 6.18,2.21 l -3.62,3.11 a 5.66,5.66 0 0 0 -3.64,-1.49 c -1.5,0 -2.41,0.52 -2.69,1.39 -0.37,1.12 1.32,1.54 3.14,2.2 2.21,0.82 4.6,2.06 3.54,5.26 -1.06,3.2 -4.65,5.64 -9.9,5.64 a 10.14,10.14 0 0 1 -6.75,-2.45 z"
       id="path116" />
    <path
       class="cls-20"
       d="m 357.87,280.46 h 5.81 l -2,6 -1.3,3.16 a 12.88,12.88 0 0 1 6.85,-2.41 c 4.26,0 5.19,2.68 3.76,7 l -3.58,10.85 h -5.8 L 365,295 c 0.83,-2.52 0.33,-3.3 -1.35,-3.3 -1.46,0 -2.55,0.6 -4.19,1.69 l -3.88,11.79 h -5.8 z"
       id="path117" />
    <path
       class="cls-20"
       d="m 388.25,282.18 h 6 l 2.95,11.41 0.89,5.05 h 0.16 a 82.74,82.74 0 0 1 2,-8.35 l 2.68,-8.11 h 5.54 l -7.56,22.95 h -6 l -2.91,-11.44 -0.9,-5 h -0.16 a 83.64,83.64 0 0 1 -2,8.31 l -2.68,8.15 h -5.55 z"
       id="path118" />
    <path
       class="cls-20"
       d="m 408.22,296.4 a 13.6,13.6 0 0 1 12.56,-9.16 c 5,0 8.44,3.35 6.53,9.16 a 13.62,13.62 0 0 1 -12.56,9.16 c -4.96,0 -8.44,-3.36 -6.53,-9.16 z m 13.14,0 c 1,-3 0.45,-5 -1.95,-5 -2.4,0 -4.25,2 -5.24,5 -0.99,3 -0.45,5 1.95,5 2.4,0 4.24,-1.97 5.24,-5 z"
       id="path119" />
    <path
       class="cls-20"
       d="m 430.27,296.4 c 1.89,-5.71 7,-9.16 11.15,-9.16 a 4.92,4.92 0 0 1 4.21,1.82 l 0.66,-2.65 2,-6 h 5.81 l -8.13,24.67 h -4.74 l 0.15,-1.73 h -0.14 a 11.25,11.25 0 0 1 -5.92,2.16 c -4.92,0.05 -6.93,-3.4 -5.05,-9.11 z m 11.63,3.35 2.36,-7.17 a 3.8,3.8 0 0 0 -2.88,-1.11 c -1.88,0 -4,1.55 -5.14,4.87 -1.14,3.32 -0.31,5 1.94,5 a 5.48,5.48 0 0 0 3.72,-1.59 z"
       id="path120" />
    <path
       class="cls-20"
       d="m 452.78,296.4 a 13.66,13.66 0 0 1 12.27,-9.16 c 5.58,0 7.15,3.61 5.58,8.38 a 13.43,13.43 0 0 1 -1,2.29 h -11.72 c -0.31,2.54 1.25,3.7 3.87,3.7 a 11.13,11.13 0 0 0 4.61,-1.15 l 0.89,3.13 a 17.64,17.64 0 0 1 -7.6,2 c -5.59,-0.03 -8.8,-3.4 -6.9,-9.19 z M 466,294.49 c 0.64,-1.92 0.15,-3.31 -2.16,-3.31 a 5.63,5.63 0 0 0 -4.91,3.31 z"
       id="path121" />
    <path
       class="cls-20"
       d="M 491.06,286.53 H 484 l 1.44,-4.35 h 20 l -1.44,4.35 h -7.09 l -6.13,18.6 h -5.82 z"
       id="path122" />
    <path
       class="cls-20"
       d="m 504,293.85 c 2.51,-7.61 7.38,-11.51 12.77,-11.51 5.39,0 7.68,3.93 5.18,11.51 -2.5,7.58 -7.44,11.71 -12.83,11.71 -5.39,0 -7.64,-4.1 -5.12,-11.71 z m 12.46,0 c 2,-6.1 0.94,-7.5 -1,-7.5 -1.94,0 -3.94,1.4 -6,7.5 -2.06,6.1 -1,7.7 0.94,7.7 1.94,0 4.04,-1.55 6.05,-7.7 z"
       id="path123" />
    <path
       class="cls-20"
       d="m 522.13,302.86 4.09,-3.1 a 4.16,4.16 0 0 0 3.36,1.62 c 2.95,0 5.87,-2 7.84,-7.95 1.83,-5.55 0.41,-7.2 -1.71,-7.2 -1.71,0 -3.51,1.08 -4.34,3.61 -0.78,2.36 0.32,3.26 2.22,3.26 a 6.79,6.79 0 0 0 4.69,-2.41 l -0.85,3.38 a 10.45,10.45 0 0 1 -6.17,2.68 c -4.29,0 -6.75,-2.17 -5.19,-6.91 a 11.45,11.45 0 0 1 10.81,-7.5 c 4.86,0 8.42,3.24 5.84,11.09 -2.76,8.36 -8.86,12.13 -14.14,12.13 -3.32,0 -5.34,-1.26 -6.45,-2.7 z"
       id="path124" />
    <path
       class="cls-20"
       d="m 545.67,294.47 c 2.75,-8.36 8.86,-12.13 14.13,-12.13 3.32,0 5.33,1.25 6.45,2.7 l -4.09,3.09 a 4.16,4.16 0 0 0 -3.36,-1.61 c -2.92,0 -5.87,2 -7.83,8 -1.83,5.55 -0.42,7.2 1.7,7.2 1.71,0 3.51,-1.08 4.35,-3.61 0.78,-2.37 -0.33,-3.26 -2.22,-3.26 a 6.83,6.83 0 0 0 -4.7,2.41 l 0.85,-3.38 a 10.43,10.43 0 0 1 6.17,-2.69 c 4.3,0 6.76,2.18 5.2,6.92 a 11.47,11.47 0 0 1 -10.82,7.5 c -4.86,-0.05 -8.42,-3.29 -5.83,-11.14 z"
       id="path125" />
    <path
       class="cls-20"
       d="m 272.73,538.37 h 2.45 l 0.22,1.72 h 0.09 a 5.93,5.93 0 0 1 4.18,-2 c 2.72,0 3.91,1.85 3.91,5.06 v 8 h -3 v -7.6 c 0,-2.09 -0.6,-2.88 -2,-2.88 -1.12,0 -1.86,0.55 -2.9,1.59 v 8.89 h -3 z"
       id="path126" />
    <path
       class="cls-20"
       d="m 287.51,534.15 h 5.71 c 3.52,0 6.24,1.25 6.24,5 0,3.75 -2.72,5.3 -6.24,5.3 h -2.71 v 6.62 h -3 z m 5.4,7.92 c 2.32,0 3.58,-1 3.58,-2.89 0,-1.89 -1.26,-2.62 -3.58,-2.62 h -2.4 v 5.51 z m -0.26,1.6 2.18,-1.79 5.29,9.22 h -3.38 z"
       id="path127" />
    <path
       class="cls-20"
       d="m 302.85,534.15 h 10.24 v 2.53 h -7.23 v 4.81 H 312 V 544 h -6.15 v 7.08 h -3 z"
       id="path128" />
    <path
       class="cls-20"
       d="m 314.53,549.12 1.39,-1.9 a 5.44,5.44 0 0 0 3.85,1.76 3,3 0 0 0 3.18,-3.16 2.83,2.83 0 0 0 -3,-3.08 4.28,4.28 0 0 0 -2.64,0.92 l -1.42,-0.91 0.5,-8.14 h 8.81 v 2.53 H 319 l -0.35,4 a 4.65,4.65 0 0 1 2.18,-0.53 c 2.83,0 5.18,1.61 5.18,5.14 a 5.54,5.54 0 0 1 -5.8,5.68 7.56,7.56 0 0 1 -5.68,-2.31 z"
       id="path129" />
    <path
       class="cls-20"
       d="m 328.21,549.37 c 4.57,-4.45 7.45,-7.34 7.45,-9.86 a 2.55,2.55 0 0 0 -2.72,-2.84 4.52,4.52 0 0 0 -3.22,1.83 l -1.66,-1.64 a 6.73,6.73 0 0 1 5.27,-2.56 4.83,4.83 0 0 1 5.21,5.06 c 0,2.93 -2.71,5.95 -6,9.38 0.87,-0.08 2,-0.17 2.77,-0.17 h 4 v 2.53 h -11.1 z"
       id="path130" />
    <path
       class="cls-20"
       d="m 341.58,546.88 a 4.88,4.88 0 0 1 3,-4.24 v -0.1 a 4.71,4.71 0 0 1 -2.26,-3.85 c 0,-2.67 2.12,-4.39 5,-4.39 2.88,0 4.84,1.8 4.84,4.46 a 5,5 0 0 1 -2.21,3.79 v 0.1 a 4.76,4.76 0 0 1 2.85,4.27 c 0,2.54 -2.23,4.49 -5.57,4.49 -3.34,0 -5.65,-1.87 -5.65,-4.53 z m 8.36,0 c 0,-1.79 -1.74,-2.44 -4,-3.36 a 4,4 0 0 0 -1.77,3.1 2.79,2.79 0 0 0 3,2.72 2.44,2.44 0 0 0 2.77,-2.51 z m -0.32,-7.89 a 2.33,2.33 0 0 0 -2.42,-2.52 2.14,2.14 0 0 0 -2.25,2.27 c 0,1.65 1.48,2.39 3.3,3.11 a 4,4 0 0 0 1.37,-2.91 z"
       id="path131" />
    <path
       class="cls-20"
       d="m 361.55,540.82 c 0,-1 0.08,-2.47 0.14,-3.43 h -0.11 c -0.41,0.86 -0.88,1.68 -1.35,2.56 l -3,4.6 h 9.18 v 2.31 h -12.12 v -2 l 6.53,-10.22 h 3.53 v 16.46 h -2.8 z"
       id="path132" />
    <path
       class="cls-20"
       d="m 368.15,542.79 c 0,-5.57 2.18,-8.49 5.6,-8.49 3.42,0 5.6,2.93 5.6,8.49 0,5.56 -2.18,8.62 -5.6,8.62 -3.42,0 -5.6,-3.05 -5.6,-8.62 z m 8.35,0 c 0,-4.67 -1.15,-6.15 -2.75,-6.15 -1.6,0 -2.75,1.48 -2.75,6.15 0,4.67 1.15,6.28 2.75,6.28 1.6,0 2.75,-1.62 2.75,-6.28 z"
       id="path133" />
  </g>
</svg>
