<?xml version="1.0" encoding="UTF-8" standalone="no"?>
<svg
   viewBox="0 0 587.9104 687.70074"
   version="1.1"
   id="svg200"
   sodipodi:docname="buyer benmeshtastic-01 (6).svg"
   inkscape:version="1.4 (e7c3feb1, 2024-10-09)"
   width="587.9104"
   height="687.70074"
   xmlns:inkscape="http://www.inkscape.org/namespaces/inkscape"
   xmlns:sodipodi="http://sodipodi.sourceforge.net/DTD/sodipodi-0.dtd"
   xmlns="http://www.w3.org/2000/svg"
   xmlns:svg="http://www.w3.org/2000/svg">
  <sodipodi:namedview
     id="namedview200"
     pagecolor="#ffffff"
     bordercolor="#000000"
     borderopacity="0.25"
     inkscape:showpageshadow="2"
     inkscape:pageopacity="0.0"
     inkscape:pagecheckerboard="0"
     inkscape:deskcolor="#d1d1d1"
     inkscape:zoom="0.63720913"
     inkscape:cx="-10.985404"
     inkscape:cy="444.90888"
     inkscape:window-width="1472"
     inkscape:window-height="890"
     inkscape:window-x="0"
     inkscape:window-y="38"
     inkscape:window-maximized="1"
     inkscape:current-layer="svg200" />
  <defs
     id="defs1">
    <style
       id="style1">.cls-1{fill:#cf8740;}.cls-2{fill:#61636e;}.cls-3{fill:#282828;}.cls-4{fill:#cfcdcc;}.cls-5{fill:#989a9e;}.cls-12,.cls-14,.cls-18,.cls-19,.cls-20,.cls-6{fill:none;}.cls-6{stroke:#b7b6b6;}.cls-18,.cls-19,.cls-20,.cls-6{stroke-miterlimit:10;}.cls-18,.cls-6{stroke-width:1.94px;}.cls-7{fill:#333433;}.cls-8{fill:#f8ae59;}.cls-9{fill:#e5e3e2;}.cls-10{fill:#d7d6d5;}.cls-11{fill:#7a7b7c;}.cls-12,.cls-14,.cls-18,.cls-19,.cls-20{stroke:#1d1d1b;}.cls-12,.cls-14{stroke-linecap:round;stroke-linejoin:round;}.cls-12{stroke-width:2.02px;}.cls-13{fill:#1d1d1b;}.cls-14{stroke-width:1.96px;}.cls-15{fill:#fff;}.cls-16{fill:#63615e;}.cls-17{fill:#b7b6b6;}.cls-19{stroke-width:1.98px;}.cls-20{stroke-width:2.02px;}</style>
  </defs>
  <g
     id="Layer_2"
     data-name="Layer 2"
     transform="translate(-245.94,-153.75)">
    <path
       class="cls-1"
       d="m 832.36,798.4 c 0,0 -32.09,-25.19 -64.21,-70.26 0,0 0,-0.1 0,-0.06 2.65,2.24 25.78,22.08 43.46,41.57 18.83,20.7 20.75,28.75 20.75,28.75 z"
       id="path1" />
    <path
       class="cls-2"
       d="m 714.47,398.89 5,-129.39 c 0.19,-4.47 0.58,-8.94 1.17,-13.38 l 12.58,-93.84 a 8.72,8.72 0 0 1 8.65,-7.56 h 25.86 a 8.73,8.73 0 0 1 8.7,8.15 l 6.22,94.9 a 144.62,144.62 0 0 1 0.22,14.87 l -5.67,149.91"
       id="path2" />
    <path
       class="cls-2"
       d="M 270.74,405 V 167.73 a 8.72,8.72 0 0 1 8.71,-8.71 h 38.64 a 8.71,8.71 0 0 1 8.69,8.71 V 399.2"
       id="path3" />
    <rect
       class="cls-3"
       x="278.34"
       y="245.57001"
       width="8.5900002"
       height="37.990002"
       rx="1.36"
       id="rect3" />
    <rect
       class="cls-3"
       x="312.01999"
       y="245.57001"
       width="8.5900002"
       height="37.990002"
       rx="1.36"
       id="rect4" />
    <rect
       class="cls-3"
       x="278.34"
       y="347.41"
       width="8.5900002"
       height="37.990002"
       rx="1.36"
       id="rect5" />
    <rect
       class="cls-3"
       x="312.01999"
       y="347.41"
       width="8.5900002"
       height="37.990002"
       rx="1.36"
       id="rect6" />
    <rect
       class="cls-3"
       x="285.76999"
       y="162.36"
       width="25.719999"
       height="9.1999998"
       id="rect7" />
    <rect
       class="cls-4"
       x="346.42999"
       y="426.69"
       width="338.60001"
       height="111.36"
       id="rect8" />
    <path
       class="cls-5"
       d="m 783.21,445.34 v 230.73 c -0.003,18.71332 -5.81709,36.96392 -16.64,52.23 l -12.37,17.46 c -16.93654,23.89137 -44.40445,38.08939 -73.69,38.09 H 312.85 c -36.41604,0.006 -65.94,-29.51396 -65.94,-65.93 V 445.34 c 0,-25.48242 20.65758,-46.14 46.14,-46.14 h 444 c 25.49023,-0.0111 46.16,20.64977 46.16,46.14 z"
       id="path8"
       sodipodi:nodetypes="scccccssscs" />
    <rect
       class="cls-6"
       x="345.92001"
       y="428.25"
       width="340.13"
       height="155.95"
       id="rect9" />
    <rect
       class="cls-7"
       x="747.12"
       y="439.17999"
       width="18.82"
       height="89.07"
       rx="2.79"
       id="rect10" />
    <path
       class="cls-7"
       d="m 311.26,737.68 -3.9,10.44 a 5.17,5.17 0 0 1 -6.49,3.06 c -9.51,-3.16 -17.08,-8.57 -21.13,-14.68 a 5.12,5.12 0 0 1 3.53,-7.88 54.46,54.46 0 0 1 7.44,-0.5 51.61,51.61 0 0 1 17.5,2.93 5.14,5.14 0 0 1 3.05,6.63 z"
       id="path10" />
    <ellipse
       class="cls-7"
       cx="291.57999"
       cy="641.46997"
       rx="14.9"
       ry="22.690001"
       transform="rotate(-45,291.5775,641.47465)"
       id="ellipse11" />
    <ellipse
       class="cls-7"
       cx="340.39999"
       cy="634.02002"
       rx="14.9"
       ry="22.690001"
       transform="rotate(-45,340.40033,634.02157)"
       id="ellipse12" />
    <ellipse
       class="cls-7"
       cx="390.04999"
       cy="629.06"
       rx="14.9"
       ry="22.690001"
       transform="rotate(-45,390.05655,629.06329)"
       id="ellipse13" />
    <ellipse
       class="cls-7"
       cx="438.88"
       cy="624.91998"
       rx="14.9"
       ry="22.690001"
       transform="rotate(-45,438.88027,624.91984)"
       id="ellipse14" />
    <ellipse
       class="cls-7"
       cx="487.42999"
       cy="623.27002"
       rx="14.9"
       ry="22.690001"
       transform="rotate(-45,487.42377,623.26247)"
       id="ellipse15" />
    <ellipse
       class="cls-7"
       cx="291.57999"
       cy="692.66998"
       rx="14.9"
       ry="22.690001"
       transform="rotate(-45,291.57203,692.66691)"
       id="ellipse16" />
    <ellipse
       class="cls-7"
       cx="340.39999"
       cy="685.22998"
       rx="14.9"
       ry="22.690001"
       transform="rotate(-45,340.40193,685.2309)"
       id="ellipse17" />
    <ellipse
       class="cls-7"
       cx="390.04999"
       cy="680.26001"
       rx="14.9"
       ry="22.690001"
       transform="rotate(-45,390.05108,680.25555)"
       id="ellipse18" />
    <ellipse
       class="cls-7"
       cx="438.88"
       cy="676.12"
       rx="14.9"
       ry="22.690001"
       transform="rotate(-45,438.88187,676.12918)"
       id="ellipse19" />
    <ellipse
       class="cls-7"
       cx="487.42999"
       cy="674.46997"
       rx="14.9"
       ry="22.690001"
       transform="rotate(-45,487.42537,674.4718)"
       id="ellipse20" />
    <ellipse
       class="cls-7"
       cx="343.20999"
       cy="735.63"
       rx="14.9"
       ry="22.690001"
       transform="rotate(-45,343.21597,735.62529)"
       id="ellipse21" />
    <ellipse
       class="cls-7"
       cx="390.04999"
       cy="727.62"
       rx="14.9"
       ry="22.690001"
       transform="rotate(-45,390.04865,727.61656)"
       id="ellipse22" />
    <ellipse
       class="cls-7"
       cx="438.88"
       cy="723.47998"
       rx="14.9"
       ry="22.690001"
       transform="rotate(-45,438.88445,723.47811)"
       id="ellipse23" />
    <ellipse
       class="cls-7"
       cx="487.42999"
       cy="721.82001"
       rx="14.9"
       ry="22.690001"
       transform="rotate(-45,487.42794,721.82074)"
       id="ellipse24" />
    <ellipse
       class="cls-7"
       cx="734.63"
       cy="641.46997"
       rx="22.690001"
       ry="14.9"
       transform="rotate(-45,734.63698,641.4734)"
       id="ellipse25" />
    <ellipse
       class="cls-7"
       cx="685.81"
       cy="634.02002"
       rx="22.690001"
       ry="14.9"
       transform="rotate(-45,685.80909,634.01857)"
       id="ellipse26" />
    <ellipse
       class="cls-7"
       cx="636.15997"
       cy="629.06"
       rx="22.690001"
       ry="14.9"
       transform="rotate(-45,636.15727,629.06503)"
       id="ellipse27" />
    <ellipse
       class="cls-7"
       cx="587.33002"
       cy="624.91998"
       rx="22.690001"
       ry="14.9"
       transform="rotate(-45,587.33027,624.91984)"
       id="ellipse28" />
    <ellipse
       class="cls-7"
       cx="538.78003"
       cy="623.27002"
       rx="22.690001"
       ry="14.9"
       transform="rotate(-45,538.78588,623.26758)"
       id="ellipse29" />
    <ellipse
       class="cls-7"
       cx="734.63"
       cy="692.66998"
       rx="22.690001"
       ry="14.9"
       transform="rotate(-45,734.62651,692.67774)"
       id="ellipse30" />
    <ellipse
       class="cls-7"
       cx="685.81"
       cy="685.22998"
       rx="22.690001"
       ry="14.9"
       transform="rotate(-45,685.81069,685.22791)"
       id="ellipse31" />
    <ellipse
       class="cls-7"
       cx="636.15997"
       cy="680.26001"
       rx="22.690001"
       ry="14.9"
       transform="rotate(-45,636.1518,680.2573)"
       id="ellipse32" />
    <ellipse
       class="cls-7"
       cx="587.33002"
       cy="676.12"
       rx="22.690001"
       ry="14.9"
       transform="rotate(-45,587.33187,676.12917)"
       id="ellipse33" />
    <ellipse
       class="cls-7"
       cx="538.78003"
       cy="674.46997"
       rx="22.690001"
       ry="14.9"
       transform="rotate(-45,538.78042,674.45984)"
       id="ellipse34" />
    <ellipse
       class="cls-7"
       cx="636.15997"
       cy="727.62"
       rx="22.690001"
       ry="14.9"
       transform="rotate(-45,636.14937,727.6183)"
       id="ellipse35" />
    <ellipse
       class="cls-7"
       cx="684.17999"
       cy="737.10999"
       rx="22.690001"
       ry="14.9"
       transform="rotate(-45,684.17847,737.104)"
       id="ellipse36" />
    <ellipse
       class="cls-7"
       cx="587.33002"
       cy="723.47998"
       rx="22.690001"
       ry="14.9"
       transform="rotate(-45,587.33444,723.47811)"
       id="ellipse37" />
    <ellipse
       class="cls-7"
       cx="538.78003"
       cy="721.82001"
       rx="22.690001"
       ry="14.9"
       transform="rotate(-45,538.77799,721.82085)"
       id="ellipse38" />
    <path
       class="cls-7"
       d="m 730.47,553.74 v 21 a 20.6,20.6 0 0 0 20.6,20.6 h 5.75 a 7.82,7.82 0 0 0 7.82,-7.82 v 0 A 7.9,7.9 0 0 0 763.7,583.8 L 745.37,550 a 7.8,7.8 0 0 0 -6.54,-4.08 h -0.22 a 7.84,7.84 0 0 0 -8.14,7.82 z"
       id="path38" />
    <rect
       class="cls-3"
       x="749.28998"
       y="515.75"
       width="14.67"
       height="4.4099998"
       rx="1.49"
       id="rect42" />
    <rect
       class="cls-3"
       x="749.28998"
       y="503.95999"
       width="14.67"
       height="4.4099998"
       rx="1.49"
       id="rect43" />
    <rect
       class="cls-3"
       x="749.28998"
       y="480.38"
       width="14.67"
       height="4.4099998"
       rx="1.49"
       id="rect45" />
    <rect
       class="cls-3"
       x="749.28998"
       y="468.59"
       width="14.67"
       height="4.4099998"
       rx="1.49"
       id="rect46" />
    <rect
       class="cls-3"
       x="749.28998"
       y="456.79999"
       width="14.67"
       height="4.4099998"
       rx="1.49"
       id="rect47" />
    <rect
       class="cls-3"
       x="749.28998"
       y="445.01001"
       width="14.67"
       height="4.4099998"
       rx="1.49"
       id="rect48" />
    <path
       class="cls-8"
       d="m 832.36,798.4 -44.86,41.81 c -28.37,-20.32 -61.34,-69.4 -61.34,-69.4 0,0 12.15,-5.4 23.22,-19.64 11.07,-14.24 17.8,-23.94 17.8,-23.94 0,0 24.52,31.25 39,46.48 a 303.12,303.12 0 0 0 26.18,24.67 z"
       id="path48" />
    <path
       class="cls-11"
       d="m 737.07,410.82 a 34.55,34.55 0 0 1 34.52,34.52 V 676.07 A 78.32,78.32 0 0 1 757.1,721.59 L 744.73,739 a 78.84,78.84 0 0 1 -64.22,33.2 H 312.85 A 54.38,54.38 0 0 1 258.53,717.88 V 445.34 a 34.55,34.55 0 0 1 34.52,-34.52 h 444 m 0,-11.62 h -444 a 46.14,46.14 0 0 0 -46.14,46.14 v 272.58 a 65.93,65.93 0 0 0 65.94,65.93 h 367.66 a 90.33,90.33 0 0 0 73.69,-38.09 l 12.37,-17.46 a 90.33,90.33 0 0 0 16.64,-52.23 V 445.34 A 46.14,46.14 0 0 0 737.07,399.2 Z"
       id="path49" />
    <path
       class="cls-15"
       d="M 274.58,551.47 H 276 v 9.93 h 4.86 v 1.2 h -6.28 z"
       id="path70" />
    <path
       class="cls-15"
       d="m 285.7,551.47 h 1.42 v 11.13 h -1.42 z"
       id="path71" />
    <path
       class="cls-15"
       d="m 291.6,551.47 h 1.4 v 9.93 h 4.66 v 1.2 h -6 z"
       id="path72" />
    <path
       class="cls-15"
       d="m 303.94,558.29 -3.2,-6.82 h 1.45 l 1.37,3.14 c 0.34,0.82 0.66,1.6 1,2.43 h 0.07 c 0.37,-0.83 0.74,-1.61 1.06,-2.43 l 1.38,-3.14 h 1.41 l -3.21,6.82 v 4.31 h -1.36 z"
       id="path73" />
    <path
       class="cls-15"
       d="m 312.16,557.05 c 0,-3.59 2.06,-5.78 4.89,-5.78 a 4.09,4.09 0 0 1 3.08,1.37 l -0.75,0.92 a 3,3 0 0 0 -2.29,-1 c -2.15,0 -3.53,1.73 -3.53,4.5 0,2.77 1.27,4.55 3.54,4.55 a 2.82,2.82 0 0 0 1.92,-0.65 V 558 h -2.25 v -1.18 h 3.49 v 4.68 a 4.42,4.42 0 0 1 -3.29,1.3 c -2.81,0.01 -4.81,-2.14 -4.81,-5.75 z"
       id="path74" />
    <path
       class="cls-15"
       d="m 324.34,557 c 0,-3.57 1.88,-5.73 4.56,-5.73 2.68,0 4.56,2.17 4.56,5.73 0,3.56 -1.88,5.81 -4.56,5.81 -2.68,0 -4.56,-2.25 -4.56,-5.81 z m 7.72,0 c 0,-2.78 -1.25,-4.49 -3.16,-4.49 -1.91,0 -3.15,1.71 -3.15,4.49 0,2.78 1.25,4.56 3.15,4.56 1.9,0 3.16,-1.79 3.16,-4.56 z"
       id="path75" />
    <polygon
       class="cls-15"
       points="745.37,579.22 745.37,585.36 737.07,577.07 745.37,568.77 745.37,573.86 752.53,573.86 752.53,579.22 "
       id="polygon75" />
    <rect
       class="cls-3"
       x="749.28998"
       y="492.17001"
       width="14.67"
       height="4.4099998"
       rx="1.49"
       id="rect44" />
    <polygon
       class="cls-15"
       points="733.53,699.48 733.53,705.61 725.23,697.33 733.53,689.02 733.53,694.12 739.14,694.12 739.14,689.45 743.21,689.45 743.21,699.48 "
       id="polygon76" />
    <polygon
       class="cls-15"
       points="669.98,751.27 678.26,742.97 686.57,751.27 "
       id="polygon77" />
    <path
       class="cls-8"
       d="m 285.84,640.27 h -1.73 v -8.56 l -1.39,0.7 v -1.82 l 1.54,-0.86 h 1.58 z"
       id="path77" />
    <path
       class="cls-15"
       d="m 292.88,654 a 4.64,4.64 0 0 1 -1.85,-1.9 6,6 0 0 1 -0.66,-2.86 V 645 a 5.94,5.94 0 0 1 0.66,-2.85 4.64,4.64 0 0 1 1.85,-1.9 6,6 0 0 1 5.53,0 4.64,4.64 0 0 1 1.85,1.9 5.94,5.94 0 0 1 0.66,2.85 v 4.17 a 6,6 0 0 1 -0.66,2.86 4.64,4.64 0 0 1 -1.85,1.9 6,6 0 0 1 -5.53,0 z m 4.23,-2.09 a 2.38,2.38 0 0 0 1,-1 3.37,3.37 0 0 0 0.35,-1.55 V 645 a 3.34,3.34 0 0 0 -0.35,-1.55 2.38,2.38 0 0 0 -1,-1 3.09,3.09 0 0 0 -2.93,0 2.46,2.46 0 0 0 -1,1 3.34,3.34 0 0 0 -0.34,1.55 v 4.32 a 3.37,3.37 0 0 0 0.34,1.55 2.46,2.46 0 0 0 1,1 3.16,3.16 0 0 0 2.93,0 z m -1.7,-1.47 1.28,-1.62 5.59,4.31 -1.28,1.6 z"
       id="path78" />
    <path
       class="cls-8"
       d="m 329.53,631.16 3.64,-4.83 a 3.11,3.11 0 0 0 0.44,-0.76 1.94,1.94 0 0 0 0.16,-0.74 v 0 a 1,1 0 0 0 -0.32,-0.82 1.32,1.32 0 0 0 -0.92,-0.29 1.21,1.21 0 0 0 -0.92,0.35 1.57,1.57 0 0 0 -0.43,1 h -1.78 a 4,4 0 0 1 0.51,-1.62 2.71,2.71 0 0 1 1.07,-1 3.26,3.26 0 0 1 1.53,-0.35 3.88,3.88 0 0 1 1.65,0.32 2.38,2.38 0 0 1 1,0.94 2.87,2.87 0 0 1 0.36,1.48 v 0 a 3.48,3.48 0 0 1 -0.25,1.29 4.6,4.6 0 0 1 -0.67,1.23 l -2.78,3.64 h 3.8 v 1.66 h -6.09 z"
       id="path79" />
    <path
       class="cls-15"
       d="m 342.75,632.19 h 1.83 l 2.91,10.68 2.25,-10.68 h 2.5 l -3.49,14.72 h -2.36 l -2.66,-10.29 -2.79,10.29 h -2.36 l -3.49,-14.72 h 2.5 l 2.25,10.68 z"
       id="path80" />
    <path
       class="cls-8"
       d="m 382.65,627.36 a 2.69,2.69 0 0 1 -1.13,-1 3.31,3.31 0 0 1 -0.51,-1.53 h 1.78 a 1.52,1.52 0 0 0 0.24,0.65 1.19,1.19 0 0 0 0.47,0.39 1.57,1.57 0 0 0 0.67,0.13 1.39,1.39 0 0 0 1,-0.35 1.35,1.35 0 0 0 0.36,-1 v -0.28 a 1.67,1.67 0 0 0 -0.32,-1.08 1.11,1.11 0 0 0 -0.9,-0.38 h -0.82 v -1.65 h 0.82 a 0.94,0.94 0 0 0 0.77,-0.33 1.42,1.42 0 0 0 0.27,-0.92 v -0.26 a 1.18,1.18 0 0 0 -0.29,-0.85 1.11,1.11 0 0 0 -0.83,-0.3 1.21,1.21 0 0 0 -0.58,0.13 1.1,1.1 0 0 0 -0.44,0.42 1.89,1.89 0 0 0 -0.26,0.68 h -1.77 a 3.84,3.84 0 0 1 0.53,-1.57 2.84,2.84 0 0 1 1.07,-1 3.26,3.26 0 0 1 1.48,-0.34 3,3 0 0 1 2.14,0.72 2.67,2.67 0 0 1 0.76,2 v 0.25 a 2.27,2.27 0 0 1 -0.4,1.32 2.36,2.36 0 0 1 -1.13,0.84 2,2 0 0 1 1.25,0.82 2.75,2.75 0 0 1 0.45,1.63 v 0.25 a 3.22,3.22 0 0 1 -0.36,1.57 2.4,2.4 0 0 1 -1.05,1 3.65,3.65 0 0 1 -1.65,0.34 3.83,3.83 0 0 1 -1.62,-0.3 z"
       id="path81" />
    <path
       class="cls-15"
       d="m 391,627.08 h 2.42 v 14.73 H 391 Z m 1,0 h 8.66 v 2.32 H 392 Z m 0,6.26 h 7.55 v 2.31 H 392 Z m 0,6.15 h 8.66 v 2.32 H 392 Z"
       id="path82" />
    <path
       class="cls-8"
       d="m 429.19,619.7 3.39,-7.36 h 1.89 l -3.31,7.28 h 4.95 v 1.63 h -6.92 z m 4.4,-3 h 1.71 v 6.2 h -1.71 z"
       id="path83" />
    <path
       class="cls-15"
       d="m 438.66,622.36 h 2.42 v 14.73 h -2.42 z m 1,6.34 h 5.07 a 1.55,1.55 0 0 0 0.89,-0.25 1.67,1.67 0 0 0 0.61,-0.7 2.72,2.72 0 0 0 0.22,-1.07 2.46,2.46 0 0 0 -0.21,-1 1.59,1.59 0 0 0 -0.6,-0.7 1.66,1.66 0 0 0 -0.91,-0.25 h -5.07 v -2.32 h 5.14 a 4.34,4.34 0 0 1 2.19,0.54 3.69,3.69 0 0 1 1.46,1.52 5.21,5.21 0 0 1 0,4.54 3.71,3.71 0 0 1 -1.47,1.52 4.32,4.32 0 0 1 -2.18,0.54 h -5.14 z m 3.55,1.86 2.51,-0.46 3.87,7 h -2.91 z"
       id="path84" />
    <path
       class="cls-8"
       d="m 479.54,621.62 a 2.59,2.59 0 0 1 -1.05,-1 3.68,3.68 0 0 1 -0.5,-1.56 h 1.73 a 1.36,1.36 0 0 0 0.41,0.9 1.21,1.21 0 0 0 0.89,0.33 1.16,1.16 0 0 0 1,-0.41 1.77,1.77 0 0 0 0.34,-1.15 v -0.88 a 1.77,1.77 0 0 0 -0.33,-1.15 1.07,1.07 0 0 0 -0.9,-0.4 1.33,1.33 0 0 0 -0.74,0.21 1.56,1.56 0 0 0 -0.52,0.61 h -1.6 v -5.8 h 5.51 V 613 H 480 v 2.11 a 1.72,1.72 0 0 1 0.61,-0.34 2.14,2.14 0 0 1 0.74,-0.13 2.81,2.81 0 0 1 1.48,0.38 2.43,2.43 0 0 1 0.94,1.1 4.38,4.38 0 0 1 0.32,1.75 v 0.88 a 3.93,3.93 0 0 1 -0.36,1.75 2.52,2.52 0 0 1 -1,1.1 3.34,3.34 0 0 1 -1.73,0.4 3.05,3.05 0 0 1 -1.46,-0.38 z"
       id="path85" />
    <path
       class="cls-15"
       d="m 486.88,621.35 h 10.59 v 2.32 h -10.59 z m 4.09,1.21 h 2.41 v 13.52 H 491 Z"
       id="path86" />
    <path
       class="cls-8"
       d="m 545.35,621.59 a 2.47,2.47 0 0 1 -1,-1.09 3.77,3.77 0 0 1 -0.36,-1.72 v 0 a 5.42,5.42 0 0 1 0.15,-1.22 7,7 0 0 1 0.4,-1.28 l 0.09,-0.21 a 2,2 0 0 1 0.1,-0.21 l 2.21,-4.53 h 1.92 l -2.61,5.25 -0.25,-0.26 a 1.29,1.29 0 0 1 0.53,-0.53 1.73,1.73 0 0 1 0.81,-0.19 2.75,2.75 0 0 1 1.44,0.37 2.39,2.39 0 0 1 0.92,1.08 4.16,4.16 0 0 1 0.31,1.7 v 0 a 3.86,3.86 0 0 1 -0.35,1.74 2.44,2.44 0 0 1 -1,1.1 3.33,3.33 0 0 1 -1.66,0.41 3.29,3.29 0 0 1 -1.65,-0.41 z m 2.57,-1.67 a 1.5,1.5 0 0 0 0.33,-1 v 0 a 1.79,1.79 0 0 0 -0.34,-1.18 1.17,1.17 0 0 0 -1,-0.42 1.08,1.08 0 0 0 -0.91,0.42 1.89,1.89 0 0 0 -0.32,1.19 v 0 a 1.54,1.54 0 0 0 0.33,1 1.41,1.41 0 0 0 1.89,0 z"
       id="path87" />
    <path
       class="cls-15"
       d="m 533.83,630.24 v 5.84 h -2.41 v -5.84 L 527,621.35 h 2.6 l 3,6.49 3,-6.49 h 2.6 z"
       id="path88" />
    <path
       class="cls-8"
       d="m 597.23,614.91 -2.54,9.21 h -1.86 l 2.5,-8.87 h -2.24 v 1.55 h -1.74 v -3.21 h 5.88 z"
       id="path89" />
    <path
       class="cls-15"
       d="m 577.16,637.85 a 4.3,4.3 0 0 1 -1.81,-1.87 6.57,6.57 0 0 1 -0.61,-3 v -9.4 h 2.42 v 9.47 a 3.11,3.11 0 0 0 0.74,2.23 2.78,2.78 0 0 0 2.1,0.79 2.81,2.81 0 0 0 2.12,-0.79 3.12,3.12 0 0 0 0.75,-2.23 v -9.47 h 2.42 V 633 a 6.57,6.57 0 0 1 -0.62,3 4.3,4.3 0 0 1 -1.81,1.87 6.57,6.57 0 0 1 -5.7,0 z"
       id="path90" />
    <path
       class="cls-8"
       d="m 643.31,626.89 a 2.69,2.69 0 0 1 -1.14,-1 2.9,2.9 0 0 1 -0.41,-1.54 v -0.18 a 2.89,2.89 0 0 1 1.53,-2.53 2.37,2.37 0 0 1 -0.95,-0.88 2.22,2.22 0 0 1 -0.36,-1.21 v -0.26 a 2.77,2.77 0 0 1 0.38,-1.45 2.58,2.58 0 0 1 1.07,-1 3.83,3.83 0 0 1 3.2,0 2.52,2.52 0 0 1 1.07,1 2.77,2.77 0 0 1 0.38,1.45 v 0.26 a 2.23,2.23 0 0 1 -0.36,1.22 2.5,2.5 0 0 1 -1,0.87 2.89,2.89 0 0 1 1.12,1 2.81,2.81 0 0 1 0.42,1.48 v 0.18 a 2.9,2.9 0 0 1 -0.41,1.54 2.69,2.69 0 0 1 -1.14,1 4.29,4.29 0 0 1 -3.44,0 z m 2.53,-1.48 a 1.29,1.29 0 0 0 0.54,-0.52 1.45,1.45 0 0 0 0.19,-0.76 V 624 a 1.38,1.38 0 0 0 -0.19,-0.74 1.28,1.28 0 0 0 -0.54,-0.49 1.91,1.91 0 0 0 -1.62,0 1.24,1.24 0 0 0 -0.54,0.5 1.38,1.38 0 0 0 -0.19,0.74 v 0.11 a 1.44,1.44 0 0 0 0.19,0.75 1.33,1.33 0 0 0 0.54,0.51 1.79,1.79 0 0 0 0.81,0.18 1.76,1.76 0 0 0 0.81,-0.15 z m -0.12,-4.63 a 1.15,1.15 0 0 0 0.47,-0.48 1.57,1.57 0 0 0 0.16,-0.73 v -0.1 a 1.34,1.34 0 0 0 -0.16,-0.68 1.16,1.16 0 0 0 -0.47,-0.46 1.57,1.57 0 0 0 -1.38,0 1.08,1.08 0 0 0 -0.46,0.46 1.34,1.34 0 0 0 -0.17,0.68 v 0.11 a 1.53,1.53 0 0 0 0.17,0.72 1.07,1.07 0 0 0 0.46,0.48 1.49,1.49 0 0 0 1.38,0 z"
       id="path91" />
    <path
       class="cls-15"
       d="m 631.92,641.37 h -2.48 v -14.73 h 2.48 z"
       id="path92" />
    <path
       class="cls-8"
       d="m 695.77,628.47 0.18,0.26 a 1.1,1.1 0 0 1 -0.55,0.49 2.25,2.25 0 0 1 -0.87,0.16 2.41,2.41 0 0 1 -1.36,-0.39 2.55,2.55 0 0 1 -0.91,-1.08 3.78,3.78 0 0 1 -0.33,-1.62 v 0 a 3.86,3.86 0 0 1 0.36,-1.74 2.47,2.47 0 0 1 1,-1.11 3.71,3.71 0 0 1 3.25,0 2.55,2.55 0 0 1 1,1.12 4.06,4.06 0 0 1 0.35,1.76 v 0 a 5.07,5.07 0 0 1 -0.15,1.17 7.74,7.74 0 0 1 -0.42,1.29 1.19,1.19 0 0 1 -0.08,0.2 l -0.09,0.2 -2.06,4.51 h -1.79 z m 0.12,-1.1 a 1.76,1.76 0 0 0 0.33,-1.14 v 0 a 1.66,1.66 0 0 0 -0.33,-1.1 1.34,1.34 0 0 0 -1.89,0 1.67,1.67 0 0 0 -0.34,1.11 v 0 a 1.76,1.76 0 0 0 0.34,1.14 1.18,1.18 0 0 0 1,0.39 1.15,1.15 0 0 0 0.89,-0.4 z"
       id="path93" />
    <path
       class="cls-15"
       d="m 677.83,647.4 a 4.66,4.66 0 0 1 -1.86,-1.9 5.93,5.93 0 0 1 -0.65,-2.85 v -4.18 a 5.93,5.93 0 0 1 0.65,-2.85 4.66,4.66 0 0 1 1.86,-1.9 5.48,5.48 0 0 1 2.76,-0.67 5.54,5.54 0 0 1 2.77,0.67 4.7,4.7 0 0 1 1.85,1.9 5.94,5.94 0 0 1 0.66,2.85 v 4.18 a 5.94,5.94 0 0 1 -0.66,2.85 4.7,4.7 0 0 1 -1.85,1.9 5.54,5.54 0 0 1 -2.77,0.67 5.48,5.48 0 0 1 -2.76,-0.67 z m 4.22,-2.09 a 2.4,2.4 0 0 0 1,-1 3.37,3.37 0 0 0 0.35,-1.55 v -4.36 a 3.37,3.37 0 0 0 -0.35,-1.55 2.4,2.4 0 0 0 -1,-1 3.14,3.14 0 0 0 -2.92,0 2.46,2.46 0 0 0 -1,1 3.37,3.37 0 0 0 -0.34,1.55 v 4.32 a 3.37,3.37 0 0 0 0.34,1.55 2.46,2.46 0 0 0 1,1 3.14,3.14 0 0 0 2.92,0 z"
       id="path94" />
    <path
       class="cls-8"
       d="m 742.06,639.83 a 3,3 0 0 1 -0.79,-2.21 v -4.79 a 3,3 0 0 1 0.79,-2.2 3.73,3.73 0 0 1 4.58,0 3,3 0 0 1 0.79,2.21 v 4.79 a 3,3 0 0 1 -0.79,2.21 3.71,3.71 0 0 1 -4.58,0 z m 3.31,-1.28 a 1.86,1.86 0 0 0 0.33,-1.18 v -4.28 a 1.84,1.84 0 0 0 -0.33,-1.18 1.47,1.47 0 0 0 -2,0 1.84,1.84 0 0 0 -0.33,1.18 v 4.28 a 1.86,1.86 0 0 0 0.33,1.18 1.47,1.47 0 0 0 2,0 z"
       id="path95" />
    <path
       class="cls-15"
       d="m 725.26,640 h 2.42 v 14.73 h -2.42 z m 1.17,6.7 h 4.71 a 2,2 0 0 0 1,-0.27 1.8,1.8 0 0 0 0.68,-0.76 2.52,2.52 0 0 0 0.25,-1.15 2.6,2.6 0 0 0 -0.24,-1.15 1.78,1.78 0 0 0 -0.69,-0.77 2,2 0 0 0 -1,-0.28 h -4.71 V 640 h 4.64 a 4.83,4.83 0 0 1 2.37,0.57 4,4 0 0 1 1.59,1.58 5.3,5.3 0 0 1 0,4.74 4,4 0 0 1 -1.59,1.57 4.94,4.94 0 0 1 -2.37,0.56 h -4.64 z"
       id="path96" />
    <path
       class="cls-8"
       d="m 545.59,664.5 h 1.76 v 1.76 h -1.76 z m 0,5.75 h 1.76 v 2.47 l -1.76,1.75 z"
       id="path97" />
    <path
       class="cls-15"
       d="m 526.8,671.51 h 2.42 v 14.73 h -2.42 z m 1.29,6.29 h 8.37 v 2.32 h -8.37 z m 6.92,-6.29 h 2.42 v 14.73 H 535 Z"
       id="path98" />
    <path
       class="cls-8"
       d="m 594,663.85 1.77,-1.76 v 4.23 H 594 Z"
       id="path99" />
    <path
       class="cls-15"
       d="m 577.1,686.39 a 4,4 0 0 1 -1.62,-1.41 l 2,-1.43 a 2.17,2.17 0 0 0 0.85,0.74 2.53,2.53 0 0 0 1.16,0.26 1.92,1.92 0 0 0 1.56,-0.65 2.82,2.82 0 0 0 0.55,-1.85 V 672 h 2.4 v 10 a 5.86,5.86 0 0 1 -0.55,2.62 3.84,3.84 0 0 1 -1.59,1.65 5.17,5.17 0 0 1 -2.51,0.56 5,5 0 0 1 -2.25,-0.44 z"
       id="path100" />
    <path
       class="cls-8"
       d="m 643.3,668.13 1.76,-1.75 v 4.22 h -1.76 z m 2.21,0 1.76,-1.75 v 4.22 h -1.76 z"
       id="path101" />
    <path
       class="cls-15"
       d="m 626,676.3 h 2.42 V 691 H 626 Z m 1.65,8.62 6.2,-8.62 h 3 l -9.2,12 z m 2.45,-1.55 2,-1.51 5.37,9.17 h -2.9 z"
       id="path102" />
    <path
       class="cls-8"
       d="m 689.84,686 a 3.92,3.92 0 0 1 -1.84,-1.8 6.41,6.41 0 0 1 -0.62,-3 v -2 a 7.54,7.54 0 0 1 0.62,-3.2 4.08,4.08 0 0 1 1.86,-1.94 6.68,6.68 0 0 1 3.1,-0.65 6.58,6.58 0 0 1 3.04,0.59 4.16,4.16 0 0 1 1.87,2 7.43,7.43 0 0 1 0.62,3.24 v 2.26 a 2.74,2.74 0 0 1 -0.53,1.85 2.06,2.06 0 0 1 -1.57,0.59 2.33,2.33 0 0 1 -1.69,-0.56 2.36,2.36 0 0 1 -0.56,-1.71 h 1.58 a 1.17,1.17 0 0 0 0.16,0.69 0.53,0.53 0 0 0 0.47,0.23 0.49,0.49 0 0 0 0.45,-0.21 1.21,1.21 0 0 0 0.14,-0.68 v -2.41 a 5.84,5.84 0 0 0 -0.45,-2.44 3.12,3.12 0 0 0 -1.35,-1.47 4.6,4.6 0 0 0 -2.21,-0.49 4.7,4.7 0 0 0 -2.24,0.49 3,3 0 0 0 -1.35,1.46 6,6 0 0 0 -0.47,2.45 v 2 a 4.74,4.74 0 0 0 0.45,2.19 2.91,2.91 0 0 0 1.35,1.31 5.18,5.18 0 0 0 2.26,0.43 h 2.16 v 1.46 H 693 A 7.17,7.17 0 0 1 689.84,686 Z m 0.9,-2.87 a 4,4 0 0 1 -0.62,-2.43 v -1.25 a 3.68,3.68 0 0 1 0.7,-2.44 3.2,3.2 0 0 1 4.23,0 3.66,3.66 0 0 1 0.7,2.45 v 2.34 l -1,0.42 a 2,2 0 0 1 -0.68,1.29 2.32,2.32 0 0 1 -1.49,0.43 2.18,2.18 0 0 1 -1.84,-0.82 z M 693.8,682 a 2,2 0 0 0 0.29,-1.2 v -1.39 a 2,2 0 0 0 -0.29,-1.19 1,1 0 0 0 -0.87,-0.39 c -0.77,0 -1.16,0.53 -1.16,1.59 v 1.38 a 2,2 0 0 0 0.29,1.2 1,1 0 0 0 0.87,0.4 1,1 0 0 0 0.87,-0.4 z"
       id="path103" />
    <path
       class="cls-15"
       d="m 674.36,683.32 h 2.42 v 14.73 h -2.42 z m 1.14,12.41 h 8.5 v 2.32 h -8.5 z"
       id="path104" />
    <path
       class="cls-8"
       d="m 545.59,717.92 h 1.76 v 1.76 h -1.76 z m 0,-8.77 h 1.72 v 7.61 h -1.72 z"
       id="path105" />
    <path
       class="cls-15"
       d="m 527.15,719.18 h 2.41 v 14.73 h -2.41 z m 1.21,12.44 h 4.35 a 2.85,2.85 0 0 0 1.88,-0.53 1.87,1.87 0 0 0 0.62,-1.49 v 0 a 2.29,2.29 0 0 0 -0.25,-1.12 1.64,1.64 0 0 0 -0.75,-0.72 2.87,2.87 0 0 0 -1.25,-0.24 h -4.6 v -2.27 H 533 a 2.15,2.15 0 0 0 1.53,-0.49 1.81,1.81 0 0 0 0.52,-1.41 1.72,1.72 0 0 0 -0.55,-1.38 2.51,2.51 0 0 0 -1.64,-0.47 h -4.46 v -2.29 h 4.69 a 5.45,5.45 0 0 1 2.41,0.48 3.28,3.28 0 0 1 1.5,1.31 4.2,4.2 0 0 1 0.51,2.13 3.45,3.45 0 0 1 -0.32,1.48 2.87,2.87 0 0 1 -0.95,1.1 3.66,3.66 0 0 1 -1.52,0.61 3.55,3.55 0 0 1 1.6,0.61 3,3 0 0 1 1,1.23 3.79,3.79 0 0 1 0.36,1.67 v 0 a 4.21,4.21 0 0 1 -0.53,2.13 3.56,3.56 0 0 1 -1.53,1.39 5.45,5.45 0 0 1 -2.37,0.49 h -4.86 z"
       id="path106" />
    <path
       class="cls-8"
       d="m 594,718.42 h 1.77 v 1.77 H 594 Z"
       id="path107" />
    <path
       class="cls-15"
       d="m 575,719.69 h 2.63 L 584,731 l -0.24,0.26 v -11.57 h 2.35 v 14.71 h -2.71 l -6.32,-11.16 0.25,-0.26 V 734.4 H 575 Z"
       id="path108" />
    <path
       class="cls-8"
       d="m 644.4,722.71 h 1.77 v 2.47 l -1.77,1.75 z"
       id="path109" />
    <path
       class="cls-15"
       d="m 634.5,724 h 2.79 v 14.7 H 635 v -11.24 l 0.1,0.65 -3.22,8.74 H 630 l -3.22,-8.53 0.1,-0.86 v 11.24 h -2.27 V 724 h 2.8 l 3.56,9.82 z"
       id="path110" />
    <path
       class="cls-8"
       d="m 677.48,739.4 a 2.41,2.41 0 0 1 -1,-1 3.41,3.41 0 0 1 -0.34,-1.58 v -2.18 a 3.37,3.37 0 0 1 0.34,-1.57 2.38,2.38 0 0 1 1,-1 3,3 0 0 1 1.5,-0.36 2.67,2.67 0 0 1 1.29,0.31 2.63,2.63 0 0 1 1,0.88 3.58,3.58 0 0 1 0.52,1.36 h -1.34 a 1.88,1.88 0 0 0 -0.31,-0.67 1.61,1.61 0 0 0 -0.5,-0.44 1.39,1.39 0 0 0 -0.64,-0.15 1.52,1.52 0 0 0 -0.79,0.2 1.34,1.34 0 0 0 -0.51,0.59 2,2 0 0 0 -0.18,0.88 v 2.18 a 2,2 0 0 0 0.18,0.89 1.37,1.37 0 0 0 0.51,0.58 1.52,1.52 0 0 0 0.79,0.2 1.33,1.33 0 0 0 0.63,-0.15 1.38,1.38 0 0 0 0.51,-0.43 1.76,1.76 0 0 0 0.3,-0.68 h 1.34 a 3.43,3.43 0 0 1 -0.53,1.36 2.52,2.52 0 0 1 -1,0.88 2.67,2.67 0 0 1 -1.29,0.31 3,3 0 0 1 -1.48,-0.41 z"
       id="path111" />
    <path
       class="cls-8"
       d="m 685.12,731.74 h 1 l 3,7.94 h -1.4 l -2,-5.91 -2.05,5.91 h -1.4 z m -1.57,5.18 h 4.17 v 1.25 h -4.17 z"
       id="path112" />
    <path
       class="cls-8"
       d="m 690.14,731.74 h 1.31 v 7.94 h -1.31 z m 0.63,3.61 h 2.54 a 1.1,1.1 0 0 0 0.55,-0.14 1,1 0 0 0 0.37,-0.42 1.42,1.42 0 0 0 0,-1.23 1,1 0 0 0 -0.37,-0.42 1,1 0 0 0 -0.55,-0.15 h -2.54 v -1.25 h 2.5 a 2.66,2.66 0 0 1 1.28,0.31 2.11,2.11 0 0 1 0.85,0.85 2.53,2.53 0 0 1 0.31,1.28 2.49,2.49 0 0 1 -0.31,1.27 2.11,2.11 0 0 1 -0.85,0.85 2.66,2.66 0 0 1 -1.28,0.3 h -2.5 z"
       id="path113" />
    <path
       class="cls-8"
       d="m 285.84,692.11 h -1.73 v -8.56 l -1.39,0.7 v -1.82 l 1.54,-0.85 h 1.58 z"
       id="path114" />
    <path
       class="cls-15"
       d="m 294.89,691.61 h 1.76 l 5.53,14.72 h -2.61 l -3.8,-11 -3.81,11 h -2.6 z m -2.89,9.61 h 7.75 v 2.32 H 292 Z"
       id="path115" />
    <path
       class="cls-8"
       d="m 329.53,683 3.64,-4.83 a 2.94,2.94 0 0 0 0.44,-0.76 1.9,1.9 0 0 0 0.16,-0.74 v 0 a 1.06,1.06 0 0 0 -0.32,-0.82 1.37,1.37 0 0 0 -0.92,-0.29 1.25,1.25 0 0 0 -0.92,0.35 1.62,1.62 0 0 0 -0.43,1 h -1.78 a 3.92,3.92 0 0 1 0.51,-1.62 2.65,2.65 0 0 1 1.07,-1 3.14,3.14 0 0 1 1.53,-0.36 3.88,3.88 0 0 1 1.65,0.32 2.38,2.38 0 0 1 1,0.94 2.91,2.91 0 0 1 0.36,1.49 v 0 a 3.56,3.56 0 0 1 -0.25,1.29 4.6,4.6 0 0 1 -0.67,1.23 l -2.82,3.71 h 3.8 v 1.65 h -6.09 z"
       id="path116" />
    <path
       class="cls-15"
       d="m 341.49,698.7 a 8.37,8.37 0 0 1 -1.83,-0.61 7.23,7.23 0 0 1 -1.57,-1 l 1.29,-1.94 a 5.93,5.93 0 0 0 1.91,1.09 6.62,6.62 0 0 0 2.24,0.37 4.22,4.22 0 0 0 2.29,-0.53 1.66,1.66 0 0 0 0.82,-1.49 v 0 a 1.48,1.48 0 0 0 -0.37,-1.07 2.05,2.05 0 0 0 -0.95,-0.59 11.1,11.1 0 0 0 -1.51,-0.35 h -0.12 -0.18 a 13.61,13.61 0 0 1 -2.43,-0.58 3.44,3.44 0 0 1 -1.62,-1.19 3.89,3.89 0 0 1 -0.67,-2.44 v 0 a 4.34,4.34 0 0 1 0.63,-2.39 3.9,3.9 0 0 1 1.82,-1.51 7.77,7.77 0 0 1 4.46,-0.34 8.62,8.62 0 0 1 3,1.36 l -1.17,2 a 7,7 0 0 0 -1.73,-0.93 5.09,5.09 0 0 0 -1.72,-0.31 3.83,3.83 0 0 0 -2.16,0.51 1.64,1.64 0 0 0 -0.77,1.44 v 0 a 1.53,1.53 0 0 0 0.39,1.11 2.36,2.36 0 0 0 1,0.59 15.19,15.19 0 0 0 1.66,0.4 h 0.07 0.08 0.11 0.11 a 11.78,11.78 0 0 1 2.29,0.66 3.59,3.59 0 0 1 1.53,1.24 3.84,3.84 0 0 1 0.62,2.31 v 0 a 4.19,4.19 0 0 1 -0.65,2.36 4,4 0 0 1 -1.88,1.5 7.84,7.84 0 0 1 -3,0.51 9.67,9.67 0 0 1 -1.99,-0.18 z"
       id="path117" />
    <path
       class="cls-8"
       d="m 382.65,679.2 a 2.66,2.66 0 0 1 -1.13,-1 3.39,3.39 0 0 1 -0.51,-1.53 h 1.78 a 1.48,1.48 0 0 0 0.24,0.64 1,1 0 0 0 0.47,0.39 1.57,1.57 0 0 0 0.67,0.13 1.35,1.35 0 0 0 1,-0.35 1.31,1.31 0 0 0 0.36,-1 v -0.29 a 1.63,1.63 0 0 0 -0.32,-1.07 1.08,1.08 0 0 0 -0.9,-0.38 h -0.82 v -1.66 h 0.82 a 0.94,0.94 0 0 0 0.77,-0.32 1.43,1.43 0 0 0 0.27,-0.93 v -0.25 a 1.21,1.21 0 0 0 -0.29,-0.86 1.29,1.29 0 0 0 -1.41,-0.16 1.15,1.15 0 0 0 -0.44,0.41 2,2 0 0 0 -0.26,0.69 h -1.77 a 3.79,3.79 0 0 1 0.53,-1.57 2.77,2.77 0 0 1 1.07,-1 3.13,3.13 0 0 1 1.48,-0.34 3,3 0 0 1 2.14,0.71 2.67,2.67 0 0 1 0.76,2 v 0.25 a 2.3,2.3 0 0 1 -0.4,1.33 2.41,2.41 0 0 1 -1.13,0.83 2,2 0 0 1 1.25,0.82 2.78,2.78 0 0 1 0.45,1.63 v 0.25 a 3.17,3.17 0 0 1 -0.36,1.57 2.36,2.36 0 0 1 -1.05,1 3.79,3.79 0 0 1 -1.65,0.34 3.68,3.68 0 0 1 -1.62,-0.28 z"
       id="path118" />
    <path
       class="cls-15"
       d="m 390.43,678.93 h 2.42 v 14.72 h -2.42 z m 1.4,12.4 h 3.43 a 3.35,3.35 0 0 0 2.33,-0.75 2.72,2.72 0 0 0 0.82,-2.12 v -4.34 a 2.71,2.71 0 0 0 -0.82,-2.12 3.35,3.35 0 0 0 -2.33,-0.75 h -3.43 v -2.32 h 3.37 a 7.13,7.13 0 0 1 3.09,0.61 4.44,4.44 0 0 1 1.95,1.81 5.77,5.77 0 0 1 0.66,2.85 v 4.18 a 5.8,5.8 0 0 1 -0.65,2.81 4.39,4.39 0 0 1 -1.94,1.82 6.89,6.89 0 0 1 -3.12,0.64 h -3.36 z"
       id="path119" />
    <path
       class="cls-8"
       d="m 429.19,671.55 3.39,-7.36 h 1.89 l -3.31,7.27 h 4.95 v 1.64 h -6.92 z m 4.4,-3 h 1.71 v 6.2 h -1.71 z"
       id="path120" />
    <path
       class="cls-15"
       d="M 439.62,674.21 H 442 v 14.73 h -2.42 z m 1,0 h 8.45 v 2.32 h -8.45 z m 0,6.39 H 448 v 2.31 h -7.34 z"
       id="path121" />
    <path
       class="cls-8"
       d="m 479.54,673.46 a 2.5,2.5 0 0 1 -1.05,-1 3.78,3.78 0 0 1 -0.5,-1.56 h 1.73 a 1.4,1.4 0 0 0 0.41,0.9 1.24,1.24 0 0 0 0.89,0.32 1.16,1.16 0 0 0 1,-0.4 1.8,1.8 0 0 0 0.34,-1.16 v -0.88 a 1.76,1.76 0 0 0 -0.33,-1.14 1.08,1.08 0 0 0 -0.9,-0.41 1.26,1.26 0 0 0 -0.74,0.22 1.49,1.49 0 0 0 -0.52,0.61 h -1.6 v -5.81 h 5.51 v 1.66 H 480 v 2.12 a 1.74,1.74 0 0 1 0.61,-0.35 2.39,2.39 0 0 1 0.74,-0.12 2.8,2.8 0 0 1 1.48,0.37 2.43,2.43 0 0 1 0.94,1.1 4.41,4.41 0 0 1 0.32,1.75 v 0.88 a 3.9,3.9 0 0 1 -0.36,1.75 2.52,2.52 0 0 1 -1,1.1 3.24,3.24 0 0 1 -1.64,0.39 3.06,3.06 0 0 1 -1.55,-0.34 z"
       id="path122" />
    <path
       class="cls-15"
       d="m 497.46,679.84 v 2.72 a 6.07,6.07 0 0 1 -0.66,2.89 4.66,4.66 0 0 1 -1.84,1.94 5.48,5.48 0 0 1 -2.76,0.68 5.79,5.79 0 0 1 -2.78,-0.64 4.56,4.56 0 0 1 -1.87,-1.82 5.45,5.45 0 0 1 -0.66,-2.72 v -4.35 a 6.06,6.06 0 0 1 0.65,-2.88 4.63,4.63 0 0 1 1.84,-1.93 5.39,5.39 0 0 1 2.76,-0.69 5.3,5.3 0 0 1 2.38,0.54 5,5 0 0 1 1.82,1.54 5.76,5.76 0 0 1 1,2.3 h -2.62 a 2.55,2.55 0 0 0 -1.48,-1.71 2.78,2.78 0 0 0 -1.1,-0.23 2.75,2.75 0 0 0 -1.45,0.38 2.55,2.55 0 0 0 -1,1.08 3.52,3.52 0 0 0 -0.34,1.6 v 4.35 a 2.85,2.85 0 0 0 0.35,1.44 2.41,2.41 0 0 0 1,1 3.08,3.08 0 0 0 1.48,0.34 2.87,2.87 0 0 0 1.46,-0.36 2.44,2.44 0 0 0 1,-1 3.73,3.73 0 0 0 0.34,-1.63 v -0.44 h -2.62 v -2.32 z"
       id="path123" />
    <path
       class="cls-8"
       d="m 336.71,732.1 v 1.65 h -6.18 v -1.65 z"
       id="path124" />
    <path
       class="cls-15"
       d="M 349.41,733.74 343.17,744 h 6.44 v 2.32 h -9.36 v -2.14 l 6.26,-10.27 h -6.07 v -2.31 h 9 z"
       id="path125" />
    <path
       class="cls-8"
       d="m 384,726.93 a 5.43,5.43 0 0 1 -1.26,-0.5 3.54,3.54 0 0 1 -0.94,-0.74 l 1,-1.42 a 3.62,3.62 0 0 0 1.22,0.86 3.44,3.44 0 0 0 1.42,0.29 2.34,2.34 0 0 0 1.42,-0.36 1.28,1.28 0 0 0 0.48,-1.08 v 0 a 1.14,1.14 0 0 0 -0.22,-0.75 1.4,1.4 0 0 0 -0.59,-0.41 5.21,5.21 0 0 0 -0.92,-0.24 h -0.19 a 9.77,9.77 0 0 1 -1.61,-0.41 2.37,2.37 0 0 1 -1.06,-0.84 2.9,2.9 0 0 1 -0.44,-1.73 v 0 a 3.46,3.46 0 0 1 0.4,-1.75 2.51,2.51 0 0 1 1.19,-1.08 4.61,4.61 0 0 1 1.93,-0.37 4.44,4.44 0 0 1 1,0.12 4.73,4.73 0 0 1 1,0.35 5.63,5.63 0 0 1 1,0.56 l -0.87,1.45 a 4.44,4.44 0 0 0 -1.08,-0.59 3,3 0 0 0 -1.07,-0.2 2.16,2.16 0 0 0 -1.32,0.34 1.21,1.21 0 0 0 -0.45,1 v 0 a 1.21,1.21 0 0 0 0.25,0.8 1.46,1.46 0 0 0 0.64,0.42 8.37,8.37 0 0 0 1.05,0.28 h 0.15 0.08 a 6.7,6.7 0 0 1 1.47,0.47 2.36,2.36 0 0 1 1,0.89 3,3 0 0 1 0.32,1.71 v 0 a 3.3,3.3 0 0 1 -0.42,1.72 2.63,2.63 0 0 1 -1.24,1 4.9,4.9 0 0 1 -2,0.36 5.54,5.54 0 0 1 -1.34,-0.15 z m 0.72,-11.75 h 1.72 v 1.65 h -1.72 z m 0,11.35 h 1.72 v 1.75 h -1.72 z"
       id="path126" />
    <path
       class="cls-15"
       d="m 396.06,732.48 3.51,-6 h 2.62 l -4.87,8.14 -3.85,6.58 h -2.62 z m 0,2.49 -0.29,-0.5 -4.83,-8 h 2.62 l 3.43,5.79 0.36,0.59 5,8.34 h -2.62 z"
       id="path127" />
    <path
       class="cls-8"
       d="m 432.77,714.76 h 1.77 v 1.77 h -1.77 z m 0,5.75 h 1.77 v 1.77 h -1.77 z"
       id="path128" />
    <path
       class="cls-15"
       d="m 442.26,736 a 4.43,4.43 0 0 1 -1.81,-1.9 6.32,6.32 0 0 1 -0.63,-2.92 v -4 a 6.39,6.39 0 0 1 0.63,-2.93 4.49,4.49 0 0 1 1.81,-1.9 5.53,5.53 0 0 1 2.78,-0.67 5.07,5.07 0 0 1 2.41,0.57 4.81,4.81 0 0 1 1.79,1.63 6.63,6.63 0 0 1 1,2.53 h -2.49 a 3.55,3.55 0 0 0 -0.58,-1.24 2.71,2.71 0 0 0 -0.94,-0.82 2.46,2.46 0 0 0 -1.23,-0.35 2.72,2.72 0 0 0 -1.45,0.38 2.51,2.51 0 0 0 -0.95,1.08 3.79,3.79 0 0 0 -0.33,1.65 v 4 a 3.86,3.86 0 0 0 0.33,1.65 2.48,2.48 0 0 0 0.95,1.07 2.72,2.72 0 0 0 1.45,0.38 2.48,2.48 0 0 0 1.18,-0.28 2.65,2.65 0 0 0 0.94,-0.8 3.47,3.47 0 0 0 0.57,-1.26 h 2.49 a 6.59,6.59 0 0 1 -1,2.52 4.84,4.84 0 0 1 -1.79,1.64 5.06,5.06 0 0 1 -2.4,0.57 5.53,5.53 0 0 1 -2.73,-0.6 z"
       id="path129" />
    <path
       class="cls-8"
       d="m 481.11,717.1 a 3.74,3.74 0 0 1 0.41,-0.92 c 0.17,-0.26 0.38,-0.55 0.64,-0.89 0.26,-0.34 0.36,-0.46 0.47,-0.63 a 2.7,2.7 0 0 0 0.29,-0.56 2.09,2.09 0 0 0 0.11,-0.67 v 0 a 1.31,1.31 0 0 0 -0.28,-0.88 1,1 0 0 0 -0.79,-0.3 1,1 0 0 0 -0.8,0.36 1.66,1.66 0 0 0 -0.29,1 h -1.78 a 3.84,3.84 0 0 1 0.38,-1.63 2.38,2.38 0 0 1 1,-1 3,3 0 0 1 1.49,-0.36 3.47,3.47 0 0 1 1.54,0.32 2.15,2.15 0 0 1 1,0.93 2.87,2.87 0 0 1 0.34,1.46 v 0 a 3,3 0 0 1 -0.5,1.72 c -0.14,0.21 -0.33,0.47 -0.56,0.76 a 7.84,7.84 0 0 0 -0.57,0.77 3.24,3.24 0 0 0 -0.36,0.77 3.06,3.06 0 0 0 -0.14,1 h -1.73 a 4.34,4.34 0 0 1 0.13,-1.25 z m -0.18,2.4 h 1.76 v 1.76 h -1.76 z"
       id="path130" />
    <path
       class="cls-15"
       d="m 487.4,720.76 h 2.6 l 3.33,10.69 3.33,-10.69 h 2.55 l -4.85,14.73 h -2.07 z"
       id="path131" />
    <circle
       class="cls-16"
       cx="278.17001"
       cy="428.75"
       r="5.04"
       id="circle131" />
    <circle
       class="cls-16"
       cx="278.17001"
       cy="445.89001"
       r="5.04"
       id="circle132" />
    <circle
       class="cls-16"
       cx="278.17001"
       cy="463.03"
       r="5.04"
       id="circle133" />
    <circle
       class="cls-16"
       cx="278.17001"
       cy="480.17001"
       r="5.04"
       id="circle134" />
    <circle
       class="cls-16"
       cx="278.17001"
       cy="497.31"
       r="5.04"
       id="circle135" />
    <circle
       class="cls-16"
       cx="278.17001"
       cy="514.45001"
       r="5.04"
       id="circle136" />
    <circle
       class="cls-16"
       cx="278.17001"
       cy="531.59998"
       r="5.04"
       id="circle137" />
    <path
       class="cls-16"
       d="m 283.22,548.74 a 4.62,4.62 0 0 1 -0.19,1.34 h -9.7 a 4.3,4.3 0 0 1 -0.19,-1.34 5.04,5.04 0 1 1 10.08,0 z"
       id="path137" />
    <path
       class="cls-16"
       d="m 283.22,565.89 a 5.04,5.04 0 0 1 -10.08,0 4.39,4.39 0 0 1 0.19,-1.36 H 283 a 4.71,4.71 0 0 1 0.22,1.36 z"
       id="path138" />
    <circle
       class="cls-16"
       cx="278.17001"
       cy="583.02002"
       r="5.04"
       id="circle138" />
    <circle
       class="cls-16"
       cx="296.17001"
       cy="428.75"
       r="5.04"
       id="circle139" />
    <circle
       class="cls-16"
       cx="296.17001"
       cy="445.89001"
       r="5.04"
       id="circle140" />
    <circle
       class="cls-16"
       cx="296.17001"
       cy="463.03"
       r="5.04"
       id="circle141" />
    <circle
       class="cls-16"
       cx="296.17001"
       cy="480.17001"
       r="5.04"
       id="circle142" />
    <circle
       class="cls-16"
       cx="296.17001"
       cy="497.31"
       r="5.04"
       id="circle143" />
    <circle
       class="cls-16"
       cx="296.17001"
       cy="514.45001"
       r="5.04"
       id="circle144" />
    <circle
       class="cls-16"
       cx="296.17001"
       cy="531.59998"
       r="5.04"
       id="circle145" />
    <path
       class="cls-16"
       d="m 301.21,548.74 a 4.3,4.3 0 0 1 -0.19,1.34 h -9.69 a 4.31,4.31 0 0 1 -0.2,-1.34 5.04,5.04 0 1 1 10.08,0 z"
       id="path145" />
    <path
       class="cls-16"
       d="m 301.21,565.89 a 5.04,5.04 0 0 1 -10.08,0 4.39,4.39 0 0 1 0.2,-1.36 H 301 a 4.39,4.39 0 0 1 0.21,1.36 z"
       id="path146" />
    <circle
       class="cls-16"
       cx="296.17001"
       cy="583.02002"
       r="5.04"
       id="circle146" />
    <circle
       class="cls-17"
       cx="314.16"
       cy="428.75"
       r="5.04"
       id="circle147" />
    <circle
       class="cls-17"
       cx="314.16"
       cy="445.89001"
       r="5.04"
       id="circle148" />
    <circle
       class="cls-17"
       cx="314.16"
       cy="463.03"
       r="5.04"
       id="circle149" />
    <circle
       class="cls-17"
       cx="314.16"
       cy="480.17001"
       r="5.04"
       id="circle150" />
    <circle
       class="cls-17"
       cx="314.16"
       cy="497.31"
       r="5.04"
       id="circle151" />
    <circle
       class="cls-17"
       cx="314.16"
       cy="514.45001"
       r="5.04"
       id="circle152" />
    <circle
       class="cls-17"
       cx="314.16"
       cy="531.59998"
       r="5.04"
       id="circle153" />
    <path
       class="cls-17"
       d="m 319.21,548.74 a 4.62,4.62 0 0 1 -0.19,1.34 h -9.7 a 4.62,4.62 0 0 1 -0.19,-1.34 5.04,5.04 0 1 1 10.08,0 z"
       id="path153" />
    <path
       class="cls-17"
       d="m 319.21,565.89 a 5.04,5.04 0 0 1 -10.08,0 4.71,4.71 0 0 1 0.19,-1.36 H 319 a 4.71,4.71 0 0 1 0.21,1.36 z"
       id="path154" />
    <circle
       class="cls-17"
       cx="314.16"
       cy="583.02002"
       r="5.04"
       id="circle154" />
    <circle
       class="cls-17"
       cx="332.16"
       cy="428.75"
       r="5.04"
       id="circle155" />
    <circle
       class="cls-17"
       cx="332.16"
       cy="445.89001"
       r="5.04"
       id="circle156" />
    <circle
       class="cls-17"
       cx="332.16"
       cy="463.03"
       r="5.04"
       id="circle157" />
    <circle
       class="cls-17"
       cx="332.16"
       cy="480.17001"
       r="5.04"
       id="circle158" />
    <circle
       class="cls-17"
       cx="332.16"
       cy="497.31"
       r="5.04"
       id="circle159" />
    <circle
       class="cls-17"
       cx="332.16"
       cy="514.45001"
       r="5.04"
       id="circle160" />
    <circle
       class="cls-17"
       cx="332.16"
       cy="531.59998"
       r="5.04"
       id="circle161" />
    <path
       class="cls-17"
       d="m 337.21,548.74 a 4.31,4.31 0 0 1 -0.2,1.34 h -9.69 a 4.31,4.31 0 0 1 -0.2,-1.34 5.045,5.045 0 1 1 10.09,0 z"
       id="path161" />
    <path
       class="cls-17"
       d="m 337.21,565.89 a 5.045,5.045 0 0 1 -10.09,0 4.39,4.39 0 0 1 0.2,-1.36 H 337 a 4.39,4.39 0 0 1 0.21,1.36 z"
       id="path162" />
    <circle
       class="cls-17"
       cx="332.16"
       cy="583.02002"
       r="5.04"
       id="circle162" />
    <path
       class="cls-18"
       d="m 783.21,445.34 v 230.73 a 90.33,90.33 0 0 1 -16.64,52.23 l -12.37,17.46 a 90.33,90.33 0 0 1 -73.69,38.09 H 312.85 A 65.93,65.93 0 0 1 246.91,717.92 V 445.34 a 46.14,46.14 0 0 1 46.14,-46.14 h 444 a 46.14,46.14 0 0 1 46.16,46.14 z"
       id="path163" />
    <path
       class="cls-18"
       d="m 714.47,398.89 5,-129.39 c 0.19,-4.47 0.58,-8.94 1.17,-13.38 l 12.58,-93.84 a 8.72,8.72 0 0 1 8.65,-7.56 h 25.86 a 8.73,8.73 0 0 1 8.7,8.15 l 6.22,94.9 a 144.62,144.62 0 0 1 0.22,14.87 l -5.67,149.91"
       id="path164" />
    <path
       class="cls-18"
       d="M 270.74,405 V 167.73 a 8.72,8.72 0 0 1 8.71,-8.71 h 38.64 a 8.71,8.71 0 0 1 8.69,8.71 V 399.2"
       id="path165" />
    <rect
       class="cls-18"
       x="278.34"
       y="245.57001"
       width="8.5900002"
       height="37.990002"
       rx="1.36"
       id="rect165" />
    <rect
       class="cls-18"
       x="312.01999"
       y="245.57001"
       width="8.5900002"
       height="37.990002"
       rx="1.36"
       id="rect166" />
    <rect
       class="cls-18"
       x="278.34"
       y="347.41"
       width="8.5900002"
       height="37.990002"
       rx="1.36"
       id="rect167" />
    <rect
       class="cls-18"
       x="312.01999"
       y="347.41"
       width="8.5900002"
       height="37.990002"
       rx="1.36"
       id="rect168" />
    <rect
       class="cls-18"
       x="285.76999"
       y="162.36"
       width="25.719999"
       height="9.1999998"
       id="rect169" />
    <rect
       class="cls-18"
       x="345.92001"
       y="428.25"
       width="340.13"
       height="155.95"
       id="rect170"
       style="fill:#000000" />
    <rect
       class="cls-18"
       x="747.12"
       y="439.17999"
       width="18.82"
       height="89.07"
       rx="2.79"
       id="rect171" />
    <ellipse
       class="cls-19"
       cx="513.10999"
       cy="765.08002"
       rx="50.290001"
       ry="13.81"
       id="ellipse171" />
    <path
       class="cls-19"
       d="m 311.26,737.68 -3.9,10.44 a 5.17,5.17 0 0 1 -6.49,3.06 c -9.51,-3.16 -17.08,-8.57 -21.13,-14.68 a 5.12,5.12 0 0 1 3.53,-7.88 54.46,54.46 0 0 1 7.44,-0.5 51.61,51.61 0 0 1 17.5,2.93 5.14,5.14 0 0 1 3.05,6.63 z"
       id="path171" />
    <ellipse
       class="cls-20"
       cx="291.57999"
       cy="641.46997"
       rx="14.9"
       ry="22.690001"
       transform="rotate(-45,291.5775,641.47465)"
       id="ellipse172" />
    <ellipse
       class="cls-20"
       cx="340.39999"
       cy="634.02002"
       rx="14.9"
       ry="22.690001"
       transform="rotate(-45,340.40033,634.02157)"
       id="ellipse173" />
    <ellipse
       class="cls-20"
       cx="390.04999"
       cy="629.06"
       rx="14.9"
       ry="22.690001"
       transform="rotate(-45,390.05655,629.06329)"
       id="ellipse174" />
    <ellipse
       class="cls-20"
       cx="438.88"
       cy="624.91998"
       rx="14.9"
       ry="22.690001"
       transform="rotate(-45,438.88027,624.91984)"
       id="ellipse175" />
    <ellipse
       class="cls-20"
       cx="487.42999"
       cy="623.27002"
       rx="14.9"
       ry="22.690001"
       transform="rotate(-45,487.42377,623.26247)"
       id="ellipse176" />
    <ellipse
       class="cls-20"
       cx="291.57999"
       cy="692.66998"
       rx="14.9"
       ry="22.690001"
       transform="rotate(-45,291.57203,692.66691)"
       id="ellipse177" />
    <ellipse
       class="cls-20"
       cx="340.39999"
       cy="685.22998"
       rx="14.9"
       ry="22.690001"
       transform="rotate(-45,340.40193,685.2309)"
       id="ellipse178" />
    <ellipse
       class="cls-20"
       cx="390.04999"
       cy="680.26001"
       rx="14.9"
       ry="22.690001"
       transform="rotate(-45,390.05108,680.25555)"
       id="ellipse179" />
    <ellipse
       class="cls-20"
       cx="438.88"
       cy="676.12"
       rx="14.9"
       ry="22.690001"
       transform="rotate(-45,438.88187,676.12918)"
       id="ellipse180" />
    <ellipse
       class="cls-20"
       cx="487.42999"
       cy="674.46997"
       rx="14.9"
       ry="22.690001"
       transform="rotate(-45,487.42537,674.4718)"
       id="ellipse181" />
    <ellipse
       class="cls-20"
       cx="343.20999"
       cy="735.63"
       rx="14.9"
       ry="22.690001"
       transform="rotate(-45,343.21597,735.62529)"
       id="ellipse182" />
    <ellipse
       class="cls-20"
       cx="390.04999"
       cy="727.62"
       rx="14.9"
       ry="22.690001"
       transform="rotate(-45,390.04865,727.61656)"
       id="ellipse183" />
    <ellipse
       class="cls-20"
       cx="438.88"
       cy="723.47998"
       rx="14.9"
       ry="22.690001"
       transform="rotate(-45,438.88445,723.47811)"
       id="ellipse184" />
    <ellipse
       class="cls-20"
       cx="487.42999"
       cy="721.82001"
       rx="14.9"
       ry="22.690001"
       transform="rotate(-45,487.42794,721.82074)"
       id="ellipse185" />
    <ellipse
       class="cls-20"
       cx="734.63"
       cy="641.46997"
       rx="22.690001"
       ry="14.9"
       transform="rotate(-45,734.63698,641.4734)"
       id="ellipse186" />
    <ellipse
       class="cls-20"
       cx="685.81"
       cy="634.02002"
       rx="22.690001"
       ry="14.9"
       transform="rotate(-45,685.80909,634.01857)"
       id="ellipse187" />
    <ellipse
       class="cls-20"
       cx="636.15997"
       cy="629.06"
       rx="22.690001"
       ry="14.9"
       transform="rotate(-45,636.15727,629.06503)"
       id="ellipse188" />
    <ellipse
       class="cls-20"
       cx="587.33002"
       cy="624.91998"
       rx="22.690001"
       ry="14.9"
       transform="rotate(-45,587.33027,624.91984)"
       id="ellipse189" />
    <ellipse
       class="cls-20"
       cx="538.78003"
       cy="623.27002"
       rx="22.690001"
       ry="14.9"
       transform="rotate(-45,538.78588,623.26758)"
       id="ellipse190" />
    <ellipse
       class="cls-20"
       cx="734.63"
       cy="692.66998"
       rx="22.690001"
       ry="14.9"
       transform="rotate(-45,734.62651,692.67774)"
       id="ellipse191" />
    <ellipse
       class="cls-20"
       cx="685.81"
       cy="685.22998"
       rx="22.690001"
       ry="14.9"
       transform="rotate(-45,685.81069,685.22791)"
       id="ellipse192" />
    <ellipse
       class="cls-20"
       cx="636.15997"
       cy="680.26001"
       rx="22.690001"
       ry="14.9"
       transform="rotate(-45,636.1518,680.2573)"
       id="ellipse193" />
    <ellipse
       class="cls-20"
       cx="587.33002"
       cy="676.12"
       rx="22.690001"
       ry="14.9"
       transform="rotate(-45,587.33187,676.12917)"
       id="ellipse194" />
    <ellipse
       class="cls-20"
       cx="538.78003"
       cy="674.46997"
       rx="22.690001"
       ry="14.9"
       transform="rotate(-45,538.78042,674.45984)"
       id="ellipse195" />
    <ellipse
       class="cls-20"
       cx="636.15997"
       cy="727.62"
       rx="22.690001"
       ry="14.9"
       transform="rotate(-45,636.14937,727.6183)"
       id="ellipse196" />
    <ellipse
       class="cls-20"
       cx="684.17999"
       cy="737.10999"
       rx="22.690001"
       ry="14.9"
       transform="rotate(-45,684.17847,737.104)"
       id="ellipse197" />
    <ellipse
       class="cls-20"
       cx="587.33002"
       cy="723.47998"
       rx="22.690001"
       ry="14.9"
       transform="rotate(-45,587.33444,723.47811)"
       id="ellipse198" />
    <ellipse
       class="cls-20"
       cx="538.78003"
       cy="721.82001"
       rx="22.690001"
       ry="14.9"
       transform="rotate(-45,538.77799,721.82085)"
       id="ellipse199" />
    <path
       class="cls-20"
       d="m 730.47,553.74 v 21 a 20.6,20.6 0 0 0 20.6,20.6 h 5.75 a 7.82,7.82 0 0 0 7.82,-7.82 v 0 A 7.9,7.9 0 0 0 763.7,583.8 L 745.37,550 a 7.8,7.8 0 0 0 -6.54,-4.08 h -0.22 a 7.84,7.84 0 0 0 -8.14,7.82 z"
       id="path199" />
    <path
       class="cls-18"
       d="m 832.36,798.41 c 0,0 -1.92,-8 -20.71,-28.76 -17.68,-19.49 -40.81,-39.32 -43.45,-41.57 0,0 -0.09,0 -0.06,0.06 32.14,45.07 64.22,70.27 64.22,70.27 L 787.5,840.2 c -28.37,-20.32 -61.35,-69.4 -61.35,-69.4"
       id="path200" />
  </g>
  <ellipse
     class="cls-8"
     cx="267.16998"
     cy="611.33002"
     rx="50.290001"
     ry="13.81"
     id="ellipse10" />
</svg>
