<svg xmlns="http://www.w3.org/2000/svg" viewBox="122.25 30.9 565.37 869.57"><defs><style>.cls-1{fill:#cac6c3;}.cls-2{fill:#b5b1ac;}.cls-3{fill:#2d2d2d;}.cls-4{fill:#191a19;}.cls-5{fill:#d8b258;}.cls-6{fill:#232322;}.cls-10,.cls-7{fill:none;}.cls-8{fill:#353535;}.cls-9{fill:#616160;}.cls-10{stroke:#000;stroke-linecap:round;stroke-linejoin:round;stroke-width:0.87px;}</style></defs><g id="Layer_3" data-name="Layer 3"><rect class="cls-1" x="581.01" y="848" width="61.48" height="30.88"/><polygon class="cls-2" points="630.74 873.92 630.74 878.71 592.73 878.71 592.92 874.08 598.46 874.08 598.46 864.31 625.27 864.31 625.27 873.92 630.74 873.92"/><rect class="cls-3" x="592.92" y="874.08" width="37.82" height="4.63"/><polygon class="cls-4" points="391.08 76.3 416.15 56.2 423.84 66.25 397.87 85.17 391.08 76.3"/><polyline class="cls-5" points="580.29 544.24 580.29 538.07 554.68 538.07 554.68 544.24"/><polyline class="cls-5" points="554.68 538.07 551.96 535.35 582.71 535.35 580.14 537.92"/><path class="cls-4" d="M589.26,528.15v5a2.24,2.24,0,0,1-2.24,2.25H547.65a2.25,2.25,0,0,1-2.25-2.25v-5Z"/><path class="cls-6" d="M589.27,493.61V486.5a1.32,1.32,0,0,0-1.32-1.32H546.72a1.32,1.32,0,0,0-1.32,1.32v7.11"/><rect class="cls-6" x="542.56" y="493.61" width="49.84" height="34.54" rx="1.14"/><path class="cls-6" d="M589.27,418.62v64.27a2.3,2.3,0,0,1-2.3,2.29H547.7a2.3,2.3,0,0,1-2.3-2.29V418.62a2.29,2.29,0,0,1,2.3-2.29H587A2.29,2.29,0,0,1,589.27,418.62Z"/><path class="cls-6" d="M594.48,371.9l-2.29,22.77a18.73,18.73,0,0,1-20.5,16.76l-1.66-.16-3.87-.39-12.38-1.25L477.36,402a2.26,2.26,0,0,1-2-2.47l3.93-39.15a2.26,2.26,0,0,1,2.48-2l110.71,11.1A2.27,2.27,0,0,1,594.48,371.9Z"/><path class="cls-4" d="M582.68,409.15v7.18h-28.9v-6.7l12.38,1.25,3.87.39,1.66.16A18.56,18.56,0,0,0,582.68,409.15Z"/><polygon class="cls-4" points="167.3 326.91 164.08 358.92 160.6 358.5 163.81 326.52 167.3 326.91"/><path class="cls-6" d="M479.26,360.33l-3.9,39a2.16,2.16,0,0,1-2.5,1.9l-71-12.07L171.6,360.69l.08-.82,3.22-32.12.1-1L407.35,352.6,477.29,358A2.14,2.14,0,0,1,479.26,360.33Z"/><path class="cls-6" d="M163.92,325.48l-.1,1-3.22,32-.08.83-23-2.84A16.86,16.86,0,0,1,141.58,323Z"/><polygon class="cls-4" points="174.9 327.75 171.68 359.87 168.2 359.43 171.41 327.37 174.9 327.75"/><polygon class="cls-6" points="171.52 326.34 171.41 327.37 168.2 359.43 168.12 360.26 164 359.75 164.08 358.93 164.08 358.92 167.3 326.91 167.4 325.87 171.52 326.34"/><line class="cls-7" x1="175" y1="326.73" x2="174.9" y2="327.75"/><line class="cls-7" x1="171.68" y1="359.87" x2="171.6" y2="360.69"/><polyline class="cls-5" points="666.96 544.24 666.96 538.07 641.36 538.07 641.36 544.24"/><polyline class="cls-5" points="641.36 538.07 638.63 535.35 669.38 535.35 666.81 537.92"/><path class="cls-4" d="M675.94,528.15v5a2.24,2.24,0,0,1-2.24,2.25H634.32a2.24,2.24,0,0,1-2.24-2.25v-5Z"/><path class="cls-6" d="M675.94,493.61V486.5a1.32,1.32,0,0,0-1.32-1.32H633.4a1.32,1.32,0,0,0-1.32,1.32v7.11"/><rect class="cls-6" x="629.24" y="493.61" width="49.84" height="34.54" rx="1.14"/><path class="cls-6" d="M675.94,418.62v64.27a2.3,2.3,0,0,1-2.29,2.29H634.37a2.3,2.3,0,0,1-2.29-2.29V418.62a2.29,2.29,0,0,1,2.29-2.29h39.28A2.29,2.29,0,0,1,675.94,418.62Z"/><path class="cls-6" d="M685.41,395.36l-16.06,12.88-1.78,1.43a18.72,18.72,0,0,1-26.33-2.89l-.79-1-58.52-73a2.25,2.25,0,0,1,.34-3.17L613,305a2.27,2.27,0,0,1,3.18.35l69.62,86.8A2.26,2.26,0,0,1,685.41,395.36Z"/><path class="cls-4" d="M669.35,408.24v8.09h-28.9V405.79l.79,1a18.72,18.72,0,0,0,26.33,2.89Z"/><line class="cls-6" x1="423.04" y1="64.98" x2="420.88" y2="62.22"/><polyline class="cls-6" points="391.08 76.3 393.22 79.09 393.21 79.09"/><line class="cls-6" x1="397.87" y1="85.17" x2="395.74" y2="82.38"/><path class="cls-6" d="M423.84,64.33l144.28,184L613.27,302a2.14,2.14,0,0,1-.3,3l-30.54,24.51a2.15,2.15,0,0,1-3.11-.46L538.24,270l-141-184.28"/><path class="cls-6" d="M390.43,76.82,376.36,58.43a16.87,16.87,0,0,1,25.43-22.07,15.94,15.94,0,0,1,1.31,1.51L417,55.55"/><polyline class="cls-6" points="397.22 85.69 397.87 85.17 423.04 64.98 423.84 64.33"/><polyline class="cls-6" points="390.44 76.82 391.08 76.3 416.15 56.2 416.97 55.55"/><polygon class="cls-6" points="395.09 82.9 392.56 79.61 393.21 79.09 393.22 79.09 418.32 58.96 419.13 58.31 421.68 61.57 420.88 62.22 395.74 82.38 395.09 82.9"/><path class="cls-3" d="M660.17,796.26h24.1V560.43a16.19,16.19,0,0,0-16.2-16.19H555.49a16.19,16.19,0,0,0-16.19,16.19V796.26h24.1a18.5,18.5,0,0,1,0,37H539.3V881a16.19,16.19,0,0,0,16.18,16.18H581V848.31h61.53v48.84h18.07a.91.91,0,0,0,.91-.89V872.83a2.75,2.75,0,0,1,2.76-2.76h2.26a2.75,2.75,0,0,1,2.76,2.76v23.26a1,1,0,0,0,0,.17.9.9,0,0,0,1,.73,16.18,16.18,0,0,0,14-16V833.26h-24.1a18.5,18.5,0,1,1,0-37Z"/><rect class="cls-8" x="547.82" y="553.14" width="127.92" height="74.11" rx="5.08"/><rect class="cls-4" x="567.45" y="638.97" width="88.67" height="71.67" rx="4.62"/><path class="cls-4" d="M539.3,701.41h2.94a3.26,3.26,0,0,0,3.26-3.26V678.07a3.27,3.27,0,0,0-3.26-3.26H539.3"/><path class="cls-4" d="M684.26,674.81h-2.93a3.27,3.27,0,0,0-3.27,3.26v20.08a3.26,3.26,0,0,0,3.27,3.26h2.93"/><path class="cls-4" d="M539.3,781.47h2.42a1.14,1.14,0,0,0,1.13-1.13V726.92a1.13,1.13,0,0,0-1.13-1.12H539.3"/><path class="cls-6" d="M684.27,802.45v24.22H668.32a15,15,0,0,0-.56-24.22Z"/><path class="cls-4" d="M644.16,814.76a15,15,0,0,0,24.16,11.91h15.95v6.59h-24.1a18.5,18.5,0,1,1,0-37h24.1v6.19H667.76a15,15,0,0,0-23.6,12.31Z"/><path class="cls-6" d="M555.25,826.67h-16V802.45h16.5a15,15,0,0,0-.55,24.22Z"/><path class="cls-4" d="M581.89,814.76a18.49,18.49,0,0,1-18.49,18.5H539.3v-6.59h16a15,15,0,1,0,.55-24.22H539.3v-6.19h24.1A18.49,18.49,0,0,1,581.89,814.76Z"/><circle class="cls-4" cx="653.74" cy="382.78" r="5.98"/><circle class="cls-4" cx="563.31" cy="385.69" r="5.98"/><rect class="cls-1" x="581.11" y="853.27" width="11.75" height="46.77"/><rect class="cls-1" x="630.74" y="853.27" width="11.75" height="46.77"/><rect class="cls-4" x="605.77" y="872.15" width="1.77" height="1.77"/><rect class="cls-4" x="616.75" y="872.15" width="1.77" height="1.77"/><path class="cls-9" d="M669.32,896.26h-7.8V872.83a2.75,2.75,0,0,1,2.76-2.76h2.26a2.75,2.75,0,0,1,2.76,2.76v23.26A1,1,0,0,0,669.32,896.26Z"/></g><g id="Layer_2" data-name="Layer 2"><rect class="cls-10" x="547.82" y="553.14" width="127.92" height="74.11" rx="5.08"/><rect class="cls-10" x="567.45" y="638.97" width="88.67" height="71.67" rx="4.62"/><path class="cls-4" d="M653.64,780.22a2.3,2.3,0,0,1-2.31-2.31V739a8.9,8.9,0,0,0-8.89-8.89H581.12a8.89,8.89,0,0,0-8.88,8.89v38.91a2.32,2.32,0,0,1-4.64,0V739a13.54,13.54,0,0,1,13.52-13.52h61.32A13.54,13.54,0,0,1,656,739v38.91A2.31,2.31,0,0,1,653.64,780.22Z"/><path class="cls-10" d="M539.3,701.41h2.94a3.26,3.26,0,0,0,3.26-3.26V678.07a3.27,3.27,0,0,0-3.26-3.26H539.3"/><path class="cls-10" d="M684.26,674.81h-2.93a3.27,3.27,0,0,0-3.27,3.26v20.08a3.26,3.26,0,0,0,3.27,3.26h2.93"/><path class="cls-10" d="M539.3,781.47h2.42a1.14,1.14,0,0,0,1.13-1.13V726.92a1.13,1.13,0,0,0-1.13-1.12H539.3"/><path class="cls-4" d="M635,759.34H586.3a2.32,2.32,0,0,1,0-4.63H635a2.32,2.32,0,0,1,0,4.63Z"/><path class="cls-10" d="M684.27,560.43V881a16.18,16.18,0,0,1-14,16,.9.9,0,0,1-1-.9V872.83a2.75,2.75,0,0,0-2.76-2.76h-2.26a2.75,2.75,0,0,0-2.76,2.76v23.41a.91.91,0,0,1-.91.91H642.54V848.31H581v48.84H555.48A16.19,16.19,0,0,1,539.3,881V560.43a16.19,16.19,0,0,1,16.19-16.19H668.07A16.19,16.19,0,0,1,684.27,560.43Z"/><line class="cls-10" x1="669.3" y1="896.25" x2="661.52" y2="896.25"/><path class="cls-10" d="M684.27,833.26h-24.1a18.5,18.5,0,1,1,0-37h24.1"/><circle class="cls-10" cx="659.17" cy="814.76" r="15.01"/><line class="cls-10" x1="684.27" y1="826.67" x2="668.32" y2="826.67"/><line class="cls-10" x1="684.27" y1="802.45" x2="667.76" y2="802.45"/><path class="cls-10" d="M539.3,796.26h24.1a18.5,18.5,0,0,1,0,37H539.3"/><circle class="cls-10" cx="564.39" cy="814.76" r="15.01"/><line class="cls-10" x1="555.25" y1="826.67" x2="539.3" y2="826.67"/><line class="cls-10" x1="555.8" y1="802.45" x2="539.3" y2="802.45"/><rect class="cls-10" x="581.01" y="853.38" width="11.85" height="46.66"/><rect class="cls-10" x="630.69" y="853.38" width="11.85" height="46.66"/><line class="cls-10" x1="592.87" y1="878.88" x2="630.69" y2="878.88"/><line class="cls-10" x1="592.87" y1="874.02" x2="630.69" y2="874.02"/><polyline class="cls-10" points="598.46 874.02 598.46 864.29 625.27 864.29 625.27 874.02"/><rect class="cls-10" x="605.77" y="872.15" width="1.88" height="1.88"/><rect class="cls-10" x="616.7" y="872.15" width="1.88" height="1.88"/><polyline class="cls-10" points="580.29 544.24 580.29 538.07 554.68 538.07 554.68 544.24"/><polyline class="cls-10" points="554.68 538.07 551.96 535.35 582.71 535.35 580.14 537.92"/><path class="cls-10" d="M552,535.35h-4.31a2.25,2.25,0,0,1-2.25-2.25v-5"/><path class="cls-10" d="M582.71,535.35H587a2.24,2.24,0,0,0,2.24-2.25v-5"/><path class="cls-10" d="M589.27,493.61V486.5a1.32,1.32,0,0,0-1.32-1.32H546.72a1.32,1.32,0,0,0-1.32,1.32v7.11"/><rect class="cls-10" x="542.56" y="493.61" width="49.84" height="34.54" rx="1.14"/><rect class="cls-10" x="545.4" y="416.33" width="43.87" height="68.85" rx="2.29"/><path class="cls-10" d="M515.23,327.8h39.35a2.26,2.26,0,0,1,2.26,2.26V441.33a2.26,2.26,0,0,1-2.26,2.26H531.7A18.73,18.73,0,0,1,513,424.86v-94.8a2.26,2.26,0,0,1,2.26-2.26Z" transform="translate(97.73 879.42) rotate(-84.27)"/><line class="cls-10" x1="553.77" y1="416.33" x2="553.77" y2="409.63"/><line class="cls-10" x1="582.68" y1="416.33" x2="582.68" y2="409.15"/><circle class="cls-10" cx="563.31" cy="385.69" r="5.98"/><line class="cls-10" x1="566.15" y1="416.33" x2="566.15" y2="410.87"/><line class="cls-10" x1="570.03" y1="411.26" x2="570.03" y2="416.33"/><line class="cls-10" x1="167.3" y1="326.91" x2="163.81" y2="326.52"/><line class="cls-10" x1="174.9" y1="327.75" x2="171.41" y2="327.36"/><polyline class="cls-10" points="160.6 358.5 164.08 358.92 164.08 358.93"/><line class="cls-10" x1="171.68" y1="359.87" x2="168.2" y2="359.43"/><line class="cls-10" x1="171.51" y1="326.34" x2="167.4" y2="325.87"/><path class="cls-10" d="M175,326.73,407.35,352.6,477.29,358a2.14,2.14,0,0,1,2,2.35l-3.9,39a2.16,2.16,0,0,1-2.5,1.9l-71-12.07L171.6,360.69"/><path class="cls-10" d="M160.51,359.32l-23-2.84A16.86,16.86,0,0,1,141.58,323l22.33,2.48"/><line class="cls-10" x1="168.11" y1="360.26" x2="164" y2="359.76"/><polyline class="cls-10" points="168.11 360.26 168.2 359.43 171.41 327.37 171.51 326.34"/><polyline class="cls-10" points="171.6 360.69 171.68 359.87 174.9 327.75 175 326.73"/><polyline class="cls-10" points="160.51 359.32 160.6 358.5 163.81 326.52 163.91 325.48"/><polyline class="cls-10" points="164 359.75 164.08 358.93 164.08 358.92 167.3 326.91 167.4 325.87"/><polyline class="cls-10" points="666.96 544.24 666.96 538.07 641.36 538.07 641.36 544.24"/><polyline class="cls-10" points="641.36 538.07 638.63 535.35 669.38 535.35 666.81 537.92"/><path class="cls-10" d="M638.63,535.35h-4.31a2.24,2.24,0,0,1-2.24-2.25v-5"/><path class="cls-10" d="M669.38,535.35h4.32a2.24,2.24,0,0,0,2.24-2.25v-5"/><path class="cls-10" d="M675.94,493.61V486.5a1.32,1.32,0,0,0-1.32-1.32H633.4a1.32,1.32,0,0,0-1.32,1.32v7.11"/><rect class="cls-10" x="629.24" y="493.61" width="49.84" height="34.54" rx="1.14"/><rect class="cls-10" x="632.08" y="416.33" width="43.87" height="68.85" rx="2.29"/><path class="cls-10" d="M614.17,304.61h39.35a2.26,2.26,0,0,1,2.26,2.26V418.14a2.26,2.26,0,0,1-2.26,2.26H630.64a18.73,18.73,0,0,1-18.73-18.73v-94.8a2.26,2.26,0,0,1,2.26-2.26Z" transform="translate(-87.42 476.29) rotate(-38.73)"/><line class="cls-10" x1="640.45" y1="416.33" x2="640.45" y2="405.79"/><line class="cls-10" x1="669.35" y1="416.33" x2="669.35" y2="408.24"/><circle class="cls-10" cx="653.74" cy="382.78" r="5.98"/><line class="cls-10" x1="652.83" y1="416.33" x2="652.83" y2="413.55"/><line class="cls-10" x1="656.71" y1="413.8" x2="656.71" y2="416.33"/><line class="cls-10" x1="418.32" y1="58.96" x2="416.15" y2="56.2"/><line class="cls-10" x1="423.04" y1="64.98" x2="420.88" y2="62.22"/><polyline class="cls-10" points="391.08 76.3 393.22 79.09 393.21 79.09"/><line class="cls-10" x1="397.87" y1="85.17" x2="395.74" y2="82.38"/><line class="cls-10" x1="421.68" y1="61.57" x2="419.13" y2="58.31"/><path class="cls-10" d="M423.84,64.33l144.28,184L613.27,302a2.14,2.14,0,0,1-.3,3l-30.54,24.51a2.15,2.15,0,0,1-3.11-.46L538.24,270l-141-184.28"/><path class="cls-10" d="M390.43,76.82,376.36,58.43a16.87,16.87,0,0,1,25.43-22.07,15.94,15.94,0,0,1,1.31,1.51L417,55.55"/><line class="cls-10" x1="395.09" y1="82.9" x2="392.56" y2="79.61"/><polyline class="cls-10" points="395.09 82.9 395.74 82.38 420.88 62.22 421.68 61.57"/><polyline class="cls-10" points="397.22 85.69 397.87 85.17 423.04 64.98 423.84 64.33"/><polyline class="cls-10" points="390.44 76.82 391.08 76.3 416.15 56.2 416.97 55.55"/><polyline class="cls-10" points="392.56 79.61 393.21 79.09 393.22 79.09 418.32 58.96 419.13 58.31"/><line class="cls-10" x1="550.23" y1="493.61" x2="550.23" y2="528.15"/><line class="cls-10" x1="552.55" y1="493.61" x2="552.55" y2="528.15"/><line class="cls-10" x1="558.51" y1="493.61" x2="558.51" y2="528.15"/><line class="cls-10" x1="560.82" y1="493.61" x2="560.82" y2="528.15"/><line class="cls-10" x1="566.78" y1="493.61" x2="566.78" y2="528.15"/><line class="cls-10" x1="569.09" y1="493.61" x2="569.09" y2="528.15"/><line class="cls-10" x1="575.06" y1="493.61" x2="575.06" y2="528.15"/><line class="cls-10" x1="577.37" y1="493.61" x2="577.37" y2="528.15"/><line class="cls-10" x1="583.33" y1="493.61" x2="583.33" y2="528.15"/><line class="cls-10" x1="585.64" y1="493.61" x2="585.64" y2="528.15"/><line class="cls-10" x1="636.73" y1="493.61" x2="636.73" y2="528.15"/><line class="cls-10" x1="639.04" y1="493.61" x2="639.04" y2="528.15"/><line class="cls-10" x1="645" y1="493.61" x2="645" y2="528.15"/><line class="cls-10" x1="647.31" y1="493.61" x2="647.31" y2="528.15"/><line class="cls-10" x1="653.27" y1="493.61" x2="653.27" y2="528.15"/><line class="cls-10" x1="655.59" y1="493.61" x2="655.59" y2="528.15"/><line class="cls-10" x1="661.55" y1="493.61" x2="661.55" y2="528.15"/><line class="cls-10" x1="663.86" y1="493.61" x2="663.86" y2="528.15"/><line class="cls-10" x1="669.82" y1="493.61" x2="669.82" y2="528.15"/><line class="cls-10" x1="672.14" y1="493.61" x2="672.14" y2="528.15"/></g></svg>