<?xml version="1.0" encoding="UTF-8" standalone="no"?>
<svg
   id="Layer_1"
   data-name="Layer 1"
   viewBox="0 0 390.7 390.7"
   version="1.1"
   sodipodi:docname="Meshtasticd-Tux-Penguin.svg"
   inkscape:version="1.4 (e7c3feb1, 2024-10-09)"
   xmlns:inkscape="http://www.inkscape.org/namespaces/inkscape"
   xmlns:sodipodi="http://sodipodi.sourceforge.net/DTD/sodipodi-0.0.dtd"
   xmlns="http://www.w3.org/2000/svg"
   xmlns:svg="http://www.w3.org/2000/svg">
  <sodipodi:namedview
     id="namedview5"
     pagecolor="#ffffff"
     bordercolor="#000000"
     borderopacity="0.25"
     inkscape:showpageshadow="2"
     inkscape:pageopacity="0.0"
     inkscape:pagecheckerboard="0"
     inkscape:deskcolor="#d1d1d1"
     inkscape:zoom="1.2821731"
     inkscape:cx="298.32165"
     inkscape:cy="211.74988"
     inkscape:window-width="1472"
     inkscape:window-height="890"
     inkscape:window-x="0"
     inkscape:window-y="38"
     inkscape:window-maximized="1"
     inkscape:current-layer="Layer_1" />
  <defs
     id="defs1">
    <style
       id="style1">
      .cls-1 {
        fill: #2c2d3c;
      }

      .cls-1, .cls-2, .cls-3 {
        stroke-width: 0px;
      }

      .cls-2 {
        fill: #fff;
      }

      .cls-3 {
        fill: #e8c169;
      }
    </style>
  </defs>
  <rect
     class="cls-3"
     x="177.39"
     y="65.99"
     width="37.58"
     height="37.58"
     transform="translate(-2.49 163.56) rotate(-45)"
     id="rect1" />
  <path
     class="cls-1"
     d="m247.99,83.55l-.97,25.21-50.84-47.65-50.84,47.65-.97-25.17c0-14.13,5.61-27.69,15.61-37.68l.06-.06c19.81-19.81,51.86-19.99,71.89-.42h0c10.26,10.03,16.05,23.77,16.05,38.12Z"
     id="path1" />
  <polygon
     class="cls-3"
     points="192.36 314.21 91.8 359.62 298.56 359.62 192.36 314.21"
     id="polygon1" />
  <path
     class="cls-1"
     d="m93.47,272.46l102.78,87.36,102.65-86.4-51.81-153.57.27,142.36c.05,28.27-22.85,51.22-51.13,51.22h0c-28.26,0-51.16-22.93-51.13-51.19l.17-143.36-51.81,153.57Z"
     id="path2" />
  <g
     id="g5">
    <path
       class="cls-1"
       d="m226.29,160.34h-59.39c-2.73,0-4.95,2.22-4.95,4.95v49.49c0,2.73,2.22,4.95,4.95,4.95h59.39c2.73,0,4.95-2.22,4.95-4.95v-49.49c0-2.73-2.22-4.95-4.95-4.95Z"
       id="path3" />
    <g
       id="g4">
      <rect
         class="cls-2"
         x="164.02"
         y="187.67"
         width="31.89"
         height="3.78"
         transform="translate(-77.99 231.79) rotate(-55.79)"
         id="rect3" />
      <path
         class="cls-2"
         d="m189.38,203.71l-3.08-2.1,17.16-25.17c.35-.51.92-.81,1.54-.81h0c.61,0,1.19.3,1.54.81l17.2,25.13-3.07,2.1-15.66-22.88-15.63,22.92Z"
         id="path4" />
    </g>
  </g>
  <path
     style="fill:#000000;stroke-width:0.779926"
     d="M 178.93121,344.4815 C 116.48538,291.39912 95.074926,273.09205 94.665884,272.4302 94.409672,272.01564 105.55719,238.01353 119.43815,196.86995 l 25.2381,-74.80651 0.40871,75.84527 c 0.44041,81.72906 0.20952,77.47577 4.69863,86.55757 8.47522,17.146 24.10237,27.70279 43.17889,29.16912 19.98749,1.53636 40.3991,-10.1458 49.24178,-28.18252 5.70849,-11.64381 5.44234,-7.11432 5.24736,-89.30152 -0.0962,-40.53665 0.0495,-73.17655 0.3238,-72.53311 1.95444,4.58539 50.16655,148.67604 49.99015,149.40468 -0.18156,0.74999 -98.33497,83.95731 -100.93005,85.56115 -0.41849,0.25865 -8.47543,-6.08752 -17.90431,-14.10258 z"
     id="path5" />
  <path
     style="fill:#000000;stroke-width:0.779926"
     d="m 164.27958,217.93268 -2.055,-1.61646 v -25.89737 c 0,-22.17686 0.17443,-26.1464 1.21412,-27.63076 l 1.21411,-1.73339 h 31.81186 c 29.82831,0 31.89234,0.0889 33.10263,1.42628 1.1474,1.26786 1.28944,4.32141 1.27882,27.49239 -0.007,14.33635 -0.26979,26.45227 -0.58494,26.92425 -1.63645,2.4508 -4.20668,2.65152 -33.95337,2.65152 -29.14216,0 -30.03022,-0.0448 -32.02823,-1.61646 z m 17.83468,-27.30948 c 8.47511,-12.44248 8.98359,-13.39889 7.65786,-14.40382 -0.78101,-0.59203 -1.77098,-1.07895 -2.19994,-1.08205 -0.42896,-0.003 -4.81605,5.97937 -9.74908,13.29438 -8.56972,12.70773 -8.90172,13.34943 -7.45521,14.40947 0.83267,0.61019 1.77371,1.10944 2.09122,1.10944 0.3175,0 4.66232,-5.99734 9.65515,-13.32742 z m 15.16619,2.39335 c 4.05267,-5.99712 7.56234,-10.89313 7.79926,-10.88002 0.23692,0.0131 3.74511,4.92665 7.79597,10.91897 4.05087,5.99231 7.49587,10.89512 7.65555,10.89512 0.90496,0 3.3075,-1.7315 3.3075,-2.3837 0,-0.79278 -11.78715,-18.35334 -15.80665,-23.54884 -1.2445,-1.60859 -2.70192,-2.92472 -3.23873,-2.92472 -0.53681,0 -5.02531,5.9358 -9.97444,13.19067 -8.21851,12.0474 -8.89113,13.29797 -7.76047,14.42863 0.68087,0.68088 1.60145,1.23116 2.04573,1.22285 0.44428,-0.008 4.12361,-4.92184 8.17628,-10.91896 z"
     id="path6" />
  <path
     style="fill:#000000;stroke-width:0.779926"
     d="m 145.4383,101.46734 c -0.29966,-3.197819 -0.39681,-11.016223 -0.2159,-17.374226 0.28387,-9.976161 0.60871,-12.343769 2.37094,-17.280454 2.9887,-8.372459 6.47817,-13.810626 13.18217,-20.543699 4.85713,-4.878196 7.31101,-6.634272 13.25874,-9.488407 8.62512,-4.138929 13.1912,-5.197587 22.35048,-5.182027 14.87978,0.02528 27.10275,5.496784 37.41144,16.746897 5.67553,6.193839 9.83919,13.866536 11.90232,21.933293 1.26113,4.930954 1.5214,8.413183 1.44574,19.342538 -0.0507,7.330929 -0.31398,14.266115 -0.58494,15.411525 -0.47028,1.9879 -1.36126,1.26913 -19.60086,-15.812231 -10.5095,-9.842138 -21.7469,-20.307049 -24.97199,-23.255356 l -5.86382,-5.36056 -19.09381,17.888185 c -10.5016,9.838501 -21.78298,20.340811 -25.06974,23.338462 l -5.97593,5.45029 z"
     id="path7" />
</svg>
