<svg xmlns="http://www.w3.org/2000/svg" viewBox="423.02 81.83 219.47 832.99"><defs><style>.cls-1{fill:#232322;}.cls-2{fill:#3d3d3d;}.cls-3{fill:#212220;}.cls-4{fill:#191a19;}.cls-5{fill:#949089;}.cls-6{fill:#888d9e;}.cls-10,.cls-7,.cls-8,.cls-9{fill:none;stroke:#000;stroke-miterlimit:10;}.cls-7{stroke-width:0.99px;}.cls-8{stroke-width:0.94px;}.cls-9{stroke-width:0.89px;}.cls-10{stroke-width:0.95px;}</style></defs><g id="Layer_2" data-name="Layer 2"><polygon class="cls-1" points="459.36 438.29 605.73 438.29 638.39 470.95 638.39 875.32 625.62 888.09 617.74 895.98 608.26 905.45 458.6 905.45 448.59 895.44 440.8 887.65 427.15 874 427.15 470.49 441.8 455.84 449.69 447.96 459.36 438.29"></polygon><path class="cls-2" d="M449.69,448l-7.89,7.88-14.65,14.65V874l13.65,13.65,7.79,7.79,10,10H608.26l9.48-9.47,7.88-7.89,12.77-12.77V471l-32.66-32.66H459.36Zm152.52-1.17,27.68,27.68V871.8L604.74,897H462.12l-26.47-26.47V474l27.23-27.22Z"></path><polygon class="cls-2" points="580.71 499.12 580.71 843.18 572.83 851.08 492.95 851.08 485.17 843.28 485.17 499.21 493.05 491.32 572.93 491.32 580.71 499.12"></polygon><path class="cls-3" d="M642,867.41a2.32,2.32,0,0,1-2.33,2.33h-1.3v-4.65h1.3A2.32,2.32,0,0,1,642,867.41Z"></path><path class="cls-3" d="M642,854.55a2.32,2.32,0,0,1-2.33,2.33h-1.3v-4.65h1.3A2.32,2.32,0,0,1,642,854.55Z"></path><path class="cls-3" d="M642,841.7a2.32,2.32,0,0,1-2.33,2.33h-1.3v-4.65h1.3A2.32,2.32,0,0,1,642,841.7Z"></path><path class="cls-3" d="M642,828.84a2.32,2.32,0,0,1-2.33,2.33h-1.3v-4.65h1.3A2.32,2.32,0,0,1,642,828.84Z"></path><path class="cls-3" d="M642,816a2.32,2.32,0,0,1-2.33,2.33h-1.3v-4.65h1.3A2.32,2.32,0,0,1,642,816Z"></path><path class="cls-3" d="M642,803.12a2.32,2.32,0,0,1-2.33,2.33h-1.3V800.8h1.3A2.32,2.32,0,0,1,642,803.12Z"></path><path class="cls-3" d="M642,790.26a2.32,2.32,0,0,1-2.33,2.33h-1.3v-4.65h1.3A2.32,2.32,0,0,1,642,790.26Z"></path><path class="cls-3" d="M642,777.4a2.32,2.32,0,0,1-2.33,2.33h-1.3v-4.65h1.3A2.32,2.32,0,0,1,642,777.4Z"></path><path class="cls-3" d="M642,764.54a2.32,2.32,0,0,1-2.33,2.33h-1.3v-4.65h1.3A2.32,2.32,0,0,1,642,764.54Z"></path><path class="cls-3" d="M642,751.68a2.32,2.32,0,0,1-2.33,2.33h-1.3v-4.65h1.3A2.32,2.32,0,0,1,642,751.68Z"></path><path class="cls-3" d="M642,738.82a2.32,2.32,0,0,1-2.33,2.33h-1.3V736.5h1.3A2.32,2.32,0,0,1,642,738.82Z"></path><path class="cls-3" d="M642,726a2.32,2.32,0,0,1-2.33,2.33h-1.3v-4.65h1.3A2.32,2.32,0,0,1,642,726Z"></path><path class="cls-3" d="M642,713.1a2.32,2.32,0,0,1-2.33,2.33h-1.3v-4.65h1.3A2.32,2.32,0,0,1,642,713.1Z"></path><path class="cls-3" d="M642,700.24a2.32,2.32,0,0,1-2.33,2.33h-1.3v-4.65h1.3A2.32,2.32,0,0,1,642,700.24Z"></path><path class="cls-3" d="M642,687.38a2.32,2.32,0,0,1-2.33,2.33h-1.3v-4.65h1.3A2.32,2.32,0,0,1,642,687.38Z"></path><path class="cls-3" d="M642,674.52a2.32,2.32,0,0,1-2.33,2.33h-1.3V672.2h1.3A2.32,2.32,0,0,1,642,674.52Z"></path><path class="cls-3" d="M642,661.66a2.32,2.32,0,0,1-2.33,2.33h-1.3v-4.65h1.3A2.32,2.32,0,0,1,642,661.66Z"></path><path class="cls-3" d="M642,648.8a2.32,2.32,0,0,1-2.33,2.33h-1.3v-4.65h1.3A2.32,2.32,0,0,1,642,648.8Z"></path><path class="cls-3" d="M642,635.94a2.32,2.32,0,0,1-2.33,2.33h-1.3v-4.65h1.3A2.32,2.32,0,0,1,642,635.94Z"></path><path class="cls-3" d="M642,623.08a2.32,2.32,0,0,1-2.33,2.33h-1.3v-4.65h1.3A2.32,2.32,0,0,1,642,623.08Z"></path><path class="cls-3" d="M642,610.22a2.32,2.32,0,0,1-2.33,2.33h-1.3V607.9h1.3A2.32,2.32,0,0,1,642,610.22Z"></path><path class="cls-3" d="M642,597.36a2.32,2.32,0,0,1-2.33,2.33h-1.3V595h1.3A2.32,2.32,0,0,1,642,597.36Z"></path><path class="cls-3" d="M642,584.5a2.32,2.32,0,0,1-2.33,2.33h-1.3v-4.65h1.3A2.32,2.32,0,0,1,642,584.5Z"></path><path class="cls-3" d="M642,571.64a2.32,2.32,0,0,1-2.33,2.33h-1.3v-4.65h1.3A2.32,2.32,0,0,1,642,571.64Z"></path><path class="cls-3" d="M642,558.78a2.32,2.32,0,0,1-2.33,2.33h-1.3v-4.65h1.3A2.32,2.32,0,0,1,642,558.78Z"></path><path class="cls-3" d="M642,545.92a2.32,2.32,0,0,1-2.33,2.33h-1.3V543.6h1.3A2.32,2.32,0,0,1,642,545.92Z"></path><path class="cls-3" d="M642,533.06a2.32,2.32,0,0,1-2.33,2.33h-1.3v-4.65h1.3A2.32,2.32,0,0,1,642,533.06Z"></path><path class="cls-3" d="M642,520.2a2.32,2.32,0,0,1-2.33,2.33h-1.3v-4.65h1.3A2.32,2.32,0,0,1,642,520.2Z"></path><path class="cls-3" d="M642,507.34a2.32,2.32,0,0,1-2.33,2.33h-1.3V505h1.3A2.32,2.32,0,0,1,642,507.34Z"></path><path class="cls-3" d="M642,494.48a2.32,2.32,0,0,1-2.33,2.33h-1.3v-4.65h1.3A2.32,2.32,0,0,1,642,494.48Z"></path><path class="cls-3" d="M642,481.62a2.32,2.32,0,0,1-2.33,2.33h-1.3V479.3h1.3A2.32,2.32,0,0,1,642,481.62Z"></path><path class="cls-3" d="M423.52,867.41a2.32,2.32,0,0,0,2.33,2.33h1.3v-4.65h-1.3A2.32,2.32,0,0,0,423.52,867.41Z"></path><path class="cls-3" d="M423.52,854.55a2.32,2.32,0,0,0,2.33,2.33h1.3v-4.65h-1.3A2.32,2.32,0,0,0,423.52,854.55Z"></path><path class="cls-3" d="M423.52,841.7a2.32,2.32,0,0,0,2.33,2.33h1.3v-4.65h-1.3A2.32,2.32,0,0,0,423.52,841.7Z"></path><path class="cls-3" d="M423.52,828.84a2.32,2.32,0,0,0,2.33,2.33h1.3v-4.65h-1.3A2.32,2.32,0,0,0,423.52,828.84Z"></path><path class="cls-3" d="M423.52,816a2.32,2.32,0,0,0,2.33,2.33h1.3v-4.65h-1.3A2.32,2.32,0,0,0,423.52,816Z"></path><path class="cls-3" d="M423.52,803.12a2.32,2.32,0,0,0,2.33,2.33h1.3V800.8h-1.3A2.32,2.32,0,0,0,423.52,803.12Z"></path><path class="cls-3" d="M423.52,790.26a2.32,2.32,0,0,0,2.33,2.33h1.3v-4.65h-1.3A2.32,2.32,0,0,0,423.52,790.26Z"></path><path class="cls-3" d="M423.52,777.4a2.32,2.32,0,0,0,2.33,2.33h1.3v-4.65h-1.3A2.32,2.32,0,0,0,423.52,777.4Z"></path><path class="cls-3" d="M423.52,764.54a2.32,2.32,0,0,0,2.33,2.33h1.3v-4.65h-1.3A2.32,2.32,0,0,0,423.52,764.54Z"></path><path class="cls-3" d="M423.52,751.68a2.32,2.32,0,0,0,2.33,2.33h1.3v-4.65h-1.3A2.32,2.32,0,0,0,423.52,751.68Z"></path><path class="cls-3" d="M423.52,738.82a2.32,2.32,0,0,0,2.33,2.33h1.3V736.5h-1.3A2.32,2.32,0,0,0,423.52,738.82Z"></path><path class="cls-3" d="M423.52,726a2.32,2.32,0,0,0,2.33,2.33h1.3v-4.65h-1.3A2.32,2.32,0,0,0,423.52,726Z"></path><path class="cls-3" d="M423.52,713.1a2.32,2.32,0,0,0,2.33,2.33h1.3v-4.65h-1.3A2.32,2.32,0,0,0,423.52,713.1Z"></path><path class="cls-3" d="M423.52,700.24a2.32,2.32,0,0,0,2.33,2.33h1.3v-4.65h-1.3A2.32,2.32,0,0,0,423.52,700.24Z"></path><path class="cls-3" d="M423.52,687.38a2.32,2.32,0,0,0,2.33,2.33h1.3v-4.65h-1.3A2.32,2.32,0,0,0,423.52,687.38Z"></path><path class="cls-3" d="M423.52,674.52a2.32,2.32,0,0,0,2.33,2.33h1.3V672.2h-1.3A2.32,2.32,0,0,0,423.52,674.52Z"></path><path class="cls-3" d="M423.52,661.66a2.32,2.32,0,0,0,2.33,2.33h1.3v-4.65h-1.3A2.32,2.32,0,0,0,423.52,661.66Z"></path><path class="cls-3" d="M423.52,648.8a2.32,2.32,0,0,0,2.33,2.33h1.3v-4.65h-1.3A2.32,2.32,0,0,0,423.52,648.8Z"></path><path class="cls-3" d="M423.52,635.94a2.32,2.32,0,0,0,2.33,2.33h1.3v-4.65h-1.3A2.32,2.32,0,0,0,423.52,635.94Z"></path><path class="cls-3" d="M423.52,623.08a2.32,2.32,0,0,0,2.33,2.33h1.3v-4.65h-1.3A2.32,2.32,0,0,0,423.52,623.08Z"></path><path class="cls-3" d="M423.52,610.22a2.32,2.32,0,0,0,2.33,2.33h1.3V607.9h-1.3A2.32,2.32,0,0,0,423.52,610.22Z"></path><path class="cls-3" d="M423.52,597.36a2.32,2.32,0,0,0,2.33,2.33h1.3V595h-1.3A2.32,2.32,0,0,0,423.52,597.36Z"></path><path class="cls-3" d="M423.52,584.5a2.32,2.32,0,0,0,2.33,2.33h1.3v-4.65h-1.3A2.32,2.32,0,0,0,423.52,584.5Z"></path><path class="cls-3" d="M423.52,571.64a2.32,2.32,0,0,0,2.33,2.33h1.3v-4.65h-1.3A2.32,2.32,0,0,0,423.52,571.64Z"></path><path class="cls-3" d="M423.52,558.78a2.32,2.32,0,0,0,2.33,2.33h1.3v-4.65h-1.3A2.32,2.32,0,0,0,423.52,558.78Z"></path><path class="cls-3" d="M423.52,545.92a2.32,2.32,0,0,0,2.33,2.33h1.3V543.6h-1.3A2.32,2.32,0,0,0,423.52,545.92Z"></path><path class="cls-3" d="M423.52,533.06a2.32,2.32,0,0,0,2.33,2.33h1.3v-4.65h-1.3A2.32,2.32,0,0,0,423.52,533.06Z"></path><path class="cls-3" d="M423.52,520.2a2.32,2.32,0,0,0,2.33,2.33h1.3v-4.65h-1.3A2.32,2.32,0,0,0,423.52,520.2Z"></path><path class="cls-3" d="M423.52,507.34a2.32,2.32,0,0,0,2.33,2.33h1.3V505h-1.3A2.32,2.32,0,0,0,423.52,507.34Z"></path><path class="cls-3" d="M423.52,494.48a2.32,2.32,0,0,0,2.33,2.33h1.3v-4.65h-1.3A2.32,2.32,0,0,0,423.52,494.48Z"></path><path class="cls-3" d="M423.52,481.62a2.32,2.32,0,0,0,2.33,2.33h1.3V479.3h-1.3A2.32,2.32,0,0,0,423.52,481.62Z"></path><path class="cls-4" d="M597.72,905.45v4.18a4.72,4.72,0,0,1-4.72,4.72H568.41a4.72,4.72,0,0,1-4.72-4.72v-4.18Z"></path><path class="cls-4" d="M515.92,905.45h34v4.18a4.72,4.72,0,0,1-4.73,4.72H520.65a4.72,4.72,0,0,1-4.73-4.72Z"></path><path class="cls-4" d="M468.16,905.45h34v4.18a4.72,4.72,0,0,1-4.72,4.72H472.88a4.72,4.72,0,0,1-4.72-4.72Z"></path><path class="cls-1" d="M475.45,82.3H503a2.29,2.29,0,0,1,2.29,2.29v8.56a.61.61,0,0,1-.61.61H473.76a.61.61,0,0,1-.61-.61V84.59A2.29,2.29,0,0,1,475.45,82.3Z"></path><rect class="cls-1" x="473.15" y="99.17" width="32.11" height="4.3" rx="1.43"></rect><path class="cls-1" d="M474.28,109.61h29.86a1.12,1.12,0,0,1,1.12,1.12V135a0,0,0,0,1,0,0H473.15a0,0,0,0,1,0,0V110.73A1.12,1.12,0,0,1,474.28,109.61Z"></path><path class="cls-1" d="M518.92,438.29V405q0-5.1-.5-10.17L500.9,216.38v-77l4.36-4.36H473.15l4.36,4.36v77L460,394.78q-.5,5.07-.5,10.17v33.34Z"></path><path class="cls-5" d="M504.32,93.76a2.7,2.7,0,0,0-2.7,2.71h0a2.7,2.7,0,0,0,2.7,2.7H474.19a2.7,2.7,0,0,0,2.71-2.7h0a2.71,2.71,0,0,0-2.71-2.71Z"></path><path class="cls-5" d="M504.32,103.47a2.9,2.9,0,0,0-2.7,3.07h0a2.91,2.91,0,0,0,2.7,3.07H474.19a2.91,2.91,0,0,0,2.71-3.07h0a2.9,2.9,0,0,0-2.71-3.07Z"></path><path class="cls-4" d="M525.6,708.56h26.69v4.27h-25.6c-5.88,4.77-2.31,12.34-.87,14.86h26.47V732H527.1c-5.47,3.92-4,11.49-3,14.85h28.14v4.27H521.91a24.62,24.62,0,0,1-1.66-4.27A18.65,18.65,0,0,1,521.89,732c.23-.4.48-.8.76-1.2a25.06,25.06,0,0,1-1.42-3.07c-1.46-3.75-2.77-9.66.39-14.86A14.93,14.93,0,0,1,525.6,708.56Z"></path><polygon class="cls-4" points="509.91 807.08 552.29 807.08 552.29 811.37 516.82 835.1 552.29 835.1 552.29 839.37 509.91 839.37 509.91 834.21 544.08 811.35 509.91 811.35 509.91 807.08"></polygon><path class="cls-4" d="M519.74,778.55c0,7.28,7.27,13.17,16.23,13.17s16.24-5.89,16.24-13.17-7.27-13.18-16.24-13.18S519.74,771.27,519.74,778.55Zm29.13.2c0,5.5-5.78,10-12.9,10s-12.89-4.46-12.89-10,5.78-10,12.89-10S548.87,773.26,548.87,778.75Z"></path><path class="cls-6" d="M536,771.74a6.81,6.81,0,1,1-6.81,6.81A6.81,6.81,0,0,1,536,771.74Z"></path><path class="cls-4" d="M521.54,676.59c-4.09,6.41-1.29,14,.34,17.33l3.57-2.6c-1.54-2.94-4.09-9.52.93-13.92a3.36,3.36,0,0,1,2.2-.81h4.76c-.71,3.89-1.31,10.66,1.75,15.5,4.54,7.16,15.39,4.84,16.87-3.79.14-.8.25-1.58.33-2.36v-7.16a21.93,21.93,0,0,0-.34-2.19,16.45,16.45,0,0,0-.92-3.14,1.85,1.85,0,0,0-1.7-1.13H529.18a8.84,8.84,0,0,0-7.12,3.51C521.88,676.09,521.7,676.34,521.54,676.59Zm26.46,0a22.86,22.86,0,0,1,.41,9.78c-.92,6-7.61,7.56-10.41,2.62-2.42-4.28-1.13-10.73-.74-12.4Z"></path><path class="cls-4" d="M505.33,636.44h16.24c-3.81,6.16-3.44,14.94,2.75,19.71,7.34,5.66,18.52,4,24.56-3a17.13,17.13,0,0,0,3.41-6.45,19.63,19.63,0,0,0,.76-4.88,24.2,24.2,0,0,0-.5-5.33h-.26v-1a7.53,7.53,0,0,0-1.71-3.24H505.33Zm42.58,0a13,13,0,0,1-1.94,14.1c-4.59,5-13.09,6.21-18.67,2.18s-4.94-12.09-.15-16.28Z"></path><path class="cls-4" d="M521.55,534.48c-4.1,6.41-1.3,14,.33,17.33l3.57-2.6c-1.53-2.91-4-9.4.79-13.79a3.75,3.75,0,0,1,2.54-.94h4.56c-.71,3.89-1.31,10.66,1.75,15.5,4.54,7.17,15.39,4.84,16.87-3.79.14-.8.25-1.58.33-2.36v-7.16a21.93,21.93,0,0,0-.34-2.19,13.27,13.27,0,0,0-1.49-4.27H529.34a9.25,9.25,0,0,0-7.79,4.27Zm26.45,0a22.86,22.86,0,0,1,.41,9.78c-.92,6-7.61,7.56-10.41,2.62-2.42-4.28-1.13-10.73-.74-12.4Z"></path><path class="cls-4" d="M547.67,594.61c2.4,1.36,3.89,3.89,4.62,6.9a23.93,23.93,0,0,1,0,10.25,19.79,19.79,0,0,1-3.3,7.82l-3.2-1.91c5.86-11,2.83-19.35-2.25-20.33s-9.41-.63-13.73,12.77c-3.71,11.5-16.25,10.35-19.9,3.23a9.12,9.12,0,0,1-1-3.29,30.94,30.94,0,0,1,1-11.24,28.65,28.65,0,0,1,1.86-4.91l3.49,1.63c-1.56,3.62-3.79,10.33-2.15,15.36,2.36,7.2,11.32,5.94,14.75-5.54S540.47,590.54,547.67,594.61Z"></path><path class="cls-4" d="M549.45,561.28a14,14,0,0,1,2.84,8.36v1.72a9.83,9.83,0,0,1-1.84,5.54,12.33,12.33,0,0,1-6.6,4.27H511V576.9h8.88V564h3.82V576.9h19.85a6.39,6.39,0,0,0,4.63-5.83c.23-4.08-.91-6.24-1.69-7.23Z"></path><path class="cls-4" d="M520.6,498.11l3.12,1.2a22.52,22.52,0,0,0,.07,13h28.5v3.87H522.1a18.38,18.38,0,0,1-1.78-3.87A23,23,0,0,1,520.6,498.11Z"></path><polygon class="cls-7" points="580.71 499.12 580.71 843.18 572.83 851.08 492.95 851.08 485.17 843.28 485.17 499.21 493.05 491.32 572.93 491.32 580.71 499.12"></polygon><line class="cls-7" x1="485.17" y1="843.28" x2="440.8" y2="887.65"></line><line class="cls-7" x1="492.95" y1="851.07" x2="448.59" y2="895.44"></line><line class="cls-7" x1="625.62" y1="888.09" x2="580.71" y2="843.18"></line><line class="cls-7" x1="617.74" y1="895.98" x2="572.83" y2="851.07"></line><line class="cls-7" x1="615.85" y1="448.41" x2="572.93" y2="491.32"></line><line class="cls-7" x1="623.63" y1="456.19" x2="580.71" y2="499.11"></line><line class="cls-7" x1="493.05" y1="491.32" x2="449.69" y2="447.96"></line><line class="cls-7" x1="485.17" y1="499.21" x2="441.8" y2="455.84"></line><polygon class="cls-8" points="638.39 470.95 638.39 875.33 625.62 888.1 617.74 895.99 608.26 905.46 458.6 905.46 448.59 895.45 440.8 887.65 427.15 874 427.15 470.5 441.8 455.85 449.69 447.96 459.36 438.3 605.73 438.3 615.85 448.42 623.63 456.19 638.39 470.95"></polygon><path class="cls-7" d="M642,867.41a2.32,2.32,0,0,1-2.33,2.33h-1.3v-4.65h1.3A2.32,2.32,0,0,1,642,867.41Z"></path><path class="cls-7" d="M642,854.55a2.32,2.32,0,0,1-2.33,2.33h-1.3v-4.65h1.3A2.32,2.32,0,0,1,642,854.55Z"></path><path class="cls-7" d="M642,841.7a2.32,2.32,0,0,1-2.33,2.33h-1.3v-4.65h1.3A2.32,2.32,0,0,1,642,841.7Z"></path><path class="cls-7" d="M642,828.84a2.32,2.32,0,0,1-2.33,2.33h-1.3v-4.65h1.3A2.32,2.32,0,0,1,642,828.84Z"></path><path class="cls-7" d="M642,816a2.32,2.32,0,0,1-2.33,2.33h-1.3v-4.65h1.3A2.32,2.32,0,0,1,642,816Z"></path><path class="cls-7" d="M642,803.12a2.32,2.32,0,0,1-2.33,2.33h-1.3V800.8h1.3A2.32,2.32,0,0,1,642,803.12Z"></path><path class="cls-7" d="M642,790.26a2.32,2.32,0,0,1-2.33,2.33h-1.3v-4.65h1.3A2.32,2.32,0,0,1,642,790.26Z"></path><path class="cls-7" d="M642,777.4a2.32,2.32,0,0,1-2.33,2.33h-1.3v-4.65h1.3A2.32,2.32,0,0,1,642,777.4Z"></path><path class="cls-7" d="M642,764.54a2.32,2.32,0,0,1-2.33,2.33h-1.3v-4.65h1.3A2.32,2.32,0,0,1,642,764.54Z"></path><path class="cls-7" d="M642,751.68a2.32,2.32,0,0,1-2.33,2.33h-1.3v-4.65h1.3A2.32,2.32,0,0,1,642,751.68Z"></path><path class="cls-7" d="M642,738.82a2.32,2.32,0,0,1-2.33,2.33h-1.3V736.5h1.3A2.32,2.32,0,0,1,642,738.82Z"></path><path class="cls-7" d="M642,726a2.32,2.32,0,0,1-2.33,2.33h-1.3v-4.65h1.3A2.32,2.32,0,0,1,642,726Z"></path><path class="cls-7" d="M642,713.1a2.32,2.32,0,0,1-2.33,2.33h-1.3v-4.65h1.3A2.32,2.32,0,0,1,642,713.1Z"></path><path class="cls-7" d="M642,700.24a2.32,2.32,0,0,1-2.33,2.33h-1.3v-4.65h1.3A2.32,2.32,0,0,1,642,700.24Z"></path><path class="cls-7" d="M642,687.38a2.32,2.32,0,0,1-2.33,2.33h-1.3v-4.65h1.3A2.32,2.32,0,0,1,642,687.38Z"></path><path class="cls-7" d="M642,674.52a2.32,2.32,0,0,1-2.33,2.33h-1.3V672.2h1.3A2.32,2.32,0,0,1,642,674.52Z"></path><path class="cls-7" d="M642,661.66a2.32,2.32,0,0,1-2.33,2.33h-1.3v-4.65h1.3A2.32,2.32,0,0,1,642,661.66Z"></path><path class="cls-7" d="M642,648.8a2.32,2.32,0,0,1-2.33,2.33h-1.3v-4.65h1.3A2.32,2.32,0,0,1,642,648.8Z"></path><path class="cls-7" d="M642,635.94a2.32,2.32,0,0,1-2.33,2.33h-1.3v-4.65h1.3A2.32,2.32,0,0,1,642,635.94Z"></path><path class="cls-7" d="M642,623.08a2.32,2.32,0,0,1-2.33,2.33h-1.3v-4.65h1.3A2.32,2.32,0,0,1,642,623.08Z"></path><path class="cls-7" d="M642,610.22a2.32,2.32,0,0,1-2.33,2.33h-1.3V607.9h1.3A2.32,2.32,0,0,1,642,610.22Z"></path><path class="cls-7" d="M642,597.36a2.32,2.32,0,0,1-2.33,2.33h-1.3V595h1.3A2.32,2.32,0,0,1,642,597.36Z"></path><path class="cls-7" d="M642,584.5a2.32,2.32,0,0,1-2.33,2.33h-1.3v-4.65h1.3A2.32,2.32,0,0,1,642,584.5Z"></path><path class="cls-7" d="M642,571.64a2.32,2.32,0,0,1-2.33,2.33h-1.3v-4.65h1.3A2.32,2.32,0,0,1,642,571.64Z"></path><path class="cls-7" d="M642,558.78a2.32,2.32,0,0,1-2.33,2.33h-1.3v-4.65h1.3A2.32,2.32,0,0,1,642,558.78Z"></path><path class="cls-7" d="M642,545.92a2.32,2.32,0,0,1-2.33,2.33h-1.3V543.6h1.3A2.32,2.32,0,0,1,642,545.92Z"></path><path class="cls-7" d="M642,533.06a2.32,2.32,0,0,1-2.33,2.33h-1.3v-4.65h1.3A2.32,2.32,0,0,1,642,533.06Z"></path><path class="cls-7" d="M642,520.2a2.32,2.32,0,0,1-2.33,2.33h-1.3v-4.65h1.3A2.32,2.32,0,0,1,642,520.2Z"></path><path class="cls-7" d="M642,507.34a2.32,2.32,0,0,1-2.33,2.33h-1.3V505h1.3A2.32,2.32,0,0,1,642,507.34Z"></path><path class="cls-7" d="M642,494.48a2.32,2.32,0,0,1-2.33,2.33h-1.3v-4.65h1.3A2.32,2.32,0,0,1,642,494.48Z"></path><path class="cls-7" d="M642,481.62a2.32,2.32,0,0,1-2.33,2.33h-1.3V479.3h1.3A2.32,2.32,0,0,1,642,481.62Z"></path><path class="cls-7" d="M423.52,867.41a2.32,2.32,0,0,0,2.33,2.33h1.3v-4.65h-1.3A2.32,2.32,0,0,0,423.52,867.41Z"></path><path class="cls-7" d="M423.52,854.55a2.32,2.32,0,0,0,2.33,2.33h1.3v-4.65h-1.3A2.32,2.32,0,0,0,423.52,854.55Z"></path><path class="cls-7" d="M423.52,841.7a2.32,2.32,0,0,0,2.33,2.33h1.3v-4.65h-1.3A2.32,2.32,0,0,0,423.52,841.7Z"></path><path class="cls-7" d="M423.52,828.84a2.32,2.32,0,0,0,2.33,2.33h1.3v-4.65h-1.3A2.32,2.32,0,0,0,423.52,828.84Z"></path><path class="cls-7" d="M423.52,816a2.32,2.32,0,0,0,2.33,2.33h1.3v-4.65h-1.3A2.32,2.32,0,0,0,423.52,816Z"></path><path class="cls-7" d="M423.52,803.12a2.32,2.32,0,0,0,2.33,2.33h1.3V800.8h-1.3A2.32,2.32,0,0,0,423.52,803.12Z"></path><path class="cls-7" d="M423.52,790.26a2.32,2.32,0,0,0,2.33,2.33h1.3v-4.65h-1.3A2.32,2.32,0,0,0,423.52,790.26Z"></path><path class="cls-7" d="M423.52,777.4a2.32,2.32,0,0,0,2.33,2.33h1.3v-4.65h-1.3A2.32,2.32,0,0,0,423.52,777.4Z"></path><path class="cls-7" d="M423.52,764.54a2.32,2.32,0,0,0,2.33,2.33h1.3v-4.65h-1.3A2.32,2.32,0,0,0,423.52,764.54Z"></path><path class="cls-7" d="M423.52,751.68a2.32,2.32,0,0,0,2.33,2.33h1.3v-4.65h-1.3A2.32,2.32,0,0,0,423.52,751.68Z"></path><path class="cls-7" d="M423.52,738.82a2.32,2.32,0,0,0,2.33,2.33h1.3V736.5h-1.3A2.32,2.32,0,0,0,423.52,738.82Z"></path><path class="cls-7" d="M423.52,726a2.32,2.32,0,0,0,2.33,2.33h1.3v-4.65h-1.3A2.32,2.32,0,0,0,423.52,726Z"></path><path class="cls-7" d="M423.52,713.1a2.32,2.32,0,0,0,2.33,2.33h1.3v-4.65h-1.3A2.32,2.32,0,0,0,423.52,713.1Z"></path><path class="cls-7" d="M423.52,700.24a2.32,2.32,0,0,0,2.33,2.33h1.3v-4.65h-1.3A2.32,2.32,0,0,0,423.52,700.24Z"></path><path class="cls-7" d="M423.52,687.38a2.32,2.32,0,0,0,2.33,2.33h1.3v-4.65h-1.3A2.32,2.32,0,0,0,423.52,687.38Z"></path><path class="cls-7" d="M423.52,674.52a2.32,2.32,0,0,0,2.33,2.33h1.3V672.2h-1.3A2.32,2.32,0,0,0,423.52,674.52Z"></path><path class="cls-7" d="M423.52,661.66a2.32,2.32,0,0,0,2.33,2.33h1.3v-4.65h-1.3A2.32,2.32,0,0,0,423.52,661.66Z"></path><path class="cls-7" d="M423.52,648.8a2.32,2.32,0,0,0,2.33,2.33h1.3v-4.65h-1.3A2.32,2.32,0,0,0,423.52,648.8Z"></path><path class="cls-7" d="M423.52,635.94a2.32,2.32,0,0,0,2.33,2.33h1.3v-4.65h-1.3A2.32,2.32,0,0,0,423.52,635.94Z"></path><path class="cls-7" d="M423.52,623.08a2.32,2.32,0,0,0,2.33,2.33h1.3v-4.65h-1.3A2.32,2.32,0,0,0,423.52,623.08Z"></path><path class="cls-7" d="M423.52,610.22a2.32,2.32,0,0,0,2.33,2.33h1.3V607.9h-1.3A2.32,2.32,0,0,0,423.52,610.22Z"></path><path class="cls-7" d="M423.52,597.36a2.32,2.32,0,0,0,2.33,2.33h1.3V595h-1.3A2.32,2.32,0,0,0,423.52,597.36Z"></path><path class="cls-7" d="M423.52,584.5a2.32,2.32,0,0,0,2.33,2.33h1.3v-4.65h-1.3A2.32,2.32,0,0,0,423.52,584.5Z"></path><path class="cls-7" d="M423.52,571.64a2.32,2.32,0,0,0,2.33,2.33h1.3v-4.65h-1.3A2.32,2.32,0,0,0,423.52,571.64Z"></path><path class="cls-7" d="M423.52,558.78a2.32,2.32,0,0,0,2.33,2.33h1.3v-4.65h-1.3A2.32,2.32,0,0,0,423.52,558.78Z"></path><path class="cls-7" d="M423.52,545.92a2.32,2.32,0,0,0,2.33,2.33h1.3V543.6h-1.3A2.32,2.32,0,0,0,423.52,545.92Z"></path><path class="cls-7" d="M423.52,533.06a2.32,2.32,0,0,0,2.33,2.33h1.3v-4.65h-1.3A2.32,2.32,0,0,0,423.52,533.06Z"></path><path class="cls-7" d="M423.52,520.2a2.32,2.32,0,0,0,2.33,2.33h1.3v-4.65h-1.3A2.32,2.32,0,0,0,423.52,520.2Z"></path><path class="cls-7" d="M423.52,507.34a2.32,2.32,0,0,0,2.33,2.33h1.3V505h-1.3A2.32,2.32,0,0,0,423.52,507.34Z"></path><path class="cls-7" d="M423.52,494.48a2.32,2.32,0,0,0,2.33,2.33h1.3v-4.65h-1.3A2.32,2.32,0,0,0,423.52,494.48Z"></path><path class="cls-7" d="M423.52,481.62a2.32,2.32,0,0,0,2.33,2.33h1.3V479.3h-1.3A2.32,2.32,0,0,0,423.52,481.62Z"></path><path class="cls-8" d="M597.72,905.45v4.18a4.72,4.72,0,0,1-4.72,4.72H568.41a4.72,4.72,0,0,1-4.72-4.72v-4.18Z"></path><path class="cls-8" d="M515.92,905.45h34v4.18a4.72,4.72,0,0,1-4.73,4.72H520.65a4.72,4.72,0,0,1-4.73-4.72Z"></path><path class="cls-8" d="M468.16,905.45h34v4.18a4.72,4.72,0,0,1-4.72,4.72H472.88a4.72,4.72,0,0,1-4.72-4.72Z"></path><path class="cls-8" d="M475.45,82.3H503a2.29,2.29,0,0,1,2.29,2.29v8.56a.61.61,0,0,1-.61.61H473.76a.61.61,0,0,1-.61-.61V84.59A2.29,2.29,0,0,1,475.45,82.3Z"></path><rect class="cls-8" x="473.15" y="99.17" width="32.11" height="4.3" rx="1.43"></rect><path class="cls-8" d="M474.28,109.61h29.86a1.12,1.12,0,0,1,1.12,1.12V135a0,0,0,0,1,0,0H473.15a0,0,0,0,1,0,0V110.73A1.12,1.12,0,0,1,474.28,109.61Z"></path><path class="cls-8" d="M473.15,135l4.36,4.36v77L460,394.78q-.5,5.07-.5,10.17v33.34"></path><path class="cls-8" d="M505.26,135l-4.36,4.36v77l17.52,178.4q.5,5.07.5,10.17v33.34"></path><line class="cls-8" x1="499.49" y1="216.38" x2="477.51" y2="216.38"></line><line class="cls-8" x1="477.51" y1="139.35" x2="500.9" y2="139.35"></line><line class="cls-8" x1="460.73" y1="387.2" x2="517.78" y2="387.2"></line><line class="cls-8" x1="459.49" y1="418" x2="518.92" y2="418"></line><line class="cls-8" x1="488.35" y1="387.2" x2="488.35" y2="418"></line><path class="cls-9" d="M474.19,93.76a2.71,2.71,0,0,1,2.71,2.71h0a2.7,2.7,0,0,1-2.71,2.7"></path><path class="cls-10" d="M474.19,103.47a2.9,2.9,0,0,1,2.71,3.07h0a2.91,2.91,0,0,1-2.71,3.07"></path><path class="cls-9" d="M504.32,93.76a2.7,2.7,0,0,0-2.7,2.71h0a2.7,2.7,0,0,0,2.7,2.7"></path><path class="cls-10" d="M504.32,103.47a2.9,2.9,0,0,0-2.7,3.07h0a2.91,2.91,0,0,0,2.7,3.07"></path><path class="cls-7" d="M525.6,708.56h26.69v4.27h-25.6c-5.88,4.77-2.31,12.34-.87,14.86h26.47V732H527.1c-5.47,3.92-4,11.49-3,14.85h28.14v4.27H521.91a24.62,24.62,0,0,1-1.66-4.27A18.65,18.65,0,0,1,521.89,732c.23-.4.48-.8.76-1.2a25.06,25.06,0,0,1-1.42-3.07c-1.46-3.75-2.77-9.66.39-14.86A14.93,14.93,0,0,1,525.6,708.56Z"></path><polygon class="cls-7" points="509.91 807.08 552.29 807.08 552.29 811.37 516.82 835.1 552.29 835.1 552.29 839.37 509.91 839.37 509.91 834.21 544.08 811.35 509.91 811.35 509.91 807.08"></polygon><path class="cls-7" d="M519.74,778.55c0,7.28,7.27,13.17,16.23,13.17s16.24-5.89,16.24-13.17-7.27-13.18-16.24-13.18S519.74,771.27,519.74,778.55Zm29.13.2c0,5.5-5.78,10-12.9,10s-12.89-4.46-12.89-10,5.78-10,12.89-10S548.87,773.26,548.87,778.75Z"></path><path class="cls-7" d="M536,771.74a6.81,6.81,0,1,1-6.81,6.81A6.81,6.81,0,0,1,536,771.74Z"></path><path class="cls-7" d="M521.54,676.59c-4.09,6.41-1.29,14,.34,17.33l3.57-2.6c-1.54-2.94-4.09-9.52.93-13.92a3.36,3.36,0,0,1,2.2-.81h4.76c-.71,3.89-1.31,10.66,1.75,15.5,4.54,7.16,15.39,4.84,16.87-3.79.14-.8.25-1.58.33-2.36v-7.16a21.93,21.93,0,0,0-.34-2.19,16.45,16.45,0,0,0-.92-3.14,1.85,1.85,0,0,0-1.7-1.13H529.18a8.84,8.84,0,0,0-7.12,3.51C521.88,676.09,521.7,676.34,521.54,676.59Zm26.46,0a22.86,22.86,0,0,1,.41,9.78c-.92,6-7.61,7.56-10.41,2.62-2.42-4.28-1.13-10.73-.74-12.4Z"></path><path class="cls-7" d="M505.33,636.44h16.24c-3.81,6.16-3.44,14.94,2.75,19.71,7.34,5.66,18.52,4,24.56-3a17.13,17.13,0,0,0,3.41-6.45,19.63,19.63,0,0,0,.76-4.88,24.2,24.2,0,0,0-.5-5.33h-.26v-1a7.53,7.53,0,0,0-1.71-3.24H505.33Zm42.58,0a13,13,0,0,1-1.94,14.1c-4.59,5-13.09,6.21-18.67,2.18s-4.94-12.09-.15-16.28Z"></path><path class="cls-7" d="M521.55,534.48c-4.1,6.41-1.3,14,.33,17.33l3.57-2.6c-1.53-2.91-4-9.4.79-13.79a3.75,3.75,0,0,1,2.54-.94h4.56c-.71,3.89-1.31,10.66,1.75,15.5,4.54,7.17,15.39,4.84,16.87-3.79.14-.8.25-1.58.33-2.36v-7.16a21.93,21.93,0,0,0-.34-2.19,13.27,13.27,0,0,0-1.49-4.27H529.34a9.25,9.25,0,0,0-7.79,4.27Zm26.45,0a22.86,22.86,0,0,1,.41,9.78c-.92,6-7.61,7.56-10.41,2.62-2.42-4.28-1.13-10.73-.74-12.4Z"></path><path class="cls-7" d="M547.67,594.61c2.4,1.36,3.89,3.89,4.62,6.9a23.93,23.93,0,0,1,0,10.25,19.79,19.79,0,0,1-3.3,7.82l-3.2-1.91c5.86-11,2.83-19.35-2.25-20.33s-9.41-.63-13.73,12.77c-3.71,11.5-16.25,10.35-19.9,3.23a9.12,9.12,0,0,1-1-3.29,30.94,30.94,0,0,1,1-11.24,28.65,28.65,0,0,1,1.86-4.91l3.49,1.63c-1.56,3.62-3.79,10.33-2.15,15.36,2.36,7.2,11.32,5.94,14.75-5.54S540.47,590.54,547.67,594.61Z"></path><path class="cls-7" d="M549.45,561.28a14,14,0,0,1,2.84,8.36v1.72a9.83,9.83,0,0,1-1.84,5.54,12.33,12.33,0,0,1-6.6,4.27H511V576.9h8.88V564h3.82V576.9h19.85a6.39,6.39,0,0,0,4.63-5.83c.23-4.08-.91-6.24-1.69-7.23Z"></path><path class="cls-7" d="M520.6,498.11l3.12,1.2a22.52,22.52,0,0,0,.07,13h28.5v3.87H522.1a18.38,18.38,0,0,1-1.78-3.87A23,23,0,0,1,520.6,498.11Z"></path></g></svg>