<?xml version="1.0" encoding="UTF-8" standalone="no"?>
<svg
   viewBox="0 0 216.75 487.99176"
   version="1.1"
   id="svg15"
   sodipodi:docname="muzi_r1_neo.svg"
   width="216.75"
   height="487.99176"
   inkscape:version="1.4 (e7c3feb1, 2024-10-09)"
   xmlns:inkscape="http://www.inkscape.org/namespaces/inkscape"
   xmlns:sodipodi="http://sodipodi.sourceforge.net/DTD/sodipodi-0.dtd"
   xmlns="http://www.w3.org/2000/svg"
   xmlns:svg="http://www.w3.org/2000/svg">
  <sodipodi:namedview
     id="namedview15"
     pagecolor="#ffffff"
     bordercolor="#000000"
     borderopacity="0.25"
     inkscape:showpageshadow="2"
     inkscape:pageopacity="0.0"
     inkscape:pagecheckerboard="0"
     inkscape:deskcolor="#d1d1d1"
     inkscape:zoom="1.9317526"
     inkscape:cx="-120.0982"
     inkscape:cy="225.44295"
     inkscape:window-width="1728"
     inkscape:window-height="1056"
     inkscape:window-x="0"
     inkscape:window-y="33"
     inkscape:window-maximized="1"
     inkscape:current-layer="svg15" />
  <defs
     id="defs1">
    <style
       id="style1">.cls-1{fill:#9a4451;}.cls-2{fill:#5b232b;}.cls-3{fill:#eadadb;}.cls-4{fill:#191919;}.cls-5{fill:#1f2020;}.cls-6{fill:#353535;}.cls-7{fill:#8b3944;}.cls-8{fill:#2a2a2a;}.cls-9{fill:none;stroke:#000;stroke-miterlimit:10;stroke-width:0.95px;}</style>
  </defs>
  <g
     id="Layer_3"
     data-name="Layer 3"
     transform="translate(-408.07515,-355.81308)">
    <path
       class="cls-1" fill="#9a4451"
       d="m 617.2,633.34 v 21.18 a 5.74,5.74 0 0 1 -11.48,0 v -14.38 l -50,26.45 -1,2.9 1,1.54 0.08,137.28 -0.05,2.08 69.19,-13 V 628.81 Z"
       id="path1" />
    <path
       class="cls-2" fill="#5b232b"
       d="m 624.85,628.49 v 0.32 l -7.65,4.53 v -1.79 a 5.74,5.74 0 0 0 -11.48,0 v 8.59 l -47.72,28.13 -90.13,48.82 -13.82,92.52 -17.26,0.38 -28.6,-8.44 v -85.47 a 9.33,9.33 0 0 1 1,-4.12 l 19.64,-40 a 8.71,8.71 0 0 1 0.85,-1.4 l 5.13,-7 0.11,-0.82 11,-14.53 v 0 l 5.36,-7.05 h -0.11 l 3.37,-4.6 20.46,-28.15 a 9.35,9.35 0 0 1 5,-3.51 l 5.46,7.23 a 4.65,4.65 0 0 0 3.69,1.83 h 32.07 a 4.62,4.62 0 0 0 3.6,-1.72 l 6.19,-7.68 h 69.87 a 23.93,23.93 0 0 1 23.97,23.93 z"
       id="path2" />
    <path
       class="cls-2" fill="#5b232b"
       d="m 451.29,641.14 -5.36,7.05 v 0 c -0.13,-0.13 0.33,-0.73 0.33,-0.73 l 5,-6.32 z"
       id="path3" />
    <path
       class="cls-2" fill="#5b232b"
       d="m 531.05,604.56 -6.19,7.68 a 4.62,4.62 0 0 1 -3.6,1.72 h -32.07 a 4.65,4.65 0 0 1 -3.69,-1.83 L 480,604.9 a 9.41,9.41 0 0 1 2.49,-0.34 z"
       id="path4" />
    <path
       class="cls-3" fill="#eadadb"
       d="m 531.05,604.56 -6.19,7.68 a 4.62,4.62 0 0 1 -3.6,1.72 h -32.07 a 4.65,4.65 0 0 1 -3.69,-1.83 L 480,604.9 a 9.41,9.41 0 0 1 2.49,-0.34 z"
       id="path5" />
    <path
       class="cls-4" fill="#191919"
       d="m 462.31,618.89 v 7 l -12.15,16.71 -11.08,15.2 -10.29,14.2 v -48.63 l 5.51,-37.49 a 2.21,2.21 0 0 1 2.18,-1.88 h 17.73 a 2.21,2.21 0 0 1 2.17,1.81 z"
       id="path6" />
    <polygon
       class="cls-5" fill="#1f2020"
       points="436.48,125.69 454.02,125.58 454.02,584 436.48,584 "
       id="polygon6"
       transform="matrix(1,0,0,0.40383084,0,348.16279)" />
    <path
       class="cls-4" fill="#191919"
       d="m 456.15064,365.92873 c 0,0.12 0,0.23 0,0.35 l -1.15,31.74 a 0.82,0.82 0 0 1 -0.82,0.78 h -18.14 a 0.81,0.81 0 0 1 -0.81,-0.79 l -1,-31.68 a 9.78,9.78 0 0 1 5.05,-8.88 h 0.08 a 12.08,12.08 0 0 1 11.77,0 9.78,9.78 0 0 1 5.02,8.48 z"
       id="path7" />
    <polygon
       class="cls-6" fill="#353535"
       points="450.16,642.56 439.08,657.8 439.08,584 450.16,584 "
       id="polygon7" />
    <path
       class="cls-9" fill="none" stroke="#000" stroke-width="0.95px" stroke-miterlimit="10"
       d="m 454.38378,399.04911 h -18.14 a 0.82,0.82 0 0 1 -0.82,-0.79 l -1,-31.69001 a 9.78,9.78 0 0 1 5,-8.87 h 0.09 a 12.11,12.11 0 0 1 11.77,0 v 0 a 9.81,9.81 0 0 1 5,8.91 l -1.14,31.68001 a 0.82,0.82 0 0 1 -0.76,0.76 z"
       id="path14"
       style="display:inline" />
    <path
       class="cls-6" fill="#353535"
       d="m 448.60682,365.13474 v 32.70001 h -6.37 v -32.70001 a 3.19,3.19 0 0 1 3.19,-3.19 3.15,3.15 0 0 1 2.25,0.94 3.18,3.18 0 0 1 0.93,2.25 z"
       id="path8"
       inkscape:label="path8" />
    <path
       class="cls-7" fill="#8b3944"
       d="M 555.75,675.9 V 843.69 H 439.42 V 677 a 27.34,27.34 0 0 1 27.34,-27.34 h 62.75 a 26.24,26.24 0 0 1 26.24,26.24 z"
       id="path9" />
    <path
       class="cls-8" fill="#2a2a2a"
       d="m 624.85,797.42 v 22.34 a 23.93,23.93 0 0 1 -23.93,23.93 h -168.8 a 23.93,23.93 0 0 1 -23.93,-23.93 v -18.21 l 31.25,8.45 h 118.62 z"
       id="path10" />
  </g>
  <g
     id="Layer_2"
     data-name="Layer 2"
     transform="translate(-408.19,-355.69823)">
    <path
       class="cls-9" fill="none" stroke="#000" stroke-width="0.95px" stroke-miterlimit="10"
       d="m 624.85,628.49 v 191.27 a 23.94,23.94 0 0 1 -23.93,23.93 H 432.12 A 23.93,23.93 0 0 1 408.19,819.76 V 716.08 a 9.46,9.46 0 0 1 0.95,-4.12 l 19.65,-40 a 8.38,8.38 0 0 1 0.85,-1.41 l 24.91,-34 20.45,-28.14 a 9.35,9.35 0 0 1 7.56,-3.85 h 118.36 a 23.93,23.93 0 0 1 23.93,23.93 z"
       id="path11" />
    <rect
       class="cls-9" fill="none" stroke="#000" stroke-width="0.95px" stroke-miterlimit="10"
       x="605.71997"
       y="625.81"
       width="11.49"
       height="34.459999"
       rx="5.7399998"
       id="rect11" />
    <polyline
       class="cls-9" fill="none" stroke="#000" stroke-width="0.95px" stroke-miterlimit="10"
       points="408.19 801.55 439.44 809.97 439.44 809.97 555.79 810.09 555.79 810.09 624.85 797.42"
       id="polyline11" />
    <path
       class="cls-9" fill="none" stroke="#000" stroke-width="0.95px" stroke-miterlimit="10"
       d="m 480,604.9 5.46,7.23 a 4.65,4.65 0 0 0 3.69,1.83 h 32.07 a 4.59,4.59 0 0 0 3.59,-1.72 l 6.2,-7.68"
       id="path12" />
    <path
       class="cls-9" fill="none" stroke="#000" stroke-width="0.95px" stroke-miterlimit="10"
       d="m 428.79,672 v -48.63 l 5.51,-37.49 a 2.21,2.21 0 0 1 2.18,-1.88 h 17.73 a 2.19,2.19 0 0 1 2.16,1.81 l 5.94,33.08 v 7"
       id="path13" />
    <line
       class="cls-9" fill="none" stroke="#000" stroke-width="0.95px" stroke-miterlimit="10"
       x1="436.48001"
       y1="584"
       x2="436.48001"
       y2="399.3739"
       id="line13" />
    <line
       class="cls-9" fill="none" stroke="#000" stroke-width="0.95px" stroke-miterlimit="10"
       x1="454.01999"
       y1="584"
       x2="454.01999"
       y2="398.98801"
       id="line14" />
    <path
       class="cls-9" fill="none" stroke="#000" stroke-width="0.95px" stroke-miterlimit="10"
       d="M 555.75,843.69 V 675.9 A 26.24,26.24 0 0 0 529.51,649.66 H 466.76 A 27.34,27.34 0 0 0 439.42,677 v 166.69"
       id="path15" />
  </g>
</svg>
