<svg xmlns="http://www.w3.org/2000/svg" viewBox="362.69 217.36 380.66 583.34"><defs><style>.cls-1{fill:#212121;}.cls-2{fill:#181918;}.cls-3,.cls-4,.cls-5,.cls-7,.cls-8{fill:none;stroke:#08090a;stroke-miterlimit:10;}.cls-3{stroke-width:2px;}.cls-4{stroke-width:2px;}.cls-5{stroke-width:0.5px;}.cls-6{fill:#08090a;}.cls-7{stroke-width:0.75px;}.cls-8{stroke-width:0.51px;}.cls-9{fill:#f0e963;}.cls-10{fill:#878a8f;}</style></defs><g id="Layer_5" data-name="Layer 5"><path class="cls-1" d="M702.93,218.36H403.4l-39.73,39.73V788.4A11.31,11.31,0,0,0,375,799.7H731a11.31,11.31,0,0,0,11.31-11.3V257.78ZM505.74,234.54a10.86,10.86,0,0,1,7.71-3.2h78.63a10.91,10.91,0,1,1,0,21.82H513.45a10.91,10.91,0,0,1-7.71-18.62Zm220.82,539.3a14.47,14.47,0,0,1-14.47,14.47H392.75a14.46,14.46,0,0,1-14.46-14.47v-493a14.45,14.45,0,0,1,14.46-14.46H712.09a14.46,14.46,0,0,1,14.47,14.46Z"/><path class="cls-1" d="M726.56,280.81v493a14.47,14.47,0,0,1-14.47,14.47H392.75a14.46,14.46,0,0,1-14.46-14.47v-493a14.45,14.45,0,0,1,14.46-14.46H712.09A14.46,14.46,0,0,1,726.56,280.81Z"/><circle class="cls-2" cx="553.42" cy="447.02" r="69.8"/><rect class="cls-3" x="378.29" y="266.35" width="348.27" height="521.96" rx="14.46"/><path class="cls-4" d="M742.35,257.78V788.4A11.31,11.31,0,0,1,731,799.7H375a11.31,11.31,0,0,1-11.31-11.3V258.09l39.73-39.73H702.93Z"/><rect class="cls-4" x="502.55" y="231.34" width="100.44" height="21.81" rx="10.91"/><circle class="cls-2" cx="518.58" cy="435.63" r="4.11"/><circle class="cls-5" cx="518.58" cy="435.63" r="4.11"/><circle class="cls-6" cx="518.58" cy="435.63" r="2.62"/><circle class="cls-2" cx="541" cy="435.63" r="4.11"/><circle class="cls-5" cx="541" cy="435.63" r="4.11"/><circle class="cls-6" cx="541" cy="435.63" r="2.62"/><circle class="cls-2" cx="563.43" cy="435.63" r="4.11"/><circle class="cls-5" cx="563.43" cy="435.63" r="4.11"/><circle class="cls-6" cx="563.43" cy="435.63" r="2.62"/><circle class="cls-2" cx="585.85" cy="435.63" r="4.11"/><circle class="cls-5" cx="585.85" cy="435.63" r="4.11"/><circle class="cls-6" cx="585.85" cy="435.63" r="2.62"/><circle class="cls-2" cx="530.35" cy="447.02" r="4.11"/><circle class="cls-5" cx="530.35" cy="447.02" r="4.11"/><circle class="cls-6" cx="530.35" cy="447.02" r="2.62"/><circle class="cls-2" cx="552.78" cy="447.02" r="4.11"/><circle class="cls-5" cx="552.78" cy="447.02" r="4.11"/><circle class="cls-6" cx="552.78" cy="447.02" r="2.62"/><circle class="cls-2" cx="575.2" cy="447.02" r="4.11"/><circle class="cls-5" cx="575.2" cy="447.02" r="4.11"/><circle class="cls-6" cx="575.2" cy="447.02" r="2.62"/><circle class="cls-2" cx="542.13" cy="458.42" r="4.11"/><circle class="cls-5" cx="542.13" cy="458.42" r="4.11"/><circle class="cls-6" cx="542.13" cy="458.42" r="2.62"/><circle class="cls-2" cx="564.56" cy="458.42" r="4.11"/><circle class="cls-5" cx="564.56" cy="458.42" r="4.11"/><circle class="cls-6" cx="564.56" cy="458.42" r="2.62"/><circle class="cls-2" cx="586.98" cy="458.42" r="4.11"/><circle class="cls-5" cx="586.98" cy="458.42" r="4.11"/><circle class="cls-6" cx="586.98" cy="458.42" r="2.62"/><circle class="cls-2" cx="553.91" cy="469.81" r="4.11"/><circle class="cls-5" cx="553.91" cy="469.81" r="4.11"/><circle class="cls-6" cx="553.91" cy="469.81" r="2.62"/><circle class="cls-2" cx="518.88" cy="458.49" r="4.11"/><circle class="cls-5" cx="518.88" cy="458.49" r="4.11"/><circle class="cls-6" cx="518.88" cy="458.49" r="2.62"/><circle class="cls-2" cx="530.66" cy="469.89" r="4.11"/><circle class="cls-5" cx="530.66" cy="469.89" r="4.11"/><circle class="cls-6" cx="530.66" cy="469.89" r="2.62"/><circle class="cls-2" cx="542.44" cy="481.28" r="4.11"/><circle class="cls-5" cx="542.44" cy="481.28" r="4.11"/><circle class="cls-6" cx="542.44" cy="481.28" r="2.62"/><circle class="cls-2" cx="576.33" cy="469.81" r="4.11"/><circle class="cls-5" cx="576.33" cy="469.81" r="4.11"/><circle class="cls-6" cx="576.33" cy="469.81" r="2.62"/><circle class="cls-2" cx="541.23" cy="412.84" r="4.11"/><circle class="cls-5" cx="541.23" cy="412.84" r="4.11"/><circle class="cls-6" cx="541.23" cy="412.84" r="2.62"/><circle class="cls-2" cx="563.66" cy="412.84" r="4.11"/><circle class="cls-5" cx="563.66" cy="412.84" r="4.11"/><circle class="cls-6" cx="563.66" cy="412.84" r="2.62"/><circle class="cls-2" cx="565.69" cy="481.2" r="4.11"/><circle class="cls-5" cx="565.69" cy="481.2" r="4.11"/><circle class="cls-6" cx="565.69" cy="481.2" r="2.62"/><circle class="cls-2" cx="530.59" cy="424.24" r="4.11"/><circle class="cls-5" cx="530.59" cy="424.24" r="4.11"/><circle class="cls-6" cx="530.59" cy="424.24" r="2.62"/><circle class="cls-2" cx="553.01" cy="424.24" r="4.11"/><circle class="cls-5" cx="553.01" cy="424.24" r="4.11"/><circle class="cls-6" cx="553.01" cy="424.24" r="2.62"/><circle class="cls-2" cx="575.44" cy="424.24" r="4.11"/><circle class="cls-5" cx="575.44" cy="424.24" r="4.11"/><circle class="cls-6" cx="575.44" cy="424.24" r="2.62"/><circle class="cls-7" cx="553.42" cy="447.02" r="69.8"/><circle class="cls-8" cx="553.42" cy="447.02" r="64.65"/><circle class="cls-8" cx="553.42" cy="447.02" r="61.02"/><circle class="cls-8" cx="553.42" cy="447.02" r="60.17"/><circle class="cls-8" cx="553.42" cy="447.02" r="56.38"/><circle class="cls-7" cx="553.42" cy="447.02" r="53.5"/><circle class="cls-8" cx="553.42" cy="447.02" r="44.95"/><circle class="cls-9" cx="658.42" cy="421.81" r="6.12"/><circle class="cls-9" cx="658.42" cy="438.9" r="6.12"/><circle class="cls-9" cx="658.42" cy="455.99" r="6.12"/><circle class="cls-9" cx="658.42" cy="473.09" r="6.12"/><rect class="cls-10" x="516.59" y="300.46" width="16.46" height="16.46" rx="2.25"/><circle class="cls-10" cx="552.43" cy="308.69" r="8.38"/><path class="cls-10" d="M570.94,312.63l7.29-11.26a1.55,1.55,0,0,1,2.64,0l6.76,11.29a2.4,2.4,0,0,1-2.06,3.63H573A2.39,2.39,0,0,1,570.94,312.63Z"/></g></svg>