<?xml version="1.0" encoding="UTF-8" standalone="no"?>
<svg
   viewBox="0 0 293.56501 470.885"
   version="1.1"
   id="svg207"
   sodipodi:docname="buyer benmeshtastic 2-03.svg"
   inkscape:version="1.4 (e7c3feb1, 2024-10-09)"
   width="293.565"
   height="470.88501"
   xmlns:inkscape="http://www.inkscape.org/namespaces/inkscape"
   xmlns:sodipodi="http://sodipodi.sourceforge.net/DTD/sodipodi-0.dtd"
   xmlns="http://www.w3.org/2000/svg"
   xmlns:svg="http://www.w3.org/2000/svg">
  <sodipodi:namedview
     id="namedview207"
     pagecolor="#ffffff"
     bordercolor="#000000"
     borderopacity="0.25"
     inkscape:showpageshadow="2"
     inkscape:pageopacity="0.0"
     inkscape:pagecheckerboard="0"
     inkscape:deskcolor="#d1d1d1"
     inkscape:zoom="0.96807266"
     inkscape:cx="186.96944"
     inkscape:cy="370.32344"
     inkscape:window-width="1728"
     inkscape:window-height="1056"
     inkscape:window-x="0"
     inkscape:window-y="33"
     inkscape:window-maximized="1"
     inkscape:current-layer="Layer_2" />
  <defs
     id="defs1">
    <style
       id="style1">.cls-1{fill:#474746;}.cls-2{fill:#3a3a3a;}.cls-3{fill:#202121;}.cls-4{fill:#dbdcdd;}.cls-5{fill:#cbcbcc;}.cls-11,.cls-16,.cls-18,.cls-6{fill:none;}.cls-11,.cls-16,.cls-6{stroke:#1d1d1b;stroke-linecap:round;stroke-linejoin:round;}.cls-6{stroke-width:0.95px;}.cls-7{fill:#e5e2e5;}.cls-8{fill:#444e85;}.cls-21,.cls-22,.cls-9{fill:#1d1d1b;}.cls-10{fill:#d1b066;}.cls-11{stroke-width:1.3px;}.cls-12{fill:#d8b258;}.cls-13{fill:#b28e45;}.cls-14{fill:#a6a9af;}.cls-15{fill:#d1c854;}.cls-16{stroke-width:1.01px;}.cls-17{fill:#fff;}.cls-18{stroke:#fff;stroke-miterlimit:10;}.cls-19{fill:#ba9c61;}.cls-20{fill:#715c34;}.cls-21{font-size:13.29px;}.cls-21,.cls-22{font-family:LucidaConsole, Lucida Console;}.cls-22{font-size:8.44px;}</style>
  </defs>
  <g
     id="Layer_2"
     data-name="Layer 2"
     transform="translate(-106.20269,-157.045)">
    <path
       class="cls-1"
       d="m 396.14,293.93 v 311.36 a 22,22 0 0 1 -22,22 H 128.65 a 22,22 0 0 1 -22,-22 v -225.7 a 22,22 0 0 1 22,-22 h 69.14 a 22,22 0 0 0 22,-22 v -41.6 a 22,22 0 0 1 22,-22 h 132.32 a 22,22 0 0 1 22.03,21.94 z"
       id="path1" />
    <path
       class="cls-2"
       d="m 358.92,384 a 23.67,23.67 0 0 1 23.64,23.64 v 176.6 a 23.67,23.67 0 0 1 -23.64,23.64 H 147.31 A 23.67,23.67 0 0 1 123.67,584.24 V 407.61 A 23.67,23.67 0 0 1 147.31,384 h 211.61 m 0,-5 H 147.31 a 28.64,28.64 0 0 0 -28.64,28.64 v 176.6 a 28.65,28.65 0 0 0 28.64,28.64 h 211.61 a 28.64,28.64 0 0 0 28.64,-28.64 V 407.61 A 28.64,28.64 0 0 0 358.92,379 Z"
       id="path2" />
    <rect
       class="cls-2"
       x="237.61"
       y="284.09"
       width="139.52"
       height="79.300003"
       rx="8.3900003"
       id="rect2" />
    <rect
       class="cls-3"
       x="244.67999"
       y="289.66"
       width="125.32"
       height="67.370003"
       rx="2"
       id="rect3" />
    <path
       class="cls-2"
       d="M 151.55,352.34 H 194 a 3.83,3.83 0 0 1 3.83,3.83 v 1.39 h -50.11 v -1.39 a 3.83,3.83 0 0 1 3.83,-3.83 z"
       id="path3" />
    <path
       class="cls-1"
       d="m 240,272 a 3,3 0 0 1 3,-2.69 h 24.48 a 3,3 0 0 1 3,2.61 L 240.25,272"
       id="path4" />
    <path
       class="cls-4"
       d="m 353.11,172.61 a 54.23,54.23 0 0 0 -32.38,-10.67 h -49 a 54.49,54.49 0 0 0 -54.49,54.48 V 282 h -5.21 v -70 a 54.49,54.49 0 0 1 54.49,-54.48 h 49 a 54.24,54.24 0 0 1 37.59,15.09 z"
       id="path5" />
    <path
       class="cls-5"
       d="m 370,212 v 51.84 h -21.49 l -9.24,-46.17 V 209 A 19.5,19.5 0 0 0 319.79,189.52 H 260.87 A 19.48,19.48 0 0 0 241.39,209 v 60.74 c -1.23,0.56 -0.86,2.13 -0.86,2.13 l -6.91,1.75 c -5.66,1.43 -7.63,4.78 -9.44,7 -1.81,2.22 -2,1.41 -2,1.41 h -4.89 v -65.61 a 54.49,54.49 0 0 1 54.49,-54.48 h 49 a 54.23,54.23 0 0 1 32.38,10.67 v 0 A 54.3,54.3 0 0 1 370,212 Z"
       id="path6" />
    <path
       class="cls-6"
       d="m 396.42,323.74 h 1.21 a 1.46,1.46 0 0 1 1.46,1.46 v 2.17 a 1.46,1.46 0 0 1 -1.46,1.46 h -1.21 z"
       id="path7" />
    <path
       class="cls-2"
       d="M 329.33,586.79 H 198 A 24.51,24.51 0 0 1 173.52,562.31 V 429 A 24.5,24.5 0 0 1 198,404.51 H 329.33 A 24.49,24.49 0 0 1 353.8,429 v 133.31 a 24.5,24.5 0 0 1 -24.47,24.48 z m -128.81,-27 H 326.8 V 431.51 H 200.52 Z"
       id="path8" />
    <rect
       class="cls-7"
       x="187.02"
       y="418.01001"
       width="153.28"
       height="155.27"
       rx="10.97"
       id="rect8" />
    <path
       class="cls-3"
       d="m 166.62,386.56 a 12.85,12.85 0 1 0 12.86,12.85 12.85,12.85 0 0 0 -12.86,-12.85 z m 0,21 a 8.15,8.15 0 1 1 8.15,-8.15 8.14,8.14 0 0 1 -8.15,8.15 z"
       id="path9" />
    <path
       class="cls-2"
       d="m 174.77,399.41 a 8.15,8.15 0 1 1 -8.15,-8.15 8.15,8.15 0 0 1 8.15,8.15 z"
       id="path10" />
    <path
       class="cls-3"
       d="m 359.9,386.56 a 12.85,12.85 0 1 0 12.86,12.85 12.85,12.85 0 0 0 -12.86,-12.85 z m 0,21 a 8.15,8.15 0 1 1 8.15,-8.15 8.14,8.14 0 0 1 -8.15,8.15 z"
       id="path11" />
    <path
       class="cls-2"
       d="m 368.05,399.41 a 8.15,8.15 0 1 1 -8.15,-8.15 8.15,8.15 0 0 1 8.15,8.15 z"
       id="path12" />
    <path
       class="cls-3"
       d="m 359.9,579.56 a 12.86,12.86 0 1 0 12.86,12.85 12.85,12.85 0 0 0 -12.86,-12.85 z m 0,21 a 8.15,8.15 0 1 1 8.15,-8.15 8.14,8.14 0 0 1 -8.15,8.15 z"
       id="path13" />
    <path
       class="cls-2"
       d="m 368.05,592.41 a 8.15,8.15 0 1 1 -8.15,-8.14 8.15,8.15 0 0 1 8.15,8.14 z"
       id="path14" />
    <path
       class="cls-3"
       d="m 166.62,579.56 a 12.86,12.86 0 1 0 12.86,12.85 12.86,12.86 0 0 0 -12.86,-12.85 z m 0,21 a 8.15,8.15 0 1 1 8.15,-8.15 8.14,8.14 0 0 1 -8.15,8.15 z"
       id="path15" />
    <path
       class="cls-2"
       d="m 174.77,592.41 a 8.15,8.15 0 1 1 -8.15,-8.14 8.15,8.15 0 0 1 8.15,8.14 z"
       id="path16" />
    <path
       class="cls-8"
       d="m 253.12,315.37 h 5.46 v 15.27 h 8.51 v 5 h -14 z"
       id="path17" />
    <path
       class="cls-8"
       d="m 269.79,315.37 h 5.48 v 20.25 h -5.48 z"
       id="path18" />
    <path
       class="cls-8"
       d="m 279.18,315.37 h 5.46 v 15.27 h 8.52 v 5 h -14 z"
       id="path19" />
    <path
       class="cls-8"
       d="m 292,315.37 h 6 l 3.56,6.84 3.56,-6.84 h 6 l -6.87,11.77 v 8.48 h -5.47 v -8.48 z"
       id="path20" />
    <path
       class="cls-8"
       d="m 320.33,328.29 v -4.21 h 8.44 v 8.63 a 16.91,16.91 0 0 1 -4.28,2.58 13,13 0 0 1 -4.42,0.68 9.6,9.6 0 0 1 -5.13,-1.23 8,8 0 0 1 -3.07,-3.66 13.45,13.45 0 0 1 -1.09,-5.58 13.15,13.15 0 0 1 1.19,-5.77 8.3,8.3 0 0 1 3.5,-3.72 10,10 0 0 1 4.83,-1 11.86,11.86 0 0 1 4.38,0.61 5.69,5.69 0 0 1 2.41,1.88 8.8,8.8 0 0 1 1.44,3.24 l -5.27,1.08 a 3.24,3.24 0 0 0 -1.1,-1.76 3.15,3.15 0 0 0 -2,-0.6 3.36,3.36 0 0 0 -2.86,1.43 7.54,7.54 0 0 0 -1.07,4.52 c 0,2.19 0.36,3.76 1.08,4.7 a 3.57,3.57 0 0 0 3,1.41 5.11,5.11 0 0 0 1.75,-0.31 9.16,9.16 0 0 0 1.91,-1 v -1.91 z"
       id="path21" />
    <path
       class="cls-8"
       d="m 331.32,325.51 c 0,-3.3 0.81,-5.88 2.41,-7.72 a 8.46,8.46 0 0 1 6.72,-2.76 8.55,8.55 0 0 1 6.79,2.71 q 2.38,2.72 2.39,7.61 a 14.13,14.13 0 0 1 -1,5.82 8.19,8.19 0 0 1 -3,3.54 8.93,8.93 0 0 1 -4.91,1.26 10,10 0 0 1 -4.94,-1.09 8,8 0 0 1 -3.18,-3.45 12.89,12.89 0 0 1 -1.28,-5.92 z m 5.46,0 a 7.49,7.49 0 0 0 1,4.41 3.44,3.44 0 0 0 5.43,0 q 1,-1.31 1,-4.71 a 6.89,6.89 0 0 0 -1,-4.17 3.25,3.25 0 0 0 -2.73,-1.32 3.13,3.13 0 0 0 -2.65,1.34 7.6,7.6 0 0 0 -1.05,4.48 z"
       id="path22" />
    <path
       class="cls-8"
       d="m 356,322.64 v -4.46 h 1.89 a 3.22,3.22 0 0 1 1,0.12 1,1 0 0 1 0.52,0.43 1.3,1.3 0 0 1 0.2,0.7 1.18,1.18 0 0 1 -0.3,0.83 1.44,1.44 0 0 1 -0.88,0.42 2,2 0 0 1 0.48,0.37 5,5 0 0 1 0.51,0.72 l 0.55,0.87 h -1.08 l -0.65,-1 a 8,8 0 0 0 -0.47,-0.65 0.82,0.82 0 0 0 -0.28,-0.19 1.54,1.54 0 0 0 -0.45,-0.05 h -0.18 v 1.86 z m 0.9,-2.57 h 0.66 a 3.91,3.91 0 0 0 0.81,-0.05 0.51,0.51 0 0 0 0.26,-0.19 0.59,0.59 0 0 0 0.09,-0.34 0.52,0.52 0 0 0 -0.12,-0.36 0.62,0.62 0 0 0 -0.34,-0.18 h -1.36 z"
       id="path23" />
    <path
       class="cls-8"
       d="m 357.66,326.28 a 5.71,5.71 0 1 1 5.71,-5.71 5.71,5.71 0 0 1 -5.71,5.71 z m 0,-10.12 a 4.42,4.42 0 1 0 4.41,4.41 4.41,4.41 0 0 0 -4.41,-4.41 z"
       id="path24" />
    <path
       class="cls-9"
       d="m 135.34,431.15 h 25.89 v 5.73 h -21.49 v 14.25 h -4.4 z"
       id="path25" />
    <path
       class="cls-9"
       d="m 135.34,455 h 26.1 v 5.73 h -26.1 z"
       id="path26" />
    <path
       class="cls-9"
       d="m 135.34,466.39 h 25.89 v 5.73 h -21.49 v 14.25 h -4.4 z"
       id="path27" />
    <path
       class="cls-9"
       d="m 135.34,494.27 h 11 l 15.11,-10.4 v 6.72 l -10.32,6.68 10.32,6.55 v 6.6 L 146.29,500 h -10.95 z"
       id="path28" />
    <path
       class="cls-9"
       d="m 144.94,526.48 h 4.4 v 12.35 h -10.4 a 15.78,15.78 0 0 1 -2.82,-5.22 20.31,20.31 0 0 1 -1.22,-6.92 16.61,16.61 0 0 1 1.72,-7.77 11.34,11.34 0 0 1 4.91,-5 14.83,14.83 0 0 1 6.95,-1.67 14,14 0 0 1 7.25,1.86 12.12,12.12 0 0 1 4.86,5.44 15.74,15.74 0 0 1 1.3,6.8 q 0,5.28 -2,8.26 a 9.16,9.16 0 0 1 -5.64,3.82 l -1,-5.69 a 5.51,5.51 0 0 0 3,-2.26 7.25,7.25 0 0 0 1.11,-4.13 8.14,8.14 0 0 0 -2.19,-6 q -2.19,-2.21 -6.49,-2.21 c -3.1,0 -5.43,0.75 -7,2.24 a 7.82,7.82 0 0 0 -2.33,5.89 10.72,10.72 0 0 0 0.65,3.61 12.93,12.93 0 0 0 1.58,3.11 h 3.31 z"
       id="path29" />
    <path
       class="cls-9"
       d="m 148.23,543 a 15.54,15.54 0 0 1 6.7,1.3 12.53,12.53 0 0 1 3.58,2.64 11.41,11.41 0 0 1 2.35,3.67 17,17 0 0 1 1,6.12 q 0,6.27 -3.58,10 -3.58,3.73 -9.95,3.77 -6.33,0 -9.89,-3.74 -3.56,-3.74 -3.57,-10 0,-6.33 3.55,-10.07 3.55,-3.74 9.81,-3.69 z m 0.18,5.91 c -2.95,0 -5.2,0.74 -6.72,2.23 a 8.12,8.12 0 0 0 0,11.28 q 2.28,2.19 6.81,2.19 4.53,0 6.7,-2.14 a 8.43,8.43 0 0 0 0,-11.39 q -2.28,-2.22 -6.79,-2.22 z"
       id="path30" />
    <path
       class="cls-1"
       d="m 384.27,274.39 v -3.8 a 6.7,6.7 0 0 0 -6.71,-6.71 h -73.09 a 6.7,6.7 0 0 0 -6.71,6.71 v 1.31 c 0,0 74.61,0 76.35,0 0.32,0 6.89,-0.2 10.16,2.49 z"
       id="path67" />
    <path
       class="cls-15"
       d="m 223.32,282 a 21.84,21.84 0 0 0 -3.5,11.91 v 41.6 a 21.88,21.88 0 0 1 -3,11 L 204.7,339.3 a 8,8 0 0 1 -3.9,-6.86 V 290 a 8,8 0 0 1 8,-8 z"
       id="path68" />
    <path
       class="cls-2"
       d="m 374.11,275.9 a 18,18 0 0 1 18,18 v 311.39 a 18.05,18.05 0 0 1 -18,18 H 128.65 a 18.05,18.05 0 0 1 -18,-18 v -225.7 a 18,18 0 0 1 18,-18 h 69.14 a 26.05,26.05 0 0 0 26,-26 v -41.6 a 18,18 0 0 1 18,-18 h 132.32 m 0,-4 H 241.85 a 22,22 0 0 0 -22,22 v 41.6 a 22,22 0 0 1 -22,22 h -69.2 a 22,22 0 0 0 -22,22 v 225.7 a 22,22 0 0 0 22,22 h 245.46 a 22,22 0 0 0 22,-22 V 293.93 a 22,22 0 0 0 -22,-22 z"
       id="path69" />
  </g>
  <g
     id="Layer_7"
     data-name="Layer 7"
     transform="translate(-106,-157.045)">
    <path
       class="cls-11"
       d="m 396.14,293.93 v 311.35 a 22,22 0 0 1 -22,22 H 128.65 a 22,22 0 0 1 -22,-22 V 379.59 a 22,22 0 0 1 22,-22 h 69.14 a 22,22 0 0 0 22,-22 v -41.66 a 22,22 0 0 1 22,-22 h 132.32 a 22,22 0 0 1 22.03,22 z"
       id="path70" />
    <rect
       class="cls-11"
       x="118.67"
       y="378.97"
       width="268.88"
       height="233.91"
       rx="28.639999"
       id="rect70" />
    <rect
       class="cls-11"
       x="237.61"
       y="284.09"
       width="139.52"
       height="79.300003"
       rx="8.3900003"
       id="rect71" />
    <rect
       class="cls-11"
       x="244.67999"
       y="289.66"
       width="125.32"
       height="67.370003"
       rx="2"
       id="rect72" />
    <path
       class="cls-11"
       d="M 151.55,352.34 H 194 a 3.83,3.83 0 0 1 3.83,3.83 v 1.39 h -50.11 v -1.39 a 3.83,3.83 0 0 1 3.83,-3.83 z"
       id="path72" />
    <path
       class="cls-16"
       d="m 240,272 a 3,3 0 0 1 3,-2.69 h 24.48 a 3,3 0 0 1 3,2.61"
       id="path73" />
    <rect
       class="cls-10"
       x="322.39001"
       y="253.42999"
       width="37.77"
       height="10.45"
       id="rect73" />
    <path
       class="cls-10"
       d="m 328.2,250.81 -1,0.64 a 0.68,0.68 0 0 0 0,1.16 l 1,0.63 26.39,0.1 1,-0.64 a 0.69,0.69 0 0 0 0,-1.16 l -1,-0.64"
       id="path74" />
    <path
       class="cls-10"
       d="m 328.2,248.28 -1,0.64 a 0.68,0.68 0 0 0 0,1.16 l 1,0.63 26.39,0.1 1,-0.64 a 0.69,0.69 0 0 0 0,-1.16 l -1,-0.64"
       id="path75" />
    <path
       class="cls-10"
       d="m 328.2,245.75 -1,0.64 a 0.68,0.68 0 0 0 0,1.16 l 1,0.64 26.39,0.09 1,-0.64 a 0.69,0.69 0 0 0 0,-1.16 l -1,-0.64"
       id="path76" />
    <path
       class="cls-10"
       d="m 328.2,243.22 -1,0.64 a 0.68,0.68 0 0 0 0,1.16 l 1,0.64 26.39,0.09 1,-0.64 a 0.68,0.68 0 0 0 0,-1.15 l -1,-0.64"
       id="path77" />
    <path
       class="cls-10"
       d="m 328.2,240.69 -1,0.64 a 0.68,0.68 0 0 0 0,1.16 l 1,0.64 26.39,0.09 1,-0.64 a 0.68,0.68 0 0 0 0,-1.15 l -1,-0.64"
       id="path78" />
    <path
       class="cls-10"
       d="m 328.2,238.17 -1,0.64 a 0.67,0.67 0 0 0 0,1.15 l 1,0.64 26.39,0.09 1,-0.63 a 0.69,0.69 0 0 0 0,-1.16 l -1,-0.64"
       id="path79" />
    <path
       class="cls-10"
       d="m 328.2,235.64 -1,0.64 a 0.67,0.67 0 0 0 0,1.15 l 1,0.64 26.39,0.1 1,-0.64 a 0.69,0.69 0 0 0 0,-1.16 l -1,-0.64"
       id="path80" />
    <path
       class="cls-10"
       d="m 328.2,233.11 -1,0.64 a 0.68,0.68 0 0 0 0,1.16 l 1,0.63 26.39,0.1 1,-0.64 a 0.69,0.69 0 0 0 0,-1.16 l -1,-0.64"
       id="path81" />
    <path
       class="cls-10"
       d="m 328.2,230.58 -1,0.64 a 0.68,0.68 0 0 0 0,1.16 l 1,0.64 26.39,0.09 1,-0.64 a 0.69,0.69 0 0 0 0,-1.16 l -1,-0.64"
       id="path82" />
    <path
       class="cls-10"
       d="m 328.2,228.05 -1,0.64 a 0.68,0.68 0 0 0 0,1.16 l 1,0.64 26.39,0.09 1,-0.64 a 0.68,0.68 0 0 0 0,-1.15 l -1,-0.64"
       id="path83" />
    <path
       class="cls-10"
       d="m 328.2,225.52 -1,0.64 a 0.68,0.68 0 0 0 0,1.16 l 1,0.64 26.39,0.09 1,-0.64 a 0.68,0.68 0 0 0 0,-1.15 l -1,-0.64"
       id="path84" />
    <path
       class="cls-10"
       d="m 328.2,223 -1,0.64 a 0.67,0.67 0 0 0 0,1.15 l 1,0.64 26.39,0.09 1,-0.63 a 0.69,0.69 0 0 0 0,-1.16 l -1,-0.64"
       id="path85" />
    <rect
       class="cls-10"
       x="328.20001"
       y="217.71001"
       width="26.27"
       height="4.9099998"
       id="rect85" />
    <rect
       class="cls-11"
       x="322.63"
       y="253.42999"
       width="18.77"
       height="10.45"
       id="rect86" />
    <rect
       class="cls-11"
       x="341.39999"
       y="253.42999"
       width="18.77"
       height="10.45"
       id="rect87" />
    <rect
       class="cls-6"
       x="328.20001"
       y="217.71001"
       width="26.27"
       height="5.29"
       id="rect88" />
    <path
       class="cls-6"
       d="m 328.2,250.81 -1,0.64 a 0.68,0.68 0 0 0 0,1.16 l 1,0.63 26.39,0.1 1,-0.64 a 0.69,0.69 0 0 0 0,-1.16 l -1,-0.64"
       id="path88" />
    <path
       class="cls-6"
       d="m 328.2,248.28 -1,0.64 a 0.68,0.68 0 0 0 0,1.16 l 1,0.63 26.39,0.1 1,-0.64 a 0.69,0.69 0 0 0 0,-1.16 l -1,-0.64"
       id="path89" />
    <path
       class="cls-6"
       d="m 328.2,245.75 -1,0.64 a 0.68,0.68 0 0 0 0,1.16 l 1,0.64 26.39,0.09 1,-0.64 a 0.69,0.69 0 0 0 0,-1.16 l -1,-0.64"
       id="path90" />
    <path
       class="cls-6"
       d="m 328.2,243.22 -1,0.64 a 0.68,0.68 0 0 0 0,1.16 l 1,0.64 26.39,0.09 1,-0.64 a 0.68,0.68 0 0 0 0,-1.15 l -1,-0.64"
       id="path91" />
    <path
       class="cls-6"
       d="m 328.2,240.69 -1,0.64 a 0.68,0.68 0 0 0 0,1.16 l 1,0.64 26.39,0.09 1,-0.64 a 0.68,0.68 0 0 0 0,-1.15 l -1,-0.64"
       id="path92" />
    <path
       class="cls-6"
       d="m 328.2,238.17 -1,0.64 a 0.67,0.67 0 0 0 0,1.15 l 1,0.64 26.39,0.09 1,-0.63 a 0.69,0.69 0 0 0 0,-1.16 l -1,-0.64"
       id="path93" />
    <path
       class="cls-6"
       d="m 328.2,235.64 -1,0.64 a 0.67,0.67 0 0 0 0,1.15 l 1,0.64 26.39,0.1 1,-0.64 a 0.69,0.69 0 0 0 0,-1.16 l -1,-0.64"
       id="path94" />
    <path
       class="cls-6"
       d="m 328.2,233.11 -1,0.64 a 0.68,0.68 0 0 0 0,1.16 l 1,0.63 26.39,0.1 1,-0.64 a 0.69,0.69 0 0 0 0,-1.16 l -1,-0.64"
       id="path95" />
    <path
       class="cls-6"
       d="m 328.2,230.58 -1,0.64 a 0.68,0.68 0 0 0 0,1.16 l 1,0.64 26.39,0.09 1,-0.64 a 0.69,0.69 0 0 0 0,-1.16 l -1,-0.64"
       id="path96" />
    <path
       class="cls-6"
       d="m 328.2,228.05 -1,0.64 a 0.68,0.68 0 0 0 0,1.16 l 1,0.64 26.39,0.09 1,-0.64 a 0.68,0.68 0 0 0 0,-1.15 l -1,-0.64"
       id="path97" />
    <path
       class="cls-6"
       d="m 328.2,225.52 -1,0.64 a 0.68,0.68 0 0 0 0,1.16 l 1,0.64 26.39,0.09 1,-0.64 a 0.68,0.68 0 0 0 0,-1.15 l -1,-0.64"
       id="path98" />
    <path
       class="cls-6"
       d="m 328.2,223 -1,0.64 a 0.67,0.67 0 0 0 0,1.15 l 1,0.64 26.39,0.09 1,-0.63 a 0.69,0.69 0 0 0 0,-1.16 l -1,-0.64"
       id="path99" />
    <path
       class="cls-11"
       d="m 384.27,274.39 v 0 -3.79 a 6.7,6.7 0 0 0 -6.71,-6.71 h -73.09 a 6.7,6.7 0 0 0 -6.71,6.71 v 1.31"
       id="path100" />
    <path
       class="cls-11"
       d="m 223.32,282 h -14.53 a 8,8 0 0 0 -8,8 v 42.43 a 8,8 0 0 0 3.9,6.86 l 12.16,7.25"
       id="path101" />
    <path
       class="cls-6"
       d="m 212.06,282 v -70 a 54.49,54.49 0 0 1 54.49,-54.48 h 49 A 54.48,54.48 0 0 1 370,212 v 51.84"
       id="path102" />
    <path
       class="cls-6"
       d="M 241.39,269.77 V 209 a 19.48,19.48 0 0 1 19.48,-19.48 h 58.92 A 19.48,19.48 0 0 1 339.27,209 v 8.68"
       id="path103" />
    <path
       class="cls-6"
       d="m 396.42,323.74 h 1.21 a 1.46,1.46 0 0 1 1.46,1.46 v 2.17 a 1.46,1.46 0 0 1 -1.46,1.46 h -1.21 z"
       id="path104" />
    <rect
       class="cls-6"
       x="187.02"
       y="418.01001"
       width="153.28"
       height="155.27"
       rx="10.97"
       id="rect104" />
    <circle
       class="cls-6"
       cx="166.62"
       cy="399.41"
       r="8.1499996"
       id="circle140" />
    <circle
       class="cls-6"
       cx="166.62"
       cy="399.41"
       r="12.85"
       id="circle141" />
    <circle
       class="cls-6"
       cx="359.89999"
       cy="399.41"
       r="8.1499996"
       id="circle142" />
    <circle
       class="cls-6"
       cx="359.89999"
       cy="399.41"
       r="12.85"
       id="circle143" />
    <circle
       class="cls-6"
       cx="359.89999"
       cy="592.40997"
       r="8.1499996"
       id="circle144" />
    <circle
       class="cls-6"
       cx="359.89999"
       cy="592.40997"
       r="12.85"
       id="circle145" />
    <circle
       class="cls-6"
       cx="166.62"
       cy="592.40997"
       r="8.1499996"
       id="circle146" />
    <circle
       class="cls-6"
       cx="166.62"
       cy="592.40997"
       r="12.85"
       id="circle147" />
    <path
       class="cls-8"
       d="m 253.12,315.37 h 5.46 v 15.27 h 8.51 v 5 h -14 z"
       id="path147" />
    <path
       class="cls-8"
       d="m 269.79,315.37 h 5.48 v 20.25 h -5.48 z"
       id="path148" />
    <path
       class="cls-8"
       d="m 279.18,315.37 h 5.46 v 15.27 h 8.52 v 5 h -14 z"
       id="path149" />
    <path
       class="cls-8"
       d="m 292,315.37 h 6 l 3.56,6.84 3.56,-6.84 h 6 l -6.87,11.77 v 8.48 h -5.47 v -8.48 z"
       id="path150" />
    <path
       class="cls-8"
       d="m 320.33,328.29 v -4.21 h 8.44 v 8.63 a 16.91,16.91 0 0 1 -4.28,2.58 13,13 0 0 1 -4.42,0.68 9.6,9.6 0 0 1 -5.13,-1.23 8,8 0 0 1 -3.07,-3.66 13.45,13.45 0 0 1 -1.09,-5.58 13.15,13.15 0 0 1 1.19,-5.77 8.3,8.3 0 0 1 3.5,-3.72 10,10 0 0 1 4.83,-1 11.86,11.86 0 0 1 4.38,0.61 5.69,5.69 0 0 1 2.41,1.88 8.8,8.8 0 0 1 1.44,3.24 l -5.27,1.08 a 3.24,3.24 0 0 0 -1.1,-1.76 3.15,3.15 0 0 0 -2,-0.6 3.36,3.36 0 0 0 -2.86,1.43 7.54,7.54 0 0 0 -1.07,4.52 c 0,2.19 0.36,3.76 1.08,4.7 a 3.57,3.57 0 0 0 3,1.41 5.11,5.11 0 0 0 1.75,-0.31 9.16,9.16 0 0 0 1.91,-1 v -1.91 z"
       id="path151" />
    <path
       class="cls-8"
       d="m 331.32,325.51 c 0,-3.3 0.81,-5.88 2.41,-7.72 a 8.46,8.46 0 0 1 6.72,-2.76 8.55,8.55 0 0 1 6.79,2.71 q 2.38,2.72 2.39,7.61 a 14.13,14.13 0 0 1 -1,5.82 8.19,8.19 0 0 1 -3,3.54 8.93,8.93 0 0 1 -4.91,1.26 10,10 0 0 1 -4.94,-1.09 8,8 0 0 1 -3.18,-3.45 12.89,12.89 0 0 1 -1.28,-5.92 z m 5.46,0 a 7.49,7.49 0 0 0 1,4.41 3.44,3.44 0 0 0 5.43,0 q 1,-1.31 1,-4.71 a 6.89,6.89 0 0 0 -1,-4.17 3.25,3.25 0 0 0 -2.73,-1.32 3.13,3.13 0 0 0 -2.65,1.34 7.6,7.6 0 0 0 -1.05,4.48 z"
       id="path152" />
    <path
       class="cls-8"
       d="m 356,322.64 v -4.46 h 1.89 a 3.22,3.22 0 0 1 1,0.12 1,1 0 0 1 0.52,0.43 1.3,1.3 0 0 1 0.2,0.7 1.18,1.18 0 0 1 -0.3,0.83 1.44,1.44 0 0 1 -0.88,0.42 2,2 0 0 1 0.48,0.37 5,5 0 0 1 0.51,0.72 l 0.55,0.87 h -1.08 l -0.65,-1 a 8,8 0 0 0 -0.47,-0.65 0.82,0.82 0 0 0 -0.28,-0.19 1.54,1.54 0 0 0 -0.45,-0.05 h -0.18 v 1.86 z m 0.9,-2.57 h 0.66 a 3.91,3.91 0 0 0 0.81,-0.05 0.51,0.51 0 0 0 0.26,-0.19 0.59,0.59 0 0 0 0.09,-0.34 0.52,0.52 0 0 0 -0.12,-0.36 0.62,0.62 0 0 0 -0.34,-0.18 h -1.36 z"
       id="path153" />
    <path
       class="cls-8"
       d="m 357.66,326.28 a 5.71,5.71 0 1 1 5.71,-5.71 5.71,5.71 0 0 1 -5.71,5.71 z m 0,-10.12 a 4.42,4.42 0 1 0 4.41,4.41 4.41,4.41 0 0 0 -4.41,-4.41 z"
       id="path154" />
    <path
       class="cls-3"
       d="m 135.34,431.15 h 25.89 v 5.73 h -21.49 v 14.25 h -4.4 z"
       id="path155" />
    <path
       class="cls-3"
       d="m 135.34,455 h 26.1 v 5.73 h -26.1 z"
       id="path156" />
    <path
       class="cls-3"
       d="m 135.34,466.39 h 25.89 v 5.73 h -21.49 v 14.25 h -4.4 z"
       id="path157" />
    <path
       class="cls-3"
       d="m 135.34,494.27 h 11 l 15.11,-10.4 v 6.72 l -10.32,6.68 10.32,6.55 v 6.6 L 146.29,500 h -10.95 z"
       id="path158" />
    <path
       class="cls-3"
       d="m 144.94,526.48 h 4.4 v 12.35 h -10.4 a 15.78,15.78 0 0 1 -2.82,-5.22 20.31,20.31 0 0 1 -1.22,-6.92 16.61,16.61 0 0 1 1.72,-7.77 11.34,11.34 0 0 1 4.91,-5 14.83,14.83 0 0 1 6.95,-1.67 14,14 0 0 1 7.25,1.86 12.12,12.12 0 0 1 4.86,5.44 15.74,15.74 0 0 1 1.3,6.8 q 0,5.28 -2,8.26 a 9.16,9.16 0 0 1 -5.64,3.82 l -1,-5.69 a 5.51,5.51 0 0 0 3,-2.26 7.25,7.25 0 0 0 1.11,-4.13 8.14,8.14 0 0 0 -2.19,-6 q -2.19,-2.21 -6.49,-2.21 c -3.1,0 -5.43,0.75 -7,2.24 a 7.82,7.82 0 0 0 -2.33,5.89 10.72,10.72 0 0 0 0.65,3.61 12.93,12.93 0 0 0 1.58,3.11 h 3.31 z"
       id="path159" />
    <path
       class="cls-3"
       d="m 148.23,543 a 15.54,15.54 0 0 1 6.7,1.3 12.53,12.53 0 0 1 3.58,2.64 11.41,11.41 0 0 1 2.35,3.67 17,17 0 0 1 1,6.12 q 0,6.27 -3.58,10 -3.58,3.73 -9.95,3.77 -6.33,0 -9.89,-3.74 -3.56,-3.74 -3.57,-10 0,-6.33 3.55,-10.07 3.55,-3.74 9.81,-3.69 z m 0.18,5.91 c -2.95,0 -5.2,0.74 -6.72,2.23 a 8.12,8.12 0 0 0 0,11.28 q 2.28,2.19 6.81,2.19 4.53,0 6.7,-2.14 a 8.43,8.43 0 0 0 0,-11.39 q -2.28,-2.22 -6.79,-2.22 z"
       id="path160" />
  </g>
</svg>
