<?xml version="1.0" encoding="UTF-8" standalone="no"?>
<svg
   viewBox="0 0 335.7 620.90996"
   version="1.1"
   id="svg73"
   sodipodi:docname="t5s3_epaper.svg"
   width="335.70001"
   height="620.90997"
   inkscape:version="1.4 (e7c3feb1, 2024-10-09)"
   xmlns:inkscape="http://www.inkscape.org/namespaces/inkscape"
   xmlns:sodipodi="http://sodipodi.sourceforge.net/DTD/sodipodi-0.dtd"
   xmlns="http://www.w3.org/2000/svg"
   xmlns:svg="http://www.w3.org/2000/svg">
  <sodipodi:namedview
     id="namedview73"
     pagecolor="#ffffff"
     bordercolor="#000000"
     borderopacity="0.25"
     inkscape:showpageshadow="2"
     inkscape:pageopacity="0.0"
     inkscape:pagecheckerboard="0"
     inkscape:deskcolor="#d1d1d1"
     inkscape:zoom="1.4073647"
     inkscape:cx="35.527395"
     inkscape:cy="558.84592"
     inkscape:window-width="1728"
     inkscape:window-height="1056"
     inkscape:window-x="0"
     inkscape:window-y="33"
     inkscape:window-maximized="1"
     inkscape:current-layer="Layer_2" />
  <defs
     id="defs1">
    <style
       id="style1">.cls-1{fill:#757a83;}.cls-2{fill:#c9d3d3;}.cls-3{fill:#bbbbb8;}.cls-4{fill:#1d1d1b;}.cls-5,.cls-6{fill:none;stroke:#1d1d1b;stroke-miterlimit:10;}.cls-5{stroke-width:1.4px;}.cls-7{fill:#dee5e7;}</style>
  </defs>
  <g
     id="Layer_2"
     data-name="Layer 2"
     transform="translate(-273.95,-119.37)">
    <path
       class="cls-1"
       d="M 609.15,682.1 V 177.54 A 57.75,57.75 0 0 0 551.47,119.86 H 332.13 a 57.75,57.75 0 0 0 -57.68,57.68 V 682.1 a 57.75,57.75 0 0 0 57.68,57.68 h 219.34 a 57.75,57.75 0 0 0 57.68,-57.68 z m -277,51.68 A 51.74,51.74 0 0 1 280.47,682.1 V 177.54 a 51.74,51.74 0 0 1 51.68,-51.68 h 219.32 a 51.74,51.74 0 0 1 51.68,51.68 V 682.1 a 51.74,51.74 0 0 1 -51.68,51.68 z"
       id="path1" />
    <path
       class="cls-2"
       d="M 603.15,682.1 V 177.54 A 51.74,51.74 0 0 0 551.47,125.86 H 332.13 a 51.74,51.74 0 0 0 -51.68,51.68 V 682.1 a 51.74,51.74 0 0 0 51.68,51.68 H 551.47 A 51.74,51.74 0 0 0 603.15,682.1 Z M 300.09,670.67 V 172.31 h 282.64 v 498.36 z"
       id="path2" />
    <rect
       class="cls-3"
       x="300.09"
       y="172.31"
       width="282.64001"
       height="498.35999"
       id="rect2" />
    <rect
       class="cls-6"
       x="192.22"
       y="280.17001"
       width="498.37"
       height="282.64001"
       transform="rotate(90,441.405,421.495)"
       id="rect71" />
    <path
       class="cls-6"
       d="M 274.45,682.1 V 177.54 a 57.73,57.73 0 0 1 57.67,-57.67 h 219.35 a 57.74,57.74 0 0 1 57.68,57.67 V 682.1 a 57.75,57.75 0 0 1 -57.68,57.68 H 332.12 A 57.74,57.74 0 0 1 274.45,682.1 Z M 603.15,177.54 A 51.74,51.74 0 0 0 551.47,125.87 H 332.12 a 51.73,51.73 0 0 0 -51.67,51.67 V 682.1 a 51.73,51.73 0 0 0 51.67,51.68 h 219.35 a 51.74,51.74 0 0 0 51.68,-51.68 z"
       id="path72" />
    <path
       class="cls-7"
       d="m 461.28,695.09 a 21.39,21.39 0 1 0 -21.38,21.38 21.38,21.38 0 0 0 21.38,-21.38 z m -37.21,0 a 15.83,15.83 0 1 1 15.83,15.83 15.82,15.82 0 0 1 -15.83,-15.83 z"
       id="path73" />
  </g>
</svg>
