<?xml version="1.0" encoding="UTF-8" standalone="no"?>
<svg
   viewBox="0 0 528.72997 810.00002"
   version="1.1"
   id="svg154"
   sodipodi:docname="thinknode_m7.svg"
   width="528.72998"
   height="810"
   inkscape:version="1.4 (e7c3feb1, 2024-10-09)"
   xmlns:inkscape="http://www.inkscape.org/namespaces/inkscape"
   xmlns:sodipodi="http://sodipodi.sourceforge.net/DTD/sodipodi-0.dtd"
   xmlns="http://www.w3.org/2000/svg"
   xmlns:svg="http://www.w3.org/2000/svg">
  <sodipodi:namedview
     id="namedview154"
     pagecolor="#ffffff"
     bordercolor="#000000"
     borderopacity="0.25"
     inkscape:showpageshadow="2"
     inkscape:pageopacity="0.0"
     inkscape:pagecheckerboard="0"
     inkscape:deskcolor="#d1d1d1"
     inkscape:zoom="0.60296902"
     inkscape:cx="293.54742"
     inkscape:cy="485.09955"
     inkscape:window-width="1728"
     inkscape:window-height="1056"
     inkscape:window-x="0"
     inkscape:window-y="33"
     inkscape:window-maximized="1"
     inkscape:current-layer="svg154" />
  <defs
     id="defs1">
    <style
       id="style1">.cls-1{fill:#3f3f3f;}.cls-2{fill:#2d2d2d;}.cls-3{fill:#515151;}.cls-4{fill:#f4cd75;}.cls-5{fill:#e9484a;}.cls-6{fill:#4379bd;}.cls-7{fill:#7bb929;}.cls-8,.cls-9{fill:none;stroke:#000;stroke-miterlimit:10;}.cls-8{stroke-width:1.57px;}.cls-9{stroke-width:0.75px;}.cls-10{fill:#fff;}</style>
  </defs>
  <g
     id="Layer_7"
     data-name="Layer 7"
     transform="translate(-229.415,-91.074997)">
    <path
       class="cls-1"
       d="m 436.5,145.24 a 5.49,5.49 0 0 1 1.08,-0.11 c 3.77,0 6.83,3.94 6.83,8.8 0,4.86 -3.06,8.8 -6.83,8.8 a 5.47,5.47 0 0 1 -2.71,-0.72 l -95.73,0.12 a 5.44,5.44 0 0 1 -2.48,0.6 c -3.77,0 -6.83,-3.94 -6.83,-8.8 0,-4.86 3.06,-8.8 6.83,-8.8 a 4.47,4.47 0 0 1 0.82,0.07 z"
       id="path1" />
    <rect
       class="cls-2"
       x="358.63"
       y="193.3"
       width="56.419998"
       height="11.55"
       id="rect1" />
    <rect
       class="cls-2"
       x="344.70001"
       y="306.23999"
       width="83.599998"
       height="63.529999"
       id="rect2" />
    <path
       class="cls-1"
       d="M 417.77,191.26 A 46,46 0 0 1 387,203.32 c -27.37,0 -49.56,-24.95 -49.56,-55.72 0,-30.77 22.18,-55.73 49.56,-55.73 15.49,0 29.31,8 38.4,20.5 -0.25,23.61 -33.61,65.27 -33.61,65.27 5.47,22.17 25.43,13.85 25.98,13.62 z"
       id="path2" />
    <path
       class="cls-3"
       d="m 436.55,147.6 c 0,17.69 -7.33,33.46 -18.77,43.65 v 0 c -0.55,0.23 -20.51,8.55 -26,-13.62 0,0 33.36,-41.66 33.61,-65.27 a 59.92,59.92 0 0 1 11.16,35.24 z"
       id="path3" />
    <path
       class="cls-3"
       d="m 337.43,147.6 c 0,17.69 7.33,33.46 18.77,43.65 v 0 c 0.55,0.23 20.51,8.55 26,-13.62 0,0 -33.36,-41.66 -33.61,-65.27 a 59.92,59.92 0 0 0 -11.16,35.24 z"
       id="path4" />
    <rect
       class="cls-1"
       x="340.56"
       y="204.85001"
       width="92.080002"
       height="101.37"
       id="rect4" />
    <rect
       class="cls-1"
       x="340.56"
       y="313.79999"
       width="92.080002"
       height="48.849998"
       id="rect5" />
    <ellipse
       class="cls-1"
       cx="599.17999"
       cy="147.59"
       rx="49.560001"
       ry="55.73"
       id="ellipse5" />
    <rect
       class="cls-1"
       x="553.53998"
       y="204.85001"
       width="92.080002"
       height="101.37"
       transform="rotate(180,599.575,255.53)"
       id="rect6" />
    <rect
       class="cls-1"
       x="553.53998"
       y="313.79999"
       width="92.080002"
       height="48.849998"
       transform="rotate(180,599.575,338.225)"
       id="rect7" />
    <path
       class="cls-1"
       d="m 757.36,636.26 c 0,70.56 -1.77,135.9 -4.77,189.27 a 57.72,57.72 0 0 1 -46.72,53.39 C 648.65,890 574,896.68 492.35,896.68 c -80.24,0 -153.72,-6.47 -210.54,-17.2 A 57.65,57.65 0 0 1 235,826.09 c -3,-53.47 -4.8,-119 -4.8,-189.83 0,-72.47 1.87,-139.41 5,-193.56 a 57.65,57.65 0 0 1 46.88,-53.3 c 22.95,-4.32 48.61,-8 76.33,-10.74 18.91,-1.91 38.78,-3.42 59.4,-4.5 24,-1.25 48.92,-1.91 74.57,-1.91 81.54,0 156.1,6.68 213.29,17.72 a 57.71,57.71 0 0 1 46.74,53.3 c 3.1,54.04 4.95,120.78 4.95,192.99 z"
       id="path7" />
    <path
       class="cls-1"
       d="M 398.68,893.63 V 896 a 4.29,4.29 0 0 1 -4.29,4.29 h -40 A 4.29,4.29 0 0 1 350.1,896 v -6.6 z"
       id="path8" />
    <path
       class="cls-4"
       d="m 417.78,369.77 v 4.39 c -20.62,1.08 -40.49,2.59 -59.4,4.5 v -8.89 z"
       id="path9" />
    <path
       class="cls-1"
       d="m 648.81,145.2 a 4.47,4.47 0 0 1 0.82,-0.07 c 3.77,0 6.83,3.94 6.83,8.8 0,4.86 -3.06,8.8 -6.83,8.8 a 5.44,5.44 0 0 1 -2.48,-0.6 L 551.42,162 a 5.47,5.47 0 0 1 -2.71,0.72 c -3.77,0 -6.83,-3.94 -6.83,-8.8 0,-4.86 3.06,-8.8 6.83,-8.8 a 5.49,5.49 0 0 1 1.08,0.11 z"
       id="path10" />
    <rect
       class="cls-2"
       x="571.23999"
       y="193.3"
       width="56.419998"
       height="11.55"
       id="rect10" />
    <rect
       class="cls-2"
       x="557.97998"
       y="306.23999"
       width="83.599998"
       height="63.529999"
       transform="rotate(180,599.785,338.005)"
       id="rect11" />
    <path
       class="cls-1"
       d="m 568.52,191.26 a 46,46 0 0 0 30.78,12.06 c 27.37,0 49.56,-24.95 49.56,-55.72 0,-30.77 -22.19,-55.73 -49.56,-55.73 -15.49,0 -29.31,8 -38.4,20.5 0.25,23.61 33.61,65.27 33.61,65.27 -5.51,22.17 -25.44,13.85 -25.99,13.62 z"
       id="path11" />
    <path
       class="cls-3"
       d="m 549.74,147.6 c 0,17.69 7.33,33.46 18.77,43.65 v 0 c 0.55,0.23 20.51,8.55 26,-13.62 0,0 -33.36,-41.66 -33.61,-65.27 a 59.92,59.92 0 0 0 -11.16,35.24 z"
       id="path12" />
    <path
       class="cls-3"
       d="m 648.86,147.6 c 0,17.69 -7.33,33.46 -18.77,43.65 v 0 c -0.55,0.23 -20.51,8.55 -26,-13.62 0,0 33.36,-41.66 33.61,-65.27 a 59.92,59.92 0 0 1 11.16,35.24 z"
       id="path13" />
    <rect
       class="cls-1"
       x="553.65002"
       y="204.85001"
       width="92.080002"
       height="101.37"
       transform="rotate(180,599.69,255.53)"
       id="rect13" />
    <rect
       class="cls-1"
       x="553.65002"
       y="313.79999"
       width="92.080002"
       height="48.849998"
       transform="rotate(180,599.69,338.225)"
       id="rect14" />
    <path
       class="cls-4"
       d="m 568.51,369.77 v 4.39 c 20.62,1.08 40.49,2.59 59.4,4.5 v -8.89 z"
       id="path14" />
    <circle
       class="cls-5"
       cx="692.82001"
       cy="661.58002"
       r="6"
       id="circle14" />
    <circle
       class="cls-6"
       cx="692.82001"
       cy="715"
       r="6"
       id="circle15" />
    <circle
       class="cls-7"
       cx="692.82001"
       cy="768.42999"
       r="6"
       id="circle16" />
    <ellipse
       class="cls-8"
       cx="386.98999"
       cy="147.59"
       rx="49.560001"
       ry="55.73"
       id="ellipse16" />
    <path
       class="cls-8"
       d="m 339.14,162.13 a 5.44,5.44 0 0 1 -2.48,0.6 c -3.77,0 -6.83,-3.94 -6.83,-8.8 0,-4.86 3.06,-8.8 6.83,-8.8 a 4.47,4.47 0 0 1 0.82,0.07"
       id="path16" />
    <path
       class="cls-8"
       d="m 436.5,145.24 a 5.49,5.49 0 0 1 1.08,-0.11 c 3.77,0 6.83,3.94 6.83,8.8 0,4.86 -3.06,8.8 -6.83,8.8 a 5.47,5.47 0 0 1 -2.71,-0.72"
       id="path17" />
    <line
       class="cls-8"
       x1="358.63"
       y1="193.3"
       x2="358.63"
       y2="204.85001"
       id="line17" />
    <line
       class="cls-8"
       x1="415.04999"
       y1="193.3"
       x2="415.04999"
       y2="204.85001"
       id="line18" />
    <rect
       class="cls-8"
       x="340.56"
       y="204.85001"
       width="92.080002"
       height="101.37"
       id="rect18" />
    <rect
       class="cls-8"
       x="340.56"
       y="313.79999"
       width="92.080002"
       height="48.849998"
       id="rect19" />
    <line
       class="cls-8"
       x1="344.82999"
       y1="306.22"
       x2="344.82999"
       y2="313.79999"
       id="line19" />
    <line
       class="cls-8"
       x1="428.29999"
       y1="306.22"
       x2="428.29999"
       y2="313.79999"
       id="line20" />
    <polyline
       class="cls-8"
       points="344.83 362.65 344.83 369.77 428.3 369.77 428.3 362.65"
       id="polyline20" />
    <line
       class="cls-8"
       x1="358.38"
       y1="378.66"
       x2="358.38"
       y2="369.76999"
       id="line21" />
    <line
       class="cls-8"
       x1="417.78"
       y1="374.16"
       x2="417.78"
       y2="369.76999"
       id="line22" />
    <line
       class="cls-9"
       x1="343.79999"
       y1="313.79999"
       x2="343.79999"
       y2="362.64999"
       id="line23" />
    <line
       class="cls-9"
       x1="346.31"
       y1="313.79999"
       x2="346.31"
       y2="362.64999"
       id="line24" />
    <line
       class="cls-9"
       x1="348.82999"
       y1="313.79999"
       x2="348.82999"
       y2="362.64999"
       id="line25" />
    <line
       class="cls-9"
       x1="351.34"
       y1="313.79999"
       x2="351.34"
       y2="362.64999"
       id="line26" />
    <line
       class="cls-9"
       x1="353.85999"
       y1="313.79999"
       x2="353.85999"
       y2="362.64999"
       id="line27" />
    <line
       class="cls-9"
       x1="356.37"
       y1="313.79999"
       x2="356.37"
       y2="362.64999"
       id="line28" />
    <line
       class="cls-9"
       x1="358.88"
       y1="313.79999"
       x2="358.88"
       y2="362.64999"
       id="line29" />
    <line
       class="cls-9"
       x1="361.39999"
       y1="313.79999"
       x2="361.39999"
       y2="362.64999"
       id="line30" />
    <line
       class="cls-9"
       x1="363.91"
       y1="313.79999"
       x2="363.91"
       y2="362.64999"
       id="line31" />
    <line
       class="cls-9"
       x1="366.42999"
       y1="313.79999"
       x2="366.42999"
       y2="362.64999"
       id="line32" />
    <line
       class="cls-9"
       x1="368.94"
       y1="313.79999"
       x2="368.94"
       y2="362.64999"
       id="line33" />
    <line
       class="cls-9"
       x1="371.45999"
       y1="313.79999"
       x2="371.45999"
       y2="362.64999"
       id="line34" />
    <line
       class="cls-9"
       x1="373.97"
       y1="313.79999"
       x2="373.97"
       y2="362.64999"
       id="line35" />
    <line
       class="cls-9"
       x1="376.48001"
       y1="313.79999"
       x2="376.48001"
       y2="362.64999"
       id="line36" />
    <line
       class="cls-9"
       x1="379"
       y1="313.79999"
       x2="379"
       y2="362.64999"
       id="line37" />
    <line
       class="cls-9"
       x1="381.51001"
       y1="313.79999"
       x2="381.51001"
       y2="362.64999"
       id="line38" />
    <line
       class="cls-9"
       x1="384.03"
       y1="313.79999"
       x2="384.03"
       y2="362.64999"
       id="line39" />
    <line
       class="cls-9"
       x1="386.54001"
       y1="313.79999"
       x2="386.54001"
       y2="362.64999"
       id="line40" />
    <line
       class="cls-9"
       x1="389.04999"
       y1="313.79999"
       x2="389.04999"
       y2="362.64999"
       id="line41" />
    <line
       class="cls-9"
       x1="391.57001"
       y1="313.79999"
       x2="391.57001"
       y2="362.64999"
       id="line42" />
    <line
       class="cls-9"
       x1="394.07999"
       y1="313.79999"
       x2="394.07999"
       y2="362.64999"
       id="line43" />
    <line
       class="cls-9"
       x1="396.60001"
       y1="313.79999"
       x2="396.60001"
       y2="362.64999"
       id="line44" />
    <line
       class="cls-9"
       x1="399.10999"
       y1="313.79999"
       x2="399.10999"
       y2="362.64999"
       id="line45" />
    <line
       class="cls-9"
       x1="401.62"
       y1="313.79999"
       x2="401.62"
       y2="362.64999"
       id="line46" />
    <line
       class="cls-9"
       x1="404.14001"
       y1="313.79999"
       x2="404.14001"
       y2="362.64999"
       id="line47" />
    <line
       class="cls-9"
       x1="406.64999"
       y1="313.79999"
       x2="406.64999"
       y2="362.64999"
       id="line48" />
    <line
       class="cls-9"
       x1="409.17001"
       y1="313.79999"
       x2="409.17001"
       y2="362.64999"
       id="line49" />
    <line
       class="cls-9"
       x1="411.67999"
       y1="313.79999"
       x2="411.67999"
       y2="362.64999"
       id="line50" />
    <line
       class="cls-9"
       x1="414.20001"
       y1="313.79999"
       x2="414.20001"
       y2="362.64999"
       id="line51" />
    <line
       class="cls-9"
       x1="416.70999"
       y1="313.79999"
       x2="416.70999"
       y2="362.64999"
       id="line52" />
    <line
       class="cls-9"
       x1="419.22"
       y1="313.79999"
       x2="419.22"
       y2="362.64999"
       id="line53" />
    <line
       class="cls-9"
       x1="421.73999"
       y1="313.79999"
       x2="421.73999"
       y2="362.64999"
       id="line54" />
    <line
       class="cls-9"
       x1="424.25"
       y1="313.79999"
       x2="424.25"
       y2="362.64999"
       id="line55" />
    <line
       class="cls-9"
       x1="426.76999"
       y1="313.79999"
       x2="426.76999"
       y2="362.64999"
       id="line56" />
    <line
       class="cls-9"
       x1="429.28"
       y1="313.79999"
       x2="429.28"
       y2="362.64999"
       id="line57" />
    <ellipse
       class="cls-8"
       cx="599.17999"
       cy="147.59"
       rx="49.560001"
       ry="55.73"
       id="ellipse57" />
    <path
       class="cls-8"
       d="m 648.69,145.2 a 4.47,4.47 0 0 1 0.82,-0.07 c 3.77,0 6.83,3.94 6.83,8.8 0,4.86 -3.06,8.8 -6.83,8.8 a 5.44,5.44 0 0 1 -2.48,-0.6"
       id="path57" />
    <path
       class="cls-8"
       d="m 551.3,162 a 5.47,5.47 0 0 1 -2.71,0.72 c -3.77,0 -6.83,-3.94 -6.83,-8.8 0,-4.86 3.06,-8.8 6.83,-8.8 a 5.49,5.49 0 0 1 1.08,0.11"
       id="path58" />
    <line
       class="cls-8"
       x1="627.53998"
       y1="193.3"
       x2="627.53998"
       y2="204.85001"
       id="line58" />
    <line
       class="cls-8"
       x1="571.12"
       y1="193.3"
       x2="571.12"
       y2="204.85001"
       id="line59" />
    <rect
       class="cls-8"
       x="553.53998"
       y="204.85001"
       width="92.080002"
       height="101.37"
       transform="rotate(180,599.575,255.53)"
       id="rect59" />
    <rect
       class="cls-8"
       x="553.53998"
       y="313.79999"
       width="92.080002"
       height="48.849998"
       transform="rotate(180,599.575,338.225)"
       id="rect60" />
    <line
       class="cls-8"
       x1="641.34003"
       y1="306.22"
       x2="641.34003"
       y2="313.79999"
       id="line60" />
    <line
       class="cls-8"
       x1="557.87"
       y1="306.22"
       x2="557.87"
       y2="313.79999"
       id="line61" />
    <polyline
       class="cls-8"
       points="641.34 362.65 641.34 369.77 557.87 369.77 557.87 362.65"
       id="polyline61" />
    <line
       class="cls-8"
       x1="627.79999"
       y1="378.81"
       x2="627.79999"
       y2="369.76999"
       id="line62" />
    <line
       class="cls-8"
       x1="568.40002"
       y1="374.25"
       x2="568.40002"
       y2="369.76999"
       id="line63" />
    <line
       class="cls-9"
       x1="642.37"
       y1="313.79999"
       x2="642.37"
       y2="362.64999"
       id="line64" />
    <line
       class="cls-9"
       x1="639.85999"
       y1="313.79999"
       x2="639.85999"
       y2="362.64999"
       id="line65" />
    <line
       class="cls-9"
       x1="637.34003"
       y1="313.79999"
       x2="637.34003"
       y2="362.64999"
       id="line66" />
    <line
       class="cls-9"
       x1="634.83002"
       y1="313.79999"
       x2="634.83002"
       y2="362.64999"
       id="line67" />
    <line
       class="cls-9"
       x1="632.31"
       y1="313.79999"
       x2="632.31"
       y2="362.64999"
       id="line68" />
    <line
       class="cls-9"
       x1="629.79999"
       y1="313.79999"
       x2="629.79999"
       y2="362.64999"
       id="line69" />
    <line
       class="cls-9"
       x1="627.28998"
       y1="313.79999"
       x2="627.28998"
       y2="362.64999"
       id="line70" />
    <line
       class="cls-9"
       x1="624.77002"
       y1="313.79999"
       x2="624.77002"
       y2="362.64999"
       id="line71" />
    <line
       class="cls-9"
       x1="622.26001"
       y1="313.79999"
       x2="622.26001"
       y2="362.64999"
       id="line72" />
    <line
       class="cls-9"
       x1="619.73999"
       y1="313.79999"
       x2="619.73999"
       y2="362.64999"
       id="line73" />
    <line
       class="cls-9"
       x1="617.22998"
       y1="313.79999"
       x2="617.22998"
       y2="362.64999"
       id="line74" />
    <line
       class="cls-9"
       x1="614.71002"
       y1="313.79999"
       x2="614.71002"
       y2="362.64999"
       id="line75" />
    <line
       class="cls-9"
       x1="612.20001"
       y1="313.79999"
       x2="612.20001"
       y2="362.64999"
       id="line76" />
    <line
       class="cls-9"
       x1="609.69"
       y1="313.79999"
       x2="609.69"
       y2="362.64999"
       id="line77" />
    <line
       class="cls-9"
       x1="607.16998"
       y1="313.79999"
       x2="607.16998"
       y2="362.64999"
       id="line78" />
    <line
       class="cls-9"
       x1="604.65997"
       y1="313.79999"
       x2="604.65997"
       y2="362.64999"
       id="line79" />
    <line
       class="cls-9"
       x1="602.14001"
       y1="313.79999"
       x2="602.14001"
       y2="362.64999"
       id="line80" />
    <line
       class="cls-9"
       x1="599.63"
       y1="313.79999"
       x2="599.63"
       y2="362.64999"
       id="line81" />
    <line
       class="cls-9"
       x1="597.12"
       y1="313.79999"
       x2="597.12"
       y2="362.64999"
       id="line82" />
    <line
       class="cls-9"
       x1="594.59998"
       y1="313.79999"
       x2="594.59998"
       y2="362.64999"
       id="line83" />
    <line
       class="cls-9"
       x1="592.09003"
       y1="313.79999"
       x2="592.09003"
       y2="362.64999"
       id="line84" />
    <line
       class="cls-9"
       x1="589.57001"
       y1="313.79999"
       x2="589.57001"
       y2="362.64999"
       id="line85" />
    <line
       class="cls-9"
       x1="587.06"
       y1="313.79999"
       x2="587.06"
       y2="362.64999"
       id="line86" />
    <line
       class="cls-9"
       x1="584.54999"
       y1="313.79999"
       x2="584.54999"
       y2="362.64999"
       id="line87" />
    <line
       class="cls-9"
       x1="582.03003"
       y1="313.79999"
       x2="582.03003"
       y2="362.64999"
       id="line88" />
    <line
       class="cls-9"
       x1="579.52002"
       y1="313.79999"
       x2="579.52002"
       y2="362.64999"
       id="line89" />
    <line
       class="cls-9"
       x1="577"
       y1="313.79999"
       x2="577"
       y2="362.64999"
       id="line90" />
    <line
       class="cls-9"
       x1="574.48999"
       y1="313.79999"
       x2="574.48999"
       y2="362.64999"
       id="line91" />
    <line
       class="cls-9"
       x1="571.96997"
       y1="313.79999"
       x2="571.96997"
       y2="362.64999"
       id="line92" />
    <line
       class="cls-9"
       x1="569.46002"
       y1="313.79999"
       x2="569.46002"
       y2="362.64999"
       id="line93" />
    <line
       class="cls-9"
       x1="566.95001"
       y1="313.79999"
       x2="566.95001"
       y2="362.64999"
       id="line94" />
    <line
       class="cls-9"
       x1="564.42999"
       y1="313.79999"
       x2="564.42999"
       y2="362.64999"
       id="line95" />
    <line
       class="cls-9"
       x1="561.91998"
       y1="313.79999"
       x2="561.91998"
       y2="362.64999"
       id="line96" />
    <line
       class="cls-9"
       x1="559.40002"
       y1="313.79999"
       x2="559.40002"
       y2="362.64999"
       id="line97" />
    <line
       class="cls-9"
       x1="556.89001"
       y1="313.79999"
       x2="556.89001"
       y2="362.64999"
       id="line98" />
    <path
       class="cls-8"
       d="m 757.36,636.26 c 0,70.56 -1.77,135.9 -4.78,189.27 a 57.69,57.69 0 0 1 -46.71,53.38 C 648.65,890 574,896.68 492.35,896.68 c -80.25,0 -153.72,-6.47 -210.54,-17.2 A 57.65,57.65 0 0 1 235,826.09 c -3,-53.48 -4.8,-119 -4.8,-189.83 0,-72.47 1.86,-139.42 5,-193.56 a 57.65,57.65 0 0 1 46.88,-53.31 c 56.79,-10.69 130.17,-17.14 210.3,-17.14 81.54,0 156.1,6.68 213.29,17.71 a 57.72,57.72 0 0 1 46.73,53.3 c 3.11,54.05 4.96,120.74 4.96,193 z"
       id="path98" />
    <path
       class="cls-8"
       d="M 350.11,889.41 V 896 a 4.29,4.29 0 0 0 4.29,4.29 h 40 a 4.29,4.29 0 0 0 4.29,-4.29 v -2.38"
       id="path99" />
    <path
       class="cls-8"
       d="m 417.78,191.25 c 0,0 -20.45,8.86 -26,-13.62 0,0 33.35,-41.66 33.61,-65.27"
       id="path100" />
    <path
       class="cls-8"
       d="m 356.26,191.25 c 0,0 20.45,8.86 26,-13.62 0,0 -33.35,-41.66 -33.6,-65.27"
       id="path101" />
    <line
       class="cls-8"
       x1="382.26001"
       y1="177.63"
       x2="391.78"
       y2="177.63"
       id="line101" />
    <path
       class="cls-8"
       d="m 629.93,191.25 c 0,0 -20.45,8.86 -26,-13.62 0,0 33.35,-41.66 33.6,-65.27"
       id="path102" />
    <path
       class="cls-8"
       d="m 568.41,191.25 c 0,0 20.44,8.86 26,-13.62 0,0 -33.35,-41.66 -33.61,-65.27"
       id="path103" />
    <line
       class="cls-8"
       x1="594.40997"
       y1="177.63"
       x2="603.92999"
       y2="177.63"
       id="line103" />
    <circle
       class="cls-9"
       cx="692.82001"
       cy="661.58002"
       r="6"
       id="circle103" />
    <circle
       class="cls-9"
       cx="692.82001"
       cy="715"
       r="6"
       id="circle104" />
    <circle
       class="cls-9"
       cx="692.82001"
       cy="768.42999"
       r="6"
       id="circle105" />
    <path
       class="cls-10"
       d="m 372.68,410.58 v -11.94 h 1.58 v 10.53 h 5.88 v 1.41 z"
       id="path105" />
    <path
       class="cls-10"
       d="m 382,406.26 a 4.46,4.46 0 0 1 1.34,-3.56 4,4 0 0 1 2.72,-1 3.86,3.86 0 0 1 2.91,1.17 4.42,4.42 0 0 1 1.13,3.23 5.63,5.63 0 0 1 -0.5,2.62 3.53,3.53 0 0 1 -1.45,1.49 4.3,4.3 0 0 1 -2.09,0.53 3.89,3.89 0 0 1 -2.94,-1.17 4.61,4.61 0 0 1 -1.12,-3.31 z m 1.51,0 a 3.7,3.7 0 0 0 0.72,2.49 2.33,2.33 0 0 0 1.83,0.82 2.28,2.28 0 0 0 1.81,-0.83 3.73,3.73 0 0 0 0.73,-2.53 3.6,3.6 0 0 0 -0.73,-2.43 2.33,2.33 0 0 0 -1.81,-0.83 2.36,2.36 0 0 0 -1.83,0.82 3.7,3.7 0 0 0 -0.72,2.49 z"
       id="path106" />
    <path
       class="cls-10"
       d="m 392.75,410.58 v -11.94 h 5.3 a 6.84,6.84 0 0 1 2.42,0.33 2.61,2.61 0 0 1 1.33,1.13 3.41,3.41 0 0 1 0.5,1.8 3,3 0 0 1 -0.83,2.14 4.15,4.15 0 0 1 -2.54,1.11 4,4 0 0 1 1,0.6 8.53,8.53 0 0 1 1.31,1.58 l 2.07,3.25 h -2 l -1.58,-2.48 q -0.69,-1.08 -1.14,-1.65 a 3.44,3.44 0 0 0 -0.81,-0.79 2.1,2.1 0 0 0 -0.72,-0.32 4.51,4.51 0 0 0 -0.88,-0.06 h -1.83 v 5.3 z m 1.58,-6.67 h 3.4 a 5.08,5.08 0 0 0 1.69,-0.22 1.79,1.79 0 0 0 0.93,-0.72 1.94,1.94 0 0 0 0.32,-1.07 1.78,1.78 0 0 0 -0.62,-1.39 2.88,2.88 0 0 0 -1.94,-0.55 h -3.78 z"
       id="path107" />
    <path
       class="cls-10"
       d="m 411,409.52 a 5.59,5.59 0 0 1 -1.57,1 4.52,4.52 0 0 1 -1.62,0.29 3.12,3.12 0 0 1 -2.19,-0.7 2.3,2.3 0 0 1 -0.77,-1.78 2.4,2.4 0 0 1 0.29,-1.16 2.47,2.47 0 0 1 0.76,-0.84 3.66,3.66 0 0 1 1.06,-0.48 9.41,9.41 0 0 1 1.3,-0.22 12.92,12.92 0 0 0 2.61,-0.51 c 0,-0.2 0,-0.32 0,-0.38 a 1.63,1.63 0 0 0 -0.41,-1.26 2.49,2.49 0 0 0 -1.67,-0.5 2.62,2.62 0 0 0 -1.53,0.36 2.25,2.25 0 0 0 -0.73,1.29 l -1.43,-0.2 a 3.48,3.48 0 0 1 0.64,-1.48 2.86,2.86 0 0 1 1.26,-0.95 5.81,5.81 0 0 1 2,-0.3 5.28,5.28 0 0 1 1.8,0.26 2.32,2.32 0 0 1 1,0.66 2.26,2.26 0 0 1 0.45,1 7.9,7.9 0 0 1 0.08,1.35 v 2 a 21.48,21.48 0 0 0 0.09,2.58 3,3 0 0 0 0.37,1 h -1.53 A 3.06,3.06 0 0 1 411,409.52 Z m -0.13,-3.28 a 11,11 0 0 1 -2.39,0.56 5.21,5.21 0 0 0 -1.28,0.29 1.31,1.31 0 0 0 -0.58,0.48 1.3,1.3 0 0 0 0.24,1.67 1.92,1.92 0 0 0 1.3,0.39 3,3 0 0 0 1.51,-0.37 2.36,2.36 0 0 0 1,-1 3.72,3.72 0 0 0 0.23,-1.47 z"
       id="path108" />
    <path
       class="cls-10"
       d="m 617.07,665.46 v -11.94 h 4.5 a 10.43,10.43 0 0 1 1.82,0.12 3.58,3.58 0 0 1 1.47,0.55 2.91,2.91 0 0 1 1,1.16 3.88,3.88 0 0 1 -0.61,4.2 c -0.65,0.71 -1.81,1.06 -3.5,1.06 h -3.06 v 4.85 z m 1.58,-6.26 h 3.08 a 3.29,3.29 0 0 0 2.18,-0.57 2,2 0 0 0 0.64,-1.61 2.18,2.18 0 0 0 -0.38,-1.28 1.74,1.74 0 0 0 -1,-0.7 6.61,6.61 0 0 0 -1.47,-0.11 h -3.05 z"
       id="path109" />
    <path
       class="cls-10"
       d="m 631,665.46 -3.17,-11.94 h 1.63 l 1.81,7.83 c 0.2,0.82 0.37,1.63 0.51,2.44 0.3,-1.27 0.48,-2 0.53,-2.2 l 2.28,-8.07 h 1.9 l 1.71,6.05 a 31.46,31.46 0 0 1 0.93,4.22 c 0.15,-0.75 0.35,-1.62 0.59,-2.6 l 1.88,-7.67 h 1.59 l -3.28,11.94 h -1.52 l -2.52,-9.1 c -0.21,-0.76 -0.33,-1.22 -0.37,-1.4 -0.13,0.55 -0.24,1 -0.35,1.4 l -2.54,9.1 z"
       id="path110" />
    <path
       class="cls-10"
       d="m 645.39,665.46 v -11.94 h 5.29 a 7.15,7.15 0 0 1 2.43,0.32 2.68,2.68 0 0 1 1.33,1.14 3.39,3.39 0 0 1 0.5,1.8 3,3 0 0 1 -0.83,2.14 4.17,4.17 0 0 1 -2.54,1.11 4,4 0 0 1 0.95,0.59 8.58,8.58 0 0 1 1.32,1.59 l 2.07,3.25 h -2 L 652.35,663 q -0.71,-1.08 -1.14,-1.65 a 3.74,3.74 0 0 0 -0.81,-0.8 2.28,2.28 0 0 0 -0.72,-0.31 4.51,4.51 0 0 0 -0.88,-0.06 H 647 v 5.3 z m 1.58,-6.67 h 3.4 a 5.08,5.08 0 0 0 1.69,-0.22 1.79,1.79 0 0 0 0.93,-0.72 1.94,1.94 0 0 0 0.32,-1.07 1.78,1.78 0 0 0 -0.62,-1.39 2.85,2.85 0 0 0 -1.94,-0.55 H 647 Z"
       id="path111" />
    <path
       class="cls-10"
       d="m 616.89,770.07 v -11.94 h 1.58 v 10.53 h 5.88 v 1.41 z"
       id="path112" />
    <path
       class="cls-10"
       d="m 627.22,770.07 v -11.94 h 1.58 v 11.94 z"
       id="path113" />
    <path
       class="cls-10"
       d="m 632.28,770.07 v -11.94 h 1.62 l 6.27,9.37 v -9.37 h 1.52 v 11.94 h -1.62 l -6.27,-9.39 v 9.39 z"
       id="path114" />
    <path
       class="cls-10"
       d="m 645,770.07 v -11.94 h 1.58 v 5.92 l 5.92,-5.92 h 2.15 l -5,4.84 5.23,7.1 h -2.09 l -4.26,-6.07 -1.95,1.91 v 4.14 z"
       id="path115" />
    <path
       class="cls-10"
       d="m 587.14,864.06 v -11.93 h 8.63 v 1.4 h -7 v 3.66 h 6.61 v 1.4 h -6.61 v 4.06 h 7.33 v 1.41 z"
       id="path116" />
    <path
       class="cls-10"
       d="m 602,864.06 v -10.53 h -3.94 v -1.4 h 9.47 v 1.4 h -3.95 v 10.53 z"
       id="path117" />
    <path
       class="cls-10"
       d="m 609.9,864.06 v -11.93 h 1.58 V 857 h 6.21 v -4.9 h 1.58 v 11.93 h -1.58 v -5.62 h -6.21 v 5.62 z"
       id="path118" />
    <path
       class="cls-10"
       d="m 452.64,831 h 1.58 v 6.89 a 8.18,8.18 0 0 1 -0.41,2.86 3.44,3.44 0 0 1 -1.47,1.72 5.15,5.15 0 0 1 -2.79,0.67 5.77,5.77 0 0 1 -2.74,-0.58 3.34,3.34 0 0 1 -1.53,-1.68 8,8 0 0 1 -0.45,-3 V 831 h 1.58 v 6.88 a 6.57,6.57 0 0 0 0.29,2.3 2.15,2.15 0 0 0 1,1.13 3.39,3.39 0 0 0 1.72,0.4 3.31,3.31 0 0 0 2.49,-0.79 4.57,4.57 0 0 0 0.74,-3 z"
       id="path119" />
    <path
       class="cls-10"
       d="m 457,839.07 1.49,-0.13 a 3.32,3.32 0 0 0 0.49,1.47 2.76,2.76 0 0 0 1.2,0.93 4.66,4.66 0 0 0 1.83,0.35 4.36,4.36 0 0 0 1.6,-0.27 2.15,2.15 0 0 0 1,-0.74 1.67,1.67 0 0 0 0.34,-1 1.55,1.55 0 0 0 -0.33,-1 2.34,2.34 0 0 0 -1.07,-0.7 20.64,20.64 0 0 0 -2.13,-0.59 11,11 0 0 1 -2.3,-0.74 3.28,3.28 0 0 1 -1.28,-1.11 2.72,2.72 0 0 1 -0.42,-1.49 3.08,3.08 0 0 1 0.52,-1.69 3.17,3.17 0 0 1 1.5,-1.19 5.66,5.66 0 0 1 2.19,-0.41 5.92,5.92 0 0 1 2.34,0.43 3.37,3.37 0 0 1 1.56,1.26 3.56,3.56 0 0 1 0.58,1.88 l -1.51,0.11 a 2.46,2.46 0 0 0 -0.83,-1.71 3.24,3.24 0 0 0 -2.08,-0.58 3.36,3.36 0 0 0 -2.09,0.53 1.59,1.59 0 0 0 -0.6,1.32 1.34,1.34 0 0 0 0.46,1 6.22,6.22 0 0 0 2.38,0.85 16.24,16.24 0 0 1 2.65,0.77 3.7,3.7 0 0 1 1.54,1.21 3,3 0 0 1 0.49,1.7 3.27,3.27 0 0 1 -0.54,1.8 3.64,3.64 0 0 1 -1.57,1.31 5.5,5.5 0 0 1 -2.3,0.47 7,7 0 0 1 -2.72,-0.47 3.84,3.84 0 0 1 -1.72,-1.43 4,4 0 0 1 -0.67,-2.14 z"
       id="path120" />
    <path
       class="cls-10"
       d="M 469.34,842.9 V 831 h 4.48 a 5.64,5.64 0 0 1 2.2,0.36 2.8,2.8 0 0 1 1.29,1.11 3,3 0 0 1 0.47,1.58 2.68,2.68 0 0 1 -0.42,1.44 2.93,2.93 0 0 1 -1.25,1.09 3.07,3.07 0 0 1 1.66,1.08 2.91,2.91 0 0 1 0.59,1.81 3.44,3.44 0 0 1 -0.36,1.53 3,3 0 0 1 -0.87,1.11 3.68,3.68 0 0 1 -1.31,0.59 7.63,7.63 0 0 1 -1.93,0.2 z m 1.58,-6.92 h 2.58 a 5.86,5.86 0 0 0 1.51,-0.14 1.55,1.55 0 0 0 1.21,-1.63 1.92,1.92 0 0 0 -0.28,-1.05 1.43,1.43 0 0 0 -0.82,-0.62 6.74,6.74 0 0 0 -1.81,-0.17 h -2.39 z m 0,5.51 h 3 a 6.94,6.94 0 0 0 1.08,0 2.7,2.7 0 0 0 0.91,-0.33 1.61,1.61 0 0 0 0.6,-0.66 2.07,2.07 0 0 0 0.24,-1 2,2 0 0 0 -0.34,-1.16 1.8,1.8 0 0 0 -0.95,-0.69 6,6 0 0 0 -1.75,-0.2 h -2.76 z"
       id="path121" />
    <path
       class="cls-10"
       d="m 480.49,839.32 v -1.47 H 485 v 1.47 z"
       id="path122" />
    <path
       class="cls-10"
       d="m 486.93,839.78 1.53,-0.13 a 2.8,2.8 0 0 0 0.8,1.69 2.16,2.16 0 0 0 1.5,0.56 2.31,2.31 0 0 0 1.79,-0.8 3,3 0 0 0 0.74,-2.11 2.71,2.71 0 0 0 -0.71,-2 2.43,2.43 0 0 0 -1.84,-0.73 2.55,2.55 0 0 0 -2.18,1.16 l -1.37,-0.18 1.15,-6.13 h 5.94 v 1.4 h -4.77 l -0.64,3.21 a 3.9,3.9 0 0 1 2.26,-0.75 3.59,3.59 0 0 1 2.64,1.08 3.81,3.81 0 0 1 1.07,2.79 4.34,4.34 0 0 1 -0.94,2.8 3.81,3.81 0 0 1 -3.14,1.45 3.86,3.86 0 0 1 -2.66,-0.92 3.52,3.52 0 0 1 -1.17,-2.39 z"
       id="path123" />
    <path
       class="cls-10"
       d="M 500.92,842.9 496.3,831 h 1.7 l 3.1,8.67 q 0.38,1 0.63,2 c 0.18,-0.65 0.4,-1.3 0.64,-2 L 505.6,831 h 1.61 l -4.68,11.93 z"
       id="path124" />
    <path
       class="cls-10"
       d="m 347.37,864.06 v -11.94 h 5.29 a 6.86,6.86 0 0 1 2.43,0.33 2.65,2.65 0 0 1 1.33,1.13 3.43,3.43 0 0 1 0.49,1.8 3,3 0 0 1 -0.82,2.14 4.17,4.17 0 0 1 -2.54,1.11 3.72,3.72 0 0 1 0.95,0.6 8.15,8.15 0 0 1 1.31,1.58 l 2.08,3.25 h -2 l -1.58,-2.48 q -0.69,-1.08 -1.14,-1.65 a 3.25,3.25 0 0 0 -0.8,-0.79 2.1,2.1 0 0 0 -0.72,-0.32 4.51,4.51 0 0 0 -0.88,-0.06 H 349 v 5.3 z m 1.58,-6.67 h 3.4 a 5.08,5.08 0 0 0 1.69,-0.22 1.79,1.79 0 0 0 0.93,-0.72 1.94,1.94 0 0 0 0.31,-1.07 1.77,1.77 0 0 0 -0.61,-1.39 2.9,2.9 0 0 0 -1.94,-0.55 H 349 Z"
       id="path125" />
    <path
       class="cls-10"
       d="m 365.84,861.28 1.51,0.19 a 3.69,3.69 0 0 1 -1.32,2.06 4.05,4.05 0 0 1 -2.48,0.73 4,4 0 0 1 -3,-1.17 4.57,4.57 0 0 1 -1.11,-3.28 4.85,4.85 0 0 1 1.12,-3.39 3.83,3.83 0 0 1 2.92,-1.2 3.67,3.67 0 0 1 2.83,1.18 4.65,4.65 0 0 1 1.1,3.32 v 0.39 H 361 a 3.35,3.35 0 0 0 0.8,2.19 2.41,2.41 0 0 0 1.81,0.75 2.26,2.26 0 0 0 1.38,-0.42 2.77,2.77 0 0 0 0.85,-1.35 z M 361,858.91 h 4.83 a 2.94,2.94 0 0 0 -0.56,-1.64 2.26,2.26 0 0 0 -1.81,-0.85 2.33,2.33 0 0 0 -1.7,0.68 2.67,2.67 0 0 0 -0.76,1.81 z"
       id="path126" />
    <path
       class="cls-10"
       d="m 369.88,864.06 v -11.94 h 1.47 v 11.94 z"
       id="path127" />
    <path
       class="cls-10"
       d="m 373.79,859.74 a 4.46,4.46 0 0 1 1.33,-3.56 4,4 0 0 1 2.72,-1 3.88,3.88 0 0 1 2.92,1.17 4.46,4.46 0 0 1 1.13,3.23 5.63,5.63 0 0 1 -0.5,2.62 3.5,3.5 0 0 1 -1.46,1.49 4.24,4.24 0 0 1 -2.09,0.53 3.87,3.87 0 0 1 -2.93,-1.17 4.61,4.61 0 0 1 -1.12,-3.31 z m 1.51,0 a 3.7,3.7 0 0 0 0.72,2.49 2.42,2.42 0 0 0 3.64,0 3.78,3.78 0 0 0 0.73,-2.53 3.6,3.6 0 0 0 -0.73,-2.43 2.41,2.41 0 0 0 -3.64,0 3.65,3.65 0 0 0 -0.72,2.47 z"
       id="path128" />
    <path
       class="cls-10"
       d="m 390,863 a 5.32,5.32 0 0 1 -1.57,1 4.51,4.51 0 0 1 -1.61,0.29 3.12,3.12 0 0 1 -2.19,-0.7 2.29,2.29 0 0 1 -0.77,-1.78 2.4,2.4 0 0 1 0.29,-1.16 2.28,2.28 0 0 1 0.76,-0.84 3.6,3.6 0 0 1 1.05,-0.48 9.7,9.7 0 0 1 1.3,-0.22 12.9,12.9 0 0 0 2.62,-0.51 c 0,-0.2 0,-0.32 0,-0.38 a 1.59,1.59 0 0 0 -0.42,-1.26 2.45,2.45 0 0 0 -1.67,-0.5 2.48,2.48 0 0 0 -1.52,0.37 2.14,2.14 0 0 0 -0.73,1.28 l -1.44,-0.2 a 3.48,3.48 0 0 1 0.65,-1.48 2.82,2.82 0 0 1 1.29,-0.88 5.89,5.89 0 0 1 2,-0.3 5.28,5.28 0 0 1 1.8,0.26 2.08,2.08 0 0 1 1.48,1.65 8.22,8.22 0 0 1 0.07,1.35 v 2 a 21.48,21.48 0 0 0 0.09,2.58 3.26,3.26 0 0 0 0.38,1 h -1.54 A 3.06,3.06 0 0 1 390,863 Z m -0.12,-3.28 a 10.94,10.94 0 0 1 -2.4,0.56 5.1,5.1 0 0 0 -1.27,0.29 1.26,1.26 0 0 0 -0.58,0.48 1.22,1.22 0 0 0 -0.21,0.69 1.25,1.25 0 0 0 0.45,1 1.91,1.91 0 0 0 1.3,0.39 3,3 0 0 0 1.5,-0.37 2.3,2.3 0 0 0 1,-1 3.53,3.53 0 0 0 0.24,-1.47 z"
       id="path129" />
    <path
       class="cls-10"
       d="M 399.93,864.06 V 863 a 2.69,2.69 0 0 1 -2.42,1.29 3.39,3.39 0 0 1 -1.9,-0.57 3.68,3.68 0 0 1 -1.34,-1.59 5.48,5.48 0 0 1 -0.48,-2.35 6.07,6.07 0 0 1 0.43,-2.35 3.4,3.4 0 0 1 1.3,-1.62 3.49,3.49 0 0 1 1.93,-0.56 2.87,2.87 0 0 1 2.38,1.19 v -4.29 h 1.46 v 11.94 z m -4.63,-4.31 a 3.74,3.74 0 0 0 0.7,2.48 2.1,2.1 0 0 0 1.65,0.82 2.06,2.06 0 0 0 1.63,-0.78 3.64,3.64 0 0 0 0.68,-2.4 4.07,4.07 0 0 0 -0.69,-2.61 2.11,2.11 0 0 0 -1.68,-0.83 2,2 0 0 0 -1.64,0.8 4,4 0 0 0 -0.65,2.52 z"
       id="path130" />
    <path
       class="cls-10"
       d="m 442.32,867.57 a 14.57,14.57 0 0 1 -2.05,-3.58 11.14,11.14 0 0 1 -0.84,-4.25 11,11 0 0 1 0.63,-3.71 15.26,15.26 0 0 1 2.26,-4.11 h 1.05 a 27,27 0 0 0 -1.3,2.42 13.37,13.37 0 0 0 -1.13,5.41 14.69,14.69 0 0 0 2.43,7.82 z"
       id="path131" />
    <path
       class="cls-10"
       d="m 454.49,859.88 1.58,0.4 a 5.3,5.3 0 0 1 -1.78,3 4.9,4.9 0 0 1 -3.16,1 5.71,5.71 0 0 1 -3.14,-0.79 4.9,4.9 0 0 1 -1.84,-2.28 8.12,8.12 0 0 1 -0.63,-3.2 7.11,7.11 0 0 1 0.71,-3.25 4.87,4.87 0 0 1 2,-2.11 5.94,5.94 0 0 1 2.9,-0.72 5,5 0 0 1 3,0.91 4.78,4.78 0 0 1 1.7,2.57 l -1.55,0.36 a 3.68,3.68 0 0 0 -1.21,-1.89 3.2,3.2 0 0 0 -2,-0.6 3.88,3.88 0 0 0 -2.3,0.66 3.52,3.52 0 0 0 -1.3,1.77 7.15,7.15 0 0 0 -0.37,2.3 7.36,7.36 0 0 0 0.44,2.65 3.32,3.32 0 0 0 1.38,1.7 3.84,3.84 0 0 0 2,0.56 3.4,3.4 0 0 0 2.25,-0.76 3.9,3.9 0 0 0 1.32,-2.28 z"
       id="path132" />
    <path
       class="cls-10"
       d="m 458,859.74 a 4.46,4.46 0 0 1 1.34,-3.56 4,4 0 0 1 2.72,-1 3.89,3.89 0 0 1 2.92,1.17 4.46,4.46 0 0 1 1.13,3.23 5.76,5.76 0 0 1 -0.5,2.62 3.55,3.55 0 0 1 -1.46,1.49 4.3,4.3 0 0 1 -2.09,0.53 3.89,3.89 0 0 1 -2.94,-1.17 4.66,4.66 0 0 1 -1.12,-3.31 z m 1.51,0 a 3.65,3.65 0 0 0 0.73,2.49 2.42,2.42 0 0 0 3.64,0 3.78,3.78 0 0 0 0.72,-2.53 3.55,3.55 0 0 0 -0.73,-2.43 2.32,2.32 0 0 0 -1.81,-0.83 2.34,2.34 0 0 0 -1.82,0.82 3.65,3.65 0 0 0 -0.73,2.48 z"
       id="path133" />
    <path
       class="cls-10"
       d="m 468.54,864.06 v -8.65 h 1.32 v 1.23 a 3.12,3.12 0 0 1 2.76,-1.42 3.51,3.51 0 0 1 1.43,0.28 2.18,2.18 0 0 1 1,0.74 2.78,2.78 0 0 1 0.46,1.08 8.92,8.92 0 0 1 0.08,1.42 v 5.32 h -1.46 v -5.26 a 3.81,3.81 0 0 0 -0.18,-1.34 1.42,1.42 0 0 0 -0.6,-0.71 2,2 0 0 0 -1,-0.26 2.39,2.39 0 0 0 -1.62,0.59 3,3 0 0 0 -0.68,2.26 v 4.72 z"
       id="path134" />
    <path
       class="cls-10"
       d="m 478,861.48 1.45,-0.23 a 2,2 0 0 0 0.68,1.34 2.36,2.36 0 0 0 1.56,0.46 2.28,2.28 0 0 0 1.5,-0.41 1.23,1.23 0 0 0 0.49,-1 0.91,0.91 0 0 0 -0.44,-0.79 6.45,6.45 0 0 0 -1.49,-0.49 13.3,13.3 0 0 1 -2.24,-0.71 2.1,2.1 0 0 1 -0.94,-0.82 2.14,2.14 0 0 1 -0.33,-1.16 2.21,2.21 0 0 1 0.27,-1.07 2.47,2.47 0 0 1 0.72,-0.82 3.11,3.11 0 0 1 0.93,-0.43 4.75,4.75 0 0 1 1.27,-0.17 5.17,5.17 0 0 1 1.79,0.29 2.4,2.4 0 0 1 1.13,0.8 3.11,3.11 0 0 1 0.51,1.34 l -1.44,0.19 a 1.56,1.56 0 0 0 -0.56,-1 2.09,2.09 0 0 0 -1.33,-0.38 2.42,2.42 0 0 0 -1.44,0.34 1,1 0 0 0 -0.43,0.78 0.79,0.79 0 0 0 0.18,0.51 1.27,1.27 0 0 0 0.56,0.39 c 0.15,0.06 0.58,0.18 1.3,0.38 a 18.37,18.37 0 0 1 2.17,0.68 2.1,2.1 0 0 1 1,0.77 2.07,2.07 0 0 1 0.35,1.25 2.48,2.48 0 0 1 -0.42,1.38 2.76,2.76 0 0 1 -1.24,1 4.41,4.41 0 0 1 -1.82,0.36 4.1,4.1 0 0 1 -2.57,-0.7 3.25,3.25 0 0 1 -1.17,-2.08 z"
       id="path135" />
    <path
       class="cls-10"
       d="m 487.05,859.74 a 4.46,4.46 0 0 1 1.33,-3.56 4,4 0 0 1 2.72,-1 3.89,3.89 0 0 1 2.92,1.17 4.46,4.46 0 0 1 1.13,3.23 5.76,5.76 0 0 1 -0.5,2.62 3.55,3.55 0 0 1 -1.46,1.49 4.27,4.27 0 0 1 -2.09,0.53 3.86,3.86 0 0 1 -2.93,-1.17 4.61,4.61 0 0 1 -1.12,-3.31 z m 1.5,0 a 3.65,3.65 0 0 0 0.73,2.49 2.42,2.42 0 0 0 3.64,0 3.78,3.78 0 0 0 0.72,-2.53 3.55,3.55 0 0 0 -0.73,-2.43 2.32,2.32 0 0 0 -1.81,-0.83 2.34,2.34 0 0 0 -1.82,0.82 3.65,3.65 0 0 0 -0.73,2.48 z"
       id="path136" />
    <path
       class="cls-10"
       d="M 497.55,864.06 V 852.12 H 499 v 11.94 z"
       id="path137" />
    <path
       class="cls-10"
       d="m 507.93,861.28 1.51,0.19 a 3.74,3.74 0 0 1 -1.32,2.06 4.08,4.08 0 0 1 -2.48,0.73 4,4 0 0 1 -3,-1.17 4.57,4.57 0 0 1 -1.11,-3.28 4.8,4.8 0 0 1 1.12,-3.39 3.82,3.82 0 0 1 2.92,-1.2 3.67,3.67 0 0 1 2.83,1.18 4.65,4.65 0 0 1 1.1,3.32 c 0,0.09 0,0.22 0,0.39 H 503 a 3.4,3.4 0 0 0 0.81,2.19 2.41,2.41 0 0 0 1.81,0.75 2.23,2.23 0 0 0 1.37,-0.42 2.78,2.78 0 0 0 0.94,-1.35 z m -4.81,-2.37 h 4.82 a 2.94,2.94 0 0 0 -0.55,-1.64 2.26,2.26 0 0 0 -1.81,-0.85 2.33,2.33 0 0 0 -1.7,0.68 2.62,2.62 0 0 0 -0.76,1.81 z"
       id="path138" />
    <path
       class="cls-10"
       d="m 513,867.57 h -1.05 a 14.7,14.7 0 0 0 2.44,-7.82 13.57,13.57 0 0 0 -0.35,-3 13.22,13.22 0 0 0 -0.78,-2.35 c -0.21,-0.48 -0.65,-1.3 -1.31,-2.44 H 513 a 15.58,15.58 0 0 1 2.27,4.11 11.28,11.28 0 0 1 -0.22,8 14.57,14.57 0 0 1 -2.05,3.5 z"
       id="path139" />
    <path
       class="cls-10"
       d="m 602.35,721.32 v -11.94 h 4.48 a 5.55,5.55 0 0 1 2.19,0.36 2.82,2.82 0 0 1 1.29,1.12 2.87,2.87 0 0 1 0.47,1.57 2.7,2.7 0 0 1 -0.41,1.45 3,3 0 0 1 -1.26,1.09 3.1,3.1 0 0 1 1.67,1.08 2.88,2.88 0 0 1 0.58,1.81 3.57,3.57 0 0 1 -0.35,1.56 3,3 0 0 1 -0.88,1.11 3.6,3.6 0 0 1 -1.31,0.59 8,8 0 0 1 -1.92,0.2 z m 1.58,-6.92 h 2.58 a 5.77,5.77 0 0 0 1.5,-0.14 1.63,1.63 0 0 0 0.91,-0.6 1.65,1.65 0 0 0 0.31,-1 2,2 0 0 0 -0.29,-1 1.43,1.43 0 0 0 -0.81,-0.61 6.83,6.83 0 0 0 -1.82,-0.17 h -2.38 z m 0,5.51 h 3 a 6.38,6.38 0 0 0 1.07,-0.06 2.55,2.55 0 0 0 0.92,-0.32 1.79,1.79 0 0 0 0.6,-0.67 2,2 0 0 0 0.23,-1 2,2 0 0 0 -0.34,-1.16 1.77,1.77 0 0 0 -1,-0.69 5.59,5.59 0 0 0 -1.74,-0.2 h -2.76 z"
       id="path140" />
    <path
       class="cls-10"
       d="m 617.29,721.32 v -10.53 h -3.93 v -1.41 h 9.46 v 1.41 h -4 v 10.53 z"
       id="path141" />
    <path
       class="cls-10"
       d="m 623.87,721.52 3.46,-12.34 h 1.17 l -3.45,12.34 z"
       id="path142" />
    <path
       class="cls-10"
       d="M 630.44,721.32 V 709.38 H 632 v 10.53 h 5.88 v 1.41 z"
       id="path143" />
    <path
       class="cls-10"
       d="m 639.77,717 a 4.44,4.44 0 0 1 1.33,-3.55 4,4 0 0 1 2.72,-1 3.89,3.89 0 0 1 2.92,1.16 4.47,4.47 0 0 1 1.13,3.23 5.78,5.78 0 0 1 -0.5,2.63 3.47,3.47 0 0 1 -1.46,1.48 4.17,4.17 0 0 1 -2.09,0.53 3.85,3.85 0 0 1 -2.93,-1.16 4.64,4.64 0 0 1 -1.12,-3.32 z m 1.51,0 a 3.7,3.7 0 0 0 0.72,2.49 2.41,2.41 0 0 0 3.64,0 3.78,3.78 0 0 0 0.73,-2.53 3.6,3.6 0 0 0 -0.73,-2.43 2.42,2.42 0 0 0 -3.64,0 3.69,3.69 0 0 0 -0.72,2.47 z"
       id="path144" />
    <path
       class="cls-10"
       d="m 650.52,721.32 v -11.94 h 5.29 a 7.15,7.15 0 0 1 2.43,0.32 2.72,2.72 0 0 1 1.33,1.14 3.38,3.38 0 0 1 0.49,1.8 3,3 0 0 1 -0.82,2.14 4.17,4.17 0 0 1 -2.54,1.11 4,4 0 0 1 0.95,0.59 7.94,7.94 0 0 1 1.31,1.59 l 2.08,3.25 h -2 l -1.58,-2.48 q -0.69,-1.08 -1.14,-1.65 a 3.32,3.32 0 0 0 -0.8,-0.8 2.31,2.31 0 0 0 -0.72,-0.32 5.8,5.8 0 0 0 -0.88,-0.05 h -1.82 v 5.3 z m 1.58,-6.67 h 3.4 a 5.36,5.36 0 0 0 1.69,-0.22 1.79,1.79 0 0 0 0.93,-0.72 2,2 0 0 0 0.31,-1.07 1.76,1.76 0 0 0 -0.61,-1.39 2.85,2.85 0 0 0 -1.94,-0.55 h -3.78 z"
       id="path145" />
    <path
       class="cls-10"
       d="m 668.71,720.25 a 5.47,5.47 0 0 1 -1.56,1 4.6,4.6 0 0 1 -1.62,0.28 3.16,3.16 0 0 1 -2.19,-0.69 2.32,2.32 0 0 1 -0.77,-1.78 2.4,2.4 0 0 1 0.29,-1.16 2.37,2.37 0 0 1 0.76,-0.84 3.15,3.15 0 0 1 1,-0.48 9.91,9.91 0 0 1 1.31,-0.22 13.67,13.67 0 0 0 2.61,-0.51 c 0,-0.2 0,-0.33 0,-0.38 a 1.63,1.63 0 0 0 -0.42,-1.27 2.45,2.45 0 0 0 -1.67,-0.49 2.58,2.58 0 0 0 -1.52,0.36 2.22,2.22 0 0 0 -0.73,1.28 l -1.44,-0.19 a 3.66,3.66 0 0 1 0.65,-1.49 2.79,2.79 0 0 1 1.29,-0.87 5.91,5.91 0 0 1 2,-0.3 5.11,5.11 0 0 1 1.8,0.26 2.05,2.05 0 0 1 1.47,1.65 8.22,8.22 0 0 1 0.07,1.35 v 2 a 18.84,18.84 0 0 0 0.1,2.59 3.09,3.09 0 0 0 0.37,1 H 669 a 3.05,3.05 0 0 1 -0.29,-1.1 z m -0.12,-3.27 a 10.5,10.5 0 0 1 -2.39,0.55 5.47,5.47 0 0 0 -1.28,0.3 1.22,1.22 0 0 0 -0.78,1.17 1.25,1.25 0 0 0 0.44,1 1.92,1.92 0 0 0 1.3,0.39 3.13,3.13 0 0 0 1.51,-0.37 2.25,2.25 0 0 0 1,-1 3.48,3.48 0 0 0 0.24,-1.46 z"
       id="path146" />
    <path
       class="cls-10"
       d="m 564,410.11 -3.16,-11.94 h 1.62 l 1.81,7.83 c 0.2,0.82 0.37,1.63 0.51,2.44 0.3,-1.28 0.48,-2 0.53,-2.21 l 2.28,-8.06 h 1.9 l 1.71,6 a 31.93,31.93 0 0 1 0.93,4.23 c 0.15,-0.76 0.35,-1.62 0.6,-2.6 l 1.87,-7.67 h 1.59 l -3.28,11.94 h -1.52 l -2.52,-9.1 c -0.21,-0.76 -0.33,-1.23 -0.37,-1.4 -0.13,0.55 -0.24,1 -0.35,1.4 l -2.53,9.1 z"
       id="path147" />
    <path
       class="cls-10"
       d="m 578.29,410.11 v -11.94 h 1.58 v 10.53 h 5.88 v 1.41 z"
       id="path148" />
    <path
       class="cls-10"
       d="m 587,410.11 4.58,-11.94 h 1.71 l 4.88,11.94 h -1.8 L 595,406.49 h -5 l -1.31,3.62 z m 3.44,-4.9 h 4 l -1.24,-3.31 c -0.38,-1 -0.67,-1.83 -0.85,-2.48 a 14.38,14.38 0 0 1 -0.65,2.28 z"
       id="path149" />
    <path
       class="cls-10"
       d="m 600.18,410.11 v -11.94 h 1.62 l 6.27,9.37 v -9.37 h 1.51 v 11.94 H 608 l -6.27,-9.38 v 9.38 z"
       id="path150" />
    <path
       class="cls-10"
       d="M 611.67,410.31 615.13,398 h 1.17 l -3.45,12.34 z"
       id="path151" />
    <path
       class="cls-10"
       d="m 618.24,410.11 v -11.94 h 4.48 a 5.55,5.55 0 0 1 2.19,0.36 2.78,2.78 0 0 1 1.3,1.12 2.93,2.93 0 0 1 0.47,1.57 2.68,2.68 0 0 1 -0.42,1.44 2.94,2.94 0 0 1 -1.25,1.1 3.11,3.11 0 0 1 1.66,1.08 2.88,2.88 0 0 1 0.58,1.81 3.43,3.43 0 0 1 -0.35,1.56 3,3 0 0 1 -0.88,1.11 3.55,3.55 0 0 1 -1.3,0.59 8.17,8.17 0 0 1 -1.93,0.2 z m 1.58,-6.92 h 2.58 a 5.91,5.91 0 0 0 1.51,-0.14 1.59,1.59 0 0 0 1.21,-1.64 1.94,1.94 0 0 0 -0.28,-1.05 1.45,1.45 0 0 0 -0.82,-0.61 6.39,6.39 0 0 0 -1.81,-0.17 h -2.39 z m 0,5.51 h 3 a 6.61,6.61 0 0 0 1.08,-0.06 2.57,2.57 0 0 0 0.91,-0.32 1.87,1.87 0 0 0 0.6,-0.67 2.17,2.17 0 0 0 -0.1,-2.16 1.88,1.88 0 0 0 -0.95,-0.7 6,6 0 0 0 -1.75,-0.2 h -2.76 z"
       id="path152" />
    <path
       class="cls-10"
       d="m 633.18,410.11 v -10.53 h -3.93 v -1.41 h 9.46 v 1.41 h -4 v 10.53 z"
       id="path153" />
    <polygon
       class="cls-10"
       points="305.36,835.05 305.36,808.43 295.19,822.7 293.57,824.97 288.35,824.97 286.73,822.7 276.21,807.94 276.21,835.05 269.33,835.05 269.33,796 276.16,796 276.21,796.07 290.96,816.77 305.36,796.56 305.76,796 312.24,796 312.24,835.05 "
       id="polygon153" />
    <polygon
       class="cls-10"
       points="344.04,802.89 328.48,835.05 320.82,835.05 336.39,802.89 317.91,802.89 317.91,796 345.33,796 345.33,800.22 "
       id="polygon154" />
  </g>
</svg>
