<svg xmlns="http://www.w3.org/2000/svg" viewBox="603.65 579.13 682.64 792.16"><defs><style>.cls-1{fill:#3a3a3a;}.cls-19,.cls-2,.cls-5,.cls-8{fill:none;}.cls-2{stroke:#fff;stroke-width:1.17px;}.cls-2,.cls-5,.cls-8{stroke-miterlimit:10;}.cls-3{fill:#c08c2d;}.cls-4{fill:#cbcccb;}.cls-5,.cls-8{stroke:#050606;}.cls-5{stroke-width:2.04px;}.cls-6{fill:#267f4b;}.cls-7{fill:#9e9d9e;}.cls-8{stroke-width:4.58px;}.cls-9{fill:#808181;}.cls-10{fill:#e8eae8;}.cls-11{fill:#fffef5;}.cls-12{fill:#f5e3c1;}.cls-13{fill:#fad908;}.cls-14{fill:#2b2b2b;}.cls-15{fill:#a4a5a3;}.cls-16{fill:#dad9d9;}.cls-17{fill:#dad7bf;}.cls-18{fill:#231f20;}</style></defs><g id="Layer_3" data-name="Layer 3"><path class="cls-1" d="M1284,628.2v719.19a21.6,21.6,0,0,1-21.61,21.61H627.54a21.6,21.6,0,0,1-21.6-21.59V628.19a21.6,21.6,0,0,1,21.6-21.59H802.33a3.68,3.68,0,0,1,3.68,3.68V623a4.75,4.75,0,0,0,4.75,4.75H877a4.75,4.75,0,0,0,4.75-4.75V610.28a3.68,3.68,0,0,1,3.67-3.68h377A21.6,21.6,0,0,1,1284,628.2Z"></path><polyline class="cls-2" points="878.86 1369 878.86 1311.97 648.66 1311.97 648.66 1369"></polyline><line class="cls-2" x1="703.99" y1="1311.97" x2="703.99" y2="1369"></line><rect class="cls-3" x="657.37" y="1326.77" width="34.76" height="34.76" transform="translate(-669.4 2018.91) rotate(-90)"></rect><circle class="cls-3" cx="843.65" cy="1344.57" r="19.23"></circle><circle class="cls-4" cx="843.65" cy="1344.57" r="13.06"></circle><circle class="cls-5" cx="843.65" cy="1344.57" r="19.23"></circle><circle class="cls-3" cx="789.06" cy="1344.57" r="19.23"></circle><circle class="cls-4" cx="789.06" cy="1344.57" r="13.06"></circle><circle class="cls-5" cx="789.06" cy="1344.57" r="19.23"></circle><circle class="cls-3" cx="734.46" cy="1344.57" r="19.23"></circle><circle class="cls-4" cx="734.46" cy="1344.57" r="13.06"></circle><circle class="cls-4" cx="674.76" cy="1344.57" r="13.06"></circle><circle class="cls-5" cx="734.46" cy="1344.57" r="19.23"></circle><rect class="cls-5" x="657.37" y="1326.77" width="34.76" height="34.76" transform="translate(-669.4 2018.91) rotate(-90)"></rect><polyline class="cls-2" points="1034.16 1369 1034.16 1311.97 1264.36 1311.97 1264.36 1369"></polyline><line class="cls-2" x1="1209.03" y1="1311.97" x2="1209.03" y2="1369"></line><rect class="cls-4" x="786.25" y="630.49" width="17.77" height="20.08" rx="3.31"></rect><rect class="cls-4" x="798.52" y="673.82" width="12.12" height="20.08" rx="2.73"></rect><rect class="cls-4" x="863.35" y="673.82" width="12.12" height="20.08" rx="2.73"></rect><rect class="cls-4" x="874.43" y="630.49" width="17.77" height="20.08" rx="3.31"></rect><rect class="cls-3" x="631.36" y="1180.46" width="34.76" height="34.76"></rect><rect class="cls-6" x="701.19" y="927.5" width="507.84" height="333.94" rx="7.84"></rect><rect class="cls-7" x="1139.96" y="1175.47" width="23.6" height="11.36" rx="2.93"></rect><rect class="cls-7" x="1168.24" y="1175.47" width="16.7" height="11.36" rx="2.93"></rect><polygon class="cls-4" points="802.2 840.16 816.4 832.91 816.4 846.55 802.2 840.16"></polygon><circle class="cls-3" cx="701.19" cy="695.19" r="58.68"></circle><path class="cls-8" d="M1284,628.2v719.19a21.6,21.6,0,0,1-21.61,21.61H627.54a21.6,21.6,0,0,1-21.6-21.59V628.19a21.6,21.6,0,0,1,21.6-21.59H802.33a3.68,3.68,0,0,1,3.68,3.68V623a4.75,4.75,0,0,0,4.75,4.75H877a4.75,4.75,0,0,0,4.75-4.75V610.28a3.68,3.68,0,0,1,3.67-3.68h377A21.6,21.6,0,0,1,1284,628.2Z"></path><rect class="cls-4" x="910.7" y="724.09" width="21.49" height="46.57" rx="10.74"></rect><rect class="cls-4" x="1107.16" y="724.09" width="21.49" height="46.57" rx="10.74"></rect><rect class="cls-4" x="910.7" y="619.09" width="21.49" height="46.57" rx="10.74"></rect><rect class="cls-4" x="1107.16" y="619.09" width="21.49" height="46.57" rx="10.74"></rect><path class="cls-3" d="M962.55,755.21h9.76a0,0,0,0,1,0,0v11.85a4.77,4.77,0,0,1-4.77,4.77h-.22a4.77,4.77,0,0,1-4.77-4.77V755.21A0,0,0,0,1,962.55,755.21Z"></path><ellipse class="cls-4" cx="967.43" cy="767.23" rx="3.58" ry="3.42"></ellipse><path class="cls-3" d="M974.09,755.21h9.76a0,0,0,0,1,0,0v11.85a4.77,4.77,0,0,1-4.77,4.77h-.22a4.77,4.77,0,0,1-4.77-4.77V755.21A0,0,0,0,1,974.09,755.21Z"></path><ellipse class="cls-4" cx="978.97" cy="767.23" rx="3.58" ry="3.42"></ellipse><path class="cls-3" d="M985.64,755.21h9.76a0,0,0,0,1,0,0v11.85a4.77,4.77,0,0,1-4.77,4.77h-.22a4.77,4.77,0,0,1-4.77-4.77V755.21A0,0,0,0,1,985.64,755.21Z"></path><ellipse class="cls-4" cx="990.52" cy="767.23" rx="3.58" ry="3.42"></ellipse><path class="cls-3" d="M997.19,755.21h9.76a0,0,0,0,1,0,0v11.85a4.77,4.77,0,0,1-4.77,4.77H1002a4.77,4.77,0,0,1-4.77-4.77V755.21A0,0,0,0,1,997.19,755.21Z"></path><ellipse class="cls-4" cx="1002.07" cy="767.23" rx="3.58" ry="3.42"></ellipse><path class="cls-3" d="M1008.74,755.21h9.76a0,0,0,0,1,0,0v11.85a4.77,4.77,0,0,1-4.77,4.77h-.22a4.77,4.77,0,0,1-4.77-4.77V755.21A0,0,0,0,1,1008.74,755.21Z"></path><ellipse class="cls-4" cx="1013.61" cy="767.23" rx="3.58" ry="3.42"></ellipse><path class="cls-3" d="M1020.28,755.21H1030a0,0,0,0,1,0,0v11.85a4.77,4.77,0,0,1-4.77,4.77h-.22a4.77,4.77,0,0,1-4.77-4.77V755.21A0,0,0,0,1,1020.28,755.21Z"></path><ellipse class="cls-4" cx="1025.16" cy="767.23" rx="3.58" ry="3.42"></ellipse><path class="cls-3" d="M1031.83,755.21h9.76a0,0,0,0,1,0,0v11.85a4.77,4.77,0,0,1-4.77,4.77h-.22a4.77,4.77,0,0,1-4.77-4.77V755.21a0,0,0,0,1,0,0Z"></path><ellipse class="cls-4" cx="1036.71" cy="767.23" rx="3.58" ry="3.42"></ellipse><path class="cls-3" d="M1043.38,755.21h9.76a0,0,0,0,1,0,0v11.85a4.77,4.77,0,0,1-4.77,4.77h-.22a4.77,4.77,0,0,1-4.77-4.77V755.21a0,0,0,0,1,0,0Z"></path><ellipse class="cls-4" cx="1048.26" cy="767.23" rx="3.58" ry="3.42"></ellipse><path class="cls-3" d="M1054.92,755.21h9.76a0,0,0,0,1,0,0v11.85a4.77,4.77,0,0,1-4.77,4.77h-.22a4.77,4.77,0,0,1-4.77-4.77V755.21A0,0,0,0,1,1054.92,755.21Z"></path><ellipse class="cls-4" cx="1059.8" cy="767.23" rx="3.58" ry="3.42"></ellipse><path class="cls-3" d="M1066.47,755.21h9.76a0,0,0,0,1,0,0v11.85a4.77,4.77,0,0,1-4.77,4.77h-.22a4.77,4.77,0,0,1-4.77-4.77V755.21a0,0,0,0,1,0,0Z"></path><ellipse class="cls-4" cx="1071.35" cy="767.23" rx="3.58" ry="3.42"></ellipse><path class="cls-3" d="M1078,755.21h9.76a0,0,0,0,1,0,0v11.85a4.77,4.77,0,0,1-4.77,4.77h-.22a4.77,4.77,0,0,1-4.77-4.77V755.21A0,0,0,0,1,1078,755.21Z"></path><ellipse class="cls-4" cx="1082.9" cy="767.23" rx="3.58" ry="3.42"></ellipse><path class="cls-3" d="M950.81,755.21h9.76a0,0,0,0,1,0,0v11.85a4.77,4.77,0,0,1-4.77,4.77h-.22a4.77,4.77,0,0,1-4.77-4.77V755.21A0,0,0,0,1,950.81,755.21Z"></path><path class="cls-4" d="M928.48,580.15h182.27a7.15,7.15,0,0,1,7.15,7.15V755.21a0,0,0,0,1,0,0H921.33a0,0,0,0,1,0,0V587.3A7.15,7.15,0,0,1,928.48,580.15Z"></path><path class="cls-5" d="M928.48,580.15h182.27a7.15,7.15,0,0,1,7.15,7.15V755.21a0,0,0,0,1,0,0H921.33a0,0,0,0,1,0,0V587.3A7.15,7.15,0,0,1,928.48,580.15Z"></path><rect class="cls-9" x="961.65" y="681.02" width="32.18" height="16.67" rx="2.43"></rect><rect class="cls-9" x="1046.34" y="681.02" width="32.18" height="16.67" rx="2.43"></rect><rect class="cls-9" x="960.47" y="722.15" width="12.67" height="7.06"></rect><rect class="cls-9" x="981.74" y="722.15" width="12.67" height="7.06"></rect><rect class="cls-9" x="1003.01" y="722.15" width="12.67" height="7.06"></rect><rect class="cls-9" x="1024.29" y="722.15" width="12.67" height="7.06"></rect><rect class="cls-9" x="1045.56" y="722.15" width="12.67" height="7.06"></rect><rect class="cls-9" x="1066.83" y="722.15" width="12.67" height="7.06"></rect><ellipse class="cls-4" cx="955.69" cy="767.23" rx="3.58" ry="3.42"></ellipse><circle class="cls-10" cx="701.19" cy="695.19" r="31.73"></circle><circle class="cls-5" cx="701.19" cy="695.19" r="31.73"></circle><circle class="cls-5" cx="701.19" cy="695.19" r="58.68"></circle><circle class="cls-3" cx="1199.94" cy="695.19" r="58.68"></circle><circle class="cls-10" cx="1199.94" cy="695.19" r="31.73"></circle><circle class="cls-5" cx="1199.94" cy="695.19" r="31.73"></circle><circle class="cls-5" cx="1199.94" cy="695.19" r="58.68"></circle><rect class="cls-11" x="611.95" y="758.24" width="96.27" height="76.93" rx="5.65"></rect><rect class="cls-12" x="619.98" y="766.02" width="81.22" height="63.33"></rect><rect class="cls-11" x="1148.46" y="744.83" width="131.01" height="106.62" rx="7.76"></rect><rect class="cls-12" x="1159.38" y="755.61" width="110.53" height="87.77"></rect><circle class="cls-10" cx="851.83" cy="822.6" r="39.11"></circle><circle class="cls-5" cx="851.83" cy="822.6" r="39.11"></circle><circle class="cls-3" cx="851.83" cy="822.6" r="27.72"></circle><circle class="cls-13" cx="851.83" cy="822.6" r="10.25"></circle><circle class="cls-3" cx="653.18" cy="901.7" r="30.44"></circle><circle class="cls-5" cx="653.18" cy="901.7" r="30.44"></circle><circle class="cls-10" cx="653.18" cy="901.7" r="17.92"></circle><circle class="cls-3" cx="653.18" cy="1266.93" r="30.44"></circle><circle class="cls-5" cx="653.18" cy="1266.93" r="30.44"></circle><circle class="cls-10" cx="653.18" cy="1266.93" r="17.92"></circle><circle class="cls-3" cx="1239.47" cy="1266.93" r="30.44"></circle><circle class="cls-5" cx="1239.47" cy="1266.93" r="30.44"></circle><circle class="cls-10" cx="1239.47" cy="1266.93" r="17.92"></circle><circle class="cls-3" cx="1239.47" cy="901.7" r="30.44"></circle><circle class="cls-5" cx="1239.47" cy="901.7" r="30.44"></circle><circle class="cls-10" cx="1239.47" cy="901.7" r="17.92"></circle><path class="cls-3" d="M757.94,621.44a4.23,4.23,0,0,0,4.23,4.24v4.81H715v-4.81a4.25,4.25,0,0,0,0-8.49v-4.81h47.19v4.81A4.24,4.24,0,0,0,757.94,621.44Z"></path><path class="cls-13" d="M723.37,612.38s-.17,18.11,0,18.11h28.37V612.38Z"></path><path class="cls-5" d="M757.94,621.44a4.23,4.23,0,0,0,4.23,4.24v4.81H715v-4.81a4.25,4.25,0,0,0,0-8.49v-4.81h47.19v4.81A4.24,4.24,0,0,0,757.94,621.44Z"></path><circle class="cls-5" cx="738.58" cy="621.43" r="5.42"></circle><path class="cls-3" d="M672.79,621.44a4.24,4.24,0,0,0,4.24,4.24v4.81H629.84v-4.81a4.25,4.25,0,0,0,0-8.49v-4.81H677v4.81A4.24,4.24,0,0,0,672.79,621.44Z"></path><path class="cls-13" d="M638.23,612.38s-.18,18.11,0,18.11H666.6V612.38Z"></path><path class="cls-5" d="M672.79,621.44a4.24,4.24,0,0,0,4.24,4.24v4.81H629.84v-4.81a4.25,4.25,0,0,0,0-8.49v-4.81H677v4.81A4.24,4.24,0,0,0,672.79,621.44Z"></path><circle class="cls-5" cx="653.43" cy="621.43" r="5.42"></circle><path class="cls-3" d="M622.73,691a4.23,4.23,0,0,0-4.23,4.24h-4.81V648h4.81a4.24,4.24,0,1,0,8.48,0h4.81v47.2H627A4.24,4.24,0,0,0,622.73,691Z"></path><path class="cls-13" d="M631.79,656.39s-18.1-.18-18.1,0v28.36h18.1Z"></path><path class="cls-5" d="M622.73,691a4.23,4.23,0,0,0-4.23,4.24h-4.81V648h4.81a4.24,4.24,0,1,0,8.48,0h4.81v47.2H627A4.24,4.24,0,0,0,622.73,691Z"></path><circle class="cls-5" cx="622.74" cy="671.59" r="5.42"></circle><path class="cls-4" d="M798.06,706.67h5.88a0,0,0,0,1,0,0v15.47a0,0,0,0,1,0,0h-5.88a2.93,2.93,0,0,1-2.93-2.93V709.6A2.93,2.93,0,0,1,798.06,706.67Z"></path><path class="cls-4" d="M821.88,706.67h5.88a0,0,0,0,1,0,0v15.47a0,0,0,0,1,0,0h-5.88a2.93,2.93,0,0,1-2.93-2.93V709.6A2.93,2.93,0,0,1,821.88,706.67Z" transform="translate(1646.71 1428.82) rotate(180)"></path><rect class="cls-14" x="805.18" y="706.67" width="12.56" height="15.47"></rect><rect class="cls-2" x="790.15" y="701.89" width="43.64" height="24.85" rx="1.77"></rect><path class="cls-4" d="M1049.48,791.86h5.88a0,0,0,0,1,0,0v15.47a0,0,0,0,1,0,0h-5.88a2.93,2.93,0,0,1-2.93-2.93v-9.61A2.93,2.93,0,0,1,1049.48,791.86Z"></path><path class="cls-4" d="M1073.29,791.86h5.88a0,0,0,0,1,0,0v15.47a0,0,0,0,1,0,0h-5.88a2.93,2.93,0,0,1-2.93-2.93v-9.61A2.93,2.93,0,0,1,1073.29,791.86Z" transform="translate(2149.54 1599.19) rotate(180)"></path><rect class="cls-14" x="1056.59" y="791.86" width="12.56" height="15.47"></rect><rect class="cls-2" x="1041.56" y="787.07" width="43.64" height="24.85" rx="1.77"></rect><path class="cls-4" d="M738.39,875.76h5.88a0,0,0,0,1,0,0v15.47a0,0,0,0,1,0,0h-5.88a2.93,2.93,0,0,1-2.93-2.93v-9.61A2.93,2.93,0,0,1,738.39,875.76Z" transform="translate(1623.36 143.63) rotate(90)"></path><path class="cls-4" d="M738.39,899.58h5.88a0,0,0,0,1,0,0v15.47a0,0,0,0,1,0,0h-5.88a2.93,2.93,0,0,1-2.93-2.93v-9.61A2.93,2.93,0,0,1,738.39,899.58Z" transform="translate(-167.45 1647.18) rotate(-90)"></path><rect class="cls-14" x="733.59" y="887.68" width="12.56" height="15.47" transform="translate(1635.28 155.55) rotate(90)"></rect><path class="cls-4" d="M715.89,1278.94h4.7a0,0,0,0,1,0,0v12.37a0,0,0,0,1,0,0h-4.7a2.34,2.34,0,0,1-2.34-2.34v-7.69A2.34,2.34,0,0,1,715.89,1278.94Z" transform="translate(2002.2 568.05) rotate(90)"></path><path class="cls-4" d="M715.89,1298h4.7a0,0,0,0,1,0,0v12.37a0,0,0,0,1,0,0h-4.7a2.34,2.34,0,0,1-2.34-2.34v-7.69A2.34,2.34,0,0,1,715.89,1298Z" transform="translate(-587.09 2021.24) rotate(-90)"></path><rect class="cls-14" x="712.05" y="1288.47" width="10.04" height="12.37" transform="translate(2011.73 577.58) rotate(90)"></rect><path class="cls-4" d="M736.14,1278.94h4.7a0,0,0,0,1,0,0v12.37a0,0,0,0,1,0,0h-4.7a2.34,2.34,0,0,1-2.34-2.34v-7.69A2.34,2.34,0,0,1,736.14,1278.94Z" transform="translate(2022.45 547.8) rotate(90)"></path><path class="cls-4" d="M736.14,1298h4.7a0,0,0,0,1,0,0v12.37a0,0,0,0,1,0,0h-4.7a2.34,2.34,0,0,1-2.34-2.34v-7.69A2.34,2.34,0,0,1,736.14,1298Z" transform="translate(-566.84 2041.49) rotate(-90)"></path><rect class="cls-14" x="732.3" y="1288.47" width="10.04" height="12.37" transform="translate(2031.98 557.33) rotate(90)"></rect><path class="cls-4" d="M756.39,1278.94h4.7a0,0,0,0,1,0,0v12.37a0,0,0,0,1,0,0h-4.7a2.34,2.34,0,0,1-2.34-2.34v-7.69A2.34,2.34,0,0,1,756.39,1278.94Z" transform="translate(2042.7 527.55) rotate(90)"></path><path class="cls-4" d="M756.39,1298h4.7a0,0,0,0,1,0,0v12.37a0,0,0,0,1,0,0h-4.7a2.34,2.34,0,0,1-2.34-2.34v-7.69A2.34,2.34,0,0,1,756.39,1298Z" transform="translate(-546.59 2061.74) rotate(-90)"></path><rect class="cls-14" x="752.55" y="1288.47" width="10.04" height="12.37" transform="translate(2052.23 537.08) rotate(90)"></rect><path class="cls-4" d="M800.08,1278.94h4.7a0,0,0,0,1,0,0v12.37a0,0,0,0,1,0,0h-4.7a2.34,2.34,0,0,1-2.34-2.34v-7.69A2.34,2.34,0,0,1,800.08,1278.94Z" transform="translate(2086.38 483.87) rotate(90)"></path><path class="cls-4" d="M800.08,1298h4.7a0,0,0,0,1,0,0v12.37a0,0,0,0,1,0,0h-4.7a2.34,2.34,0,0,1-2.34-2.34v-7.69A2.34,2.34,0,0,1,800.08,1298Z" transform="translate(-502.91 2105.42) rotate(-90)"></path><rect class="cls-14" x="796.24" y="1288.47" width="10.04" height="12.37" transform="translate(2095.91 493.4) rotate(90)"></rect><path class="cls-4" d="M820.33,1278.94H825a0,0,0,0,1,0,0v12.37a0,0,0,0,1,0,0h-4.7A2.34,2.34,0,0,1,818,1289v-7.69A2.34,2.34,0,0,1,820.33,1278.94Z" transform="translate(2106.63 463.62) rotate(90)"></path><path class="cls-4" d="M820.33,1298H825a0,0,0,0,1,0,0v12.37a0,0,0,0,1,0,0h-4.7A2.34,2.34,0,0,1,818,1308v-7.69A2.34,2.34,0,0,1,820.33,1298Z" transform="translate(-482.66 2125.67) rotate(-90)"></path><rect class="cls-14" x="816.49" y="1288.47" width="10.04" height="12.37" transform="translate(2116.16 473.15) rotate(90)"></rect><path class="cls-4" d="M840.58,1278.94h4.7a0,0,0,0,1,0,0v12.37a0,0,0,0,1,0,0h-4.7a2.34,2.34,0,0,1-2.34-2.34v-7.69A2.34,2.34,0,0,1,840.58,1278.94Z" transform="translate(2126.88 443.37) rotate(90)"></path><path class="cls-4" d="M840.58,1298h4.7a0,0,0,0,1,0,0v12.37a0,0,0,0,1,0,0h-4.7a2.34,2.34,0,0,1-2.34-2.34v-7.69A2.34,2.34,0,0,1,840.58,1298Z" transform="translate(-462.41 2145.92) rotate(-90)"></path><rect class="cls-14" x="836.74" y="1288.47" width="10.04" height="12.37" transform="translate(2136.41 452.9) rotate(90)"></rect><path class="cls-4" d="M860.49,1264.26h4.7a0,0,0,0,1,0,0v12.37a0,0,0,0,1,0,0h-4.7a2.34,2.34,0,0,1-2.34-2.34v-7.69A2.34,2.34,0,0,1,860.49,1264.26Z" transform="translate(2132.12 408.78) rotate(90)"></path><path class="cls-4" d="M860.49,1283.31h4.7a0,0,0,0,1,0,0v12.37a0,0,0,0,1,0,0h-4.7a2.34,2.34,0,0,1-2.34-2.34v-7.69A2.34,2.34,0,0,1,860.49,1283.31Z" transform="translate(-427.82 2151.17) rotate(-90)"></path><rect class="cls-14" x="856.65" y="1273.8" width="10.04" height="12.37" transform="translate(2141.66 418.31) rotate(90)"></rect><path class="cls-4" d="M880.74,1264.26h4.7a0,0,0,0,1,0,0v12.37a0,0,0,0,1,0,0h-4.7a2.34,2.34,0,0,1-2.34-2.34v-7.69A2.34,2.34,0,0,1,880.74,1264.26Z" transform="translate(2152.37 388.53) rotate(90)"></path><path class="cls-4" d="M880.74,1283.31h4.7a0,0,0,0,1,0,0v12.37a0,0,0,0,1,0,0h-4.7a2.34,2.34,0,0,1-2.34-2.34v-7.69A2.34,2.34,0,0,1,880.74,1283.31Z" transform="translate(-407.57 2171.42) rotate(-90)"></path><rect class="cls-14" x="876.9" y="1273.8" width="10.04" height="12.37" transform="translate(2161.91 398.06) rotate(90)"></rect><path class="cls-4" d="M950.41,1278.82h4.7a0,0,0,0,1,0,0v12.37a0,0,0,0,1,0,0h-4.7a2.34,2.34,0,0,1-2.34-2.34v-7.69A2.34,2.34,0,0,1,950.41,1278.82Z" transform="translate(1903.18 2570) rotate(-180)"></path><path class="cls-4" d="M931.37,1278.82h4.7a0,0,0,0,1,0,0v12.37a0,0,0,0,1,0,0h-4.7a2.34,2.34,0,0,1-2.34-2.34v-7.69A2.34,2.34,0,0,1,931.37,1278.82Z"></path><rect class="cls-14" x="937.04" y="1278.82" width="10.04" height="12.37" transform="translate(1884.11 2570) rotate(180)"></rect><path class="cls-4" d="M788.53,883.76h5.88a0,0,0,0,1,0,0v15.47a0,0,0,0,1,0,0h-5.88a2.93,2.93,0,0,1-2.93-2.93v-9.61A2.93,2.93,0,0,1,788.53,883.76Z" transform="translate(1580 1783) rotate(180)"></path><path class="cls-4" d="M764.71,883.76h5.88a0,0,0,0,1,0,0v15.47a0,0,0,0,1,0,0h-5.88a2.93,2.93,0,0,1-2.93-2.93v-9.61A2.93,2.93,0,0,1,764.71,883.76Z"></path><rect class="cls-3" x="771.8" y="883.76" width="12.56" height="15.47" transform="translate(1556.16 1783) rotate(180)"></rect><path class="cls-4" d="M894,883.76h5.88a0,0,0,0,1,0,0v15.47a0,0,0,0,1,0,0H894a2.93,2.93,0,0,1-2.93-2.93v-9.61A2.93,2.93,0,0,1,894,883.76Z" transform="translate(1790.88 1783) rotate(180)"></path><path class="cls-4" d="M870.15,883.76H876a0,0,0,0,1,0,0v15.47a0,0,0,0,1,0,0h-5.88a2.93,2.93,0,0,1-2.93-2.93v-9.61A2.93,2.93,0,0,1,870.15,883.76Z"></path><rect class="cls-3" x="877.24" y="883.76" width="12.56" height="15.47" transform="translate(1767.04 1783) rotate(180)"></rect><path class="cls-4" d="M727.43,754.94h5.88a0,0,0,0,1,0,0v15.47a0,0,0,0,1,0,0h-5.88a2.93,2.93,0,0,1-2.93-2.93v-9.61A2.93,2.93,0,0,1,727.43,754.94Z" transform="translate(1491.58 33.77) rotate(90)"></path><path class="cls-4" d="M727.43,778.76h5.88a0,0,0,0,1,0,0v15.47a0,0,0,0,1,0,0h-5.88a2.93,2.93,0,0,1-2.93-2.93v-9.61A2.93,2.93,0,0,1,727.43,778.76Z" transform="translate(-57.59 1515.4) rotate(-90)"></path><rect class="cls-14" x="722.63" y="766.86" width="12.56" height="15.47" transform="translate(1503.5 45.69) rotate(90)"></rect><rect class="cls-2" x="707.18" y="762.68" width="43.64" height="24.85" rx="1.77" transform="translate(1504.11 46.11) rotate(90)"></rect><path class="cls-4" d="M727.43,802.43h5.88a0,0,0,0,1,0,0v15.47a0,0,0,0,1,0,0h-5.88A2.93,2.93,0,0,1,724.5,815v-9.61A2.93,2.93,0,0,1,727.43,802.43Z" transform="translate(1539.07 81.26) rotate(90)"></path><path class="cls-4" d="M727.43,826.25h5.88a0,0,0,0,1,0,0v15.47a0,0,0,0,1,0,0h-5.88a2.93,2.93,0,0,1-2.93-2.93v-9.61A2.93,2.93,0,0,1,727.43,826.25Z" transform="translate(-105.08 1562.89) rotate(-90)"></path><rect class="cls-14" x="722.63" y="814.35" width="12.56" height="15.47" transform="translate(1551 93.19) rotate(90)"></rect><rect class="cls-2" x="707.18" y="810.17" width="43.64" height="24.85" rx="1.77" transform="translate(1551.6 93.6) rotate(90)"></rect><rect class="cls-2" x="846.53" y="701.89" width="43.64" height="24.85" rx="1.77"></rect><rect class="cls-4" x="851.83" y="706.16" width="13.22" height="17" rx="1.54"></rect><rect class="cls-4" x="872.73" y="706.16" width="13.22" height="17" rx="1.54"></rect><rect class="cls-3" x="858.43" y="708.28" width="21.96" height="12.5"></rect><rect class="cls-14" x="763.84" y="746.46" width="14.25" height="32.44"></rect><rect class="cls-4" x="747.69" y="758.27" width="13.81" height="8.81" rx="1.1"></rect><rect class="cls-4" x="780.01" y="747.5" width="16.61" height="8.81" rx="1.1"></rect><rect class="cls-4" x="780.01" y="770.09" width="16.61" height="8.81" rx="1.1"></rect><polyline class="cls-2" points="759.88 754.44 759.88 742.96 776.89 742.96"></polyline><polyline class="cls-2" points="759.88 772.52 759.88 784 776.89 784"></polyline><rect class="cls-14" x="763.84" y="813.67" width="14.25" height="32.44"></rect><rect class="cls-4" x="747.69" y="825.48" width="13.81" height="8.81" rx="1.1"></rect><rect class="cls-4" x="780.01" y="814.7" width="16.61" height="8.81" rx="1.1"></rect><rect class="cls-4" x="780.01" y="837.29" width="16.61" height="8.81" rx="1.1"></rect><polyline class="cls-2" points="759.88 821.65 759.88 810.17 776.89 810.17"></polyline><polyline class="cls-2" points="759.88 839.73 759.88 851.21 776.89 851.21"></polyline><polygon class="cls-4" points="802.2 774.49 816.4 767.24 816.4 780.88 802.2 774.49"></polygon><rect class="cls-4" x="806.35" y="883.5" width="14.53" height="11.2" rx="2.43"></rect><rect class="cls-4" x="840.52" y="883.5" width="14.53" height="11.2" rx="2.43"></rect><rect class="cls-4" x="915.81" y="883.5" width="13.14" height="11.2" rx="2.31"></rect><rect class="cls-4" x="935.77" y="883.5" width="13.14" height="11.2" rx="2.31"></rect><circle class="cls-3" cx="1183.64" cy="901.7" r="7.97"></circle><circle class="cls-3" cx="1183.64" cy="1274.96" r="7.97"></circle><path class="cls-15" d="M1187.39,939.17H822a9.25,9.25,0,0,0-9.25,9.24v76.85a9.24,9.24,0,0,1-9.24,9.24H725a9.25,9.25,0,0,0-9.24,9.25v196.53a9.24,9.24,0,0,0,9.24,9.24H1080.4a9.25,9.25,0,0,0,9.25-9.24v-73.67a9.24,9.24,0,0,1,9.24-9.24h88.5a9.25,9.25,0,0,0,9.25-9.24V948.41A9.25,9.25,0,0,0,1187.39,939.17Zm-3.63,205.33h-84.87a22.14,22.14,0,0,0-22.11,22.11v70H728.6V1047.37h74.87a22.15,22.15,0,0,0,22.12-22.11V952h358.17Z"></path><path class="cls-16" d="M1183.76,952V1144.5h-84.87a22.14,22.14,0,0,0-22.11,22.11v70H728.6V1047.37h74.87a22.15,22.15,0,0,0,22.12-22.11V952Z"></path><path class="cls-5" d="M1196.64,948.41v199.71a9.25,9.25,0,0,1-9.25,9.25H1098.9a9.25,9.25,0,0,0-9.25,9.25v73.65a9.25,9.25,0,0,1-9.25,9.25H725a9.25,9.25,0,0,1-9.25-9.25V1043.75a9.25,9.25,0,0,1,9.25-9.25h78.49a9.25,9.25,0,0,0,9.24-9.25V948.41a9.25,9.25,0,0,1,9.25-9.24h365.43A9.25,9.25,0,0,1,1196.64,948.41Z"></path><rect class="cls-7" x="728.6" y="935.66" width="65.81" height="59.69" rx="1.97"></rect><circle class="cls-17" cx="759.88" cy="964.11" r="19.86"></circle><rect class="cls-16" x="730.38" y="927.5" width="15.11" height="7.04" rx="1.1"></rect><rect class="cls-16" x="776.8" y="927.5" width="15.11" height="7.04" rx="1.1"></rect><rect class="cls-16" x="747.6" y="927.5" width="25.03" height="7.04" rx="1.41"></rect><rect class="cls-16" x="716.52" y="984.08" width="14.54" height="7.04" rx="1.08" transform="translate(-263.82 1711.39) rotate(-90)"></rect><rect class="cls-16" x="716.52" y="939.41" width="14.54" height="7.04" rx="1.08" transform="translate(-219.15 1666.72) rotate(-90)"></rect><rect class="cls-16" x="711.74" y="962.74" width="24.09" height="7.04" rx="1.39" transform="translate(-242.47 1690.04) rotate(-90)"></rect><rect class="cls-16" x="792.67" y="984.08" width="14.54" height="7.04" rx="1.08" transform="translate(-187.66 1787.55) rotate(-90)"></rect><rect class="cls-16" x="792.67" y="939.41" width="14.54" height="7.04" rx="1.08" transform="translate(-142.99 1742.87) rotate(-90)"></rect><rect class="cls-16" x="787.9" y="962.74" width="24.09" height="7.04" rx="1.39" transform="translate(-166.31 1766.2) rotate(-90)"></rect><rect class="cls-7" x="1123.57" y="1193.75" width="55.78" height="55.78" rx="5.99"></rect><circle class="cls-17" cx="1151.46" cy="1221.63" r="19.86"></circle><rect class="cls-14" x="1110.89" y="1203.85" width="8.51" height="37.64" rx="2.8"></rect><rect class="cls-14" x="1107.76" y="1183.99" width="15.8" height="9.76" rx="2.8"></rect><rect class="cls-14" x="1147.5" y="1177.74" width="10.79" height="7.38"></rect><rect class="cls-14" x="1171.32" y="1177.74" width="10.81" height="6.24"></rect><rect class="cls-4" x="807.53" y="904.52" width="20.19" height="22.99" rx="4.17"></rect><rect class="cls-4" x="832.68" y="904.52" width="20.19" height="22.99" rx="4.17"></rect><rect class="cls-4" x="857.83" y="904.52" width="20.19" height="22.99" rx="4.17"></rect><rect class="cls-4" x="882.97" y="904.52" width="20.19" height="22.99" rx="4.17"></rect><rect class="cls-4" x="908.12" y="904.52" width="20.19" height="22.99" rx="4.17"></rect><rect class="cls-4" x="933.27" y="904.52" width="20.19" height="22.99" rx="4.17"></rect><rect class="cls-4" x="958.41" y="904.52" width="20.19" height="22.99" rx="4.17"></rect><rect class="cls-4" x="983.56" y="904.52" width="20.19" height="22.99" rx="4.17"></rect><rect class="cls-4" x="1008.71" y="904.52" width="20.19" height="22.99" rx="4.17"></rect><rect class="cls-4" x="1033.85" y="904.52" width="20.19" height="22.99" rx="4.17"></rect><rect class="cls-4" x="1059" y="904.52" width="20.19" height="22.99" rx="4.17"></rect><rect class="cls-4" x="1084.15" y="904.52" width="20.19" height="22.99" rx="4.17"></rect><rect class="cls-4" x="1109.3" y="904.52" width="20.19" height="22.99" rx="4.17"></rect><rect class="cls-4" x="751.02" y="1255.43" width="20.19" height="16.44" rx="3.53"></rect><rect class="cls-4" x="776.17" y="1255.43" width="20.19" height="16.44" rx="3.53"></rect><rect class="cls-4" x="801.31" y="1255.43" width="20.19" height="16.44" rx="3.53"></rect><rect class="cls-4" x="826.46" y="1255.43" width="20.19" height="16.44" rx="3.53"></rect><rect class="cls-4" x="851.61" y="1255.43" width="20.19" height="16.44" rx="3.53"></rect><rect class="cls-4" x="876.75" y="1255.43" width="20.19" height="16.44" rx="3.53"></rect><rect class="cls-4" x="901.9" y="1255.43" width="20.19" height="16.44" rx="3.53"></rect><rect class="cls-4" x="927.05" y="1255.43" width="20.19" height="16.44" rx="3.53"></rect><rect class="cls-4" x="952.2" y="1255.43" width="20.19" height="16.44" rx="3.53"></rect><rect class="cls-4" x="977.34" y="1255.43" width="20.19" height="16.44" rx="3.53"></rect><rect class="cls-4" x="1002.49" y="1255.43" width="20.19" height="16.44" rx="3.53"></rect><rect class="cls-4" x="1027.64" y="1255.43" width="20.19" height="16.44" rx="3.53"></rect><rect class="cls-4" x="1052.78" y="1255.43" width="20.19" height="16.44" rx="3.53"></rect><rect class="cls-4" x="685.01" y="957.07" width="20.19" height="22.99" rx="4.17" transform="translate(1663.67 273.46) rotate(90)"></rect><rect class="cls-4" x="685.01" y="982.22" width="20.19" height="22.99" rx="4.17" transform="translate(1688.82 298.6) rotate(90)"></rect><rect class="cls-4" x="685.01" y="1007.36" width="20.19" height="22.99" rx="4.17" transform="translate(1713.96 323.75) rotate(90)"></rect><rect class="cls-4" x="685.01" y="1032.51" width="20.19" height="22.99" rx="4.17" transform="translate(1739.11 348.9) rotate(90)"></rect><rect class="cls-4" x="685.01" y="1057.66" width="20.19" height="22.99" rx="4.17" transform="translate(1764.26 374.04) rotate(90)"></rect><rect class="cls-4" x="685.01" y="1082.8" width="20.19" height="22.99" rx="4.17" transform="translate(1789.4 399.19) rotate(90)"></rect><rect class="cls-4" x="685.01" y="1107.95" width="20.19" height="22.99" rx="4.17" transform="translate(1814.55 424.34) rotate(90)"></rect><rect class="cls-4" x="685.01" y="1133.1" width="20.19" height="22.99" rx="4.17" transform="translate(1839.7 449.48) rotate(90)"></rect><rect class="cls-4" x="685.01" y="1158.24" width="20.19" height="22.99" rx="4.17" transform="translate(1864.84 474.63) rotate(90)"></rect><rect class="cls-4" x="685.01" y="1183.39" width="20.19" height="22.99" rx="4.17" transform="translate(1889.99 499.78) rotate(90)"></rect><rect class="cls-4" x="685.01" y="1208.54" width="20.19" height="22.99" rx="4.17" transform="translate(1915.14 524.93) rotate(90)"></rect><rect class="cls-4" x="1204.55" y="957.07" width="20.19" height="22.99" rx="4.17" transform="translate(2183.21 -246.08) rotate(90)"></rect><rect class="cls-4" x="1204.55" y="982.22" width="20.19" height="22.99" rx="4.17" transform="translate(2208.36 -220.94) rotate(90)"></rect><rect class="cls-4" x="1204.55" y="1007.36" width="20.19" height="22.99" rx="4.17" transform="translate(2233.5 -195.79) rotate(90)"></rect><rect class="cls-4" x="1204.55" y="1032.51" width="20.19" height="22.99" rx="4.17" transform="translate(2258.65 -170.64) rotate(90)"></rect><rect class="cls-4" x="1204.55" y="1057.66" width="20.19" height="22.99" rx="4.17" transform="translate(2283.8 -145.5) rotate(90)"></rect><rect class="cls-4" x="1204.55" y="1082.8" width="20.19" height="22.99" rx="4.17" transform="translate(2308.94 -120.35) rotate(90)"></rect><rect class="cls-4" x="1204.55" y="1107.95" width="20.19" height="22.99" rx="4.17" transform="translate(2334.09 -95.2) rotate(90)"></rect><rect class="cls-4" x="1204.55" y="1133.1" width="20.19" height="22.99" rx="4.17" transform="translate(2359.24 -70.05) rotate(90)"></rect><rect class="cls-4" x="1204.55" y="1183.39" width="20.19" height="22.99" rx="4.17" transform="translate(2409.53 -19.76) rotate(90)"></rect><rect class="cls-4" x="1204.55" y="1208.54" width="20.19" height="22.99" rx="4.17" transform="translate(2434.68 5.39) rotate(90)"></rect><circle class="cls-3" cx="648.33" cy="974.36" r="19.23"></circle><circle class="cls-4" cx="648.33" cy="974.36" r="13.06"></circle><circle class="cls-5" cx="648.33" cy="974.36" r="19.23"></circle><circle class="cls-3" cx="648.33" cy="1028.95" r="19.23"></circle><circle class="cls-4" cx="648.33" cy="1028.95" r="13.06"></circle><circle class="cls-5" cx="648.33" cy="1028.95" r="19.23"></circle><circle class="cls-3" cx="648.33" cy="1083.55" r="19.23"></circle><circle class="cls-4" cx="648.33" cy="1083.55" r="13.06"></circle><circle class="cls-5" cx="648.33" cy="1083.55" r="19.23"></circle><circle class="cls-3" cx="648.33" cy="1138.14" r="19.23"></circle><circle class="cls-4" cx="648.33" cy="1138.14" r="13.06"></circle><circle class="cls-4" cx="648.33" cy="1197.85" r="13.06"></circle><circle class="cls-5" cx="648.33" cy="1138.14" r="19.23"></circle><rect class="cls-5" x="631.36" y="1180.46" width="34.76" height="34.76"></rect><rect class="cls-3" x="1220.88" y="1326.77" width="34.76" height="34.76" transform="translate(-105.89 2582.42) rotate(-90)"></rect><circle class="cls-3" cx="1069.37" cy="1344.57" r="19.23"></circle><circle class="cls-4" cx="1069.37" cy="1344.57" r="13.06"></circle><circle class="cls-5" cx="1069.37" cy="1344.57" r="19.23"></circle><circle class="cls-3" cx="1123.96" cy="1344.57" r="19.23"></circle><circle class="cls-4" cx="1123.96" cy="1344.57" r="13.06"></circle><circle class="cls-5" cx="1123.96" cy="1344.57" r="19.23"></circle><circle class="cls-3" cx="1178.56" cy="1344.57" r="19.23"></circle><circle class="cls-4" cx="1178.56" cy="1344.57" r="13.06"></circle><circle class="cls-4" cx="1238.26" cy="1344.57" r="13.06"></circle><circle class="cls-5" cx="1178.56" cy="1344.57" r="19.23"></circle><rect class="cls-5" x="1220.88" y="1326.77" width="34.76" height="34.76" transform="translate(-105.89 2582.42) rotate(-90)"></rect><circle class="cls-3" cx="708.21" cy="892.87" r="9.78"></circle><polygon class="cls-4" points="710.4 861.71 672.68 861.71 691.54 842.85 710.4 861.71"></polygon><polygon class="cls-4" points="1252.96 725.68 1280.87 725.68 1266.92 744.54 1252.96 725.68"></polygon><polyline class="cls-2" points="614.59 842.85 712.03 842.85 712.03 756.31"></polyline><line class="cls-2" x1="614.59" y1="753.87" x2="679.75" y2="753.87"></line><line class="cls-2" x1="613.69" y1="704.61" x2="631.79" y2="704.61"></line><line class="cls-2" x1="688.67" y1="612.38" x2="688.67" y2="628.07"></line><line class="cls-2" x1="705.88" y1="612.38" x2="705.88" y2="628.07"></line><polyline class="cls-2" points="787.99 623.7 787.99 613.07 799.54 613.07"></polyline><polyline class="cls-2" points="887.39 613.07 897.01 613.07 897.01 623.03"></polyline><line class="cls-2" x1="897.01" y1="655.77" x2="897.01" y2="688.51"></line><rect class="cls-12" x="792.51" y="636.5" width="93.43" height="33.9" rx="3.61"></rect><path class="cls-12" d="M807.41,667.68h59.84a0,0,0,0,1,0,0v12.95a3.23,3.23,0,0,1-3.23,3.23H810.64a3.23,3.23,0,0,1-3.23-3.23V667.68A0,0,0,0,1,807.41,667.68Z"></path><path class="cls-3" d="M1012.92,1369H897.31c.07-.4.14-.8.22-1.2.26-1.31.56-2.61.9-3.89a56.28,56.28,0,0,1,1.77-5.47c.22-.61.46-1.22.71-1.82.07-.18.14-.34.22-.51s.28-.65.43-1,.37-.8.55-1.19.38-.79.58-1.19c.4-.78.81-1.55,1.24-2.31s.86-1.51,1.33-2.25.94-1.46,1.43-2.19c.25-.35.49-.71.75-1.06s.49-.68.75-1c.85-1.15,1.76-2.27,2.7-3.34.28-.31.55-.63.84-.94.57-.62,1.14-1.23,1.74-1.82l.88-.89a62.16,62.16,0,0,1,4.77-4.13c.89-.69,1.8-1.35,2.72-2l1.37-.91,1.08-.68c.35-.22.71-.44,1.08-.65l1.1-.64c.36-.21.73-.4,1.11-.6l1.12-.59,1.15-.56,1.14-.53,1-.45c.24-.12.48-.21.72-.31s.74-.3,1.11-.44a56.56,56.56,0,0,1,6.83-2.18l1.26-.3c.44-.11.9-.21,1.36-.3s.79-.16,1.19-.23c1.72-.32,3.46-.56,5.23-.71.66-.06,1.32-.12,2-.14s1.18-.07,1.78-.09l1.61,0,1.62,0c.59,0,1.19,0,1.78.09s1.32.08,2,.14c1.77.15,3.51.39,5.23.71.4.07.8.14,1.2.23s.91.19,1.35.3.85.2,1.27.3a55.85,55.85,0,0,1,6.82,2.18c.39.14.75.29,1.12.44l.72.31,1,.45,1.15.53,1.14.56,1.13.59c.37.2.75.39,1.11.6l1.1.64,1.07.65c.37.22.73.45,1.08.68s.91.6,1.37.91c.92.65,1.84,1.31,2.73,2a60.17,60.17,0,0,1,4.76,4.13l.89.89c.6.59,1.17,1.2,1.73,1.82.29.31.56.63.84.94.94,1.07,1.85,2.19,2.71,3.34l.75,1,.74,1.06c.5.73,1,1.45,1.43,2.19s.91,1.49,1.34,2.25.84,1.53,1.24,2.31l.57,1.19c.19.39.37.79.55,1.19s.29.66.43,1,.15.33.22.51c.25.59.5,1.2.72,1.82.68,1.78,1.26,3.61,1.77,5.47.33,1.28.64,2.58.9,3.89C1012.78,1368.2,1012.85,1368.6,1012.92,1369Z"></path><path class="cls-10" d="M985.17,1369H925.05a31.73,31.73,0,0,1,60.12,0Z"></path><path class="cls-5" d="M1012.92,1369H897.31c.07-.4.14-.8.22-1.2.26-1.31.56-2.61.9-3.89a56.28,56.28,0,0,1,1.77-5.47c.22-.61.46-1.22.71-1.82.07-.18.14-.34.22-.51s.28-.65.43-1,.37-.8.55-1.19.38-.79.58-1.19c.4-.78.81-1.55,1.24-2.31s.86-1.51,1.33-2.25.94-1.46,1.43-2.19c.25-.35.49-.71.75-1.06s.49-.68.75-1c.85-1.15,1.76-2.27,2.7-3.34.28-.31.55-.63.84-.94.57-.62,1.14-1.23,1.74-1.82l.88-.89a62.16,62.16,0,0,1,4.77-4.13c.89-.68,1.8-1.34,2.72-2l1.37-.91,1.08-.68c.35-.22.71-.44,1.08-.65l1.1-.64c.36-.21.73-.4,1.11-.6l1.12-.59,1.15-.56,1.14-.53,1-.45c.24-.12.48-.21.72-.31s.74-.3,1.11-.44a56.56,56.56,0,0,1,6.83-2.18l1.26-.3c.44-.11.9-.21,1.36-.3s.79-.16,1.19-.23c1.72-.32,3.46-.56,5.23-.71.66-.06,1.32-.12,2-.14s1.18-.07,1.78-.09l1.61,0,1.62,0c.59,0,1.19,0,1.78.09s1.32.08,2,.14c1.77.15,3.51.39,5.23.71.4.07.8.14,1.2.23s.91.19,1.35.3.85.2,1.27.3a55.85,55.85,0,0,1,6.82,2.18c.39.14.75.29,1.12.44l.72.31,1,.45,1.15.53,1.14.56,1.13.59c.37.2.75.39,1.11.6l1.1.64,1.07.65c.37.22.73.45,1.08.68s.91.6,1.37.91c.92.65,1.84,1.31,2.73,2a60.17,60.17,0,0,1,4.76,4.13l.89.89c.6.59,1.17,1.2,1.73,1.82.29.31.56.63.84.94.94,1.07,1.85,2.19,2.71,3.34l.75,1,.74,1.06c.5.73,1,1.45,1.43,2.19s.91,1.49,1.34,2.25.84,1.53,1.24,2.31l.57,1.19c.19.39.37.79.55,1.19s.29.66.43,1,.15.33.22.51c.25.59.5,1.2.72,1.82.68,1.78,1.26,3.61,1.77,5.47.33,1.28.64,2.58.9,3.89C1012.78,1368.2,1012.85,1368.6,1012.92,1369Z"></path><polygon class="cls-4" points="1257.39 1001.27 1273.92 1001.27 1273.92 1177.74 1257.39 1177.74 1257.39 1119.44 1239.47 1089.51 1257.39 1061.63 1257.39 1001.27"></polygon><path class="cls-18" d="M937.26,1102.31v-18h7.21a8.8,8.8,0,0,1,3.31.49,3.73,3.73,0,0,1,1.81,1.71,5.51,5.51,0,0,1,.68,2.71,4.79,4.79,0,0,1-1.13,3.22,5.4,5.4,0,0,1-3.46,1.66,5.69,5.69,0,0,1,1.3.9,12.4,12.4,0,0,1,1.79,2.39l2.83,4.89h-2.71l-2.15-3.74c-.63-1.08-1.15-1.9-1.56-2.48a5.1,5.1,0,0,0-1.09-1.2,3.26,3.26,0,0,0-1-.47,5.69,5.69,0,0,0-1.2-.09h-2.5v8Zm2.15-10H944a6.26,6.26,0,0,0,2.31-.34,2.5,2.5,0,0,0,1.26-1.07,3.13,3.13,0,0,0,.43-1.61,2.81,2.81,0,0,0-.83-2.1,3.66,3.66,0,0,0-2.65-.82h-5.15Z"></path><path class="cls-18" d="M951.85,1102.31l6.25-18h2.32l6.66,18h-2.46l-1.89-5.44h-6.81l-1.78,5.44Zm4.7-7.38h5.51l-1.7-5c-.52-1.51-.9-2.76-1.15-3.73a24.67,24.67,0,0,1-.88,3.43Z"></path><path class="cls-18" d="M968.71,1102.31v-18h2.15v8.91l8.08-8.91h2.92l-6.83,7.28,7.13,10.69h-2.84l-5.79-9.1-2.67,2.87v6.23Z"></path><path class="cls-18" d="M997.46,1102.31h-3.12v-13a10.48,10.48,0,0,1-4,2.61v-3.12a8.83,8.83,0,0,0,2.66-1.68,6.28,6.28,0,0,0,2-2.87h2.53Z"></path><path class="cls-18" d="M1008.85,1102.31h-3.12v-13a10.48,10.48,0,0,1-4,2.61v-3.12a8.8,8.8,0,0,0,2.65-1.68,6.3,6.3,0,0,0,2-2.87h2.53Z"></path><path class="cls-18" d="M1013.4,1097.54l3-.4a3.26,3.26,0,0,0,.77,1.94,2.05,2.05,0,0,0,3.16-.13,3.36,3.36,0,0,0,.66-2.18,3.13,3.13,0,0,0-.63-2.06,1.93,1.93,0,0,0-1.55-.76,5.06,5.06,0,0,0-1.43.26l.35-2.81a2.58,2.58,0,0,0,1.93-.6,2.28,2.28,0,0,0,.66-1.71,2.1,2.1,0,0,0-.48-1.45,1.68,1.68,0,0,0-1.3-.54,1.82,1.82,0,0,0-1.37.61,3.09,3.09,0,0,0-.69,1.79l-2.87-.54a7.65,7.65,0,0,1,.9-2.6,4.25,4.25,0,0,1,1.69-1.53,5.24,5.24,0,0,1,2.43-.56,4.61,4.61,0,0,1,3.68,1.62,4.46,4.46,0,0,1,1.14,3,4.26,4.26,0,0,1-2.34,3.77,3.79,3.79,0,0,1,2.24,1.48,4.61,4.61,0,0,1,.83,2.79,5.69,5.69,0,0,1-1.56,4,5.45,5.45,0,0,1-7.56.26A5.7,5.7,0,0,1,1013.4,1097.54Z"></path><path class="cls-18" d="M1031.42,1084.27a4.28,4.28,0,0,1,3.69,1.86q1.59,2.2,1.59,7.32t-1.6,7.32a4.27,4.27,0,0,1-3.68,1.84,4.52,4.52,0,0,1-3.83-2c-1-1.35-1.45-3.74-1.45-7.19s.53-5.81,1.6-7.3A4.26,4.26,0,0,1,1031.42,1084.27Zm0,2.86a1.47,1.47,0,0,0-1,.39,2.76,2.76,0,0,0-.69,1.43,22.06,22.06,0,0,0-.32,4.5,21.63,21.63,0,0,0,.29,4.34,3.22,3.22,0,0,0,.72,1.58,1.49,1.49,0,0,0,1,.39,1.45,1.45,0,0,0,1-.4,2.88,2.88,0,0,0,.69-1.43,32.12,32.12,0,0,0,0-8.83,3.18,3.18,0,0,0-.73-1.58A1.45,1.45,0,0,0,1031.42,1087.13Z"></path><path class="cls-18" d="M1044.06,1084.27a4.28,4.28,0,0,1,3.69,1.86q1.59,2.2,1.59,7.32t-1.6,7.32a4.27,4.27,0,0,1-3.68,1.84,4.5,4.5,0,0,1-3.83-2c-1-1.35-1.45-3.74-1.45-7.19s.53-5.81,1.59-7.3A4.27,4.27,0,0,1,1044.06,1084.27Zm0,2.86a1.49,1.49,0,0,0-1,.39,2.76,2.76,0,0,0-.69,1.43,22.06,22.06,0,0,0-.32,4.5,20.88,20.88,0,0,0,.29,4.34,3.13,3.13,0,0,0,.73,1.58,1.48,1.48,0,0,0,2,0,2.88,2.88,0,0,0,.69-1.43,32.12,32.12,0,0,0,0-8.83,3.27,3.27,0,0,0-.73-1.58A1.45,1.45,0,0,0,1044.06,1087.13Z"></path><path class="cls-18" d="M881.87,1018.43a15.66,15.66,0,0,0-9,.8s-2.24-4.2-1.52-12.68c.28-3.2.84-7.53,4.65-8.18l.17,0c1.69-.25,3.8-.05,4.92,1.42a5.27,5.27,0,0,1,.85,4C880.79,1013.8,882.27,1018.38,881.87,1018.43Z"></path><path class="cls-18" d="M864.82,997.36a4.1,4.1,0,0,1,3.8,5.19,23.8,23.8,0,0,0-.57,7.53c.48,7.67,3.1,10.38,3.1,10.38s-2.7,2.31-2.62,4.87a28.54,28.54,0,0,1-8.38-22.94,5.81,5.81,0,0,1,1.66-3.78,4.3,4.3,0,0,1,2.49-1.22A4.53,4.53,0,0,1,864.82,997.36Z"></path><path class="cls-18" d="M867.46,1039.12a32.33,32.33,0,0,1-18.27-19.89,35.45,35.45,0,0,1-1.82-14c.14-1.83.43-4.1,1.83-5.45,2-1.93,6.56-1,7.51,1.73a8.62,8.62,0,0,1,.13,3.85,26.68,26.68,0,0,0,1.1,10.51c2.46,8.65,12.29,16,12.29,16S867.13,1035.06,867.46,1039.12Z"></path><path class="cls-18" d="M884.59,1007.89a15.69,15.69,0,0,0-.8-9.06s4.2-2.23,12.67-1.52c3.21.28,7.54.85,8.18,4.66a.94.94,0,0,1,0,.16c.25,1.7.05,3.81-1.42,4.93a5.24,5.24,0,0,1-4,.84C889.22,1006.8,884.63,1008.29,884.59,1007.89Z"></path><path class="cls-18" d="M905.66,990.84a4.1,4.1,0,0,1-5.19,3.8,23.8,23.8,0,0,0-7.53-.57c-7.67.48-10.38,3.1-10.38,3.1s-2.32-2.7-4.87-2.62a28.54,28.54,0,0,1,22.94-8.38,5.76,5.76,0,0,1,3.77,1.66,4.25,4.25,0,0,1,1.23,2.49A4.53,4.53,0,0,1,905.66,990.84Z"></path><path class="cls-18" d="M863.9,993.48a32.3,32.3,0,0,1,19.89-18.27,35.43,35.43,0,0,1,14-1.82c1.83.14,4.1.43,5.45,1.83,1.93,2,.94,6.56-1.73,7.5a8.48,8.48,0,0,1-3.85.14,26.68,26.68,0,0,0-10.51,1.1c-8.65,2.46-16,12.29-16,12.29S868,993.15,863.9,993.48Z"></path><path class="cls-18" d="M894.94,1011.34a15.69,15.69,0,0,0,9.06-.8s2.23,4.2,1.52,12.67c-.28,3.21-.85,7.54-4.66,8.18l-.16,0c-1.7.24-3.81,0-4.93-1.42a5.24,5.24,0,0,1-.84-4C896,1016,894.54,1011.38,894.94,1011.34Z"></path><path class="cls-18" d="M912,1032.41a4.11,4.11,0,0,1-3.8-5.19,23.5,23.5,0,0,0,.57-7.53c-.48-7.67-3.1-10.38-3.1-10.38s2.7-2.32,2.62-4.87a28.52,28.52,0,0,1,8.38,22.94,5.76,5.76,0,0,1-1.66,3.77,4.22,4.22,0,0,1-2.49,1.23A4.53,4.53,0,0,1,912,1032.41Z"></path><path class="cls-18" d="M909.36,990.65a32.3,32.3,0,0,1,18.26,19.89,35.43,35.43,0,0,1,1.82,14c-.14,1.83-.43,4.1-1.83,5.45-2,1.93-6.56.94-7.5-1.73a8.62,8.62,0,0,1-.14-3.85,26.55,26.55,0,0,0-1.1-10.52c-2.46-8.64-12.29-16-12.29-16S909.68,994.71,909.36,990.65Z"></path><path class="cls-18" d="M892.23,1021.88a15.72,15.72,0,0,0,.79,9.05s-4.2,2.24-12.67,1.52c-3.21-.28-7.54-.84-8.18-4.65a1.36,1.36,0,0,0,0-.17c-.24-1.69,0-3.8,1.42-4.92a5.28,5.28,0,0,1,4.05-.85C887.59,1023,892.18,1021.48,892.23,1021.88Z"></path><path class="cls-18" d="M871.15,1038.93a4.12,4.12,0,0,1,5.19-3.81,23.54,23.54,0,0,0,7.54.58c7.66-.48,10.37-3.11,10.37-3.11s2.32,2.71,4.87,2.63a28.52,28.52,0,0,1-22.94,8.38,5.81,5.81,0,0,1-3.77-1.66,4.25,4.25,0,0,1-1.23-2.49A4.53,4.53,0,0,1,871.15,1038.93Z"></path><path class="cls-18" d="M912.91,1036.29A32.33,32.33,0,0,1,893,1054.56a35.61,35.61,0,0,1-14,1.82c-1.83-.15-4.1-.43-5.44-1.83-1.94-2-.95-6.56,1.72-7.51a8.77,8.77,0,0,1,3.85-.14,26.68,26.68,0,0,0,10.52-1.09c8.65-2.46,16-12.29,16-12.29S908.85,1036.62,912.91,1036.29Z"></path><path class="cls-18" d="M959,1021v22.88H945.77V986.68h27.42c13.6,0,20.92,6.86,20.92,15.69,0,7.67-4.55,11.82-9.06,13.52,3.09,1,7.75,4,7.75,14.22v2.82c0,3.85,0,8.22.89,10.9H980.91c-1.1-2.49-1.31-6.76-1.31-12.83v-.84c0-6.25-1.72-9.21-11.77-9.21Zm0-9.83h11.31c7.39,0,10.24-2.58,10.24-7.36s-3.32-7.25-9.91-7.25H959Z"></path><path class="cls-18" d="M1013.21,1030.63l-4.3,13.2H997.17l18.75-57.15h15l19.55,57.15h-12.55l-4.53-13.2Zm17.6-10.13c-3.92-12.06-6.42-19.77-7.75-24.91H1023c-1.36,5.64-4.12,14.6-7.26,24.91Z"></path><path class="cls-18" d="M1054.89,986.68h11.8v25.5c3.63-4.4,15-17.29,22-25.5H1103l-22.18,23.75,23,33.4h-14.31l-16.94-25.39-5.82,5.76v19.63h-11.8Z"></path><path class="cls-18" d="M1113.75,994.13v3.36h-1.39v-7.76h3.8c2,0,3,.88,3,2.09a1.86,1.86,0,0,1-1.58,1.82,1.75,1.75,0,0,1,1.4,2V996a4.74,4.74,0,0,0,.13,1.53h-1.36a4.25,4.25,0,0,1-.17-1.68v-.16c0-1-.36-1.52-2-1.52Zm0-1h2c1.39,0,2-.43,2-1.26s-.63-1.23-1.87-1.23h-2.13Z"></path><path class="cls-18" d="M1115.33,1001.88a8.3,8.3,0,1,1,8.31-8.3A8.31,8.31,0,0,1,1115.33,1001.88Zm0-15.43a7.13,7.13,0,1,0,7.14,7.13A7.14,7.14,0,0,0,1115.33,986.45Z"></path><path class="cls-18" d="M944,1071.24v-20.42h3v20.42Z"></path><path class="cls-18" d="M964.79,1064.12c0,4.12-2.59,7.45-7.32,7.45-4.47,0-7.16-3.14-7.16-7.39s2.66-7.45,7.34-7.45C962,1056.73,964.79,1059.68,964.79,1064.12Zm-11.44,0c0,3,1.61,5.17,4.23,5.17s4.17-2,4.17-5.16-1.5-5.19-4.23-5.19S953.35,1061,953.35,1064.15Z"></path><path class="cls-18" d="M970.45,1054.33h-6.69v-2.43h16.52v2.43h-6.7v16.91h-3.13Z"></path><path class="cls-18" d="M1008.68,1063.18c0-3.53,0-7.19.13-9.25h-.12c-.91,3.28-4.06,11.23-6.39,17.31h-2.75c-1.77-5-5-14-6-17.35h-.1c.16,2.23.23,6.47.23,9.78v7.57h-2.9V1051.9h4.64c2.24,5.82,4.94,13.3,5.65,15.84h0c.5-2,3.73-10.16,6.05-15.84h4.51v19.34h-3Z"></path><path class="cls-18" d="M1027.88,1068a22.12,22.12,0,0,0,.21,3.21h-2.84a6.83,6.83,0,0,1-.24-1.77c-.54.92-1.73,2.1-4.67,2.1-3.64,0-5.19-2.19-5.19-4.35,0-3.18,2.72-4.63,7.28-4.63H1025v-1.15c0-1.2-.43-2.62-3.13-2.62-2.42,0-2.84,1.08-3.11,2.17h-2.85c.21-2.06,1.59-4.27,6.06-4.26,3.83,0,5.94,1.44,5.94,4.69Zm-2.9-3.61h-2.34c-3,0-4.47.76-4.47,2.64,0,1.39,1,2.42,2.84,2.42,3.51,0,4-2.19,4-4.63Z"></path><path class="cls-18" d="M1045.33,1050.82v16.43c0,1.33,0,2.63,0,4h-2.85a18,18,0,0,1-.14-1.91c-.75,1.4-2.27,2.24-4.74,2.24-3.94,0-6.38-2.94-6.38-7.28s2.62-7.56,6.89-7.56c2.62,0,3.83,1,4.23,1.72v-7.63Zm-11,13.39c0,3.3,1.65,5.08,4,5.08,3.46,0,4.17-2.41,4.17-5.31s-.65-5-4-5C1035.89,1059,1034.32,1060.92,1034.32,1064.21Z"></path><path class="cls-18" d="M1050.83,1064.67c0,2.67,1.47,4.65,4,4.65,2.3,0,3-1,3.51-2h3c-.59,1.79-2.25,4.3-6.58,4.3-4.88,0-6.89-3.6-6.89-7.26,0-4.26,2.33-7.58,7.06-7.58,5,0,6.68,3.64,6.68,6.76a8.93,8.93,0,0,1,0,1.18Zm7.75-1.86c0-2.2-1.19-4-3.71-4s-3.7,1.65-3.95,4Z"></path><path class="cls-18" d="M1086.35,1062.33H1076v6.48h11.38l-.39,2.43h-14V1051.9h13.89v2.43H1076v5.57h10.36Z"></path><path class="cls-18" d="M1102.4,1068a22.12,22.12,0,0,0,.21,3.21h-2.83a7.19,7.19,0,0,1-.25-1.77c-.54.92-1.73,2.1-4.66,2.1-3.64,0-5.19-2.19-5.19-4.35,0-3.18,2.72-4.63,7.27-4.63h2.54v-1.15c0-1.2-.42-2.62-3.12-2.62-2.42,0-2.85,1.08-3.11,2.17h-2.86c.21-2.06,1.6-4.27,6.06-4.26,3.83,0,5.94,1.44,5.94,4.69Zm-2.89-3.61h-2.34c-3,0-4.48.76-4.48,2.64,0,1.39,1,2.42,2.84,2.42,3.51,0,4-2.19,4-4.63Z"></path><path class="cls-18" d="M1108.32,1067.14c.41,1.47,1.61,2.33,3.6,2.33s2.95-.83,2.95-2-.7-1.81-3.49-2.44c-4.51-1-5.41-2.29-5.41-4.23s1.6-4,5.68-4,5.72,2.16,5.9,4.12h-2.85c-.21-.84-.89-2-3.18-2-2,0-2.61.88-2.61,1.75s.6,1.48,3.36,2.08c4.75,1,5.64,2.51,5.64,4.61,0,2.45-2.1,4.33-6.09,4.33s-6.06-1.9-6.44-4.43Z"></path><path class="cls-18" d="M1122.8,1057.06c2.31,6.42,3.68,10.3,4.06,11.72h0c.46-1.58,1.52-4.8,3.9-11.72h3l-5.45,14.78c-1.55,4.13-2.72,5.22-6,5.22a16.26,16.26,0,0,1-1.72-.1v-2.33a9.75,9.75,0,0,0,1.24.07c1.87,0,2.62-.73,3.46-2.94l-5.73-14.7Z"></path><path class="cls-18" d="M937.75,1119.7v-10.21h7.51v1.21h-6v3.16h5.22v1.2h-5.22v4.64Z"></path><path class="cls-18" d="M955.12,1116.12l1.47.34a4.47,4.47,0,0,1-1.67,2.54,4.87,4.87,0,0,1-2.94.87,5.65,5.65,0,0,1-2.93-.67,4.29,4.29,0,0,1-1.71-2,6.32,6.32,0,0,1-.59-2.73,5.63,5.63,0,0,1,.66-2.78,4.46,4.46,0,0,1,1.89-1.81,6,6,0,0,1,2.7-.61,4.84,4.84,0,0,1,2.81.78,4.06,4.06,0,0,1,1.59,2.19l-1.45.31a2.85,2.85,0,0,0-3-2.13,3.79,3.79,0,0,0-2.14.57,3,3,0,0,0-1.21,1.51,5.52,5.52,0,0,0-.35,2,5.65,5.65,0,0,0,.41,2.27,2.94,2.94,0,0,0,1.29,1.46,3.85,3.85,0,0,0,1.89.48,3.32,3.32,0,0,0,2.09-.66A3.27,3.27,0,0,0,955.12,1116.12Z"></path><path class="cls-18" d="M966.35,1116.12l1.48.34a4.52,4.52,0,0,1-1.67,2.54,4.92,4.92,0,0,1-2.94.87,5.65,5.65,0,0,1-2.93-.67,4.26,4.26,0,0,1-1.72-2,6.47,6.47,0,0,1-.59-2.73,5.53,5.53,0,0,1,.67-2.78,4.41,4.41,0,0,1,1.89-1.81,6,6,0,0,1,2.7-.61,4.87,4.87,0,0,1,2.81.78,4.06,4.06,0,0,1,1.59,2.19l-1.46.31a3.11,3.11,0,0,0-1.12-1.62,3.18,3.18,0,0,0-1.85-.51,3.83,3.83,0,0,0-2.15.57,3,3,0,0,0-1.21,1.51,5.75,5.75,0,0,0-.35,2,5.64,5.64,0,0,0,.42,2.27,2.87,2.87,0,0,0,1.28,1.46,3.88,3.88,0,0,0,1.89.48,3.33,3.33,0,0,0,2.1-.66A3.25,3.25,0,0,0,966.35,1116.12Z"></path><path class="cls-18" d="M974.22,1119.7v-10.21h1.47v10.21Z"></path><path class="cls-18" d="M978.29,1119.7v-10.21h3.83a10,10,0,0,1,2,.15,3.92,3.92,0,0,1,1.63.73,4.32,4.32,0,0,1,1.32,1.74,6.38,6.38,0,0,1,.43,2.43,6.83,6.83,0,0,1-.29,2.06,5.2,5.2,0,0,1-.76,1.49,3.81,3.81,0,0,1-1,.92,4,4,0,0,1-1.33.51,8,8,0,0,1-1.79.18Zm1.47-1.21h2.38a6.58,6.58,0,0,0,1.73-.18,2.73,2.73,0,0,0,1-.53,3.09,3.09,0,0,0,.82-1.3,5.66,5.66,0,0,0,.29-2,4.43,4.43,0,0,0-.57-2.46,2.74,2.74,0,0,0-1.4-1.15,6.13,6.13,0,0,0-1.9-.21h-2.34Z"></path><path class="cls-18" d="M989.73,1113.73v-1.43h1.55v1.43Zm0,6v-1.43h1.55v1.43Z"></path><path class="cls-18" d="M1000.47,1118.49v1.21h-7.36a2.17,2.17,0,0,1,.16-.87,4.71,4.71,0,0,1,.9-1.36,14.23,14.23,0,0,1,1.79-1.55,14,14,0,0,0,2.45-2.16,2.43,2.43,0,0,0,.64-1.5,1.6,1.6,0,0,0-.58-1.26,2.19,2.19,0,0,0-1.51-.51,2.24,2.24,0,0,0-1.58.54,1.91,1.91,0,0,0-.6,1.5l-1.41-.13a3.06,3.06,0,0,1,1.09-2.19,3.88,3.88,0,0,1,2.53-.76,3.67,3.67,0,0,1,2.53.82,2.54,2.54,0,0,1,.94,2,2.91,2.91,0,0,1-.27,1.21,4.87,4.87,0,0,1-.91,1.24,22,22,0,0,1-2.11,1.8c-.82.63-1.35,1.06-1.58,1.28a4.89,4.89,0,0,0-.58.68Z"></path><path class="cls-18" d="M1001.27,1119.7l4.28-10.21h1.59l4.55,10.21H1010l-1.29-3.09h-4.66l-1.23,3.09Zm3.22-4.19h3.77l-1.16-2.83c-.36-.86-.62-1.56-.79-2.12a12.52,12.52,0,0,1-.6,2Z"></path><path class="cls-18" d="M1013,1119.7v-10.21h7.51v1.21h-6v3.16h5.22v1.2h-5.22v4.64Z"></path><path class="cls-18" d="M1028.91,1112l-1.36.1a2.27,2.27,0,0,0-.51-1.07,1.89,1.89,0,0,0-1.37-.54,2,2,0,0,0-1.15.34,2.85,2.85,0,0,0-1,1.25,6.31,6.31,0,0,0-.38,2.37,3.06,3.06,0,0,1,1.21-1,3.48,3.48,0,0,1,1.49-.33,3.26,3.26,0,0,1,2.33.92,3.15,3.15,0,0,1,1,2.38,3.69,3.69,0,0,1-.45,1.79,3.13,3.13,0,0,1-1.24,1.26,3.58,3.58,0,0,1-1.8.44,3.62,3.62,0,0,1-2.78-1.15,5.46,5.46,0,0,1-1.08-3.8,6.37,6.37,0,0,1,1.19-4.3,3.56,3.56,0,0,1,2.8-1.17,3.34,3.34,0,0,1,2.16.68A2.81,2.81,0,0,1,1028.91,1112Zm-5.58,4.4a2.7,2.7,0,0,0,.3,1.24,2.09,2.09,0,0,0,.84.9,2.21,2.21,0,0,0,1.13.31,2,2,0,0,0,1.49-.64,2.42,2.42,0,0,0,.62-1.74,2.26,2.26,0,0,0-.61-1.67,2.14,2.14,0,0,0-1.55-.61,2.22,2.22,0,0,0-1.57.61A2.07,2.07,0,0,0,1023.33,1116.39Z"></path><path class="cls-18" d="M1032.57,1114.16a2.65,2.65,0,0,1-1.26-.81,2,2,0,0,1-.41-1.27,2.37,2.37,0,0,1,.88-1.87,3.38,3.38,0,0,1,2.32-.76,3.44,3.44,0,0,1,2.35.78,2.41,2.41,0,0,1,.89,1.89,2,2,0,0,1-.41,1.23,2.55,2.55,0,0,1-1.23.81,3.1,3.1,0,0,1,1.56,1,2.61,2.61,0,0,1,.53,1.63,2.8,2.8,0,0,1-1,2.2,4.41,4.41,0,0,1-5.31,0,2.84,2.84,0,0,1-1-2.23,2.53,2.53,0,0,1,.55-1.67A2.81,2.81,0,0,1,1032.57,1114.16Zm-.71,2.59a2.06,2.06,0,0,0,.28,1,1.93,1.93,0,0,0,.82.78,2.65,2.65,0,0,0,1.18.27,2.32,2.32,0,0,0,1.62-.58,1.89,1.89,0,0,0,.64-1.46,1.91,1.91,0,0,0-.66-1.5,2.35,2.35,0,0,0-1.65-.59,2.28,2.28,0,0,0-1.6.58A1.92,1.92,0,0,0,1031.86,1116.75Zm.44-4.71a1.51,1.51,0,0,0,.51,1.18,2.11,2.11,0,0,0,2.62,0,1.53,1.53,0,0,0,0-2.28,1.88,1.88,0,0,0-1.29-.47,1.85,1.85,0,0,0-1.3.46A1.41,1.41,0,0,0,1032.3,1112Z"></path><path class="cls-18" d="M1039,1116.63v-1.26h4.2v1.26Z"></path><path class="cls-18" d="M1044.88,1119.7v-10.21h4.94a6.92,6.92,0,0,1,2.26.28,2.38,2.38,0,0,1,1.24,1,2.71,2.71,0,0,1,.46,1.54,2.46,2.46,0,0,1-.76,1.83,4.11,4.11,0,0,1-2.37.94,4.67,4.67,0,0,1,.88.51,7.47,7.47,0,0,1,1.23,1.36l1.93,2.78h-1.85l-1.47-2.13c-.43-.61-.79-1.08-1.07-1.4a3.32,3.32,0,0,0-.74-.68,2.64,2.64,0,0,0-.68-.28,5.31,5.31,0,0,0-.82,0h-1.71v4.53Zm1.47-5.7h3.17a5.38,5.38,0,0,0,1.58-.19,1.72,1.72,0,0,0,.87-.62,1.52,1.52,0,0,0,.29-.91,1.46,1.46,0,0,0-.57-1.19,2.86,2.86,0,0,0-1.81-.47h-3.53Z"></path><path class="cls-18" d="M1054.87,1119.7l4.28-10.21h1.58l4.56,10.21h-1.68l-1.3-3.09h-4.65l-1.23,3.09Zm3.21-4.19h3.78l-1.17-2.83c-.35-.86-.61-1.56-.79-2.12a12.48,12.48,0,0,1-.59,2Z"></path><path class="cls-18" d="M1066.41,1119.7v-10.21h1.47v5.06l5.53-5.06h2l-4.67,4.14,4.87,6.07h-1.94l-4-5.17-1.82,1.63v3.54Z"></path><path class="cls-18" d="M1081.44,1119.7h-1.37v-8a7.19,7.19,0,0,1-1.29.87,10.4,10.4,0,0,1-1.44.64V1112a8.67,8.67,0,0,0,2-1.19,5,5,0,0,0,1.22-1.37h.88Z"></path><path class="cls-18" d="M1088.94,1119.7h-1.37v-8a7,7,0,0,1-1.3.87,9.45,9.45,0,0,1-1.44.64V1112a8.54,8.54,0,0,0,2-1.19,4.74,4.74,0,0,0,1.21-1.37h.89Z"></path><path class="cls-18" d="M1092.44,1117l1.37-.16a2.71,2.71,0,0,0,.8,1.53,2.12,2.12,0,0,0,1.38.47,2.29,2.29,0,0,0,1.63-.61,2,2,0,0,0,.67-1.52,1.84,1.84,0,0,0-.62-1.42,2.2,2.2,0,0,0-1.56-.56,4,4,0,0,0-1,.14l.15-1.1h.22a3,3,0,0,0,1.58-.42,1.4,1.4,0,0,0,.7-1.29,1.5,1.5,0,0,0-.51-1.14,1.92,1.92,0,0,0-1.32-.45,2,2,0,0,0-1.33.46,2.27,2.27,0,0,0-.68,1.38l-1.37-.22a3.22,3.22,0,0,1,1.14-2,3.49,3.49,0,0,1,2.21-.69,3.9,3.9,0,0,1,1.68.36,2.71,2.71,0,0,1,1.17,1,2.35,2.35,0,0,1,.41,1.31,2,2,0,0,1-.39,1.21,1,1,0,1,0,.39,1.73,2.45,2.45,0,0,1,.55,1.64,2.91,2.91,0,0,1-1.07,2.27,3.92,3.92,0,0,1-2.68.93,3.73,3.73,0,0,1-2.44-.8A3.05,3.05,0,0,1,1092.44,1117Z"></path><path class="cls-18" d="M1101.09,1114.66a8.65,8.65,0,0,1,.41-2.91,3.65,3.65,0,0,1,1.2-1.7,3.29,3.29,0,0,1,2-.6,3.52,3.52,0,0,1,1.57.33,2.88,2.88,0,0,1,1.12,1,5,5,0,0,1,.69,1.51,9.16,9.16,0,0,1,.25,2.41,8.57,8.57,0,0,1-.4,2.9,3.63,3.63,0,0,1-1.2,1.71,3.3,3.3,0,0,1-2,.6,3.16,3.16,0,0,1-2.53-1.06A6.33,6.33,0,0,1,1101.09,1114.66Zm1.4,0a5.93,5.93,0,0,0,.65,3.35,1.92,1.92,0,0,0,3.16,0,5.93,5.93,0,0,0,.65-3.35,5.87,5.87,0,0,0-.65-3.34,1.92,1.92,0,0,0-1.6-.83,1.8,1.8,0,0,0-1.5.73A6,6,0,0,0,1102.49,1114.66Z"></path><path class="cls-18" d="M1109.74,1114.66a8.65,8.65,0,0,1,.41-2.91,3.6,3.6,0,0,1,1.21-1.7,3.24,3.24,0,0,1,2-.6,3.52,3.52,0,0,1,1.57.33,2.81,2.81,0,0,1,1.12,1,5,5,0,0,1,.69,1.51,9.16,9.16,0,0,1,.25,2.41,8.57,8.57,0,0,1-.4,2.9,3.63,3.63,0,0,1-1.2,1.71,3.3,3.3,0,0,1-2,.6,3.18,3.18,0,0,1-2.53-1.06A6.33,6.33,0,0,1,1109.74,1114.66Zm1.41,0a6,6,0,0,0,.64,3.35,1.92,1.92,0,0,0,3.16,0,5.93,5.93,0,0,0,.65-3.35,5.87,5.87,0,0,0-.65-3.34,1.92,1.92,0,0,0-1.59-.83,1.81,1.81,0,0,0-1.51.73A6,6,0,0,0,1111.15,1114.66Z"></path><path class="cls-19" d="M770.85,1168.34H751.92v28.4h28.4v-28.4h-9.47Zm4.73,9.47V1192H756.65v-18.93h18.93Z"></path><polygon class="cls-19" points="846.59 1196.74 846.59 1192.01 846.59 1187.28 846.59 1182.54 841.85 1182.54 837.12 1182.54 837.12 1187.28 837.12 1192.01 837.12 1196.74 841.85 1196.74 846.59 1196.74"></polygon><path class="cls-19" d="M761.38,1111.54h18.94v-28.4h-28.4v28.4h9.46Zm-4.73-9.46v-14.2h18.93v18.93H756.65Z"></path><rect class="cls-19" x="799.25" y="1173.08" width="4.73" height="4.73"></rect><polygon class="cls-19" points="851.32 1187.28 851.32 1192.01 856.05 1192.01 856.05 1187.28 856.05 1182.54 851.32 1182.54 851.32 1187.28"></polygon><path class="cls-19" d="M851.32,1083.14H832.38v28.4h28.41v-28.4h-9.47Zm4.73,9.47v14.2H837.12v-18.93h18.93Z"></path><polygon class="cls-19" points="808.72 1121.01 813.45 1121.01 818.18 1121.01 818.18 1116.28 818.18 1111.54 813.45 1111.54 808.72 1111.54 808.72 1116.28 808.72 1121.01"></polygon><polygon class="cls-1" points="803.98 1168.34 803.98 1163.61 799.25 1163.61 799.25 1168.34 799.25 1173.08 803.98 1173.08 803.98 1168.34"></polygon><rect class="cls-1" x="794.52" y="1154.14" width="4.73" height="4.74"></rect><polygon class="cls-1" points="799.25 1144.68 799.25 1149.41 799.25 1154.14 803.98 1154.14 808.72 1154.14 808.72 1149.41 803.98 1149.41 803.98 1144.68 799.25 1144.68"></polygon><rect class="cls-1" x="808.72" y="1144.68" width="4.73" height="4.73"></rect><polygon class="cls-1" points="799.25 1130.48 803.98 1130.48 803.98 1135.21 803.98 1139.94 808.72 1139.94 808.72 1135.21 808.72 1130.48 808.72 1125.74 813.45 1125.74 818.18 1125.74 818.18 1130.48 818.18 1135.21 822.92 1135.21 822.92 1130.48 822.92 1125.74 822.92 1121.01 822.92 1116.28 822.92 1111.54 822.92 1106.81 822.92 1102.08 818.18 1102.08 818.18 1106.81 813.45 1106.81 808.72 1106.81 808.72 1111.54 813.45 1111.54 818.18 1111.54 818.18 1116.28 818.18 1121.01 813.45 1121.01 808.72 1121.01 808.72 1116.28 808.72 1111.54 803.98 1111.54 803.98 1116.28 803.98 1121.01 799.25 1121.01 799.25 1116.28 799.25 1111.54 794.52 1111.54 794.52 1116.28 794.52 1121.01 794.52 1125.74 799.25 1125.74 799.25 1130.48"></polygon><polygon class="cls-1" points="813.45 1102.08 813.45 1097.34 808.72 1097.34 808.72 1092.61 803.98 1092.61 803.98 1087.88 803.98 1083.14 808.72 1083.14 808.72 1087.88 813.45 1087.88 813.45 1083.14 818.18 1083.14 822.92 1083.14 822.92 1078.41 818.18 1078.41 813.45 1078.41 808.72 1078.41 803.98 1078.41 799.25 1078.41 794.52 1078.41 794.52 1083.14 799.25 1083.14 799.25 1087.88 799.25 1092.61 799.25 1097.34 799.25 1102.08 803.98 1102.08 803.98 1106.81 808.72 1106.81 808.72 1102.08 813.45 1102.08"></polygon><rect class="cls-1" x="860.79" y="1125.74" width="4.73" height="4.74"></rect><polygon class="cls-1" points="851.32 1130.48 851.32 1135.21 846.59 1135.21 846.59 1139.94 851.32 1139.94 851.32 1144.68 856.05 1144.68 856.05 1139.94 860.79 1139.94 860.79 1135.21 856.05 1135.21 856.05 1130.48 851.32 1130.48"></polygon><rect class="cls-1" x="837.12" y="1130.48" width="4.73" height="4.73"></rect><polygon class="cls-1" points="837.12 1163.61 837.12 1158.88 841.85 1158.88 841.85 1154.14 841.85 1149.41 841.85 1144.68 837.12 1144.68 837.12 1139.94 837.12 1135.21 832.38 1135.21 832.38 1130.48 832.38 1125.74 827.65 1125.74 827.65 1130.48 827.65 1135.21 827.65 1139.94 832.38 1139.94 832.38 1144.68 832.38 1149.41 832.38 1154.14 827.65 1154.14 827.65 1158.88 827.65 1163.61 832.38 1163.61 837.12 1163.61"></polygon><polygon class="cls-1" points="822.92 1149.41 822.92 1144.68 818.18 1144.68 818.18 1149.41 818.18 1154.14 822.92 1154.14 822.92 1149.41"></polygon><polygon class="cls-1" points="851.32 1158.88 846.59 1158.88 846.59 1163.61 846.59 1168.34 846.59 1173.08 841.85 1173.08 841.85 1177.81 837.12 1177.81 837.12 1173.08 832.38 1173.08 832.38 1177.81 832.38 1182.54 832.38 1187.28 827.65 1187.28 827.65 1192.01 822.92 1192.01 818.18 1192.01 818.18 1187.28 818.18 1182.54 822.92 1182.54 822.92 1177.81 818.18 1177.81 818.18 1173.08 822.92 1173.08 822.92 1168.34 818.18 1168.34 818.18 1163.61 818.18 1158.88 818.18 1154.14 813.45 1154.14 813.45 1158.88 813.45 1163.61 813.45 1168.34 813.45 1173.08 808.72 1173.08 803.98 1173.08 803.98 1177.81 799.25 1177.81 799.25 1173.08 794.52 1173.08 794.52 1177.81 794.52 1182.54 799.25 1182.54 799.25 1187.28 803.98 1187.28 803.98 1182.54 808.72 1182.54 808.72 1187.28 808.72 1192.01 808.72 1196.74 808.72 1201.48 813.45 1201.48 818.18 1201.48 818.18 1196.74 822.92 1196.74 827.65 1196.74 832.38 1196.74 837.12 1196.74 837.12 1192.01 837.12 1187.28 837.12 1182.54 841.85 1182.54 846.59 1182.54 846.59 1187.28 846.59 1192.01 846.59 1196.74 841.85 1196.74 837.12 1196.74 837.12 1201.48 841.85 1201.48 846.59 1201.48 851.32 1201.48 856.05 1201.48 860.79 1201.48 860.79 1196.74 860.79 1192.01 860.79 1187.28 865.52 1187.28 865.52 1182.54 860.79 1182.54 856.05 1182.54 856.05 1187.28 856.05 1192.01 851.32 1192.01 851.32 1187.28 851.32 1182.54 856.05 1182.54 856.05 1177.81 856.05 1173.08 856.05 1168.34 856.05 1163.61 860.79 1163.61 860.79 1158.88 856.05 1158.88 851.32 1158.88"></polygon><rect class="cls-1" x="860.79" y="1154.14" width="4.73" height="4.74"></rect><rect class="cls-1" x="860.79" y="1168.34" width="4.73" height="4.74"></rect><polygon class="cls-1" points="794.52 1196.74 794.52 1201.48 799.25 1201.48 799.25 1196.74 799.25 1192.01 794.52 1192.01 794.52 1196.74"></polygon><polygon class="cls-1" points="794.52 1135.21 789.78 1135.21 785.05 1135.21 780.32 1135.21 780.32 1139.94 785.05 1139.94 789.78 1139.94 794.52 1139.94 794.52 1135.21"></polygon><polygon class="cls-1" points="775.58 1130.48 775.58 1125.74 770.85 1125.74 766.12 1125.74 766.12 1130.48 766.12 1135.21 770.85 1135.21 770.85 1139.94 770.85 1144.68 770.85 1149.41 775.58 1149.41 780.32 1149.41 780.32 1144.68 775.58 1144.68 775.58 1139.94 775.58 1135.21 780.32 1135.21 780.32 1130.48 775.58 1130.48"></polygon><rect class="cls-1" x="780.32" y="1125.74" width="4.73" height="4.74"></rect><polygon class="cls-1" points="846.59 1087.88 841.85 1087.88 837.12 1087.88 837.12 1092.61 837.12 1097.34 837.12 1102.08 837.12 1106.81 841.85 1106.81 846.59 1106.81 851.32 1106.81 856.05 1106.81 856.05 1102.08 856.05 1097.34 856.05 1092.61 856.05 1087.88 851.32 1087.88 846.59 1087.88"></polygon><path class="cls-1" d="M860.79,1078.41H827.65v37.87h37.87v-37.87Zm0,9.47v23.66H832.38v-28.4h28.41Z"></path><polygon class="cls-1" points="766.12 1106.81 770.85 1106.81 775.58 1106.81 775.58 1102.08 775.58 1097.34 775.58 1092.61 775.58 1087.88 770.85 1087.88 766.12 1087.88 761.38 1087.88 756.65 1087.88 756.65 1092.61 756.65 1097.34 756.65 1102.08 756.65 1106.81 761.38 1106.81 766.12 1106.81"></polygon><path class="cls-1" d="M756.65,1116.28h28.4v-37.87H747.18v37.87h9.47Zm-4.73-9.47v-23.67h28.4v28.4h-28.4Z"></path><rect class="cls-1" x="780.32" y="1149.41" width="4.73" height="4.73"></rect><polygon class="cls-1" points="761.38 1149.41 761.38 1144.68 761.38 1139.94 756.65 1139.94 751.92 1139.94 751.92 1135.21 751.92 1130.48 756.65 1130.48 756.65 1125.74 751.92 1125.74 747.18 1125.74 747.18 1130.48 747.18 1135.21 747.18 1139.94 747.18 1144.68 751.92 1144.68 756.65 1144.68 756.65 1149.41 751.92 1149.41 747.18 1149.41 747.18 1154.14 751.92 1154.14 756.65 1154.14 761.38 1154.14 766.12 1154.14 770.85 1154.14 770.85 1149.41 766.12 1149.41 761.38 1149.41"></polygon><polygon class="cls-1" points="766.12 1173.08 761.38 1173.08 756.65 1173.08 756.65 1177.81 756.65 1182.54 756.65 1187.28 756.65 1192.01 761.38 1192.01 766.12 1192.01 770.85 1192.01 775.58 1192.01 775.58 1187.28 775.58 1182.54 775.58 1177.81 775.58 1173.08 770.85 1173.08 766.12 1173.08"></polygon><path class="cls-1" d="M775.58,1163.61h-28.4v37.87h37.87v-37.87h-9.47Zm4.74,9.47v23.66h-28.4v-28.4h28.4Z"></path></g></svg>