<?xml version="1.0" encoding="UTF-8"?>
<svg height="600" width="800" xmlns="http://www.w3.org/2000/svg" xmlns:xlink="http://www.w3.org/1999/xlink">
    <g id="Notes" font-family="'LucidaGrande', 'Lucida Grande', sans-serif" font-size="13">
        <rect fill="white" height="600.0" width="800.0" x="0.0" y="0.0" />
        <g font-size="13">
            <text x="18.0" y="176.0">Small</text>
            <text x="18.0" y="376.0">Medium</text>
            <text x="18.0" y="576.0">Large</text>
        </g>
        <g font-size="9">
            <text x="250.0" y="30.0">Ultralight</text>
            <text x="450.0" y="30.0">Regular</text>
            <text x="650.0" y="30.0">Black</text>
            <text id="template-version" fill="#505050" text-anchor="end" x="785.0" y="575.0">Template v.3.0</text>
            <a href="https://github.com/swhitty/SwiftDraw">
                <text fill="#505050" text-anchor="end" x="785.0" y="590.0">https://github.com/swhitty/SwiftDraw</text>
            </a>
        </g>
    </g>
    <g id="Guides" stroke="rgb(39, 170, 225)" stroke-width="0.5">
        <path id="Capline-S" d="M18,76 l800,0" />
        <path id="H-reference" d="M85,145.755 L87.685,145.755 L113.369,79.287 L114.052,79.287 L114.052,76 L112.148,76 L85,145.755 Z M95.693,121.536 L130.996,121.536 L130.263,119.313 L96.474,119.313 L95.693,121.536 Z M139.15,145.755 L141.787,145.755 L114.638,76 L113.466,76 L113.466,79.287 L139.15,145.755 Z" stroke="none" transform="translate(0,0)" />
        <path id="Baseline-S" d="M18,146 l800,0" />
        <path id="left-margin-Ultralight-S" d="M221,56 l0,110" />
        <path id="right-margin-Ultralight-S" d="M309,56 l0,110" />
        <path id="left-margin-Regular-S" d="M421,56 l0,110" />
        <path id="right-margin-Regular-S" d="M509,56 l0,110" />
        <path id="left-margin-Black-S" d="M621,56 l0,110" />
        <path id="right-margin-Black-S" d="M709,56 l0,110" />
        <path id="Capline-M" d="M18,276 l800,0" />
        <path id="Baseline-M" d="M18,346 l800,0" />
        <path id="Capline-L" d="M18,476 l800,0" />
        <path id="Baseline-L" d="M18,546 l800,0" />
    </g>
    <g id="Symbols">
        <g id="Ultralight-S" transform="translate(0,0)">
            <path d="M265.002,76.625 L260.238,84.262 L263.636,84.262 L263.636,123.299 L254.963,115.698 C254.403,115.051 254.011,114.205 253.989,113.334 C253.989,109.812 253.988,107.721 253.986,106.951 C255.592,106.429 256.751,105.027 256.751,103.361 C256.751,101.252 254.903,99.542 252.626,99.542 C250.347,99.542 248.5,101.252 248.5,103.361 C248.5,105.027 249.658,106.429 251.263,106.951 L251.262,113.259 C251.262,114.969 252.275,116.761 253.463,117.901 C253.427,117.87 253.39,117.838 253.463,117.903 C253.493,117.927 262.664,125.967 262.664,125.967 C263.223,126.612 263.613,127.458 263.636,128.328 L263.636,132.744 C260.485,133.329 258.111,135.906 258.111,138.996 C258.111,142.519 261.196,145.375 265,145.375 C268.805,145.375 271.889,142.519 271.889,138.996 C271.889,135.905 269.514,133.329 266.36,132.744 L266.36,128.405 C266.36,128.393 266.361,128.383 266.36,128.371 L266.36,118.775 C266.384,117.907 266.775,117.062 267.335,116.417 C267.335,116.417 276.506,108.379 276.535,108.354 C276.609,108.29 276.571,108.322 276.536,108.354 C277.723,107.213 278.736,105.421 278.736,103.711 L278.734,97.631 L281.5,97.631 L281.5,89.992 L273.25,89.992 L273.25,97.631 L276.012,97.631 C276.012,97.631 276.009,99.232 276.009,103.785 C275.987,104.656 275.595,105.503 275.035,106.15 L266.361,113.752 L266.361,84.262 L269.764,84.262 Z" />
        </g>
        <g id="Regular-S" transform="translate(0,0)">
            <path d="M465.002,76.625 L460.238,84.262 L463.636,84.262 L463.636,123.299 L454.963,115.698 C454.403,115.051 454.011,114.205 453.989,113.334 C453.989,109.812 453.988,107.721 453.986,106.951 C455.592,106.429 456.751,105.027 456.751,103.361 C456.751,101.252 454.903,99.542 452.626,99.542 C450.347,99.542 448.5,101.252 448.5,103.361 C448.5,105.027 449.658,106.429 451.263,106.951 L451.262,113.259 C451.262,114.969 452.275,116.761 453.463,117.901 C453.427,117.87 453.39,117.838 453.463,117.903 C453.493,117.927 462.664,125.967 462.664,125.967 C463.223,126.612 463.613,127.458 463.636,128.328 L463.636,132.744 C460.485,133.329 458.111,135.906 458.111,138.996 C458.111,142.519 461.196,145.375 465,145.375 C468.805,145.375 471.889,142.519 471.889,138.996 C471.889,135.905 469.514,133.329 466.36,132.744 L466.36,128.405 C466.36,128.393 466.361,128.383 466.36,128.371 L466.36,118.775 C466.384,117.907 466.775,117.062 467.335,116.417 C467.335,116.417 476.506,108.379 476.535,108.354 C476.609,108.29 476.571,108.322 476.536,108.354 C477.723,107.213 478.736,105.421 478.736,103.711 L478.734,97.631 L481.5,97.631 L481.5,89.992 L473.25,89.992 L473.25,97.631 L476.012,97.631 C476.012,97.631 476.009,99.232 476.009,103.785 C475.987,104.656 475.595,105.503 475.035,106.15 L466.361,113.752 L466.361,84.262 L469.764,84.262 Z" />
        </g>
        <g id="Black-S" transform="translate(0,0)">
            <path d="M665.002,76.625 L660.238,84.262 L663.636,84.262 L663.636,123.299 L654.963,115.698 C654.403,115.051 654.011,114.205 653.989,113.334 C653.989,109.812 653.988,107.721 653.986,106.951 C655.592,106.429 656.751,105.027 656.751,103.361 C656.751,101.252 654.903,99.542 652.625,99.542 C650.347,99.542 648.5,101.252 648.5,103.361 C648.5,105.027 649.658,106.429 651.263,106.951 L651.262,113.259 C651.262,114.969 652.275,116.761 653.463,117.901 C653.427,117.87 653.39,117.838 653.463,117.903 C653.493,117.927 662.664,125.967 662.664,125.967 C663.223,126.612 663.613,127.458 663.636,128.328 L663.636,132.744 C660.485,133.329 658.111,135.906 658.111,138.996 C658.111,142.519 661.196,145.375 665,145.375 C668.805,145.375 671.889,142.519 671.889,138.996 C671.889,135.905 669.514,133.329 666.36,132.744 L666.36,128.405 C666.36,128.393 666.361,128.383 666.36,128.371 L666.36,118.775 C666.384,117.907 666.775,117.062 667.335,116.417 C667.335,116.417 676.506,108.379 676.535,108.354 C676.609,108.29 676.571,108.322 676.536,108.354 C677.724,107.213 678.736,105.421 678.736,103.711 L678.734,97.631 L681.5,97.631 L681.5,89.992 L673.25,89.992 L673.25,97.631 L676.012,97.631 C676.012,97.631 676.009,99.232 676.009,103.785 C675.987,104.656 675.595,105.503 675.035,106.15 L666.361,113.752 L666.361,84.262 L669.764,84.262 Z" />
        </g>
    </g>
</svg>